<svg xmlns="http://www.w3.org/2000/svg" width="1185" height="516" fill="none" viewBox="0 0 1185 516">
  <path fill="#F0876F" d="M250.349 118.145h327.665v70.905H250.349z"/>
  <path fill="#919396" fill-opacity=".6" d="M653.629 356.07H862.47v70.905H653.629z"/>
  <path fill="#919396" d="M250.349 426.975h403.28v70.905h-403.28z"/>
  <path fill="#FBE1DB" d="M695.037 118.145h414.982v70.905H695.037z"/>
  <path fill="#E9E9EA" d="M945.287 214.26h164.733v70.905H945.287z"/>
  <path fill="#EC694B" fill-opacity=".4" d="M578.014 118.145h117.023v70.905H578.014z"/>
  <path fill="#919396" fill-opacity=".4" d="M862.471 285.165h82.816v70.905h-82.816v-70.905z"/>
  <path stroke="#000" d="M249.449 107.903V516"/>
  <path stroke="#000" stroke-dasharray="5 5" stroke-opacity=".5" d="M1110.02 107.903V498M945.287 214.26v141.81M653.629 356.07v141.81M862.471 285.165v141.81"/>
  <path fill="#000" d="M17.968 130.2V147H16L5.92 134.472V147h-2.4v-16.8h1.968l10.08 12.528V130.2h2.4zm10.39 16.944c-1.263 0-2.4-.28-3.407-.84A6.204 6.204 0 0122.575 144c-.56-.992-.84-2.112-.84-3.36 0-1.248.28-2.36.84-3.336A5.984 5.984 0 0124.95 135c1.008-.56 2.144-.84 3.408-.84 1.264 0 2.392.28 3.384.84a5.822 5.822 0 012.352 2.304c.576.976.864 2.088.864 3.336 0 1.248-.288 2.368-.864 3.36a6.031 6.031 0 01-2.352 2.304c-.992.56-2.12.84-3.384.84zm0-2.016c.817 0 1.545-.184 2.185-.552a4.061 4.061 0 001.536-1.584c.368-.688.552-1.472.552-2.352 0-.88-.184-1.656-.552-2.328a3.858 3.858 0 00-1.536-1.584c-.64-.368-1.368-.552-2.184-.552-.816 0-1.552.184-2.208.552-.64.368-1.152.896-1.536 1.584-.368.672-.552 1.448-.552 2.328 0 .88.184 1.664.552 2.352.384.672.896 1.2 1.536 1.584.656.368 1.392.552 2.208.552zm12.245-8.712c.4-.736.992-1.296 1.776-1.68.784-.384 1.736-.576 2.856-.576v2.232a4.498 4.498 0 00-.528-.024c-1.248 0-2.232.376-2.952 1.128-.704.736-1.056 1.792-1.056 3.168V147h-2.304v-12.72h2.208v2.136zm23.634-2.256c1.6 0 2.864.464 3.792 1.392.944.928 1.416 2.304 1.416 4.128V147H67.14v-7.056c0-1.232-.288-2.16-.864-2.784-.56-.624-1.368-.936-2.424-.936-1.168 0-2.096.368-2.784 1.104-.688.72-1.032 1.76-1.032 3.12V147h-2.304v-7.056c0-1.232-.288-2.16-.864-2.784-.56-.624-1.368-.936-2.424-.936-1.168 0-2.096.368-2.784 1.104-.688.72-1.032 1.76-1.032 3.12V147h-2.304v-12.72h2.208v1.896a4.376 4.376 0 011.824-1.488c.752-.352 1.608-.528 2.568-.528.992 0 1.872.2 2.64.6.768.4 1.36.984 1.776 1.752.48-.736 1.144-1.312 1.992-1.728.864-.416 1.832-.624 2.904-.624zm14.329 0c1.76 0 3.104.432 4.032 1.296.944.864 1.416 2.152 1.416 3.864V147H81.83v-1.68c-.384.592-.936 1.048-1.656 1.368-.704.304-1.544.456-2.52.456-1.424 0-2.568-.344-3.432-1.032-.848-.688-1.272-1.592-1.272-2.712s.408-2.016 1.224-2.688c.816-.688 2.112-1.032 3.888-1.032h3.648v-.456c0-.992-.288-1.752-.864-2.28-.576-.528-1.424-.792-2.544-.792-.752 0-1.488.128-2.208.384-.72.24-1.328.568-1.824.984l-.96-1.728c.656-.528 1.44-.928 2.352-1.2a9.588 9.588 0 012.904-.432zm-.528 11.208c.88 0 1.64-.192 2.28-.576.64-.4 1.104-.96 1.392-1.68v-1.776h-3.552c-1.952 0-2.928.656-2.928 1.968 0 .64.248 1.144.744 1.512.496.368 1.184.552 2.064.552zm10.49-16.176h2.304V147h-2.304v-17.808zm25.816 5.088v10.992c0 2.224-.552 3.864-1.656 4.92-1.104 1.072-2.752 1.608-4.944 1.608-1.2 0-2.344-.168-3.432-.504-1.088-.32-1.968-.784-2.64-1.392l1.104-1.776c.592.512 1.32.912 2.184 1.2a8.25 8.25 0 002.712.456c1.488 0 2.584-.352 3.288-1.056.72-.704 1.08-1.776 1.08-3.216v-1.008a5.187 5.187 0 01-2.016 1.488c-.784.32-1.64.48-2.568.48-1.216 0-2.32-.256-3.312-.768a5.935 5.935 0 01-2.304-2.184c-.56-.944-.84-2.016-.84-3.216 0-1.2.28-2.264.84-3.192a5.714 5.714 0 012.304-2.184c.992-.512 2.096-.768 3.312-.768.96 0 1.848.176 2.664.528a4.952 4.952 0 012.04 1.56v-1.968h2.184zm-6.624 10.176c.832 0 1.576-.176 2.232-.528a3.83 3.83 0 001.56-1.464c.384-.64.576-1.36.576-2.16 0-1.232-.408-2.224-1.224-2.976-.816-.768-1.864-1.152-3.144-1.152-1.296 0-2.352.384-3.168 1.152-.816.752-1.224 1.744-1.224 2.976 0 .8.184 1.52.552 2.16a4.04 4.04 0 001.56 1.464c.672.352 1.432.528 2.28.528zm15.909-10.296c1.76 0 3.104.432 4.032 1.296.944.864 1.416 2.152 1.416 3.864V147h-2.184v-1.68c-.384.592-.936 1.048-1.656 1.368-.704.304-1.544.456-2.52.456-1.424 0-2.568-.344-3.432-1.032-.848-.688-1.272-1.592-1.272-2.712s.408-2.016 1.224-2.688c.816-.688 2.112-1.032 3.888-1.032h3.648v-.456c0-.992-.288-1.752-.864-2.28-.576-.528-1.424-.792-2.544-.792-.752 0-1.488.128-2.208.384-.72.24-1.328.568-1.824.984l-.96-1.728c.656-.528 1.44-.928 2.352-1.2a9.588 9.588 0 012.904-.432zm-.528 11.208c.88 0 1.64-.192 2.28-.576.64-.4 1.104-.96 1.392-1.68v-1.776h-3.552c-1.952 0-2.928.656-2.928 1.968 0 .64.248 1.144.744 1.512.496.368 1.184.552 2.064.552zm14.137 1.776c-1.04 0-2.04-.136-3-.408-.96-.288-1.712-.648-2.256-1.08l.96-1.824c.56.4 1.24.72 2.04.96s1.608.36 2.424.36c2.016 0 3.024-.576 3.024-1.728 0-.384-.136-.688-.408-.912-.272-.224-.616-.384-1.032-.48a18.11 18.11 0 00-1.728-.36c-1.024-.16-1.864-.344-2.52-.552a3.874 3.874 0 01-1.656-1.056c-.464-.496-.696-1.192-.696-2.088 0-1.152.48-2.072 1.44-2.76.96-.704 2.248-1.056 3.864-1.056.848 0 1.696.104 2.544.312.848.208 1.544.488 2.088.84l-.984 1.824c-1.04-.672-2.264-1.008-3.672-1.008-.976 0-1.72.16-2.232.48-.512.32-.768.744-.768 1.272 0 .416.144.744.432.984.288.24.64.416 1.056.528.432.112 1.032.24 1.8.384 1.024.176 1.848.368 2.472.576a3.61 3.61 0 011.632 1.008c.448.48.672 1.152.672 2.016 0 1.152-.496 2.072-1.488 2.76-.976.672-2.312 1.008-4.008 1.008zm-130.406 30c-1.04 0-2.04-.136-3-.408-.96-.288-1.712-.648-2.256-1.08l.96-1.824c.56.4 1.24.72 2.04.96s1.608.36 2.424.36c2.016 0 3.024-.576 3.024-1.728 0-.384-.136-.688-.408-.912-.272-.224-.616-.384-1.032-.48a18.11 18.11 0 00-1.728-.36c-1.024-.16-1.864-.344-2.52-.552a3.874 3.874 0 01-1.656-1.056c-.464-.496-.696-1.192-.696-2.088 0-1.152.48-2.072 1.44-2.76.96-.704 2.248-1.056 3.864-1.056.848 0 1.696.104 2.544.312.848.208 1.544.488 2.088.84l-.984 1.824c-1.04-.672-2.264-1.008-3.672-1.008-.976 0-1.72.16-2.232.48-.512.32-.768.744-.768 1.272 0 .416.144.744.432.984.288.24.64.416 1.056.528.432.112 1.032.24 1.8.384 1.024.176 1.848.368 2.472.576a3.61 3.61 0 011.632 1.008c.448.48.672 1.152.672 2.016 0 1.152-.496 2.072-1.488 2.76-.976.672-2.312 1.008-4.008 1.008zm20.481-12.864V177H25.13v-1.92a4.706 4.706 0 01-1.848 1.536 5.758 5.758 0 01-2.472.528c-1.696 0-3.032-.464-4.008-1.392-.976-.944-1.464-2.328-1.464-4.152v-7.32h2.304v7.056c0 1.232.296 2.168.888 2.808.592.624 1.44.936 2.544.936 1.216 0 2.176-.368 2.88-1.104.704-.736 1.056-1.776 1.056-3.12v-6.576h2.304zm11.38-.12c1.233 0 2.337.272 3.313.816a5.787 5.787 0 012.28 2.28c.56.976.84 2.104.84 3.384 0 1.28-.28 2.416-.84 3.408a5.787 5.787 0 01-2.28 2.28c-.976.544-2.08.816-3.312.816a5.975 5.975 0 01-2.52-.528 5.243 5.243 0 01-1.92-1.536v6.576H31.95V164.28h2.208v2.016a4.797 4.797 0 011.944-1.584c.784-.368 1.648-.552 2.592-.552zm-.191 10.968c.816 0 1.544-.184 2.184-.552a4.061 4.061 0 001.536-1.584c.384-.688.576-1.472.576-2.352 0-.88-.192-1.656-.576-2.328a3.858 3.858 0 00-1.536-1.584c-.64-.368-1.368-.552-2.184-.552-.8 0-1.528.192-2.184.576a4.111 4.111 0 00-1.536 1.56c-.368.672-.552 1.448-.552 2.328 0 .88.184 1.664.552 2.352.368.672.88 1.2 1.536 1.584a4.387 4.387 0 002.184.552zm16.801-10.968c1.232 0 2.336.272 3.312.816a5.787 5.787 0 012.28 2.28c.56.976.84 2.104.84 3.384 0 1.28-.28 2.416-.84 3.408a5.787 5.787 0 01-2.28 2.28c-.976.544-2.08.816-3.312.816a5.975 5.975 0 01-2.52-.528 5.243 5.243 0 01-1.92-1.536v6.576h-2.304V164.28h2.208v2.016a4.797 4.797 0 011.944-1.584c.784-.368 1.648-.552 2.592-.552zm-.192 10.968c.816 0 1.544-.184 2.184-.552a4.061 4.061 0 001.536-1.584c.384-.688.576-1.472.576-2.352 0-.88-.192-1.656-.576-2.328a3.858 3.858 0 00-1.536-1.584c-.64-.368-1.368-.552-2.184-.552-.8 0-1.528.192-2.184.576a4.111 4.111 0 00-1.536 1.56c-.368.672-.552 1.448-.552 2.328 0 .88.184 1.664.552 2.352.368.672.88 1.2 1.536 1.584a4.387 4.387 0 002.184.552zm10.057-15.936h2.304V177h-2.304v-17.808zm18.21 5.088l-6.168 13.992c-.544 1.296-1.184 2.208-1.92 2.736-.72.528-1.593.792-2.617.792a5.464 5.464 0 01-1.823-.312 3.615 3.615 0 01-1.44-.864l.984-1.728c.655.624 1.415.936 2.28.936.56 0 1.023-.152 1.391-.456.385-.288.728-.792 1.032-1.512l.409-.888-5.617-12.696h2.4l4.44 10.176 4.392-10.176h2.257zm13.727-.12c1.76 0 3.104.432 4.032 1.296.944.864 1.416 2.152 1.416 3.864V177h-2.184v-1.68c-.384.592-.936 1.048-1.656 1.368-.704.304-1.544.456-2.52.456-1.424 0-2.568-.344-3.432-1.032-.848-.688-1.272-1.592-1.272-2.712s.408-2.016 1.224-2.688c.816-.688 2.112-1.032 3.888-1.032h3.648v-.456c0-.992-.288-1.752-.864-2.28-.576-.528-1.424-.792-2.544-.792-.752 0-1.488.128-2.208.384-.72.24-1.328.568-1.824.984l-.96-1.728c.656-.528 1.44-.928 2.352-1.2a9.588 9.588 0 012.904-.432zm-.528 11.208c.88 0 1.64-.192 2.28-.576.64-.4 1.104-.96 1.392-1.68v-1.776h-3.552c-1.952 0-2.928.656-2.928 1.968 0 .64.248 1.144.744 1.512.496.368 1.184.552 2.064.552zm14.138 1.776c-1.04 0-2.04-.136-3-.408-.96-.288-1.712-.648-2.256-1.08l.96-1.824c.56.4 1.24.72 2.04.96s1.608.36 2.424.36c2.016 0 3.024-.576 3.024-1.728 0-.384-.136-.688-.408-.912-.272-.224-.616-.384-1.032-.48a18.11 18.11 0 00-1.728-.36c-1.024-.16-1.864-.344-2.52-.552a3.874 3.874 0 01-1.656-1.056c-.464-.496-.696-1.192-.696-2.088 0-1.152.48-2.072 1.44-2.76.96-.704 2.248-1.056 3.864-1.056.848 0 1.696.104 2.544.312.848.208 1.544.488 2.088.84l-.984 1.824c-1.04-.672-2.264-1.008-3.672-1.008-.976 0-1.72.16-2.232.48-.512.32-.768.744-.768 1.272 0 .416.144.744.432.984.288.24.64.416 1.056.528.432.112 1.032.24 1.8.384 1.024.176 1.848.368 2.472.576a3.61 3.61 0 011.632 1.008c.448.48.672 1.152.672 2.016 0 1.152-.496 2.072-1.488 2.76-.976.672-2.312 1.008-4.008 1.008zm20.769 0c-1.264 0-2.4-.28-3.408-.84A6.204 6.204 0 01125.7 174c-.56-.992-.84-2.112-.84-3.36 0-1.248.28-2.36.84-3.336a5.984 5.984 0 012.376-2.304c1.008-.56 2.144-.84 3.408-.84 1.264 0 2.392.28 3.384.84a5.822 5.822 0 012.352 2.304c.576.976.864 2.088.864 3.336 0 1.248-.288 2.368-.864 3.36a6.031 6.031 0 01-2.352 2.304c-.992.56-2.12.84-3.384.84zm0-2.016c.816 0 1.544-.184 2.184-.552a4.061 4.061 0 001.536-1.584c.368-.688.552-1.472.552-2.352 0-.88-.184-1.656-.552-2.328a3.858 3.858 0 00-1.536-1.584c-.64-.368-1.368-.552-2.184-.552-.816 0-1.552.184-2.208.552-.64.368-1.152.896-1.536 1.584-.368.672-.552 1.448-.552 2.328 0 .88.184 1.664.552 2.352.384.672.896 1.2 1.536 1.584.656.368 1.392.552 2.208.552zm14.692-14.184c-1.376 0-2.064.744-2.064 2.232v1.104h3.696v1.896h-3.648V177h-2.304v-10.824h-2.16v-1.896h2.16v-1.128c0-1.264.368-2.264 1.104-3 .736-.736 1.768-1.104 3.096-1.104.512 0 .992.064 1.44.192.448.128.832.312 1.152.552l-.696 1.752c-.528-.4-1.12-.6-1.776-.6zm13.486 1.344v5.856h8.424v2.064h-8.424V177h-2.4v-16.8h11.856v2.088h-9.456zm23.846 8.424c0 .176-.016.408-.048.696h-10.32c.144 1.12.632 2.024 1.464 2.712.848.672 1.896 1.008 3.144 1.008 1.52 0 2.744-.512 3.672-1.536l1.272 1.488a5.554 5.554 0 01-2.16 1.536c-.848.352-1.8.528-2.856.528-1.344 0-2.536-.272-3.576-.816a6.067 6.067 0 01-2.424-2.328c-.56-.992-.84-2.112-.84-3.36 0-1.232.272-2.344.816-3.336a5.955 5.955 0 012.28-2.304c.976-.56 2.072-.84 3.288-.84 1.216 0 2.296.28 3.24.84a5.631 5.631 0 012.232 2.304c.544.992.816 2.128.816 3.408zm-6.288-4.608c-1.104 0-2.032.336-2.784 1.008-.736.672-1.168 1.552-1.296 2.64h8.16c-.128-1.072-.568-1.944-1.32-2.616-.736-.688-1.656-1.032-2.76-1.032zm16.481-1.944c1.232 0 2.336.272 3.312.816a5.787 5.787 0 012.28 2.28c.56.976.84 2.104.84 3.384 0 1.28-.28 2.416-.84 3.408a5.787 5.787 0 01-2.28 2.28c-.976.544-2.08.816-3.312.816-.944 0-1.808-.184-2.592-.552a4.99 4.99 0 01-1.944-1.608V177h-2.208v-17.808h2.304v7.008a4.793 4.793 0 011.92-1.512 5.975 5.975 0 012.52-.528zm-.192 10.968c.816 0 1.544-.184 2.184-.552a4.061 4.061 0 001.536-1.584c.384-.688.576-1.472.576-2.352 0-.88-.192-1.656-.576-2.328a3.858 3.858 0 00-1.536-1.584c-.64-.368-1.368-.552-2.184-.552-.8 0-1.528.184-2.184.552a3.858 3.858 0 00-1.536 1.584c-.368.672-.552 1.448-.552 2.328 0 .88.184 1.664.552 2.352.368.672.88 1.2 1.536 1.584a4.387 4.387 0 002.184.552zM221.47 160.2v1.632L214.678 177h-2.544l6.648-14.712h-7.68v3h-2.304V160.2h12.672z"/>
  <path fill="#000" fill-opacity=".3" d="M262.824 12.288c.976.272 1.744.768 2.304 1.488.56.704.84 1.6.84 2.688 0 1.456-.552 2.576-1.656 3.36-1.088.784-2.68 1.176-4.776 1.176h-8.016V4.2h7.536c1.92 0 3.4.384 4.44 1.152 1.056.768 1.584 1.832 1.584 3.192 0 .88-.208 1.64-.624 2.28-.4.64-.944 1.128-1.632 1.464zm-8.904-6.144v5.376h4.92c1.232 0 2.176-.224 2.832-.672.672-.464 1.008-1.136 1.008-2.016 0-.88-.336-1.544-1.008-1.992-.656-.464-1.6-.696-2.832-.696h-4.92zm5.52 12.912c1.36 0 2.384-.224 3.072-.672.688-.448 1.032-1.152 1.032-2.112 0-1.872-1.368-2.808-4.104-2.808h-5.52v5.592h5.52zM269.598 8.28h2.304V21h-2.304V8.28zm1.152-2.448c-.448 0-.824-.144-1.128-.432a1.436 1.436 0 01-.432-1.056c0-.416.144-.768.432-1.056.304-.304.68-.456 1.128-.456.448 0 .816.144 1.104.432.304.272.456.616.456 1.032 0 .432-.152.8-.456 1.104-.288.288-.656.432-1.104.432zm5.801-2.64h2.304V21h-2.304V3.192zm6.953 0h2.304V21h-2.304V3.192zm6.953 5.088h2.304V21h-2.304V8.28zm1.152-2.448c-.448 0-.824-.144-1.128-.432a1.436 1.436 0 01-.432-1.056c0-.416.144-.768.432-1.056.304-.304.68-.456 1.128-.456.448 0 .816.144 1.104.432.304.272.456.616.456 1.032 0 .432-.152.8-.456 1.104-.288.288-.656.432-1.104.432zm11.25 15.312c-1.264 0-2.4-.28-3.408-.84A6.204 6.204 0 01297.075 18c-.56-.992-.84-2.112-.84-3.36 0-1.248.28-2.36.84-3.336A5.984 5.984 0 01299.451 9c1.008-.56 2.144-.84 3.408-.84 1.264 0 2.392.28 3.384.84a5.822 5.822 0 012.352 2.304c.576.976.864 2.088.864 3.336 0 1.248-.288 2.368-.864 3.36a6.031 6.031 0 01-2.352 2.304c-.992.56-2.12.84-3.384.84zm0-2.016c.816 0 1.544-.184 2.184-.552a4.061 4.061 0 001.536-1.584c.368-.688.552-1.472.552-2.352 0-.88-.184-1.656-.552-2.328a3.858 3.858 0 00-1.536-1.584c-.64-.368-1.368-.552-2.184-.552-.816 0-1.552.184-2.208.552-.64.368-1.152.896-1.536 1.584-.368.672-.552 1.448-.552 2.328 0 .88.184 1.664.552 2.352.384.672.896 1.2 1.536 1.584.656.368 1.392.552 2.208.552zM319.687 8.16c1.616 0 2.896.472 3.84 1.416.96.928 1.44 2.296 1.44 4.104V21h-2.304v-7.056c0-1.232-.296-2.16-.888-2.784-.592-.624-1.44-.936-2.544-.936-1.248 0-2.232.368-2.952 1.104-.72.72-1.08 1.76-1.08 3.12V21h-2.304V8.28h2.208v1.92c.464-.656 1.088-1.16 1.872-1.512.8-.352 1.704-.528 2.712-.528zm22.033 12.984c-1.296 0-2.456-.28-3.48-.84A6.204 6.204 0 01335.864 18c-.576-.992-.864-2.112-.864-3.36 0-1.248.288-2.36.864-3.336A5.984 5.984 0 01338.24 9c1.024-.56 2.184-.84 3.48-.84 1.152 0 2.176.232 3.072.696a4.942 4.942 0 012.112 2.016L345.152 12c-.4-.608-.896-1.064-1.488-1.368a4.244 4.244 0 00-1.968-.456c-.832 0-1.584.184-2.256.552a4.016 4.016 0 00-1.56 1.584c-.368.672-.552 1.448-.552 2.328 0 .896.184 1.688.552 2.376a4.06 4.06 0 001.56 1.56c.672.368 1.424.552 2.256.552.72 0 1.376-.152 1.968-.456.592-.304 1.088-.76 1.488-1.368l1.752 1.104c-.496.88-1.2 1.56-2.112 2.04-.896.464-1.92.696-3.072.696zM361.993 8.28V21h-2.184v-1.92a4.706 4.706 0 01-1.848 1.536 5.758 5.758 0 01-2.472.528c-1.696 0-3.032-.464-4.008-1.392-.976-.944-1.464-2.328-1.464-4.152V8.28h2.304v7.056c0 1.232.296 2.168.888 2.808.592.624 1.44.936 2.544.936 1.216 0 2.176-.368 2.88-1.104.704-.736 1.056-1.776 1.056-3.12V8.28h2.304zm11.38-.12c1.232 0 2.336.272 3.312.816a5.787 5.787 0 012.28 2.28c.56.976.84 2.104.84 3.384 0 1.28-.28 2.416-.84 3.408a5.787 5.787 0 01-2.28 2.28c-.976.544-2.08.816-3.312.816-.944 0-1.808-.184-2.592-.552a4.99 4.99 0 01-1.944-1.608V21h-2.208V3.192h2.304V10.2a4.793 4.793 0 011.92-1.512 5.975 5.975 0 012.52-.528zm-.192 10.968c.816 0 1.544-.184 2.184-.552a4.061 4.061 0 001.536-1.584c.384-.688.576-1.472.576-2.352 0-.88-.192-1.656-.576-2.328a3.858 3.858 0 00-1.536-1.584c-.64-.368-1.368-.552-2.184-.552-.8 0-1.528.184-2.184.552a3.858 3.858 0 00-1.536 1.584c-.368.672-.552 1.448-.552 2.328 0 .88.184 1.664.552 2.352.368.672.88 1.2 1.536 1.584a4.387 4.387 0 002.184.552zM383.239 8.28h2.304V21h-2.304V8.28zm1.152-2.448c-.448 0-.824-.144-1.128-.432a1.436 1.436 0 01-.432-1.056c0-.416.144-.768.432-1.056.304-.304.68-.456 1.128-.456.448 0 .816.144 1.104.432.304.272.456.616.456 1.032 0 .432-.152.8-.456 1.104-.288.288-.656.432-1.104.432zm11.345 15.312c-1.296 0-2.456-.28-3.48-.84A6.204 6.204 0 01389.88 18c-.576-.992-.864-2.112-.864-3.36 0-1.248.288-2.36.864-3.336A5.984 5.984 0 01392.256 9c1.024-.56 2.184-.84 3.48-.84 1.152 0 2.176.232 3.072.696a4.942 4.942 0 012.112 2.016L399.168 12c-.4-.608-.896-1.064-1.488-1.368a4.244 4.244 0 00-1.968-.456c-.832 0-1.584.184-2.256.552a4.016 4.016 0 00-1.56 1.584c-.368.672-.552 1.448-.552 2.328 0 .896.184 1.688.552 2.376a4.06 4.06 0 001.56 1.56c.672.368 1.424.552 2.256.552.72 0 1.376-.152 1.968-.456.592-.304 1.088-.76 1.488-1.368l1.752 1.104c-.496.88-1.2 1.56-2.112 2.04-.896.464-1.92.696-3.072.696zm19.768-16.2c-1.376 0-2.064.744-2.064 2.232V8.28h3.696v1.896h-3.648V21h-2.304V10.176h-2.16V8.28h2.16V7.152c0-1.264.368-2.264 1.104-3 .736-.736 1.768-1.104 3.096-1.104.512 0 .992.064 1.44.192.448.128.832.312 1.152.552l-.696 1.752c-.528-.4-1.12-.6-1.776-.6zm15.364 9.768c0 .176-.016.408-.048.696H420.5c.144 1.12.632 2.024 1.464 2.712.848.672 1.896 1.008 3.144 1.008 1.52 0 2.744-.512 3.672-1.536l1.272 1.488a5.554 5.554 0 01-2.16 1.536c-.848.352-1.8.528-2.856.528-1.344 0-2.536-.272-3.576-.816A6.067 6.067 0 01419.036 18c-.56-.992-.84-2.112-.84-3.36 0-1.232.272-2.344.816-3.336A5.955 5.955 0 01421.292 9c.976-.56 2.072-.84 3.288-.84 1.216 0 2.296.28 3.24.84a5.631 5.631 0 012.232 2.304c.544.992.816 2.128.816 3.408zm-6.288-4.608c-1.104 0-2.032.336-2.784 1.008-.736.672-1.168 1.552-1.296 2.64h8.16c-.128-1.072-.568-1.944-1.32-2.616-.736-.688-1.656-1.032-2.76-1.032zm21.233 4.608c0 .176-.016.408-.048.696h-10.32c.144 1.12.632 2.024 1.464 2.712.848.672 1.896 1.008 3.144 1.008 1.52 0 2.744-.512 3.672-1.536l1.272 1.488a5.554 5.554 0 01-2.16 1.536c-.848.352-1.8.528-2.856.528-1.344 0-2.536-.272-3.576-.816A6.067 6.067 0 01433.981 18c-.56-.992-.84-2.112-.84-3.36 0-1.232.272-2.344.816-3.336A5.955 5.955 0 01436.237 9c.976-.56 2.072-.84 3.288-.84 1.216 0 2.296.28 3.24.84a5.631 5.631 0 012.232 2.304c.544.992.816 2.128.816 3.408zm-6.288-4.608c-1.104 0-2.032.336-2.784 1.008-.736.672-1.168 1.552-1.296 2.64h8.16c-.128-1.072-.568-1.944-1.32-2.616-.736-.688-1.656-1.032-2.76-1.032zm16.889 10.152a3.58 3.58 0 01-1.248.672 5.481 5.481 0 01-1.536.216c-1.28 0-2.272-.344-2.976-1.032-.704-.688-1.056-1.672-1.056-2.952v-6.984h-2.16V8.28h2.16V5.496h2.304V8.28h3.648v1.896h-3.648v6.888c0 .688.168 1.216.504 1.584.352.368.848.552 1.488.552.704 0 1.304-.2 1.8-.6l.72 1.656zM472.889 8.16c1.232 0 2.336.272 3.312.816a5.787 5.787 0 012.28 2.28c.56.976.84 2.104.84 3.384 0 1.28-.28 2.416-.84 3.408a5.787 5.787 0 01-2.28 2.28c-.976.544-2.08.816-3.312.816a5.975 5.975 0 01-2.52-.528 5.243 5.243 0 01-1.92-1.536v6.576h-2.304V8.28h2.208v2.016a4.797 4.797 0 011.944-1.584c.784-.368 1.648-.552 2.592-.552zm-.192 10.968c.816 0 1.544-.184 2.184-.552a4.061 4.061 0 001.536-1.584c.384-.688.576-1.472.576-2.352 0-.88-.192-1.656-.576-2.328a3.858 3.858 0 00-1.536-1.584c-.64-.368-1.368-.552-2.184-.552-.8 0-1.528.192-2.184.576a4.111 4.111 0 00-1.536 1.56c-.368.672-.552 1.448-.552 2.328 0 .88.184 1.664.552 2.352.368.672.88 1.2 1.536 1.584a4.387 4.387 0 002.184.552zm21.553-4.416c0 .176-.016.408-.048.696h-10.32c.144 1.12.632 2.024 1.464 2.712.848.672 1.896 1.008 3.144 1.008 1.52 0 2.744-.512 3.672-1.536l1.272 1.488a5.554 5.554 0 01-2.16 1.536c-.848.352-1.8.528-2.856.528-1.344 0-2.536-.272-3.576-.816A6.067 6.067 0 01482.418 18c-.56-.992-.84-2.112-.84-3.36 0-1.232.272-2.344.816-3.336A5.955 5.955 0 01484.674 9c.976-.56 2.072-.84 3.288-.84 1.216 0 2.296.28 3.24.84a5.631 5.631 0 012.232 2.304c.544.992.816 2.128.816 3.408zm-6.288-4.608c-1.104 0-2.032.336-2.784 1.008-.736.672-1.168 1.552-1.296 2.64h8.16c-.128-1.072-.568-1.944-1.32-2.616-.736-.688-1.656-1.032-2.76-1.032zm11.946.312c.4-.736.992-1.296 1.776-1.68.784-.384 1.736-.576 2.856-.576v2.232a4.498 4.498 0 00-.528-.024c-1.248 0-2.232.376-2.952 1.128-.704.736-1.056 1.792-1.056 3.168V21H497.7V8.28h2.208v2.136zm26.581-7.224V21h-2.208v-2.016a4.99 4.99 0 01-1.944 1.608c-.784.368-1.648.552-2.592.552-1.232 0-2.336-.272-3.312-.816a5.953 5.953 0 01-2.304-2.28c-.544-.992-.816-2.128-.816-3.408 0-1.28.272-2.408.816-3.384a5.953 5.953 0 012.304-2.28c.976-.544 2.08-.816 3.312-.816.912 0 1.752.176 2.52.528.768.336 1.408.84 1.92 1.512V3.192h2.304zm-6.552 15.936c.8 0 1.528-.184 2.184-.552a4.061 4.061 0 001.536-1.584c.368-.688.552-1.472.552-2.352 0-.88-.184-1.656-.552-2.328a3.858 3.858 0 00-1.536-1.584 4.387 4.387 0 00-2.184-.552c-.816 0-1.552.184-2.208.552-.64.368-1.152.896-1.536 1.584-.368.672-.552 1.448-.552 2.328 0 .88.184 1.664.552 2.352.384.672.896 1.2 1.536 1.584.656.368 1.392.552 2.208.552zM535.73 8.16c1.76 0 3.104.432 4.032 1.296.944.864 1.416 2.152 1.416 3.864V21h-2.184v-1.68c-.384.592-.936 1.048-1.656 1.368-.704.304-1.544.456-2.52.456-1.424 0-2.568-.344-3.432-1.032-.848-.688-1.272-1.592-1.272-2.712s.408-2.016 1.224-2.688c.816-.688 2.112-1.032 3.888-1.032h3.648v-.456c0-.992-.288-1.752-.864-2.28-.576-.528-1.424-.792-2.544-.792-.752 0-1.488.128-2.208.384-.72.24-1.328.568-1.824.984l-.96-1.728c.656-.528 1.44-.928 2.352-1.2a9.588 9.588 0 012.904-.432zm-.528 11.208c.88 0 1.64-.192 2.28-.576.64-.4 1.104-.96 1.392-1.68v-1.776h-3.552c-1.952 0-2.928.656-2.928 1.968 0 .64.248 1.144.744 1.512.496.368 1.184.552 2.064.552zM556.713 8.28l-6.168 13.992c-.544 1.296-1.184 2.208-1.92 2.736-.72.528-1.592.792-2.616.792a5.464 5.464 0 01-1.824-.312 3.615 3.615 0 01-1.44-.864l.984-1.728c.656.624 1.416.936 2.28.936.56 0 1.024-.152 1.392-.456.384-.288.728-.792 1.032-1.512l.408-.888-5.616-12.696h2.4l4.44 10.176 4.392-10.176h2.256z"/>
  <path fill="#000" d="M1148.29 151.137h-3.19v4.128h-2.33v-4.128h-9.33v-1.68l8.59-10.992h2.59l-8.23 10.608h6.45v-3.648h2.26v3.648h3.19v2.064zm6.42-5.976c2.4 0 4.16.456 5.28 1.368 1.14.896 1.7 2.128 1.7 3.696 0 .992-.24 1.888-.72 2.688-.46.784-1.17 1.408-2.13 1.872-.95.448-2.11.672-3.51.672-1.18 0-2.32-.176-3.43-.528-1.1-.368-2.01-.872-2.73-1.512l1.1-1.896c.58.544 1.31.984 2.21 1.32.89.32 1.84.48 2.83.48 1.26 0 2.24-.264 2.93-.792.7-.544 1.05-1.28 1.05-2.208 0-1.008-.38-1.768-1.15-2.28-.77-.528-2.08-.792-3.93-.792h-3.82l.89-8.784h9.48v2.088h-7.47l-.45 4.608h1.87zM909.637 157.116v2.088h-12.072v-1.632l6.84-6.6c.832-.8 1.392-1.488 1.68-2.064a4.029 4.029 0 00.432-1.776c0-.88-.312-1.56-.936-2.04-.608-.496-1.488-.744-2.64-.744-1.856 0-3.288.608-4.296 1.824l-1.632-1.416c.656-.8 1.512-1.424 2.568-1.872 1.072-.448 2.264-.672 3.576-.672 1.76 0 3.16.424 4.2 1.272 1.04.832 1.56 1.968 1.56 3.408 0 .896-.192 1.744-.576 2.544-.384.8-1.112 1.712-2.184 2.736l-5.136 4.944h8.616zm14.032 0v2.088h-12.072v-1.632l6.84-6.6c.832-.8 1.392-1.488 1.68-2.064a4.029 4.029 0 00.432-1.776c0-.88-.312-1.56-.936-2.04-.608-.496-1.488-.744-2.64-.744-1.856 0-3.288.608-4.296 1.824l-1.632-1.416c.656-.8 1.512-1.424 2.568-1.872 1.072-.448 2.264-.672 3.576-.672 1.76 0 3.16.424 4.2 1.272 1.04.832 1.56 1.968 1.56 3.408 0 .896-.192 1.744-.576 2.544-.384.8-1.112 1.712-2.184 2.736l-5.136 4.944h8.616zM406.139 142.404v16.8h-2.376v-14.712h-3.792v-2.088h6.168zm16.165 0v1.632l-6.792 15.168h-2.544l6.648-14.712h-7.68v3h-2.304v-5.088h12.672zM1029.3 241.479c2.26 0 3.99.728 5.21 2.184 1.23 1.456 1.85 3.52 1.85 6.192 0 1.872-.34 3.472-1.01 4.8-.66 1.312-1.58 2.312-2.78 3-1.19.672-2.57 1.008-4.16 1.008-.81 0-1.58-.08-2.3-.24-.72-.176-1.34-.424-1.87-.744l.91-1.872c.82.528 1.9.792 3.24.792 1.74 0 3.1-.536 4.08-1.608.99-1.088 1.49-2.664 1.49-4.728v-.6c-.48.72-1.15 1.272-1.99 1.656-.85.368-1.8.552-2.86.552-1.1 0-2.1-.208-2.98-.624a4.953 4.953 0 01-2.04-1.776c-.48-.784-.72-1.68-.72-2.688 0-1.056.26-1.984.77-2.784.53-.8 1.24-1.416 2.14-1.848.89-.448 1.9-.672 3.02-.672zm.22 8.448c.75 0 1.42-.144 2.01-.432.6-.288 1.05-.68 1.37-1.176.34-.496.51-1.048.51-1.656 0-.592-.16-1.128-.48-1.608-.31-.496-.76-.888-1.37-1.176-.59-.304-1.31-.456-2.16-.456-1.11 0-2 .296-2.69.888-.67.592-1.01 1.384-1.01 2.376s.35 1.784 1.03 2.376c.69.576 1.62.864 2.79.864zM912.445 325.248h-3.192v4.128h-2.328v-4.128h-9.336v-1.68l8.592-10.992h2.592l-8.232 10.608h6.456v-3.648h2.256v3.648h3.192v2.064zM757.208 383.481v16.8h-2.376v-14.712h-3.792v-2.088h6.168zm15.733 14.712v2.088h-12.072v-1.632l6.84-6.6c.832-.8 1.392-1.488 1.68-2.064a4.029 4.029 0 00.432-1.776c0-.88-.312-1.56-.936-2.04-.608-.496-1.488-.744-2.64-.744-1.856 0-3.288.608-4.296 1.824l-1.632-1.416c.656-.8 1.512-1.424 2.568-1.872 1.072-.448 2.264-.672 3.576-.672 1.76 0 3.16.424 4.2 1.272 1.04.832 1.56 1.968 1.56 3.408 0 .896-.192 1.744-.576 2.544-.384.8-1.112 1.712-2.184 2.736l-5.136 4.944h8.616zM668.36 454.386v16.8h-2.376v-14.712h-3.792v-2.088h6.168zm9.373-.192c2.256 0 3.992.728 5.208 2.184 1.232 1.456 1.848 3.52 1.848 6.192 0 1.872-.336 3.472-1.008 4.8-.656 1.312-1.584 2.312-2.784 3-1.184.672-2.568 1.008-4.152 1.008-.816 0-1.584-.08-2.304-.24-.72-.176-1.344-.424-1.872-.744l.912-1.872c.816.528 1.896.792 3.24.792 1.744 0 3.104-.536 4.08-1.608.992-1.088 1.488-2.664 1.488-4.728v-.6c-.48.72-1.144 1.272-1.992 1.656-.848.368-1.8.552-2.856.552-1.104 0-2.096-.208-2.976-.624a4.903 4.903 0 01-2.04-1.776c-.48-.784-.72-1.68-.72-2.688 0-1.056.256-1.984.768-2.784a5.22 5.22 0 012.136-1.848c.896-.448 1.904-.672 3.024-.672zm.216 8.448c.752 0 1.424-.144 2.016-.432.592-.288 1.048-.68 1.368-1.176a2.887 2.887 0 00.504-1.656c0-.592-.16-1.128-.48-1.608-.304-.496-.76-.888-1.368-1.176-.592-.304-1.312-.456-2.16-.456-1.104 0-2 .296-2.688.888-.672.592-1.008 1.384-1.008 2.376s.344 1.784 1.032 2.376c.688.576 1.616.864 2.784.864zM635.024 152.156c1.104 0 2.088.208 2.952.624.88.416 1.568 1.016 2.064 1.8.496.768.744 1.656.744 2.664 0 1.056-.264 1.984-.792 2.784-.512.8-1.224 1.424-2.136 1.872-.896.432-1.904.648-3.024.648-2.256 0-4-.728-5.232-2.184-1.216-1.456-1.824-3.52-1.824-6.192 0-1.872.328-3.464.984-4.776.672-1.328 1.6-2.328 2.784-3 1.2-.688 2.592-1.032 4.176-1.032.816 0 1.584.088 2.304.264.72.16 1.344.4 1.872.72l-.912 1.872c-.8-.528-1.872-.792-3.216-.792-1.744 0-3.112.544-4.104 1.632-.992 1.072-1.488 2.64-1.488 4.704 0 .256.008.456.024.6.48-.72 1.136-1.264 1.968-1.632.848-.384 1.8-.576 2.856-.576zm-.288 8.448c1.104 0 2-.296 2.688-.888.688-.592 1.032-1.384 1.032-2.376s-.352-1.776-1.056-2.352c-.688-.592-1.616-.888-2.784-.888-.752 0-1.424.144-2.016.432a3.51 3.51 0 00-1.368 1.176 2.99 2.99 0 00-.48 1.656c0 .592.152 1.136.456 1.632.32.48.776.872 1.368 1.176.608.288 1.328.432 2.16.432zM14.224 450.592H5.296l-1.848 4.2H.976l7.608-16.8h2.376l7.632 16.8h-2.52l-1.848-4.2zm-.84-1.92L9.76 440.44l-3.624 8.232h7.248zm18.228-6.6l-5.568 12.72h-2.352l-5.568-12.72h2.4l4.368 10.2 4.464-10.2h2.256zm6.634-.12c1.76 0 3.104.432 4.032 1.296.944.864 1.416 2.152 1.416 3.864v7.68H41.51v-1.68c-.384.592-.936 1.048-1.656 1.368-.704.304-1.544.456-2.52.456-1.424 0-2.568-.344-3.432-1.032-.848-.688-1.272-1.592-1.272-2.712s.408-2.016 1.224-2.688c.816-.688 2.112-1.032 3.888-1.032h3.648v-.456c0-.992-.288-1.752-.864-2.28-.576-.528-1.424-.792-2.544-.792-.752 0-1.488.128-2.208.384-.72.24-1.328.568-1.824.984l-.96-1.728c.656-.528 1.44-.928 2.352-1.2a9.588 9.588 0 012.904-.432zm-.528 11.208c.88 0 1.64-.192 2.28-.576.64-.4 1.104-.96 1.392-1.68v-1.776h-3.552c-1.952 0-2.928.656-2.928 1.968 0 .64.248 1.144.744 1.512.496.368 1.184.552 2.064.552zm10.49-11.088h2.303v12.72h-2.304v-12.72zm1.151-2.448c-.448 0-.824-.144-1.128-.432a1.436 1.436 0 01-.432-1.056c0-.416.144-.768.432-1.056.304-.304.68-.456 1.128-.456.448 0 .816.144 1.104.432.304.272.456.616.456 1.032 0 .432-.152.8-.456 1.104-.288.288-.656.432-1.104.432zm5.802-2.64h2.304v17.808H55.16v-17.808zm11.585 4.968c1.76 0 3.104.432 4.032 1.296.944.864 1.416 2.152 1.416 3.864v7.68H70.01v-1.68c-.384.592-.936 1.048-1.656 1.368-.704.304-1.544.456-2.52.456-1.424 0-2.568-.344-3.432-1.032-.848-.688-1.272-1.592-1.272-2.712s.408-2.016 1.224-2.688c.816-.688 2.112-1.032 3.888-1.032h3.648v-.456c0-.992-.288-1.752-.864-2.28-.576-.528-1.424-.792-2.544-.792-.752 0-1.488.128-2.208.384-.72.24-1.328.568-1.824.984l-.96-1.728c.656-.528 1.44-.928 2.352-1.2a9.588 9.588 0 012.904-.432zm-.528 11.208c.88 0 1.64-.192 2.28-.576.64-.4 1.104-.96 1.392-1.68v-1.776h-3.552c-1.952 0-2.928.656-2.928 1.968 0 .64.248 1.144.744 1.512.496.368 1.184.552 2.064.552zm17.233-11.208c1.232 0 2.336.272 3.312.816a5.787 5.787 0 012.28 2.28c.56.976.84 2.104.84 3.384 0 1.28-.28 2.416-.84 3.408a5.787 5.787 0 01-2.28 2.28c-.976.544-2.08.816-3.312.816-.944 0-1.808-.184-2.592-.552a4.99 4.99 0 01-1.944-1.608v2.016h-2.208v-17.808h2.304v7.008a4.793 4.793 0 011.92-1.512 5.975 5.975 0 012.52-.528zm-.192 10.968c.816 0 1.544-.184 2.184-.552a4.061 4.061 0 001.536-1.584c.384-.688.576-1.472.576-2.352 0-.88-.192-1.656-.576-2.328a3.858 3.858 0 00-1.536-1.584c-.64-.368-1.368-.552-2.184-.552-.8 0-1.528.184-2.184.552a3.858 3.858 0 00-1.536 1.584c-.368.672-.552 1.448-.552 2.328 0 .88.184 1.664.552 2.352.368.672.88 1.2 1.536 1.584a4.387 4.387 0 002.184.552zm10.058-15.936h2.304v17.808h-2.304v-17.808zm18.449 11.52c0 .176-.016.408-.048.696h-10.32c.144 1.12.632 2.024 1.464 2.712.848.672 1.896 1.008 3.144 1.008 1.52 0 2.744-.512 3.672-1.536l1.272 1.488a5.554 5.554 0 01-2.16 1.536c-.848.352-1.8.528-2.856.528-1.344 0-2.536-.272-3.576-.816a6.067 6.067 0 01-2.424-2.328c-.56-.992-.84-2.112-.84-3.36 0-1.232.272-2.344.816-3.336a5.955 5.955 0 012.28-2.304c.976-.56 2.072-.84 3.288-.84 1.216 0 2.296.28 3.24.84a5.631 5.631 0 012.232 2.304c.544.992.816 2.128.816 3.408zm-6.288-4.608c-1.104 0-2.032.336-2.784 1.008-.736.672-1.168 1.552-1.296 2.64h8.16c-.128-1.072-.568-1.944-1.32-2.616-.736-.688-1.656-1.032-2.76-1.032zm28.601-1.824v10.992c0 2.224-.552 3.864-1.656 4.92-1.104 1.072-2.752 1.608-4.944 1.608-1.2 0-2.344-.168-3.432-.504-1.088-.32-1.968-.784-2.64-1.392l1.104-1.776c.592.512 1.32.912 2.184 1.2a8.25 8.25 0 002.712.456c1.488 0 2.584-.352 3.288-1.056.72-.704 1.08-1.776 1.08-3.216v-1.008a5.187 5.187 0 01-2.016 1.488c-.784.32-1.64.48-2.568.48-1.216 0-2.32-.256-3.312-.768a5.935 5.935 0 01-2.304-2.184c-.56-.944-.84-2.016-.84-3.216 0-1.2.28-2.264.84-3.192a5.714 5.714 0 012.304-2.184c.992-.512 2.096-.768 3.312-.768.96 0 1.848.176 2.664.528a4.952 4.952 0 012.04 1.56v-1.968h2.184zm-6.624 10.176c.832 0 1.576-.176 2.232-.528a3.83 3.83 0 001.56-1.464c.384-.64.576-1.36.576-2.16 0-1.232-.408-2.224-1.224-2.976-.816-.768-1.864-1.152-3.144-1.152-1.296 0-2.352.384-3.168 1.152-.816.752-1.224 1.744-1.224 2.976 0 .8.184 1.52.552 2.16a4.04 4.04 0 001.56 1.464c.672.352 1.432.528 2.28.528zm15.908-10.296c1.76 0 3.104.432 4.032 1.296.944.864 1.416 2.152 1.416 3.864v7.68h-2.184v-1.68c-.384.592-.936 1.048-1.656 1.368-.704.304-1.544.456-2.52.456-1.424 0-2.568-.344-3.432-1.032-.848-.688-1.272-1.592-1.272-2.712s.408-2.016 1.224-2.688c.816-.688 2.112-1.032 3.888-1.032h3.648v-.456c0-.992-.288-1.752-.864-2.28-.576-.528-1.424-.792-2.544-.792-.752 0-1.488.128-2.208.384-.72.24-1.328.568-1.824.984l-.96-1.728c.656-.528 1.44-.928 2.352-1.2a9.588 9.588 0 012.904-.432zm-.528 11.208c.88 0 1.64-.192 2.28-.576.64-.4 1.104-.96 1.392-1.68v-1.776h-3.552c-1.952 0-2.928.656-2.928 1.968 0 .64.248 1.144.744 1.512.496.368 1.184.552 2.064.552zm14.138 1.776c-1.04 0-2.04-.136-3-.408-.96-.288-1.712-.648-2.256-1.08l.96-1.824c.56.4 1.24.72 2.04.96s1.608.36 2.424.36c2.016 0 3.024-.576 3.024-1.728 0-.384-.136-.688-.408-.912-.272-.224-.616-.384-1.032-.48a18.11 18.11 0 00-1.728-.36c-1.024-.16-1.864-.344-2.52-.552a3.874 3.874 0 01-1.656-1.056c-.464-.496-.696-1.192-.696-2.088 0-1.152.48-2.072 1.44-2.76.96-.704 2.248-1.056 3.864-1.056.848 0 1.696.104 2.544.312.848.208 1.544.488 2.088.84l-.984 1.824c-1.04-.672-2.264-1.008-3.672-1.008-.976 0-1.72.16-2.232.48-.512.32-.768.744-.768 1.272 0 .416.144.744.432.984.288.24.64.416 1.056.528.432.112 1.032.24 1.8.384 1.024.176 1.848.368 2.472.576a3.61 3.61 0 011.632 1.008c.448.48.672 1.152.672 2.016 0 1.152-.496 2.072-1.488 2.76-.976.672-2.312 1.008-4.008 1.008zm-150.141 30c-1.04 0-2.04-.136-3-.408-.96-.288-1.712-.648-2.256-1.08l.96-1.824c.56.4 1.24.72 2.04.96s1.608.36 2.424.36c2.016 0 3.024-.576 3.024-1.728 0-.384-.136-.688-.408-.912-.272-.224-.616-.384-1.032-.48a18.11 18.11 0 00-1.728-.36c-1.024-.16-1.864-.344-2.52-.552a3.874 3.874 0 01-1.656-1.056c-.464-.496-.696-1.192-.696-2.088 0-1.152.48-2.072 1.44-2.76.96-.704 2.248-1.056 3.864-1.056.848 0 1.696.104 2.544.312.848.208 1.544.488 2.088.84l-.984 1.824c-1.04-.672-2.264-1.008-3.672-1.008-.976 0-1.72.16-2.232.48-.512.32-.768.744-.768 1.272 0 .416.144.744.432.984.288.24.64.416 1.056.528.432.112 1.032.24 1.8.384 1.024.176 1.848.368 2.472.576a3.61 3.61 0 011.632 1.008c.448.48.672 1.152.672 2.016 0 1.152-.496 2.072-1.488 2.76-.976.672-2.312 1.008-4.008 1.008zm20.481-12.864v12.72H25.13v-1.92a4.706 4.706 0 01-1.848 1.536 5.758 5.758 0 01-2.472.528c-1.696 0-3.032-.464-4.008-1.392-.976-.944-1.464-2.328-1.464-4.152v-7.32h2.304v7.056c0 1.232.296 2.168.888 2.808.592.624 1.44.936 2.544.936 1.216 0 2.176-.368 2.88-1.104.704-.736 1.056-1.776 1.056-3.12v-6.576h2.304zm11.38-.12c1.233 0 2.337.272 3.313.816a5.787 5.787 0 012.28 2.28c.56.976.84 2.104.84 3.384 0 1.28-.28 2.416-.84 3.408a5.787 5.787 0 01-2.28 2.28c-.976.544-2.08.816-3.312.816a5.975 5.975 0 01-2.52-.528 5.243 5.243 0 01-1.92-1.536v6.576H31.95v-17.376h2.208v2.016a4.797 4.797 0 011.944-1.584c.784-.368 1.648-.552 2.592-.552zm-.191 10.968c.816 0 1.544-.184 2.184-.552a4.061 4.061 0 001.536-1.584c.384-.688.576-1.472.576-2.352 0-.88-.192-1.656-.576-2.328a3.858 3.858 0 00-1.536-1.584c-.64-.368-1.368-.552-2.184-.552-.8 0-1.528.192-2.184.576a4.111 4.111 0 00-1.536 1.56c-.368.672-.552 1.448-.552 2.328 0 .88.184 1.664.552 2.352.368.672.88 1.2 1.536 1.584a4.387 4.387 0 002.184.552zm16.801-10.968c1.232 0 2.336.272 3.312.816a5.787 5.787 0 012.28 2.28c.56.976.84 2.104.84 3.384 0 1.28-.28 2.416-.84 3.408a5.787 5.787 0 01-2.28 2.28c-.976.544-2.08.816-3.312.816a5.975 5.975 0 01-2.52-.528 5.243 5.243 0 01-1.92-1.536v6.576h-2.304v-17.376h2.208v2.016a4.797 4.797 0 011.944-1.584c.784-.368 1.648-.552 2.592-.552zm-.192 10.968c.816 0 1.544-.184 2.184-.552a4.061 4.061 0 001.536-1.584c.384-.688.576-1.472.576-2.352 0-.88-.192-1.656-.576-2.328a3.858 3.858 0 00-1.536-1.584c-.64-.368-1.368-.552-2.184-.552-.8 0-1.528.192-2.184.576a4.111 4.111 0 00-1.536 1.56c-.368.672-.552 1.448-.552 2.328 0 .88.184 1.664.552 2.352.368.672.88 1.2 1.536 1.584a4.387 4.387 0 002.184.552zm10.057-15.936h2.304v17.808h-2.304v-17.808zm18.21 5.088l-6.168 13.992c-.544 1.296-1.184 2.208-1.92 2.736-.72.528-1.593.792-2.617.792a5.464 5.464 0 01-1.823-.312 3.615 3.615 0 01-1.44-.864l.984-1.728c.655.624 1.415.936 2.28.936.56 0 1.023-.152 1.391-.456.385-.288.728-.792 1.032-1.512l.409-.888-5.617-12.696h2.4l4.44 10.176 4.392-10.176h2.257zm13.727-.12c1.76 0 3.104.432 4.032 1.296.944.864 1.416 2.152 1.416 3.864v7.68h-2.184v-1.68c-.384.592-.936 1.048-1.656 1.368-.704.304-1.544.456-2.52.456-1.424 0-2.568-.344-3.432-1.032-.848-.688-1.272-1.592-1.272-2.712s.408-2.016 1.224-2.688c.816-.688 2.112-1.032 3.888-1.032h3.648v-.456c0-.992-.288-1.752-.864-2.28-.576-.528-1.424-.792-2.544-.792-.752 0-1.488.128-2.208.384-.72.24-1.328.568-1.824.984l-.96-1.728c.656-.528 1.44-.928 2.352-1.2a9.588 9.588 0 012.904-.432zm-.528 11.208c.88 0 1.64-.192 2.28-.576.64-.4 1.104-.96 1.392-1.68v-1.776h-3.552c-1.952 0-2.928.656-2.928 1.968 0 .64.248 1.144.744 1.512.496.368 1.184.552 2.064.552zm14.138 1.776c-1.04 0-2.04-.136-3-.408-.96-.288-1.712-.648-2.256-1.08l.96-1.824c.56.4 1.24.72 2.04.96s1.608.36 2.424.36c2.016 0 3.024-.576 3.024-1.728 0-.384-.136-.688-.408-.912-.272-.224-.616-.384-1.032-.48a18.11 18.11 0 00-1.728-.36c-1.024-.16-1.864-.344-2.52-.552a3.874 3.874 0 01-1.656-1.056c-.464-.496-.696-1.192-.696-2.088 0-1.152.48-2.072 1.44-2.76.96-.704 2.248-1.056 3.864-1.056.848 0 1.696.104 2.544.312.848.208 1.544.488 2.088.84l-.984 1.824c-1.04-.672-2.264-1.008-3.672-1.008-.976 0-1.72.16-2.232.48-.512.32-.768.744-.768 1.272 0 .416.144.744.432.984.288.24.64.416 1.056.528.432.112 1.032.24 1.8.384 1.024.176 1.848.368 2.472.576a3.61 3.61 0 011.632 1.008c.448.48.672 1.152.672 2.016 0 1.152-.496 2.072-1.488 2.76-.976.672-2.312 1.008-4.008 1.008zm20.769 0c-1.264 0-2.4-.28-3.408-.84a6.204 6.204 0 01-2.376-2.304c-.56-.992-.84-2.112-.84-3.36 0-1.248.28-2.36.84-3.336a5.984 5.984 0 012.376-2.304c1.008-.56 2.144-.84 3.408-.84 1.264 0 2.392.28 3.384.84a5.822 5.822 0 012.352 2.304c.576.976.864 2.088.864 3.336 0 1.248-.288 2.368-.864 3.36a6.031 6.031 0 01-2.352 2.304c-.992.56-2.12.84-3.384.84zm0-2.016c.816 0 1.544-.184 2.184-.552a4.061 4.061 0 001.536-1.584c.368-.688.552-1.472.552-2.352 0-.88-.184-1.656-.552-2.328a3.858 3.858 0 00-1.536-1.584c-.64-.368-1.368-.552-2.184-.552-.816 0-1.552.184-2.208.552-.64.368-1.152.896-1.536 1.584-.368.672-.552 1.448-.552 2.328 0 .88.184 1.664.552 2.352.384.672.896 1.2 1.536 1.584.656.368 1.392.552 2.208.552zm14.692-14.184c-1.376 0-2.064.744-2.064 2.232v1.104h3.696v1.896h-3.648v10.824h-2.304v-10.824h-2.16v-1.896h2.16v-1.128c0-1.264.368-2.264 1.104-3 .736-.736 1.768-1.104 3.096-1.104.512 0 .992.064 1.44.192.448.128.832.312 1.152.552l-.696 1.752c-.528-.4-1.12-.6-1.776-.6zm13.486 1.344v5.856h8.424V478h-8.424v6.792h-2.4v-16.8h11.856v2.088h-9.456zm23.846 8.424c0 .176-.016.408-.048.696h-10.32c.144 1.12.632 2.024 1.464 2.712.848.672 1.896 1.008 3.144 1.008 1.52 0 2.744-.512 3.672-1.536l1.272 1.488a5.554 5.554 0 01-2.16 1.536c-.848.352-1.8.528-2.856.528-1.344 0-2.536-.272-3.576-.816a6.067 6.067 0 01-2.424-2.328c-.56-.992-.84-2.112-.84-3.36 0-1.232.272-2.344.816-3.336a5.955 5.955 0 012.28-2.304c.976-.56 2.072-.84 3.288-.84 1.216 0 2.296.28 3.24.84a5.631 5.631 0 012.232 2.304c.544.992.816 2.128.816 3.408zm-6.288-4.608c-1.104 0-2.032.336-2.784 1.008-.736.672-1.168 1.552-1.296 2.64h8.16c-.128-1.072-.568-1.944-1.32-2.616-.736-.688-1.656-1.032-2.76-1.032zm16.481-1.944c1.232 0 2.336.272 3.312.816a5.787 5.787 0 012.28 2.28c.56.976.84 2.104.84 3.384 0 1.28-.28 2.416-.84 3.408a5.787 5.787 0 01-2.28 2.28c-.976.544-2.08.816-3.312.816-.944 0-1.808-.184-2.592-.552a4.99 4.99 0 01-1.944-1.608v2.016h-2.208v-17.808h2.304v7.008a4.793 4.793 0 011.92-1.512 5.975 5.975 0 012.52-.528zm-.192 10.968c.816 0 1.544-.184 2.184-.552a4.061 4.061 0 001.536-1.584c.384-.688.576-1.472.576-2.352 0-.88-.192-1.656-.576-2.328a3.858 3.858 0 00-1.536-1.584c-.64-.368-1.368-.552-2.184-.552-.8 0-1.528.184-2.184.552a3.858 3.858 0 00-1.536 1.584c-.368.672-.552 1.448-.552 2.328 0 .88.184 1.664.552 2.352.368.672.88 1.2 1.536 1.584a4.387 4.387 0 002.184.552zm20.929-14.928v16.8h-2.376V470.08h-3.792v-2.088h6.168zm8.725 6.696c2.4 0 4.16.456 5.28 1.368 1.136.896 1.704 2.128 1.704 3.696 0 .992-.24 1.888-.72 2.688-.464.784-1.176 1.408-2.136 1.872-.944.448-2.112.672-3.504.672a11.23 11.23 0 01-3.432-.528c-1.104-.368-2.016-.872-2.736-1.512l1.104-1.896c.576.544 1.312.984 2.208 1.32.896.32 1.84.48 2.832.48 1.264 0 2.24-.264 2.928-.792.704-.544 1.056-1.28 1.056-2.208 0-1.008-.384-1.768-1.152-2.28-.768-.528-2.08-.792-3.936-.792h-3.816l.888-8.784h9.48v2.088h-7.464l-.456 4.608h1.872zM293.652 42.222c2.176.006 3.886.53 5.132 1.573 1.245 1.043 1.866 2.476 1.861 4.3-.004 1.824-.632 3.255-1.882 4.292-1.251 1.037-2.964 1.553-5.14 1.547l-4.152-.01-.012 5.088-2.4-.006.041-16.8 6.552.016zm-.096 9.624c1.52.004 2.681-.313 3.483-.951.801-.654 1.203-1.59 1.206-2.806.003-1.215-.394-2.144-1.193-2.786-.798-.658-1.957-.99-3.477-.993l-4.08-.01-.019 7.536 4.08.01zm12.525-3.377c.402-.735.996-1.294 1.781-1.676.785-.382 1.737-.572 2.857-.569l-.005 2.232a4.496 4.496 0 00-.528-.025c-1.248-.003-2.233.37-2.955 1.12-.706.735-1.061 1.79-1.064 3.166l-.015 6.336-2.304-.006.031-12.72 2.208.006-.006 2.136zm13.027 10.76c-1.264-.003-2.4-.286-3.406-.849a6.206 6.206 0 01-2.371-2.31c-.557-.993-.834-2.114-.831-3.361.003-1.248.285-2.36.848-3.334a5.98 5.98 0 012.381-2.298c1.01-.558 2.146-.835 3.41-.832 1.264.003 2.392.286 3.382.848a5.825 5.825 0 012.347 2.31c.573.977.859 2.09.856 3.338-.004 1.248-.294 2.367-.873 3.358a6.03 6.03 0 01-2.357 2.298c-.994.558-2.122.835-3.386.832zm.005-2.016c.816.002 1.544-.18 2.185-.547a4.063 4.063 0 001.54-1.58c.369-.687.555-1.47.558-2.35.002-.88-.18-1.657-.547-2.33a3.857 3.857 0 00-1.532-1.588c-.639-.37-1.366-.555-2.182-.557-.816-.002-1.553.18-2.21.546-.641.367-1.154.894-1.54 1.58-.369.672-.555 1.447-.557 2.327-.003.88.18 1.665.546 2.354a4.293 4.293 0 001.532 1.587c.655.37 1.391.556 2.207.558zm22.075-15.882l-.044 17.808-2.208-.006.005-2.016a4.983 4.983 0 01-1.948 1.604c-.785.366-1.649.548-2.593.545-1.232-.003-2.335-.277-3.31-.824a5.945 5.945 0 01-2.298-2.285c-.542-.994-.811-2.13-.808-3.41.003-1.28.278-2.408.824-3.382a5.953 5.953 0 012.31-2.275c.977-.541 2.082-.81 3.314-.808a5.98 5.98 0 012.519.535 4.798 4.798 0 011.916 1.516l.017-7.008 2.304.006zm-6.591 15.92c.8.002 1.528-.18 2.185-.547a4.063 4.063 0 001.54-1.58c.37-.687.556-1.47.558-2.35.002-.88-.18-1.657-.546-2.33a3.863 3.863 0 00-1.532-1.588 4.391 4.391 0 00-2.183-.557c-.816-.002-1.553.18-2.209.546a4.062 4.062 0 00-1.54 1.58c-.37.672-.556 1.447-.558 2.327-.002.88.18 1.665.546 2.354a4.293 4.293 0 001.532 1.587c.655.37 1.391.556 2.207.558zm23.044-10.792l-.031 12.72-2.184-.005.004-1.92a4.705 4.705 0 01-1.851 1.531 5.762 5.762 0 01-2.474.522c-1.696-.004-3.031-.471-4.004-1.401-.974-.947-1.459-2.332-1.454-4.156l.018-7.32 2.304.006-.017 7.056c-.003 1.232.29 2.168.881 2.81.59.625 1.437.94 2.541.942 1.216.003 2.177-.363 2.883-1.097s1.06-1.773 1.064-3.117l.016-6.576 2.304.005zm10.148 12.89c-1.296-.004-2.455-.287-3.478-.85a6.21 6.21 0 01-2.37-2.31c-.573-.992-.859-2.113-.856-3.361.003-1.248.294-2.36.873-3.334a5.982 5.982 0 012.381-2.298c1.026-.558 2.186-.835 3.482-.832 1.152.003 2.176.238 3.071.704a4.948 4.948 0 012.107 2.021l-1.755 1.124c-.399-.61-.894-1.066-1.485-1.372a4.244 4.244 0 00-1.967-.46c-.832-.003-1.584.18-2.257.546a4.018 4.018 0 00-1.564 1.58c-.37.67-.555 1.447-.558 2.327-.002.895.18 1.688.547 2.377a4.057 4.057 0 001.556 1.564c.671.37 1.422.555 2.254.557a4.24 4.24 0 001.969-.451c.593-.303 1.09-.757 1.492-1.364l1.749 1.108a5.092 5.092 0 01-2.117 2.035c-.897.462-1.922.691-3.074.688zm15.736-.85a3.59 3.59 0 01-1.25.669 5.482 5.482 0 01-1.537.212c-1.28-.003-2.271-.35-2.973-1.04-.702-.689-1.052-1.674-1.049-2.954l.017-6.984-2.16-.005.005-1.896 2.16.005.007-2.784 2.304.006-.007 2.784 3.648.009-.005 1.896-3.648-.01-.017 6.889c-.001.688.165 1.216.5 1.585.352.369.847.554 1.487.556.704.001 1.305-.197 1.802-.596l.716 1.658zm3.064-11.969l2.304.006-.031 12.72-2.304-.006.031-12.72zm1.158-2.445c-.448 0-.823-.146-1.127-.435a1.437 1.437 0 01-.429-1.057c.001-.416.146-.767.435-1.055a1.53 1.53 0 011.129-.453c.448.001.815.146 1.103.435.303.273.454.617.453 1.033-.001.432-.154.8-.459 1.103-.288.287-.657.43-1.105.43zm11.212 15.34c-1.264-.003-2.399-.286-3.406-.849a6.196 6.196 0 01-2.37-2.31c-.558-.993-.835-2.113-.832-3.361.003-1.248.286-2.36.848-3.334a5.984 5.984 0 012.382-2.299c1.009-.557 2.146-.834 3.41-.831 1.264.003 2.391.286 3.382.848a5.822 5.822 0 012.346 2.31c.574.977.859 2.09.856 3.338-.003 1.248-.294 2.367-.872 3.358a6.039 6.039 0 01-2.358 2.298c-.993.558-2.122.835-3.386.832zm.005-2.016c.816.002 1.544-.18 2.185-.547a4.063 4.063 0 001.54-1.58c.37-.687.556-1.47.558-2.35.002-.88-.18-1.657-.546-2.33a3.86 3.86 0 00-1.533-1.588c-.639-.37-1.366-.555-2.182-.557-.816-.002-1.553.18-2.209.546a4.061 4.061 0 00-1.54 1.58c-.37.672-.556 1.447-.558 2.327-.002.88.18 1.665.546 2.354a4.292 4.292 0 001.532 1.587c.655.37 1.391.556 2.207.558zm16.855-10.927c1.616.004 2.895.48 3.837 1.425.957.93 1.434 2.3 1.43 4.108l-.018 7.32-2.304-.006.017-7.056c.003-1.232-.291-2.16-.881-2.786-.591-.625-1.438-.94-2.542-.942-1.248-.003-2.233.362-2.955 1.097-.721.718-1.084 1.757-1.087 3.117l-.016 6.552-2.304-.006.031-12.72 2.208.006-.005 1.92c.466-.655 1.091-1.158 1.876-1.508.801-.35 1.705-.523 2.713-.52zM647.698 59.192c-1.264 0-2.488-.192-3.672-.576-1.168-.4-2.088-.912-2.76-1.536l.888-1.872c.64.576 1.456 1.048 2.448 1.416a9.327 9.327 0 003.096.528c1.392 0 2.432-.232 3.12-.696.688-.48 1.032-1.112 1.032-1.896 0-.576-.192-1.04-.576-1.392-.368-.368-.832-.648-1.392-.84-.544-.192-1.32-.408-2.328-.648-1.264-.304-2.288-.608-3.072-.912a5.232 5.232 0 01-1.992-1.392c-.544-.64-.816-1.496-.816-2.568 0-.896.232-1.704.696-2.424.48-.72 1.2-1.296 2.16-1.728.96-.432 2.152-.648 3.576-.648.992 0 1.968.128 2.928.384s1.784.624 2.472 1.104l-.792 1.92a8.398 8.398 0 00-2.256-1.008 8.16 8.16 0 00-2.352-.36c-1.36 0-2.384.248-3.072.744-.672.496-1.008 1.136-1.008 1.92 0 .576.192 1.048.576 1.416.384.352.856.632 1.416.84.576.192 1.352.4 2.328.624 1.264.304 2.28.608 3.048.912a5.032 5.032 0 011.968 1.392c.56.624.84 1.464.84 2.52 0 .88-.24 1.688-.72 2.424-.48.72-1.208 1.296-2.184 1.728-.976.416-2.176.624-3.6.624zm17.076-.936a3.58 3.58 0 01-1.248.672 5.481 5.481 0 01-1.536.216c-1.28 0-2.272-.344-2.976-1.032-.704-.688-1.056-1.672-1.056-2.952v-6.984h-2.16V46.28h2.16v-2.784h2.304v2.784h3.648v1.896h-3.648v6.888c0 .688.168 1.216.504 1.584.352.368.848.552 1.488.552.704 0 1.304-.2 1.8-.6l.72 1.656zm8.062.888c-1.264 0-2.4-.28-3.408-.84A6.204 6.204 0 01667.052 56c-.56-.992-.84-2.112-.84-3.36 0-1.248.28-2.36.84-3.336A5.984 5.984 0 01669.428 47c1.008-.56 2.144-.84 3.408-.84 1.264 0 2.392.28 3.384.84a5.822 5.822 0 012.352 2.304c.576.976.864 2.088.864 3.336 0 1.248-.288 2.368-.864 3.36a6.031 6.031 0 01-2.352 2.304c-.992.56-2.12.84-3.384.84zm0-2.016c.816 0 1.544-.184 2.184-.552a4.061 4.061 0 001.536-1.584c.368-.688.552-1.472.552-2.352 0-.88-.184-1.656-.552-2.328a3.858 3.858 0 00-1.536-1.584c-.64-.368-1.368-.552-2.184-.552-.816 0-1.552.184-2.208.552-.64.368-1.152.896-1.536 1.584-.368.672-.552 1.448-.552 2.328 0 .88.184 1.664.552 2.352.384.672.896 1.2 1.536 1.584.656.368 1.392.552 2.208.552zm12.244-8.712c.4-.736.992-1.296 1.776-1.68.784-.384 1.736-.576 2.856-.576v2.232a4.498 4.498 0 00-.528-.024c-1.248 0-2.232.376-2.952 1.128-.704.736-1.056 1.792-1.056 3.168V59h-2.304V46.28h2.208v2.136zm12.33-2.256c1.76 0 3.104.432 4.032 1.296.944.864 1.416 2.152 1.416 3.864V59h-2.184v-1.68c-.384.592-.936 1.048-1.656 1.368-.704.304-1.544.456-2.52.456-1.424 0-2.568-.344-3.432-1.032-.848-.688-1.272-1.592-1.272-2.712s.408-2.016 1.224-2.688c.816-.688 2.112-1.032 3.888-1.032h3.648v-.456c0-.992-.288-1.752-.864-2.28-.576-.528-1.424-.792-2.544-.792-.752 0-1.488.128-2.208.384-.72.24-1.328.568-1.824.984l-.96-1.728c.656-.528 1.44-.928 2.352-1.2a9.588 9.588 0 012.904-.432zm-.528 11.208c.88 0 1.64-.192 2.28-.576.64-.4 1.104-.96 1.392-1.68v-1.776h-3.552c-1.952 0-2.928.656-2.928 1.968 0 .64.248 1.144.744 1.512.496.368 1.184.552 2.064.552zM719.61 46.28v10.992c0 2.224-.552 3.864-1.656 4.92-1.104 1.072-2.752 1.608-4.944 1.608-1.2 0-2.344-.168-3.432-.504-1.088-.32-1.968-.784-2.64-1.392l1.104-1.776c.592.512 1.32.912 2.184 1.2a8.25 8.25 0 002.712.456c1.488 0 2.584-.352 3.288-1.056.72-.704 1.08-1.776 1.08-3.216v-1.008a5.187 5.187 0 01-2.016 1.488c-.784.32-1.64.48-2.568.48-1.216 0-2.32-.256-3.312-.768a5.935 5.935 0 01-2.304-2.184c-.56-.944-.84-2.016-.84-3.216 0-1.2.28-2.264.84-3.192a5.714 5.714 0 012.304-2.184c.992-.512 2.096-.768 3.312-.768.96 0 1.848.176 2.664.528a4.952 4.952 0 012.04 1.56V46.28h2.184zm-6.624 10.176c.832 0 1.576-.176 2.232-.528a3.83 3.83 0 001.56-1.464c.384-.64.576-1.36.576-2.16 0-1.232-.408-2.224-1.224-2.976-.816-.768-1.864-1.152-3.144-1.152-1.296 0-2.352.384-3.168 1.152-.816.752-1.224 1.744-1.224 2.976 0 .8.184 1.52.552 2.16a4.04 4.04 0 001.56 1.464c.672.352 1.432.528 2.28.528zm22.773-3.744c0 .176-.016.408-.048.696h-10.32c.144 1.12.632 2.024 1.464 2.712.848.672 1.896 1.008 3.144 1.008 1.52 0 2.744-.512 3.672-1.536l1.272 1.488a5.554 5.554 0 01-2.16 1.536c-.848.352-1.8.528-2.856.528-1.344 0-2.536-.272-3.576-.816A6.067 6.067 0 01723.927 56c-.56-.992-.84-2.112-.84-3.36 0-1.232.272-2.344.816-3.336a5.955 5.955 0 012.28-2.304c.976-.56 2.072-.84 3.288-.84 1.216 0 2.296.28 3.24.84a5.631 5.631 0 012.232 2.304c.544.992.816 2.128.816 3.408zm-6.288-4.608c-1.104 0-2.032.336-2.784 1.008-.736.672-1.168 1.552-1.296 2.64h8.16c-.128-1.072-.568-1.944-1.32-2.616-.736-.688-1.656-1.032-2.76-1.032zm40.504-5.904L764.359 59h-2.52l-4.584-13.416L752.671 59h-2.568l-5.616-16.8h2.472l4.536 13.656 4.728-13.656h2.208l4.632 13.728 4.632-13.728h2.28zm2.873 4.08h2.304V59h-2.304V46.28zM774 43.832c-.448 0-.824-.144-1.128-.432a1.436 1.436 0 01-.432-1.056c0-.416.144-.768.432-1.056.304-.304.68-.456 1.128-.456.448 0 .816.144 1.104.432.304.272.456.616.456 1.032 0 .432-.152.8-.456 1.104-.288.288-.656.432-1.104.432zm12.954 14.424a3.58 3.58 0 01-1.248.672 5.481 5.481 0 01-1.536.216c-1.28 0-2.272-.344-2.976-1.032-.704-.688-1.056-1.672-1.056-2.952v-6.984h-2.16V46.28h2.16v-2.784h2.304v2.784h3.648v1.896h-3.648v6.888c0 .688.168 1.216.504 1.584.352.368.848.552 1.488.552.704 0 1.304-.2 1.8-.6l.72 1.656zm9.827-12.096c1.616 0 2.896.472 3.84 1.416.96.928 1.44 2.296 1.44 4.104V59h-2.304v-7.056c0-1.232-.296-2.16-.888-2.784-.592-.624-1.44-.936-2.544-.936-1.248 0-2.232.368-2.952 1.104-.72.72-1.08 1.76-1.08 3.12V59h-2.304V41.192h2.304v6.888c.48-.608 1.104-1.08 1.872-1.416.784-.336 1.656-.504 2.616-.504zm21.864-4.968V59h-2.208v-2.016a4.99 4.99 0 01-1.944 1.608c-.784.368-1.648.552-2.592.552-1.232 0-2.336-.272-3.312-.816a5.953 5.953 0 01-2.304-2.28c-.544-.992-.816-2.128-.816-3.408 0-1.28.272-2.408.816-3.384a5.953 5.953 0 012.304-2.28c.976-.544 2.08-.816 3.312-.816.912 0 1.752.176 2.52.528.768.336 1.408.84 1.92 1.512v-7.008h2.304zm-6.552 15.936c.8 0 1.528-.184 2.184-.552a4.061 4.061 0 001.536-1.584c.368-.688.552-1.472.552-2.352 0-.88-.184-1.656-.552-2.328a3.858 3.858 0 00-1.536-1.584 4.387 4.387 0 00-2.184-.552c-.816 0-1.552.184-2.208.552-.64.368-1.152.896-1.536 1.584-.368.672-.552 1.448-.552 2.328 0 .88.184 1.664.552 2.352.384.672.896 1.2 1.536 1.584.656.368 1.392.552 2.208.552zm13.37-8.712c.4-.736.992-1.296 1.776-1.68.784-.384 1.736-.576 2.856-.576v2.232a4.498 4.498 0 00-.528-.024c-1.248 0-2.232.376-2.952 1.128-.704.736-1.056 1.792-1.056 3.168V59h-2.304V46.28h2.208v2.136zm12.33-2.256c1.76 0 3.104.432 4.032 1.296.944.864 1.416 2.152 1.416 3.864V59h-2.184v-1.68c-.384.592-.936 1.048-1.656 1.368-.704.304-1.544.456-2.52.456-1.424 0-2.568-.344-3.432-1.032-.848-.688-1.272-1.592-1.272-2.712s.408-2.016 1.224-2.688c.816-.688 2.112-1.032 3.888-1.032h3.648v-.456c0-.992-.288-1.752-.864-2.28-.576-.528-1.424-.792-2.544-.792-.752 0-1.488.128-2.208.384-.72.24-1.328.568-1.824.984l-.96-1.728c.656-.528 1.44-.928 2.352-1.2a9.588 9.588 0 012.904-.432zm-.528 11.208c.88 0 1.64-.192 2.28-.576.64-.4 1.104-.96 1.392-1.68v-1.776h-3.552c-1.952 0-2.928.656-2.928 1.968 0 .64.248 1.144.744 1.512.496.368 1.184.552 2.064.552zm29.503-11.088L862.016 59h-2.208l-3.672-9.648-3.72 9.648h-2.208l-4.728-12.72h2.184l3.696 10.128 3.84-10.128h1.944l3.768 10.176 3.792-10.176h2.064zm6.822-.12c1.76 0 3.104.432 4.032 1.296.944.864 1.416 2.152 1.416 3.864V59h-2.184v-1.68c-.384.592-.936 1.048-1.656 1.368-.704.304-1.544.456-2.52.456-1.424 0-2.568-.344-3.432-1.032-.848-.688-1.272-1.592-1.272-2.712s.408-2.016 1.224-2.688c.816-.688 2.112-1.032 3.888-1.032h3.648v-.456c0-.992-.288-1.752-.864-2.28-.576-.528-1.424-.792-2.544-.792-.752 0-1.488.128-2.208.384-.72.24-1.328.568-1.824.984l-.96-1.728c.656-.528 1.44-.928 2.352-1.2a9.588 9.588 0 012.904-.432zm-.528 11.208c.88 0 1.64-.192 2.28-.576.64-.4 1.104-.96 1.392-1.68v-1.776h-3.552c-1.952 0-2.928.656-2.928 1.968 0 .64.248 1.144.744 1.512.496.368 1.184.552 2.064.552zm10.49-16.176h2.304V59h-2.304V41.192zm10.601 17.952c-1.04 0-2.04-.136-3-.408-.96-.288-1.712-.648-2.256-1.08l.96-1.824c.56.4 1.24.72 2.04.96s1.608.36 2.424.36c2.016 0 3.024-.576 3.024-1.728 0-.384-.136-.688-.408-.912-.272-.224-.616-.384-1.032-.48a18.11 18.11 0 00-1.728-.36c-1.024-.16-1.864-.344-2.52-.552a3.874 3.874 0 01-1.656-1.056c-.464-.496-.696-1.192-.696-2.088 0-1.152.48-2.072 1.44-2.76.96-.704 2.248-1.056 3.864-1.056.848 0 1.696.104 2.544.312.848.208 1.544.488 2.088.84l-.984 1.824c-1.04-.672-2.264-1.008-3.672-1.008-.976 0-1.72.16-2.232.48-.512.32-.768.744-.768 1.272 0 .416.144.744.432.984.288.24.64.416 1.056.528.432.112 1.032.24 1.8.384 1.024.176 1.848.368 2.472.576a3.61 3.61 0 011.632 1.008c.448.48.672 1.152.672 2.016 0 1.152-.496 2.072-1.488 2.76-.976.672-2.312 1.008-4.008 1.008zM482.133 42.2h2.4V59h-2.4V42.2zm23.256 3.96c1.6 0 2.864.464 3.792 1.392.944.928 1.416 2.304 1.416 4.128V59h-2.304v-7.056c0-1.232-.288-2.16-.864-2.784-.56-.624-1.368-.936-2.424-.936-1.168 0-2.096.368-2.784 1.104-.688.72-1.032 1.76-1.032 3.12V59h-2.304v-7.056c0-1.232-.288-2.16-.864-2.784-.56-.624-1.368-.936-2.424-.936-1.168 0-2.096.368-2.784 1.104-.688.72-1.032 1.76-1.032 3.12V59h-2.304V46.28h2.208v1.896a4.376 4.376 0 011.824-1.488c.752-.352 1.608-.528 2.568-.528.992 0 1.872.2 2.64.6.768.4 1.36.984 1.776 1.752.48-.736 1.144-1.312 1.992-1.728.864-.416 1.832-.624 2.904-.624zm16.441 0c1.232 0 2.336.272 3.312.816a5.787 5.787 0 012.28 2.28c.56.976.84 2.104.84 3.384 0 1.28-.28 2.416-.84 3.408a5.787 5.787 0 01-2.28 2.28c-.976.544-2.08.816-3.312.816a5.975 5.975 0 01-2.52-.528 5.243 5.243 0 01-1.92-1.536v6.576h-2.304V46.28h2.208v2.016a4.797 4.797 0 011.944-1.584c.784-.368 1.648-.552 2.592-.552zm-.192 10.968c.816 0 1.544-.184 2.184-.552a4.061 4.061 0 001.536-1.584c.384-.688.576-1.472.576-2.352 0-.88-.192-1.656-.576-2.328a3.858 3.858 0 00-1.536-1.584c-.64-.368-1.368-.552-2.184-.552-.8 0-1.528.192-2.184.576a4.111 4.111 0 00-1.536 1.56c-.368.672-.552 1.448-.552 2.328 0 .88.184 1.664.552 2.352.368.672.88 1.2 1.536 1.584a4.387 4.387 0 002.184.552zm15.506 2.016c-1.264 0-2.4-.28-3.408-.84A6.204 6.204 0 01531.36 56c-.56-.992-.84-2.112-.84-3.36 0-1.248.28-2.36.84-3.336A5.984 5.984 0 01533.736 47c1.008-.56 2.144-.84 3.408-.84 1.264 0 2.392.28 3.384.84a5.822 5.822 0 012.352 2.304c.576.976.864 2.088.864 3.336 0 1.248-.288 2.368-.864 3.36a6.031 6.031 0 01-2.352 2.304c-.992.56-2.12.84-3.384.84zm0-2.016c.816 0 1.544-.184 2.184-.552a4.061 4.061 0 001.536-1.584c.368-.688.552-1.472.552-2.352 0-.88-.184-1.656-.552-2.328a3.858 3.858 0 00-1.536-1.584c-.64-.368-1.368-.552-2.184-.552-.816 0-1.552.184-2.208.552-.64.368-1.152.896-1.536 1.584-.368.672-.552 1.448-.552 2.328 0 .88.184 1.664.552 2.352.384.672.896 1.2 1.536 1.584.656.368 1.392.552 2.208.552zm12.244-8.712c.4-.736.992-1.296 1.776-1.68.784-.384 1.736-.576 2.856-.576v2.232a4.498 4.498 0 00-.528-.024c-1.248 0-2.232.376-2.952 1.128-.704.736-1.056 1.792-1.056 3.168V59h-2.304V46.28h2.208v2.136zm15.389 9.84a3.58 3.58 0 01-1.248.672 5.481 5.481 0 01-1.536.216c-1.28 0-2.272-.344-2.976-1.032-.704-.688-1.056-1.672-1.056-2.952v-6.984h-2.16V46.28h2.16v-2.784h2.304v2.784h3.648v1.896h-3.648v6.888c0 .688.168 1.216.504 1.584.352.368.848.552 1.488.552.704 0 1.304-.2 1.8-.6l.72 1.656zm6.684.888c-1.04 0-2.04-.136-3-.408-.96-.288-1.712-.648-2.256-1.08l.96-1.824c.56.4 1.24.72 2.04.96s1.608.36 2.424.36c2.016 0 3.024-.576 3.024-1.728 0-.384-.136-.688-.408-.912-.272-.224-.616-.384-1.032-.48a18.11 18.11 0 00-1.728-.36c-1.024-.16-1.864-.344-2.52-.552a3.874 3.874 0 01-1.656-1.056c-.464-.496-.696-1.192-.696-2.088 0-1.152.48-2.072 1.44-2.76.96-.704 2.248-1.056 3.864-1.056.848 0 1.696.104 2.544.312.848.208 1.544.488 2.088.84l-.984 1.824c-1.04-.672-2.264-1.008-3.672-1.008-.976 0-1.72.16-2.232.48-.512.32-.768.744-.768 1.272 0 .416.144.744.432.984.288.24.64.416 1.056.528.432.112 1.032.24 1.8.384 1.024.176 1.848.368 2.472.576a3.61 3.61 0 011.632 1.008c.448.48.672 1.152.672 2.016 0 1.152-.496 2.072-1.488 2.76-.976.672-2.312 1.008-4.008 1.008z"/>
  <path fill="#FBE1DB" d="M249.449 40.232h21.604v21.604h-21.604z"/>
  <path fill="#F7C3B7" d="M445 40h21.604v21.604H445z"/>
  <path fill="#F0876F" d="M605 40h21.604v21.604H605z"/>
</svg>
