<svg id="Layer_1" data-name="Layer 1" xmlns="http://www.w3.org/2000/svg" viewBox="0 0 334.54 388.22"><defs><style>.cls-1,.cls-3,.cls-6{fill:#53afab;}.cls-1,.cls-2,.cls-5,.cls-7,.cls-9{opacity:0.3;isolation:isolate;}.cls-2{fill:#cce7e6;}.cls-4,.cls-7{fill:none;stroke:#000;stroke-width:2px;}.cls-10,.cls-6{fill-opacity:0.3;}.cls-7{stroke-linejoin:round;stroke-opacity:0.5;stroke-dasharray:5 5;}.cls-8,.cls-9{fill-opacity:0.5;}</style></defs><rect class="cls-1" x="97.41" y="323.68" width="149.54" height="28.04"/><rect class="cls-2" x="246.95" y="323.68" width="66.41" height="28.04"/><rect class="cls-1" x="184.97" y="271.54" width="61.98" height="28.04"/><rect class="cls-2" x="246.95" y="271.54" width="31.97" height="28.04"/><rect class="cls-1" x="166.28" y="218.9" width="18.69" height="28.04"/><rect class="cls-1" x="130.37" y="166.76" width="35.91" height="27.55"/><rect class="cls-1" x="105.77" y="114.13" width="25.58" height="27.55"/><rect class="cls-3" x="97.41" y="61.49" width="8.36" height="27.55"/><rect class="cls-2" x="130.37" y="114.13" width="8.36" height="27.55"/><path class="cls-4" d="M235.94,238.49V562.17" transform="translate(-138.53 -202.09)"/><path d="M161.85,209.78v.68h-4v-5.51h3.89v.69h-3.1v1.69h2.76V208h-2.76v1.78Zm2.43.74a3.52,3.52,0,0,1-1-.14,2.13,2.13,0,0,1-.74-.35l.32-.6a2,2,0,0,0,.66.31,2.77,2.77,0,0,0,.8.12c.66,0,1-.18,1-.56a.35.35,0,0,0-.13-.3.83.83,0,0,0-.34-.16l-.57-.12a5.15,5.15,0,0,1-.82-.18,1.21,1.21,0,0,1-.54-.35.92.92,0,0,1-.23-.68,1.08,1.08,0,0,1,.47-.91,2.12,2.12,0,0,1,1.27-.34,4,4,0,0,1,.84.1,2.53,2.53,0,0,1,.68.28l-.32.6a2.19,2.19,0,0,0-1.21-.33,1.35,1.35,0,0,0-.73.15.47.47,0,0,0-.25.42.39.39,0,0,0,.14.32.78.78,0,0,0,.34.17l.59.13a5.46,5.46,0,0,1,.81.19,1.28,1.28,0,0,1,.54.34.89.89,0,0,1,.22.66,1.06,1.06,0,0,1-.49.9A2.3,2.3,0,0,1,164.28,210.52Zm5.22-.28a1.23,1.23,0,0,1-.41.22,1.68,1.68,0,0,1-.5.07,1.37,1.37,0,0,1-1-.34,1.27,1.27,0,0,1-.34-1v-2.29h-.71v-.62h.71v-.92H168v.91h1.19v.62H168v2.26a.74.74,0,0,0,.17.52.62.62,0,0,0,.48.18.91.91,0,0,0,.59-.19Zm1-3.92h.76v4.17h-.76Zm.38-.81a.5.5,0,0,1-.37-.14.48.48,0,0,1-.14-.35.45.45,0,0,1,.15-.34.5.5,0,0,1,.37-.15.52.52,0,0,1,.36.14.43.43,0,0,1,.15.34.5.5,0,0,1-.52.5Zm7.16.79a1.68,1.68,0,0,1,1.25.46,1.8,1.8,0,0,1,.46,1.35v2.4H179V208.2a1.32,1.32,0,0,0-.28-.92A1,1,0,0,0,178,207a1.21,1.21,0,0,0-.92.36,1.46,1.46,0,0,0-.34,1v2.15h-.76v-2.31a1.37,1.37,0,0,0-.28-.92,1.08,1.08,0,0,0-.8-.31,1.18,1.18,0,0,0-.91.36,1.42,1.42,0,0,0-.34,1v2.15h-.75v-4.17h.72V207a1.38,1.38,0,0,1,.6-.49,2.07,2.07,0,0,1,1.71,0,1.39,1.39,0,0,1,.58.57,1.49,1.49,0,0,1,.65-.56A2.1,2.1,0,0,1,178.08,206.3Zm4.74,0a1.87,1.87,0,0,1,1.33.43,1.66,1.66,0,0,1,.46,1.27v2.51h-.72V210a1.23,1.23,0,0,1-.55.45,2,2,0,0,1-.82.15,1.79,1.79,0,0,1-1.13-.35,1,1,0,0,1-.41-.89,1.08,1.08,0,0,1,.4-.88,2,2,0,0,1,1.27-.33h1.2V208a1,1,0,0,0-.28-.75,1.21,1.21,0,0,0-.83-.26,2,2,0,0,0-.73.13,1.73,1.73,0,0,0-.6.32l-.31-.57a2.23,2.23,0,0,1,.77-.39A3,3,0,0,1,182.82,206.31Zm-.18,3.67a1.49,1.49,0,0,0,.75-.18,1.18,1.18,0,0,0,.46-.55v-.59h-1.17c-.64,0-1,.21-1,.64a.58.58,0,0,0,.25.5A1.09,1.09,0,0,0,182.64,210Zm5.83.31a1.23,1.23,0,0,1-.41.22,1.7,1.7,0,0,1-.51.07,1.35,1.35,0,0,1-1-.34,1.27,1.27,0,0,1-.34-1V207h-.71v-.62h.71v-.92H187v.91h1.19V207H187v2.26a.74.74,0,0,0,.17.52.62.62,0,0,0,.48.18.91.91,0,0,0,.59-.19Zm4.67-1.81a1,1,0,0,1,0,.23h-3.38a1.34,1.34,0,0,0,.48.89,1.71,1.71,0,0,0,2.23-.16l.42.49a1.91,1.91,0,0,1-.71.5,2.54,2.54,0,0,1-.94.17,2.46,2.46,0,0,1-1.17-.27,2,2,0,0,1-.79-.77,2.22,2.22,0,0,1-.28-1.1,2.32,2.32,0,0,1,.28-1.09,1.93,1.93,0,0,1,.74-.76,2.16,2.16,0,0,1,1.08-.27,2,2,0,0,1,1.07.28,1.91,1.91,0,0,1,.73.76A2.33,2.33,0,0,1,193.14,208.48ZM191.08,207a1.3,1.3,0,0,0-1.34,1.19h2.68a1.34,1.34,0,0,0-.43-.86A1.27,1.27,0,0,0,191.08,207Zm7.18-2.25,0,5.84h-.72v-.66a1.62,1.62,0,0,1-.64.52,2,2,0,0,1-.85.18,2.16,2.16,0,0,1-1.08-.27,2,2,0,0,1-.76-.75,2.26,2.26,0,0,1-.26-1.12,2.23,2.23,0,0,1,.27-1.11,1.91,1.91,0,0,1,.75-.74,2.23,2.23,0,0,1,1.09-.27,1.9,1.9,0,0,1,.83.18,1.61,1.61,0,0,1,.63.5v-2.3Zm-2.16,5.22a1.41,1.41,0,0,0,.71-.18,1.28,1.28,0,0,0,.51-.52,1.59,1.59,0,0,0,.18-.77,1.55,1.55,0,0,0-.18-.76,1.26,1.26,0,0,0-.5-.52,1.57,1.57,0,0,0-.72-.19,1.45,1.45,0,0,0-.72.18,1.41,1.41,0,0,0-.51.52,1.58,1.58,0,0,0-.18.76,1.66,1.66,0,0,0,.18.78,1.47,1.47,0,0,0,.5.52A1.49,1.49,0,0,0,196.1,209.94Zm6.84-4.19v1.92h2.76v.67h-2.76v2.23h-.79l0-5.51H206v.69Zm7.86,2.78c0,.06,0,.13,0,.23H207.4a1.31,1.31,0,0,0,.47.89,1.61,1.61,0,0,0,1,.33,1.52,1.52,0,0,0,1.21-.5l.42.49a1.8,1.8,0,0,1-.71.5,2.39,2.39,0,0,1-.94.18,2.59,2.59,0,0,1-1.17-.28,2,2,0,0,1-.8-.76,2.38,2.38,0,0,1,0-2.2,1.93,1.93,0,0,1,.75-.75,2.16,2.16,0,0,1,1.08-.27,2,2,0,0,1,1.06.28,1.82,1.82,0,0,1,.73.75A2.29,2.29,0,0,1,210.8,208.53ZM208.74,207a1.28,1.28,0,0,0-1.34,1.2h2.67a1.28,1.28,0,0,0-.43-.85A1.3,1.3,0,0,0,208.74,207Zm5.44-.62a2.18,2.18,0,0,1,1.09.27,1.93,1.93,0,0,1,.75.75,2.23,2.23,0,0,1,.27,1.11,2.19,2.19,0,0,1-.28,1.12,1.84,1.84,0,0,1-.75.74,2.18,2.18,0,0,1-1.09.27,2,2,0,0,1-.84-.18,1.74,1.74,0,0,1-.64-.53v.66H212l0-5.84h.75v2.3a1.61,1.61,0,0,1,.63-.5A2,2,0,0,1,214.18,206.39Zm-.07,3.6a1.35,1.35,0,0,0,1.23-.7,1.6,1.6,0,0,0,.19-.77,1.56,1.56,0,0,0-.19-.76,1.26,1.26,0,0,0-.5-.52,1.34,1.34,0,0,0-.72-.19,1.48,1.48,0,0,0-.72.18,1.26,1.26,0,0,0-.5.52,1.55,1.55,0,0,0-.18.76,1.49,1.49,0,0,0,.18.77,1.34,1.34,0,0,0,.5.53A1.41,1.41,0,0,0,214.11,210Zm7-4.88v5.51h-.78v-4.83h-1.24v-.68Zm2.9,2.2a2.79,2.79,0,0,1,1.73.46,1.43,1.43,0,0,1,.55,1.21,1.72,1.72,0,0,1-.23.88,1.59,1.59,0,0,1-.71.61,2.62,2.62,0,0,1-1.15.22,3.85,3.85,0,0,1-1.12-.17,2.77,2.77,0,0,1-.9-.5l.37-.62a2,2,0,0,0,.72.43,2.6,2.6,0,0,0,.93.16,1.52,1.52,0,0,0,1-.26.92.92,0,0,0,0-1.47,2.39,2.39,0,0,0-1.29-.26h-1.25l.3-2.88H226v.69h-2.44l-.16,1.51Zm7.45,3.38a2.4,2.4,0,0,1-1.14-.27,2.11,2.11,0,0,1-.78-.76,2.27,2.27,0,0,1,0-2.2,2,2,0,0,1,.78-.75,2.4,2.4,0,0,1,1.14-.27,2.09,2.09,0,0,1,1,.23,1.57,1.57,0,0,1,.69.66l-.58.37a1.29,1.29,0,0,0-.48-.45,1.41,1.41,0,0,0-.65-.15,1.53,1.53,0,0,0-.74.18,1.32,1.32,0,0,0-.51.51,1.62,1.62,0,0,0-.18.77,1.45,1.45,0,0,0,.18.78,1.25,1.25,0,0,0,.51.51,1.49,1.49,0,0,0,.73.18,1.51,1.51,0,0,0,.65-.14,1.24,1.24,0,0,0,.49-.45l.57.36a1.65,1.65,0,0,1-.69.67A2.06,2.06,0,0,1,231.42,210.69Zm4.53,0a2.3,2.3,0,0,1-1.12-.28,2.11,2.11,0,0,1-.78-.76,2.24,2.24,0,0,1-.27-1.1,2.12,2.12,0,0,1,.28-1.1,2,2,0,0,1,.78-.75,2.29,2.29,0,0,1,1.12-.27,2.18,2.18,0,0,1,1.11.28,2,2,0,0,1,.77.75,2.25,2.25,0,0,1,.28,1.1,2.12,2.12,0,0,1-.29,1.1,1.92,1.92,0,0,1-.77.75A2.18,2.18,0,0,1,236,210.71Zm0-.66a1.43,1.43,0,0,0,.72-.18,1.39,1.39,0,0,0,.5-.52,1.62,1.62,0,0,0,.18-.77,1.59,1.59,0,0,0-.18-.77,1.25,1.25,0,0,0-.5-.52,1.41,1.41,0,0,0-.71-.18,1.49,1.49,0,0,0-.73.18,1.26,1.26,0,0,0-.5.52,1.56,1.56,0,0,0-.19.76,1.59,1.59,0,0,0,.18.77,1.41,1.41,0,0,0,.51.52A1.54,1.54,0,0,0,236,210.05Zm5.57-3.59a1.71,1.71,0,0,1,1.26.47,1.79,1.79,0,0,1,.46,1.35v2.4h-.76v-2.32a1.29,1.29,0,0,0-.29-.91,1.06,1.06,0,0,0-.83-.31,1.29,1.29,0,0,0-1,.36,1.36,1.36,0,0,0-.36,1v2.15h-.76V206.5H240v.63a1.47,1.47,0,0,1,.62-.5A2.28,2.28,0,0,1,241.52,206.46Zm4.44,4.27a3.64,3.64,0,0,1-1-.13,2.43,2.43,0,0,1-.74-.36l.32-.6a2.32,2.32,0,0,0,.67.32,2.71,2.71,0,0,0,.79.12c.66,0,1-.19,1-.56a.36.36,0,0,0-.14-.3.73.73,0,0,0-.33-.16,4.9,4.9,0,0,0-.57-.12,6.77,6.77,0,0,1-.83-.18,1.3,1.3,0,0,1-.54-.35,1,1,0,0,1-.23-.69,1,1,0,0,1,.48-.9,2,2,0,0,1,1.27-.34,3.42,3.42,0,0,1,.83.1,2,2,0,0,1,.68.28l-.32.59a2.16,2.16,0,0,0-1.2-.33,1.38,1.38,0,0,0-.74.16.48.48,0,0,0-.25.41.42.42,0,0,0,.14.33,1.14,1.14,0,0,0,.35.17l.59.13a6.15,6.15,0,0,1,.81.19,1.09,1.09,0,0,1,.53.33.92.92,0,0,1,.22.66,1.05,1.05,0,0,1-.49.91A2.29,2.29,0,0,1,246,210.73Zm6.76-4.2v4.17H252v-.63a1.5,1.5,0,0,1-.61.5,1.79,1.79,0,0,1-.81.18,1.9,1.9,0,0,1-1.31-.46,1.84,1.84,0,0,1-.48-1.37v-2.4h.75v2.32a1.29,1.29,0,0,0,.29.92,1.1,1.1,0,0,0,.83.31,1.24,1.24,0,0,0,.94-.36,1.38,1.38,0,0,0,.35-1v-2.16Zm6.78,0a1.72,1.72,0,0,1,1.25.46,1.84,1.84,0,0,1,.46,1.36v2.4h-.75v-2.31a1.29,1.29,0,0,0-.28-.91,1,1,0,0,0-.79-.31,1.21,1.21,0,0,0-.92.36,1.42,1.42,0,0,0-.34,1v2.15h-.76V208.4a1.34,1.34,0,0,0-.28-.91,1,1,0,0,0-.8-.31,1.18,1.18,0,0,0-.91.36,1.4,1.4,0,0,0-.34,1v2.15h-.75v-4.17H255v.62a1.45,1.45,0,0,1,.6-.49,2,2,0,0,1,.84-.17,1.89,1.89,0,0,1,.87.2,1.41,1.41,0,0,1,.58.58,1.58,1.58,0,0,1,.65-.57A2.24,2.24,0,0,1,259.5,206.51Zm5.44,0a2.28,2.28,0,0,1,1.08.28,1.81,1.81,0,0,1,.75.75,2.23,2.23,0,0,1,.27,1.11,2.13,2.13,0,0,1-.28,1.11,1.93,1.93,0,0,1-.75.75,2.16,2.16,0,0,1-1.08.26,2.05,2.05,0,0,1-.83-.17,1.82,1.82,0,0,1-.63-.51v2.16h-.76l0-5.7h.72v.66a1.62,1.62,0,0,1,.64-.52A2,2,0,0,1,264.94,206.52Zm-.07,3.6a1.41,1.41,0,0,0,.71-.18,1.28,1.28,0,0,0,.51-.52,1.6,1.6,0,0,0,.19-.77,1.48,1.48,0,0,0-.19-.76,1.26,1.26,0,0,0-.5-.52,1.51,1.51,0,0,0-1.43,0,1.39,1.39,0,0,0-.51.51,1.59,1.59,0,0,0-.18.77,1.65,1.65,0,0,0,.18.77,1.32,1.32,0,0,0,.5.52A1.43,1.43,0,0,0,264.87,210.12Zm5.68.39a1.45,1.45,0,0,1-.41.22,2.08,2.08,0,0,1-.5.07,1.38,1.38,0,0,1-1-.35,1.26,1.26,0,0,1-.34-1V207.2h-.71v-.62h.71v-.91h.75v.92h1.2v.62h-1.19v2.26a.77.77,0,0,0,.17.52.62.62,0,0,0,.48.18.92.92,0,0,0,.59-.2Zm1-3.93h.76v4.18h-.75Zm.38-.8a.55.55,0,0,1-.37-.14.5.5,0,0,1-.14-.35.47.47,0,0,1,.15-.35.53.53,0,0,1,.37-.14.48.48,0,0,1,.36.14.43.43,0,0,1,.15.34.49.49,0,0,1-.15.36A.53.53,0,0,1,272,205.78Zm3.72,5a2.18,2.18,0,0,1-1.11-.28,2,2,0,0,1-.78-.75,2.38,2.38,0,0,1,0-2.2,1.88,1.88,0,0,1,.78-.75,2.36,2.36,0,0,1,2.23,0,1.88,1.88,0,0,1,.77.76,2.08,2.08,0,0,1,.28,1.09,2.18,2.18,0,0,1-.28,1.11,2.08,2.08,0,0,1-.78.75A2.23,2.23,0,0,1,275.69,210.81Zm0-.66a1.43,1.43,0,0,0,.72-.18,1.34,1.34,0,0,0,.51-.52,1.59,1.59,0,0,0,.18-.77,1.55,1.55,0,0,0-.18-.76,1.26,1.26,0,0,0-.5-.52,1.54,1.54,0,0,0-.72-.19,1.35,1.35,0,0,0-1.23.7,1.58,1.58,0,0,0-.18.76,1.66,1.66,0,0,0,.18.78,1.39,1.39,0,0,0,.5.52A1.48,1.48,0,0,0,275.69,210.15Zm5.57-3.58a1.71,1.71,0,0,1,1.26.47,1.79,1.79,0,0,1,.47,1.34v2.4h-.75v-2.31a1.23,1.23,0,0,0-.29-.92,1.14,1.14,0,0,0-.83-.31,1.31,1.31,0,0,0-1,.36,1.43,1.43,0,0,0-.35,1v2.14H279V206.6h.72v.63a1.48,1.48,0,0,1,.61-.49A2.14,2.14,0,0,1,281.26,206.57Z" transform="translate(-138.53 -202.09)"/><path d="M317.13,204.94a2.55,2.55,0,0,1,1.68.51,1.93,1.93,0,0,1,0,2.82,2.55,2.55,0,0,1-1.68.51h-1.37v1.67H315v-5.51Zm0,3.16a1.78,1.78,0,0,0,1.14-.32,1.1,1.1,0,0,0,.4-.92,1.08,1.08,0,0,0-.4-.91,1.72,1.72,0,0,0-1.14-.32h-1.34v2.47Zm5.26,2.4a2.18,2.18,0,0,1-1.11-.28,2,2,0,0,1-.78-.75,2.17,2.17,0,0,1-.28-1.1,2.12,2.12,0,0,1,.28-1.1,1.94,1.94,0,0,1,.78-.75,2.18,2.18,0,0,1,1.11-.28,2.13,2.13,0,0,1,1.11.28,1.88,1.88,0,0,1,.78.75,2.22,2.22,0,0,1,.28,1.1,2.28,2.28,0,0,1-.28,1.1,1.94,1.94,0,0,1-.78.75A2.13,2.13,0,0,1,322.36,210.5Zm0-.66a1.43,1.43,0,0,0,.72-.18,1.32,1.32,0,0,0,.5-.52,1.54,1.54,0,0,0,.19-.77,1.49,1.49,0,0,0-.19-.77,1.25,1.25,0,0,0-.5-.52,1.43,1.43,0,0,0-.72-.18,1.48,1.48,0,0,0-.72.18,1.32,1.32,0,0,0-.5.52,1.59,1.59,0,0,0-.18.77,1.65,1.65,0,0,0,.18.77,1.39,1.39,0,0,0,.5.52A1.48,1.48,0,0,0,322.36,209.84Zm5.68.37a1.14,1.14,0,0,1-.41.22,1.68,1.68,0,0,1-.5.07,1.33,1.33,0,0,1-1-.34,1.3,1.3,0,0,1-.34-1V206.9h-.71v-.62h.71v-.91h.75v.91h1.2v.62h-1.2v2.26a.74.74,0,0,0,.17.52.64.64,0,0,0,.49.18.88.88,0,0,0,.59-.2Zm4.67-1.82a2.11,2.11,0,0,1,0,.23h-3.39a1.38,1.38,0,0,0,.48.89,1.61,1.61,0,0,0,1,.33,1.56,1.56,0,0,0,1.21-.51l.41.49a1.85,1.85,0,0,1-.71.51,2.65,2.65,0,0,1-2.1-.1,2,2,0,0,1-.8-.76,2.27,2.27,0,0,1-.27-1.1,2.24,2.24,0,0,1,.26-1.1,2,2,0,0,1,.75-.75,2.07,2.07,0,0,1,1.08-.28,2,2,0,0,1,1.06.28,1.76,1.76,0,0,1,.73.75A2.29,2.29,0,0,1,332.71,208.39Zm-2.06-1.51a1.3,1.3,0,0,0-1.34,1.19H332a1.33,1.33,0,0,0-.44-.85A1.25,1.25,0,0,0,330.65,206.88Zm5.46-.64a1.74,1.74,0,0,1,1.26.46,1.83,1.83,0,0,1,.47,1.35v2.4h-.75v-2.31a1.32,1.32,0,0,0-.29-.92,1.14,1.14,0,0,0-.84-.3,1.31,1.31,0,0,0-1,.36,1.42,1.42,0,0,0-.35,1v2.15h-.76v-4.17h.73v.63a1.44,1.44,0,0,1,.61-.5A2.28,2.28,0,0,1,336.11,206.24Zm5.6,4a1.23,1.23,0,0,1-.41.22,1.68,1.68,0,0,1-.5.07,1.33,1.33,0,0,1-1-.34,1.31,1.31,0,0,1-.35-1V206.9h-.7v-.62h.7v-.91h.76v.91h1.2v.62h-1.2v2.26a.74.74,0,0,0,.16.52.66.66,0,0,0,.49.18.86.86,0,0,0,.59-.2Zm1-3.93h.75v4.17h-.75Zm.37-.8a.55.55,0,0,1-.37-.14.51.51,0,0,1,0-.7.51.51,0,0,1,.37-.15.53.53,0,0,1,.37.14.44.44,0,0,1,.14.34.49.49,0,0,1-.14.37A.53.53,0,0,1,343.12,205.48Zm3.47.76a1.86,1.86,0,0,1,1.32.43,1.61,1.61,0,0,1,.46,1.26v2.52h-.71v-.55a1.3,1.3,0,0,1-.55.45,2,2,0,0,1-.82.15,1.73,1.73,0,0,1-1.13-.34,1.09,1.09,0,0,1-.42-.89,1.08,1.08,0,0,1,.41-.88,1.91,1.91,0,0,1,1.27-.34h1.2v-.15a1,1,0,0,0-.29-.75,1.2,1.2,0,0,0-.83-.26,2.18,2.18,0,0,0-.72.13,1.9,1.9,0,0,0-.6.32l-.32-.56a2.17,2.17,0,0,1,.77-.4A3.32,3.32,0,0,1,346.59,206.24Zm-.18,3.68a1.49,1.49,0,0,0,.75-.19,1.18,1.18,0,0,0,.46-.55v-.59h-1.17c-.64,0-1,.22-1,.65a.59.59,0,0,0,.25.5A1.09,1.09,0,0,0,346.41,209.92Zm3.48-5.31h.76v5.84h-.76Zm5.46,1v1.92h2.76v.67h-2.76v2.23h-.79v-5.51h3.89v.69Zm7.86,2.76c0,.06,0,.13,0,.23h-3.38a1.38,1.38,0,0,0,.48.89,1.61,1.61,0,0,0,1,.33,1.56,1.56,0,0,0,1.21-.51l.41.49a1.85,1.85,0,0,1-.71.51,2.49,2.49,0,0,1-.93.17,2.53,2.53,0,0,1-1.18-.27,2,2,0,0,1-.79-.76,2.28,2.28,0,0,1-.28-1.1,2.24,2.24,0,0,1,.27-1.1,1.93,1.93,0,0,1,.75-.75,2.07,2.07,0,0,1,1.08-.28,2,2,0,0,1,1.06.28,1.76,1.76,0,0,1,.73.75A2.29,2.29,0,0,1,363.21,208.39Zm-2.06-1.51a1.35,1.35,0,0,0-.92.33,1.33,1.33,0,0,0-.42.86h2.68a1.33,1.33,0,0,0-.44-.85A1.25,1.25,0,0,0,361.15,206.88Zm5.44-.64a2.18,2.18,0,0,1,1.09.27,1.93,1.93,0,0,1,.75.75,2.42,2.42,0,0,1,0,2.22,1.93,1.93,0,0,1-.75.75,2.18,2.18,0,0,1-1.09.27,2,2,0,0,1-.85-.18,1.62,1.62,0,0,1-.63-.53v.66h-.73v-5.84h.76v2.3a1.61,1.61,0,0,1,.63-.5A2,2,0,0,1,366.59,206.24Zm-.06,3.6a1.43,1.43,0,0,0,.72-.18,1.39,1.39,0,0,0,.5-.52,1.54,1.54,0,0,0,.19-.77,1.49,1.49,0,0,0-.19-.77,1.32,1.32,0,0,0-.5-.52,1.43,1.43,0,0,0-.72-.18,1.48,1.48,0,0,0-.72.18,1.32,1.32,0,0,0-.5.52,1.59,1.59,0,0,0-.18.77,1.65,1.65,0,0,0,.18.77,1.39,1.39,0,0,0,.5.52A1.48,1.48,0,0,0,366.53,209.84Zm7-4.9v5.51h-.78v-4.82h-1.25v-.69Zm2.9,2.2a2.71,2.71,0,0,1,1.73.45,1.45,1.45,0,0,1,.56,1.21,1.66,1.66,0,0,1-.24.88,1.51,1.51,0,0,1-.7.61,2.62,2.62,0,0,1-1.15.22,3.54,3.54,0,0,1-1.12-.17,2.59,2.59,0,0,1-.9-.49l.36-.63a2.09,2.09,0,0,0,.73.44,2.83,2.83,0,0,0,.93.15,1.52,1.52,0,0,0,1-.26.85.85,0,0,0,.34-.72.83.83,0,0,0-.38-.75,2.39,2.39,0,0,0-1.29-.26H375l.29-2.88h3.11v.69h-2.45l-.15,1.51Zm9.58-2.53v5.84h-.73v-.66a1.62,1.62,0,0,1-.63.53,2,2,0,0,1-.85.18,2.18,2.18,0,0,1-1.09-.27,2,2,0,0,1-.76-.75,2.5,2.5,0,0,1,0-2.22,2,2,0,0,1,.76-.75,2.18,2.18,0,0,1,1.09-.27,2,2,0,0,1,.82.17,1.61,1.61,0,0,1,.63.5v-2.3Zm-2.15,5.23a1.48,1.48,0,0,0,.72-.18,1.39,1.39,0,0,0,.5-.52,1.65,1.65,0,0,0,.18-.77,1.59,1.59,0,0,0-.18-.77,1.32,1.32,0,0,0-.5-.52,1.55,1.55,0,0,0-1.45,0,1.39,1.39,0,0,0-.5.52,1.59,1.59,0,0,0-.18.77,1.65,1.65,0,0,0,.18.77,1.47,1.47,0,0,0,.5.52A1.49,1.49,0,0,0,383.81,209.84Zm7.47-1.45c0,.06,0,.13,0,.23h-3.38a1.38,1.38,0,0,0,.48.89,1.61,1.61,0,0,0,1,.33,1.56,1.56,0,0,0,1.21-.51l.41.49a1.85,1.85,0,0,1-.71.51,2.49,2.49,0,0,1-.93.17,2.53,2.53,0,0,1-1.18-.27,2,2,0,0,1-.79-.76,2.28,2.28,0,0,1-.28-1.1,2.24,2.24,0,0,1,.27-1.1,2,2,0,0,1,.75-.75,2.07,2.07,0,0,1,1.08-.28,2,2,0,0,1,1.06.28,1.76,1.76,0,0,1,.73.75A2.29,2.29,0,0,1,391.28,208.39Zm-2.06-1.51a1.3,1.3,0,0,0-1.34,1.19h2.68a1.33,1.33,0,0,0-.44-.85A1.25,1.25,0,0,0,389.22,206.88Zm8.45-.64a1.64,1.64,0,0,1,1.24.46,1.8,1.8,0,0,1,.47,1.35v2.4h-.76v-2.31a1.32,1.32,0,0,0-.28-.92,1,1,0,0,0-.8-.3,1.2,1.2,0,0,0-.91.36,1.46,1.46,0,0,0-.34,1v2.15h-.75v-2.31a1.32,1.32,0,0,0-.29-.92,1,1,0,0,0-.79-.3,1.18,1.18,0,0,0-.91.36,1.41,1.41,0,0,0-.34,1v2.15h-.76v-4.17h.73v.62a1.48,1.48,0,0,1,.59-.49,2.08,2.08,0,0,1,.85-.17,1.85,1.85,0,0,1,.86.2,1.41,1.41,0,0,1,.59.57,1.49,1.49,0,0,1,.65-.56A2.11,2.11,0,0,1,397.67,206.24Zm4.74,0a1.83,1.83,0,0,1,1.32.43,1.61,1.61,0,0,1,.47,1.26v2.52h-.72v-.55a1.27,1.27,0,0,1-.54.45,2.09,2.09,0,0,1-.83.15,1.7,1.7,0,0,1-1.12-.34,1.09,1.09,0,0,1-.42-.89,1.07,1.07,0,0,1,.4-.88,1.94,1.94,0,0,1,1.28-.34h1.19v-.15a1,1,0,0,0-.28-.75,1.22,1.22,0,0,0-.84-.26,2.28,2.28,0,0,0-.72.13,1.9,1.9,0,0,0-.6.32l-.31-.56a2.09,2.09,0,0,1,.77-.4A3.26,3.26,0,0,1,402.41,206.24Zm-.17,3.68a1.49,1.49,0,0,0,.75-.19,1.11,1.11,0,0,0,.45-.55v-.59h-1.16c-.64,0-1,.22-1,.65a.61.61,0,0,0,.24.5A1.12,1.12,0,0,0,402.24,209.92Zm5.71-3.68a1.74,1.74,0,0,1,1.26.46,1.83,1.83,0,0,1,.47,1.35v2.4h-.76v-2.31a1.27,1.27,0,0,0-.29-.92,1.1,1.1,0,0,0-.83-.3,1.29,1.29,0,0,0-1,.36,1.38,1.38,0,0,0-.36,1v2.15h-.75v-4.17h.72v.63a1.53,1.53,0,0,1,.62-.5A2.28,2.28,0,0,1,408,206.24Zm7.21-1.63v5.84h-.73v-.66a1.62,1.62,0,0,1-.63.53,2,2,0,0,1-.85.18,2.18,2.18,0,0,1-1.09-.27,2,2,0,0,1-.76-.75,2.5,2.5,0,0,1,0-2.22,2,2,0,0,1,.76-.75,2.18,2.18,0,0,1,1.09-.27,2,2,0,0,1,.82.17,1.61,1.61,0,0,1,.63.5v-2.3ZM413,209.84a1.48,1.48,0,0,0,.72-.18,1.39,1.39,0,0,0,.5-.52,1.65,1.65,0,0,0,.18-.77,1.59,1.59,0,0,0-.18-.77,1.32,1.32,0,0,0-.5-.52,1.55,1.55,0,0,0-1.45,0,1.39,1.39,0,0,0-.5.52,1.59,1.59,0,0,0-.18.77,1.65,1.65,0,0,0,.18.77,1.47,1.47,0,0,0,.5.52A1.49,1.49,0,0,0,413,209.84Zm9.82-3.56v4.17h-.71v-.63a1.61,1.61,0,0,1-.61.51,1.92,1.92,0,0,1-.81.17,1.64,1.64,0,0,1-1.79-1.82v-2.4h.75v2.31a1.32,1.32,0,0,0,.29.92,1.1,1.1,0,0,0,.84.31,1.24,1.24,0,0,0,.94-.36,1.42,1.42,0,0,0,.35-1v-2.16Zm3.79,0a1.74,1.74,0,0,1,1.26.46,1.79,1.79,0,0,1,.48,1.35v2.4h-.76v-2.31a1.32,1.32,0,0,0-.29-.92,1.12,1.12,0,0,0-.84-.3,1.27,1.27,0,0,0-1,.36,1.38,1.38,0,0,0-.36,1v2.15h-.75v-4.17h.72v.63a1.5,1.5,0,0,1,.61-.5A2.31,2.31,0,0,1,426.62,206.24Zm4.45,4.26a3.52,3.52,0,0,1-1-.14,2.13,2.13,0,0,1-.74-.35l.31-.6a2.45,2.45,0,0,0,.67.32,2.77,2.77,0,0,0,.8.12q1,0,1-.57a.35.35,0,0,0-.13-.3.89.89,0,0,0-.34-.16l-.57-.12a5.3,5.3,0,0,1-.83-.18,1.28,1.28,0,0,1-.54-.34,1,1,0,0,1-.23-.69,1,1,0,0,1,.48-.9,2.07,2.07,0,0,1,1.26-.35,3.44,3.44,0,0,1,.84.1,2.24,2.24,0,0,1,.68.28l-.32.6a2.17,2.17,0,0,0-1.21-.33,1.45,1.45,0,0,0-.73.15.5.5,0,0,0-.25.42.4.4,0,0,0,.14.32,1,1,0,0,0,.35.18c.14,0,.34.08.59.12a5.46,5.46,0,0,1,.81.19,1.17,1.17,0,0,1,.54.33,1,1,0,0,1,.22.66,1.08,1.08,0,0,1-.49.91A2.3,2.3,0,0,1,431.07,210.5Zm6.64-2.11a2.11,2.11,0,0,1,0,.23h-3.39a1.38,1.38,0,0,0,.48.89,1.61,1.61,0,0,0,1,.33,1.56,1.56,0,0,0,1.21-.51l.42.49a1.93,1.93,0,0,1-.71.51,2.54,2.54,0,0,1-.94.17,2.46,2.46,0,0,1-1.17-.27,2,2,0,0,1-.8-.76,2.27,2.27,0,0,1-.27-1.1,2.35,2.35,0,0,1,.26-1.1,2,2,0,0,1,.75-.75,2.07,2.07,0,0,1,1.08-.28,2,2,0,0,1,1.06.28,1.84,1.84,0,0,1,.74.75A2.4,2.4,0,0,1,437.71,208.39Zm-2.06-1.51a1.31,1.31,0,0,0-.91.33,1.34,1.34,0,0,0-.43.86H437a1.32,1.32,0,0,0-.43-.85A1.29,1.29,0,0,0,435.65,206.88Zm4,.1a1.29,1.29,0,0,1,.58-.55,2.07,2.07,0,0,1,.94-.19V207H441a1.29,1.29,0,0,0-1,.37,1.47,1.47,0,0,0-.35,1v2.08h-.76v-4.17h.73Zm6.43-.7-1.82,4.17h-.77l-1.83-4.17h.79l1.43,3.34,1.46-3.34Zm4.49,2.11c0,.06,0,.13,0,.23h-3.38a1.3,1.3,0,0,0,.48.89,1.59,1.59,0,0,0,1,.33,1.52,1.52,0,0,0,1.2-.51l.42.49a1.93,1.93,0,0,1-.71.51,2.54,2.54,0,0,1-.94.17,2.46,2.46,0,0,1-1.17-.27,1.93,1.93,0,0,1-.79-.76,2.17,2.17,0,0,1-.28-1.1,2.24,2.24,0,0,1,.27-1.1,1.87,1.87,0,0,1,.75-.75,2,2,0,0,1,1.07-.28,2,2,0,0,1,1.07.28,1.88,1.88,0,0,1,.73.75A2.29,2.29,0,0,1,450.53,208.39Zm-2.07-1.51a1.28,1.28,0,0,0-1.33,1.19h2.67a1.28,1.28,0,0,0-.43-.85A1.25,1.25,0,0,0,448.46,206.88Zm7.17-2.27v5.84h-.72v-.66a1.65,1.65,0,0,1-.64.53,2,2,0,0,1-.85.18,2.16,2.16,0,0,1-1.08-.27,2,2,0,0,1-.76-.75,2.42,2.42,0,0,1,0-2.22,2,2,0,0,1,.76-.75,2.16,2.16,0,0,1,1.08-.27,2.05,2.05,0,0,1,.83.17,1.61,1.61,0,0,1,.63.5v-2.3Zm-2.15,5.23a1.43,1.43,0,0,0,.72-.18,1.32,1.32,0,0,0,.5-.52,1.54,1.54,0,0,0,.19-.77,1.49,1.49,0,0,0-.19-.77,1.25,1.25,0,0,0-.5-.52,1.43,1.43,0,0,0-.72-.18,1.48,1.48,0,0,0-.72.18,1.32,1.32,0,0,0-.5.52,1.59,1.59,0,0,0-.18.77,1.65,1.65,0,0,0,.18.77,1.39,1.39,0,0,0,.5.52A1.48,1.48,0,0,0,453.48,209.84Z" transform="translate(-138.53 -202.09)"/><rect class="cls-2" x="166.28" y="166.76" width="27.55" height="27.55"/><rect class="cls-2" x="184.97" y="218.9" width="17.71" height="28.04"/><path class="cls-5" d="M468.44,543.29V544h-4v-.53l2.24-2.17a2.79,2.79,0,0,0,.55-.67,1.28,1.28,0,0,0,.14-.59.81.81,0,0,0-.3-.67,1.37,1.37,0,0,0-.87-.24,1.72,1.72,0,0,0-1.41.6l-.53-.47a2.13,2.13,0,0,1,.84-.61,2.94,2.94,0,0,1,1.17-.22,2.11,2.11,0,0,1,1.38.42,1.34,1.34,0,0,1,.51,1.11,1.85,1.85,0,0,1-.19.84,3.31,3.31,0,0,1-.71.9l-1.69,1.62Zm2.34-2.63a2.7,2.7,0,0,1,1.73.45,1.44,1.44,0,0,1,.56,1.21,1.75,1.75,0,0,1-.23.88,1.7,1.7,0,0,1-.7.62A2.81,2.81,0,0,1,471,544a3.56,3.56,0,0,1-1.13-.18,2.59,2.59,0,0,1-.9-.49l.37-.63a2,2,0,0,0,.72.44,2.83,2.83,0,0,0,.93.15,1.59,1.59,0,0,0,1-.25.87.87,0,0,0,.34-.73.85.85,0,0,0-.37-.75,2.44,2.44,0,0,0-1.29-.26h-1.26l.3-2.88h3.1v.69h-2.44l-.15,1.51Z" transform="translate(-138.53 -202.09)"/><path d="M251.08,275.78v5.51h-.78v-4.83h-1.25v-.68Z" transform="translate(-138.53 -202.09)"/><path class="cls-5" d="M283.79,327.92v5.51H283v-4.82h-1.24v-.69Z" transform="translate(-138.53 -202.09)"/><path class="cls-5" d="M256.09,328.76a2,2,0,0,1,1.24.5,1.45,1.45,0,0,1,.42,1.07,1.58,1.58,0,0,1-.23.86,1.65,1.65,0,0,1-.71.61,2.61,2.61,0,0,1-1.14.22,3.86,3.86,0,0,1-1.13-.17,2.53,2.53,0,0,1-.89-.5l.36-.62a2.12,2.12,0,0,0,.72.43,2.69,2.69,0,0,0,.94.16,1.53,1.53,0,0,0,1-.26.86.86,0,0,0,.35-.72.83.83,0,0,0-.34-.71,1.78,1.78,0,0,0-1-.25h-.44v-.55l1.38-1.7H253.9v-.68h3.63V327Z" transform="translate(-138.53 -202.09)"/><path class="cls-5" d="M286.79,382.26a2.73,2.73,0,0,1,1.73.45,1.46,1.46,0,0,1,.56,1.21,1.64,1.64,0,0,1-.24.88,1.53,1.53,0,0,1-.7.62,2.77,2.77,0,0,1-1.15.22,3.5,3.5,0,0,1-1.12-.18,2.5,2.5,0,0,1-.9-.49l.36-.62a2.08,2.08,0,0,0,.73.43,2.82,2.82,0,0,0,.92.16,1.55,1.55,0,0,0,1-.26.85.85,0,0,0,.35-.73.8.8,0,0,0-.38-.74,2.3,2.3,0,0,0-1.29-.26h-1.25l.29-2.88h3.11v.68h-2.45l-.15,1.51Z" transform="translate(-138.53 -202.09)"/><path class="cls-5" d="M316.14,437v.69h-4v-.54l2.25-2.16a2.85,2.85,0,0,0,.55-.68,1.37,1.37,0,0,0,.14-.58.79.79,0,0,0-.31-.67,1.35,1.35,0,0,0-.86-.24,1.75,1.75,0,0,0-1.41.59L312,433a2.17,2.17,0,0,1,.84-.61,3,3,0,0,1,1.18-.22,2.09,2.09,0,0,1,1.37.41,1.35,1.35,0,0,1,.52,1.12,2,2,0,0,1-.19.83,3.28,3.28,0,0,1-.72.9L313.32,437Z" transform="translate(-138.53 -202.09)"/><path class="cls-5" d="M354.81,486.52a2.13,2.13,0,0,1,1,.2,1.66,1.66,0,0,1,.66,2.38,1.67,1.67,0,0,1-.7.61,2.25,2.25,0,0,1-1,.21,2.09,2.09,0,0,1-1.71-.71,3.09,3.09,0,0,1-.6-2,3.54,3.54,0,0,1,.32-1.57,2.28,2.28,0,0,1,.91-1,2.68,2.68,0,0,1,1.37-.34,3.1,3.1,0,0,1,.76.09,2.09,2.09,0,0,1,.61.23l-.3.62a1.82,1.82,0,0,0-1.05-.26,1.73,1.73,0,0,0-1.35.53,2.22,2.22,0,0,0-.49,1.54c0,.09,0,.15,0,.2a1.47,1.47,0,0,1,.65-.53A2.18,2.18,0,0,1,354.81,486.52Zm-.09,2.77a1.31,1.31,0,0,0,.88-.29,1,1,0,0,0,.34-.78.93.93,0,0,0-.35-.77,1.31,1.31,0,0,0-.91-.3,1.4,1.4,0,0,0-.66.15,1.12,1.12,0,0,0-.45.38,1,1,0,0,0-.16.54,1,1,0,0,0,.15.54,1.23,1.23,0,0,0,.45.39A1.73,1.73,0,0,0,354.72,489.29Z" transform="translate(-138.53 -202.09)"/><path class="cls-5" d="M404,487.52H403v1.36h-.77v-1.36h-3.06V487l2.82-3.6h.85l-2.7,3.48h2.12v-1.2H403v1.2H404Z" transform="translate(-138.53 -202.09)"/><path class="cls-5" d="M334.34,437v.69h-4v-.54l2.25-2.16a2.85,2.85,0,0,0,.55-.68,1.37,1.37,0,0,0,.14-.58.79.79,0,0,0-.31-.67,1.35,1.35,0,0,0-.86-.24,1.75,1.75,0,0,0-1.41.59l-.54-.46a2.17,2.17,0,0,1,.84-.61,3,3,0,0,1,1.18-.22,2.07,2.07,0,0,1,1.37.41,1.35,1.35,0,0,1,.52,1.12,2,2,0,0,1-.19.83,3.28,3.28,0,0,1-.72.9L331.52,437Z" transform="translate(-138.53 -202.09)"/><path class="cls-5" d="M319.06,382.38a2,2,0,0,1,1.24.5,1.45,1.45,0,0,1,.42,1.07,1.59,1.59,0,0,1-.24.86,1.62,1.62,0,0,1-.7.61,2.77,2.77,0,0,1-1.15.22,3.56,3.56,0,0,1-1.13-.18,2.45,2.45,0,0,1-.89-.49l.36-.62a2.08,2.08,0,0,0,.73.43,2.84,2.84,0,0,0,.93.16,1.59,1.59,0,0,0,1-.26.85.85,0,0,0,.34-.72.83.83,0,0,0-.34-.71,1.67,1.67,0,0,0-1-.25h-.44v-.55l1.39-1.7h-2.66v-.68h3.64v.53Z" transform="translate(-138.53 -202.09)"/><path class="cls-5" d="M419.62,538.4a2.1,2.1,0,0,1,1.71.72,3.05,3.05,0,0,1,.6,2,3.44,3.44,0,0,1-.33,1.57,2.22,2.22,0,0,1-.91,1,2.62,2.62,0,0,1-1.36.34,3.69,3.69,0,0,1-.76-.08,2.11,2.11,0,0,1-.61-.25l.3-.61a1.93,1.93,0,0,0,1.06.26,1.73,1.73,0,0,0,1.34-.53,2.25,2.25,0,0,0,.49-1.55v-.2a1.55,1.55,0,0,1-.66.55,2.34,2.34,0,0,1-.93.18,2.21,2.21,0,0,1-1-.21,1.58,1.58,0,0,1-.67-.58,1.64,1.64,0,0,1-.24-.88,1.62,1.62,0,0,1,.26-.91,1.6,1.6,0,0,1,.7-.61A2.12,2.12,0,0,1,419.62,538.4Zm.07,2.77a1.53,1.53,0,0,0,.66-.14,1.08,1.08,0,0,0,.45-.39.93.93,0,0,0,.16-.54,1,1,0,0,0-.15-.53,1,1,0,0,0-.45-.38,1.55,1.55,0,0,0-.71-.15,1.26,1.26,0,0,0-.88.29,1.08,1.08,0,0,0,0,1.56A1.36,1.36,0,0,0,419.69,541.17Z" transform="translate(-138.53 -202.09)"/><path class="cls-5" d="M306.89,538.46V544h-.78v-4.82h-1.24v-.69Zm3.71,2.17a2.26,2.26,0,0,1,1,.2,1.64,1.64,0,0,1,.68.59,1.61,1.61,0,0,1,.24.88,1.57,1.57,0,0,1-.26.91,1.61,1.61,0,0,1-.7.61,2.25,2.25,0,0,1-1,.22,2.1,2.1,0,0,1-1.71-.72,3.09,3.09,0,0,1-.6-2,3.54,3.54,0,0,1,.32-1.57,2.34,2.34,0,0,1,.91-1,2.68,2.68,0,0,1,1.37-.34,3.1,3.1,0,0,1,.76.09,2,2,0,0,1,.61.23l-.3.62a1.82,1.82,0,0,0-1.05-.26,1.77,1.77,0,0,0-1.35.53,2.22,2.22,0,0,0-.48,1.54v.2a1.54,1.54,0,0,1,.65-.53A2.19,2.19,0,0,1,310.6,540.63Zm-.1,2.77a1.31,1.31,0,0,0,.88-.29,1,1,0,0,0,.34-.78.91.91,0,0,0-.35-.77,1.3,1.3,0,0,0-.91-.3,1.45,1.45,0,0,0-.66.15,1.12,1.12,0,0,0-.45.38,1.07,1.07,0,0,0-.16.55,1,1,0,0,0,.15.53,1.23,1.23,0,0,0,.45.39A1.73,1.73,0,0,0,310.5,543.4Z" transform="translate(-138.53 -202.09)"/><path class="cls-5" d="M140.46,533.24h-1.89v-.68h4.55v.68h-1.88v4.83h-.78Zm4.89,4.88a2.32,2.32,0,0,1-1.12-.28,2,2,0,0,1-.78-.75,2.28,2.28,0,0,1-.27-1.11,2.18,2.18,0,0,1,.27-1.09,2,2,0,0,1,.78-.76,2.32,2.32,0,0,1,1.12-.27,2.23,2.23,0,0,1,1.11.27,1.88,1.88,0,0,1,.77.76,2.09,2.09,0,0,1,.29,1.09,2.19,2.19,0,0,1-.29,1.11,1.92,1.92,0,0,1-.77.75A2.23,2.23,0,0,1,145.35,538.12Zm0-.66a1.34,1.34,0,0,0,.72-.19,1.29,1.29,0,0,0,.5-.51,1.66,1.66,0,0,0,.18-.78,1.55,1.55,0,0,0-.18-.76,1.26,1.26,0,0,0-.5-.52,1.53,1.53,0,0,0-1.44,0,1.34,1.34,0,0,0-.51.52,1.55,1.55,0,0,0-.18.76,1.66,1.66,0,0,0,.18.78,1.39,1.39,0,0,0,.51.51A1.34,1.34,0,0,0,145.35,537.46Zm5.68.37a1.45,1.45,0,0,1-.41.22,2.08,2.08,0,0,1-.5.07,1.37,1.37,0,0,1-1-.34,1.31,1.31,0,0,1-.35-1v-2.29h-.7v-.62h.7V533h.76v.92h1.2v.62h-1.2v2.26a.75.75,0,0,0,.16.52.66.66,0,0,0,.49.18.92.92,0,0,0,.59-.2Zm2.55-4a1.91,1.91,0,0,1,1.33.42,1.65,1.65,0,0,1,.46,1.27v2.52h-.72v-.55a1.21,1.21,0,0,1-.54.45,2,2,0,0,1-.82.15,1.79,1.79,0,0,1-1.13-.34,1.16,1.16,0,0,1,0-1.77,2,2,0,0,1,1.28-.34h1.2v-.15a1,1,0,0,0-.29-.75,1.2,1.2,0,0,0-.83-.26,2,2,0,0,0-.73.13,1.76,1.76,0,0,0-.59.32l-.32-.57a2.33,2.33,0,0,1,.77-.39A3.31,3.31,0,0,1,153.58,533.86Zm-.17,3.67a1.49,1.49,0,0,0,.75-.18,1.21,1.21,0,0,0,.46-.56v-.58h-1.17c-.64,0-1,.22-1,.65a.58.58,0,0,0,.24.49A1.14,1.14,0,0,0,153.41,537.53Zm3.48-5.3h.76v5.84h-.76Zm8.55,1.67v3.6a2.17,2.17,0,0,1-.54,1.62,2.24,2.24,0,0,1-1.62.52,3.81,3.81,0,0,1-1.13-.16,2.2,2.2,0,0,1-.86-.46l.36-.58a2,2,0,0,0,.71.39,2.73,2.73,0,0,0,.89.15,1.47,1.47,0,0,0,1.08-.34,1.42,1.42,0,0,0,.36-1.06v-.33a1.64,1.64,0,0,1-.67.49,2.24,2.24,0,0,1-.84.16,2.27,2.27,0,0,1-1.08-.26,1.93,1.93,0,0,1-.76-.71,2.07,2.07,0,0,1-.28-1.06,2,2,0,0,1,.28-1,1.88,1.88,0,0,1,.76-.72,2.26,2.26,0,0,1,1.08-.25,2.3,2.3,0,0,1,.88.17,1.68,1.68,0,0,1,.66.51v-.64Zm-2.17,3.34a1.46,1.46,0,0,0,.73-.18,1.18,1.18,0,0,0,.51-.48,1.3,1.3,0,0,0,.19-.71,1.24,1.24,0,0,0-.4-1,1.6,1.6,0,0,0-2.07,0,1.24,1.24,0,0,0-.4,1,1.39,1.39,0,0,0,.18.71,1.3,1.3,0,0,0,.51.48A1.54,1.54,0,0,0,163.27,537.24Zm5.26-3.38a1.9,1.9,0,0,1,1.32.42,1.65,1.65,0,0,1,.46,1.27v2.52h-.71v-.55a1.3,1.3,0,0,1-.55.45,2,2,0,0,1-.82.15,1.81,1.81,0,0,1-1.13-.34,1.09,1.09,0,0,1-.42-.89,1.08,1.08,0,0,1,.41-.88,1.91,1.91,0,0,1,1.27-.34h1.2v-.15a1,1,0,0,0-.29-.75,1.18,1.18,0,0,0-.83-.26,2,2,0,0,0-.72.13,1.71,1.71,0,0,0-.6.32l-.32-.57a2.43,2.43,0,0,1,.77-.39A3.32,3.32,0,0,1,168.53,533.86Zm-.18,3.67a1.49,1.49,0,0,0,.75-.18,1.21,1.21,0,0,0,.46-.56v-.58h-1.17c-.64,0-1,.22-1,.65a.56.56,0,0,0,.25.49A1.09,1.09,0,0,0,168.35,537.53Zm4.68.59a3.52,3.52,0,0,1-1-.14,2.13,2.13,0,0,1-.74-.35l.31-.6a2.45,2.45,0,0,0,.67.32,3.09,3.09,0,0,0,.8.11c.66,0,1-.19,1-.56a.36.36,0,0,0-.14-.3.73.73,0,0,0-.33-.16,4.9,4.9,0,0,0-.57-.12,5.3,5.3,0,0,1-.83-.18,1.21,1.21,0,0,1-.54-.35,1,1,0,0,1-.23-.68,1.08,1.08,0,0,1,.47-.91,2.12,2.12,0,0,1,1.27-.34,3.31,3.31,0,0,1,.83.1,2.21,2.21,0,0,1,.69.28l-.32.59a2.19,2.19,0,0,0-1.21-.33,1.44,1.44,0,0,0-.73.16.48.48,0,0,0-.25.42.42.42,0,0,0,.14.32.77.77,0,0,0,.35.17l.59.13a6.15,6.15,0,0,1,.81.19,1.09,1.09,0,0,1,.53.33.92.92,0,0,1,.22.66,1.07,1.07,0,0,1-.48.91A2.3,2.3,0,0,1,173,538.12Zm9-5.89v5.84h-.72v-.66a1.65,1.65,0,0,1-.64.53,2,2,0,0,1-.85.18,2.2,2.2,0,0,1-1.09-.27,1.93,1.93,0,0,1-.75-.75,2.26,2.26,0,0,1-.27-1.12,2.23,2.23,0,0,1,.27-1.11,1.84,1.84,0,0,1,.75-.74,2.2,2.2,0,0,1,1.09-.27,2.05,2.05,0,0,1,.83.17,1.61,1.61,0,0,1,.63.5v-2.3Zm-2.15,5.23a1.36,1.36,0,0,0,.72-.19,1.23,1.23,0,0,0,.5-.51,1.66,1.66,0,0,0,.18-.78,1.55,1.55,0,0,0-.18-.76,1.2,1.2,0,0,0-.5-.52,1.53,1.53,0,0,0-1.44,0,1.26,1.26,0,0,0-.5.52,1.56,1.56,0,0,0-.19.76,1.67,1.67,0,0,0,.19.78,1.29,1.29,0,0,0,.5.51A1.36,1.36,0,0,0,179.92,537.46ZM187.4,536s0,.13,0,.23H184a1.26,1.26,0,0,0,.48.88,1.69,1.69,0,0,0,2.23-.17l.42.49a1.8,1.8,0,0,1-.71.5,2.35,2.35,0,0,1-.94.18,2.46,2.46,0,0,1-1.17-.27,2,2,0,0,1-.8-.76,2.28,2.28,0,0,1-.27-1.11,2.2,2.2,0,0,1,.27-1.09,1.93,1.93,0,0,1,.74-.76,2.16,2.16,0,0,1,1.08-.27,2.1,2.1,0,0,1,1.07.27,1.91,1.91,0,0,1,.73.76A2.26,2.26,0,0,1,187.4,536Zm-2.07-1.51a1.28,1.28,0,0,0-1.33,1.19h2.67a1.34,1.34,0,0,0-.43-.86A1.29,1.29,0,0,0,185.33,534.5Zm8.46-.64a1.67,1.67,0,0,1,1.24.46,1.8,1.8,0,0,1,.46,1.35v2.4h-.75v-2.31a1.32,1.32,0,0,0-.29-.92,1,1,0,0,0-.79-.3,1.18,1.18,0,0,0-.91.36,1.38,1.38,0,0,0-.34,1v2.15h-.76v-2.31a1.32,1.32,0,0,0-.28-.92,1,1,0,0,0-.8-.3,1.2,1.2,0,0,0-.91.36,1.42,1.42,0,0,0-.34,1v2.15h-.75V533.9h.72v.62a1.38,1.38,0,0,1,.6-.49,2.07,2.07,0,0,1,.84-.17,1.75,1.75,0,0,1,.87.2,1.39,1.39,0,0,1,.58.57,1.71,1.71,0,0,1,.65-.57A2.29,2.29,0,0,1,193.79,533.86Zm4.74,0a1.9,1.9,0,0,1,1.32.42,1.65,1.65,0,0,1,.46,1.27v2.52h-.71v-.55a1.3,1.3,0,0,1-.55.45,2,2,0,0,1-.82.15,1.79,1.79,0,0,1-1.13-.34,1.09,1.09,0,0,1-.42-.89,1.08,1.08,0,0,1,.41-.88,1.91,1.91,0,0,1,1.27-.34h1.2v-.15a1,1,0,0,0-.29-.75,1.2,1.2,0,0,0-.83-.26,2,2,0,0,0-.72.13,1.71,1.71,0,0,0-.6.32l-.32-.57a2.33,2.33,0,0,1,.77-.39A3.32,3.32,0,0,1,198.53,533.86Zm-.18,3.67a1.49,1.49,0,0,0,.75-.18,1.21,1.21,0,0,0,.46-.56v-.58h-1.17c-.64,0-1,.22-1,.65a.56.56,0,0,0,.25.49A1.09,1.09,0,0,0,198.35,537.53Zm5.71-3.67a1.7,1.7,0,0,1,1.26.46,1.79,1.79,0,0,1,.47,1.35v2.4H205v-2.31a1.32,1.32,0,0,0-.29-.92,1.14,1.14,0,0,0-.84-.3,1.31,1.31,0,0,0-1,.36,1.39,1.39,0,0,0-.35,1v2.15h-.76V533.9h.73v.63a1.44,1.44,0,0,1,.61-.5A2.28,2.28,0,0,1,204.06,533.86Zm7.21-1.63v5.84h-.72v-.66a1.65,1.65,0,0,1-.64.53,2,2,0,0,1-.85.18,2.2,2.2,0,0,1-1.09-.27,1.93,1.93,0,0,1-.75-.75A2.26,2.26,0,0,1,207,536a2.23,2.23,0,0,1,.27-1.11,1.84,1.84,0,0,1,.75-.74,2.2,2.2,0,0,1,1.09-.27,2.05,2.05,0,0,1,.83.17,1.61,1.61,0,0,1,.63.5v-2.3Zm-2.15,5.23a1.36,1.36,0,0,0,.72-.19,1.23,1.23,0,0,0,.5-.51,1.66,1.66,0,0,0,.18-.78,1.55,1.55,0,0,0-.18-.76,1.2,1.2,0,0,0-.5-.52,1.45,1.45,0,0,0-.72-.18,1.48,1.48,0,0,0-.72.18,1.26,1.26,0,0,0-.5.52,1.56,1.56,0,0,0-.19.76,1.67,1.67,0,0,0,.19.78,1.29,1.29,0,0,0,.5.51A1.39,1.39,0,0,0,209.12,537.46Zm-68.35,7.22a1.83,1.83,0,0,1,1.32.43,1.61,1.61,0,0,1,.47,1.26v2.52h-.72v-.55a1.21,1.21,0,0,1-.54.45,2.09,2.09,0,0,1-.83.15,1.72,1.72,0,0,1-1.12-.34,1.09,1.09,0,0,1-.42-.89,1.07,1.07,0,0,1,.4-.88,1.94,1.94,0,0,1,1.28-.34h1.19v-.15a1,1,0,0,0-.28-.75,1.22,1.22,0,0,0-.84-.26,2.28,2.28,0,0,0-.72.13,2,2,0,0,0-.6.32l-.31-.56a2.09,2.09,0,0,1,.77-.4A3.31,3.31,0,0,1,140.77,544.68Zm-.17,3.68a1.49,1.49,0,0,0,.75-.19,1.11,1.11,0,0,0,.45-.55V547h-1.16c-.64,0-1,.22-1,.65a.61.61,0,0,0,.24.5A1.12,1.12,0,0,0,140.6,548.36Zm4.68.58a4,4,0,0,1-1-.13,2.43,2.43,0,0,1-.74-.36l.32-.6a2.2,2.2,0,0,0,.67.32,2.66,2.66,0,0,0,.79.12q1,0,1-.57a.35.35,0,0,0-.13-.3.83.83,0,0,0-.34-.16l-.57-.12a5.15,5.15,0,0,1-.82-.18,1.37,1.37,0,0,1-.55-.34,1,1,0,0,1-.22-.69,1,1,0,0,1,.47-.9,2.1,2.1,0,0,1,1.27-.35,3.42,3.42,0,0,1,.83.1,2,2,0,0,1,.68.28l-.32.6a2.16,2.16,0,0,0-1.2-.33,1.42,1.42,0,0,0-.73.15.49.49,0,0,0-.26.42.38.38,0,0,0,.15.32.92.92,0,0,0,.34.18c.14,0,.34.08.59.12a5.46,5.46,0,0,1,.81.19,1.17,1.17,0,0,1,.54.33,1,1,0,0,1,.22.66,1.05,1.05,0,0,1-.49.91A2.29,2.29,0,0,1,145.28,548.94Zm6.89,0a2.19,2.19,0,0,1-1.12-.28,2,2,0,0,1-.78-.75,2.24,2.24,0,0,1-.27-1.1,2.21,2.21,0,0,1,.27-1.1,1.94,1.94,0,0,1,.78-.75,2.36,2.36,0,0,1,2.23,0,1.86,1.86,0,0,1,.77.75,2.12,2.12,0,0,1,.28,1.1,2.14,2.14,0,0,1-.28,1.1,1.92,1.92,0,0,1-.77.75A2.18,2.18,0,0,1,152.17,548.94Zm0-.66a1.43,1.43,0,0,0,.72-.18,1.39,1.39,0,0,0,.5-.52,1.65,1.65,0,0,0,.18-.77,1.59,1.59,0,0,0-.18-.77,1.32,1.32,0,0,0-.5-.52,1.43,1.43,0,0,0-.72-.18,1.49,1.49,0,0,0-.73.18,1.39,1.39,0,0,0-.5.52,1.59,1.59,0,0,0-.18.77,1.65,1.65,0,0,0,.18.77,1.47,1.47,0,0,0,.5.52A1.49,1.49,0,0,0,152.17,548.28Zm4.86-4.65c-.45,0-.68.24-.68.73v.36h1.21v.62h-1.19v3.55h-.76v-3.55h-.71v-.62h.71v-.37a1.33,1.33,0,0,1,.36-1,1.35,1.35,0,0,1,1-.37,1.78,1.78,0,0,1,.47.07,1.11,1.11,0,0,1,.38.18l-.23.57A.94.94,0,0,0,157,543.63Zm4.5.44V546h2.77v.67h-2.77v2.23h-.78v-5.51h3.88v.69Zm7.86,2.76a2.11,2.11,0,0,1,0,.23H166a1.36,1.36,0,0,0,.48.89,1.64,1.64,0,0,0,1,.33,1.55,1.55,0,0,0,1.2-.51l.42.49a1.93,1.93,0,0,1-.71.51,2.54,2.54,0,0,1-.94.17,2.46,2.46,0,0,1-1.17-.27,2,2,0,0,1-.8-.76,2.38,2.38,0,0,1,0-2.2,1.91,1.91,0,0,1,.74-.75,2.07,2.07,0,0,1,1.08-.28,2,2,0,0,1,1.06.28,1.84,1.84,0,0,1,.74.75A2.4,2.4,0,0,1,169.39,546.83Zm-2.06-1.51a1.32,1.32,0,0,0-.91.33,1.39,1.39,0,0,0-.43.86h2.68a1.32,1.32,0,0,0-.43-.85A1.27,1.27,0,0,0,167.33,545.32Zm5.45-.64a2.16,2.16,0,0,1,1.08.27,1.93,1.93,0,0,1,.75.75,2.34,2.34,0,0,1,0,2.22,1.93,1.93,0,0,1-.75.75,2.16,2.16,0,0,1-1.08.27,2,2,0,0,1-.85-.18,1.65,1.65,0,0,1-.64-.53v.66h-.72v-5.84h.75v2.3a1.61,1.61,0,0,1,.63-.5A2.05,2.05,0,0,1,172.78,544.68Zm-.07,3.6a1.43,1.43,0,0,0,.72-.18,1.32,1.32,0,0,0,.5-.52,1.54,1.54,0,0,0,.19-.77,1.49,1.49,0,0,0-.19-.77,1.25,1.25,0,0,0-.5-.52,1.51,1.51,0,0,0-1.43,0,1.34,1.34,0,0,0-.51.52,1.59,1.59,0,0,0-.18.77,1.65,1.65,0,0,0,.18.77,1.35,1.35,0,0,0,1.22.7Zm6.95-4.9v5.51h-.78v-4.82h-1.24v-.69Zm2.9,2.2a2.7,2.7,0,0,1,1.73.45,1.42,1.42,0,0,1,.56,1.21,1.75,1.75,0,0,1-.23.88,1.62,1.62,0,0,1-.7.61,2.65,2.65,0,0,1-1.15.22,3.56,3.56,0,0,1-1.13-.17,2.59,2.59,0,0,1-.9-.49l.37-.63a2.14,2.14,0,0,0,.72.44,2.83,2.83,0,0,0,.93.15,1.52,1.52,0,0,0,1-.26.92.92,0,0,0,0-1.47,2.39,2.39,0,0,0-1.29-.26h-1.25l.29-2.88h3.11v.69H182.1l-.15,1.51Z" transform="translate(-138.53 -202.09)"/><path d="M144.2,275.38v-3.3l-1.63,2.72H142l-1.61-2.65v3.23h-1.2v-5.5h1.05l2.07,3.42,2-3.42h1l0,5.5Zm2.54-4.23H148v4.23h-1.23Zm.62-.59a.77.77,0,0,1-.55-.2.64.64,0,0,1,0-1,.77.77,0,0,1,.55-.2.78.78,0,0,1,.55.19.61.61,0,0,1,.21.47.66.66,0,0,1-.21.51A.79.79,0,0,1,147.36,270.56Zm4.45.53a1.7,1.7,0,0,1,1.26.47,1.84,1.84,0,0,1,.49,1.4v2.42h-1.23v-2.23a1.07,1.07,0,0,0-.22-.75.78.78,0,0,0-.63-.25,1,1,0,0,0-.74.29,1.15,1.15,0,0,0-.28.85v2.09h-1.23v-4.23h1.18v.5a1.5,1.5,0,0,1,.6-.41A2.07,2.07,0,0,1,151.81,271.09Zm3,.06H156v4.23H154.8Zm.61-.59a.79.79,0,0,1-.55-.2.67.67,0,0,1,0-1,.79.79,0,0,1,.55-.2.77.77,0,0,1,.55.19.62.62,0,0,1,.22.47.67.67,0,0,1-.22.51A.77.77,0,0,1,155.41,270.56Zm7.3.53a1.67,1.67,0,0,1,1.26.47,1.87,1.87,0,0,1,.47,1.4v2.42h-1.22v-2.23a1.12,1.12,0,0,0-.22-.75.7.7,0,0,0-.59-.25.85.85,0,0,0-.68.28,1.19,1.19,0,0,0-.25.83v2.12h-1.23v-2.23c0-.67-.27-1-.8-1a.85.85,0,0,0-.68.28,1.19,1.19,0,0,0-.25.83v2.12h-1.23v-4.23h1.17v.49a1.5,1.5,0,0,1,.58-.41,1.86,1.86,0,0,1,.75-.14,1.79,1.79,0,0,1,.81.18,1.3,1.3,0,0,1,.58.51,1.84,1.84,0,0,1,.66-.51A2.12,2.12,0,0,1,162.71,271.09Zm7.22.06v4.23h-1.16v-.5a1.87,1.87,0,0,1-.58.43,2,2,0,0,1-.74.14,1.82,1.82,0,0,1-1.32-.48,2,2,0,0,1-.49-1.43v-2.39h1.23v2.21c0,.68.29,1,.86,1a.94.94,0,0,0,.71-.29,1.21,1.21,0,0,0,.26-.86v-2.09Zm6.69-.06a1.67,1.67,0,0,1,1.26.47,1.91,1.91,0,0,1,.47,1.4v2.42h-1.23v-2.23a1.12,1.12,0,0,0-.21-.75.72.72,0,0,0-.59-.25.88.88,0,0,0-.69.28,1.19,1.19,0,0,0-.25.83v2.12h-1.23v-2.23c0-.67-.27-1-.8-1a.87.87,0,0,0-.68.28,1.19,1.19,0,0,0-.25.83v2.12h-1.23v-4.23h1.18v.49a1.39,1.39,0,0,1,.57-.41,1.87,1.87,0,0,1,.76-.14,1.82,1.82,0,0,1,.81.18,1.36,1.36,0,0,1,.58.51,1.72,1.72,0,0,1,.65-.51A2.13,2.13,0,0,1,176.62,271.09Zm5.39-1.21h1.27v4.47h2.77v1h-4Zm9.93,0v5.5h-1.05L188.14,272v3.34h-1.26v-5.5h1.06l2.74,3.34v-3.34Zm5.14,2.66h1.17v2.24a3.5,3.5,0,0,1-1,.52,4,4,0,0,1-1.19.18,3.27,3.27,0,0,1-1.54-.36,2.71,2.71,0,0,1-1.46-2.49,2.74,2.74,0,0,1,.38-1.46,2.68,2.68,0,0,1,1.09-1,3.21,3.21,0,0,1,1.56-.37,3.43,3.43,0,0,1,1.31.24,2.73,2.73,0,0,1,1,.71l-.82.76a1.85,1.85,0,0,0-1.42-.62,2,2,0,0,0-.94.22,1.59,1.59,0,0,0-.64.62,1.84,1.84,0,0,0-.22.92,1.8,1.8,0,0,0,.22.91,1.73,1.73,0,0,0,.63.63,1.93,1.93,0,0,0,.93.22,2.13,2.13,0,0,0,1-.23Zm6.45-1.45a2.15,2.15,0,0,1,1.51.47,1.79,1.79,0,0,1,.53,1.41v2.41h-1.15v-.52a1.37,1.37,0,0,1-1.29.59,2,2,0,0,1-.85-.17,1.21,1.21,0,0,1-.54-.45,1.19,1.19,0,0,1-.19-.67,1.07,1.07,0,0,1,.44-.92,2.26,2.26,0,0,1,1.38-.34h1a.8.8,0,0,0-.24-.62,1.12,1.12,0,0,0-.73-.22,2.19,2.19,0,0,0-.67.11,1.69,1.69,0,0,0-.55.29l-.45-.86a2.88,2.88,0,0,1,.83-.38A3.76,3.76,0,0,1,203.53,271.09Zm-.09,3.53a1.1,1.1,0,0,0,.55-.14.79.79,0,0,0,.35-.43v-.44h-.84c-.5,0-.76.17-.76.5a.46.46,0,0,0,.18.38A.89.89,0,0,0,203.44,274.62Zm5.94-3.53a1.7,1.7,0,0,1,1.26.47,1.84,1.84,0,0,1,.49,1.4v2.42H209.9v-2.23a1.07,1.07,0,0,0-.22-.75.78.78,0,0,0-.63-.25,1,1,0,0,0-.74.29,1.15,1.15,0,0,0-.28.85v2.09H206.8v-4.23H208v.5a1.5,1.5,0,0,1,.6-.41A2.07,2.07,0,0,1,209.38,271.09Zm7.35-1.55v5.84h-1.18v-.48a1.63,1.63,0,0,1-1.32.55,2.16,2.16,0,0,1-1.08-.27,1.92,1.92,0,0,1-.76-.76,2.38,2.38,0,0,1-.27-1.15,2.35,2.35,0,0,1,.27-1.15,1.94,1.94,0,0,1,.76-.77,2.27,2.27,0,0,1,1.08-.26,1.61,1.61,0,0,1,1.27.51v-2.06Zm-2.29,4.9a1.06,1.06,0,0,0,.78-.31,1.23,1.23,0,0,0,.3-.86,1.18,1.18,0,0,0-.3-.85,1,1,0,0,0-.78-.33,1,1,0,0,0-.77.33,1.14,1.14,0,0,0-.31.85,1.2,1.2,0,0,0,.31.86A1,1,0,0,0,214.44,274.44Zm-73.32,11.83a2.54,2.54,0,0,1-1.21-.28,2,2,0,0,1-.82-.77,2.17,2.17,0,0,1-.3-1.13,2.15,2.15,0,0,1,.3-1.13,2.1,2.1,0,0,1,.82-.77,2.54,2.54,0,0,1,1.21-.28,2.46,2.46,0,0,1,1.19.28,2.06,2.06,0,0,1,.83.77,2.15,2.15,0,0,1,.3,1.13,2.17,2.17,0,0,1-.3,1.13,2,2,0,0,1-.83.77A2.46,2.46,0,0,1,141.12,286.27Zm0-1a1,1,0,0,0,.77-.31,1.22,1.22,0,0,0,.31-.86,1.18,1.18,0,0,0-.31-.85,1.1,1.1,0,0,0-1.55,0,1.14,1.14,0,0,0-.31.85,1.18,1.18,0,0,0,.31.86A1,1,0,0,0,141.12,285.26Zm6,.74a1.38,1.38,0,0,1-.44.21,2.53,2.53,0,0,1-.56.06,1.65,1.65,0,0,1-1.17-.39,1.47,1.47,0,0,1-.41-1.13V283h-.65v-.94h.65v-1h1.23v1h1.06V283h-1.06v1.73a.65.65,0,0,0,.13.41.53.53,0,0,0,.4.14.79.79,0,0,0,.49-.15Zm3.39-4.09a1.75,1.75,0,0,1,1.27.47,1.89,1.89,0,0,1,.49,1.4v2.43H151V284a1.16,1.16,0,0,0-.22-.75.83.83,0,0,0-.64-.25,1,1,0,0,0-.74.29,1.21,1.21,0,0,0-.28.85v2.1h-1.22v-5.84h1.22v2a1.79,1.79,0,0,1,.59-.37A2.13,2.13,0,0,1,150.5,281.91Zm7.19,2.2s0,.12,0,.33h-3.2a1,1,0,0,0,.41.62,1.35,1.35,0,0,0,.8.23,1.67,1.67,0,0,0,.58-.1,1.37,1.37,0,0,0,.48-.31l.66.71a2.22,2.22,0,0,1-1.75.68,2.73,2.73,0,0,1-1.27-.28,2,2,0,0,1-.85-.77,2.17,2.17,0,0,1-.3-1.13,2.22,2.22,0,0,1,.29-1.12,2.17,2.17,0,0,1,.81-.78,2.4,2.4,0,0,1,1.16-.28,2.36,2.36,0,0,1,1.13.27,1.87,1.87,0,0,1,.78.77A2.18,2.18,0,0,1,157.69,284.11Zm-2.2-1.27a1.09,1.09,0,0,0-.7.23,1,1,0,0,0-.35.65h2.09a1,1,0,0,0-.35-.64A1,1,0,0,0,155.49,282.84Zm4.31-.31a1.36,1.36,0,0,1,.59-.46,2.13,2.13,0,0,1,.86-.16V283H161a1.13,1.13,0,0,0-.83.3,1.16,1.16,0,0,0-.3.88v2h-1.22V282h1.17Zm6.12,3.74a4,4,0,0,1-1-.13,2.88,2.88,0,0,1-.8-.33l.41-.88a2.76,2.76,0,0,0,.69.3,3.06,3.06,0,0,0,.78.11c.52,0,.78-.13.78-.38a.26.26,0,0,0-.21-.26,2.82,2.82,0,0,0-.65-.14,5.52,5.52,0,0,1-.86-.18,1.39,1.39,0,0,1-.59-.36,1,1,0,0,1-.25-.74,1.18,1.18,0,0,1,.23-.71,1.54,1.54,0,0,1,.68-.49,3,3,0,0,1,1-.17,3.8,3.8,0,0,1,.89.1,2.2,2.2,0,0,1,.74.27l-.41.87a2.43,2.43,0,0,0-1.22-.31,1.29,1.29,0,0,0-.59.11.32.32,0,0,0-.19.28.29.29,0,0,0,.21.28,4.28,4.28,0,0,0,.68.15,5.49,5.49,0,0,1,.85.19,1.22,1.22,0,0,1,.57.35,1,1,0,0,1,.24.72,1.07,1.07,0,0,1-.23.7,1.48,1.48,0,0,1-.69.48A3.12,3.12,0,0,1,165.92,286.27Zm5.61-.27a1.34,1.34,0,0,1-.45.21,2.51,2.51,0,0,1-.55.06,1.66,1.66,0,0,1-1.18-.39,1.47,1.47,0,0,1-.41-1.13V283h-.65v-.94h.65v-1h1.23v1h1.06V283h-1.06v1.73a.6.6,0,0,0,.14.41.49.49,0,0,0,.39.14.84.84,0,0,0,.5-.15Zm2.52-4.09a2.22,2.22,0,0,1,1.51.47,1.78,1.78,0,0,1,.52,1.41v2.42h-1.14v-.53a1.4,1.4,0,0,1-1.3.59,2.08,2.08,0,0,1-.85-.17,1.34,1.34,0,0,1-.54-.45,1.27,1.27,0,0,1-.19-.66,1.1,1.1,0,0,1,.44-.93,2.26,2.26,0,0,1,1.38-.34h1a.74.74,0,0,0-.25-.61,1,1,0,0,0-.73-.22,2,2,0,0,0-.67.11,1.59,1.59,0,0,0-.55.28l-.44-.86a2.76,2.76,0,0,1,.83-.38A3.71,3.71,0,0,1,174.05,281.91Zm-.1,3.53a1,1,0,0,0,.56-.14.83.83,0,0,0,.35-.43v-.43H174c-.5,0-.75.16-.75.49a.45.45,0,0,0,.18.38A.88.88,0,0,0,174,285.44Zm6.1.56a1.34,1.34,0,0,1-.45.21,2.44,2.44,0,0,1-.55.06,1.65,1.65,0,0,1-1.17-.39,1.44,1.44,0,0,1-.41-1.13V283h-.65v-.94h.65v-1h1.23v1h1.05V283H178.7v1.73a.59.59,0,0,0,.13.41.51.51,0,0,0,.39.14.82.82,0,0,0,.5-.15Zm4.83-1.89s0,.12,0,.33h-3.21a1,1,0,0,0,.41.62,1.37,1.37,0,0,0,.8.23,1.78,1.78,0,0,0,.59-.1,1.57,1.57,0,0,0,.48-.31l.65.71a2.22,2.22,0,0,1-1.75.68,2.69,2.69,0,0,1-1.26-.28,2,2,0,0,1-.85-.77,2.17,2.17,0,0,1-.3-1.13,2.13,2.13,0,0,1,.29-1.12,2.17,2.17,0,0,1,.81-.78,2.34,2.34,0,0,1,1.16-.28,2.32,2.32,0,0,1,1.12.27,1.89,1.89,0,0,1,.79.77A2.27,2.27,0,0,1,184.88,284.11Zm-2.2-1.27a1.11,1.11,0,0,0-.7.23,1,1,0,0,0-.34.65h2.08a1,1,0,0,0-.34-.64A1,1,0,0,0,182.68,282.84Zm9.64,1.27s0,.12,0,.33h-3.21a1,1,0,0,0,.41.62,1.37,1.37,0,0,0,.8.23,1.73,1.73,0,0,0,.59-.1,1.57,1.57,0,0,0,.48-.31l.65.71a2.22,2.22,0,0,1-1.75.68A2.69,2.69,0,0,1,189,286a2,2,0,0,1-.85-.77,2.17,2.17,0,0,1-.3-1.13,2.13,2.13,0,0,1,.29-1.12,2.17,2.17,0,0,1,.81-.78,2.37,2.37,0,0,1,1.16-.28,2.32,2.32,0,0,1,1.12.27,1.89,1.89,0,0,1,.79.77A2.27,2.27,0,0,1,192.32,284.11Zm-2.2-1.27a1.11,1.11,0,0,0-.7.23,1,1,0,0,0-.34.65h2.08a1,1,0,0,0-.34-.64A1,1,0,0,0,190.12,282.84Zm5.72,3.37-.93-1.3-1,1.3h-1.34l1.63-2.14-1.58-2.1H194l.9,1.24.92-1.24h1.31L195.59,284l1.64,2.17Zm4.61-4.3a2.13,2.13,0,0,1,1.07.27,2,2,0,0,1,.77.77,2.29,2.29,0,0,1,.27,1.14,2.35,2.35,0,0,1-.27,1.15,2,2,0,0,1-.77.76,2.13,2.13,0,0,1-1.07.27,1.63,1.63,0,0,1-1.27-.51v2H198V282h1.17v.49A1.63,1.63,0,0,1,200.45,281.91Zm-.21,3.35A1,1,0,0,0,201,285a1.18,1.18,0,0,0,.31-.86,1.14,1.14,0,0,0-.31-.85,1.1,1.1,0,0,0-1.55,0,1.18,1.18,0,0,0-.3.85,1.22,1.22,0,0,0,.3.86A1,1,0,0,0,200.24,285.26Zm5.28,1a2.47,2.47,0,0,1-1.2-.28,2,2,0,0,1-.83-.77,2.17,2.17,0,0,1-.3-1.13,2.15,2.15,0,0,1,.3-1.13,2.06,2.06,0,0,1,.83-.77,2.71,2.71,0,0,1,2.4,0,2.1,2.1,0,0,1,.82.77,2.15,2.15,0,0,1,.3,1.13,2.17,2.17,0,0,1-.3,1.13,2,2,0,0,1-.82.77A2.47,2.47,0,0,1,205.52,286.27Zm0-1a1,1,0,0,0,.77-.31,1.18,1.18,0,0,0,.31-.86,1.14,1.14,0,0,0-.31-.85,1,1,0,0,0-.77-.32,1,1,0,0,0-.78.32,1.18,1.18,0,0,0-.31.85,1.22,1.22,0,0,0,.31.86A1.06,1.06,0,0,0,205.52,285.26Zm4.44-2.73a1.36,1.36,0,0,1,.59-.46,2.14,2.14,0,0,1,.87-.16V283h-.28a1.13,1.13,0,0,0-.83.3,1.16,1.16,0,0,0-.3.88v2h-1.22V282H210Zm5.19,3.47a1.44,1.44,0,0,1-.45.21,2.51,2.51,0,0,1-.55.06,1.66,1.66,0,0,1-1.18-.39,1.47,1.47,0,0,1-.41-1.13V283h-.65v-.94h.65v-1h1.23v1h1.06V283h-1.06v1.73a.6.6,0,0,0,.14.41.49.49,0,0,0,.39.14.79.79,0,0,0,.49-.15Zm2.23.27a4,4,0,0,1-1-.13,2.88,2.88,0,0,1-.8-.33l.41-.88a2.68,2.68,0,0,0,.68.3,3.13,3.13,0,0,0,.79.11c.52,0,.78-.13.78-.38a.26.26,0,0,0-.21-.26,2.93,2.93,0,0,0-.66-.14,6.07,6.07,0,0,1-.86-.18,1.45,1.45,0,0,1-.59-.36,1,1,0,0,1-.24-.74,1.18,1.18,0,0,1,.23-.71,1.54,1.54,0,0,1,.68-.49,3,3,0,0,1,1.05-.17,3.8,3.8,0,0,1,.89.1,2.2,2.2,0,0,1,.74.27l-.41.87a2.43,2.43,0,0,0-1.22-.31,1.29,1.29,0,0,0-.59.11.33.33,0,0,0-.2.28.29.29,0,0,0,.22.28,4.1,4.1,0,0,0,.67.15,5.23,5.23,0,0,1,.85.19,1.3,1.3,0,0,1,.58.35,1,1,0,0,1,.24.72,1.13,1.13,0,0,1-.23.7,1.46,1.46,0,0,1-.7.48A3.08,3.08,0,0,1,217.38,286.27Z" transform="translate(-138.53 -202.09)"/><path class="cls-5" d="M141.51,426.31a2.58,2.58,0,0,1,1.69.51,1.92,1.92,0,0,1,0,2.81,2.53,2.53,0,0,1-1.69.52h-1.36v1.66h-.79v-5.5Zm0,3.15a1.78,1.78,0,0,0,1.14-.31,1.14,1.14,0,0,0,.39-.92,1.12,1.12,0,0,0-.39-.92,1.78,1.78,0,0,0-1.14-.32h-1.34v2.47Zm4.14-1.12a1.31,1.31,0,0,1,.59-.55,2.17,2.17,0,0,1,.93-.19v.74H147a1.27,1.27,0,0,0-1,.37,1.45,1.45,0,0,0-.34,1v2.07h-.76v-4.17h.72Zm2.58-.7H149v4.17h-.75Zm.37-.8a.55.55,0,0,1-.37-.14.5.5,0,0,1-.14-.35.48.48,0,0,1,.14-.34.51.51,0,0,1,.37-.15.49.49,0,0,1,.37.14.43.43,0,0,1,.15.34.49.49,0,0,1-.15.36A.53.53,0,0,1,148.58,426.84Zm3.73,5a2.28,2.28,0,0,1-1.11-.27,2.05,2.05,0,0,1-1.06-1.86,2.08,2.08,0,0,1,.28-1.09,2,2,0,0,1,.78-.76,2.29,2.29,0,0,1,1.11-.28,2.23,2.23,0,0,1,1.11.28,1.9,1.9,0,0,1,.78.76,2.18,2.18,0,0,1,.28,1.09,2.22,2.22,0,0,1-.28,1.1,2,2,0,0,1-.78.76A2.23,2.23,0,0,1,152.31,431.86Zm0-.66A1.43,1.43,0,0,0,153,431a1.32,1.32,0,0,0,.5-.52,1.52,1.52,0,0,0,.19-.77,1.45,1.45,0,0,0-.19-.76,1.2,1.2,0,0,0-.5-.52,1.43,1.43,0,0,0-.72-.18,1.48,1.48,0,0,0-.72.18,1.26,1.26,0,0,0-.5.52,1.55,1.55,0,0,0-.18.76,1.62,1.62,0,0,0,.18.77,1.39,1.39,0,0,0,.5.52A1.48,1.48,0,0,0,152.31,431.2Zm4.06-2.86a1.34,1.34,0,0,1,.58-.55,2.22,2.22,0,0,1,.94-.19v.74h-.17a1.27,1.27,0,0,0-1,.37,1.45,1.45,0,0,0-.35,1v2.07h-.75v-4.17h.72Zm2.57-.7h.76v4.17h-.76Zm.38-.8a.55.55,0,0,1-.37-.14.5.5,0,0,1-.14-.35A.48.48,0,0,1,159,426a.51.51,0,0,1,.37-.15.45.45,0,0,1,.36.14.43.43,0,0,1,.15.34.5.5,0,0,1-.51.5Zm4.29,4.73a1.08,1.08,0,0,1-.41.22,1.68,1.68,0,0,1-.5.07,1.33,1.33,0,0,1-1-.34,1.26,1.26,0,0,1-.34-1v-2.29h-.71v-.63h.71v-.91h.75v.91h1.2v.63h-1.2v2.25a.74.74,0,0,0,.17.52.62.62,0,0,0,.48.18.94.94,0,0,0,.6-.19Zm1-3.93h.75v4.17h-.75Zm.38-.8a.53.53,0,0,1-.37-.14.47.47,0,0,1-.15-.35.45.45,0,0,1,.15-.34.5.5,0,0,1,.37-.15.48.48,0,0,1,.36.14.43.43,0,0,1,.15.34.49.49,0,0,1-.15.36A.52.52,0,0,1,165,426.84Zm5,4.35v.62h-3.49v-.48l2.46-3.06h-2.42v-.63H170v.5l-2.46,3.05Zm4.85-1.44c0,.06,0,.14,0,.23H171.5a1.33,1.33,0,0,0,.49.89,1.59,1.59,0,0,0,1,.33,1.56,1.56,0,0,0,1.2-.5l.42.49a1.91,1.91,0,0,1-.71.5,2.54,2.54,0,0,1-.94.17,2.46,2.46,0,0,1-1.17-.27,2,2,0,0,1-.8-.76,2.36,2.36,0,0,1,0-2.19,1.93,1.93,0,0,1,.74-.76,2.17,2.17,0,0,1,1.08-.28,2.11,2.11,0,0,1,1.07.28,1.91,1.91,0,0,1,.73.76A2.23,2.23,0,0,1,174.91,429.75Zm-2.07-1.51a1.32,1.32,0,0,0-.91.33,1.39,1.39,0,0,0-.43.87h2.68a1.34,1.34,0,0,0-.43-.86A1.27,1.27,0,0,0,172.84,428.24ZM180,426v5.84h-.72v-.66a1.65,1.65,0,0,1-.64.53,2,2,0,0,1-.85.18,2.2,2.2,0,0,1-1.09-.27,1.84,1.84,0,0,1-.75-.74,2.29,2.29,0,0,1-.27-1.12,2.23,2.23,0,0,1,.27-1.11,1.93,1.93,0,0,1,.75-.75,2.2,2.2,0,0,1,1.09-.27,1.9,1.9,0,0,1,.83.18,1.59,1.59,0,0,1,.63.49V426Zm-2.15,5.23a1.45,1.45,0,0,0,.72-.18,1.32,1.32,0,0,0,.5-.52,1.62,1.62,0,0,0,.18-.77,1.55,1.55,0,0,0-.18-.76,1.2,1.2,0,0,0-.5-.52,1.53,1.53,0,0,0-1.44,0,1.26,1.26,0,0,0-.5.52,1.55,1.55,0,0,0-.18.76,1.62,1.62,0,0,0,.18.77,1.39,1.39,0,0,0,.5.52A1.45,1.45,0,0,0,177.86,431.2Zm6.67-2.86a1.29,1.29,0,0,1,.58-.55,2.22,2.22,0,0,1,.94-.19v.74h-.18a1.27,1.27,0,0,0-1,.37,1.45,1.45,0,0,0-.34,1v2.07h-.76v-4.17h.73Zm6.3,1.41a2,2,0,0,1,0,.23h-3.39a1.36,1.36,0,0,0,.48.89,1.61,1.61,0,0,0,1,.33,1.58,1.58,0,0,0,1.21-.5l.41.49a1.87,1.87,0,0,1-.7.5,2.58,2.58,0,0,1-.94.17,2.46,2.46,0,0,1-1.17-.27,1.89,1.89,0,0,1-.8-.76,2.39,2.39,0,0,1,0-2.19,2,2,0,0,1,.75-.76,2.17,2.17,0,0,1,1.08-.28,2.07,2.07,0,0,1,1.06.28,1.79,1.79,0,0,1,.73.76A2.23,2.23,0,0,1,190.83,429.75Zm-2.06-1.51a1.3,1.3,0,0,0-1.34,1.2h2.68a1.36,1.36,0,0,0-.44-.86A1.25,1.25,0,0,0,188.77,428.24Zm4.43,3.62a3.51,3.51,0,0,1-1-.13,2,2,0,0,1-.74-.36l.31-.59a2.31,2.31,0,0,0,.67.31,2.71,2.71,0,0,0,.79.12c.67,0,1-.19,1-.57a.39.39,0,0,0-.14-.3.82.82,0,0,0-.34-.15,4.65,4.65,0,0,0-.56-.12c-.34-.06-.61-.12-.83-.18a1.3,1.3,0,0,1-.54-.35,1,1,0,0,1-.23-.68,1.08,1.08,0,0,1,.47-.91,2.12,2.12,0,0,1,1.27-.35,3.32,3.32,0,0,1,.83.11,2.21,2.21,0,0,1,.69.27l-.32.6a2.22,2.22,0,0,0-1.21-.33,1.34,1.34,0,0,0-.73.16.46.46,0,0,0-.25.41.39.39,0,0,0,.14.33.88.88,0,0,0,.35.17l.59.13a6.35,6.35,0,0,1,.81.18,1.24,1.24,0,0,1,.53.34.89.89,0,0,1,.22.66,1,1,0,0,1-.49.9A2.27,2.27,0,0,1,193.2,431.86Zm2.87-4.22h.75v4.17h-.75Zm.38-.8a.53.53,0,0,1-.37-.14.46.46,0,0,1-.14-.35.44.44,0,0,1,.14-.34.5.5,0,0,1,.37-.15.48.48,0,0,1,.36.14.43.43,0,0,1,.15.34.49.49,0,0,1-.15.36A.52.52,0,0,1,196.45,426.84Zm5.88-.87v5.84h-.73v-.66a1.65,1.65,0,0,1-.64.53,2,2,0,0,1-.85.18,2.16,2.16,0,0,1-1.08-.27,1.93,1.93,0,0,1-.76-.74,2.29,2.29,0,0,1-.27-1.12,2.23,2.23,0,0,1,.27-1.11,2,2,0,0,1,.76-.75,2.16,2.16,0,0,1,1.08-.27,1.9,1.9,0,0,1,.83.18,1.59,1.59,0,0,1,.63.49V426Zm-2.15,5.23a1.41,1.41,0,0,0,.71-.18,1.34,1.34,0,0,0,.51-.52,1.62,1.62,0,0,0,.18-.77,1.55,1.55,0,0,0-.18-.76,1.22,1.22,0,0,0-.51-.52,1.41,1.41,0,0,0-.71-.18,1.49,1.49,0,0,0-.73.18,1.32,1.32,0,0,0-.5.52,1.55,1.55,0,0,0-.18.76,1.62,1.62,0,0,0,.18.77,1.47,1.47,0,0,0,.5.52A1.49,1.49,0,0,0,200.18,431.2Zm7.47-1.45c0,.06,0,.14,0,.23h-3.38a1.36,1.36,0,0,0,.48.89,1.61,1.61,0,0,0,1,.33,1.55,1.55,0,0,0,1.2-.5l.42.49a1.83,1.83,0,0,1-.71.5,2.68,2.68,0,0,1-2.11-.1,1.93,1.93,0,0,1-.79-.76,2.12,2.12,0,0,1-.28-1.1,2.2,2.2,0,0,1,.27-1.09,1.89,1.89,0,0,1,.75-.76,2.17,2.17,0,0,1,1.08-.28,2.07,2.07,0,0,1,1.06.28,1.85,1.85,0,0,1,.73.76A2.23,2.23,0,0,1,207.65,429.75Zm-2.06-1.51a1.28,1.28,0,0,0-1.34,1.2h2.67a1.3,1.3,0,0,0-.43-.86A1.25,1.25,0,0,0,205.59,428.24Zm5.46-.64a1.71,1.71,0,0,1,1.26.47,1.79,1.79,0,0,1,.47,1.34v2.4H212V429.5a1.25,1.25,0,0,0-.29-.91,1.06,1.06,0,0,0-.83-.31,1.31,1.31,0,0,0-1,.36,1.38,1.38,0,0,0-.35,1v2.14h-.76v-4.17h.72v.63a1.51,1.51,0,0,1,.62-.49A2.11,2.11,0,0,1,211.05,427.6Zm5.6,4a1.08,1.08,0,0,1-.41.22,1.75,1.75,0,0,1-.51.07,1.3,1.3,0,0,1-1-.34,1.27,1.27,0,0,1-.35-1v-2.29h-.71v-.63h.71v-.91h.76v.91h1.19v.63h-1.19v2.25a.74.74,0,0,0,.16.52.66.66,0,0,0,.49.18.91.91,0,0,0,.59-.19Zm1-3.93h.76v4.17h-.76Zm.38-.8a.53.53,0,0,1-.37-.14.5.5,0,0,1-.14-.35.48.48,0,0,1,.14-.34.5.5,0,0,1,.37-.15.45.45,0,0,1,.36.14.43.43,0,0,1,.15.34.5.5,0,0,1-.51.5Zm3.46.76a1.91,1.91,0,0,1,1.33.43,1.63,1.63,0,0,1,.46,1.27v2.51h-.72v-.55a1.1,1.1,0,0,1-.54.45,2.09,2.09,0,0,1-.83.15,1.72,1.72,0,0,1-1.12-.34,1.08,1.08,0,0,1-.42-.89,1.11,1.11,0,0,1,.4-.88,2,2,0,0,1,1.28-.34h1.19v-.15a.94.94,0,0,0-.28-.74,1.17,1.17,0,0,0-.83-.26,2.28,2.28,0,0,0-.73.12,1.93,1.93,0,0,0-.6.33l-.31-.57a2.07,2.07,0,0,1,.77-.39A3,3,0,0,1,221.52,427.6Zm-.17,3.68a1.39,1.39,0,0,0,.75-.19,1.07,1.07,0,0,0,.45-.55V430h-1.16c-.64,0-1,.21-1,.64a.59.59,0,0,0,.24.5A1.14,1.14,0,0,0,221.35,431.28Zm3.48-5.31h.76v5.84h-.76Zm-84.06,12.46a1.87,1.87,0,0,1,1.32.42,1.64,1.64,0,0,1,.47,1.27v2.52h-.72v-.55a1.19,1.19,0,0,1-.54.44,2.09,2.09,0,0,1-.83.15,1.78,1.78,0,0,1-1.12-.33,1.1,1.1,0,0,1-.42-.89,1.07,1.07,0,0,1,.4-.88,1.94,1.94,0,0,1,1.28-.34h1.19v-.15a1,1,0,0,0-.28-.75,1.22,1.22,0,0,0-.84-.26,2,2,0,0,0-.72.13,1.64,1.64,0,0,0-.6.32l-.31-.57a2.23,2.23,0,0,1,.77-.39A3,3,0,0,1,140.77,438.43Zm-.17,3.67a1.39,1.39,0,0,0,.75-.19,1.07,1.07,0,0,0,.45-.55v-.58h-1.16c-.64,0-1,.21-1,.65a.58.58,0,0,0,.24.49A1.12,1.12,0,0,0,140.6,442.1Zm5.71-3.67a1.7,1.7,0,0,1,1.26.46,1.81,1.81,0,0,1,.47,1.35v2.4h-.76v-2.32a1.25,1.25,0,0,0-.29-.91,1.1,1.1,0,0,0-.83-.31,1.27,1.27,0,0,0-1,.37,1.35,1.35,0,0,0-.35,1v2.15h-.76v-4.17h.72v.63a1.53,1.53,0,0,1,.62-.5A2.11,2.11,0,0,1,146.31,438.43Zm7.21-1.63v5.84h-.73V442a1.59,1.59,0,0,1-.63.52,2,2,0,0,1-.85.18,2.17,2.17,0,0,1-1.09-.26,2,2,0,0,1-.76-.75,2.4,2.4,0,0,1-.26-1.12,2.33,2.33,0,0,1,.26-1.11,2,2,0,0,1,.76-.75,2.28,2.28,0,0,1,1.09-.26,1.85,1.85,0,0,1,.82.17,1.53,1.53,0,0,1,.63.5v-2.3ZM151.37,442a1.48,1.48,0,0,0,.72-.18,1.32,1.32,0,0,0,.5-.52,1.59,1.59,0,0,0,.18-.77,1.55,1.55,0,0,0-.18-.76,1.26,1.26,0,0,0-.5-.52,1.48,1.48,0,0,0-.72-.18,1.43,1.43,0,0,0-.72.18,1.34,1.34,0,0,0-.51.52,1.55,1.55,0,0,0-.18.76,1.59,1.59,0,0,0,.18.77,1.35,1.35,0,0,0,1.23.7Zm7.76.66a2.41,2.41,0,0,1-1.15-.27,1.94,1.94,0,0,1-.77-.76,2.12,2.12,0,0,1-.29-1.1,2.09,2.09,0,0,1,.29-1.09,1.88,1.88,0,0,1,.77-.76,2.41,2.41,0,0,1,1.15-.27,2.16,2.16,0,0,1,1,.22,1.74,1.74,0,0,1,.7.67l-.58.37a1.24,1.24,0,0,0-.49-.45,1.37,1.37,0,0,0-.64-.15,1.5,1.5,0,0,0-.74.18,1.22,1.22,0,0,0-.51.52,1.55,1.55,0,0,0-.18.76,1.63,1.63,0,0,0,.18.78,1.25,1.25,0,0,0,.51.51,1.5,1.5,0,0,0,.74.18,1.37,1.37,0,0,0,.64-.15,1.29,1.29,0,0,0,.49-.44l.58.36a1.74,1.74,0,0,1-.7.67A2.16,2.16,0,0,1,159.13,442.68Zm4.52,0a2.32,2.32,0,0,1-1.12-.27,1.94,1.94,0,0,1-.77-.76,2.12,2.12,0,0,1-.28-1.1,2.08,2.08,0,0,1,.28-1.09,1.88,1.88,0,0,1,.77-.76,2.32,2.32,0,0,1,1.12-.27,2.23,2.23,0,0,1,1.11.27,1.88,1.88,0,0,1,.77.76,2.09,2.09,0,0,1,.29,1.09,2.12,2.12,0,0,1-.29,1.1,1.94,1.94,0,0,1-.77.76A2.23,2.23,0,0,1,163.65,442.68Zm0-.66a1.43,1.43,0,0,0,.72-.18,1.32,1.32,0,0,0,.5-.52,1.59,1.59,0,0,0,.18-.77,1.55,1.55,0,0,0-.18-.76,1.26,1.26,0,0,0-.5-.52,1.53,1.53,0,0,0-1.44,0,1.34,1.34,0,0,0-.51.52,1.55,1.55,0,0,0-.18.76,1.59,1.59,0,0,0,.18.77,1.35,1.35,0,0,0,1.23.7Zm8.55-3.59a1.71,1.71,0,0,1,1.25.45,1.84,1.84,0,0,1,.46,1.36v2.4h-.75v-2.32a1.29,1.29,0,0,0-.29-.91,1,1,0,0,0-.79-.31,1.18,1.18,0,0,0-.92.37,1.42,1.42,0,0,0-.33,1v2.15h-.76v-2.32a1.29,1.29,0,0,0-.28-.91,1,1,0,0,0-.8-.31,1.16,1.16,0,0,0-.91.37,1.38,1.38,0,0,0-.34,1v2.15H167v-4.17h.73v.62a1.38,1.38,0,0,1,.6-.49,2.1,2.1,0,0,1,1.7,0,1.38,1.38,0,0,1,.59.58,1.58,1.58,0,0,1,.65-.57A2.1,2.1,0,0,1,172.2,438.43Zm8.44,0a1.71,1.71,0,0,1,1.25.45,1.84,1.84,0,0,1,.46,1.36v2.4h-.76v-2.32a1.29,1.29,0,0,0-.28-.91,1,1,0,0,0-.79-.31,1.18,1.18,0,0,0-.92.37,1.42,1.42,0,0,0-.34,1v2.15h-.75v-2.32a1.34,1.34,0,0,0-.28-.91,1,1,0,0,0-.8-.31,1.16,1.16,0,0,0-.91.37,1.38,1.38,0,0,0-.34,1v2.15h-.76v-4.17h.73v.62a1.38,1.38,0,0,1,.6-.49,2.1,2.1,0,0,1,1.7,0,1.38,1.38,0,0,1,.59.58,1.58,1.58,0,0,1,.65-.57A2.1,2.1,0,0,1,180.64,438.43Zm7,2.15c0,.05,0,.13,0,.22h-3.38a1.26,1.26,0,0,0,.48.89,1.59,1.59,0,0,0,1,.33,1.51,1.51,0,0,0,1.2-.5l.42.49a1.8,1.8,0,0,1-.71.5,2.35,2.35,0,0,1-.94.17,2.46,2.46,0,0,1-1.17-.26,2,2,0,0,1-.79-.77,2.12,2.12,0,0,1-.28-1.1,2.2,2.2,0,0,1,.27-1.09,1.89,1.89,0,0,1,.75-.76,2.15,2.15,0,0,1,1.07-.27,2.1,2.1,0,0,1,1.07.27,1.85,1.85,0,0,1,.73.76A2.26,2.26,0,0,1,187.66,440.58Zm-2.07-1.52a1.28,1.28,0,0,0-1.33,1.2h2.67a1.32,1.32,0,0,0-1.34-1.2Zm4,.11a1.21,1.21,0,0,1,.59-.55,2,2,0,0,1,.93-.19v.73h-.17a1.27,1.27,0,0,0-1,.37,1.45,1.45,0,0,0-.35,1v2.08h-.75v-4.17h.72Zm4.36,3.51a2.41,2.41,0,0,1-1.15-.27,1.94,1.94,0,0,1-.77-.76,2.12,2.12,0,0,1-.29-1.1,2.09,2.09,0,0,1,.29-1.09,1.88,1.88,0,0,1,.77-.76,2.41,2.41,0,0,1,1.15-.27,2.16,2.16,0,0,1,1,.22,1.74,1.74,0,0,1,.7.67l-.58.37a1.24,1.24,0,0,0-.49-.45,1.37,1.37,0,0,0-.64-.15,1.53,1.53,0,0,0-.74.18,1.22,1.22,0,0,0-.51.52,1.55,1.55,0,0,0-.18.76,1.63,1.63,0,0,0,.18.78,1.25,1.25,0,0,0,.51.51,1.53,1.53,0,0,0,.74.18,1.37,1.37,0,0,0,.64-.15,1.29,1.29,0,0,0,.49-.44l.58.36a1.74,1.74,0,0,1-.7.67A2.16,2.16,0,0,1,193.91,442.68Zm2.8-4.21h.75v4.17h-.75Zm.37-.81a.47.47,0,0,1-.36-.14.45.45,0,0,1-.15-.35.45.45,0,0,1,.15-.34.48.48,0,0,1,.36-.15.53.53,0,0,1,.37.14.43.43,0,0,1,.15.34.5.5,0,0,1-.52.5Zm3.47.77a1.88,1.88,0,0,1,1.32.42,1.63,1.63,0,0,1,.46,1.27v2.52h-.71v-.55a1.21,1.21,0,0,1-.55.44,2,2,0,0,1-.82.15,1.81,1.81,0,0,1-1.13-.33,1.09,1.09,0,0,1-.41-.89,1.07,1.07,0,0,1,.4-.88,1.91,1.91,0,0,1,1.27-.34h1.2v-.15a1,1,0,0,0-.28-.75,1.22,1.22,0,0,0-.84-.26,2,2,0,0,0-.72.13,1.57,1.57,0,0,0-.6.32l-.32-.57a2.38,2.38,0,0,1,.78-.39A2.91,2.91,0,0,1,200.55,438.43Zm-.18,3.67a1.39,1.39,0,0,0,.75-.19,1.13,1.13,0,0,0,.46-.55v-.58h-1.17c-.64,0-1,.21-1,.65a.56.56,0,0,0,.25.49A1.11,1.11,0,0,0,200.37,442.1Zm3.49-5.3h.75v5.84h-.75Z" transform="translate(-138.53 -202.09)"/><path class="cls-5" d="M143.36,483.27V484h-4v-5.51h3.89v.68h-3.1v1.7h2.76v.66h-2.76v1.78Zm1.29-5.15h.75V484h-.75Zm6.09,3.78c0,.05,0,.13,0,.22h-3.38a1.34,1.34,0,0,0,.48.89,1.61,1.61,0,0,0,1,.33,1.51,1.51,0,0,0,1.2-.5l.42.49a1.73,1.73,0,0,1-.71.5,2.3,2.3,0,0,1-.93.18,2.53,2.53,0,0,1-1.18-.27,2,2,0,0,1-.79-.77,2.32,2.32,0,0,1,0-2.19,2,2,0,0,1,.75-.76,2.16,2.16,0,0,1,1.08-.27,2.06,2.06,0,0,1,1.06.27,1.85,1.85,0,0,1,.73.76A2.26,2.26,0,0,1,150.74,481.9Zm-2.06-1.51a1.35,1.35,0,0,0-.92.33,1.31,1.31,0,0,0-.42.86H150a1.36,1.36,0,0,0-.44-.86A1.28,1.28,0,0,0,148.68,480.39Zm5,3.62a2.35,2.35,0,0,1-1.14-.28,2,2,0,0,1-.78-.76,2.12,2.12,0,0,1-.28-1.1,2.08,2.08,0,0,1,.28-1.09,2,2,0,0,1,.78-.76,2.34,2.34,0,0,1,1.14-.27,2.09,2.09,0,0,1,1,.23,1.57,1.57,0,0,1,.69.66l-.57.37a1.39,1.39,0,0,0-.49-.45,1.41,1.41,0,0,0-.65-.15,1.53,1.53,0,0,0-.74.18,1.34,1.34,0,0,0-.51.52,1.55,1.55,0,0,0-.18.76,1.61,1.61,0,0,0,.18.78,1.39,1.39,0,0,0,.51.51,1.53,1.53,0,0,0,.74.18,1.41,1.41,0,0,0,.65-.15,1.27,1.27,0,0,0,.49-.44l.57.36a1.65,1.65,0,0,1-.69.67A2.21,2.21,0,0,1,153.73,484Zm5.2-.3a1.08,1.08,0,0,1-.41.22,1.69,1.69,0,0,1-.5.08,1.37,1.37,0,0,1-1-.34,1.3,1.3,0,0,1-.34-1v-2.29H156v-.62h.71v-.92h.75v.92h1.2v.62h-1.2v2.26a.76.76,0,0,0,.17.52.62.62,0,0,0,.48.18.92.92,0,0,0,.59-.2Zm1.76-3.22a1.29,1.29,0,0,1,.58-.55,2.07,2.07,0,0,1,.94-.19v.73H162a1.3,1.3,0,0,0-1,.37,1.45,1.45,0,0,0-.35,1V484H160v-4.17h.72Zm2.57-.7H164V484h-.76Zm.38-.81a.5.5,0,0,1-.37-.14.48.48,0,0,1-.14-.34.48.48,0,0,1,.14-.35.51.51,0,0,1,.37-.15.49.49,0,0,1,.36.14.43.43,0,0,1,.15.34.49.49,0,0,1-.15.36A.45.45,0,0,1,163.64,479Zm3.76,5a2.4,2.4,0,0,1-1.14-.28,2,2,0,0,1-.78-.76,2.12,2.12,0,0,1-.28-1.1,2.08,2.08,0,0,1,.28-1.09,2,2,0,0,1,.78-.76,2.4,2.4,0,0,1,1.14-.27,2.06,2.06,0,0,1,1,.23,1.57,1.57,0,0,1,.69.66l-.57.37a1.24,1.24,0,0,0-.49-.45,1.37,1.37,0,0,0-.64-.15,1.5,1.5,0,0,0-.74.18,1.3,1.3,0,0,0-.52.52,1.55,1.55,0,0,0-.18.76,1.61,1.61,0,0,0,.18.78,1.34,1.34,0,0,0,.52.51,1.5,1.5,0,0,0,.74.18,1.37,1.37,0,0,0,.64-.15,1.15,1.15,0,0,0,.49-.44l.57.36a1.65,1.65,0,0,1-.69.67A2.18,2.18,0,0,1,167.4,484Zm2.45-2.54H172v.65h-2.12Zm5.62-1.72a2.16,2.16,0,0,1,1.08.27,1.84,1.84,0,0,1,.75.74,2.13,2.13,0,0,1,.28,1.11,2.17,2.17,0,0,1-.28,1.12,1.93,1.93,0,0,1-.75.75,2.16,2.16,0,0,1-1.08.27,1.9,1.9,0,0,1-.83-.18,1.77,1.77,0,0,1-.63-.5v2.16h-.75v-5.7H174v.66a1.54,1.54,0,0,1,.64-.52A2,2,0,0,1,175.47,479.75Zm-.06,3.59a1.41,1.41,0,0,0,.71-.18,1.34,1.34,0,0,0,.51-.52,1.59,1.59,0,0,0,.18-.77,1.55,1.55,0,0,0-.18-.76,1.28,1.28,0,0,0-.51-.52,1.41,1.41,0,0,0-.71-.18,1.34,1.34,0,0,0-.72.19,1.29,1.29,0,0,0-.5.51,1.45,1.45,0,0,0-.19.76,1.49,1.49,0,0,0,.19.77,1.25,1.25,0,0,0,.5.52A1.43,1.43,0,0,0,175.41,483.34Zm5.12.67a2.32,2.32,0,0,1-1.12-.28,2,2,0,0,1-.78-.76,2.21,2.21,0,0,1-.27-1.1,2.18,2.18,0,0,1,.27-1.09,2,2,0,0,1,.78-.76,2.32,2.32,0,0,1,1.12-.27,2.23,2.23,0,0,1,1.11.27,1.88,1.88,0,0,1,.77.76,2.09,2.09,0,0,1,.29,1.09,2.12,2.12,0,0,1-.29,1.1,1.94,1.94,0,0,1-.77.76A2.23,2.23,0,0,1,180.53,484Zm0-.67a1.43,1.43,0,0,0,.72-.18,1.32,1.32,0,0,0,.5-.52,1.59,1.59,0,0,0,.18-.77,1.55,1.55,0,0,0-.18-.76,1.26,1.26,0,0,0-.5-.52,1.53,1.53,0,0,0-1.44,0,1.34,1.34,0,0,0-.51.52,1.55,1.55,0,0,0-.18.76,1.59,1.59,0,0,0,.18.77,1.35,1.35,0,0,0,1.23.7Zm9.53-3.55L188.5,484h-.72l-1.21-3.17L185.35,484h-.72l-1.55-4.17h.72l1.21,3.32,1.26-3.32h.63l1.24,3.33,1.24-3.33Zm4.54,2.11a1.94,1.94,0,0,1,0,.22H191.2a1.34,1.34,0,0,0,.48.89,1.64,1.64,0,0,0,1,.33,1.53,1.53,0,0,0,1.2-.5l.42.49a1.8,1.8,0,0,1-.71.5,2.35,2.35,0,0,1-.94.18,2.46,2.46,0,0,1-1.17-.27,2,2,0,0,1-.8-.77,2.36,2.36,0,0,1,0-2.19,1.93,1.93,0,0,1,.74-.76,2.16,2.16,0,0,1,1.08-.27,2.1,2.1,0,0,1,1.07.27,1.91,1.91,0,0,1,.73.76A2.26,2.26,0,0,1,194.6,481.9Zm-2.06-1.51a1.32,1.32,0,0,0-.91.33,1.37,1.37,0,0,0-.43.86h2.68a1.34,1.34,0,0,0-.43-.86A1.31,1.31,0,0,0,192.54,480.39Zm4,.1a1.29,1.29,0,0,1,.58-.55,2.07,2.07,0,0,1,.94-.19v.73h-.17a1.3,1.3,0,0,0-1,.37,1.45,1.45,0,0,0-.35,1V484h-.75v-4.17h.72Zm-53.26,10.12v3.6a2.17,2.17,0,0,1-.54,1.62,2.24,2.24,0,0,1-1.62.52,3.81,3.81,0,0,1-1.13-.16,2.27,2.27,0,0,1-.86-.46l.36-.58a1.91,1.91,0,0,0,.72.39,2.62,2.62,0,0,0,.88.15,1.47,1.47,0,0,0,1.08-.34,1.42,1.42,0,0,0,.36-1.06V494a1.68,1.68,0,0,1-.66.49,2.34,2.34,0,0,1-.85.16,2.42,2.42,0,0,1-1.08-.25,2.1,2.1,0,0,1-.76-.72,2.06,2.06,0,0,1-.27-1.06,2,2,0,0,1,.27-1,2,2,0,0,1,.76-.72,2.41,2.41,0,0,1,2-.08,1.79,1.79,0,0,1,.67.51v-.64ZM141.07,494a1.46,1.46,0,0,0,.73-.18,1.18,1.18,0,0,0,.51-.48,1.3,1.3,0,0,0,.19-.71,1.25,1.25,0,0,0-.4-1,1.45,1.45,0,0,0-1-.38,1.48,1.48,0,0,0-1,.38,1.25,1.25,0,0,0-.4,1,1.39,1.39,0,0,0,.18.71,1.3,1.3,0,0,0,.51.48A1.54,1.54,0,0,0,141.07,494Zm7.51-1.23c0,.06,0,.13,0,.23h-3.38a1.38,1.38,0,0,0,.48.89,1.61,1.61,0,0,0,1,.33,1.52,1.52,0,0,0,1.2-.51l.42.49a1.73,1.73,0,0,1-.71.5,2.3,2.3,0,0,1-.93.18,2.53,2.53,0,0,1-1.18-.27,2,2,0,0,1-.79-.76,2.29,2.29,0,0,1-.28-1.11,2.23,2.23,0,0,1,.27-1.09,1.93,1.93,0,0,1,.75-.75,2.07,2.07,0,0,1,1.08-.28,2,2,0,0,1,1.06.28,1.82,1.82,0,0,1,.73.75A2.29,2.29,0,0,1,148.58,492.72Zm-2.06-1.51a1.35,1.35,0,0,0-.92.33,1.33,1.33,0,0,0-.42.86h2.68a1.33,1.33,0,0,0-.44-.85A1.25,1.25,0,0,0,146.52,491.21Zm5.46-.64a1.7,1.7,0,0,1,1.26.46,1.83,1.83,0,0,1,.47,1.35v2.4H153v-2.31a1.27,1.27,0,0,0-.3-.92,1.1,1.1,0,0,0-.83-.3,1.31,1.31,0,0,0-1,.36,1.4,1.4,0,0,0-.35,1v2.15h-.76v-4.17h.73v.63a1.44,1.44,0,0,1,.61-.5A2.28,2.28,0,0,1,152,490.57Zm7.05,2.15c0,.06,0,.13,0,.23h-3.38a1.3,1.3,0,0,0,.48.89,1.59,1.59,0,0,0,1,.33,1.54,1.54,0,0,0,1.2-.51l.42.49a1.8,1.8,0,0,1-.71.5,2.35,2.35,0,0,1-.94.18,2.46,2.46,0,0,1-1.17-.27,1.93,1.93,0,0,1-.79-.76,2.18,2.18,0,0,1-.28-1.11,2.23,2.23,0,0,1,.27-1.09,1.91,1.91,0,0,1,.74-.75,2.07,2.07,0,0,1,1.08-.28,2,2,0,0,1,1.07.28,1.88,1.88,0,0,1,.73.75A2.29,2.29,0,0,1,159,492.72ZM157,491.21a1.28,1.28,0,0,0-1.33,1.19h2.67a1.32,1.32,0,0,0-.43-.85A1.25,1.25,0,0,0,157,491.21Zm4,.1a1.29,1.29,0,0,1,.58-.55,2.07,2.07,0,0,1,.94-.19v.73h-.17a1.31,1.31,0,0,0-1,.37,1.47,1.47,0,0,0-.35,1v2.08h-.75v-4.17h.72Zm4.09-.74a1.9,1.9,0,0,1,1.32.42,1.65,1.65,0,0,1,.46,1.27v2.52h-.71v-.55a1.3,1.3,0,0,1-.55.45,2,2,0,0,1-.82.15,1.73,1.73,0,0,1-1.13-.34,1.09,1.09,0,0,1-.42-.89,1.08,1.08,0,0,1,.41-.88,1.91,1.91,0,0,1,1.27-.34H166v-.15a1,1,0,0,0-.29-.75,1.18,1.18,0,0,0-.83-.26,2,2,0,0,0-.72.13,1.9,1.9,0,0,0-.6.32l-.32-.57a2.33,2.33,0,0,1,.77-.39A3.32,3.32,0,0,1,165,490.57Zm-.18,3.68a1.49,1.49,0,0,0,.75-.19,1.18,1.18,0,0,0,.46-.55v-.59h-1.17c-.64,0-1,.22-1,.65a.56.56,0,0,0,.25.49A1.09,1.09,0,0,0,164.83,494.25Zm5.83.29a1.45,1.45,0,0,1-.41.22,2.08,2.08,0,0,1-.5.07,1.33,1.33,0,0,1-1-.34,1.31,1.31,0,0,1-.35-1v-2.29h-.7v-.62h.7v-.91h.76v.91h1.2v.62h-1.2v2.26a.7.7,0,0,0,.17.52.62.62,0,0,0,.48.18.92.92,0,0,0,.59-.2Zm1-3.93h.75v4.17h-.75Zm.37-.8a.51.51,0,0,1-.37-.15.48.48,0,0,1-.14-.34.5.5,0,0,1,.14-.35.51.51,0,0,1,.37-.15.53.53,0,0,1,.37.14.45.45,0,0,1,.15.34.49.49,0,0,1-.15.36A.5.5,0,0,1,172.07,489.81Zm3.73,5a2.18,2.18,0,0,1-1.11-.28,2,2,0,0,1-.78-.75,2.18,2.18,0,0,1-.28-1.11,2.11,2.11,0,0,1,.28-1.09,1.94,1.94,0,0,1,.78-.75,2.18,2.18,0,0,1,1.11-.28,2.13,2.13,0,0,1,1.11.28,1.94,1.94,0,0,1,.78.75,2.21,2.21,0,0,1,.28,1.09,2.29,2.29,0,0,1-.28,1.11,2,2,0,0,1-.78.75A2.13,2.13,0,0,1,175.8,494.83Zm0-.66a1.43,1.43,0,0,0,.72-.18,1.32,1.32,0,0,0,.5-.52,1.66,1.66,0,0,0,.18-.78,1.58,1.58,0,0,0-.18-.76,1.25,1.25,0,0,0-.5-.52,1.43,1.43,0,0,0-.72-.18,1.45,1.45,0,0,0-.72.18,1.32,1.32,0,0,0-.5.52,1.58,1.58,0,0,0-.18.76,1.66,1.66,0,0,0,.18.78,1.39,1.39,0,0,0,.5.52A1.45,1.45,0,0,0,175.8,494.17Zm5.56-3.6a1.7,1.7,0,0,1,1.26.46,1.79,1.79,0,0,1,.48,1.35v2.4h-.76v-2.31a1.32,1.32,0,0,0-.29-.92,1.12,1.12,0,0,0-.84-.3,1.27,1.27,0,0,0-1,.36,1.36,1.36,0,0,0-.36,1v2.15h-.75v-4.17h.72v.63a1.5,1.5,0,0,1,.61-.5A2.31,2.31,0,0,1,181.36,490.57Z" transform="translate(-138.53 -202.09)"/><path class="cls-5" d="M144.15,374.16l-2.42,5.51H141l-2.42-5.51h.85l2,4.53,2-4.53Zm.72,1.34h.76v4.17h-.76Zm.38-.8a.53.53,0,0,1-.37-.14.51.51,0,0,1,0-.7.5.5,0,0,1,.37-.15.46.46,0,0,1,.36.15.41.41,0,0,1,.15.33.5.5,0,0,1-.15.37A.49.49,0,0,1,145.25,374.7Zm4.29,4.73a1.23,1.23,0,0,1-.41.22,1.7,1.7,0,0,1-.51.07,1.2,1.2,0,0,1-1.32-1.31v-2.29h-.71v-.62h.71v-.91h.76v.91h1.19v.62h-1.19v2.26a.74.74,0,0,0,.16.52.66.66,0,0,0,.49.18.86.86,0,0,0,.59-.2Zm2.55-4a1.87,1.87,0,0,1,1.33.43,1.61,1.61,0,0,1,.46,1.26v2.52h-.72v-.55a1.21,1.21,0,0,1-.54.45,2.09,2.09,0,0,1-.83.15,1.72,1.72,0,0,1-1.12-.34,1.16,1.16,0,0,1,0-1.77,2,2,0,0,1,1.28-.34h1.19v-.15a1,1,0,0,0-.28-.75,1.21,1.21,0,0,0-.83-.26,2.29,2.29,0,0,0-.73.13,2.14,2.14,0,0,0-.6.32l-.31-.56a2.09,2.09,0,0,1,.77-.4A3.31,3.31,0,0,1,152.09,375.46Zm-.17,3.68a1.49,1.49,0,0,0,.75-.19,1.11,1.11,0,0,0,.45-.55v-.59H152c-.64,0-1,.22-1,.65a.61.61,0,0,0,.24.5A1.14,1.14,0,0,0,151.92,379.14Zm3.48-5.31h.76v5.84h-.76ZM160,375.5h.75v4.17H160Zm.38-.8a.53.53,0,0,1-.37-.14.51.51,0,0,1,0-.7.5.5,0,0,1,.37-.15.49.49,0,0,1,.36.15.41.41,0,0,1,.15.33.5.5,0,0,1-.15.37A.52.52,0,0,1,160.34,374.7Zm4.17.76a1.71,1.71,0,0,1,1.26.47,1.79,1.79,0,0,1,.47,1.34v2.4h-.76v-2.31a1.27,1.27,0,0,0-.29-.92,1.1,1.1,0,0,0-.83-.3,1.31,1.31,0,0,0-1,.36,1.38,1.38,0,0,0-.35,1v2.15h-.76V375.5H163v.63a1.53,1.53,0,0,1,.62-.5A2.28,2.28,0,0,1,164.51,375.46Zm7.21-1.63v5.84H171V379a1.72,1.72,0,0,1-.64.53,2,2,0,0,1-.85.18,2.18,2.18,0,0,1-1.09-.27,1.93,1.93,0,0,1-.75-.75,2.42,2.42,0,0,1,0-2.22,1.93,1.93,0,0,1,.75-.75,2.18,2.18,0,0,1,1.09-.27,2,2,0,0,1,.82.17,1.48,1.48,0,0,1,.63.5v-2.3Zm-2.15,5.23a1.48,1.48,0,0,0,.72-.18,1.39,1.39,0,0,0,.5-.52,1.65,1.65,0,0,0,.18-.77,1.59,1.59,0,0,0-.18-.77,1.32,1.32,0,0,0-.5-.52,1.48,1.48,0,0,0-.72-.18,1.35,1.35,0,0,0-1.23.7,1.59,1.59,0,0,0-.18.77,1.65,1.65,0,0,0,.18.77,1.49,1.49,0,0,0,.51.52A1.43,1.43,0,0,0,169.57,379.06Zm7.59-3.56v4.17h-.72V379a1.49,1.49,0,0,1-.6.51,2,2,0,0,1-.81.17,1.64,1.64,0,0,1-1.8-1.82v-2.4H174v2.31a1.32,1.32,0,0,0,.29.92,1.06,1.06,0,0,0,.83.31,1.26,1.26,0,0,0,.95-.36,1.41,1.41,0,0,0,.34-1V375.5Zm2.76,4.22a3.64,3.64,0,0,1-1-.14,2.22,2.22,0,0,1-.74-.35l.32-.6a2.32,2.32,0,0,0,.67.32,2.71,2.71,0,0,0,.79.12q1,0,1-.57a.35.35,0,0,0-.13-.3.83.83,0,0,0-.34-.16l-.56-.12a5.05,5.05,0,0,1-.83-.18,1.28,1.28,0,0,1-.54-.34,1,1,0,0,1-.23-.69,1.05,1.05,0,0,1,.47-.9,2.1,2.1,0,0,1,1.27-.35,3.37,3.37,0,0,1,.83.1,2.21,2.21,0,0,1,.69.28l-.33.6a2.16,2.16,0,0,0-1.2-.33,1.45,1.45,0,0,0-.73.15.48.48,0,0,0-.25.42.37.37,0,0,0,.14.32.92.92,0,0,0,.34.18c.15,0,.34.08.59.12a5.46,5.46,0,0,1,.81.19,1.17,1.17,0,0,1,.54.33.92.92,0,0,1,.22.66,1.05,1.05,0,0,1-.49.91A2.29,2.29,0,0,1,179.92,379.72Zm5.21-.29a1.14,1.14,0,0,1-.41.22,1.68,1.68,0,0,1-.5.07,1.33,1.33,0,0,1-1-.34,1.3,1.3,0,0,1-.34-1v-2.29h-.71v-.62h.71v-.91h.75v.91h1.2v.62h-1.2v2.26a.74.74,0,0,0,.17.52.64.64,0,0,0,.49.18.88.88,0,0,0,.59-.2Zm1.76-3.23a1.31,1.31,0,0,1,.59-.55,2,2,0,0,1,.93-.19v.73h-.17a1.31,1.31,0,0,0-1,.37,1.47,1.47,0,0,0-.35,1v2.08h-.75V375.5h.72Zm2.58-.7h.75v4.17h-.75Zm.37-.8a.55.55,0,0,1-.37-.14.51.51,0,0,1,0-.7.51.51,0,0,1,.37-.15.5.5,0,0,1,.37.15.41.41,0,0,1,.15.33.5.5,0,0,1-.15.37A.53.53,0,0,1,189.84,374.7Zm3.47.76a1.86,1.86,0,0,1,1.32.43,1.61,1.61,0,0,1,.46,1.26v2.52h-.71v-.55a1.3,1.3,0,0,1-.55.45,2,2,0,0,1-.82.15,1.75,1.75,0,0,1-1.13-.34,1.08,1.08,0,0,1-.41-.89,1.07,1.07,0,0,1,.4-.88,1.91,1.91,0,0,1,1.27-.34h1.2v-.15a1,1,0,0,0-.29-.75,1.18,1.18,0,0,0-.83-.26,2.18,2.18,0,0,0-.72.13,1.9,1.9,0,0,0-.6.32l-.32-.56a2.26,2.26,0,0,1,.77-.4A3.32,3.32,0,0,1,193.31,375.46Zm-.18,3.68a1.49,1.49,0,0,0,.75-.19,1.18,1.18,0,0,0,.46-.55v-.59h-1.17c-.64,0-1,.22-1,.65a.59.59,0,0,0,.25.5A1.11,1.11,0,0,0,193.13,379.14Zm3.48-5.31h.76v5.84h-.76Zm6.08,1.63a1.83,1.83,0,0,1,1.32.43,1.61,1.61,0,0,1,.47,1.26v2.52h-.72v-.55a1.21,1.21,0,0,1-.54.45,2.09,2.09,0,0,1-.83.15,1.72,1.72,0,0,1-1.12-.34,1.09,1.09,0,0,1-.42-.89,1.07,1.07,0,0,1,.4-.88,1.94,1.94,0,0,1,1.28-.34h1.19v-.15a1,1,0,0,0-.28-.75,1.21,1.21,0,0,0-.83-.26,2.29,2.29,0,0,0-.73.13,2.14,2.14,0,0,0-.6.32L201,376a2.09,2.09,0,0,1,.77-.4A3.31,3.31,0,0,1,202.69,375.46Zm-.17,3.68a1.49,1.49,0,0,0,.75-.19,1.11,1.11,0,0,0,.45-.55v-.59h-1.16c-.64,0-1,.22-1,.65a.61.61,0,0,0,.24.5A1.12,1.12,0,0,0,202.52,379.14Zm5.71-3.68a1.71,1.71,0,0,1,1.26.47,1.79,1.79,0,0,1,.47,1.34v2.4h-.76v-2.31a1.27,1.27,0,0,0-.29-.92,1.1,1.1,0,0,0-.83-.3,1.31,1.31,0,0,0-1,.36,1.38,1.38,0,0,0-.35,1v2.15H206V375.5h.72v.63a1.53,1.53,0,0,1,.62-.5A2.28,2.28,0,0,1,208.23,375.46Zm7.21-1.63v5.84h-.73V379a1.62,1.62,0,0,1-.63.53,2,2,0,0,1-.85.18,2.18,2.18,0,0,1-1.09-.27,1.93,1.93,0,0,1-.75-.75,2.42,2.42,0,0,1,0-2.22,1.93,1.93,0,0,1,.75-.75,2.18,2.18,0,0,1,1.09-.27,2,2,0,0,1,.82.17,1.48,1.48,0,0,1,.63.5v-2.3Zm-2.15,5.23a1.48,1.48,0,0,0,.72-.18,1.39,1.39,0,0,0,.5-.52,1.65,1.65,0,0,0,.18-.77,1.59,1.59,0,0,0-.18-.77,1.32,1.32,0,0,0-.5-.52,1.48,1.48,0,0,0-.72-.18,1.35,1.35,0,0,0-1.23.7,1.59,1.59,0,0,0-.18.77,1.65,1.65,0,0,0,.18.77,1.49,1.49,0,0,0,.51.52A1.43,1.43,0,0,0,213.29,379.06ZM141.6,390.25a1.23,1.23,0,0,1-.41.22,1.7,1.7,0,0,1-.51.07,1.32,1.32,0,0,1-1-.34,1.29,1.29,0,0,1-.35-1v-2.29h-.71v-.62h.71v-.91h.76v.91h1.19v.62h-1.19v2.26a.74.74,0,0,0,.16.52.66.66,0,0,0,.49.18.91.91,0,0,0,.59-.19Zm1.76-3.23a1.29,1.29,0,0,1,.58-.55,2.22,2.22,0,0,1,.94-.19V387h-.18a1.25,1.25,0,0,0-1,.37,1.44,1.44,0,0,0-.35,1v2.07h-.76v-4.17h.73Zm4.08-.74a1.87,1.87,0,0,1,1.33.43,1.62,1.62,0,0,1,.46,1.27v2.51h-.72v-.55a1.1,1.1,0,0,1-.54.45,2.09,2.09,0,0,1-.83.15,1.72,1.72,0,0,1-1.12-.34,1.08,1.08,0,0,1-.42-.89,1.11,1.11,0,0,1,.4-.88,2,2,0,0,1,1.28-.34h1.19v-.15a.94.94,0,0,0-.28-.74,1.17,1.17,0,0,0-.83-.26,2.28,2.28,0,0,0-.73.12,2.14,2.14,0,0,0-.6.32l-.31-.56a2.09,2.09,0,0,1,.77-.4A3.31,3.31,0,0,1,147.44,386.28Zm-.17,3.68a1.39,1.39,0,0,0,.75-.19,1.11,1.11,0,0,0,.45-.55v-.58h-1.16c-.64,0-1,.21-1,.64a.59.59,0,0,0,.24.5A1.14,1.14,0,0,0,147.27,390Zm5.71-3.68a1.71,1.71,0,0,1,1.26.47,1.79,1.79,0,0,1,.47,1.34v2.4H154v-2.31a1.25,1.25,0,0,0-.29-.91,1.06,1.06,0,0,0-.83-.31,1.31,1.31,0,0,0-1,.36,1.38,1.38,0,0,0-.35,1v2.14h-.76v-4.17h.73V387a1.42,1.42,0,0,1,.61-.49A2.11,2.11,0,0,1,153,386.28Zm4.45,4.26a3.64,3.64,0,0,1-1-.13,2.43,2.43,0,0,1-.74-.36l.32-.6a2.09,2.09,0,0,0,.67.32,2.71,2.71,0,0,0,.79.12q1,0,1-.57a.38.38,0,0,0-.13-.3,1,1,0,0,0-.34-.16l-.56-.11c-.34-.06-.62-.12-.83-.18a1.3,1.3,0,0,1-.54-.35.93.93,0,0,1-.23-.69,1.08,1.08,0,0,1,.47-.9,2.1,2.1,0,0,1,1.27-.35,3.38,3.38,0,0,1,.83.11,2.21,2.21,0,0,1,.69.27l-.33.6a2.16,2.16,0,0,0-1.2-.33,1.34,1.34,0,0,0-.73.16.46.46,0,0,0-.25.41.39.39,0,0,0,.14.33,1.08,1.08,0,0,0,.34.17,6,6,0,0,0,.59.12,7.11,7.11,0,0,1,.81.19,1.36,1.36,0,0,1,.54.33.93.93,0,0,1,.22.67,1,1,0,0,1-.49.9A2.29,2.29,0,0,1,157.43,390.54Zm5.08-4.26a2.2,2.2,0,0,1,1.09.27,1.91,1.91,0,0,1,.74.75,2.13,2.13,0,0,1,.28,1.11,2.19,2.19,0,0,1-.28,1.12,1.88,1.88,0,0,1-.74.74,2.2,2.2,0,0,1-1.09.27,2.05,2.05,0,0,1-.83-.17,1.92,1.92,0,0,1-.63-.51V392h-.75v-5.7H161V387a1.62,1.62,0,0,1,.64-.52A2,2,0,0,1,162.51,386.28Zm-.06,3.6a1.41,1.41,0,0,0,.71-.18,1.34,1.34,0,0,0,.51-.52,1.62,1.62,0,0,0,.18-.77,1.59,1.59,0,0,0-.18-.77,1.25,1.25,0,0,0-.51-.51,1.33,1.33,0,0,0-.71-.19,1.43,1.43,0,0,0-.72.19,1.29,1.29,0,0,0-.5.51,1.59,1.59,0,0,0-.18.77,1.62,1.62,0,0,0,.18.77,1.32,1.32,0,0,0,.5.52A1.43,1.43,0,0,0,162.45,389.88Zm5.12.66a2.32,2.32,0,0,1-1.12-.27,2,2,0,0,1-.77-.76,2.14,2.14,0,0,1-.28-1.1,2.12,2.12,0,0,1,.28-1.1,1.92,1.92,0,0,1,.77-.75,2.22,2.22,0,0,1,1.12-.28,2.13,2.13,0,0,1,1.11.28,1.92,1.92,0,0,1,.77.75,2.12,2.12,0,0,1,.29,1.1,2.15,2.15,0,0,1-.29,1.1,2,2,0,0,1-.77.76A2.23,2.23,0,0,1,167.57,390.54Zm0-.66a1.43,1.43,0,0,0,.72-.18,1.39,1.39,0,0,0,.5-.52,1.62,1.62,0,0,0,.18-.77,1.59,1.59,0,0,0-.18-.77,1.29,1.29,0,0,0-.5-.51,1.46,1.46,0,0,0-1.44,0,1.39,1.39,0,0,0-.51.51,1.59,1.59,0,0,0-.18.77,1.62,1.62,0,0,0,.18.77,1.49,1.49,0,0,0,.51.52A1.43,1.43,0,0,0,167.57,389.88Zm4.06-2.86a1.29,1.29,0,0,1,.58-.55,2.22,2.22,0,0,1,.94-.19V387H173a1.25,1.25,0,0,0-1,.37,1.44,1.44,0,0,0-.35,1v2.07h-.76v-4.17h.73Zm5.09,3.23a1.23,1.23,0,0,1-.41.22,1.75,1.75,0,0,1-.51.07,1.2,1.2,0,0,1-1.32-1.31v-2.29h-.71v-.62h.71v-.91h.76v.91h1.19v.62h-1.19v2.26a.74.74,0,0,0,.16.52.66.66,0,0,0,.49.18.91.91,0,0,0,.59-.19Zm2.55-4a1.83,1.83,0,0,1,1.32.43,1.62,1.62,0,0,1,.47,1.27v2.51h-.72v-.55a1.1,1.1,0,0,1-.54.45,2.09,2.09,0,0,1-.83.15,1.72,1.72,0,0,1-1.12-.34,1.16,1.16,0,0,1,0-1.77,2,2,0,0,1,1.28-.34h1.19v-.15a.94.94,0,0,0-.28-.74,1.17,1.17,0,0,0-.83-.26,2.28,2.28,0,0,0-.73.12,2.14,2.14,0,0,0-.6.32l-.31-.56a2.09,2.09,0,0,1,.77-.4A3.31,3.31,0,0,1,179.27,386.28ZM179.1,390a1.39,1.39,0,0,0,.75-.19,1.11,1.11,0,0,0,.45-.55v-.58h-1.16c-.64,0-1,.21-1,.64a.59.59,0,0,0,.24.5A1.12,1.12,0,0,0,179.1,390Zm5.83.29a1.23,1.23,0,0,1-.41.22,1.75,1.75,0,0,1-.51.07,1.2,1.2,0,0,1-1.32-1.31v-2.29H182v-.62h.71v-.91h.76v.91h1.19v.62h-1.19v2.26a.74.74,0,0,0,.16.52.66.66,0,0,0,.49.18.91.91,0,0,0,.59-.19Zm1-3.93h.76v4.17H186Zm.38-.8a.53.53,0,0,1-.37-.14.5.5,0,0,1-.14-.35.48.48,0,0,1,.14-.34.5.5,0,0,1,.37-.15.45.45,0,0,1,.36.14.43.43,0,0,1,.15.34.5.5,0,0,1-.51.5Zm3.73,5a2.29,2.29,0,0,1-1.12-.27,2.11,2.11,0,0,1-.78-.76,2.24,2.24,0,0,1-.27-1.1,2.21,2.21,0,0,1,.27-1.1,2,2,0,0,1,.78-.75,2.36,2.36,0,0,1,2.23,0,1.92,1.92,0,0,1,.77.75,2.12,2.12,0,0,1,.28,1.1,2.14,2.14,0,0,1-.28,1.1,2,2,0,0,1-.77.76A2.28,2.28,0,0,1,190.07,390.54Zm0-.66a1.43,1.43,0,0,0,.72-.18,1.39,1.39,0,0,0,.5-.52,1.62,1.62,0,0,0,.18-.77,1.59,1.59,0,0,0-.18-.77,1.29,1.29,0,0,0-.5-.51,1.46,1.46,0,0,0-1.44,0,1.39,1.39,0,0,0-.51.51,1.59,1.59,0,0,0-.18.77,1.62,1.62,0,0,0,.18.77,1.49,1.49,0,0,0,.51.52A1.43,1.43,0,0,0,190.07,389.88Zm5.56-3.6a1.71,1.71,0,0,1,1.26.47,1.79,1.79,0,0,1,.47,1.34v2.4h-.75v-2.31a1.25,1.25,0,0,0-.3-.91,1.06,1.06,0,0,0-.83-.31,1.31,1.31,0,0,0-1,.36,1.43,1.43,0,0,0-.35,1v2.14h-.76v-4.17h.73V387a1.42,1.42,0,0,1,.61-.49A2.11,2.11,0,0,1,195.63,386.28Z" transform="translate(-138.53 -202.09)"/><path class="cls-5" d="M144.47,332.94v-4l-2,3.34h-.36l-2-3.32v4h-.76v-5.51H140l2.3,3.87,2.26-3.87h.65v5.51Zm6.19-2.06a2.2,2.2,0,0,1,0,.23h-3.39a1.34,1.34,0,0,0,.48.88,1.71,1.71,0,0,0,2.24-.17l.42.49a1.8,1.8,0,0,1-.71.5,2.35,2.35,0,0,1-.94.18,2.46,2.46,0,0,1-1.17-.27,2,2,0,0,1-.8-.76,2.28,2.28,0,0,1-.27-1.11,2.31,2.31,0,0,1,.26-1.09,2,2,0,0,1,.75-.76,2.16,2.16,0,0,1,1.08-.27,2.06,2.06,0,0,1,1.06.27,1.87,1.87,0,0,1,.74.76A2.37,2.37,0,0,1,150.66,330.88Zm-2.06-1.51a1.31,1.31,0,0,0-.91.33,1.34,1.34,0,0,0-.43.86h2.68a1.34,1.34,0,0,0-.43-.86A1.32,1.32,0,0,0,148.6,329.37Zm5.78,3.57-1.2-1.6-1.22,1.6h-.85l1.65-2.13-1.57-2H152l1.15,1.5,1.14-1.5h.83l-1.57,2,1.66,2.13Zm1.81-4.17h.75v4.17h-.75Zm.37-.81a.5.5,0,0,1-.37-.14.48.48,0,0,1-.14-.34.5.5,0,0,1,.14-.35.51.51,0,0,1,.37-.15.53.53,0,0,1,.37.14.46.46,0,0,1,.14.34.52.52,0,0,1-.14.36A.49.49,0,0,1,156.56,328Zm3.76,5a2.4,2.4,0,0,1-1.14-.28,2,2,0,0,1-.78-.75,2.29,2.29,0,0,1-.28-1.11,2.18,2.18,0,0,1,.28-1.09,2,2,0,0,1,.78-.76,2.4,2.4,0,0,1,1.14-.27,2.06,2.06,0,0,1,1,.23,1.57,1.57,0,0,1,.69.66l-.57.37a1.24,1.24,0,0,0-.49-.45,1.37,1.37,0,0,0-.64-.15,1.5,1.5,0,0,0-.74.18,1.22,1.22,0,0,0-.51.52,1.45,1.45,0,0,0-.19.76,1.5,1.5,0,0,0,.19.78,1.25,1.25,0,0,0,.51.51,1.51,1.51,0,0,0,.74.19,1.37,1.37,0,0,0,.64-.15,1.24,1.24,0,0,0,.49-.45l.57.36a1.65,1.65,0,0,1-.69.67A2.18,2.18,0,0,1,160.32,333Zm4.53,0a2.32,2.32,0,0,1-1.12-.28A2,2,0,0,1,163,332a2.28,2.28,0,0,1-.27-1.11,2.18,2.18,0,0,1,.27-1.09,2,2,0,0,1,.78-.76,2.32,2.32,0,0,1,1.12-.27A2.23,2.23,0,0,1,166,329a1.88,1.88,0,0,1,.77.76,2.09,2.09,0,0,1,.29,1.09,2.19,2.19,0,0,1-.29,1.11,1.92,1.92,0,0,1-.77.75A2.23,2.23,0,0,1,164.85,333Zm0-.66a1.43,1.43,0,0,0,.72-.19,1.26,1.26,0,0,0,.5-.52,1.59,1.59,0,0,0,.18-.77,1.55,1.55,0,0,0-.18-.76,1.26,1.26,0,0,0-.5-.52,1.53,1.53,0,0,0-1.44,0,1.34,1.34,0,0,0-.51.52,1.55,1.55,0,0,0-.18.76,1.59,1.59,0,0,0,.18.77,1.34,1.34,0,0,0,.51.52A1.43,1.43,0,0,0,164.85,332.33Zm9.34-1.45c0,.05,0,.13,0,.23h-3.38a1.34,1.34,0,0,0,.48.88,1.71,1.71,0,0,0,2.24-.17l.41.49a1.73,1.73,0,0,1-.71.5,2.3,2.3,0,0,1-.93.18,2.53,2.53,0,0,1-1.18-.27,2,2,0,0,1-.79-.76,2.29,2.29,0,0,1-.28-1.11,2.2,2.2,0,0,1,.27-1.09,2,2,0,0,1,.75-.76,2.16,2.16,0,0,1,1.08-.27,2.06,2.06,0,0,1,1.06.27,1.79,1.79,0,0,1,.73.76A2.26,2.26,0,0,1,174.19,330.88Zm-2.06-1.51a1.3,1.3,0,0,0-1.34,1.19h2.68a1.36,1.36,0,0,0-.44-.86A1.28,1.28,0,0,0,172.13,329.37Zm5.78,3.57-1.21-1.6-1.22,1.6h-.84l1.65-2.13-1.57-2h.84l1.15,1.5,1.14-1.5h.83l-1.58,2,1.67,2.13Zm4-4.21A2.18,2.18,0,0,1,183,329a1.84,1.84,0,0,1,.75.74,2.23,2.23,0,0,1,.27,1.11,2.26,2.26,0,0,1-.27,1.12,1.93,1.93,0,0,1-.75.75,2.18,2.18,0,0,1-1.09.27,1.89,1.89,0,0,1-.82-.18,1.61,1.61,0,0,1-.63-.5v2.16h-.76v-5.7h.73v.66a1.59,1.59,0,0,1,.63-.52A2,2,0,0,1,181.92,328.73Zm-.06,3.6a1.43,1.43,0,0,0,.72-.19,1.26,1.26,0,0,0,.5-.52,1.49,1.49,0,0,0,.19-.77,1.45,1.45,0,0,0-.19-.76,1.26,1.26,0,0,0-.5-.52,1.43,1.43,0,0,0-.72-.18,1.33,1.33,0,0,0-.71.19,1.39,1.39,0,0,0-.51.51,1.55,1.55,0,0,0-.18.76,1.59,1.59,0,0,0,.18.77,1.22,1.22,0,0,0,.51.52A1.42,1.42,0,0,0,181.86,332.33ZM187,333a2.3,2.3,0,0,1-1.12-.28,2,2,0,0,1-.78-.75,2.28,2.28,0,0,1-.27-1.11,2.18,2.18,0,0,1,.27-1.09,2,2,0,0,1,.78-.76,2.44,2.44,0,0,1,2.23,0,1.94,1.94,0,0,1,.77.76,2.08,2.08,0,0,1,.28,1.09,2.18,2.18,0,0,1-.28,1.11,2,2,0,0,1-.77.75A2.29,2.29,0,0,1,187,333Zm0-.66a1.42,1.42,0,0,0,.71-.19,1.22,1.22,0,0,0,.51-.52,1.59,1.59,0,0,0,.18-.77,1.55,1.55,0,0,0-.18-.76,1.22,1.22,0,0,0-.51-.52,1.41,1.41,0,0,0-.71-.18,1.49,1.49,0,0,0-.73.18,1.32,1.32,0,0,0-.5.52,1.55,1.55,0,0,0-.18.76,1.59,1.59,0,0,0,.18.77,1.32,1.32,0,0,0,.5.52A1.5,1.5,0,0,0,187,332.33Zm4-2.86a1.31,1.31,0,0,1,.59-.55,2,2,0,0,1,.93-.19v.73h-.17a1.31,1.31,0,0,0-1,.37,1.45,1.45,0,0,0-.34,1v2.08h-.76v-4.17H191Zm5.09,3.23a1.32,1.32,0,0,1-.41.22,2.08,2.08,0,0,1-.5.07,1.37,1.37,0,0,1-1-.34,1.3,1.3,0,0,1-.34-1v-2.29h-.71v-.62h.71v-.92h.75v.92h1.2v.62h-1.2v2.26a.76.76,0,0,0,.17.52.64.64,0,0,0,.49.18.94.94,0,0,0,.59-.2Zm2.23.29a3.57,3.57,0,0,1-1-.14,2.22,2.22,0,0,1-.74-.35l.32-.6a2.25,2.25,0,0,0,.66.32,3.15,3.15,0,0,0,.8.11c.66,0,1-.19,1-.56a.35.35,0,0,0-.13-.3.72.72,0,0,0-.34-.16,4.48,4.48,0,0,0-.57-.12,5.15,5.15,0,0,1-.82-.18,1.29,1.29,0,0,1-.55-.35,1,1,0,0,1-.23-.68,1.07,1.07,0,0,1,.48-.91,2.07,2.07,0,0,1,1.26-.34,3.44,3.44,0,0,1,.84.1,2.14,2.14,0,0,1,.68.28l-.32.59a2.16,2.16,0,0,0-1.2-.33,1.48,1.48,0,0,0-.74.16.5.5,0,0,0-.25.42.42.42,0,0,0,.14.32.82.82,0,0,0,.35.17l.59.13a5.46,5.46,0,0,1,.81.19,1.17,1.17,0,0,1,.54.33,1,1,0,0,1,.22.66,1.08,1.08,0,0,1-.49.91A2.3,2.3,0,0,1,198.36,333Z" transform="translate(-138.53 -202.09)"/><rect class="cls-6" x="157.42" width="11.81" height="11.81"/><path class="cls-7" d="M138.54,519.38H451.89" transform="translate(-138.53 -202.09)"/><path class="cls-8" d="M244.3,263.58v1.19h1v-1.19Zm0,3.59v2.39h1v-2.39Zm0,4.78v2.39h1V272Zm0,4.79v2.39h1v-2.39Zm0,4.78v2.4h1v-2.4Zm0,4.79v2.39h1v-2.39Zm0,4.78v2.39h1v-2.39Zm0,4.79v2.39h1v-2.39Zm0,4.78v2.4h1v-2.4Zm0,4.79v2.39h1v-2.39Zm0,4.78v2.4h1v-2.4Zm0,4.79v1.19h1V315Z" transform="translate(-138.53 -202.09)"/><path class="cls-9" d="M268.4,316.21v1.19h1v-1.19Zm0,3.56v2.37h1v-2.37Zm0,4.74v2.37h1v-2.37Zm0,4.74v2.37h1v-2.37Zm0,4.74v2.37h1V334Zm0,4.74v2.37h1v-2.37Zm0,4.74v2.37h1v-2.37Zm0,4.74v2.37h1v-2.37Zm0,4.74v2.37h1V353Zm0,4.74v2.37h1v-2.37Zm0,4.74v2.37h1v-2.37Zm0,4.74v1.19h1v-1.19Z" transform="translate(-138.53 -202.09)"/><path class="cls-9" d="M304.31,368.85V370h1v-1.18Zm0,3.55v2.37h1V372.4Zm0,4.75v2.37h1v-2.37Zm0,4.74v2.37h1v-2.37Zm0,4.74V389h1v-2.37Zm0,4.74v2.37h1v-2.37Zm0,4.74v2.37h1v-2.37Zm0,4.74v2.37h1v-2.37Zm0,4.74V408h1v-2.37Zm0,4.74v2.37h1v-2.37Zm0,4.74v2.37h1v-2.37Zm0,4.74V421h1v-1.18Z" transform="translate(-138.53 -202.09)"/><path class="cls-9" d="M323,421v1.2h1V421Zm0,3.59V427h1v-2.39Zm0,4.79v2.39h1v-2.39Zm0,4.78v2.39h1v-2.39Zm0,4.79v2.39h1v-2.39Zm0,4.78v2.39h1v-2.39Zm0,4.79v2.39h1v-2.39Zm0,4.78v2.39h1v-2.39Zm0,4.79v2.39h1v-2.39Zm0,4.78v2.39h1v-2.39Zm0,4.79V470h1v-2.39Zm0,4.78v1.2h1v-1.2Z" transform="translate(-138.53 -202.09)"/><path class="cls-9" d="M384.5,473.63v1.18h1v-1.18Zm0,3.55v2.37h1v-2.37Zm0,4.74v2.37h1v-2.37Zm0,4.74V489h1v-2.37Zm0,4.74v2.37h1V491.4Zm0,4.74v2.37h1v-2.37Zm0,4.74v2.37h1v-2.37Zm0,4.74V508h1v-2.38Zm0,4.75v2.37h1v-2.37Zm0,4.74v2.37h1v-2.37Zm0,4.74v2.37h1v-2.37Zm0,4.74v1.18h1v-1.18Z" transform="translate(-138.53 -202.09)"/><rect class="cls-3" x="0.01" width="11.81" height="11.81"/><path class="cls-10" d="M144.1,583.23v5.51h-.64l-3.31-4.11v4.11h-.79v-5.51H140l3.3,4.11v-4.11Zm3.45,5.55a2.29,2.29,0,0,1-1.12-.27,2,2,0,0,1-.78-.76,2.21,2.21,0,0,1-.27-1.1,2.18,2.18,0,0,1,.27-1.09,2,2,0,0,1,.78-.76,2.44,2.44,0,0,1,2.23,0,1.88,1.88,0,0,1,.77.76,2.08,2.08,0,0,1,.28,1.09,2.12,2.12,0,0,1-.28,1.1,1.94,1.94,0,0,1-.77.76A2.28,2.28,0,0,1,147.55,588.78Zm0-.66a1.43,1.43,0,0,0,.72-.18,1.32,1.32,0,0,0,.5-.52,1.59,1.59,0,0,0,.18-.77,1.55,1.55,0,0,0-.18-.76,1.26,1.26,0,0,0-.5-.52,1.53,1.53,0,0,0-1.44,0,1.34,1.34,0,0,0-.51.52,1.55,1.55,0,0,0-.18.76,1.59,1.59,0,0,0,.18.77,1.35,1.35,0,0,0,1.23.7Zm5.68.37a1.08,1.08,0,0,1-.41.22,1.7,1.7,0,0,1-.51.07,1.34,1.34,0,0,1-1-.33,1.31,1.31,0,0,1-.35-1v-2.29h-.71v-.62H151v-.92h.76v.92h1.19v.62h-1.19v2.26a.75.75,0,0,0,.16.52.66.66,0,0,0,.49.18.92.92,0,0,0,.59-.2Zm4.67-1.82c0,.06,0,.14,0,.23H154.5a1.26,1.26,0,0,0,.48.89,1.59,1.59,0,0,0,1,.33,1.53,1.53,0,0,0,1.2-.5l.42.49a1.8,1.8,0,0,1-.71.5,2.35,2.35,0,0,1-.94.17,2.46,2.46,0,0,1-1.17-.26,2,2,0,0,1-.79-.77,2.12,2.12,0,0,1-.28-1.1,2.2,2.2,0,0,1,.27-1.09,1.89,1.89,0,0,1,.75-.76,2.13,2.13,0,0,1,1.07-.27,2.1,2.1,0,0,1,1.07.27,1.91,1.91,0,0,1,.73.76A2.25,2.25,0,0,1,157.9,586.67Zm-2.07-1.51a1.28,1.28,0,0,0-1.33,1.2h2.67a1.32,1.32,0,0,0-1.34-1.2Zm3.42.44a.53.53,0,0,1-.54-.54.53.53,0,0,1,.16-.38.54.54,0,0,1,.38-.15.5.5,0,0,1,.37.15.5.5,0,0,1,.15.38.5.5,0,0,1-.16.39A.49.49,0,0,1,159.25,585.6Zm0,3.18a.53.53,0,0,1-.54-.54.53.53,0,0,1,.16-.38.54.54,0,0,1,.38-.15.5.5,0,0,1,.37.15.5.5,0,0,1,.15.38.5.5,0,0,1-.16.39A.49.49,0,0,1,159.25,588.78Zm7.89-2.83h.75v2.15a2.82,2.82,0,0,1-.95.52,3.56,3.56,0,0,1-1.13.18,3.15,3.15,0,0,1-1.51-.36,2.87,2.87,0,0,1-1.05-3.91,2.73,2.73,0,0,1,1.05-1,3.22,3.22,0,0,1,1.52-.37,3.29,3.29,0,0,1,1.2.22,2.6,2.6,0,0,1,.92.63l-.49.49a2.22,2.22,0,0,0-1.59-.63,2.4,2.4,0,0,0-1.14.27,2,2,0,0,0-.78.76,2.07,2.07,0,0,0-.28,1.08,2.13,2.13,0,0,0,.28,1.09,2,2,0,0,0,.78.75,2.26,2.26,0,0,0,1.13.28,2.4,2.4,0,0,0,1.29-.35Zm3.79-1.42a1.87,1.87,0,0,1,1.32.42,1.64,1.64,0,0,1,.47,1.27v2.52H172v-.55a1.14,1.14,0,0,1-.54.44,2.09,2.09,0,0,1-.83.15,1.78,1.78,0,0,1-1.12-.33,1.17,1.17,0,0,1,0-1.78,2,2,0,0,1,1.28-.33H172v-.15a1,1,0,0,0-.28-.75,1.21,1.21,0,0,0-.83-.26,2,2,0,0,0-.73.13,1.73,1.73,0,0,0-.6.32l-.31-.57a2.23,2.23,0,0,1,.77-.39A3,3,0,0,1,170.93,584.53Zm-.17,3.67a1.39,1.39,0,0,0,.75-.19,1.07,1.07,0,0,0,.45-.55v-.58H170.8c-.64,0-1,.21-1,.64a.58.58,0,0,0,.24.5A1.12,1.12,0,0,0,170.76,588.2Zm4.68.58a3.64,3.64,0,0,1-1-.13,2.22,2.22,0,0,1-.74-.35l.32-.6a2.19,2.19,0,0,0,.67.31,2.66,2.66,0,0,0,.79.12q1,0,1-.57a.35.35,0,0,0-.13-.29.72.72,0,0,0-.34-.16,4.48,4.48,0,0,0-.57-.12,5.15,5.15,0,0,1-.82-.18,1.29,1.29,0,0,1-.55-.35,1,1,0,0,1-.22-.68,1.06,1.06,0,0,1,.47-.91,2.1,2.1,0,0,1,1.27-.34,3.42,3.42,0,0,1,.83.1,2.48,2.48,0,0,1,.69.27l-.33.6a2.16,2.16,0,0,0-1.2-.33,1.32,1.32,0,0,0-.73.16.47.47,0,0,0-.26.42.39.39,0,0,0,.15.32.78.78,0,0,0,.34.17l.59.13a5.46,5.46,0,0,1,.81.19,1.17,1.17,0,0,1,.54.33.91.91,0,0,1,.22.66,1,1,0,0,1-.49.9A2.29,2.29,0,0,1,175.44,588.78Zm10.32-4.25A1.67,1.67,0,0,1,187,585a1.84,1.84,0,0,1,.47,1.36v2.4h-.76v-2.32a1.29,1.29,0,0,0-.28-.91,1,1,0,0,0-.79-.31,1.18,1.18,0,0,0-.92.37,1.42,1.42,0,0,0-.34,1v2.15h-.75v-2.32a1.29,1.29,0,0,0-.29-.91,1,1,0,0,0-.79-.31,1.16,1.16,0,0,0-.91.37,1.38,1.38,0,0,0-.34,1v2.15h-.76v-4.17h.73v.62a1.38,1.38,0,0,1,.6-.49,2.1,2.1,0,0,1,1.7,0,1.38,1.38,0,0,1,.59.58,1.58,1.58,0,0,1,.65-.57A2.1,2.1,0,0,1,185.76,584.53Zm7,2.14c0,.06,0,.14,0,.23h-3.38a1.26,1.26,0,0,0,.48.89,1.59,1.59,0,0,0,1,.33,1.51,1.51,0,0,0,1.2-.5l.42.49a1.8,1.8,0,0,1-.71.5,2.35,2.35,0,0,1-.94.17,2.46,2.46,0,0,1-1.17-.26,2,2,0,0,1-.79-.77,2.12,2.12,0,0,1-.28-1.1,2.2,2.2,0,0,1,.27-1.09,1.89,1.89,0,0,1,.75-.76,2.13,2.13,0,0,1,1.07-.27,2.1,2.1,0,0,1,1.07.27,1.91,1.91,0,0,1,.73.76A2.25,2.25,0,0,1,192.78,586.67Zm-2.07-1.51a1.28,1.28,0,0,0-1.33,1.2h2.67a1.32,1.32,0,0,0-1.34-1.2Zm4.64-.63a1.87,1.87,0,0,1,1.32.42,1.64,1.64,0,0,1,.47,1.27v2.52h-.72v-.55a1.19,1.19,0,0,1-.54.44,2.09,2.09,0,0,1-.83.15,1.78,1.78,0,0,1-1.12-.33,1.17,1.17,0,0,1,0-1.78,2,2,0,0,1,1.28-.33h1.19v-.15a1,1,0,0,0-.28-.75,1.22,1.22,0,0,0-.84-.26,2,2,0,0,0-.72.13,1.64,1.64,0,0,0-.6.32l-.31-.57a2.23,2.23,0,0,1,.77-.39A3,3,0,0,1,195.35,584.53Zm-.17,3.67a1.39,1.39,0,0,0,.75-.19,1.07,1.07,0,0,0,.45-.55v-.58h-1.16c-.64,0-1,.21-1,.64a.58.58,0,0,0,.24.5A1.12,1.12,0,0,0,195.18,588.2Zm4.68.58a3.58,3.58,0,0,1-1-.13,2.22,2.22,0,0,1-.74-.35l.32-.6a2.19,2.19,0,0,0,.67.31,2.66,2.66,0,0,0,.79.12q1,0,1-.57a.35.35,0,0,0-.13-.29.72.72,0,0,0-.34-.16,4.48,4.48,0,0,0-.57-.12,5.15,5.15,0,0,1-.82-.18,1.29,1.29,0,0,1-.55-.35,1,1,0,0,1-.22-.68,1.06,1.06,0,0,1,.47-.91,2.1,2.1,0,0,1,1.27-.34,3.42,3.42,0,0,1,.83.1,2.29,2.29,0,0,1,.68.27l-.32.6a2.16,2.16,0,0,0-1.2-.33,1.32,1.32,0,0,0-.73.16.47.47,0,0,0-.26.42.39.39,0,0,0,.15.32.73.73,0,0,0,.34.17l.59.13a5.46,5.46,0,0,1,.81.19,1.17,1.17,0,0,1,.54.33,1,1,0,0,1,.22.66,1,1,0,0,1-.49.9A2.29,2.29,0,0,1,199.86,588.78Zm6.75-4.21v4.17h-.71v-.63a1.58,1.58,0,0,1-.61.5,2.09,2.09,0,0,1-2.12-.28,1.82,1.82,0,0,1-.48-1.36v-2.4h.75v2.31a1.33,1.33,0,0,0,.29.92,1.09,1.09,0,0,0,.84.31,1.24,1.24,0,0,0,.94-.36,1.46,1.46,0,0,0,.35-1v-2.15Zm2.29.7a1.19,1.19,0,0,1,.58-.55,2.07,2.07,0,0,1,.94-.19v.73h-.18a1.25,1.25,0,0,0-1,.37,1.45,1.45,0,0,0-.35,1v2.08h-.76v-4.17h.73Zm6.3,1.4a2,2,0,0,1,0,.23H211.8a1.34,1.34,0,0,0,.48.89,1.63,1.63,0,0,0,1,.33,1.53,1.53,0,0,0,1.21-.5l.42.49a1.8,1.8,0,0,1-.71.5,2.35,2.35,0,0,1-.94.17,2.46,2.46,0,0,1-1.17-.26,2,2,0,0,1-.8-.77,2.36,2.36,0,0,1,0-2.19,1.93,1.93,0,0,1,.74-.76,2.16,2.16,0,0,1,1.08-.27,2.06,2.06,0,0,1,1.06.27,1.87,1.87,0,0,1,.74.76A2.36,2.36,0,0,1,215.2,586.67Zm-2.06-1.51a1.32,1.32,0,0,0-.91.33,1.39,1.39,0,0,0-.43.87h2.68a1.34,1.34,0,0,0-.43-.86A1.31,1.31,0,0,0,213.14,585.16Zm7.17-2.26v5.84h-.72v-.66a1.62,1.62,0,0,1-.64.52,2,2,0,0,1-.85.18,2.2,2.2,0,0,1-1.09-.26,1.93,1.93,0,0,1-.75-.75,2.29,2.29,0,0,1-.27-1.12,2.23,2.23,0,0,1,.27-1.11,1.93,1.93,0,0,1,.75-.75,2.31,2.31,0,0,1,1.09-.26,1.93,1.93,0,0,1,.83.17,1.53,1.53,0,0,1,.63.5v-2.3Zm-2.15,5.22a1.45,1.45,0,0,0,.72-.18,1.32,1.32,0,0,0,.5-.52,1.59,1.59,0,0,0,.18-.77,1.55,1.55,0,0,0-.18-.76,1.26,1.26,0,0,0-.5-.52,1.53,1.53,0,0,0-1.44,0,1.34,1.34,0,0,0-.51.52,1.55,1.55,0,0,0-.18.76,1.59,1.59,0,0,0,.18.77,1.41,1.41,0,0,0,.51.52A1.45,1.45,0,0,0,218.16,588.12Zm5.94-3.55h.76v4.17h-.76Zm.38-.81a.49.49,0,0,1-.37-.14.45.45,0,0,1-.14-.35.44.44,0,0,1,.14-.34.5.5,0,0,1,.37-.15.49.49,0,0,1,.36.14.43.43,0,0,1,.15.34.49.49,0,0,1-.15.36A.45.45,0,0,1,224.48,583.76Zm4.17.77a1.7,1.7,0,0,1,1.26.46,1.81,1.81,0,0,1,.47,1.35v2.4h-.75v-2.32a1.25,1.25,0,0,0-.3-.91,1.1,1.1,0,0,0-.83-.31,1.27,1.27,0,0,0-1,.37,1.39,1.39,0,0,0-.35,1v2.15h-.76v-4.17h.73v.63a1.37,1.37,0,0,1,.61-.5A2.11,2.11,0,0,1,228.65,584.53Zm7.7,0a2.31,2.31,0,0,1,1.09.26,1.84,1.84,0,0,1,.74.75,2.13,2.13,0,0,1,.28,1.11,2.19,2.19,0,0,1-.28,1.12,1.84,1.84,0,0,1-.74.75,2.2,2.2,0,0,1-1.09.26,2,2,0,0,1-.85-.18,1.62,1.62,0,0,1-.64-.52v.66h-.72V582.9h.75v2.3a1.53,1.53,0,0,1,.63-.5A1.93,1.93,0,0,1,236.35,584.53Zm-.06,3.59a1.39,1.39,0,0,0,.71-.18,1.28,1.28,0,0,0,.51-.52,1.6,1.6,0,0,0,.19-.77,1.56,1.56,0,0,0-.19-.76,1.22,1.22,0,0,0-.51-.52,1.39,1.39,0,0,0-.71-.18,1.48,1.48,0,0,0-.72.18,1.26,1.26,0,0,0-.5.52,1.55,1.55,0,0,0-.18.76,1.59,1.59,0,0,0,.18.77,1.32,1.32,0,0,0,.5.52A1.48,1.48,0,0,0,236.29,588.12Zm3.34-3.55h.75v4.17h-.75Zm.37-.81a.5.5,0,0,1-.37-.14.48.48,0,0,1-.14-.35.48.48,0,0,1,.14-.34.51.51,0,0,1,.37-.15.53.53,0,0,1,.37.14.43.43,0,0,1,.15.34.5.5,0,0,1-.52.5Zm1.95-.86h.75v5.84H242Zm2.32,0H245v5.84h-.75Zm2.32,1.67h.76v4.17h-.76Zm.38-.81a.49.49,0,0,1-.37-.14.45.45,0,0,1-.14-.35.44.44,0,0,1,.14-.34.5.5,0,0,1,.37-.15.49.49,0,0,1,.36.14.43.43,0,0,1,.15.34.49.49,0,0,1-.15.36A.45.45,0,0,1,247,583.76Zm3.73,5a2.29,2.29,0,0,1-1.12-.27,2,2,0,0,1-.78-.76,2.21,2.21,0,0,1-.27-1.1,2.18,2.18,0,0,1,.27-1.09,2,2,0,0,1,.78-.76,2.44,2.44,0,0,1,2.23,0,1.88,1.88,0,0,1,.77.76,2.08,2.08,0,0,1,.28,1.09,2.12,2.12,0,0,1-.28,1.1,1.94,1.94,0,0,1-.77.76A2.28,2.28,0,0,1,250.7,588.78Zm0-.66a1.39,1.39,0,0,0,.71-.18,1.28,1.28,0,0,0,.51-.52,1.59,1.59,0,0,0,.18-.77,1.55,1.55,0,0,0-.18-.76,1.22,1.22,0,0,0-.51-.52,1.39,1.39,0,0,0-.71-.18,1.49,1.49,0,0,0-.73.18,1.32,1.32,0,0,0-.5.52,1.55,1.55,0,0,0-.18.76,1.59,1.59,0,0,0,.18.77,1.39,1.39,0,0,0,.5.52A1.49,1.49,0,0,0,250.7,588.12Zm5.56-3.59a1.7,1.7,0,0,1,1.26.46,1.81,1.81,0,0,1,.47,1.35v2.4h-.76v-2.32a1.25,1.25,0,0,0-.29-.91,1.1,1.1,0,0,0-.83-.31,1.27,1.27,0,0,0-1,.37,1.35,1.35,0,0,0-.35,1v2.15H254v-4.17h.73v.63a1.37,1.37,0,0,1,.61-.5A2.11,2.11,0,0,1,256.26,584.53Zm7.31,4.25a2.34,2.34,0,0,1-1.14-.27,1.9,1.9,0,0,1-.78-.76,2.12,2.12,0,0,1-.29-1.1,2.09,2.09,0,0,1,.29-1.09,1.85,1.85,0,0,1,.78-.76,2.34,2.34,0,0,1,1.14-.27,2.16,2.16,0,0,1,1,.22,1.74,1.74,0,0,1,.7.67l-.58.37a1.24,1.24,0,0,0-.49-.45,1.37,1.37,0,0,0-.64-.15,1.53,1.53,0,0,0-.74.18,1.22,1.22,0,0,0-.51.52,1.55,1.55,0,0,0-.18.76,1.63,1.63,0,0,0,.18.78,1.25,1.25,0,0,0,.51.51,1.53,1.53,0,0,0,.74.18,1.37,1.37,0,0,0,.64-.15,1.24,1.24,0,0,0,.49-.45l.58.37a1.74,1.74,0,0,1-.7.67A2.16,2.16,0,0,1,263.57,588.78Zm6.69-4.21v4.17h-.72v-.63a1.58,1.58,0,0,1-.61.5,1.78,1.78,0,0,1-.81.17,1.84,1.84,0,0,1-1.31-.45,1.82,1.82,0,0,1-.48-1.36v-2.4h.75v2.31a1.33,1.33,0,0,0,.29.92,1.1,1.1,0,0,0,.84.31,1.24,1.24,0,0,0,.94-.36,1.46,1.46,0,0,0,.35-1v-2.15Zm3.77,0a2.27,2.27,0,0,1,1.08.26,1.93,1.93,0,0,1,.75.75,2.13,2.13,0,0,1,.28,1.11,2.19,2.19,0,0,1-.28,1.12,1.93,1.93,0,0,1-.75.75,2.16,2.16,0,0,1-1.08.26,2,2,0,0,1-.85-.18,1.62,1.62,0,0,1-.64-.52v.66h-.72V582.9h.75v2.3a1.53,1.53,0,0,1,.63-.5A1.9,1.9,0,0,1,274,584.53Zm-.06,3.59a1.41,1.41,0,0,0,.71-.18,1.34,1.34,0,0,0,.51-.52,1.59,1.59,0,0,0,.18-.77,1.55,1.55,0,0,0-.18-.76,1.28,1.28,0,0,0-.51-.52,1.51,1.51,0,0,0-1.43,0,1.2,1.2,0,0,0-.5.52,1.45,1.45,0,0,0-.19.76,1.49,1.49,0,0,0,.19.77,1.25,1.25,0,0,0,.5.52A1.43,1.43,0,0,0,274,588.12Zm3.34-3.55h.75v4.17h-.75Zm.37-.81a.5.5,0,0,1-.37-.14.48.48,0,0,1-.14-.35.48.48,0,0,1,.14-.34.51.51,0,0,1,.37-.15.49.49,0,0,1,.36.14.43.43,0,0,1,.15.34.49.49,0,0,1-.15.36A.45.45,0,0,1,277.68,583.76Zm3.76,5a2.4,2.4,0,0,1-1.14-.27,2,2,0,0,1-.78-.76,2.12,2.12,0,0,1-.28-1.1,2.08,2.08,0,0,1,.28-1.09,2,2,0,0,1,.78-.76,2.4,2.4,0,0,1,1.14-.27,2.18,2.18,0,0,1,1,.22,1.65,1.65,0,0,1,.69.67l-.57.37a1.24,1.24,0,0,0-.49-.45,1.37,1.37,0,0,0-.64-.15,1.5,1.5,0,0,0-.74.18,1.3,1.3,0,0,0-.52.52,1.55,1.55,0,0,0-.18.76,1.63,1.63,0,0,0,.18.78,1.34,1.34,0,0,0,.52.51,1.5,1.5,0,0,0,.74.18,1.37,1.37,0,0,0,.64-.15,1.24,1.24,0,0,0,.49-.45l.57.37a1.65,1.65,0,0,1-.69.67A2.18,2.18,0,0,1,281.44,588.78Zm6.57-5.31c-.45,0-.68.25-.68.73v.37h1.21v.62h-1.19v3.55h-.76v-3.55h-.71v-.62h.71v-.37a1.34,1.34,0,0,1,.36-1,1.4,1.4,0,0,1,1-.36,1.73,1.73,0,0,1,.47.06,1.22,1.22,0,0,1,.38.18l-.23.58A1,1,0,0,0,288,583.47Zm5.08,3.2c0,.06,0,.14,0,.23h-3.38a1.34,1.34,0,0,0,.48.89,1.61,1.61,0,0,0,1,.33,1.51,1.51,0,0,0,1.2-.5l.42.49a1.73,1.73,0,0,1-.71.5,2.33,2.33,0,0,1-.93.17,2.5,2.5,0,0,1-1.18-.26,2,2,0,0,1-.79-.77,2.12,2.12,0,0,1-.28-1.1,2.2,2.2,0,0,1,.27-1.09,1.89,1.89,0,0,1,.75-.76,2.16,2.16,0,0,1,1.08-.27,2.06,2.06,0,0,1,1.06.27,1.85,1.85,0,0,1,.73.76A2.25,2.25,0,0,1,293.09,586.67ZM291,585.16a1.28,1.28,0,0,0-1.34,1.2h2.67a1.32,1.32,0,0,0-1.33-1.2Zm7,1.51a1,1,0,0,1,0,.23h-3.38a1.34,1.34,0,0,0,.48.89,1.61,1.61,0,0,0,1,.33,1.55,1.55,0,0,0,1.21-.5l.41.49a1.73,1.73,0,0,1-.71.5,2.3,2.3,0,0,1-.93.17,2.46,2.46,0,0,1-1.17-.26,2,2,0,0,1-.8-.77,2.32,2.32,0,0,1,0-2.19,2,2,0,0,1,.75-.76,2.16,2.16,0,0,1,1.08-.27,2.06,2.06,0,0,1,1.06.27,1.79,1.79,0,0,1,.73.76A2.25,2.25,0,0,1,298,586.67ZM296,585.16a1.3,1.3,0,0,0-1.34,1.2h2.68a1.36,1.36,0,0,0-.44-.86A1.29,1.29,0,0,0,296,585.16Zm5.58,3.33a1.08,1.08,0,0,1-.41.22,1.68,1.68,0,0,1-.5.07,1.37,1.37,0,0,1-1-.33,1.31,1.31,0,0,1-.35-1v-2.29h-.71v-.62h.71v-.92h.76v.92h1.19v.62h-1.19v2.26a.75.75,0,0,0,.16.52.66.66,0,0,0,.49.18.92.92,0,0,0,.59-.2Zm5.48-4a2.28,2.28,0,0,1,1.09.26,1.93,1.93,0,0,1,.75.75,2.23,2.23,0,0,1,.27,1.11,2.29,2.29,0,0,1-.27,1.12,1.93,1.93,0,0,1-.75.75,2.17,2.17,0,0,1-1.09.26,1.85,1.85,0,0,1-.82-.17,1.61,1.61,0,0,1-.63-.5v2.15h-.76v-5.69h.73v.66a1.51,1.51,0,0,1,.63-.52A2,2,0,0,1,307,584.53Zm-.06,3.59a1.43,1.43,0,0,0,.72-.18,1.32,1.32,0,0,0,.5-.52,1.49,1.49,0,0,0,.19-.77,1.45,1.45,0,0,0-.19-.76,1.26,1.26,0,0,0-.5-.52,1.43,1.43,0,0,0-.72-.18,1.39,1.39,0,0,0-.72.19,1.36,1.36,0,0,0-.5.51,1.55,1.55,0,0,0-.18.76,1.59,1.59,0,0,0,.18.77,1.32,1.32,0,0,0,.5.52A1.48,1.48,0,0,0,307,588.12Zm7.11-1.45c0,.06,0,.14,0,.23h-3.38a1.34,1.34,0,0,0,.48.89,1.61,1.61,0,0,0,1,.33,1.51,1.51,0,0,0,1.2-.5l.42.49a1.73,1.73,0,0,1-.71.5,2.3,2.3,0,0,1-.93.17,2.53,2.53,0,0,1-1.18-.26,2,2,0,0,1-.79-.77,2.32,2.32,0,0,1,0-2.19,2,2,0,0,1,.75-.76,2.16,2.16,0,0,1,1.08-.27,2.06,2.06,0,0,1,1.06.27,1.85,1.85,0,0,1,.73.76A2.25,2.25,0,0,1,314.08,586.67ZM312,585.16a1.35,1.35,0,0,0-.92.33,1.34,1.34,0,0,0-.42.87h2.68a1.36,1.36,0,0,0-.44-.86A1.29,1.29,0,0,0,312,585.16Zm4,.11a1.19,1.19,0,0,1,.58-.55,2.06,2.06,0,0,1,.93-.19v.73h-.17a1.27,1.27,0,0,0-1,.37,1.45,1.45,0,0,0-.34,1v2.08h-.76v-4.17H316Zm8.8-2.37v5.84h-.73v-.66a1.62,1.62,0,0,1-.64.52,2,2,0,0,1-.85.18,2.16,2.16,0,0,1-1.08-.26,2,2,0,0,1-.76-.75,2.29,2.29,0,0,1-.27-1.12,2.23,2.23,0,0,1,.27-1.11,2,2,0,0,1,.76-.75,2.27,2.27,0,0,1,1.08-.26,1.9,1.9,0,0,1,.83.17,1.53,1.53,0,0,1,.63.5v-2.3Zm-2.15,5.22a1.41,1.41,0,0,0,.71-.18,1.28,1.28,0,0,0,.51-.52,1.59,1.59,0,0,0,.18-.77,1.55,1.55,0,0,0-.18-.76,1.22,1.22,0,0,0-.51-.52,1.41,1.41,0,0,0-.71-.18,1.49,1.49,0,0,0-.73.18,1.26,1.26,0,0,0-.5.52,1.55,1.55,0,0,0-.18.76,1.59,1.59,0,0,0,.18.77,1.32,1.32,0,0,0,.5.52A1.49,1.49,0,0,0,322.63,588.12Zm5.22-3.59a1.9,1.9,0,0,1,1.32.42,1.63,1.63,0,0,1,.46,1.27v2.52h-.71v-.55a1.21,1.21,0,0,1-.55.44,2,2,0,0,1-.82.15,1.81,1.81,0,0,1-1.13-.33,1.18,1.18,0,0,1,0-1.78,2,2,0,0,1,1.27-.33h1.2v-.15a1,1,0,0,0-.29-.75,1.18,1.18,0,0,0-.83-.26,2,2,0,0,0-.72.13,1.57,1.57,0,0,0-.6.32l-.32-.57a2.43,2.43,0,0,1,.77-.39A3,3,0,0,1,327.85,584.53Zm-.18,3.67a1.39,1.39,0,0,0,.75-.19,1.13,1.13,0,0,0,.46-.55v-.58h-1.17c-.64,0-1,.21-1,.64a.57.57,0,0,0,.25.5A1.09,1.09,0,0,0,327.67,588.2Zm7.1-3.63-2,4.58a2,2,0,0,1-.63.9,1.46,1.46,0,0,1-.86.26,1.72,1.72,0,0,1-.6-.1,1.16,1.16,0,0,1-.47-.28l.32-.57a1.1,1.1,0,0,0,.75.31.73.73,0,0,0,.46-.15,1.27,1.27,0,0,0,.33-.5l.14-.29-1.84-4.16h.78l1.46,3.33,1.44-3.33Z" transform="translate(-138.53 -202.09)"/></svg>