<svg id="Layer_1" data-name="Layer 1" xmlns="http://www.w3.org/2000/svg" viewBox="0 0 335.18 388.96"><defs><style>.cls-1,.cls-3,.cls-7{fill:#53afab;}.cls-1,.cls-10,.cls-2,.cls-6,.cls-8{opacity:0.3;isolation:isolate;}.cls-2,.cls-4{fill:#cce7e6;}.cls-5,.cls-8{fill:none;stroke:#000;stroke-width:2px;}.cls-11,.cls-7{fill-opacity:0.3;}.cls-8{stroke-linejoin:round;stroke-opacity:0.5;stroke-dasharray:5 5;}.cls-10,.cls-9{fill-opacity:0.5;}</style></defs><rect class="cls-1" x="97.59" y="324.3" width="149.83" height="28.09"/><rect class="cls-2" x="247.42" y="324.3" width="66.53" height="28.09"/><rect class="cls-1" x="185.32" y="272.05" width="62.1" height="28.09"/><rect class="cls-2" x="247.42" y="272.05" width="32.04" height="28.09"/><rect class="cls-1" x="166.59" y="219.32" width="18.73" height="28.09"/><rect class="cls-1" x="130.61" y="167.08" width="35.98" height="27.6"/><rect class="cls-3" x="105.97" y="114.34" width="25.63" height="27.6"/><rect class="cls-1" x="97.59" y="61.61" width="8.38" height="27.6"/><rect class="cls-4" x="130.61" y="114.34" width="8.38" height="27.6"/><path class="cls-5" d="M235.8,238.19v324.3" transform="translate(-138.21 -201.72)"/><path d="M161.58,209.43v.68h-4l0-5.52h3.89v.69h-3.11V207h2.77v.67h-2.77v1.78Zm2.43.74a3.93,3.93,0,0,1-1-.14,2.32,2.32,0,0,1-.74-.36l.32-.6a2,2,0,0,0,.67.32,2.66,2.66,0,0,0,.79.12c.66,0,1-.19,1-.56a.36.36,0,0,0-.14-.3.72.72,0,0,0-.34-.16,4.65,4.65,0,0,0-.56-.12,6.17,6.17,0,0,1-.83-.19,1.19,1.19,0,0,1-.54-.34,1,1,0,0,1-.23-.69,1.08,1.08,0,0,1,.47-.91,2.12,2.12,0,0,1,1.27-.34,4,4,0,0,1,.84.1,2.47,2.47,0,0,1,.69.28l-.33.6a2.17,2.17,0,0,0-1.21-.33,1.45,1.45,0,0,0-.73.15.48.48,0,0,0-.25.42.37.37,0,0,0,.14.32.89.89,0,0,0,.35.18l.59.13a4.88,4.88,0,0,1,.81.19,1.09,1.09,0,0,1,.53.33.92.92,0,0,1,.22.66,1.05,1.05,0,0,1-.49.91A2.3,2.3,0,0,1,164,210.17Zm5.23-.28a1.23,1.23,0,0,1-.41.22,2.09,2.09,0,0,1-.51.07,1.35,1.35,0,0,1-1-.34,1.32,1.32,0,0,1-.35-1v-2.29h-.71v-.63H167V205h.76V206H169v.62h-1.19v2.27a.77.77,0,0,0,.16.52.66.66,0,0,0,.49.18.92.92,0,0,0,.59-.2Zm1-3.93H171v4.18h-.76Zm.38-.81a.53.53,0,0,1-.37-.14.46.46,0,0,1-.14-.35.44.44,0,0,1,.14-.34.5.5,0,0,1,.37-.15.45.45,0,0,1,.36.14.43.43,0,0,1,.15.34.49.49,0,0,1-.15.36A.45.45,0,0,1,170.67,205.15Zm7.17.79a1.68,1.68,0,0,1,1.25.46,1.8,1.8,0,0,1,.46,1.35v2.41h-.75v-2.32a1.32,1.32,0,0,0-.28-.92,1,1,0,0,0-.8-.31,1.18,1.18,0,0,0-.91.36,1.42,1.42,0,0,0-.34,1v2.15h-.75v-2.32a1.29,1.29,0,0,0-.28-.91,1,1,0,0,0-.8-.31,1.12,1.12,0,0,0-.91.36,1.38,1.38,0,0,0-.34,1v2.15h-.76V206h.73v.63a1.38,1.38,0,0,1,.6-.49,1.91,1.91,0,0,1,.84-.17,1.86,1.86,0,0,1,.87.2,1.33,1.33,0,0,1,.58.57,1.58,1.58,0,0,1,.66-.56A2.1,2.1,0,0,1,177.84,205.94Zm4.75,0a1.83,1.83,0,0,1,1.32.43,1.64,1.64,0,0,1,.47,1.27v2.52h-.72v-.55a1.21,1.21,0,0,1-.54.45,2.09,2.09,0,0,1-.83.14,1.75,1.75,0,0,1-1.13-.34,1.11,1.11,0,0,1-.41-.89,1.07,1.07,0,0,1,.4-.88,2,2,0,0,1,1.28-.34h1.2v-.14a1,1,0,0,0-.28-.75,1.18,1.18,0,0,0-.84-.27,2,2,0,0,0-.72.13,1.71,1.71,0,0,0-.6.32l-.32-.57a2.38,2.38,0,0,1,.78-.39A3,3,0,0,1,182.59,206Zm-.18,3.68a1.39,1.39,0,0,0,.75-.19,1.13,1.13,0,0,0,.46-.55v-.58h-1.17c-.64,0-1,.21-1,.64a.59.59,0,0,0,.24.5A1.12,1.12,0,0,0,182.41,209.63Zm5.84.31a1.23,1.23,0,0,1-.41.22,2.24,2.24,0,0,1-.51.07,1.37,1.37,0,0,1-1-.34,1.31,1.31,0,0,1-.34-1v-2.29h-.71V206H186v-.92h.75V206H188v.63h-1.2v2.27a.77.77,0,0,0,.16.52.66.66,0,0,0,.49.18.92.92,0,0,0,.59-.2Zm4.68-1.81c0,.06,0,.13,0,.23h-3.39a1.36,1.36,0,0,0,.48.89,1.61,1.61,0,0,0,1,.33,1.52,1.52,0,0,0,1.21-.5l.42.49a1.89,1.89,0,0,1-.72.51,2.68,2.68,0,0,1-2.11-.1,2,2,0,0,1-.79-.77,2.34,2.34,0,0,1,0-2.2,2,2,0,0,1,.76-.76,2.16,2.16,0,0,1,1.08-.27,2,2,0,0,1,1.06.28,1.79,1.79,0,0,1,.73.76A2.26,2.26,0,0,1,192.93,208.13Zm-2.07-1.52a1.32,1.32,0,0,0-.91.33,1.34,1.34,0,0,0-.43.86h2.68a1.3,1.3,0,0,0-.43-.86A1.25,1.25,0,0,0,190.86,206.61Zm7.19-2.25v5.85h-.73v-.67a1.72,1.72,0,0,1-.64.53,2,2,0,0,1-.86.18,2.16,2.16,0,0,1-1.08-.27,2,2,0,0,1-.76-.75,2.18,2.18,0,0,1-.26-1.12A2.23,2.23,0,0,1,194,207a1.93,1.93,0,0,1,.75-.75,2.23,2.23,0,0,1,1.09-.27,1.9,1.9,0,0,1,.83.18,1.61,1.61,0,0,1,.63.5v-2.31Zm-2.16,5.23a1.48,1.48,0,0,0,.72-.18,1.39,1.39,0,0,0,.5-.52,1.75,1.75,0,0,0,.19-.77,1.59,1.59,0,0,0-.18-.77,1.22,1.22,0,0,0-.51-.52,1.41,1.41,0,0,0-.71-.18,1.46,1.46,0,0,0-.73.18,1.39,1.39,0,0,0-.51.51,1.62,1.62,0,0,0-.18.77,1.59,1.59,0,0,0,.18.77,1.36,1.36,0,0,0,1.23.71Zm6.86-4.2v1.92h2.77V208h-2.77v2.23H202V204.7h3.89v.68Zm7.87,2.79s0,.13,0,.22h-3.39a1.34,1.34,0,0,0,.48.9,1.61,1.61,0,0,0,1,.33,1.55,1.55,0,0,0,1.21-.5l.41.49a1.73,1.73,0,0,1-.71.5,2.35,2.35,0,0,1-.94.17,2.46,2.46,0,0,1-1.17-.27,1.93,1.93,0,0,1-.79-.76,2.34,2.34,0,0,1,0-2.2,2,2,0,0,1,.75-.76,2.19,2.19,0,0,1,1.08-.27,2,2,0,0,1,1.07.28,1.88,1.88,0,0,1,.73.75A2.3,2.3,0,0,1,210.62,208.18Zm-2.07-1.52a1.27,1.27,0,0,0-.91.32,1.35,1.35,0,0,0-.43.87h2.68a1.3,1.3,0,0,0-.43-.86A1.25,1.25,0,0,0,208.55,206.66ZM214,206a2.18,2.18,0,0,1,1.09.27,1.93,1.93,0,0,1,.75.75,2.26,2.26,0,0,1,.27,1.12,2.19,2.19,0,0,1-.28,1.12,1.91,1.91,0,0,1-.75.74,2.18,2.18,0,0,1-1.09.27,1.86,1.86,0,0,1-.85-.19,1.56,1.56,0,0,1-.64-.53v.67h-.72v-5.85h.76v2.3a1.61,1.61,0,0,1,.63-.5A2.09,2.09,0,0,1,214,206Zm-.07,3.6a1.33,1.33,0,0,0,.72-.17,1.39,1.39,0,0,0,.5-.52,1.55,1.55,0,0,0,.19-.78,1.45,1.45,0,0,0-.18-.76,1.22,1.22,0,0,0-.51-.52,1.47,1.47,0,0,0-1.43,0,1.28,1.28,0,0,0-.51.52,1.59,1.59,0,0,0-.18.77,1.62,1.62,0,0,0,.18.77,1.39,1.39,0,0,0,.5.52A1.48,1.48,0,0,0,213.94,209.63Zm7-4.88v5.52h-.78v-4.84h-1.25v-.69Zm2.9,2.21a2.75,2.75,0,0,1,1.74.45,1.47,1.47,0,0,1,.55,1.22,1.66,1.66,0,0,1-.24.88,1.51,1.51,0,0,1-.7.61,2.62,2.62,0,0,1-1.15.22,3.56,3.56,0,0,1-1.13-.18,2.6,2.6,0,0,1-.9-.5l.37-.62a2.14,2.14,0,0,0,.72.44,2.93,2.93,0,0,0,.93.16,1.6,1.6,0,0,0,1-.26.86.86,0,0,0,.34-.72.8.8,0,0,0-.37-.75,2.31,2.31,0,0,0-1.29-.27h-1.26l.3-2.89h3.11v.69h-2.45L223.2,207Zm7.47,3.38a2.24,2.24,0,0,1-1.14-.28,2,2,0,0,1-.78-.76,2.12,2.12,0,0,1-.28-1.1,2.14,2.14,0,0,1,.28-1.1,2,2,0,0,1,.79-.75,2.34,2.34,0,0,1,1.14-.27,2.09,2.09,0,0,1,1,.23,1.57,1.57,0,0,1,.69.66l-.58.37a1.29,1.29,0,0,0-.48-.45,1.41,1.41,0,0,0-.65-.15,1.53,1.53,0,0,0-.74.18,1.22,1.22,0,0,0-.51.52,1.45,1.45,0,0,0-.19.76,1.61,1.61,0,0,0,.18.78,1.41,1.41,0,0,0,.51.52,1.53,1.53,0,0,0,.74.18,1.38,1.38,0,0,0,.65-.15,1.24,1.24,0,0,0,.49-.45l.58.37a1.74,1.74,0,0,1-.7.67A2.18,2.18,0,0,1,231.28,210.34Zm4.54,0a2.29,2.29,0,0,1-1.12-.27,2.11,2.11,0,0,1-.78-.76,2.3,2.3,0,0,1,0-2.2,2,2,0,0,1,.78-.76,2.35,2.35,0,0,1,1.12-.27,2.19,2.19,0,0,1,1.12.28,1.94,1.94,0,0,1,.77.76,2.08,2.08,0,0,1,.28,1.09,2.19,2.19,0,0,1-.29,1.11,1.92,1.92,0,0,1-.77.75A2.08,2.08,0,0,1,235.82,210.35Zm0-.66a1.41,1.41,0,0,0,.71-.18A1.28,1.28,0,0,0,237,209a1.59,1.59,0,0,0,.18-.77,1.55,1.55,0,0,0-.18-.76,1.28,1.28,0,0,0-.5-.53,1.43,1.43,0,0,0-.72-.18,1.45,1.45,0,0,0-.72.18,1.34,1.34,0,0,0-.51.52,1.58,1.58,0,0,0-.18.76,1.66,1.66,0,0,0,.18.78,1.39,1.39,0,0,0,.5.52A1.49,1.49,0,0,0,235.82,209.69Zm5.58-3.59a1.71,1.71,0,0,1,1.26.47,1.83,1.83,0,0,1,.47,1.35v2.41h-.76V208a1.32,1.32,0,0,0-.29-.92,1.11,1.11,0,0,0-.84-.31,1.31,1.31,0,0,0-1,.36,1.43,1.43,0,0,0-.35,1v2.15h-.76v-4.18h.73v.63a1.5,1.5,0,0,1,.61-.5A2.33,2.33,0,0,1,241.4,206.1Zm4.44,4.28a3.52,3.52,0,0,1-1-.14,2.13,2.13,0,0,1-.74-.35l.31-.6a2.45,2.45,0,0,0,.67.32,2.77,2.77,0,0,0,.8.12q1,0,1-.57a.38.38,0,0,0-.13-.3,1,1,0,0,0-.34-.16l-.57-.12a5.15,5.15,0,0,1-.82-.18,1.4,1.4,0,0,1-.55-.35,1,1,0,0,1-.22-.69,1.06,1.06,0,0,1,.47-.9,2.05,2.05,0,0,1,1.27-.34,3.44,3.44,0,0,1,.84.1,2,2,0,0,1,.68.28l-.32.6a2.1,2.1,0,0,0-1.21-.34,1.34,1.34,0,0,0-.73.16.46.46,0,0,0-.25.42.39.39,0,0,0,.14.32.78.78,0,0,0,.34.17l.6.13a6.15,6.15,0,0,1,.81.19,1.19,1.19,0,0,1,.53.34.89.89,0,0,1,.22.66,1,1,0,0,1-.49.9A2.3,2.3,0,0,1,245.84,210.38Zm6.78-4.21v4.18h-.71v-.63a1.66,1.66,0,0,1-.61.5,1.84,1.84,0,0,1-.81.17,1.64,1.64,0,0,1-1.8-1.82v-2.41h.76v2.32a1.35,1.35,0,0,0,.29.93,1.15,1.15,0,0,0,.84.31,1.25,1.25,0,0,0,.94-.36,1.46,1.46,0,0,0,.35-1v-2.16Zm6.8,0a1.69,1.69,0,0,1,1.24.46,1.84,1.84,0,0,1,.46,1.36v2.4h-.76v-2.32a1.29,1.29,0,0,0-.29-.91,1,1,0,0,0-.79-.31,1.21,1.21,0,0,0-.92.36,1.46,1.46,0,0,0-.34,1v2.16h-.76v-2.31a1.27,1.27,0,0,0-.28-.92,1,1,0,0,0-.79-.31,1.21,1.21,0,0,0-.92.36,1.47,1.47,0,0,0-.34,1v2.15h-.76v-4.18h.72v.62a1.45,1.45,0,0,1,.6-.49,2.08,2.08,0,0,1,.85-.17,1.85,1.85,0,0,1,.86.2,1.38,1.38,0,0,1,.59.58,1.58,1.58,0,0,1,.65-.57A2.29,2.29,0,0,1,259.42,206.15Zm5.44,0a2.2,2.2,0,0,1,1.09.27,1.84,1.84,0,0,1,.74.75,2.13,2.13,0,0,1,.28,1.11,2.3,2.3,0,0,1-.28,1.12,1.93,1.93,0,0,1-.75.75,2.31,2.31,0,0,1-1.09.26,2.05,2.05,0,0,1-.83-.17,1.92,1.92,0,0,1-.63-.51v2.16h-.76V206.2h.73v.66a1.62,1.62,0,0,1,.64-.52A1.82,1.82,0,0,1,264.86,206.17Zm-.07,3.6a1.43,1.43,0,0,0,.72-.18,1.39,1.39,0,0,0,.5-.52,1.52,1.52,0,0,0,.19-.77,1.59,1.59,0,0,0-.18-.77,1.34,1.34,0,0,0-.51-.52,1.51,1.51,0,0,0-1.43,0,1.49,1.49,0,0,0-.51.52,1.55,1.55,0,0,0-.18.76,1.59,1.59,0,0,0,.18.77,1.41,1.41,0,0,0,.5.53A1.48,1.48,0,0,0,264.79,209.77Zm5.69.38a1.08,1.08,0,0,1-.41.22,1.68,1.68,0,0,1-.5.07,1.33,1.33,0,0,1-1-.34,1.25,1.25,0,0,1-.34-1v-2.29h-.71v-.62h.71v-.91H269v.92h1.2v.62H269v2.26a.74.74,0,0,0,.17.52.67.67,0,0,0,.49.19.94.94,0,0,0,.59-.2Zm1-3.93h.76v4.18h-.76Zm.38-.8a.53.53,0,0,1-.37-.14.51.51,0,0,1,0-.7.51.51,0,0,1,.37-.15.46.46,0,0,1,.36.15.43.43,0,0,1,.15.34.5.5,0,0,1-.51.5Zm3.73,5a2.19,2.19,0,0,1-1.12-.28,2,2,0,0,1-.78-.76,2.12,2.12,0,0,1-.28-1.1,2.33,2.33,0,0,1,.28-1.1,1.9,1.9,0,0,1,.79-.75,2.19,2.19,0,0,1,1.12-.28,2.29,2.29,0,0,1,1.11.28,2,2,0,0,1,.77.76,2.27,2.27,0,0,1,0,2.2,2,2,0,0,1-.77.76A2.28,2.28,0,0,1,275.64,210.46Zm0-.66a1.43,1.43,0,0,0,.72-.18,1.39,1.39,0,0,0,.5-.52,1.62,1.62,0,0,0,.18-.77,1.4,1.4,0,0,0-.18-.77,1.2,1.2,0,0,0-.5-.52,1.43,1.43,0,0,0-.72-.18,1.45,1.45,0,0,0-.72.18,1.39,1.39,0,0,0-.51.51,1.62,1.62,0,0,0-.18.77,1.59,1.59,0,0,0,.18.77,1.32,1.32,0,0,0,.5.52A1.4,1.4,0,0,0,275.64,209.8Zm5.58-3.59a1.71,1.71,0,0,1,1.26.47A1.8,1.8,0,0,1,283,208v2.4h-.76v-2.32a1.29,1.29,0,0,0-.29-.91,1.07,1.07,0,0,0-.84-.31,1.31,1.31,0,0,0-1,.36,1.39,1.39,0,0,0-.35,1v2.15H279v-4.18h.73v.63a1.48,1.48,0,0,1,.61-.49A2.16,2.16,0,0,1,281.22,206.21Z" transform="translate(-138.21 -201.72)"/><path d="M317.15,204.58a2.58,2.58,0,0,1,1.69.51,1.93,1.93,0,0,1,0,2.82,2.53,2.53,0,0,1-1.69.52h-1.37v1.67H315v-5.52Zm0,3.16a1.83,1.83,0,0,0,1.15-.31,1.15,1.15,0,0,0,.39-.93,1.1,1.1,0,0,0-.39-.91,1.77,1.77,0,0,0-1.15-.32h-1.34v2.47Zm5.28,2.41a2.3,2.3,0,0,1-1.12-.28,2,2,0,0,1-.78-.76,2.3,2.3,0,0,1,0-2.2,2,2,0,0,1,.78-.75,2.36,2.36,0,0,1,2.23,0,1.92,1.92,0,0,1,.77.75,2.3,2.3,0,0,1,0,2.2,1.94,1.94,0,0,1-.77.76A2.29,2.29,0,0,1,322.4,210.15Zm0-.67a1.41,1.41,0,0,0,.71-.18,1.28,1.28,0,0,0,.51-.52,1.59,1.59,0,0,0,.18-.77,1.62,1.62,0,0,0-.18-.77,1.34,1.34,0,0,0-.51-.52,1.41,1.41,0,0,0-.71-.18,1.49,1.49,0,0,0-.73.18,1.39,1.39,0,0,0-.5.52,1.63,1.63,0,0,0-.19.77,1.6,1.6,0,0,0,.19.77,1.32,1.32,0,0,0,.5.52A1.49,1.49,0,0,0,322.4,209.48Zm5.69.37a1.36,1.36,0,0,1-.41.23,2.24,2.24,0,0,1-.51.07,1.37,1.37,0,0,1-1-.34,1.3,1.3,0,0,1-.34-1v-2.3h-.71v-.62h.71V205h.75v.91h1.2v.62h-1.2v2.27a.76.76,0,0,0,.17.52.64.64,0,0,0,.49.18.92.92,0,0,0,.59-.2Zm4.67-1.82a2,2,0,0,1,0,.23h-3.39a1.26,1.26,0,0,0,.48.89,1.61,1.61,0,0,0,1,.33,1.55,1.55,0,0,0,1.21-.5l.41.49a1.73,1.73,0,0,1-.71.5,2.3,2.3,0,0,1-.93.18,2.48,2.48,0,0,1-1.18-.27,2,2,0,0,1-.8-.77,2.21,2.21,0,0,1-.27-1.1,2.24,2.24,0,0,1,.27-1.1,1.93,1.93,0,0,1,.75-.75,2.07,2.07,0,0,1,1.08-.28,2,2,0,0,1,1.06.28,1.82,1.82,0,0,1,.73.75A2.29,2.29,0,0,1,332.76,208Zm-2.06-1.51a1.28,1.28,0,0,0-1.34,1.2H332a1.36,1.36,0,0,0-.44-.86A1.25,1.25,0,0,0,330.7,206.52Zm5.47-.64a1.71,1.71,0,0,1,1.26.47,1.75,1.75,0,0,1,.47,1.34v2.41h-.75v-2.32a1.25,1.25,0,0,0-.3-.91,1.06,1.06,0,0,0-.83-.31,1.29,1.29,0,0,0-1,.36,1.39,1.39,0,0,0-.36,1v2.15h-.75v-4.18h.72v.63a1.55,1.55,0,0,1,.62-.5A2.28,2.28,0,0,1,336.17,205.88Zm5.61,4a1.25,1.25,0,0,1-.41.23,2.16,2.16,0,0,1-.51.07,1.39,1.39,0,0,1-1-.34,1.3,1.3,0,0,1-.34-1v-2.3h-.71v-.62h.71V205h.75v.91h1.2v.62h-1.2v2.27a.76.76,0,0,0,.17.52.66.66,0,0,0,.49.18.92.92,0,0,0,.59-.2Zm1-3.93h.75v4.18h-.75Zm.37-.8a.51.51,0,0,1-.37-.15.48.48,0,0,1-.14-.34.48.48,0,0,1,.14-.35.51.51,0,0,1,.37-.15.53.53,0,0,1,.37.14.43.43,0,0,1,.15.34.49.49,0,0,1-.15.36A.5.5,0,0,1,343.19,205.12Zm3.47.76a1.87,1.87,0,0,1,1.33.43,1.62,1.62,0,0,1,.46,1.27v2.52h-.71v-.55a1.3,1.3,0,0,1-.55.45,2.09,2.09,0,0,1-.83.15,1.78,1.78,0,0,1-1.12-.34,1.1,1.1,0,0,1-.42-.89,1.09,1.09,0,0,1,.4-.89,2,2,0,0,1,1.28-.34h1.2v-.15a1,1,0,0,0-.29-.74,1.17,1.17,0,0,0-.83-.27,2.29,2.29,0,0,0-.73.13,1.9,1.9,0,0,0-.6.32l-.31-.56a2.09,2.09,0,0,1,.77-.4A3.31,3.31,0,0,1,346.66,205.88Zm-.17,3.68a1.39,1.39,0,0,0,.75-.19,1.13,1.13,0,0,0,.46-.55v-.58h-1.17c-.64,0-1,.21-1,.64a.58.58,0,0,0,.24.5A1.12,1.12,0,0,0,346.49,209.56Zm3.49-5.31h.75v5.85H350Zm5.46,1v1.92h2.77v.68h-2.77v2.23h-.79v-5.52h3.9v.69Zm7.88,2.76c0,.06,0,.14,0,.23h-3.39a1.34,1.34,0,0,0,.48.89,1.64,1.64,0,0,0,1,.33,1.51,1.51,0,0,0,1.2-.5l.42.49a1.8,1.8,0,0,1-.71.5,2.35,2.35,0,0,1-.94.18,2.46,2.46,0,0,1-1.17-.27,2,2,0,0,1-.8-.77,2.42,2.42,0,0,1,0-2.2,2.07,2.07,0,0,1,1.83-1,2,2,0,0,1,1.07.28,1.88,1.88,0,0,1,.73.75A2.29,2.29,0,0,1,363.32,208Zm-2.07-1.51a1.32,1.32,0,0,0-.91.33,1.35,1.35,0,0,0-.43.87h2.68a1.3,1.3,0,0,0-.43-.86A1.25,1.25,0,0,0,361.25,206.52Zm5.46-.64a2.2,2.2,0,0,1,1.09.27,1.93,1.93,0,0,1,.75.75,2.23,2.23,0,0,1,.27,1.11,2.29,2.29,0,0,1-.27,1.12,1.93,1.93,0,0,1-.75.75,2.2,2.2,0,0,1-1.09.27,2,2,0,0,1-.85-.18,1.74,1.74,0,0,1-.64-.53v.66h-.73v-5.85h.76v2.3a1.61,1.61,0,0,1,.63-.5A2.05,2.05,0,0,1,366.71,205.88Zm-.06,3.6a1.41,1.41,0,0,0,.71-.18,1.28,1.28,0,0,0,.51-.52,1.6,1.6,0,0,0,.19-.77,1.63,1.63,0,0,0-.19-.77,1.34,1.34,0,0,0-.51-.52,1.51,1.51,0,0,0-1.43,0,1.34,1.34,0,0,0-.51.52,1.62,1.62,0,0,0-.18.77,1.59,1.59,0,0,0,.18.77,1.28,1.28,0,0,0,.51.52A1.43,1.43,0,0,0,366.65,209.48Zm7-4.9v5.52h-.78v-4.83h-1.24v-.69Zm2.91,2.2a2.75,2.75,0,0,1,1.74.45,1.46,1.46,0,0,1,.56,1.21,1.7,1.7,0,0,1-.24.89,1.62,1.62,0,0,1-.7.61,2.65,2.65,0,0,1-1.15.22,3.86,3.86,0,0,1-1.13-.17,2.6,2.6,0,0,1-.9-.5l.36-.62a2.08,2.08,0,0,0,.73.43,2.6,2.6,0,0,0,.93.16,1.57,1.57,0,0,0,1-.26.88.88,0,0,0,.35-.73.82.82,0,0,0-.38-.74,2.3,2.3,0,0,0-1.29-.26h-1.26l.29-2.89h3.12v.69h-2.45l-.15,1.51Zm9.6-2.53v5.85h-.73v-.66a1.71,1.71,0,0,1-.63.53,2,2,0,0,1-.86.18,2.16,2.16,0,0,1-1.08-.27,1.89,1.89,0,0,1-.76-.75,2.29,2.29,0,0,1-.27-1.12,2.23,2.23,0,0,1,.27-1.11,1.89,1.89,0,0,1,.76-.75,2.16,2.16,0,0,1,1.08-.27,2.05,2.05,0,0,1,.83.17,1.61,1.61,0,0,1,.63.5v-2.3ZM384,209.48a1.41,1.41,0,0,0,.71-.18,1.28,1.28,0,0,0,.51-.52,1.59,1.59,0,0,0,.18-.77,1.62,1.62,0,0,0-.18-.77,1.34,1.34,0,0,0-.51-.52,1.41,1.41,0,0,0-.71-.18,1.49,1.49,0,0,0-.73.18,1.39,1.39,0,0,0-.5.52,1.62,1.62,0,0,0-.18.77,1.59,1.59,0,0,0,.18.77,1.32,1.32,0,0,0,.5.52A1.49,1.49,0,0,0,384,209.48Zm7.48-1.45a2,2,0,0,1,0,.23H388a1.26,1.26,0,0,0,.48.89,1.61,1.61,0,0,0,1,.33,1.55,1.55,0,0,0,1.21-.5l.41.49a1.73,1.73,0,0,1-.71.5,2.3,2.3,0,0,1-.93.18,2.48,2.48,0,0,1-1.18-.27,2,2,0,0,1-.8-.77,2.21,2.21,0,0,1-.27-1.1,2.24,2.24,0,0,1,.27-1.1,1.93,1.93,0,0,1,.75-.75,2.07,2.07,0,0,1,1.08-.28,2,2,0,0,1,1.06.28,1.82,1.82,0,0,1,.73.75A2.29,2.29,0,0,1,391.44,208Zm-2.06-1.51a1.28,1.28,0,0,0-1.34,1.2h2.68a1.36,1.36,0,0,0-.44-.86A1.25,1.25,0,0,0,389.38,206.52Zm8.46-.64a1.66,1.66,0,0,1,1.25.46,1.8,1.8,0,0,1,.47,1.35v2.41h-.76v-2.32a1.34,1.34,0,0,0-.28-.91,1,1,0,0,0-.8-.31,1.21,1.21,0,0,0-.92.36,1.47,1.47,0,0,0-.34,1v2.15h-.75v-2.32a1.29,1.29,0,0,0-.29-.91,1,1,0,0,0-.79-.31,1.21,1.21,0,0,0-.92.36,1.47,1.47,0,0,0-.34,1v2.15h-.75v-4.18h.72v.62a1.45,1.45,0,0,1,.6-.49,2.08,2.08,0,0,1,.85-.17,1.85,1.85,0,0,1,.86.2,1.35,1.35,0,0,1,.59.57,1.49,1.49,0,0,1,.65-.56A2.11,2.11,0,0,1,397.84,205.88Zm4.75,0a1.87,1.87,0,0,1,1.33.43,1.62,1.62,0,0,1,.46,1.27v2.52h-.71v-.55a1.3,1.3,0,0,1-.55.45,2.05,2.05,0,0,1-.83.15,1.78,1.78,0,0,1-1.12-.34,1.1,1.1,0,0,1-.42-.89,1.09,1.09,0,0,1,.4-.89,2,2,0,0,1,1.28-.34h1.2v-.15a1,1,0,0,0-.29-.74,1.15,1.15,0,0,0-.83-.27,2.29,2.29,0,0,0-.73.13,2.14,2.14,0,0,0-.6.32l-.31-.56a2.09,2.09,0,0,1,.77-.4A3.31,3.31,0,0,1,402.59,205.88Zm-.17,3.68a1.39,1.39,0,0,0,.75-.19,1.13,1.13,0,0,0,.46-.55v-.58h-1.17c-.64,0-1,.21-1,.64a.58.58,0,0,0,.24.5A1.14,1.14,0,0,0,402.42,209.56Zm5.72-3.68a1.71,1.71,0,0,1,1.26.47,1.75,1.75,0,0,1,.47,1.34v2.41h-.75v-2.32a1.29,1.29,0,0,0-.29-.91,1.1,1.1,0,0,0-.84-.31,1.31,1.31,0,0,0-1,.36,1.38,1.38,0,0,0-.35,1v2.15h-.76v-4.18h.72v.63a1.62,1.62,0,0,1,.62-.5A2.28,2.28,0,0,1,408.14,205.88Zm7.22-1.63v5.85h-.72v-.66a1.74,1.74,0,0,1-.64.53,2,2,0,0,1-.85.18,2.18,2.18,0,0,1-1.09-.27,2,2,0,0,1-.76-.75A2.29,2.29,0,0,1,411,208a2.22,2.22,0,0,1,.26-1.11,2,2,0,0,1,.76-.75,2.18,2.18,0,0,1,1.09-.27,2.09,2.09,0,0,1,.83.17,1.61,1.61,0,0,1,.63.5v-2.3Zm-2.15,5.23a1.48,1.48,0,0,0,.72-.18,1.25,1.25,0,0,0,.5-.52,1.49,1.49,0,0,0,.19-.77,1.52,1.52,0,0,0-.19-.77,1.32,1.32,0,0,0-.5-.52,1.48,1.48,0,0,0-.72-.18,1.43,1.43,0,0,0-.72.18,1.49,1.49,0,0,0-.51.52,1.62,1.62,0,0,0-.18.77,1.59,1.59,0,0,0,.18.77,1.35,1.35,0,0,0,1.23.7Zm9.85-3.56v4.18h-.72v-.63a1.58,1.58,0,0,1-.61.5,1.82,1.82,0,0,1-.81.18,1.86,1.86,0,0,1-1.32-.46,1.83,1.83,0,0,1-.48-1.37v-2.4h.76v2.32a1.33,1.33,0,0,0,.29.92,1.09,1.09,0,0,0,.84.31,1.24,1.24,0,0,0,.94-.36,1.46,1.46,0,0,0,.35-1v-2.16Zm3.79,0a1.71,1.71,0,0,1,1.26.47,1.76,1.76,0,0,1,.48,1.34v2.41h-.76v-2.32a1.29,1.29,0,0,0-.29-.91,1.09,1.09,0,0,0-.84-.31,1.31,1.31,0,0,0-1,.36,1.43,1.43,0,0,0-.35,1v2.15h-.76v-4.18h.73v.63a1.51,1.51,0,0,1,.61-.5A2.28,2.28,0,0,1,426.85,205.88Zm4.46,4.27a3.64,3.64,0,0,1-1-.14,2.22,2.22,0,0,1-.74-.35l.32-.6a2.31,2.31,0,0,0,.67.31,2.72,2.72,0,0,0,.8.12q1,0,1-.57a.42.42,0,0,0-.13-.3.88.88,0,0,0-.34-.15,4.9,4.9,0,0,0-.57-.12,5.3,5.3,0,0,1-.83-.18,1.3,1.3,0,0,1-.54-.35.93.93,0,0,1-.23-.69,1.06,1.06,0,0,1,.47-.9,2.12,2.12,0,0,1,1.27-.35,3.44,3.44,0,0,1,.84.1,2.24,2.24,0,0,1,.68.28l-.32.6a2.17,2.17,0,0,0-1.21-.33,1.45,1.45,0,0,0-.73.15.48.48,0,0,0-.25.42.39.39,0,0,0,.14.33,1,1,0,0,0,.35.17l.59.13a6.35,6.35,0,0,1,.81.18,1.28,1.28,0,0,1,.54.34.94.94,0,0,1,.22.66,1.08,1.08,0,0,1-.49.91A2.3,2.3,0,0,1,431.31,210.15ZM438,208a2,2,0,0,1,0,.23h-3.39a1.26,1.26,0,0,0,.48.89,1.61,1.61,0,0,0,1,.33,1.55,1.55,0,0,0,1.21-.5l.41.49a1.7,1.7,0,0,1-.7.5,2.39,2.39,0,0,1-.94.18,2.5,2.5,0,0,1-1.18-.27,2,2,0,0,1-.79-.77,2.12,2.12,0,0,1-.28-1.1,2.24,2.24,0,0,1,.27-1.1,1.93,1.93,0,0,1,.75-.75,2.07,2.07,0,0,1,1.08-.28,2,2,0,0,1,1.06.28,1.82,1.82,0,0,1,.73.75A2.29,2.29,0,0,1,438,208Zm-2.06-1.51a1.28,1.28,0,0,0-1.34,1.2h2.68a1.31,1.31,0,0,0-.44-.86A1.25,1.25,0,0,0,435.9,206.52Zm4,.1a1.31,1.31,0,0,1,.59-.55,2,2,0,0,1,.93-.19v.73h-.17a1.27,1.27,0,0,0-1,.37,1.45,1.45,0,0,0-.35,1v2.08h-.75v-4.18h.72Zm6.45-.7-1.83,4.18h-.77l-1.83-4.18h.79l1.43,3.35,1.47-3.35ZM450.8,208c0,.06,0,.14,0,.23h-3.39a1.34,1.34,0,0,0,.48.89,1.64,1.64,0,0,0,1,.33,1.51,1.51,0,0,0,1.2-.5l.42.49a1.73,1.73,0,0,1-.71.5,2.35,2.35,0,0,1-.94.18,2.46,2.46,0,0,1-1.17-.27,2,2,0,0,1-.8-.77,2.21,2.21,0,0,1-.27-1.1,2.35,2.35,0,0,1,.26-1.1,2.07,2.07,0,0,1,1.83-1,2,2,0,0,1,1.07.28,1.88,1.88,0,0,1,.73.75A2.29,2.29,0,0,1,450.8,208Zm-2.07-1.51a1.32,1.32,0,0,0-.91.33,1.39,1.39,0,0,0-.43.87h2.68a1.3,1.3,0,0,0-.43-.86A1.25,1.25,0,0,0,448.73,206.52Zm7.19-2.27v5.85h-.73v-.66a1.74,1.74,0,0,1-.64.53,2,2,0,0,1-.85.18,2.2,2.2,0,0,1-1.09-.27,1.93,1.93,0,0,1-.75-.75,2.29,2.29,0,0,1-.27-1.12,2.23,2.23,0,0,1,.27-1.11,1.93,1.93,0,0,1,.75-.75,2.2,2.2,0,0,1,1.09-.27,2.05,2.05,0,0,1,.83.17,1.61,1.61,0,0,1,.63.5v-2.3Zm-2.16,5.23a1.43,1.43,0,0,0,.72-.18,1.28,1.28,0,0,0,.51-.52,1.59,1.59,0,0,0,.18-.77,1.62,1.62,0,0,0-.18-.77,1.34,1.34,0,0,0-.51-.52,1.43,1.43,0,0,0-.72-.18,1.45,1.45,0,0,0-.72.18,1.49,1.49,0,0,0-.51.52,1.62,1.62,0,0,0-.18.77,1.59,1.59,0,0,0,.18.77,1.41,1.41,0,0,0,.51.52A1.45,1.45,0,0,0,453.76,209.48Z" transform="translate(-138.21 -201.72)"/><rect class="cls-2" x="166.59" y="167.08" width="27.6" height="27.6"/><rect class="cls-2" x="185.32" y="219.32" width="17.74" height="28.09"/><path class="cls-6" d="M468.75,543.57v.68h-4v-.53l2.25-2.17a2.85,2.85,0,0,0,.55-.68,1.37,1.37,0,0,0,.14-.58.77.77,0,0,0-.31-.67,1.3,1.3,0,0,0-.86-.25,1.74,1.74,0,0,0-1.42.6l-.53-.46a2.05,2.05,0,0,1,.84-.62,3,3,0,0,1,1.18-.22,2.14,2.14,0,0,1,1.38.42,1.35,1.35,0,0,1,.51,1.12,1.84,1.84,0,0,1-.19.83,3.28,3.28,0,0,1-.72.9l-1.69,1.63Zm2.34-2.64a2.75,2.75,0,0,1,1.74.45,1.48,1.48,0,0,1,.56,1.22,1.66,1.66,0,0,1-.24.88,1.51,1.51,0,0,1-.7.61,2.62,2.62,0,0,1-1.15.23,3.56,3.56,0,0,1-1.13-.18,2.59,2.59,0,0,1-.9-.49l.37-.63a2,2,0,0,0,.72.44,2.83,2.83,0,0,0,.93.15,1.48,1.48,0,0,0,1-.26.87.87,0,0,0,.35-.72.85.85,0,0,0-.38-.75,2.39,2.39,0,0,0-1.29-.26h-1.26l.3-2.89h3.11v.69h-2.45l-.15,1.51Z" transform="translate(-138.21 -201.72)"/><path class="cls-6" d="M251,275.55v5.52h-.78v-4.83H249v-.69Z" transform="translate(-138.21 -201.72)"/><path d="M283.63,327.3v5.52h-.57v-5h-1.3v-.5Z" transform="translate(-138.21 -201.72)"/><path d="M255.83,329.67a2,2,0,0,1,1.31.47,1.39,1.39,0,0,1,.46,1.09,1.61,1.61,0,0,1-.23.85,1.55,1.55,0,0,1-.68.57,2.41,2.41,0,0,1-1.09.22,3.59,3.59,0,0,1-1.14-.19,2.45,2.45,0,0,1-.85-.52l.28-.45a2,2,0,0,0,.73.46,2.63,2.63,0,0,0,1,.18,1.64,1.64,0,0,0,1-.3,1,1,0,0,0,.37-.82,1,1,0,0,0-.37-.8,1.83,1.83,0,0,0-1.12-.29h-.4v-.42l1.53-1.92h-2.82v-.5h3.55v.4Z" transform="translate(-138.21 -201.72)"/><path class="cls-6" d="M286.75,382.23a2.75,2.75,0,0,1,1.74.45,1.48,1.48,0,0,1,.56,1.22,1.66,1.66,0,0,1-.24.88,1.64,1.64,0,0,1-.7.62,2.81,2.81,0,0,1-1.15.22,3.56,3.56,0,0,1-1.13-.18,2.59,2.59,0,0,1-.9-.49l.36-.63a2.09,2.09,0,0,0,.73.44,2.84,2.84,0,0,0,.93.16,1.57,1.57,0,0,0,1-.26.88.88,0,0,0,.35-.73.85.85,0,0,0-.38-.75,2.39,2.39,0,0,0-1.29-.26h-1.26l.29-2.89h3.12v.69h-2.45l-.15,1.51Z" transform="translate(-138.21 -201.72)"/><path class="cls-6" d="M316.16,437.11v.69h-4v-.54l2.25-2.17a2.42,2.42,0,0,0,.55-.68,1.25,1.25,0,0,0,.15-.58.81.81,0,0,0-.31-.67,1.37,1.37,0,0,0-.87-.24,1.75,1.75,0,0,0-1.41.59l-.54-.46a2.26,2.26,0,0,1,.85-.62,3.13,3.13,0,0,1,1.17-.22,2.11,2.11,0,0,1,1.38.42,1.37,1.37,0,0,1,.51,1.12,2,2,0,0,1-.18.84,3.6,3.6,0,0,1-.72.9l-1.69,1.62Z" transform="translate(-138.21 -201.72)"/><path class="cls-6" d="M354.91,486.69a2.34,2.34,0,0,1,1,.2,1.7,1.7,0,0,1,.68.59,1.64,1.64,0,0,1,.24.88,1.62,1.62,0,0,1-.26.91,1.69,1.69,0,0,1-.7.62,2.33,2.33,0,0,1-1,.21,2.1,2.1,0,0,1-1.71-.72,3.05,3.05,0,0,1-.6-2,3.41,3.41,0,0,1,.32-1.57,2.3,2.3,0,0,1,.91-1,2.82,2.82,0,0,1,1.38-.33,3.59,3.59,0,0,1,.75.08,2.06,2.06,0,0,1,.62.24l-.3.61a1.93,1.93,0,0,0-1.06-.26,1.74,1.74,0,0,0-1.35.54,2.23,2.23,0,0,0-.49,1.55c0,.08,0,.15,0,.19a1.54,1.54,0,0,1,.65-.53A2.19,2.19,0,0,1,354.91,486.69Zm-.1,2.77a1.29,1.29,0,0,0,.89-.29,1,1,0,0,0,.34-.78,1,1,0,0,0-.35-.77,1.34,1.34,0,0,0-.92-.29,1.45,1.45,0,0,0-.66.14,1.12,1.12,0,0,0-.45.38,1.07,1.07,0,0,0-.16.55,1,1,0,0,0,.15.53,1.23,1.23,0,0,0,.45.39A1.58,1.58,0,0,0,354.81,489.46Z" transform="translate(-138.21 -201.72)"/><path class="cls-6" d="M404.19,487.7h-1.05v1.35h-.76V487.7h-3.07v-.56l2.82-3.61H403l-2.7,3.49h2.12v-1.2h.74V487h1.05Z" transform="translate(-138.21 -201.72)"/><path class="cls-6" d="M334.4,437.11v.69h-4v-.54l2.25-2.17a2.62,2.62,0,0,0,.55-.68,1.37,1.37,0,0,0,.14-.58.79.79,0,0,0-.31-.67,1.34,1.34,0,0,0-.86-.24,1.75,1.75,0,0,0-1.41.59l-.54-.46a2.22,2.22,0,0,1,.84-.62,3.22,3.22,0,0,1,1.18-.22,2.11,2.11,0,0,1,1.38.42,1.37,1.37,0,0,1,.51,1.12,1.88,1.88,0,0,1-.19.84,3.38,3.38,0,0,1-.72.9l-1.68,1.62Z" transform="translate(-138.21 -201.72)"/><path class="cls-6" d="M319.08,382.35a1.94,1.94,0,0,1,1.24.51,1.41,1.41,0,0,1,.43,1.07,1.59,1.59,0,0,1-.24.86,1.72,1.72,0,0,1-.71.61,2.76,2.76,0,0,1-1.14.22,3.63,3.63,0,0,1-1.14-.18,2.45,2.45,0,0,1-.89-.49l.37-.63a2,2,0,0,0,.72.44,2.9,2.9,0,0,0,.94.16,1.53,1.53,0,0,0,.95-.26.87.87,0,0,0,.35-.72.82.82,0,0,0-.34-.71,1.71,1.71,0,0,0-1-.25h-.45v-.56l1.39-1.7h-2.66V380h3.65v.54Z" transform="translate(-138.21 -201.72)"/><path class="cls-6" d="M419.83,538.67a2.11,2.11,0,0,1,1.72.72,3.07,3.07,0,0,1,.6,2,3.48,3.48,0,0,1-.33,1.58,2.22,2.22,0,0,1-.91,1,2.65,2.65,0,0,1-1.37.34,3.52,3.52,0,0,1-.75-.08,2.06,2.06,0,0,1-.62-.25l.3-.61a2,2,0,0,0,1.06.26,1.75,1.75,0,0,0,1.35-.53,2.27,2.27,0,0,0,.48-1.55v-.2a1.39,1.39,0,0,1-.65.54,2.35,2.35,0,0,1-.94.18,2.23,2.23,0,0,1-1-.2,1.72,1.72,0,0,1-.67-.58,1.76,1.76,0,0,1-.23-.89,1.64,1.64,0,0,1,.25-.91,1.66,1.66,0,0,1,.7-.61A2.18,2.18,0,0,1,419.83,538.67Zm.08,2.78a1.45,1.45,0,0,0,.66-.15,1.12,1.12,0,0,0,.45-.38,1,1,0,0,0,0-1.08,1,1,0,0,0-.45-.38,1.58,1.58,0,0,0-.71-.15,1.34,1.34,0,0,0-.89.29,1,1,0,0,0-.33.78,1,1,0,0,0,.34.78A1.39,1.39,0,0,0,419.91,541.45Z" transform="translate(-138.21 -201.72)"/><path class="cls-6" d="M306.89,538.73v5.52h-.78v-4.83h-1.24v-.69Zm3.71,2.17a2.13,2.13,0,0,1,1,.21,1.59,1.59,0,0,1,.93,1.46,1.65,1.65,0,0,1-.26.92,1.73,1.73,0,0,1-.7.61,2.33,2.33,0,0,1-1,.22,2.14,2.14,0,0,1-1.72-.72,3.1,3.1,0,0,1-.6-2,3.46,3.46,0,0,1,.33-1.57,2.28,2.28,0,0,1,.91-1,2.68,2.68,0,0,1,1.37-.34,3.1,3.1,0,0,1,.76.09,2.16,2.16,0,0,1,.62.23l-.3.62a1.87,1.87,0,0,0-1.06-.26,1.77,1.77,0,0,0-1.35.53,2.25,2.25,0,0,0-.49,1.55,1.15,1.15,0,0,0,0,.2,1.44,1.44,0,0,1,.65-.54A2.15,2.15,0,0,1,310.6,540.9Zm-.09,2.78a1.31,1.31,0,0,0,.88-.29,1,1,0,0,0,.34-.79,1,1,0,0,0-.34-.77,1.41,1.41,0,0,0-.92-.29,1.53,1.53,0,0,0-.66.14,1.23,1.23,0,0,0-.45.39.93.93,0,0,0-.16.54,1,1,0,0,0,.15.54,1.33,1.33,0,0,0,.45.39A1.73,1.73,0,0,0,310.51,543.68Z" transform="translate(-138.21 -201.72)"/><path class="cls-6" d="M140.14,533.5h-1.89v-.68h4.57v.68h-1.9v4.84h-.78Zm4.91,4.89a2.3,2.3,0,0,1-1.12-.28,2,2,0,0,1-.78-.76,2.3,2.3,0,0,1,0-2.2,1.94,1.94,0,0,1,.78-.75,2.36,2.36,0,0,1,2.23,0,1.86,1.86,0,0,1,.77.75,2.23,2.23,0,0,1,0,2.2,1.94,1.94,0,0,1-.77.76A2.29,2.29,0,0,1,145.05,538.39Zm0-.67a1.41,1.41,0,0,0,.71-.18,1.28,1.28,0,0,0,.51-.52,1.74,1.74,0,0,0,0-1.54,1.28,1.28,0,0,0-.51-.52,1.41,1.41,0,0,0-.71-.18,1.49,1.49,0,0,0-.73.18,1.32,1.32,0,0,0-.5.52,1.74,1.74,0,0,0,0,1.54,1.32,1.32,0,0,0,.5.52A1.49,1.49,0,0,0,145.05,537.72Zm5.69.37a1.08,1.08,0,0,1-.41.22,1.81,1.81,0,0,1-.51.08,1.37,1.37,0,0,1-1-.34,1.3,1.3,0,0,1-.34-1v-2.3h-.71v-.62h.71v-.92h.75v.92h1.2v.62h-1.2v2.27a.77.77,0,0,0,.17.52.64.64,0,0,0,.49.18.92.92,0,0,0,.59-.2Zm2.56-4a1.84,1.84,0,0,1,1.32.43,1.62,1.62,0,0,1,.47,1.27v2.52h-.72v-.55a1.3,1.3,0,0,1-.55.45,2,2,0,0,1-.82.15,1.79,1.79,0,0,1-1.13-.34,1.1,1.1,0,0,1-.42-.89,1.09,1.09,0,0,1,.4-.89,2,2,0,0,1,1.28-.34h1.2v-.15a1,1,0,0,0-.28-.75,1.22,1.22,0,0,0-.84-.26,2.29,2.29,0,0,0-.73.13,2.14,2.14,0,0,0-.6.32l-.31-.56a2.09,2.09,0,0,1,.77-.4A3.32,3.32,0,0,1,153.3,534.12Zm-.18,3.68a1.39,1.39,0,0,0,.75-.19,1.13,1.13,0,0,0,.46-.55v-.58h-1.17c-.64,0-1,.21-1,.64a.59.59,0,0,0,.24.5A1.14,1.14,0,0,0,153.12,537.8Zm3.49-5.31h.76v5.85h-.76Zm8.56,1.67v3.61a2.17,2.17,0,0,1-.54,1.62,2.24,2.24,0,0,1-1.62.53,3.81,3.81,0,0,1-1.13-.17,2.25,2.25,0,0,1-.87-.46l.36-.58a2.08,2.08,0,0,0,.72.39,2.73,2.73,0,0,0,.89.15,1.47,1.47,0,0,0,1.08-.34,1.42,1.42,0,0,0,.36-1.06v-.33a1.78,1.78,0,0,1-.66.49,2.49,2.49,0,0,1-1.94-.1,1.86,1.86,0,0,1-.75-.72,1.94,1.94,0,0,1-.28-1.05,1.92,1.92,0,0,1,.28-1,1.86,1.86,0,0,1,.75-.72,2.33,2.33,0,0,1,1.09-.25,2.3,2.3,0,0,1,.88.17,1.71,1.71,0,0,1,.67.52v-.65ZM163,537.5a1.57,1.57,0,0,0,.73-.17,1.31,1.31,0,0,0,.7-1.19,1.26,1.26,0,0,0-.4-1,1.6,1.6,0,0,0-2.07,0,1.26,1.26,0,0,0-.4,1,1.41,1.41,0,0,0,.18.71,1.31,1.31,0,0,0,.51.48A1.66,1.66,0,0,0,163,537.5Zm5.27-3.38a1.84,1.84,0,0,1,1.32.43,1.62,1.62,0,0,1,.47,1.27v2.52h-.72v-.55a1.3,1.3,0,0,1-.55.45,2,2,0,0,1-.82.15,1.79,1.79,0,0,1-1.13-.34,1.1,1.1,0,0,1-.42-.89,1.12,1.12,0,0,1,.4-.89,2,2,0,0,1,1.28-.34h1.2v-.15A1,1,0,0,0,169,535a1.22,1.22,0,0,0-.84-.26,2.29,2.29,0,0,0-.73.13,2.14,2.14,0,0,0-.6.32l-.31-.56a2.09,2.09,0,0,1,.77-.4A3.32,3.32,0,0,1,168.27,534.12Zm-.18,3.68a1.39,1.39,0,0,0,.75-.19,1.13,1.13,0,0,0,.46-.55v-.58h-1.17c-.64,0-1,.21-1,.64a.59.59,0,0,0,.24.5A1.14,1.14,0,0,0,168.09,537.8Zm4.69.59a3.64,3.64,0,0,1-1-.14,2.22,2.22,0,0,1-.74-.35l.32-.6a2.19,2.19,0,0,0,.67.31,2.71,2.71,0,0,0,.79.12c.67,0,1-.19,1-.57a.39.39,0,0,0-.14-.3.82.82,0,0,0-.34-.15,4.65,4.65,0,0,0-.56-.12,6.37,6.37,0,0,1-.83-.18,1.4,1.4,0,0,1-.55-.35,1,1,0,0,1-.22-.69,1,1,0,0,1,.47-.9,2.1,2.1,0,0,1,1.27-.35,3.31,3.31,0,0,1,.83.1,2.21,2.21,0,0,1,.69.28l-.32.6a2.19,2.19,0,0,0-1.21-.33,1.45,1.45,0,0,0-.73.15.48.48,0,0,0-.25.42.39.39,0,0,0,.14.33,1.08,1.08,0,0,0,.34.17,5.69,5.69,0,0,0,.6.12c.33.06.6.13.81.19a1.19,1.19,0,0,1,.53.34.89.89,0,0,1,.22.66,1,1,0,0,1-.48.9A2.23,2.23,0,0,1,172.78,538.39Zm9.06-5.9v5.85h-.73v-.66a1.62,1.62,0,0,1-.64.52,1.83,1.83,0,0,1-.85.19,2.2,2.2,0,0,1-1.09-.27,1.93,1.93,0,0,1-.75-.75,2.29,2.29,0,0,1-.27-1.12,2.23,2.23,0,0,1,.27-1.11,1.93,1.93,0,0,1,.75-.75,2.2,2.2,0,0,1,1.09-.27,2.05,2.05,0,0,1,.83.17,1.61,1.61,0,0,1,.63.5v-2.3Zm-2.15,5.23a1.41,1.41,0,0,0,.71-.18,1.28,1.28,0,0,0,.51-.52,1.74,1.74,0,0,0,0-1.54,1.28,1.28,0,0,0-.51-.52,1.41,1.41,0,0,0-.71-.18,1.49,1.49,0,0,0-.73.18,1.41,1.41,0,0,0-.51.52,1.74,1.74,0,0,0,0,1.54,1.41,1.41,0,0,0,.51.52A1.49,1.49,0,0,0,179.69,537.72Zm7.48-1.45a1,1,0,0,1,0,.23h-3.39a1.31,1.31,0,0,0,.49.89,1.59,1.59,0,0,0,1,.33,1.51,1.51,0,0,0,1.2-.5l.42.49a1.73,1.73,0,0,1-.71.5,2.35,2.35,0,0,1-.94.18,2.46,2.46,0,0,1-1.17-.27,2,2,0,0,1-.8-.77,2.21,2.21,0,0,1-.27-1.1,2.24,2.24,0,0,1,.27-1.1,1.91,1.91,0,0,1,.74-.75,2.1,2.1,0,0,1,1.08-.28,2,2,0,0,1,1.07.28,1.82,1.82,0,0,1,.73.75A2.29,2.29,0,0,1,187.17,536.27Zm-2.07-1.51a1.32,1.32,0,0,0-.91.33,1.39,1.39,0,0,0-.43.87h2.69a1.33,1.33,0,0,0-.44-.86A1.25,1.25,0,0,0,185.1,534.76Zm8.47-.64a1.68,1.68,0,0,1,1.25.46,1.8,1.8,0,0,1,.46,1.35v2.41h-.75V536a1.29,1.29,0,0,0-.29-.91,1,1,0,0,0-.79-.31,1.21,1.21,0,0,0-.92.36,1.47,1.47,0,0,0-.34,1v2.15h-.75V536a1.29,1.29,0,0,0-.29-.91,1,1,0,0,0-.79-.31,1.21,1.21,0,0,0-.92.36,1.42,1.42,0,0,0-.34,1v2.15h-.75v-4.18h.72v.62a1.45,1.45,0,0,1,.6-.49,2.07,2.07,0,0,1,.84-.17,1.86,1.86,0,0,1,.87.2,1.33,1.33,0,0,1,.58.57,1.67,1.67,0,0,1,.66-.57A2.24,2.24,0,0,1,193.57,534.12Zm4.75,0a1.87,1.87,0,0,1,1.33.43,1.62,1.62,0,0,1,.46,1.27v2.52h-.72v-.55a1.21,1.21,0,0,1-.54.45,2.09,2.09,0,0,1-.83.15,1.76,1.76,0,0,1-1.12-.34,1.1,1.1,0,0,1-.42-.89,1.09,1.09,0,0,1,.4-.89,2,2,0,0,1,1.28-.34h1.2v-.15a1,1,0,0,0-.29-.75,1.21,1.21,0,0,0-.83-.26,2.29,2.29,0,0,0-.73.13,1.9,1.9,0,0,0-.6.32l-.31-.56a2.09,2.09,0,0,1,.77-.4A3.31,3.31,0,0,1,198.32,534.12Zm-.17,3.68a1.39,1.39,0,0,0,.75-.19,1.13,1.13,0,0,0,.46-.55v-.58h-1.17c-.64,0-1,.21-1,.64a.59.59,0,0,0,.24.5A1.12,1.12,0,0,0,198.15,537.8Zm5.72-3.68a1.7,1.7,0,0,1,1.26.46,1.79,1.79,0,0,1,.47,1.35v2.41h-.75V536a1.25,1.25,0,0,0-.3-.91,1.06,1.06,0,0,0-.83-.31,1.31,1.31,0,0,0-1,.36,1.39,1.39,0,0,0-.36,1v2.15h-.75v-4.18h.72v.63a1.47,1.47,0,0,1,.62-.5A2.28,2.28,0,0,1,203.87,534.12Zm7.22-1.63v5.85h-.72v-.66a1.62,1.62,0,0,1-.64.52,1.86,1.86,0,0,1-.85.19,2.18,2.18,0,0,1-1.09-.27,2,2,0,0,1-.76-.75,2.29,2.29,0,0,1-.27-1.12,2.23,2.23,0,0,1,.27-1.11,2,2,0,0,1,.76-.75,2.18,2.18,0,0,1,1.09-.27,2.09,2.09,0,0,1,.83.17,1.61,1.61,0,0,1,.63.5v-2.3Zm-2.15,5.23a1.48,1.48,0,0,0,.72-.18,1.32,1.32,0,0,0,.5-.52,1.74,1.74,0,0,0,0-1.54,1.32,1.32,0,0,0-.5-.52,1.55,1.55,0,0,0-1.45,0,1.39,1.39,0,0,0-.5.52,1.74,1.74,0,0,0,0,1.54,1.39,1.39,0,0,0,.5.52A1.49,1.49,0,0,0,208.94,537.72ZM140.46,545a1.83,1.83,0,0,1,1.32.43,1.64,1.64,0,0,1,.47,1.27v2.52h-.72v-.55a1.34,1.34,0,0,1-.54.45,2.09,2.09,0,0,1-.83.15,1.75,1.75,0,0,1-1.13-.34,1.09,1.09,0,0,1-.42-.89,1.08,1.08,0,0,1,.41-.88,1.91,1.91,0,0,1,1.27-.34h1.2v-.15a1,1,0,0,0-.28-.75,1.18,1.18,0,0,0-.84-.26,2.18,2.18,0,0,0-.72.12,1.73,1.73,0,0,0-.6.33l-.32-.57a2.34,2.34,0,0,1,.77-.4A3.32,3.32,0,0,1,140.46,545Zm-.17,3.68a1.47,1.47,0,0,0,.74-.18,1.15,1.15,0,0,0,.46-.56v-.58h-1.17c-.64,0-1,.22-1,.65a.56.56,0,0,0,.25.49A1.12,1.12,0,0,0,140.29,548.64Zm4.68.59a3.52,3.52,0,0,1-1-.14,2.18,2.18,0,0,1-.75-.35l.32-.6a2.32,2.32,0,0,0,.67.32,3.09,3.09,0,0,0,.8.11c.66,0,1-.19,1-.56a.35.35,0,0,0-.13-.3.77.77,0,0,0-.34-.16,4.48,4.48,0,0,0-.57-.12,5.3,5.3,0,0,1-.83-.18,1.21,1.21,0,0,1-.54-.35.92.92,0,0,1-.23-.68,1.08,1.08,0,0,1,.47-.91,2.12,2.12,0,0,1,1.27-.35,4,4,0,0,1,.84.1,2.4,2.4,0,0,1,.68.28l-.32.6a2.17,2.17,0,0,0-1.21-.33,1.34,1.34,0,0,0-.73.16.46.46,0,0,0-.25.41.39.39,0,0,0,.14.33.88.88,0,0,0,.35.17l.59.13a5.79,5.79,0,0,1,.81.19,1.17,1.17,0,0,1,.54.33,1,1,0,0,1,.22.66,1.08,1.08,0,0,1-.49.91A2.3,2.3,0,0,1,145,549.23Zm6.91,0a2.19,2.19,0,0,1-1.12-.28,2,2,0,0,1-.78-.75,2.18,2.18,0,0,1-.28-1.11A2.08,2.08,0,0,1,150,546a2,2,0,0,1,.78-.76,2.36,2.36,0,0,1,2.23,0,1.88,1.88,0,0,1,.77.76,2.09,2.09,0,0,1,.29,1.09,2.19,2.19,0,0,1-.29,1.11,1.92,1.92,0,0,1-.77.75A2.18,2.18,0,0,1,151.88,549.23Zm0-.66a1.36,1.36,0,0,0,.72-.19,1.26,1.26,0,0,0,.5-.52,1.59,1.59,0,0,0,.18-.77,1.55,1.55,0,0,0-.18-.76,1.26,1.26,0,0,0-.5-.52,1.46,1.46,0,0,0-.72-.19,1.5,1.5,0,0,0-.73.19,1.26,1.26,0,0,0-.5.52,1.55,1.55,0,0,0-.18.76,1.59,1.59,0,0,0,.18.77,1.26,1.26,0,0,0,.5.52A1.4,1.4,0,0,0,151.88,548.57Zm4.87-4.66c-.46,0-.68.24-.68.73V545h1.21v.62h-1.2v3.56h-.75v-3.56h-.71V545h.71v-.37a1.33,1.33,0,0,1,.36-1,1.35,1.35,0,0,1,1-.37,1.49,1.49,0,0,1,.47.07,1.11,1.11,0,0,1,.38.18l-.23.57A.94.94,0,0,0,156.75,543.91Zm4.51.44v1.92H164V547h-2.77v2.23h-.79v-5.52h3.9v.69Zm7.88,2.77s0,.13,0,.22h-3.39a1.34,1.34,0,0,0,.48.89,1.71,1.71,0,0,0,2.24-.17l.42.49a1.8,1.8,0,0,1-.71.5,2.35,2.35,0,0,1-.94.18A2.53,2.53,0,0,1,166,549a2,2,0,0,1-.79-.76,2.34,2.34,0,0,1,0-2.2,1.89,1.89,0,0,1,.75-.76,2.07,2.07,0,0,1,1.08-.28,2,2,0,0,1,1.06.28,1.87,1.87,0,0,1,.74.76A2.24,2.24,0,0,1,169.14,547.12Zm-2.07-1.52a1.35,1.35,0,0,0-.92.33,1.34,1.34,0,0,0-.42.87h2.68a1.34,1.34,0,0,0-.43-.86A1.29,1.29,0,0,0,167.07,545.6Zm5.46-.64a2.16,2.16,0,0,1,1.08.27,1.93,1.93,0,0,1,.75.75,2.13,2.13,0,0,1,.28,1.11,2.17,2.17,0,0,1-.28,1.12,1.93,1.93,0,0,1-.75.75,2.16,2.16,0,0,1-1.08.27,2,2,0,0,1-.86-.18,1.62,1.62,0,0,1-.63-.53v.66h-.73v-5.85h.76v2.3a1.59,1.59,0,0,1,.63-.49A1.9,1.9,0,0,1,172.53,545Zm-.07,3.61a1.34,1.34,0,0,0,.72-.19,1.2,1.2,0,0,0,.5-.52,1.49,1.49,0,0,0,.19-.77,1.45,1.45,0,0,0-.19-.76,1.2,1.2,0,0,0-.5-.52,1.43,1.43,0,0,0-.72-.19,1.49,1.49,0,0,0-.72.19,1.26,1.26,0,0,0-.5.52,1.55,1.55,0,0,0-.18.76,1.59,1.59,0,0,0,.18.77,1.26,1.26,0,0,0,.5.52A1.39,1.39,0,0,0,172.46,548.57Zm7-4.91v5.52h-.78v-4.83h-1.25v-.69Zm2.91,2.2a2.7,2.7,0,0,1,1.73.45,1.46,1.46,0,0,1,.56,1.22,1.75,1.75,0,0,1-.23.88,1.62,1.62,0,0,1-.7.61,2.67,2.67,0,0,1-1.16.22,3.5,3.5,0,0,1-1.12-.17,2.43,2.43,0,0,1-.9-.5l.36-.62a2.08,2.08,0,0,0,.73.43,2.6,2.6,0,0,0,.93.16,1.52,1.52,0,0,0,1-.26.87.87,0,0,0,.35-.72.85.85,0,0,0-.38-.75,2.37,2.37,0,0,0-1.3-.26h-1.25l.29-2.89h3.12v.69h-2.46l-.15,1.51Z" transform="translate(-138.21 -201.72)"/><path class="cls-6" d="M144.85,269.64v5.52h-.56v-4.42l-2.17,3.71h-.27l-2.17-3.69v4.4h-.56v-5.52h.48l2.4,4.09,2.37-4.09Zm1.8,1.37h.56v4.15h-.56Zm.29-.91a.38.38,0,0,1-.29-.12.39.39,0,0,1,0-.56.38.38,0,0,1,.29-.12.4.4,0,0,1,.29.12.37.37,0,0,1,.12.27.38.38,0,0,1-.12.29A.4.4,0,0,1,146.94,270.1ZM151,271a1.7,1.7,0,0,1,1.24.45,1.75,1.75,0,0,1,.46,1.32v2.41h-.56v-2.35a1.4,1.4,0,0,0-.32-1,1.2,1.2,0,0,0-.92-.34,1.42,1.42,0,0,0-1.07.4,1.5,1.5,0,0,0-.38,1.1v2.18h-.56V271h.53v.76a1.54,1.54,0,0,1,.63-.58A2.08,2.08,0,0,1,151,271Zm3.35,0h.56v4.15h-.56Zm.28-.91a.38.38,0,0,1-.29-.12.39.39,0,0,1,0-.56.38.38,0,0,1,.29-.12.4.4,0,0,1,.29.12.37.37,0,0,1,.12.27.38.38,0,0,1-.12.29A.4.4,0,0,1,154.64,270.1Zm7.13.88a1.62,1.62,0,0,1,1.22.45,1.79,1.79,0,0,1,.45,1.32v2.41h-.56v-2.35a1.4,1.4,0,0,0-.31-1,1.12,1.12,0,0,0-.88-.34,1.32,1.32,0,0,0-1,.4,1.59,1.59,0,0,0-.37,1.1v2.18h-.56v-2.35a1.4,1.4,0,0,0-.31-1,1.13,1.13,0,0,0-.89-.34,1.31,1.31,0,0,0-1,.4,1.54,1.54,0,0,0-.37,1.1v2.18h-.56V271h.53v.75a1.51,1.51,0,0,1,.62-.58,1.87,1.87,0,0,1,.9-.2,1.72,1.72,0,0,1,.9.22,1.32,1.32,0,0,1,.58.65,1.67,1.67,0,0,1,.65-.64A2.13,2.13,0,0,1,161.77,271Zm7,0v4.15h-.54v-.76a1.55,1.55,0,0,1-.6.59,1.86,1.86,0,0,1-.89.21,1.77,1.77,0,0,1-1.28-.45,1.81,1.81,0,0,1-.47-1.34V271h.56v2.35a1.36,1.36,0,0,0,.33,1,1.19,1.19,0,0,0,.92.34,1.36,1.36,0,0,0,1-.39,1.58,1.58,0,0,0,.38-1.12V271Zm6.86,0a1.66,1.66,0,0,1,1.23.45,1.79,1.79,0,0,1,.45,1.32v2.41h-.56v-2.35a1.4,1.4,0,0,0-.32-1,1.1,1.1,0,0,0-.87-.34,1.3,1.3,0,0,0-1,.4,1.54,1.54,0,0,0-.37,1.1v2.18h-.56v-2.35a1.4,1.4,0,0,0-.32-1,1.11,1.11,0,0,0-.88-.34,1.32,1.32,0,0,0-1,.4,1.54,1.54,0,0,0-.37,1.1v2.18h-.56V271h.54v.75a1.48,1.48,0,0,1,.61-.58,1.93,1.93,0,0,1,.91-.2,1.72,1.72,0,0,1,.9.22,1.26,1.26,0,0,1,.57.65,1.69,1.69,0,0,1,.66-.64A2.11,2.11,0,0,1,175.68,271Zm5.62-1.34h.59v5H185v.51H181.3Zm9.38,0v5.52h-.48l-3.55-4.48v4.48h-.58v-5.52h.48l3.56,4.47v-4.47Zm5.82,2.76h.56v2.1a2.68,2.68,0,0,1-.92.52,3.4,3.4,0,0,1-1.11.18,3.07,3.07,0,0,1-1.49-.36,2.7,2.7,0,0,1-1-1,2.92,2.92,0,0,1,0-2.88,2.66,2.66,0,0,1,1-1,3.08,3.08,0,0,1,1.5-.36,3.36,3.36,0,0,1,1.16.2,2.28,2.28,0,0,1,.89.59l-.37.38a2.22,2.22,0,0,0-1.66-.65,2.44,2.44,0,0,0-1.21.3,2.16,2.16,0,0,0-.85.82,2.3,2.3,0,0,0-.31,1.17,2.26,2.26,0,0,0,.31,1.16,2.23,2.23,0,0,0,.85.82,2.4,2.4,0,0,0,1.2.3,2.46,2.46,0,0,0,1.45-.42Zm5.85-1.42a1.73,1.73,0,0,1,1.25.41,1.56,1.56,0,0,1,.43,1.19v2.58h-.54v-.65a1.25,1.25,0,0,1-.56.5,1.91,1.91,0,0,1-.86.19,1.73,1.73,0,0,1-1.11-.34,1.13,1.13,0,0,1,0-1.72,1.87,1.87,0,0,1,1.22-.33h1.32v-.25a1,1,0,0,0-.3-.81,1.22,1.22,0,0,0-.88-.28,2.11,2.11,0,0,0-.75.13,1.93,1.93,0,0,0-.63.35l-.25-.41a2.06,2.06,0,0,1,.76-.41A2.83,2.83,0,0,1,202.35,271Zm-.2,3.77a1.54,1.54,0,0,0,.82-.21,1.37,1.37,0,0,0,.5-.63v-.68h-1.3c-.71,0-1.07.25-1.07.74a.71.71,0,0,0,.28.58A1.31,1.31,0,0,0,202.15,274.75Zm5.64-3.77a1.66,1.66,0,0,1,1.23.45,1.72,1.72,0,0,1,.47,1.32v2.41h-.56v-2.35a1.4,1.4,0,0,0-.32-1,1.22,1.22,0,0,0-.93-.34,1.41,1.41,0,0,0-1.06.4,1.51,1.51,0,0,0-.39,1.1v2.18h-.56V271h.54v.76a1.54,1.54,0,0,1,.63-.58A2,2,0,0,1,207.79,271Zm7.14-1.68v5.86h-.53v-.82a1.69,1.69,0,0,1-.67.63,1.94,1.94,0,0,1-.93.23,2.12,2.12,0,0,1-1.06-.27,1.91,1.91,0,0,1-.74-.75,2.21,2.21,0,0,1-.27-1.1A2.18,2.18,0,0,1,211,272a1.84,1.84,0,0,1,.74-.75,2.22,2.22,0,0,1,1.06-.26,1.9,1.9,0,0,1,.9.21,1.64,1.64,0,0,1,.67.61v-2.5Zm-2.09,5.4a1.56,1.56,0,0,0,.78-.2,1.46,1.46,0,0,0,.56-.57,1.81,1.81,0,0,0,.2-.85,1.77,1.77,0,0,0-.2-.84,1.34,1.34,0,0,0-.56-.57,1.46,1.46,0,0,0-.78-.2,1.5,1.5,0,0,0-.79.2,1.38,1.38,0,0,0-.55.57,1.66,1.66,0,0,0-.2.84,1.7,1.7,0,0,0,.2.85,1.51,1.51,0,0,0,.55.57A1.6,1.6,0,0,0,212.84,274.7ZM140.7,286a2.23,2.23,0,0,1-1.09-.27,2,2,0,0,1-.75-.76,2.24,2.24,0,0,1,0-2.17,1.93,1.93,0,0,1,.75-.75,2.32,2.32,0,0,1,2.17,0,1.84,1.84,0,0,1,.74.75,2.24,2.24,0,0,1,0,2.17,1.87,1.87,0,0,1-.74.76A2.22,2.22,0,0,1,140.7,286Zm0-.5a1.46,1.46,0,0,0,.78-.2,1.4,1.4,0,0,0,.56-.57,2,2,0,0,0,0-1.69,1.4,1.4,0,0,0-.56-.57,1.56,1.56,0,0,0-.78-.2,1.64,1.64,0,0,0-.8.2,1.38,1.38,0,0,0-.55.57,1.89,1.89,0,0,0,0,1.69,1.38,1.38,0,0,0,.55.57A1.53,1.53,0,0,0,140.7,285.54Zm5.55.21a1.32,1.32,0,0,1-.39.22,2,2,0,0,1-.48.07,1.22,1.22,0,0,1-.9-.32,1.2,1.2,0,0,1-.32-.89v-2.51h-.74v-.47h.74v-.91h.56v.91H146v.47h-1.26v2.48a.81.81,0,0,0,.18.57.77.77,0,0,0,.54.19.92.92,0,0,0,.33-.06.76.76,0,0,0,.28-.16Zm3.26-3.93a1.67,1.67,0,0,1,1.24.46,1.74,1.74,0,0,1,.46,1.31V286h-.56v-2.35a1.42,1.42,0,0,0-.32-1,1.26,1.26,0,0,0-.93-.34,1.42,1.42,0,0,0-1.06.41,1.47,1.47,0,0,0-.39,1.09V286h-.56v-5.85H148v2.43a1.55,1.55,0,0,1,.63-.56A2,2,0,0,1,149.51,281.82Zm7,2.28H153a1.5,1.5,0,0,0,.5,1,1.67,1.67,0,0,0,1.13.39,1.8,1.8,0,0,0,.71-.13,1.54,1.54,0,0,0,.56-.41l.32.36a1.77,1.77,0,0,1-.7.5,2.19,2.19,0,0,1-.9.18,2.34,2.34,0,0,1-1.14-.27,2,2,0,0,1-.76-.76,2.08,2.08,0,0,1-.28-1.09,2.27,2.27,0,0,1,.26-1.08,2,2,0,0,1,.73-.75,2,2,0,0,1,1-.27,2,2,0,0,1,1,.27,1.92,1.92,0,0,1,.72.75,2.21,2.21,0,0,1,.26,1.08Zm-2-1.8a1.4,1.4,0,0,0-1,.39,1.49,1.49,0,0,0-.46,1H156a1.45,1.45,0,0,0-.46-1A1.4,1.4,0,0,0,154.48,282.3Zm3.81.36a1.32,1.32,0,0,1,.58-.63,2,2,0,0,1,1-.21v.54h-.13a1.33,1.33,0,0,0-1,.4,1.59,1.59,0,0,0-.37,1.13V286h-.56v-4.15h.54Zm6.05,3.38a3.45,3.45,0,0,1-1-.14,2.19,2.19,0,0,1-.72-.37l.25-.45a2.15,2.15,0,0,0,.66.34,2.47,2.47,0,0,0,.82.13,1.61,1.61,0,0,0,.83-.17.58.58,0,0,0,.28-.51.43.43,0,0,0-.15-.35.92.92,0,0,0-.38-.2,5.22,5.22,0,0,0-.61-.14q-.49-.09-.81-.18a1.42,1.42,0,0,1-.53-.34,1,1,0,0,1-.21-.66,1,1,0,0,1,.43-.85,2,2,0,0,1,1.21-.33,3.22,3.22,0,0,1,.81.11,2.22,2.22,0,0,1,.66.28l-.25.44a2.14,2.14,0,0,0-1.22-.35,1.38,1.38,0,0,0-.81.19.58.58,0,0,0-.27.5.48.48,0,0,0,.15.37,1,1,0,0,0,.39.22l.63.13a7.15,7.15,0,0,1,.79.19,1.23,1.23,0,0,1,.52.32.92.92,0,0,1,.21.63,1,1,0,0,1-.46.87A2.16,2.16,0,0,1,164.34,286Zm5-.29a1.21,1.21,0,0,1-.39.22,1.85,1.85,0,0,1-.48.07,1.22,1.22,0,0,1-.9-.32,1.2,1.2,0,0,1-.32-.89v-2.51h-.74v-.47h.74v-.91h.56v.91h1.26v.47h-1.26v2.48a.81.81,0,0,0,.18.57.77.77,0,0,0,.54.19.88.88,0,0,0,.33-.06.9.9,0,0,0,.29-.16Zm2.6-3.93a1.75,1.75,0,0,1,1.24.41,1.56,1.56,0,0,1,.44,1.2V286h-.54v-.65a1.26,1.26,0,0,1-.56.51,1.93,1.93,0,0,1-.87.18,1.7,1.7,0,0,1-1.1-.33,1.06,1.06,0,0,1-.41-.88,1,1,0,0,1,.38-.85,1.84,1.84,0,0,1,1.22-.32h1.32v-.26a1.06,1.06,0,0,0-.3-.81,1.24,1.24,0,0,0-.88-.28,2.21,2.21,0,0,0-.76.13,1.81,1.81,0,0,0-.62.36l-.25-.42a2.06,2.06,0,0,1,.76-.41A2.83,2.83,0,0,1,172,281.82Zm-.2,3.78a1.45,1.45,0,0,0,.81-.22,1.29,1.29,0,0,0,.51-.63v-.68H171.8c-.71,0-1.06.25-1.06.75a.67.67,0,0,0,.28.57A1.24,1.24,0,0,0,171.79,285.6Zm5.7.15a1.21,1.21,0,0,1-.39.22,1.85,1.85,0,0,1-.48.07,1.22,1.22,0,0,1-.9-.32,1.2,1.2,0,0,1-.32-.89v-2.51h-.74v-.47h.74v-.91H176v.91h1.27v.47H176v2.48a.81.81,0,0,0,.18.57.77.77,0,0,0,.54.19.88.88,0,0,0,.33-.06.9.9,0,0,0,.29-.16Zm4.61-1.65h-3.47a1.5,1.5,0,0,0,.5,1,1.67,1.67,0,0,0,1.13.39,1.8,1.8,0,0,0,.71-.13,1.54,1.54,0,0,0,.56-.41l.32.36a1.77,1.77,0,0,1-.7.5,2.19,2.19,0,0,1-.9.18,2.34,2.34,0,0,1-1.14-.27,2,2,0,0,1-.76-.76,2.08,2.08,0,0,1-.28-1.09,2.27,2.27,0,0,1,.26-1.08,2,2,0,0,1,.73-.75,2,2,0,0,1,1-.27,2,2,0,0,1,1,.27,1.86,1.86,0,0,1,.72.75,2.21,2.21,0,0,1,.26,1.08Zm-2-1.8a1.4,1.4,0,0,0-1,.39,1.49,1.49,0,0,0-.46,1h2.94a1.45,1.45,0,0,0-.46-1A1.4,1.4,0,0,0,180.1,282.3Zm9.07,1.8H185.7a1.5,1.5,0,0,0,.5,1,1.67,1.67,0,0,0,1.13.39,1.8,1.8,0,0,0,.71-.13,1.54,1.54,0,0,0,.56-.41l.32.36a1.77,1.77,0,0,1-.7.5,2.19,2.19,0,0,1-.9.18,2.34,2.34,0,0,1-1.14-.27,2,2,0,0,1-.76-.76,2.08,2.08,0,0,1-.28-1.09,2.27,2.27,0,0,1,.26-1.08,2,2,0,0,1,.73-.75,2,2,0,0,1,1-.27,2,2,0,0,1,1,.27,1.92,1.92,0,0,1,.72.75,2.21,2.21,0,0,1,.26,1.08Zm-2-1.8a1.4,1.4,0,0,0-1,.39,1.49,1.49,0,0,0-.46,1h2.94a1.45,1.45,0,0,0-.46-1A1.4,1.4,0,0,0,187.17,282.3ZM193,286l-1.32-1.74L190.33,286h-.64l1.65-2.13-1.57-2h.63l1.25,1.62,1.25-1.62h.61l-1.56,2,1.66,2.13Zm3.83-4.18a2.12,2.12,0,0,1,1.06.27,1.88,1.88,0,0,1,.74.74,2.28,2.28,0,0,1,.26,1.09,2.33,2.33,0,0,1-.26,1.11,2,2,0,0,1-.74.75,2.22,2.22,0,0,1-1.06.26,2,2,0,0,1-.92-.21,1.75,1.75,0,0,1-.66-.61v2.31h-.56v-5.68h.54v.82a1.81,1.81,0,0,1,.66-.63A2,2,0,0,1,196.8,281.82Zm0,3.72a1.52,1.52,0,0,0,.79-.2,1.38,1.38,0,0,0,.55-.57,1.7,1.7,0,0,0,.2-.85,1.62,1.62,0,0,0-.2-.83,1.46,1.46,0,0,0-.55-.58,1.68,1.68,0,0,0-1.59,0,1.54,1.54,0,0,0-.55.58,1.73,1.73,0,0,0-.2.83,1.81,1.81,0,0,0,.2.85,1.44,1.44,0,0,0,.55.57A1.53,1.53,0,0,0,196.76,285.54Zm5.06.5a2.16,2.16,0,0,1-1.08-.27A2,2,0,0,1,200,285a2.24,2.24,0,0,1,0-2.17,1.93,1.93,0,0,1,.75-.75,2.3,2.3,0,0,1,2.16,0,1.81,1.81,0,0,1,.75.75,2.24,2.24,0,0,1,0,2.17,1.83,1.83,0,0,1-.75.76A2.16,2.16,0,0,1,201.82,286Zm0-.5a1.48,1.48,0,0,0,.79-.2,1.32,1.32,0,0,0,.55-.57,1.89,1.89,0,0,0,0-1.69,1.32,1.32,0,0,0-.55-.57,1.57,1.57,0,0,0-.79-.2,1.6,1.6,0,0,0-.79.2,1.38,1.38,0,0,0-.55.57,1.89,1.89,0,0,0,0,1.69,1.38,1.38,0,0,0,.55.57A1.5,1.5,0,0,0,201.82,285.54Zm3.91-2.88a1.34,1.34,0,0,1,.59-.63,2,2,0,0,1,1-.21v.54h-.14a1.3,1.3,0,0,0-1,.4,1.59,1.59,0,0,0-.37,1.13V286h-.56v-4.15h.53Zm5.05,3.09a1.21,1.21,0,0,1-.39.22,1.85,1.85,0,0,1-.48.07,1.22,1.22,0,0,1-.9-.32,1.2,1.2,0,0,1-.32-.89v-2.51H208v-.47h.74v-.91h.56v.91h1.27v.47h-1.27v2.48a.77.77,0,0,0,.19.57.73.73,0,0,0,.53.19.88.88,0,0,0,.33-.06.9.9,0,0,0,.29-.16ZM213,286a3.45,3.45,0,0,1-1-.14,2.19,2.19,0,0,1-.72-.37l.25-.45a2.15,2.15,0,0,0,.66.34,2.47,2.47,0,0,0,.82.13,1.61,1.61,0,0,0,.83-.17.58.58,0,0,0,.28-.51.43.43,0,0,0-.15-.35.92.92,0,0,0-.38-.2,5.22,5.22,0,0,0-.61-.14q-.5-.09-.81-.18a1.42,1.42,0,0,1-.53-.34,1,1,0,0,1-.21-.66,1,1,0,0,1,.43-.85,2,2,0,0,1,1.21-.33,3.22,3.22,0,0,1,.81.11,2.22,2.22,0,0,1,.66.28l-.25.44a2.14,2.14,0,0,0-1.22-.35,1.38,1.38,0,0,0-.81.19.58.58,0,0,0-.27.5.48.48,0,0,0,.15.37,1,1,0,0,0,.39.22l.63.13a7.15,7.15,0,0,1,.79.19,1.23,1.23,0,0,1,.52.32.92.92,0,0,1,.21.63,1,1,0,0,1-.46.87A2.16,2.16,0,0,1,213,286Z" transform="translate(-138.21 -201.72)"/><path class="cls-6" d="M141.2,426.36a2.53,2.53,0,0,1,1.69.52,1.93,1.93,0,0,1,0,2.82,2.58,2.58,0,0,1-1.69.51h-1.36v1.67h-.79v-5.52Zm0,3.16a1.78,1.78,0,0,0,1.14-.31,1.13,1.13,0,0,0,.39-.92,1.12,1.12,0,0,0-.39-.92,1.78,1.78,0,0,0-1.14-.32h-1.34v2.47Zm4.15-1.12a1.34,1.34,0,0,1,.58-.55,2.22,2.22,0,0,1,.94-.19v.74h-.17a1.27,1.27,0,0,0-1,.37,1.45,1.45,0,0,0-.35,1v2.08h-.76V427.7h.73Zm2.58-.7h.76v4.18h-.76Zm.38-.8a.53.53,0,0,1-.37-.14.48.48,0,0,1,0-.7.5.5,0,0,1,.37-.15.52.52,0,0,1,.36.14.45.45,0,0,1,.15.34.5.5,0,0,1-.15.37A.52.52,0,0,1,148.29,426.9Zm3.73,5a2.24,2.24,0,0,1-1.12-.28,2,2,0,0,1-.78-.75,2.28,2.28,0,0,1-.27-1.11,2.18,2.18,0,0,1,.27-1.09,2,2,0,0,1,.78-.76,2.35,2.35,0,0,1,1.12-.28,2.3,2.3,0,0,1,1.12.28,1.94,1.94,0,0,1,.77.76,2.08,2.08,0,0,1,.28,1.09,2.18,2.18,0,0,1-.28,1.11,2,2,0,0,1-.77.75A2.19,2.19,0,0,1,152,431.93Zm0-.66a1.43,1.43,0,0,0,.72-.18,1.34,1.34,0,0,0,.51-.52,1.66,1.66,0,0,0,.18-.78,1.55,1.55,0,0,0-.18-.76,1.22,1.22,0,0,0-.51-.52,1.43,1.43,0,0,0-.72-.18,1.45,1.45,0,0,0-.72.18,1.34,1.34,0,0,0-.51.52,1.55,1.55,0,0,0-.18.76,1.66,1.66,0,0,0,.18.78,1.49,1.49,0,0,0,.51.52A1.45,1.45,0,0,0,152,431.27Zm4.07-2.87a1.29,1.29,0,0,1,.58-.55,2.22,2.22,0,0,1,.94-.19v.74h-.17a1.26,1.26,0,0,0-1,.37,1.45,1.45,0,0,0-.35,1v2.08h-.76V427.7h.73Zm2.58-.7h.75v4.18h-.75Zm.37-.8a.55.55,0,0,1-.37-.14.51.51,0,0,1,0-.7.51.51,0,0,1,.37-.15.53.53,0,0,1,.37.14.45.45,0,0,1,.15.34.5.5,0,0,1-.15.37A.53.53,0,0,1,159,426.9Zm4.3,4.74a1.23,1.23,0,0,1-.41.22,1.68,1.68,0,0,1-.5.07,1.33,1.33,0,0,1-1-.34,1.31,1.31,0,0,1-.35-1v-2.29h-.71v-.63h.71v-.91h.76v.91h1.2v.63h-1.2v2.26a.74.74,0,0,0,.16.52.66.66,0,0,0,.49.18.89.89,0,0,0,.6-.2Zm1-3.94h.76v4.18h-.76Zm.38-.8a.53.53,0,0,1-.37-.14.51.51,0,0,1,0-.7.5.5,0,0,1,.37-.15.49.49,0,0,1,.36.14.45.45,0,0,1,.15.34.5.5,0,0,1-.15.37A.49.49,0,0,1,164.76,426.9Zm5,4.36v.62h-3.5v-.49l2.47-3.06h-2.42v-.63h3.39v.5l-2.47,3.06Zm4.86-1.44c0,.05,0,.13,0,.23h-3.39a1.38,1.38,0,0,0,.48.89,1.61,1.61,0,0,0,1,.33,1.54,1.54,0,0,0,1.21-.51l.42.49a1.93,1.93,0,0,1-.71.51,2.54,2.54,0,0,1-.94.17,2.46,2.46,0,0,1-1.17-.27,2,2,0,0,1-.8-.76,2.29,2.29,0,0,1-.28-1.11,2.2,2.2,0,0,1,.27-1.09,2,2,0,0,1,.75-.76,2.17,2.17,0,0,1,1.08-.28,2.11,2.11,0,0,1,1.07.28,1.85,1.85,0,0,1,.73.76A2.26,2.26,0,0,1,174.66,429.82Zm-2.07-1.52a1.3,1.3,0,0,0-1.34,1.2h2.68a1.34,1.34,0,0,0-.43-.86A1.31,1.31,0,0,0,172.59,428.3Zm7.18-2.27v5.85h-.72v-.66a1.65,1.65,0,0,1-.64.53,2,2,0,0,1-.85.18,2.18,2.18,0,0,1-1.09-.27,2,2,0,0,1-.76-.75,2.26,2.26,0,0,1-.27-1.12,2.23,2.23,0,0,1,.27-1.11,2,2,0,0,1,.76-.75,2.18,2.18,0,0,1,1.09-.27,1.94,1.94,0,0,1,.83.18,1.59,1.59,0,0,1,.63.49V426Zm-2.15,5.24a1.48,1.48,0,0,0,.72-.18,1.39,1.39,0,0,0,.5-.52,1.66,1.66,0,0,0,.18-.78,1.55,1.55,0,0,0-.18-.76,1.26,1.26,0,0,0-.5-.52,1.48,1.48,0,0,0-.72-.18,1.43,1.43,0,0,0-.72.18,1.34,1.34,0,0,0-.51.52,1.55,1.55,0,0,0-.18.76,1.66,1.66,0,0,0,.18.78,1.49,1.49,0,0,0,.51.52A1.43,1.43,0,0,0,177.62,431.27Zm6.68-2.87a1.29,1.29,0,0,1,.58-.55,2.22,2.22,0,0,1,.94-.19v.74h-.18a1.27,1.27,0,0,0-1,.37,1.45,1.45,0,0,0-.34,1v2.08h-.76V427.7h.73Zm6.31,1.42a2.2,2.2,0,0,1,0,.23h-3.39a1.3,1.3,0,0,0,.48.89,1.61,1.61,0,0,0,1,.33,1.56,1.56,0,0,0,1.21-.51l.42.49a1.93,1.93,0,0,1-.71.51,2.58,2.58,0,0,1-.94.17,2.5,2.5,0,0,1-1.18-.27,1.93,1.93,0,0,1-.79-.76,2.34,2.34,0,0,1,0-2.2,1.89,1.89,0,0,1,.75-.76,2.17,2.17,0,0,1,1.08-.28,2.07,2.07,0,0,1,1.06.28,1.87,1.87,0,0,1,.74.76A2.37,2.37,0,0,1,190.61,429.82Zm-2.06-1.52a1.28,1.28,0,0,0-1.34,1.2h2.68a1.31,1.31,0,0,0-.44-.86A1.29,1.29,0,0,0,188.55,428.3Zm4.44,3.63a4,4,0,0,1-1-.13,2.32,2.32,0,0,1-.74-.36l.31-.6a2.45,2.45,0,0,0,.67.32,2.77,2.77,0,0,0,.8.12q1,0,1-.57a.35.35,0,0,0-.13-.3.72.72,0,0,0-.34-.16,4.48,4.48,0,0,0-.57-.12,5.15,5.15,0,0,1-.82-.18,1.24,1.24,0,0,1-.55-.35,1,1,0,0,1-.23-.68,1.07,1.07,0,0,1,.48-.91,2.08,2.08,0,0,1,1.27-.35,3.44,3.44,0,0,1,.83.11,2.21,2.21,0,0,1,.69.27l-.33.6a2.16,2.16,0,0,0-1.2-.33,1.38,1.38,0,0,0-.74.16.48.48,0,0,0-.25.42.42.42,0,0,0,.14.32.82.82,0,0,0,.35.17l.59.13a5.46,5.46,0,0,1,.81.19,1.12,1.12,0,0,1,.54.33.92.92,0,0,1,.22.66,1.05,1.05,0,0,1-.49.91A2.29,2.29,0,0,1,193,431.93Zm2.87-4.23h.76v4.18h-.76Zm.38-.8a.53.53,0,0,1-.37-.14.51.51,0,0,1,0-.7.5.5,0,0,1,.37-.15.49.49,0,0,1,.36.14.45.45,0,0,1,.15.34.5.5,0,0,1-.15.37A.49.49,0,0,1,196.24,426.9Zm5.89-.87v5.85h-.73v-.66a1.62,1.62,0,0,1-.63.53,2,2,0,0,1-.86.18,2.16,2.16,0,0,1-1.08-.27,1.89,1.89,0,0,1-.76-.75,2.26,2.26,0,0,1-.27-1.12,2.23,2.23,0,0,1,.27-1.11,1.89,1.89,0,0,1,.76-.75,2.16,2.16,0,0,1,1.08-.27,1.9,1.9,0,0,1,.83.18,1.59,1.59,0,0,1,.63.49V426ZM200,431.27a1.41,1.41,0,0,0,.71-.18,1.34,1.34,0,0,0,.51-.52,1.66,1.66,0,0,0,.18-.78,1.55,1.55,0,0,0-.18-.76,1.22,1.22,0,0,0-.51-.52,1.41,1.41,0,0,0-.71-.18,1.49,1.49,0,0,0-.73.18,1.26,1.26,0,0,0-.5.52,1.55,1.55,0,0,0-.18.76,1.66,1.66,0,0,0,.18.78,1.39,1.39,0,0,0,.5.52A1.49,1.49,0,0,0,200,431.27Zm7.48-1.45a2.2,2.2,0,0,1,0,.23h-3.39a1.3,1.3,0,0,0,.48.89,1.61,1.61,0,0,0,1,.33,1.56,1.56,0,0,0,1.21-.51l.41.49a1.85,1.85,0,0,1-.71.51,2.68,2.68,0,0,1-2.11-.1,2,2,0,0,1-.8-.76,2.28,2.28,0,0,1-.27-1.11,2.2,2.2,0,0,1,.27-1.09,1.89,1.89,0,0,1,.75-.76,2.17,2.17,0,0,1,1.08-.28,2.07,2.07,0,0,1,1.06.28,1.79,1.79,0,0,1,.73.76A2.26,2.26,0,0,1,207.46,429.82Zm-2.06-1.52a1.28,1.28,0,0,0-1.34,1.2h2.68a1.36,1.36,0,0,0-.44-.86A1.29,1.29,0,0,0,205.4,428.3Zm5.47-.64a1.71,1.71,0,0,1,1.26.47,1.76,1.76,0,0,1,.47,1.35v2.4h-.75v-2.32a1.25,1.25,0,0,0-.3-.91,1.06,1.06,0,0,0-.83-.31,1.31,1.31,0,0,0-1,.36,1.39,1.39,0,0,0-.36,1v2.15h-.75V427.7h.72v.63a1.45,1.45,0,0,1,.62-.49A2.11,2.11,0,0,1,210.87,427.66Zm5.61,4a1.23,1.23,0,0,1-.41.22,1.75,1.75,0,0,1-.51.07,1.34,1.34,0,0,1-1-.34,1.3,1.3,0,0,1-.34-1v-2.29h-.71v-.63h.71v-.91H215v.91h1.19v.63H215v2.26a.74.74,0,0,0,.16.52.66.66,0,0,0,.49.18.86.86,0,0,0,.59-.2Zm1-3.94h.75v4.18h-.75Zm.37-.8a.55.55,0,0,1-.37-.14.51.51,0,0,1,0-.7.51.51,0,0,1,.37-.15.53.53,0,0,1,.37.14.45.45,0,0,1,.15.34.5.5,0,0,1-.15.37A.53.53,0,0,1,217.89,426.9Zm3.47.76a1.91,1.91,0,0,1,1.33.43,1.63,1.63,0,0,1,.46,1.27v2.52h-.71v-.55a1.23,1.23,0,0,1-.55.45,2.09,2.09,0,0,1-.83.15,1.72,1.72,0,0,1-1.12-.34,1.09,1.09,0,0,1-.42-.89,1.07,1.07,0,0,1,.4-.88,1.94,1.94,0,0,1,1.28-.34h1.2v-.15a1,1,0,0,0-.29-.75,1.17,1.17,0,0,0-.83-.26,2.28,2.28,0,0,0-.73.12,1.73,1.73,0,0,0-.6.33l-.31-.57a2.07,2.07,0,0,1,.77-.39A3,3,0,0,1,221.36,427.66Zm-.17,3.69a1.49,1.49,0,0,0,.75-.19,1.16,1.16,0,0,0,.46-.56V430h-1.17c-.64,0-1,.22-1,.65a.58.58,0,0,0,.24.49A1.06,1.06,0,0,0,221.19,431.35Zm3.49-5.32h.75v5.85h-.75Zm-84.22,12.48a1.87,1.87,0,0,1,1.32.42,1.65,1.65,0,0,1,.47,1.27v2.53h-.72v-.56a1.2,1.2,0,0,1-.54.45,2.09,2.09,0,0,1-.83.15,1.75,1.75,0,0,1-1.13-.34,1.15,1.15,0,0,1,0-1.77,1.91,1.91,0,0,1,1.27-.34h1.2v-.15a1,1,0,0,0-.28-.75,1.22,1.22,0,0,0-.84-.26,2,2,0,0,0-.72.13,1.71,1.71,0,0,0-.6.32l-.32-.57a2.33,2.33,0,0,1,.77-.39A3,3,0,0,1,140.46,438.51Zm-.17,3.68A1.38,1.38,0,0,0,141,442a1.13,1.13,0,0,0,.46-.55v-.59h-1.17c-.64,0-1,.22-1,.65a.58.58,0,0,0,.25.5A1.12,1.12,0,0,0,140.29,442.19Zm5.71-3.68a1.71,1.71,0,0,1,1.27.46,1.83,1.83,0,0,1,.47,1.35v2.41H147v-2.32a1.27,1.27,0,0,0-.29-.92,1.11,1.11,0,0,0-.84-.31,1.31,1.31,0,0,0-1,.37,1.4,1.4,0,0,0-.35,1v2.16h-.76v-4.18h.73v.63a1.5,1.5,0,0,1,.61-.5A2.14,2.14,0,0,1,146,438.51Zm7.23-1.64v5.86h-.73v-.67a1.62,1.62,0,0,1-.63.53,2,2,0,0,1-.86.18,2.16,2.16,0,0,1-1.08-.27,1.81,1.81,0,0,1-.76-.74,2.29,2.29,0,0,1-.27-1.12,2.26,2.26,0,0,1,.27-1.12,1.89,1.89,0,0,1,.76-.75,2.27,2.27,0,0,1,1.08-.26,1.9,1.9,0,0,1,.83.17,1.61,1.61,0,0,1,.63.5v-2.31Zm-2.15,5.24a1.41,1.41,0,0,0,.71-.18,1.34,1.34,0,0,0,.51-.52,1.65,1.65,0,0,0,.18-.77,1.59,1.59,0,0,0-.18-.77,1.22,1.22,0,0,0-.51-.52,1.41,1.41,0,0,0-.71-.18,1.49,1.49,0,0,0-.73.18,1.26,1.26,0,0,0-.5.52,1.59,1.59,0,0,0-.18.77,1.65,1.65,0,0,0,.18.77,1.39,1.39,0,0,0,.5.52A1.49,1.49,0,0,0,151.08,442.11Zm7.77.66a2.41,2.41,0,0,1-1.15-.27,2.11,2.11,0,0,1-.78-.76,2.14,2.14,0,0,1-.28-1.1,2.12,2.12,0,0,1,.28-1.1,2,2,0,0,1,.78-.76,2.41,2.41,0,0,1,1.15-.27,2.09,2.09,0,0,1,1,.23,1.57,1.57,0,0,1,.69.66l-.57.37a1.39,1.39,0,0,0-.49-.45,1.41,1.41,0,0,0-.65-.15,1.53,1.53,0,0,0-.74.18,1.22,1.22,0,0,0-.51.52,1.49,1.49,0,0,0-.19.77,1.55,1.55,0,0,0,.19.78,1.25,1.25,0,0,0,.51.51,1.53,1.53,0,0,0,.74.18,1.41,1.41,0,0,0,.65-.15,1.39,1.39,0,0,0,.49-.45l.57.36a1.59,1.59,0,0,1-.69.67A2.09,2.09,0,0,1,158.85,442.77Zm4.53,0a2.32,2.32,0,0,1-1.12-.27,2.11,2.11,0,0,1-.78-.76,2.24,2.24,0,0,1-.27-1.1,2.21,2.21,0,0,1,.27-1.1,2,2,0,0,1,.78-.76,2.32,2.32,0,0,1,1.12-.27,2.23,2.23,0,0,1,1.11.27,1.9,1.9,0,0,1,.78.76,2.12,2.12,0,0,1,.28,1.1,2.14,2.14,0,0,1-.28,1.1,2,2,0,0,1-.78.76A2.23,2.23,0,0,1,163.38,442.77Zm0-.66a1.43,1.43,0,0,0,.72-.18,1.32,1.32,0,0,0,.5-.52,1.54,1.54,0,0,0,.19-.77,1.49,1.49,0,0,0-.19-.77,1.2,1.2,0,0,0-.5-.52,1.53,1.53,0,0,0-1.44,0,1.34,1.34,0,0,0-.51.52,1.59,1.59,0,0,0-.18.77,1.65,1.65,0,0,0,.18.77,1.49,1.49,0,0,0,.51.52A1.43,1.43,0,0,0,163.38,442.11Zm8.57-3.6a1.71,1.71,0,0,1,1.25.45,1.84,1.84,0,0,1,.46,1.36v2.41h-.76v-2.32a1.32,1.32,0,0,0-.28-.92,1,1,0,0,0-.8-.31,1.19,1.19,0,0,0-.91.37,1.4,1.4,0,0,0-.34,1v2.16h-.76v-2.32a1.32,1.32,0,0,0-.28-.92,1,1,0,0,0-.8-.31,1.19,1.19,0,0,0-.91.37,1.4,1.4,0,0,0-.34,1v2.16h-.76v-4.18h.73v.62a1.38,1.38,0,0,1,.6-.49,1.86,1.86,0,0,1,.84-.17,1.89,1.89,0,0,1,.87.19,1.47,1.47,0,0,1,.58.58,1.67,1.67,0,0,1,.66-.57A2.1,2.1,0,0,1,172,438.51Zm8.45,0a1.69,1.69,0,0,1,1.25.45,1.84,1.84,0,0,1,.47,1.36v2.41h-.76v-2.32a1.37,1.37,0,0,0-.28-.92,1,1,0,0,0-.8-.31,1.21,1.21,0,0,0-.92.37,1.44,1.44,0,0,0-.34,1v2.16h-.75v-2.32a1.32,1.32,0,0,0-.29-.92,1,1,0,0,0-.79-.31,1.21,1.21,0,0,0-.92.37,1.44,1.44,0,0,0-.34,1v2.16h-.75v-4.18h.72v.62a1.38,1.38,0,0,1,.6-.49,1.93,1.93,0,0,1,.85-.17,1.84,1.84,0,0,1,.86.19,1.43,1.43,0,0,1,.59.58,1.58,1.58,0,0,1,.65-.57A2.1,2.1,0,0,1,180.4,438.51Zm7,2.15a2.11,2.11,0,0,1,0,.23H184a1.28,1.28,0,0,0,.48.89,1.61,1.61,0,0,0,1,.33,1.58,1.58,0,0,0,1.21-.5l.41.48a1.69,1.69,0,0,1-.71.51,2.68,2.68,0,0,1-2.11-.1,2,2,0,0,1-.8-.76,2.38,2.38,0,0,1,0-2.2,1.89,1.89,0,0,1,.75-.76,2.16,2.16,0,0,1,1.08-.27,2.06,2.06,0,0,1,1.06.27,1.79,1.79,0,0,1,.73.76A2.29,2.29,0,0,1,187.43,440.66Zm-2.06-1.51a1.28,1.28,0,0,0-1.34,1.19h2.68a1.38,1.38,0,0,0-.44-.86A1.28,1.28,0,0,0,185.37,439.15Zm4,.1a1.26,1.26,0,0,1,.59-.55,2,2,0,0,1,.93-.19v.73h-.17a1.31,1.31,0,0,0-1,.37,1.45,1.45,0,0,0-.35,1v2.09h-.75v-4.18h.72Zm4.36,3.52a2.4,2.4,0,0,1-1.14-.27,2.11,2.11,0,0,1-.78-.76,2.14,2.14,0,0,1-.28-1.1,2.12,2.12,0,0,1,.28-1.1,2,2,0,0,1,.78-.76,2.4,2.4,0,0,1,1.14-.27,2.06,2.06,0,0,1,1,.23,1.65,1.65,0,0,1,.7.66l-.58.37a1.24,1.24,0,0,0-.49-.45,1.37,1.37,0,0,0-.64-.15,1.57,1.57,0,0,0-.75.18,1.34,1.34,0,0,0-.51.52,1.59,1.59,0,0,0-.18.77,1.66,1.66,0,0,0,.18.78,1.39,1.39,0,0,0,.51.51,1.57,1.57,0,0,0,.75.18,1.37,1.37,0,0,0,.64-.15,1.24,1.24,0,0,0,.49-.45l.58.36a1.67,1.67,0,0,1-.7.67A2.06,2.06,0,0,1,193.69,442.77Zm2.81-4.22h.76v4.18h-.76Zm.38-.81a.53.53,0,0,1-.37-.14.46.46,0,0,1-.14-.35.44.44,0,0,1,.14-.34.5.5,0,0,1,.37-.15.45.45,0,0,1,.36.14.43.43,0,0,1,.15.34.5.5,0,0,1-.51.5Zm3.47.77a1.87,1.87,0,0,1,1.32.42,1.65,1.65,0,0,1,.47,1.27v2.53h-.72v-.56a1.2,1.2,0,0,1-.54.45,2.12,2.12,0,0,1-.83.15,1.73,1.73,0,0,1-1.13-.34,1.08,1.08,0,0,1-.42-.89,1.1,1.1,0,0,1,.4-.88,2,2,0,0,1,1.28-.34h1.2v-.15a1,1,0,0,0-.28-.75,1.22,1.22,0,0,0-.84-.26,2,2,0,0,0-.72.13,1.71,1.71,0,0,0-.6.32l-.32-.57a2.33,2.33,0,0,1,.77-.39A3,3,0,0,1,200.35,438.51Zm-.18,3.68a1.39,1.39,0,0,0,.75-.19,1.13,1.13,0,0,0,.46-.55v-.59h-1.17c-.64,0-1,.22-1,.65a.58.58,0,0,0,.25.5A1.11,1.11,0,0,0,200.17,442.19Zm3.49-5.32h.76v5.86h-.76Z" transform="translate(-138.21 -201.72)"/><path class="cls-6" d="M143.05,483.44v.68h-4V478.6h3.89v.69h-3.1V481h2.76v.67h-2.76v1.78Zm1.29-5.17h.76v5.85h-.76Zm6.11,3.79c0,.06,0,.13,0,.23H147a1.36,1.36,0,0,0,.48.89,1.61,1.61,0,0,0,1,.33,1.56,1.56,0,0,0,1.21-.51l.42.49a1.93,1.93,0,0,1-.71.51,2.7,2.7,0,0,1-2.12-.1,2,2,0,0,1-.79-.76,2.14,2.14,0,0,1-.28-1.1,2.21,2.21,0,0,1,.27-1.1,1.89,1.89,0,0,1,.75-.76,2.16,2.16,0,0,1,1.08-.27,2.06,2.06,0,0,1,1.06.27,1.87,1.87,0,0,1,.74.76A2.26,2.26,0,0,1,150.45,482.06Zm-2.07-1.52a1.36,1.36,0,0,0-.92.34,1.33,1.33,0,0,0-.42.86h2.68a1.32,1.32,0,0,0-1.34-1.2Zm5.06,3.63a2.37,2.37,0,0,1-1.14-.27,2.11,2.11,0,0,1-.78-.76,2.15,2.15,0,0,1-.29-1.1,2.1,2.1,0,0,1,.29-1.1,2,2,0,0,1,.78-.76,2.37,2.37,0,0,1,1.14-.27,2.18,2.18,0,0,1,1,.22,1.65,1.65,0,0,1,.69.67l-.57.37a1.31,1.31,0,0,0-.49-.45,1.38,1.38,0,0,0-.65-.15,1.53,1.53,0,0,0-.74.18,1.34,1.34,0,0,0-.51.52,1.59,1.59,0,0,0-.18.77,1.66,1.66,0,0,0,.18.78,1.39,1.39,0,0,0,.51.51,1.53,1.53,0,0,0,.74.18,1.38,1.38,0,0,0,.65-.15,1.31,1.31,0,0,0,.49-.45l.57.36a1.59,1.59,0,0,1-.69.67A2.06,2.06,0,0,1,153.44,484.17Zm5.21-.29a1.23,1.23,0,0,1-.41.22,1.68,1.68,0,0,1-.5.07,1.33,1.33,0,0,1-1-.34,1.29,1.29,0,0,1-.35-1v-2.29h-.71V480h.71V479h.76V480h1.2v.62h-1.2v2.26a.7.7,0,0,0,.17.52.62.62,0,0,0,.48.18.94.94,0,0,0,.6-.19Zm1.77-3.23a1.24,1.24,0,0,1,.58-.55,2.07,2.07,0,0,1,.94-.19v.73h-.18a1.31,1.31,0,0,0-1,.37,1.45,1.45,0,0,0-.34,1v2.08h-.76V480h.73ZM163,480h.76v4.17H163Zm.38-.81A.55.55,0,0,1,163,479a.5.5,0,0,1-.14-.35.48.48,0,0,1,.14-.34.51.51,0,0,1,.37-.15.49.49,0,0,1,.37.14.43.43,0,0,1,.15.34.49.49,0,0,1-.15.36A.53.53,0,0,1,163.37,479.14Zm3.77,5a2.37,2.37,0,0,1-1.14-.27,2.11,2.11,0,0,1-.78-.76,2.15,2.15,0,0,1-.29-1.1,2.1,2.1,0,0,1,.29-1.1,2,2,0,0,1,.78-.76,2.37,2.37,0,0,1,1.14-.27,2.18,2.18,0,0,1,1,.22,1.65,1.65,0,0,1,.69.67l-.57.37a1.31,1.31,0,0,0-.49-.45,1.38,1.38,0,0,0-.65-.15,1.53,1.53,0,0,0-.74.18,1.34,1.34,0,0,0-.51.52,1.59,1.59,0,0,0-.18.77,1.66,1.66,0,0,0,.18.78,1.39,1.39,0,0,0,.51.51,1.53,1.53,0,0,0,.74.18,1.38,1.38,0,0,0,.65-.15,1.31,1.31,0,0,0,.49-.45l.57.36a1.59,1.59,0,0,1-.69.67A2.06,2.06,0,0,1,167.14,484.17Zm2.46-2.54h2.12v.66H169.6Zm5.62-1.72a2.28,2.28,0,0,1,1.09.26,1.93,1.93,0,0,1,.75.75,2.44,2.44,0,0,1,0,2.23,1.81,1.81,0,0,1-.75.75,2.18,2.18,0,0,1-1.09.27,2.09,2.09,0,0,1-.83-.17,1.92,1.92,0,0,1-.63-.51v2.16H173V480h.72v.66a1.54,1.54,0,0,1,.64-.52A2,2,0,0,1,175.22,479.91Zm-.06,3.6a1.43,1.43,0,0,0,.72-.18,1.39,1.39,0,0,0,.5-.52,1.54,1.54,0,0,0,.19-.77,1.49,1.49,0,0,0-.19-.77,1.26,1.26,0,0,0-.5-.52,1.43,1.43,0,0,0-.72-.18,1.39,1.39,0,0,0-.72.19,1.29,1.29,0,0,0-.5.51,1.49,1.49,0,0,0-.19.77,1.54,1.54,0,0,0,.19.77,1.32,1.32,0,0,0,.5.52A1.48,1.48,0,0,0,175.16,483.51Zm5.13.66a2.32,2.32,0,0,1-1.12-.27,2.11,2.11,0,0,1-.78-.76,2.24,2.24,0,0,1-.27-1.1,2.19,2.19,0,0,1,.27-1.1,2,2,0,0,1,.78-.76,2.32,2.32,0,0,1,1.12-.27,2.29,2.29,0,0,1,1.12.27,1.94,1.94,0,0,1,.77.76,2.09,2.09,0,0,1,.28,1.1,2.14,2.14,0,0,1-.28,1.1,2.08,2.08,0,0,1-.77.76A2.29,2.29,0,0,1,180.29,484.17Zm0-.66a1.35,1.35,0,0,0,1.23-.7,1.65,1.65,0,0,0,.18-.77,1.59,1.59,0,0,0-.18-.77,1.28,1.28,0,0,0-.51-.52,1.43,1.43,0,0,0-.72-.18,1.45,1.45,0,0,0-.72.18,1.34,1.34,0,0,0-.51.52,1.59,1.59,0,0,0-.18.77,1.65,1.65,0,0,0,.18.77,1.49,1.49,0,0,0,.51.52A1.45,1.45,0,0,0,180.29,483.51Zm9.55-3.56-1.56,4.17h-.73l-1.2-3.17-1.22,3.17h-.73L182.85,480h.71l1.22,3.32L186,480h.64l1.24,3.34,1.24-3.34Zm4.55,2.11a2.11,2.11,0,0,1,0,.23H191a1.32,1.32,0,0,0,.48.89,1.61,1.61,0,0,0,1,.33,1.56,1.56,0,0,0,1.21-.51l.42.49a1.93,1.93,0,0,1-.71.51,2.58,2.58,0,0,1-.94.17,2.5,2.5,0,0,1-1.18-.27,2,2,0,0,1-.79-.76,2.14,2.14,0,0,1-.28-1.1,2.21,2.21,0,0,1,.27-1.1,1.89,1.89,0,0,1,.75-.76,2.16,2.16,0,0,1,1.08-.27,2.06,2.06,0,0,1,1.06.27,1.87,1.87,0,0,1,.74.76A2.37,2.37,0,0,1,194.39,482.06Zm-2.06-1.52a1.36,1.36,0,0,0-.92.34,1.33,1.33,0,0,0-.42.86h2.68a1.31,1.31,0,0,0-.44-.86A1.29,1.29,0,0,0,192.33,480.54Zm4,.11a1.31,1.31,0,0,1,.59-.55,2.07,2.07,0,0,1,.94-.19v.73h-.18a1.31,1.31,0,0,0-1,.37,1.45,1.45,0,0,0-.34,1v2.08h-.76V480h.72Zm-53.36,10.14v3.61a2.17,2.17,0,0,1-.54,1.62,2.24,2.24,0,0,1-1.62.52,3.81,3.81,0,0,1-1.13-.16,2.25,2.25,0,0,1-.87-.46l.36-.58a2.08,2.08,0,0,0,.72.39,2.73,2.73,0,0,0,.89.15,1.47,1.47,0,0,0,1.08-.34,1.43,1.43,0,0,0,.36-1.06v-.33a1.78,1.78,0,0,1-.66.49,2.49,2.49,0,0,1-1.94-.1,1.86,1.86,0,0,1-.75-.72,2,2,0,0,1-.28-1.05,1.92,1.92,0,0,1,.28-1,1.86,1.86,0,0,1,.75-.72,2.33,2.33,0,0,1,1.09-.25,2.3,2.3,0,0,1,.88.17,1.79,1.79,0,0,1,.67.51v-.64Zm-2.17,3.34a1.57,1.57,0,0,0,.73-.17,1.31,1.31,0,0,0,.7-1.19,1.26,1.26,0,0,0-.4-1,1.6,1.6,0,0,0-2.07,0,1.26,1.26,0,0,0-.4,1,1.41,1.41,0,0,0,.18.71,1.31,1.31,0,0,0,.51.48A1.66,1.66,0,0,0,140.76,494.13Zm7.52-1.23a2,2,0,0,1,0,.23h-3.39a1.28,1.28,0,0,0,.48.89,1.74,1.74,0,0,0,2.24-.17l.41.49a1.73,1.73,0,0,1-.71.5,2.3,2.3,0,0,1-.93.17,2.47,2.47,0,0,1-1.18-.26,2,2,0,0,1-.8-.77,2.21,2.21,0,0,1-.27-1.1,2.24,2.24,0,0,1,.27-1.1,2,2,0,0,1,.75-.76,2.16,2.16,0,0,1,1.08-.27,2.06,2.06,0,0,1,1.06.27,1.84,1.84,0,0,1,.73.76A2.29,2.29,0,0,1,148.28,492.9Zm-2.06-1.51a1.28,1.28,0,0,0-1.34,1.2h2.68a1.33,1.33,0,0,0-.44-.86A1.25,1.25,0,0,0,146.22,491.39Zm5.47-.64a1.7,1.7,0,0,1,1.26.46,1.83,1.83,0,0,1,.47,1.35V495h-.75v-2.32a1.27,1.27,0,0,0-.3-.92,1.1,1.1,0,0,0-.83-.3,1.29,1.29,0,0,0-1,.36,1.38,1.38,0,0,0-.36,1V495h-.75v-4.18h.72v.63a1.47,1.47,0,0,1,.62-.5A2.28,2.28,0,0,1,151.69,490.75Zm7.06,2.15c0,.06,0,.14,0,.23h-3.39a1.36,1.36,0,0,0,.48.89,1.61,1.61,0,0,0,1,.33,1.57,1.57,0,0,0,1.21-.5l.42.49a1.8,1.8,0,0,1-.71.5,2.35,2.35,0,0,1-.94.17,2.46,2.46,0,0,1-1.17-.26,2,2,0,0,1-.8-.77,2.34,2.34,0,0,1,0-2.2,2.1,2.1,0,0,1,.75-.76,2.16,2.16,0,0,1,1.08-.27,2.1,2.1,0,0,1,1.07.27,1.91,1.91,0,0,1,.73.76A2.29,2.29,0,0,1,158.75,492.9Zm-2.07-1.51a1.3,1.3,0,0,0-1.34,1.2H158a1.32,1.32,0,0,0-.43-.86A1.27,1.27,0,0,0,156.68,491.39Zm4,.1a1.24,1.24,0,0,1,.58-.55,2.07,2.07,0,0,1,.94-.19v.73H162a1.3,1.3,0,0,0-1,.37,1.43,1.43,0,0,0-.35,1.05V495h-.76v-4.18h.73Zm4.09-.74a1.87,1.87,0,0,1,1.32.42,1.65,1.65,0,0,1,.47,1.27V495h-.72v-.55a1.19,1.19,0,0,1-.54.44,2.09,2.09,0,0,1-.83.15,1.81,1.81,0,0,1-1.13-.33,1.11,1.11,0,0,1-.42-.9,1.09,1.09,0,0,1,.41-.88,2,2,0,0,1,1.27-.34h1.2v-.15a1,1,0,0,0-.28-.75,1.22,1.22,0,0,0-.84-.26,2.23,2.23,0,0,0-.72.13,1.9,1.9,0,0,0-.6.32l-.32-.57a2.38,2.38,0,0,1,.78-.39A3.21,3.21,0,0,1,164.74,490.75Zm-.17,3.68a1.38,1.38,0,0,0,.74-.19,1,1,0,0,0,.46-.55v-.58h-1.16c-.65,0-1,.21-1,.64a.58.58,0,0,0,.25.5A1.12,1.12,0,0,0,164.57,494.43Zm5.83.29a1,1,0,0,1-.41.22,1.68,1.68,0,0,1-.5.07,1.37,1.37,0,0,1-1-.33,1.31,1.31,0,0,1-.35-1v-2.3h-.71v-.62h.71v-.92h.76v.92h1.2v.62h-1.2v2.26a.74.74,0,0,0,.17.52.61.61,0,0,0,.49.19.94.94,0,0,0,.59-.2Zm1-3.93h.76V495h-.76Zm.38-.81a.49.49,0,0,1-.37-.14.48.48,0,0,1-.14-.35.48.48,0,0,1,.14-.34.5.5,0,0,1,.37-.15.49.49,0,0,1,.36.14.43.43,0,0,1,.15.34.49.49,0,0,1-.15.36A.45.45,0,0,1,171.82,490Zm3.74,5a2.29,2.29,0,0,1-1.12-.27,2.2,2.2,0,0,1-.78-3,2,2,0,0,1,.78-.76,2.44,2.44,0,0,1,2.23,0,1.94,1.94,0,0,1,.77.76,2.23,2.23,0,0,1,0,2.2,2,2,0,0,1-.77.76A2.28,2.28,0,0,1,175.56,495Zm0-.66a1.45,1.45,0,0,0,.72-.18,1.39,1.39,0,0,0,.5-.52,1.62,1.62,0,0,0,.18-.77,1.59,1.59,0,0,0-.18-.77,1.32,1.32,0,0,0-.5-.52,1.45,1.45,0,0,0-.72-.18,1.49,1.49,0,0,0-.73.18,1.32,1.32,0,0,0-.5.52,1.59,1.59,0,0,0-.18.77,1.62,1.62,0,0,0,.18.77,1.39,1.39,0,0,0,.5.52A1.49,1.49,0,0,0,175.56,494.35Zm5.57-3.6a1.7,1.7,0,0,1,1.26.46,1.83,1.83,0,0,1,.47,1.35V495h-.75v-2.32a1.27,1.27,0,0,0-.3-.92,1.1,1.1,0,0,0-.83-.3,1.29,1.29,0,0,0-1,.36,1.38,1.38,0,0,0-.36,1V495h-.75v-4.18h.72v.63a1.47,1.47,0,0,1,.62-.5A2.28,2.28,0,0,1,181.13,490.75Z" transform="translate(-138.21 -201.72)"/><path class="cls-6" d="M143.84,374.12l-2.42,5.52h-.78l-2.43-5.52h.85l2,4.53,2-4.53Zm.73,1.34h.75v4.18h-.75Zm.37-.8a.51.51,0,0,1-.37-.15.48.48,0,0,1-.14-.34.5.5,0,0,1,.14-.35.51.51,0,0,1,.37-.15.53.53,0,0,1,.37.14.45.45,0,0,1,.15.34.49.49,0,0,1-.15.36A.5.5,0,0,1,144.94,374.66Zm4.3,4.74a1.45,1.45,0,0,1-.41.22,2.08,2.08,0,0,1-.5.07,1.37,1.37,0,0,1-1-.34,1.31,1.31,0,0,1-.35-1v-2.3h-.71v-.62H147v-.91h.76v.91H149v.62h-1.2v2.27a.75.75,0,0,0,.16.52.66.66,0,0,0,.49.18.92.92,0,0,0,.59-.2Zm2.56-4a1.87,1.87,0,0,1,1.33.43,1.62,1.62,0,0,1,.46,1.27v2.52h-.72v-.55a1.21,1.21,0,0,1-.54.45,2.09,2.09,0,0,1-.83.15,1.81,1.81,0,0,1-1.13-.34,1.11,1.11,0,0,1-.41-.89,1.09,1.09,0,0,1,.4-.89,2,2,0,0,1,1.28-.33h1.19v-.15a1,1,0,0,0-.28-.75,1.17,1.17,0,0,0-.83-.26,2.28,2.28,0,0,0-.73.12,1.73,1.73,0,0,0-.6.33l-.32-.57a2.22,2.22,0,0,1,.78-.4A3.31,3.31,0,0,1,151.8,375.42Zm-.17,3.68a1.39,1.39,0,0,0,.75-.19,1.07,1.07,0,0,0,.45-.55v-.58h-1.16c-.64,0-1,.21-1,.65a.58.58,0,0,0,.24.49A1.12,1.12,0,0,0,151.63,379.1Zm3.49-5.31h.75v5.85h-.75Zm4.56,1.67h.76v4.18h-.76Zm.38-.8a.5.5,0,0,1-.37-.15.48.48,0,0,1-.14-.34.5.5,0,0,1,.51-.5.49.49,0,0,1,.36.14.45.45,0,0,1,.15.34.49.49,0,0,1-.15.36A.46.46,0,0,1,160.06,374.66Zm4.18.76a1.71,1.71,0,0,1,1.26.47,1.76,1.76,0,0,1,.47,1.35v2.4h-.75v-2.32a1.29,1.29,0,0,0-.29-.91,1.1,1.1,0,0,0-.84-.31,1.31,1.31,0,0,0-1,.36,1.38,1.38,0,0,0-.35,1v2.15H162v-4.18h.72v.63a1.62,1.62,0,0,1,.62-.5A2.28,2.28,0,0,1,164.24,375.42Zm7.22-1.63v5.85h-.72V379a1.65,1.65,0,0,1-.64.53,2,2,0,0,1-.85.18,2.18,2.18,0,0,1-1.09-.27,2,2,0,0,1-.76-.75,2.4,2.4,0,0,1-.26-1.12,2.33,2.33,0,0,1,.26-1.11,2,2,0,0,1,.76-.75,2.18,2.18,0,0,1,1.09-.27,2.09,2.09,0,0,1,.83.17,1.71,1.71,0,0,1,.63.5v-2.3ZM169.31,379a1.49,1.49,0,0,0,.72-.19,1.25,1.25,0,0,0,.5-.52,1.49,1.49,0,0,0,.19-.77,1.45,1.45,0,0,0-.19-.76,1.2,1.2,0,0,0-.5-.52,1.39,1.39,0,0,0-.72-.19,1.39,1.39,0,0,0-1.23.71,1.55,1.55,0,0,0-.18.76,1.59,1.59,0,0,0,.18.77,1.41,1.41,0,0,0,.51.52A1.43,1.43,0,0,0,169.31,379Zm7.61-3.57v4.18h-.72V379a1.58,1.58,0,0,1-.61.5,1.85,1.85,0,0,1-.81.18,1.64,1.64,0,0,1-1.8-1.82v-2.41h.76v2.32a1.33,1.33,0,0,0,.29.92,1.07,1.07,0,0,0,.84.31,1.24,1.24,0,0,0,.94-.36,1.46,1.46,0,0,0,.35-1v-2.16Zm2.76,4.23a3.64,3.64,0,0,1-1-.14,2.22,2.22,0,0,1-.74-.35l.32-.6a2,2,0,0,0,.67.31,2.71,2.71,0,0,0,.79.12c.67,0,1-.19,1-.56a.36.36,0,0,0-.14-.3.72.72,0,0,0-.34-.16,4.65,4.65,0,0,0-.56-.12,5.05,5.05,0,0,1-.83-.18,1.4,1.4,0,0,1-.55-.35,1,1,0,0,1-.22-.68,1,1,0,0,1,.47-.91,2.1,2.1,0,0,1,1.27-.35,3.85,3.85,0,0,1,.83.1,2.21,2.21,0,0,1,.69.28l-.32.6a2.19,2.19,0,0,0-1.21-.33,1.34,1.34,0,0,0-.73.16.46.46,0,0,0-.25.41.39.39,0,0,0,.14.33.91.91,0,0,0,.34.17l.6.13a4.88,4.88,0,0,1,.81.19,1.09,1.09,0,0,1,.53.33.91.91,0,0,1,.22.66,1.07,1.07,0,0,1-.48.91A2.3,2.3,0,0,1,179.68,379.69Zm5.22-.29a1.32,1.32,0,0,1-.41.22,2.08,2.08,0,0,1-.5.07,1.37,1.37,0,0,1-1-.34,1.31,1.31,0,0,1-.35-1v-2.3H182v-.62h.71v-.91h.76v.91h1.2v.62h-1.2v2.27a.76.76,0,0,0,.17.52.64.64,0,0,0,.49.18.94.94,0,0,0,.59-.2Zm1.77-3.24a1.29,1.29,0,0,1,.58-.55,2.07,2.07,0,0,1,.94-.19v.73H188a1.26,1.26,0,0,0-1,.37,1.45,1.45,0,0,0-.35,1v2.08h-.76v-4.18h.73Zm2.58-.7H190v4.18h-.75Zm.37-.8a.51.51,0,0,1-.37-.15.48.48,0,0,1-.14-.34.5.5,0,0,1,.14-.35.51.51,0,0,1,.37-.15.53.53,0,0,1,.37.14.45.45,0,0,1,.15.34.49.49,0,0,1-.15.36A.5.5,0,0,1,189.62,374.66Zm3.47.76a1.87,1.87,0,0,1,1.33.43,1.62,1.62,0,0,1,.46,1.27v2.52h-.71v-.55a1.3,1.3,0,0,1-.55.45,2.09,2.09,0,0,1-.83.15,1.78,1.78,0,0,1-1.12-.34,1.17,1.17,0,0,1,0-1.78,2,2,0,0,1,1.28-.33h1.2v-.15a1,1,0,0,0-.29-.75,1.15,1.15,0,0,0-.83-.26,2.28,2.28,0,0,0-.73.12,1.82,1.82,0,0,0-.6.33l-.31-.57a2.09,2.09,0,0,1,.77-.4A3.31,3.31,0,0,1,193.09,375.42Zm-.17,3.68a1.39,1.39,0,0,0,.75-.19,1.13,1.13,0,0,0,.46-.55v-.58H193c-.64,0-1,.21-1,.65a.58.58,0,0,0,.24.49A1.14,1.14,0,0,0,192.92,379.1Zm3.49-5.31h.75v5.85h-.75Zm6.09,1.63a1.84,1.84,0,0,1,1.32.43,1.62,1.62,0,0,1,.47,1.27v2.52h-.72v-.55a1.3,1.3,0,0,1-.55.45,2,2,0,0,1-.82.15,1.79,1.79,0,0,1-1.13-.34,1.09,1.09,0,0,1-.42-.89,1.12,1.12,0,0,1,.4-.89,2,2,0,0,1,1.28-.33h1.2v-.15a1,1,0,0,0-.28-.75,1.18,1.18,0,0,0-.84-.26,2.28,2.28,0,0,0-.73.12,1.93,1.93,0,0,0-.6.33l-.31-.57a2.09,2.09,0,0,1,.77-.4A3.32,3.32,0,0,1,202.5,375.42Zm-.18,3.68a1.39,1.39,0,0,0,.75-.19,1.13,1.13,0,0,0,.46-.55v-.58h-1.17c-.64,0-1,.21-1,.65a.58.58,0,0,0,.24.49A1.14,1.14,0,0,0,202.32,379.1Zm5.72-3.68a1.71,1.71,0,0,1,1.26.47,1.76,1.76,0,0,1,.48,1.35v2.4H209v-2.32a1.29,1.29,0,0,0-.29-.91,1.09,1.09,0,0,0-.84-.31,1.31,1.31,0,0,0-1,.36,1.43,1.43,0,0,0-.35,1v2.15h-.76v-4.18h.73v.63a1.51,1.51,0,0,1,.61-.5A2.28,2.28,0,0,1,208,375.42Zm7.23-1.63v5.85h-.73V379a1.65,1.65,0,0,1-.64.53,2,2,0,0,1-.85.18,2.2,2.2,0,0,1-1.09-.27,1.93,1.93,0,0,1-.75-.75,2.29,2.29,0,0,1-.27-1.12,2.23,2.23,0,0,1,.27-1.11,1.93,1.93,0,0,1,.75-.75,2.2,2.2,0,0,1,1.09-.27,2.05,2.05,0,0,1,.83.17,1.71,1.71,0,0,1,.63.5v-2.3ZM213.11,379a1.43,1.43,0,0,0,.72-.19,1.28,1.28,0,0,0,.51-.52,1.59,1.59,0,0,0,.18-.77,1.55,1.55,0,0,0-.18-.76,1.22,1.22,0,0,0-.51-.52,1.34,1.34,0,0,0-.72-.19,1.36,1.36,0,0,0-.72.19,1.34,1.34,0,0,0-.51.52,1.55,1.55,0,0,0-.18.76,1.59,1.59,0,0,0,.18.77,1.41,1.41,0,0,0,.51.52A1.46,1.46,0,0,0,213.11,379Zm-71.82,11.21a1.23,1.23,0,0,1-.41.22,1.75,1.75,0,0,1-.51.07,1.34,1.34,0,0,1-1-.34,1.3,1.3,0,0,1-.34-1v-2.29h-.71v-.63h.71v-.91h.75v.91H141v.63h-1.2v2.26a.74.74,0,0,0,.17.52.66.66,0,0,0,.49.18.86.86,0,0,0,.59-.2Zm1.76-3.23a1.31,1.31,0,0,1,.58-.56,2.22,2.22,0,0,1,.94-.19V387h-.17a1.27,1.27,0,0,0-1,.37,1.45,1.45,0,0,0-.35,1v2.08h-.75V386.3h.72Zm4.09-.75a1.91,1.91,0,0,1,1.33.43,1.63,1.63,0,0,1,.46,1.27v2.52h-.71v-.55a1.17,1.17,0,0,1-.55.45,2.09,2.09,0,0,1-.83.15,1.72,1.72,0,0,1-1.12-.34,1.09,1.09,0,0,1-.42-.89,1.07,1.07,0,0,1,.4-.88,1.94,1.94,0,0,1,1.28-.34h1.2v-.15a1,1,0,0,0-.29-.75,1.21,1.21,0,0,0-.83-.26,2.28,2.28,0,0,0-.73.12,1.73,1.73,0,0,0-.6.33l-.31-.57a2.23,2.23,0,0,1,.77-.39A3,3,0,0,1,147.14,386.26ZM147,390a1.49,1.49,0,0,0,.75-.19,1.18,1.18,0,0,0,.46-.55v-.59H147c-.64,0-1,.22-1,.65a.61.61,0,0,0,.24.5A1.12,1.12,0,0,0,147,390Zm5.72-3.69a1.71,1.71,0,0,1,1.26.47,1.76,1.76,0,0,1,.47,1.35v2.4h-.75v-2.32a1.25,1.25,0,0,0-.3-.91,1.06,1.06,0,0,0-.83-.31,1.27,1.27,0,0,0-1,.37,1.35,1.35,0,0,0-.36,1v2.15h-.75V386.3h.72v.63a1.51,1.51,0,0,1,.62-.49A2.11,2.11,0,0,1,152.69,386.26Zm4.46,4.27a3.58,3.58,0,0,1-1-.13,2.43,2.43,0,0,1-.74-.36l.31-.6a2.38,2.38,0,0,0,.68.32,2.66,2.66,0,0,0,.79.12c.66,0,1-.19,1-.57a.36.36,0,0,0-.14-.3.72.72,0,0,0-.34-.16,4.48,4.48,0,0,0-.57-.12,5.15,5.15,0,0,1-.82-.18,1.24,1.24,0,0,1-.55-.35,1,1,0,0,1-.23-.68,1.07,1.07,0,0,1,.48-.91,2.1,2.1,0,0,1,1.27-.35,3.44,3.44,0,0,1,.83.11,2.48,2.48,0,0,1,.69.27l-.33.6a2.16,2.16,0,0,0-1.2-.33,1.38,1.38,0,0,0-.74.16.48.48,0,0,0-.25.42.42.42,0,0,0,.14.32.82.82,0,0,0,.35.17l.59.13a6,6,0,0,1,.82.19,1.14,1.14,0,0,1,.53.33.92.92,0,0,1,.22.66,1.05,1.05,0,0,1-.49.91A2.29,2.29,0,0,1,157.15,390.53Zm5.09-4.27a2.23,2.23,0,0,1,1.09.27,1.84,1.84,0,0,1,.74.75,2.13,2.13,0,0,1,.28,1.11,2.17,2.17,0,0,1-.28,1.12,1.84,1.84,0,0,1-.74.75,2.23,2.23,0,0,1-1.09.27,2.05,2.05,0,0,1-.83-.17,1.73,1.73,0,0,1-.63-.51V392H160V386.3h.73V387a1.47,1.47,0,0,1,.64-.52A1.83,1.83,0,0,1,162.24,386.26Zm-.07,3.61a1.43,1.43,0,0,0,.72-.18,1.34,1.34,0,0,0,.51-.52,1.67,1.67,0,0,0,.19-.78,1.56,1.56,0,0,0-.19-.76,1.22,1.22,0,0,0-.51-.52,1.43,1.43,0,0,0-.72-.18,1.33,1.33,0,0,0-.71.19,1.39,1.39,0,0,0-.51.51,1.55,1.55,0,0,0-.18.76,1.66,1.66,0,0,0,.18.78,1.34,1.34,0,0,0,.51.52A1.41,1.41,0,0,0,162.17,389.87Zm5.14.66a2.19,2.19,0,0,1-1.12-.28,2,2,0,0,1-.78-.75,2.29,2.29,0,0,1-.28-1.11,2.18,2.18,0,0,1,.28-1.09,2,2,0,0,1,.78-.76,2.3,2.3,0,0,1,1.12-.28,2.23,2.23,0,0,1,1.11.28,1.88,1.88,0,0,1,.77.76,2.09,2.09,0,0,1,.29,1.09,2.19,2.19,0,0,1-.29,1.11,1.92,1.92,0,0,1-.77.75A2.13,2.13,0,0,1,167.31,390.53Zm0-.66a1.43,1.43,0,0,0,.72-.18,1.39,1.39,0,0,0,.5-.52,1.66,1.66,0,0,0,.18-.78,1.55,1.55,0,0,0-.18-.76,1.26,1.26,0,0,0-.5-.52,1.43,1.43,0,0,0-.72-.18,1.49,1.49,0,0,0-.73.18,1.32,1.32,0,0,0-.5.52,1.55,1.55,0,0,0-.18.76,1.66,1.66,0,0,0,.18.78,1.47,1.47,0,0,0,.5.52A1.49,1.49,0,0,0,167.31,389.87Zm4.06-2.86a1.33,1.33,0,0,1,.59-.56,2.22,2.22,0,0,1,.94-.19V387h-.18a1.27,1.27,0,0,0-1,.37,1.45,1.45,0,0,0-.34,1v2.08h-.76V386.3h.72Zm5.1,3.23a1.23,1.23,0,0,1-.41.22,1.68,1.68,0,0,1-.5.07,1.33,1.33,0,0,1-1-.34,1.31,1.31,0,0,1-.35-1v-2.29h-.71v-.63h.71v-.91H175v.91h1.2v.63H175v2.26a.74.74,0,0,0,.16.52.66.66,0,0,0,.49.18.91.91,0,0,0,.6-.2Zm2.56-4a1.91,1.91,0,0,1,1.33.43,1.63,1.63,0,0,1,.46,1.27v2.52h-.72v-.55a1.1,1.1,0,0,1-.54.45,2.09,2.09,0,0,1-.83.15,1.75,1.75,0,0,1-1.13-.34,1.11,1.11,0,0,1-.41-.89,1.07,1.07,0,0,1,.4-.88,1.94,1.94,0,0,1,1.28-.34h1.19v-.15a1,1,0,0,0-.28-.75,1.21,1.21,0,0,0-.83-.26,2.28,2.28,0,0,0-.73.12,1.73,1.73,0,0,0-.6.33l-.31-.57a2.23,2.23,0,0,1,.77-.39A3,3,0,0,1,179,386.26Zm-.17,3.69a1.49,1.49,0,0,0,.75-.19,1.11,1.11,0,0,0,.45-.55v-.59H178.9c-.64,0-1,.22-1,.65a.61.61,0,0,0,.24.5A1.12,1.12,0,0,0,178.86,390Zm5.84.29a1.23,1.23,0,0,1-.41.22,1.79,1.79,0,0,1-.51.07,1.33,1.33,0,0,1-1-.34,1.3,1.3,0,0,1-.34-1v-2.29h-.71v-.63h.71v-.91h.75v.91h1.2v.63h-1.2v2.26a.74.74,0,0,0,.17.52.64.64,0,0,0,.49.18.86.86,0,0,0,.59-.2Zm1-3.94h.76v4.18h-.76Zm.38-.8a.55.55,0,0,1-.37-.14.51.51,0,0,1,0-.7.51.51,0,0,1,.37-.15.5.5,0,0,1,.37.15.41.41,0,0,1,.15.33.5.5,0,0,1-.15.37A.53.53,0,0,1,186.11,385.5Zm3.74,5a2.19,2.19,0,0,1-1.12-.28,2,2,0,0,1-.78-.75,2.29,2.29,0,0,1-.28-1.11,2.18,2.18,0,0,1,.28-1.09,2,2,0,0,1,.78-.76,2.3,2.3,0,0,1,1.12-.28,2.23,2.23,0,0,1,1.11.28,1.88,1.88,0,0,1,.77.76,2.09,2.09,0,0,1,.29,1.09,2.19,2.19,0,0,1-.29,1.11,1.92,1.92,0,0,1-.77.75A2.13,2.13,0,0,1,189.85,390.53Zm0-.66a1.43,1.43,0,0,0,.72-.18,1.39,1.39,0,0,0,.5-.52,1.66,1.66,0,0,0,.18-.78,1.55,1.55,0,0,0-.18-.76,1.26,1.26,0,0,0-.5-.52,1.43,1.43,0,0,0-.72-.18,1.49,1.49,0,0,0-.73.18,1.32,1.32,0,0,0-.5.52,1.55,1.55,0,0,0-.18.76,1.66,1.66,0,0,0,.18.78,1.47,1.47,0,0,0,.5.52A1.49,1.49,0,0,0,189.85,389.87Zm5.57-3.61a1.71,1.71,0,0,1,1.26.47,1.76,1.76,0,0,1,.48,1.35v2.4h-.76v-2.32a1.29,1.29,0,0,0-.29-.91,1.1,1.1,0,0,0-.84-.31,1.27,1.27,0,0,0-1,.37,1.35,1.35,0,0,0-.35,1v2.15h-.76V386.3h.72v.63a1.51,1.51,0,0,1,.62-.49A2.11,2.11,0,0,1,195.42,386.26Z" transform="translate(-138.21 -201.72)"/><path d="M143.9,332.82v-3.31l-1.63,2.73h-.57l-1.62-2.66v3.24h-1.2V327.3h1.06l2.07,3.43,2-3.43h1.05l0,5.52Zm6.7-2.11s0,.13,0,.34h-3.21a1,1,0,0,0,.41.62,1.41,1.41,0,0,0,.81.23,1.5,1.5,0,0,0,.58-.1,1.37,1.37,0,0,0,.48-.31l.66.71a2.23,2.23,0,0,1-1.75.68,2.86,2.86,0,0,1-1.27-.27,2.07,2.07,0,0,1-.85-.78,2.17,2.17,0,0,1-.3-1.13,2.1,2.1,0,0,1,.29-1.12,2,2,0,0,1,.81-.78,2.48,2.48,0,0,1,2.29,0,2,2,0,0,1,.79.77A2.32,2.32,0,0,1,150.6,330.71Zm-2.2-1.27a1,1,0,0,0-.7.24,1,1,0,0,0-.35.65h2.09a1,1,0,0,0-.35-.64A1,1,0,0,0,148.4,329.44Zm5.72,3.38-.93-1.3-1,1.3h-1.34l1.63-2.14-1.58-2.1h1.38l.9,1.23.92-1.23h1.31l-1.57,2.07,1.64,2.17Zm2.12-4.24h1.23v4.24h-1.23Zm.61-.59a.79.79,0,0,1-.55-.2.65.65,0,0,1-.21-.49.64.64,0,0,1,.21-.49.79.79,0,0,1,.55-.2.81.81,0,0,1,.55.19.61.61,0,0,1,.22.48.67.67,0,0,1-.22.51A.77.77,0,0,1,156.85,328Zm3.93,4.89a2.7,2.7,0,0,1-1.22-.27,2.11,2.11,0,0,1-.84-.78,2.17,2.17,0,0,1-.3-1.13,2.15,2.15,0,0,1,.3-1.13,2,2,0,0,1,.84-.77,2.59,2.59,0,0,1,1.22-.29,2.31,2.31,0,0,1,1.17.29,1.6,1.6,0,0,1,.73.79l-1,.52a1.05,1.05,0,0,0-1-.59,1.07,1.07,0,0,0-.79.32,1.32,1.32,0,0,0,0,1.72,1.06,1.06,0,0,0,.79.31,1,1,0,0,0,1-.58l1,.52a1.64,1.64,0,0,1-.73.79A2.3,2.3,0,0,1,160.78,332.88Zm4.7,0a2.66,2.66,0,0,1-1.21-.27,2.21,2.21,0,0,1-.83-3,2.06,2.06,0,0,1,.83-.77,2.55,2.55,0,0,1,1.21-.29,2.48,2.48,0,0,1,1.2.29,2.06,2.06,0,0,1,.83.77,2.15,2.15,0,0,1,.3,1.13,2.1,2.1,0,0,1-1.13,1.91A2.59,2.59,0,0,1,165.48,332.88Zm0-1a1,1,0,0,0,.77-.31,1.18,1.18,0,0,0,.31-.86,1.14,1.14,0,0,0-.31-.85,1.08,1.08,0,0,0-1.55,0,1.14,1.14,0,0,0-.31.85,1.18,1.18,0,0,0,.31.86A1,1,0,0,0,165.48,331.87Zm9.78-1.16s0,.13,0,.34H172a1,1,0,0,0,.41.62,1.37,1.37,0,0,0,.8.23,1.55,1.55,0,0,0,.59-.1,1.57,1.57,0,0,0,.48-.31l.65.71a2.22,2.22,0,0,1-1.75.68,2.86,2.86,0,0,1-1.27-.27,2.14,2.14,0,0,1-.85-.78,2.17,2.17,0,0,1-.3-1.13,2.2,2.2,0,0,1,.29-1.12,2,2,0,0,1,.82-.78,2.46,2.46,0,0,1,2.28,0,2,2,0,0,1,.79.77A2.22,2.22,0,0,1,175.26,330.71Zm-2.2-1.27a1,1,0,0,0-1.05.89h2.09a1,1,0,0,0-.34-.64A1.05,1.05,0,0,0,173.06,329.44Zm5.73,3.38-.93-1.3-1,1.3h-1.34l1.64-2.14-1.58-2.1H177l.9,1.23.92-1.23h1.31l-1.58,2.07,1.64,2.17Zm4.62-4.31a2.16,2.16,0,0,1,1.07.28,1.94,1.94,0,0,1,.77.76,2.35,2.35,0,0,1,.27,1.15,2.38,2.38,0,0,1-.27,1.15,1.94,1.94,0,0,1-.77.76,2.15,2.15,0,0,1-1.07.27,1.65,1.65,0,0,1-1.28-.51v2H180.9v-5.77h1.18v.49A1.62,1.62,0,0,1,183.41,328.51Zm-.21,3.36a1,1,0,0,0,.77-.31,1.18,1.18,0,0,0,.31-.86,1.14,1.14,0,0,0-.31-.85,1.08,1.08,0,0,0-1.55,0,1.18,1.18,0,0,0-.3.85,1.22,1.22,0,0,0,.3.86A1,1,0,0,0,183.2,331.87Zm5.29,1a2.66,2.66,0,0,1-1.21-.27,2.21,2.21,0,0,1-.83-3,2.06,2.06,0,0,1,.83-.77,2.55,2.55,0,0,1,1.21-.29,2.48,2.48,0,0,1,1.2.29,2.06,2.06,0,0,1,.83.77,2.15,2.15,0,0,1,.3,1.13,2.1,2.1,0,0,1-1.13,1.91A2.59,2.59,0,0,1,188.49,332.88Zm0-1a1,1,0,0,0,.77-.31,1.18,1.18,0,0,0,.31-.86,1.14,1.14,0,0,0-.31-.85,1.08,1.08,0,0,0-1.55,0,1.14,1.14,0,0,0-.31.85,1.18,1.18,0,0,0,.31.86A1,1,0,0,0,188.49,331.87Zm4.45-2.73a1.32,1.32,0,0,1,.59-.47,2.31,2.31,0,0,1,.86-.16v1.14l-.27,0a1.13,1.13,0,0,0-.83.3,1.2,1.2,0,0,0-.3.89v2h-1.23v-4.24h1.18Zm5.19,3.47a1.34,1.34,0,0,1-.45.21,2.44,2.44,0,0,1-.55.06,1.68,1.68,0,0,1-1.17-.38,1.48,1.48,0,0,1-.41-1.14v-1.74h-.66v-.95h.66v-1h1.23v1h1.05v.95h-1.05v1.72a.6.6,0,0,0,.13.42.51.51,0,0,0,.39.14.82.82,0,0,0,.5-.15Zm2.24.27a4.46,4.46,0,0,1-1-.12,2.75,2.75,0,0,1-.8-.33l.41-.89a2.68,2.68,0,0,0,.68.3,3.13,3.13,0,0,0,.79.11c.52,0,.78-.13.78-.38a.26.26,0,0,0-.21-.26,2.8,2.8,0,0,0-.66-.14,6.07,6.07,0,0,1-.86-.18,1.45,1.45,0,0,1-.59-.36,1.06,1.06,0,0,1-.24-.74,1.1,1.1,0,0,1,.23-.71,1.41,1.41,0,0,1,.68-.49,2.78,2.78,0,0,1,1-.18,3.8,3.8,0,0,1,.89.11,2.45,2.45,0,0,1,.74.26l-.41.88a2.44,2.44,0,0,0-1.22-.32,1.29,1.29,0,0,0-.59.11.34.34,0,0,0-.2.29.27.27,0,0,0,.22.27,2.7,2.7,0,0,0,.67.15c.35.06.64.13.86.19a1.23,1.23,0,0,1,.57.36,1,1,0,0,1,.25.72,1.13,1.13,0,0,1-.24.71,1.64,1.64,0,0,1-.69.48A3.15,3.15,0,0,1,200.37,332.88Z" transform="translate(-138.21 -201.72)"/><rect class="cls-7" x="157.72" width="11.83" height="11.83"/><path class="cls-8" d="M138.22,519.61h314" transform="translate(-138.21 -201.72)"/><path class="cls-9" d="M244.18,263.33v1.2h1v-1.2Zm0,3.59v2.4h1v-2.4Zm0,4.8v2.39h1v-2.39Zm0,4.79v2.4h1v-2.4Zm0,4.79v2.4h1v-2.4Zm0,4.8v2.4h1v-2.4Zm0,4.79v2.4h1v-2.4Zm0,4.8v2.39h1v-2.39Zm0,4.79v2.4h1v-2.4Zm0,4.8v2.39h1v-2.39Zm0,4.79v2.4h1v-2.4Zm0,4.79v1.2h1v-1.2Z" transform="translate(-138.21 -201.72)"/><path class="cls-10" d="M268.33,316.06v1.19h1v-1.19Zm0,3.56V322h1v-2.38Zm0,4.75v2.38h1v-2.38Zm0,4.75v2.38h1v-2.38Zm0,4.75v2.38h1v-2.38Zm0,4.75V341h1v-2.38Zm0,4.75v2.38h1v-2.38Zm0,4.75v2.37h1v-2.37Zm0,4.75v2.37h1v-2.37Zm0,4.75V360h1v-2.37Zm0,4.75v2.37h1v-2.37Zm0,4.75v1.18h1v-1.18Z" transform="translate(-138.21 -201.72)"/><path class="cls-10" d="M304.31,368.8V370h1V368.8Zm0,3.56v2.37h1v-2.37Zm0,4.75v2.37h1v-2.37Zm0,4.75v2.37h1v-2.37Zm0,4.75V389h1v-2.37Zm0,4.75v2.37h1v-2.37Zm0,4.75v2.37h1v-2.37Zm0,4.74v2.38h1v-2.38Zm0,4.75V408h1V405.6Zm0,4.75v2.38h1v-2.38Zm0,4.75v2.38h1V415.1Zm0,4.75V421h1v-1.19Z" transform="translate(-138.21 -201.72)"/><path class="cls-10" d="M323,421v1.2h1V421Zm0,3.6V427h1v-2.39Zm0,4.79v2.4h1v-2.4Zm0,4.79v2.4h1v-2.4Zm0,4.8v2.39h1V439Zm0,4.79v2.4h1v-2.4Zm0,4.8V451h1v-2.39Zm0,4.79v2.4h1v-2.4Zm0,4.79v2.4h1v-2.4Zm0,4.8v2.4h1V463Zm0,4.79v2.4h1v-2.4Zm0,4.8v1.19h1v-1.19Z" transform="translate(-138.21 -201.72)"/><path class="cls-10" d="M384.64,473.77V475h1v-1.19Zm0,3.57v2.37h1v-2.37Zm0,4.75v2.37h1v-2.37Zm0,4.75v2.37h1v-2.37Zm0,4.74V494h1v-2.38Zm0,4.75v2.38h1v-2.38Zm0,4.75v2.38h1v-2.38Zm0,4.75v2.38h1v-2.38Zm0,4.75V513h1v-2.38Zm0,4.75v2.38h1v-2.38Zm0,4.75v2.38h1v-2.38Zm0,4.75V526h1v-1.19Z" transform="translate(-138.21 -201.72)"/><rect class="cls-3" x="0.01" width="11.83" height="11.83"/><path class="cls-11" d="M143.79,583.58v5.52h-.64L139.84,585v4.11h-.79v-5.52h.64L143,587.7v-4.12Zm3.46,5.57a2.19,2.19,0,0,1-1.12-.28,2,2,0,0,1-.78-.75,2.18,2.18,0,0,1-.28-1.11,2.08,2.08,0,0,1,.28-1.09,2,2,0,0,1,.78-.76,2.3,2.3,0,0,1,1.12-.28,2.26,2.26,0,0,1,1.11.28,1.88,1.88,0,0,1,.77.76,2.09,2.09,0,0,1,.29,1.09,2.19,2.19,0,0,1-.29,1.11,1.92,1.92,0,0,1-.77.75A2.16,2.16,0,0,1,147.25,589.15Zm0-.66a1.43,1.43,0,0,0,.72-.18,1.39,1.39,0,0,0,.5-.52,1.66,1.66,0,0,0,.18-.78,1.55,1.55,0,0,0-.18-.76,1.26,1.26,0,0,0-.5-.52,1.43,1.43,0,0,0-.72-.18,1.49,1.49,0,0,0-.73.18,1.32,1.32,0,0,0-.5.52,1.55,1.55,0,0,0-.18.76,1.66,1.66,0,0,0,.18.78,1.47,1.47,0,0,0,.5.52A1.49,1.49,0,0,0,147.25,588.49Zm5.69.37a1.23,1.23,0,0,1-.41.22,1.75,1.75,0,0,1-.51.07,1.3,1.3,0,0,1-1-.34,1.27,1.27,0,0,1-.35-1v-2.29H150v-.63h.71V584h.76v.91h1.19v.63h-1.19v2.26a.74.74,0,0,0,.16.52.66.66,0,0,0,.49.18.86.86,0,0,0,.59-.2Zm4.67-1.82a1.94,1.94,0,0,1,0,.22h-3.39a1.38,1.38,0,0,0,.48.9,1.61,1.61,0,0,0,1,.33,1.56,1.56,0,0,0,1.21-.51l.42.49a1.93,1.93,0,0,1-.71.51,2.7,2.7,0,0,1-2.12-.1,2,2,0,0,1-.79-.76,2.34,2.34,0,0,1,0-2.2,1.89,1.89,0,0,1,.75-.76,2.17,2.17,0,0,1,1.08-.28,2.07,2.07,0,0,1,1.06.28,1.87,1.87,0,0,1,.74.76A2.26,2.26,0,0,1,157.61,587Zm-2.06-1.52a1.35,1.35,0,0,0-.92.33,1.34,1.34,0,0,0-.42.87h2.68a1.34,1.34,0,0,0-.43-.86A1.29,1.29,0,0,0,155.55,585.52ZM159,586a.53.53,0,0,1-.54-.54.53.53,0,0,1,.16-.38.55.55,0,0,1,.38-.16.5.5,0,0,1,.37.15.53.53,0,0,1,.15.39.5.5,0,0,1-.16.39A.49.49,0,0,1,159,586Zm0,3.19a.54.54,0,0,1-.38-.15.57.57,0,0,1-.16-.39.51.51,0,0,1,.16-.38.51.51,0,0,1,.38-.16.5.5,0,0,1,.37.15.57.57,0,0,1,0,.78A.49.49,0,0,1,159,589.15Zm7.91-2.84h.75v2.15a2.82,2.82,0,0,1-.95.52,3.59,3.59,0,0,1-1.14.19,3.11,3.11,0,0,1-1.5-.37,2.71,2.71,0,0,1-1.06-1,3,3,0,0,1,0-2.9,2.71,2.71,0,0,1,1.06-1,3.19,3.19,0,0,1,1.52-.36,3.09,3.09,0,0,1,1.2.22,2.37,2.37,0,0,1,.92.63l-.49.49a2.19,2.19,0,0,0-1.6-.64,2.29,2.29,0,0,0-1.14.28,2,2,0,0,0-.78.75,2.11,2.11,0,0,0-.28,1.09,2.13,2.13,0,0,0,.28,1.09,2.11,2.11,0,0,0,.78.76,2.39,2.39,0,0,0,1.13.27,2.32,2.32,0,0,0,1.3-.35Zm3.8-1.43a1.89,1.89,0,0,1,1.32.43,1.64,1.64,0,0,1,.47,1.27v2.52h-.72v-.55a1.3,1.3,0,0,1-.55.45,2,2,0,0,1-.82.15,1.73,1.73,0,0,1-1.13-.34,1.16,1.16,0,0,1,0-1.77,2,2,0,0,1,1.28-.34h1.2v-.15a1,1,0,0,0-.28-.75,1.18,1.18,0,0,0-.84-.26,2.28,2.28,0,0,0-.73.12,1.77,1.77,0,0,0-.59.33l-.32-.57a2.15,2.15,0,0,1,.77-.39A3,3,0,0,1,170.68,584.88Zm-.18,3.69a1.49,1.49,0,0,0,.75-.19,1.16,1.16,0,0,0,.46-.56v-.58h-1.17c-.64,0-1,.22-1,.65a.58.58,0,0,0,.24.49A1.08,1.08,0,0,0,170.5,588.57Zm4.69.58a4.07,4.07,0,0,1-1-.13,2.43,2.43,0,0,1-.74-.36l.32-.6a2.32,2.32,0,0,0,.67.32,2.69,2.69,0,0,0,.79.11c.67,0,1-.18,1-.56a.36.36,0,0,0-.14-.3.73.73,0,0,0-.33-.16,5.41,5.41,0,0,0-.57-.12,5.05,5.05,0,0,1-.83-.18,1.21,1.21,0,0,1-.54-.35.92.92,0,0,1-.23-.68,1.06,1.06,0,0,1,.47-.91,2.12,2.12,0,0,1,1.27-.35,3.46,3.46,0,0,1,.84.11,2.24,2.24,0,0,1,.68.27l-.32.6a2.19,2.19,0,0,0-1.21-.33,1.34,1.34,0,0,0-.73.16.46.46,0,0,0-.25.42.39.39,0,0,0,.14.32.78.78,0,0,0,.34.17l.6.13a6.15,6.15,0,0,1,.81.19,1.09,1.09,0,0,1,.53.33.93.93,0,0,1,.23.66,1.08,1.08,0,0,1-.49.91A2.3,2.3,0,0,1,175.19,589.15Zm10.34-4.27a1.72,1.72,0,0,1,1.25.46,1.84,1.84,0,0,1,.47,1.36v2.4h-.76v-2.32a1.29,1.29,0,0,0-.29-.91,1,1,0,0,0-.79-.31,1.21,1.21,0,0,0-.92.36,1.47,1.47,0,0,0-.34,1v2.15h-.75v-2.32a1.29,1.29,0,0,0-.29-.91,1,1,0,0,0-.79-.31,1.21,1.21,0,0,0-.92.36,1.47,1.47,0,0,0-.34,1v2.15h-.75v-4.18H181v.63a1.38,1.38,0,0,1,.6-.49,1.92,1.92,0,0,1,.84-.18,1.86,1.86,0,0,1,.87.2,1.3,1.3,0,0,1,.58.58,1.53,1.53,0,0,1,.66-.57A2.11,2.11,0,0,1,185.53,584.88Zm7,2.16a1.94,1.94,0,0,1,0,.22h-3.4a1.35,1.35,0,0,0,.49.9,1.59,1.59,0,0,0,1,.33,1.56,1.56,0,0,0,1.21-.51l.41.49a1.85,1.85,0,0,1-.71.51,2.52,2.52,0,0,1-.93.17,2.48,2.48,0,0,1-1.18-.27,2,2,0,0,1-.8-.76,2.28,2.28,0,0,1-.27-1.11,2.2,2.2,0,0,1,.27-1.09,1.89,1.89,0,0,1,.75-.76,2.17,2.17,0,0,1,1.08-.28,2.1,2.1,0,0,1,1.06.28,1.79,1.79,0,0,1,.73.76A2.26,2.26,0,0,1,192.56,587Zm-2.06-1.52a1.33,1.33,0,0,0-.92.33,1.39,1.39,0,0,0-.43.87h2.69a1.36,1.36,0,0,0-.44-.86A1.25,1.25,0,0,0,190.5,585.52Zm4.64-.64a1.91,1.91,0,0,1,1.33.43,1.63,1.63,0,0,1,.46,1.27v2.52h-.72v-.55a1.21,1.21,0,0,1-.54.45,2.09,2.09,0,0,1-.83.15,1.75,1.75,0,0,1-1.13-.34,1.11,1.11,0,0,1-.41-.89,1.07,1.07,0,0,1,.4-.88,1.94,1.94,0,0,1,1.28-.34h1.2v-.15a1,1,0,0,0-.29-.75,1.17,1.17,0,0,0-.83-.26,2.28,2.28,0,0,0-.73.12,1.73,1.73,0,0,0-.6.33l-.31-.57a2.07,2.07,0,0,1,.77-.39A3,3,0,0,1,195.14,584.88Zm-.17,3.69a1.49,1.49,0,0,0,.75-.19,1.16,1.16,0,0,0,.46-.56v-.58H195c-.64,0-1,.22-1,.65a.58.58,0,0,0,.24.49A1.06,1.06,0,0,0,195,588.57Zm4.69.58a4,4,0,0,1-1-.13,2.32,2.32,0,0,1-.74-.36l.31-.6a2.45,2.45,0,0,0,.67.32,2.76,2.76,0,0,0,.8.11c.66,0,1-.18,1-.56a.35.35,0,0,0-.13-.3.72.72,0,0,0-.34-.16,4.48,4.48,0,0,0-.57-.12,5.57,5.57,0,0,1-.83-.18,1.21,1.21,0,0,1-.54-.35,1,1,0,0,1-.23-.68,1.07,1.07,0,0,1,.48-.91,2.07,2.07,0,0,1,1.26-.35,3.46,3.46,0,0,1,.84.11,2.21,2.21,0,0,1,.69.27l-.33.6a2.16,2.16,0,0,0-1.2-.33,1.38,1.38,0,0,0-.74.16.48.48,0,0,0-.25.42.42.42,0,0,0,.14.32.82.82,0,0,0,.35.17l.59.13a5.46,5.46,0,0,1,.81.19,1.17,1.17,0,0,1,.54.33.92.92,0,0,1,.22.66,1.05,1.05,0,0,1-.49.91A2.29,2.29,0,0,1,199.66,589.15Zm6.77-4.23v4.18h-.72v-.63a1.52,1.52,0,0,1-.61.51,2,2,0,0,1-.81.17,1.64,1.64,0,0,1-1.8-1.82v-2.41h.76v2.32a1.32,1.32,0,0,0,.29.92,1.07,1.07,0,0,0,.84.31,1.25,1.25,0,0,0,.94-.36,1.44,1.44,0,0,0,.35-1v-2.16Zm2.29.7a1.29,1.29,0,0,1,.58-.55,2.22,2.22,0,0,1,.94-.19v.74h-.18a1.27,1.27,0,0,0-1,.37,1.45,1.45,0,0,0-.34,1v2.08H208v-4.18h.73ZM215,587a1.94,1.94,0,0,1,0,.22h-3.39a1.3,1.3,0,0,0,.48.9,1.61,1.61,0,0,0,1,.33,1.56,1.56,0,0,0,1.21-.51l.41.49a1.85,1.85,0,0,1-.71.51,2.68,2.68,0,0,1-2.11-.1,2,2,0,0,1-.8-.76,2.28,2.28,0,0,1-.27-1.11,2.2,2.2,0,0,1,.27-1.09,1.89,1.89,0,0,1,.75-.76,2.17,2.17,0,0,1,1.08-.28,2.07,2.07,0,0,1,1.06.28,1.79,1.79,0,0,1,.73.76A2.26,2.26,0,0,1,215,587ZM213,585.52a1.28,1.28,0,0,0-1.34,1.2h2.68a1.36,1.36,0,0,0-.44-.86A1.25,1.25,0,0,0,213,585.52Zm7.18-2.27v5.85h-.73v-.66a1.62,1.62,0,0,1-.63.53,2,2,0,0,1-.86.18,2.16,2.16,0,0,1-1.08-.27,1.89,1.89,0,0,1-.76-.75,2.26,2.26,0,0,1-.27-1.12,2.23,2.23,0,0,1,.27-1.11,1.89,1.89,0,0,1,.76-.75,2.16,2.16,0,0,1,1.08-.27,1.9,1.9,0,0,1,.83.18,1.59,1.59,0,0,1,.63.49v-2.3ZM218,588.49a1.41,1.41,0,0,0,.71-.18,1.34,1.34,0,0,0,.51-.52,1.66,1.66,0,0,0,.18-.78,1.55,1.55,0,0,0-.18-.76,1.22,1.22,0,0,0-.51-.52,1.41,1.41,0,0,0-.71-.18,1.49,1.49,0,0,0-.73.18,1.26,1.26,0,0,0-.5.52,1.56,1.56,0,0,0-.19.76,1.67,1.67,0,0,0,.19.78,1.39,1.39,0,0,0,.5.52A1.49,1.49,0,0,0,218,588.49Zm5.95-3.57h.75v4.18H224Zm.37-.8A.55.55,0,0,1,224,584a.51.51,0,0,1,0-.7.51.51,0,0,1,.37-.15.53.53,0,0,1,.37.14.45.45,0,0,1,.15.34.5.5,0,0,1-.15.37A.53.53,0,0,1,224.32,584.12Zm4.18.76a1.71,1.71,0,0,1,1.26.47,1.76,1.76,0,0,1,.48,1.35v2.4h-.76v-2.32a1.29,1.29,0,0,0-.29-.91,1.09,1.09,0,0,0-.84-.31,1.31,1.31,0,0,0-1,.36,1.43,1.43,0,0,0-.35,1v2.15h-.76v-4.18H227v.63a1.42,1.42,0,0,1,.61-.49A2.11,2.11,0,0,1,228.5,584.88Zm7.72,0a2.2,2.2,0,0,1,1.09.27,1.93,1.93,0,0,1,.75.75,2.23,2.23,0,0,1,.27,1.11,2.26,2.26,0,0,1-.27,1.12,1.93,1.93,0,0,1-.75.75,2.2,2.2,0,0,1-1.09.27,2,2,0,0,1-.85-.18,1.65,1.65,0,0,1-.64-.53v.66H234v-5.85h.76v2.3a1.59,1.59,0,0,1,.63-.49A1.9,1.9,0,0,1,236.22,584.88Zm-.06,3.61a1.41,1.41,0,0,0,.71-.18,1.34,1.34,0,0,0,.51-.52,1.67,1.67,0,0,0,.19-.78,1.56,1.56,0,0,0-.19-.76,1.22,1.22,0,0,0-.51-.52,1.51,1.51,0,0,0-1.43,0,1.22,1.22,0,0,0-.51.52,1.55,1.55,0,0,0-.18.76,1.66,1.66,0,0,0,.18.78,1.34,1.34,0,0,0,.51.52A1.43,1.43,0,0,0,236.16,588.49Zm3.34-3.57h.76v4.18h-.76Zm.38-.8a.53.53,0,0,1-.37-.14.51.51,0,0,1,0-.7.5.5,0,0,1,.37-.15.49.49,0,0,1,.36.14.45.45,0,0,1,.15.34.5.5,0,0,1-.15.37A.49.49,0,0,1,239.88,584.12Zm2-.87h.75v5.85h-.75Zm2.32,0h.76v5.85h-.76Zm2.33,1.67h.76v4.18h-.76Zm.38-.8a.53.53,0,0,1-.37-.14.48.48,0,0,1,0-.7.5.5,0,0,1,.37-.15.51.51,0,0,1,.36.14.45.45,0,0,1,.15.34.5.5,0,0,1-.15.37A.51.51,0,0,1,246.86,584.12Zm3.73,5a2.24,2.24,0,0,1-1.12-.28,2,2,0,0,1-.78-.75,2.28,2.28,0,0,1-.27-1.11,2.18,2.18,0,0,1,.27-1.09,2,2,0,0,1,.78-.76,2.35,2.35,0,0,1,1.12-.28,2.3,2.3,0,0,1,1.12.28,1.88,1.88,0,0,1,.77.76,2.08,2.08,0,0,1,.28,1.09,2.18,2.18,0,0,1-.28,1.11,1.92,1.92,0,0,1-.77.75A2.19,2.19,0,0,1,250.59,589.15Zm0-.66a1.43,1.43,0,0,0,.72-.18,1.34,1.34,0,0,0,.51-.52A1.66,1.66,0,0,0,252,587a1.55,1.55,0,0,0-.18-.76,1.22,1.22,0,0,0-.51-.52,1.43,1.43,0,0,0-.72-.18,1.45,1.45,0,0,0-.72.18,1.34,1.34,0,0,0-.51.52,1.55,1.55,0,0,0-.18.76,1.66,1.66,0,0,0,.18.78,1.49,1.49,0,0,0,.51.52A1.45,1.45,0,0,0,250.59,588.49Zm5.57-3.61a1.71,1.71,0,0,1,1.27.47,1.8,1.8,0,0,1,.47,1.35v2.4h-.76v-2.32a1.25,1.25,0,0,0-.29-.91,1.07,1.07,0,0,0-.84-.31,1.31,1.31,0,0,0-1,.36,1.43,1.43,0,0,0-.35,1v2.15h-.76v-4.18h.73v.63a1.48,1.48,0,0,1,.61-.49A2.14,2.14,0,0,1,256.16,584.88Zm7.33,4.27a2.3,2.3,0,0,1-1.15-.28,2,2,0,0,1-.78-.75,2.18,2.18,0,0,1-.28-1.11,2.08,2.08,0,0,1,.28-1.09,2,2,0,0,1,.78-.76,2.42,2.42,0,0,1,1.15-.28,2.24,2.24,0,0,1,1,.23,1.63,1.63,0,0,1,.69.66l-.58.38a1.24,1.24,0,0,0-.49-.45,1.37,1.37,0,0,0-.64-.15,1.5,1.5,0,0,0-.74.18,1.3,1.3,0,0,0-.52.52,1.55,1.55,0,0,0-.18.76,1.61,1.61,0,0,0,.18.78,1.44,1.44,0,0,0,.52.52,1.5,1.5,0,0,0,.74.18,1.37,1.37,0,0,0,.64-.15,1.24,1.24,0,0,0,.49-.45l.58.36a1.65,1.65,0,0,1-.69.67A2.24,2.24,0,0,1,263.49,589.15Zm6.7-4.23v4.18h-.72v-.63a1.46,1.46,0,0,1-.61.51,1.92,1.92,0,0,1-.81.17,1.64,1.64,0,0,1-1.8-1.82v-2.41H267v2.32a1.32,1.32,0,0,0,.29.92,1.1,1.1,0,0,0,.84.31,1.24,1.24,0,0,0,.94-.36,1.4,1.4,0,0,0,.35-1v-2.16Zm3.78,0a2.2,2.2,0,0,1,1.09.27,1.93,1.93,0,0,1,.75.75,2.23,2.23,0,0,1,.27,1.11,2.26,2.26,0,0,1-.27,1.12,1.93,1.93,0,0,1-.75.75,2.2,2.2,0,0,1-1.09.27,2,2,0,0,1-.85-.18,1.65,1.65,0,0,1-.64-.53v.66h-.73v-5.85h.76v2.3a1.59,1.59,0,0,1,.63-.49A1.9,1.9,0,0,1,274,584.88Zm-.06,3.61a1.41,1.41,0,0,0,.71-.18,1.34,1.34,0,0,0,.51-.52,1.67,1.67,0,0,0,.19-.78,1.56,1.56,0,0,0-.19-.76,1.22,1.22,0,0,0-.51-.52,1.51,1.51,0,0,0-1.43,0,1.22,1.22,0,0,0-.51.52,1.55,1.55,0,0,0-.18.76,1.66,1.66,0,0,0,.18.78,1.34,1.34,0,0,0,.51.52A1.43,1.43,0,0,0,273.91,588.49Zm3.34-3.57H278v4.18h-.76Zm.38-.8a.53.53,0,0,1-.37-.14.51.51,0,0,1,0-.7.5.5,0,0,1,.37-.15.49.49,0,0,1,.36.14.45.45,0,0,1,.15.34.5.5,0,0,1-.15.37A.49.49,0,0,1,277.63,584.12Zm3.77,5a2.3,2.3,0,0,1-1.15-.28,2,2,0,0,1-.78-.75,2.18,2.18,0,0,1-.28-1.11,2.08,2.08,0,0,1,.28-1.09,2,2,0,0,1,.78-.76,2.42,2.42,0,0,1,1.15-.28,2.21,2.21,0,0,1,1,.23,1.63,1.63,0,0,1,.69.66l-.57.38a1.39,1.39,0,0,0-.49-.45,1.41,1.41,0,0,0-.65-.15,1.53,1.53,0,0,0-.74.18,1.22,1.22,0,0,0-.51.52,1.56,1.56,0,0,0-.19.76,1.61,1.61,0,0,0,.19.78,1.34,1.34,0,0,0,.51.52,1.53,1.53,0,0,0,.74.18,1.41,1.41,0,0,0,.65-.15,1.39,1.39,0,0,0,.49-.45l.57.36a1.65,1.65,0,0,1-.69.67A2.21,2.21,0,0,1,281.4,589.15Zm6.58-5.32c-.46,0-.68.24-.68.73v.36h1.21v.63h-1.2v3.55h-.75v-3.55h-.71v-.63h.71v-.37a1.33,1.33,0,0,1,.36-1,1.35,1.35,0,0,1,1-.37,1.49,1.49,0,0,1,.47.07,1.11,1.11,0,0,1,.38.18l-.23.57A.94.94,0,0,0,288,583.83Zm5.08,3.21a1.94,1.94,0,0,1,0,.22h-3.39a1.38,1.38,0,0,0,.48.9,1.61,1.61,0,0,0,1,.33,1.56,1.56,0,0,0,1.21-.51l.42.49a1.93,1.93,0,0,1-.71.51,2.7,2.7,0,0,1-2.12-.1,2,2,0,0,1-.79-.76,2.34,2.34,0,0,1,0-2.2,1.89,1.89,0,0,1,.75-.76,2.17,2.17,0,0,1,1.08-.28,2.07,2.07,0,0,1,1.06.28,1.87,1.87,0,0,1,.74.76A2.26,2.26,0,0,1,293.06,587ZM291,585.52a1.35,1.35,0,0,0-.92.33,1.34,1.34,0,0,0-.42.87h2.68a1.34,1.34,0,0,0-.43-.86A1.29,1.29,0,0,0,291,585.52Zm7,1.52c0,.05,0,.13,0,.22h-3.39a1.38,1.38,0,0,0,.48.9,1.61,1.61,0,0,0,1,.33,1.54,1.54,0,0,0,1.21-.51l.42.49a1.93,1.93,0,0,1-.71.51,2.7,2.7,0,0,1-2.12-.1,2,2,0,0,1-.79-.76,2.34,2.34,0,0,1,0-2.2,1.89,1.89,0,0,1,.75-.76,2.17,2.17,0,0,1,1.08-.28,2.07,2.07,0,0,1,1.06.28,1.87,1.87,0,0,1,.74.76A2.26,2.26,0,0,1,298,587ZM296,585.52a1.3,1.3,0,0,0-1.34,1.2h2.68a1.34,1.34,0,0,0-.43-.86A1.27,1.27,0,0,0,296,585.52Zm5.59,3.34a1.23,1.23,0,0,1-.41.22,1.68,1.68,0,0,1-.5.07,1.33,1.33,0,0,1-1-.34,1.31,1.31,0,0,1-.35-1v-2.29h-.71v-.63h.71V584h.76v.91h1.2v.63h-1.2v2.26a.74.74,0,0,0,.16.52.66.66,0,0,0,.49.18.86.86,0,0,0,.59-.2Zm5.5-4a2.16,2.16,0,0,1,1.08.27,1.93,1.93,0,0,1,.75.75,2.13,2.13,0,0,1,.28,1.11,2.17,2.17,0,0,1-.28,1.12,1.93,1.93,0,0,1-.75.75,2.16,2.16,0,0,1-1.08.27,2.05,2.05,0,0,1-.83-.17,1.73,1.73,0,0,1-.63-.51v2.16h-.76v-5.71h.73v.67a1.54,1.54,0,0,1,.63-.53A2,2,0,0,1,307,584.88Zm-.07,3.61a1.43,1.43,0,0,0,.72-.18,1.32,1.32,0,0,0,.5-.52,1.55,1.55,0,0,0,.19-.78,1.45,1.45,0,0,0-.19-.76,1.2,1.2,0,0,0-.5-.52,1.43,1.43,0,0,0-.72-.18,1.32,1.32,0,0,0-1.22.7,1.55,1.55,0,0,0-.18.76,1.66,1.66,0,0,0,.18.78,1.39,1.39,0,0,0,.5.52A1.48,1.48,0,0,0,307,588.49ZM314.1,587c0,.05,0,.13,0,.22h-3.39a1.38,1.38,0,0,0,.48.9,1.61,1.61,0,0,0,1,.33,1.56,1.56,0,0,0,1.21-.51l.42.49a1.93,1.93,0,0,1-.71.51,2.7,2.7,0,0,1-2.12-.1,2,2,0,0,1-.79-.76,2.34,2.34,0,0,1,0-2.2,1.89,1.89,0,0,1,.75-.76,2.17,2.17,0,0,1,1.08-.28,2.07,2.07,0,0,1,1.06.28,1.87,1.87,0,0,1,.74.76A2.26,2.26,0,0,1,314.1,587ZM312,585.52a1.35,1.35,0,0,0-.92.33,1.34,1.34,0,0,0-.42.87h2.68a1.34,1.34,0,0,0-.43-.86A1.29,1.29,0,0,0,312,585.52Zm4,.1a1.29,1.29,0,0,1,.58-.55,2.22,2.22,0,0,1,.94-.19v.74h-.18a1.27,1.27,0,0,0-1,.37,1.45,1.45,0,0,0-.34,1v2.08h-.76v-4.18H316Zm8.81-2.37v5.85h-.72v-.66a1.72,1.72,0,0,1-.64.53,2,2,0,0,1-.85.18,2.18,2.18,0,0,1-1.09-.27,2,2,0,0,1-.76-.75,2.26,2.26,0,0,1-.27-1.12,2.23,2.23,0,0,1,.27-1.11,2,2,0,0,1,.76-.75,2.18,2.18,0,0,1,1.09-.27,1.86,1.86,0,0,1,.82.18,1.46,1.46,0,0,1,.63.49v-2.3Zm-2.15,5.24a1.48,1.48,0,0,0,.72-.18,1.39,1.39,0,0,0,.5-.52,1.66,1.66,0,0,0,.18-.78,1.55,1.55,0,0,0-.18-.76,1.26,1.26,0,0,0-.5-.52,1.55,1.55,0,0,0-1.45,0,1.26,1.26,0,0,0-.5.52,1.55,1.55,0,0,0-.18.76,1.66,1.66,0,0,0,.18.78,1.39,1.39,0,0,0,.5.52A1.49,1.49,0,0,0,322.66,588.49Zm5.23-3.61a1.87,1.87,0,0,1,1.32.43,1.64,1.64,0,0,1,.47,1.27v2.52H329v-.55a1.34,1.34,0,0,1-.54.45,2.09,2.09,0,0,1-.83.15,1.75,1.75,0,0,1-1.13-.34,1.09,1.09,0,0,1-.42-.89,1.08,1.08,0,0,1,.41-.88,1.91,1.91,0,0,1,1.27-.34h1.2v-.15a1,1,0,0,0-.28-.75,1.18,1.18,0,0,0-.84-.26,2.18,2.18,0,0,0-.72.12,1.73,1.73,0,0,0-.6.33l-.32-.57a2.15,2.15,0,0,1,.77-.39A3,3,0,0,1,327.89,584.88Zm-.17,3.69a1.48,1.48,0,0,0,.74-.19,1.11,1.11,0,0,0,.46-.56v-.58h-1.17c-.64,0-1,.22-1,.65a.56.56,0,0,0,.25.49A1.06,1.06,0,0,0,327.72,588.57Zm7.1-3.65-2,4.6a2,2,0,0,1-.63.9,1.46,1.46,0,0,1-.86.26,1.72,1.72,0,0,1-.6-.1,1.29,1.29,0,0,1-.48-.29l.33-.56a1.05,1.05,0,0,0,.75.3.68.68,0,0,0,.45-.15,1.14,1.14,0,0,0,.34-.49l.14-.3-1.85-4.17h.79l1.46,3.35,1.44-3.35Z" transform="translate(-138.21 -201.72)"/></svg>