<svg id="Layer_1" data-name="Layer 1" xmlns="http://www.w3.org/2000/svg" viewBox="0 0 335.24 388.96"><defs><style>.cls-1,.cls-3,.cls-7{fill:#53afab;}.cls-1,.cls-10,.cls-2,.cls-6,.cls-8{opacity:0.3;isolation:isolate;}.cls-2,.cls-5{fill:#cce7e6;}.cls-4,.cls-8{fill:none;stroke:#000;stroke-width:2px;}.cls-11,.cls-7{fill-opacity:0.3;}.cls-8{stroke-linejoin:round;stroke-opacity:0.5;stroke-dasharray:5 5;}.cls-10,.cls-9{fill-opacity:0.5;}</style></defs><rect class="cls-1" x="97.66" y="324.3" width="149.83" height="28.09"/><rect class="cls-2" x="247.48" y="324.3" width="66.53" height="28.09"/><rect class="cls-1" x="185.38" y="272.05" width="62.1" height="28.09"/><rect class="cls-2" x="247.48" y="272.05" width="32.04" height="28.09"/><rect class="cls-3" x="166.65" y="219.32" width="18.73" height="28.09"/><rect class="cls-3" x="130.68" y="167.08" width="35.98" height="27.6"/><rect class="cls-1" x="106.03" y="114.34" width="25.63" height="27.6"/><rect class="cls-1" x="97.66" y="61.61" width="8.38" height="27.6"/><rect class="cls-2" x="130.68" y="114.34" width="8.38" height="27.6"/><path class="cls-4" d="M235.84,238.19v324.3" transform="translate(-138.18 -201.72)"/><path d="M161.61,209.43v.68h-4v-5.52h3.89v.69h-3.1V207h2.77v.67H158.4v1.78Zm2.44.74a4,4,0,0,1-1-.14,2.43,2.43,0,0,1-.74-.36l.32-.6a2,2,0,0,0,.67.32,2.66,2.66,0,0,0,.79.12c.67,0,1-.19,1-.56a.36.36,0,0,0-.14-.3.68.68,0,0,0-.33-.16,4.9,4.9,0,0,0-.57-.12,6.56,6.56,0,0,1-.83-.19,1.19,1.19,0,0,1-.54-.34,1,1,0,0,1-.23-.69,1.07,1.07,0,0,1,.48-.91,2.08,2.08,0,0,1,1.27-.34,4,4,0,0,1,.83.1,2.47,2.47,0,0,1,.69.28l-.33.6a2.16,2.16,0,0,0-1.2-.33,1.49,1.49,0,0,0-.74.15.48.48,0,0,0-.25.42.4.4,0,0,0,.14.32,1,1,0,0,0,.35.18l.59.13a4.65,4.65,0,0,1,.81.19,1.17,1.17,0,0,1,.54.33.92.92,0,0,1,.21.66,1.05,1.05,0,0,1-.49.91A2.29,2.29,0,0,1,164.05,210.17Zm5.22-.28a1.23,1.23,0,0,1-.41.22,2.08,2.08,0,0,1-.5.07,1.37,1.37,0,0,1-1-.34,1.32,1.32,0,0,1-.35-1v-2.29h-.71v-.63H167V205h.76V206H169v.62h-1.2v2.27a.77.77,0,0,0,.17.52.62.62,0,0,0,.48.18.94.94,0,0,0,.6-.2Zm1-3.93h.76v4.18h-.76Zm.38-.81a.53.53,0,0,1-.37-.14.46.46,0,0,1-.14-.35.48.48,0,0,1,.14-.34.5.5,0,0,1,.37-.15.45.45,0,0,1,.36.14.43.43,0,0,1,.15.34.49.49,0,0,1-.15.36A.45.45,0,0,1,170.7,205.15Zm7.17.79a1.68,1.68,0,0,1,1.25.46,1.8,1.8,0,0,1,.46,1.35v2.41h-.75v-2.32a1.32,1.32,0,0,0-.28-.92,1,1,0,0,0-.79-.31,1.21,1.21,0,0,0-.92.36,1.42,1.42,0,0,0-.34,1v2.15h-.75v-2.32a1.29,1.29,0,0,0-.28-.91,1,1,0,0,0-.8-.31,1.13,1.13,0,0,0-.91.36,1.38,1.38,0,0,0-.34,1v2.15h-.75V206h.73v.63a1.38,1.38,0,0,1,.6-.49,1.91,1.91,0,0,1,.84-.17,1.86,1.86,0,0,1,.87.2,1.33,1.33,0,0,1,.58.57,1.58,1.58,0,0,1,.66-.56A2.1,2.1,0,0,1,177.87,205.94Zm4.75,0a1.87,1.87,0,0,1,1.33.43,1.63,1.63,0,0,1,.46,1.27v2.52h-.71v-.55a1.3,1.3,0,0,1-.55.45,2.09,2.09,0,0,1-.83.14,1.72,1.72,0,0,1-1.12-.34,1.16,1.16,0,0,1,0-1.77,2,2,0,0,1,1.28-.34h1.2v-.14a1,1,0,0,0-.28-.75,1.18,1.18,0,0,0-.84-.27,2,2,0,0,0-.72.13,1.71,1.71,0,0,0-.6.32l-.32-.57a2.38,2.38,0,0,1,.78-.39A3,3,0,0,1,182.62,206Zm-.18,3.68a1.39,1.39,0,0,0,.75-.19,1.13,1.13,0,0,0,.46-.55v-.58h-1.17c-.64,0-1,.21-1,.64a.59.59,0,0,0,.24.5A1.14,1.14,0,0,0,182.44,209.63Zm5.84.31a1.23,1.23,0,0,1-.41.22,2.16,2.16,0,0,1-.51.07,1.39,1.39,0,0,1-1-.34,1.31,1.31,0,0,1-.34-1v-2.29h-.71V206h.71v-.92h.76V206H188v.63h-1.2v2.27a.77.77,0,0,0,.16.52.66.66,0,0,0,.49.18.92.92,0,0,0,.59-.2Zm4.68-1.81c0,.06,0,.13,0,.23h-3.39a1.36,1.36,0,0,0,.48.89,1.61,1.61,0,0,0,1,.33,1.52,1.52,0,0,0,1.21-.5l.42.49a1.93,1.93,0,0,1-.71.51,2.58,2.58,0,0,1-.94.17,2.5,2.5,0,0,1-1.18-.27,2,2,0,0,1-.79-.77,2.17,2.17,0,0,1-.27-1.11,2.2,2.2,0,0,1,.27-1.09,1.89,1.89,0,0,1,.75-.76,2.16,2.16,0,0,1,1.08-.27,2,2,0,0,1,1.06.28,1.79,1.79,0,0,1,.73.76A2.26,2.26,0,0,1,193,208.13Zm-2.06-1.52a1.33,1.33,0,0,0-.92.33,1.39,1.39,0,0,0-.43.86h2.68a1.3,1.3,0,0,0-.43-.86A1.25,1.25,0,0,0,190.9,206.61Zm7.18-2.25v5.85h-.72v-.67a1.65,1.65,0,0,1-.64.53,2,2,0,0,1-.85.18,2.18,2.18,0,0,1-1.09-.27,2,2,0,0,1-.76-.75,2.29,2.29,0,0,1-.26-1.12A2.23,2.23,0,0,1,194,207a1.89,1.89,0,0,1,.76-.75,2.18,2.18,0,0,1,1.09-.27,1.89,1.89,0,0,1,.82.18,1.61,1.61,0,0,1,.63.5v-2.31Zm-2.16,5.23a1.48,1.48,0,0,0,.72-.18,1.39,1.39,0,0,0,.5-.52,1.52,1.52,0,0,0,.19-.77,1.59,1.59,0,0,0-.18-.77,1.22,1.22,0,0,0-.51-.52,1.41,1.41,0,0,0-.71-.18,1.49,1.49,0,0,0-.73.18,1.39,1.39,0,0,0-.51.51,1.62,1.62,0,0,0-.18.77,1.59,1.59,0,0,0,.18.77,1.36,1.36,0,0,0,1.23.71Zm6.86-4.2v1.92h2.77V208h-2.77v2.23H202V204.7h3.9v.68Zm7.87,2.79s0,.13,0,.22h-3.39a1.38,1.38,0,0,0,.48.9,1.61,1.61,0,0,0,1,.33,1.55,1.55,0,0,0,1.21-.5l.42.49a1.76,1.76,0,0,1-.72.5,2.3,2.3,0,0,1-.93.17,2.48,2.48,0,0,1-1.18-.27,2,2,0,0,1-.79-.76,2.34,2.34,0,0,1,0-2.2,2,2,0,0,1,.76-.76,2.16,2.16,0,0,1,1.08-.27,2,2,0,0,1,1.06.28,1.88,1.88,0,0,1,.73.75A2.3,2.3,0,0,1,210.65,208.18Zm-2.07-1.52a1.27,1.27,0,0,0-.91.32,1.35,1.35,0,0,0-.43.87h2.68a1.3,1.3,0,0,0-.43-.86A1.25,1.25,0,0,0,208.58,206.66ZM214,206a2.18,2.18,0,0,1,1.09.27,1.93,1.93,0,0,1,.75.75,2.26,2.26,0,0,1,.27,1.12,2.19,2.19,0,0,1-.28,1.12,1.91,1.91,0,0,1-.75.74,2.18,2.18,0,0,1-1.09.27,1.86,1.86,0,0,1-.85-.19,1.56,1.56,0,0,1-.64-.53v.67h-.72v-5.85h.76v2.3a1.61,1.61,0,0,1,.63-.5A2.09,2.09,0,0,1,214,206Zm-.07,3.6a1.33,1.33,0,0,0,.72-.17,1.49,1.49,0,0,0,.51-.52,1.67,1.67,0,0,0,.19-.78,1.56,1.56,0,0,0-.19-.76,1.22,1.22,0,0,0-.51-.52,1.39,1.39,0,0,0-.71-.19,1.48,1.48,0,0,0-.72.18,1.34,1.34,0,0,0-.51.52,1.59,1.59,0,0,0-.18.77,1.62,1.62,0,0,0,.18.77,1.39,1.39,0,0,0,.5.52A1.48,1.48,0,0,0,214,209.63Zm7-4.88v5.52h-.78v-4.84h-1.25v-.69Zm2.9,2.21a2.75,2.75,0,0,1,1.74.45,1.45,1.45,0,0,1,.55,1.22,1.75,1.75,0,0,1-.23.88,1.59,1.59,0,0,1-.71.61,2.62,2.62,0,0,1-1.15.22,3.61,3.61,0,0,1-1.13-.18,2.46,2.46,0,0,1-.89-.5l.36-.62a2.14,2.14,0,0,0,.72.44,2.93,2.93,0,0,0,.93.16,1.6,1.6,0,0,0,1-.26.87.87,0,0,0,.35-.72.83.83,0,0,0-.38-.75,2.29,2.29,0,0,0-1.29-.27h-1.26l.3-2.89h3.12v.69h-2.45l-.15,1.51Zm7.47,3.38a2.29,2.29,0,0,1-1.14-.28,2,2,0,0,1-.78-.76,2.12,2.12,0,0,1-.28-1.1,2.06,2.06,0,0,1,.29-1.1,1.94,1.94,0,0,1,.78-.75,2.37,2.37,0,0,1,1.14-.27,2.06,2.06,0,0,1,1,.23,1.57,1.57,0,0,1,.69.66l-.57.37a1.31,1.31,0,0,0-.49-.45,1.41,1.41,0,0,0-.65-.15,1.53,1.53,0,0,0-.74.18,1.22,1.22,0,0,0-.51.52,1.56,1.56,0,0,0-.19.76,1.61,1.61,0,0,0,.18.78,1.41,1.41,0,0,0,.51.52,1.57,1.57,0,0,0,.75.18,1.37,1.37,0,0,0,.64-.15,1.24,1.24,0,0,0,.49-.45l.58.37a1.74,1.74,0,0,1-.7.67A2.18,2.18,0,0,1,231.31,210.34Zm4.54,0a2.29,2.29,0,0,1-1.12-.27,2.11,2.11,0,0,1-.78-.76,2.38,2.38,0,0,1,0-2.2,1.93,1.93,0,0,1,.79-.76,2.29,2.29,0,0,1,1.12-.27,2.18,2.18,0,0,1,1.11.28,1.88,1.88,0,0,1,.77.76,2.08,2.08,0,0,1,.28,1.09,2.19,2.19,0,0,1-.29,1.11,1.92,1.92,0,0,1-.77.75A2.08,2.08,0,0,1,235.85,210.35Zm0-.66a1.43,1.43,0,0,0,.72-.18,1.32,1.32,0,0,0,.5-.52,1.72,1.72,0,0,0,.19-.77,1.55,1.55,0,0,0-.18-.76,1.3,1.3,0,0,0-.51-.53,1.43,1.43,0,0,0-.72-.18,1.45,1.45,0,0,0-.72.18,1.34,1.34,0,0,0-.51.52,1.58,1.58,0,0,0-.18.76,1.66,1.66,0,0,0,.18.78,1.47,1.47,0,0,0,.5.52A1.49,1.49,0,0,0,235.85,209.69Zm5.58-3.59a1.71,1.71,0,0,1,1.26.47,1.83,1.83,0,0,1,.47,1.35v2.41h-.75V208a1.32,1.32,0,0,0-.29-.92,1.1,1.1,0,0,0-.83-.31,1.33,1.33,0,0,0-1,.36,1.43,1.43,0,0,0-.35,1v2.15h-.75v-4.18h.72v.63a1.47,1.47,0,0,1,.62-.5A2.28,2.28,0,0,1,241.43,206.1Zm4.44,4.28a3.52,3.52,0,0,1-1-.14,2.13,2.13,0,0,1-.74-.35l.32-.6a2.2,2.2,0,0,0,.67.32,2.66,2.66,0,0,0,.79.12c.66,0,1-.19,1-.57a.39.39,0,0,0-.14-.3,1,1,0,0,0-.34-.16l-.56-.12a5.05,5.05,0,0,1-.83-.18,1.3,1.3,0,0,1-.54-.35.93.93,0,0,1-.23-.69,1.06,1.06,0,0,1,.47-.9,2.05,2.05,0,0,1,1.27-.34,3.44,3.44,0,0,1,.84.1,2.21,2.21,0,0,1,.69.28l-.33.6a2.1,2.1,0,0,0-1.21-.34,1.34,1.34,0,0,0-.73.16.46.46,0,0,0-.25.42.39.39,0,0,0,.14.32.77.77,0,0,0,.35.17l.59.13a6.15,6.15,0,0,1,.81.19,1.19,1.19,0,0,1,.53.34.89.89,0,0,1,.22.66,1,1,0,0,1-.49.9A2.3,2.3,0,0,1,245.87,210.38Zm6.78-4.21v4.18h-.72v-.63a1.58,1.58,0,0,1-.61.5,1.84,1.84,0,0,1-.81.17,1.64,1.64,0,0,1-1.8-1.82v-2.41h.76v2.32a1.35,1.35,0,0,0,.29.93,1.17,1.17,0,0,0,.84.31,1.24,1.24,0,0,0,.94-.36,1.42,1.42,0,0,0,.35-1v-2.16Zm6.8,0a1.69,1.69,0,0,1,1.24.46,1.8,1.8,0,0,1,.46,1.36v2.4h-.76v-2.32a1.34,1.34,0,0,0-.28-.91,1,1,0,0,0-.8-.31,1.22,1.22,0,0,0-.92.36,1.46,1.46,0,0,0-.34,1v2.16h-.76v-2.31a1.32,1.32,0,0,0-.29-.92,1,1,0,0,0-.79-.31,1.22,1.22,0,0,0-.92.36,1.47,1.47,0,0,0-.34,1v2.15h-.76v-4.18h.72v.62a1.59,1.59,0,0,1,.6-.49,2.08,2.08,0,0,1,.85-.17,1.92,1.92,0,0,1,.87.2,1.41,1.41,0,0,1,.58.58,1.64,1.64,0,0,1,.65-.57A2.32,2.32,0,0,1,259.45,206.15Zm5.44,0a2.18,2.18,0,0,1,1.09.27,1.93,1.93,0,0,1,.75.75,2.23,2.23,0,0,1,.27,1.11,2.19,2.19,0,0,1-.28,1.12,1.93,1.93,0,0,1-.75.75,2.28,2.28,0,0,1-1.09.26,2.09,2.09,0,0,1-.83-.17,1.92,1.92,0,0,1-.63-.51v2.16h-.76V206.2h.73v.66a1.62,1.62,0,0,1,.64-.52A1.85,1.85,0,0,1,264.89,206.17Zm-.07,3.6a1.43,1.43,0,0,0,.72-.18,1.39,1.39,0,0,0,.5-.52,1.52,1.52,0,0,0,.19-.77,1.59,1.59,0,0,0-.18-.77,1.28,1.28,0,0,0-.51-.52,1.51,1.51,0,0,0-1.43,0,1.49,1.49,0,0,0-.51.52,1.55,1.55,0,0,0-.18.76,1.59,1.59,0,0,0,.18.77,1.41,1.41,0,0,0,.5.53A1.48,1.48,0,0,0,264.82,209.77Zm5.69.38a1,1,0,0,1-.41.22,1.68,1.68,0,0,1-.5.07,1.33,1.33,0,0,1-1-.34,1.29,1.29,0,0,1-.34-1v-2.29h-.71v-.62h.71v-.91H269v.92h1.2v.62H269v2.26a.74.74,0,0,0,.17.52.69.69,0,0,0,.49.19.92.92,0,0,0,.59-.2Zm1.05-3.93h.76v4.18h-.76Zm.38-.8a.53.53,0,0,1-.37-.14.51.51,0,0,1,0-.7.51.51,0,0,1,.37-.15.5.5,0,0,1,.37.15.43.43,0,0,1,.15.34.5.5,0,0,1-.16.36A.49.49,0,0,1,271.94,205.42Zm3.73,5a2.19,2.19,0,0,1-1.12-.28,2,2,0,0,1-.78-.76,2.38,2.38,0,0,1,0-2.2,1.9,1.9,0,0,1,.79-.75,2.19,2.19,0,0,1,1.12-.28,2.29,2.29,0,0,1,1.11.28,1.94,1.94,0,0,1,.77.76,2.27,2.27,0,0,1,0,2.2,2,2,0,0,1-.77.76A2.28,2.28,0,0,1,275.67,210.46Zm0-.66a1.43,1.43,0,0,0,.72-.18,1.39,1.39,0,0,0,.5-.52,1.63,1.63,0,0,0,.19-.77,1.59,1.59,0,0,0-.18-.77,1.22,1.22,0,0,0-.51-.52,1.41,1.41,0,0,0-.71-.18,1.49,1.49,0,0,0-.73.18,1.39,1.39,0,0,0-.51.51,1.62,1.62,0,0,0-.18.77,1.59,1.59,0,0,0,.18.77,1.36,1.36,0,0,0,1.23.71Zm5.58-3.59a1.71,1.71,0,0,1,1.26.47A1.8,1.8,0,0,1,283,208v2.4h-.75v-2.32a1.25,1.25,0,0,0-.29-.91,1.06,1.06,0,0,0-.83-.31,1.29,1.29,0,0,0-1,.36,1.35,1.35,0,0,0-.36,1v2.15H279v-4.18h.72v.63a1.45,1.45,0,0,1,.62-.49A2.11,2.11,0,0,1,281.25,206.21Z" transform="translate(-138.18 -201.72)"/><path d="M317.18,204.58a2.58,2.58,0,0,1,1.69.51,1.93,1.93,0,0,1,0,2.82,2.53,2.53,0,0,1-1.69.52h-1.36v1.67H315v-5.52Zm0,3.16a1.78,1.78,0,0,0,1.14-.31,1.15,1.15,0,0,0,.39-.93,1.1,1.1,0,0,0-.39-.91,1.72,1.72,0,0,0-1.14-.32h-1.34v2.47Zm5.27,2.41a2.3,2.3,0,0,1-1.12-.28,2,2,0,0,1-.78-.76,2.3,2.3,0,0,1,0-2.2,2,2,0,0,1,.78-.75,2.36,2.36,0,0,1,2.23,0,1.92,1.92,0,0,1,.77.75,2.23,2.23,0,0,1,0,2.2,1.94,1.94,0,0,1-.77.76A2.29,2.29,0,0,1,322.43,210.15Zm0-.67a1.43,1.43,0,0,0,.72-.18,1.32,1.32,0,0,0,.5-.52,1.59,1.59,0,0,0,.18-.77,1.62,1.62,0,0,0-.18-.77,1.39,1.39,0,0,0-.5-.52,1.43,1.43,0,0,0-.72-.18,1.49,1.49,0,0,0-.73.18,1.39,1.39,0,0,0-.5.52,1.62,1.62,0,0,0-.18.77,1.59,1.59,0,0,0,.18.77,1.32,1.32,0,0,0,.5.52A1.49,1.49,0,0,0,322.43,209.48Zm5.69.37a1.25,1.25,0,0,1-.41.23,2.16,2.16,0,0,1-.51.07,1.39,1.39,0,0,1-1-.34,1.3,1.3,0,0,1-.34-1v-2.3h-.71v-.62h.71V205h.75v.91h1.2v.62h-1.2v2.27a.76.76,0,0,0,.17.52.66.66,0,0,0,.49.18.92.92,0,0,0,.59-.2Zm4.67-1.82a2,2,0,0,1,0,.23h-3.39a1.26,1.26,0,0,0,.48.89,1.61,1.61,0,0,0,1,.33,1.55,1.55,0,0,0,1.21-.5l.42.49a1.8,1.8,0,0,1-.71.5,2.39,2.39,0,0,1-.94.18,2.5,2.5,0,0,1-1.18-.27,2,2,0,0,1-.79-.77,2.12,2.12,0,0,1-.28-1.1,2.24,2.24,0,0,1,.27-1.1,1.93,1.93,0,0,1,.75-.75,2.07,2.07,0,0,1,1.08-.28,2,2,0,0,1,1.06.28,1.91,1.91,0,0,1,.74.75A2.4,2.4,0,0,1,332.79,208Zm-2.06-1.51a1.28,1.28,0,0,0-1.34,1.2h2.68a1.31,1.31,0,0,0-.44-.86A1.25,1.25,0,0,0,330.73,206.52Zm5.47-.64a1.71,1.71,0,0,1,1.26.47,1.75,1.75,0,0,1,.47,1.34v2.41h-.75v-2.32a1.29,1.29,0,0,0-.29-.91,1.1,1.1,0,0,0-.84-.31,1.31,1.31,0,0,0-1,.36,1.39,1.39,0,0,0-.36,1v2.15H334v-4.18h.72v.63a1.62,1.62,0,0,1,.62-.5A2.28,2.28,0,0,1,336.2,205.88Zm5.61,4a1.25,1.25,0,0,1-.41.23,2.09,2.09,0,0,1-.51.07,1.35,1.35,0,0,1-1-.34,1.31,1.31,0,0,1-.35-1v-2.3h-.71v-.62h.71V205h.76v.91h1.19v.62h-1.19v2.27a.75.75,0,0,0,.16.52.66.66,0,0,0,.49.18.92.92,0,0,0,.59-.2Zm1-3.93h.75v4.18h-.75Zm.38-.8a.5.5,0,0,1-.37-.15.45.45,0,0,1-.15-.34.45.45,0,0,1,.15-.35.5.5,0,0,1,.37-.15.52.52,0,0,1,.36.14.43.43,0,0,1,.15.34.51.51,0,0,1-.51.51Zm3.46.76a1.87,1.87,0,0,1,1.33.43,1.62,1.62,0,0,1,.46,1.27v2.52h-.71v-.55a1.3,1.3,0,0,1-.55.45,2,2,0,0,1-.82.15,1.79,1.79,0,0,1-1.13-.34,1.1,1.1,0,0,1-.42-.89,1.09,1.09,0,0,1,.4-.89,2,2,0,0,1,1.28-.34h1.2v-.15a1,1,0,0,0-.29-.74,1.15,1.15,0,0,0-.83-.27,2.29,2.29,0,0,0-.73.13,2.14,2.14,0,0,0-.6.32l-.31-.56a2.09,2.09,0,0,1,.77-.4A3.31,3.31,0,0,1,346.69,205.88Zm-.17,3.68a1.39,1.39,0,0,0,.75-.19,1.13,1.13,0,0,0,.46-.55v-.58h-1.17c-.64,0-1,.21-1,.64a.58.58,0,0,0,.24.5A1.14,1.14,0,0,0,346.52,209.56Zm3.49-5.31h.76v5.85H350Zm5.46,1v1.92h2.77v.68h-2.77v2.23h-.78v-5.52h3.89v.69Zm7.88,2.76a1,1,0,0,1,0,.23h-3.39a1.34,1.34,0,0,0,.48.89,1.64,1.64,0,0,0,1,.33,1.51,1.51,0,0,0,1.2-.5l.42.49a1.73,1.73,0,0,1-.71.5,2.35,2.35,0,0,1-.94.18,2.46,2.46,0,0,1-1.17-.27,2,2,0,0,1-.8-.77,2.21,2.21,0,0,1-.27-1.1,2.35,2.35,0,0,1,.26-1.1,2.07,2.07,0,0,1,.75-.75,2.1,2.1,0,0,1,1.08-.28,2,2,0,0,1,1.07.28,1.88,1.88,0,0,1,.73.75A2.29,2.29,0,0,1,363.35,208Zm-2.07-1.51a1.32,1.32,0,0,0-.91.33,1.39,1.39,0,0,0-.43.87h2.68a1.3,1.3,0,0,0-.43-.86A1.25,1.25,0,0,0,361.28,206.52Zm5.46-.64a2.18,2.18,0,0,1,1.09.27,1.93,1.93,0,0,1,.75.75,2.23,2.23,0,0,1,.27,1.11,2.29,2.29,0,0,1-.27,1.12,1.93,1.93,0,0,1-.75.75,2.18,2.18,0,0,1-1.09.27,2,2,0,0,1-.85-.18,1.74,1.74,0,0,1-.64-.53v.66h-.73v-5.85h.76v2.3a1.61,1.61,0,0,1,.63-.5A2.05,2.05,0,0,1,366.74,205.88Zm-.06,3.6a1.43,1.43,0,0,0,.72-.18,1.32,1.32,0,0,0,.5-.52,1.49,1.49,0,0,0,.19-.77,1.52,1.52,0,0,0-.19-.77,1.39,1.39,0,0,0-.5-.52,1.43,1.43,0,0,0-.72-.18,1.45,1.45,0,0,0-.72.18,1.32,1.32,0,0,0-.5.52,1.52,1.52,0,0,0-.19.77,1.49,1.49,0,0,0,.19.77,1.25,1.25,0,0,0,.5.52A1.45,1.45,0,0,0,366.68,209.48Zm7-4.9v5.52h-.78v-4.83h-1.25v-.69Zm2.9,2.2a2.75,2.75,0,0,1,1.74.45,1.46,1.46,0,0,1,.56,1.21,1.7,1.7,0,0,1-.24.89,1.57,1.57,0,0,1-.7.61,2.62,2.62,0,0,1-1.15.22,3.86,3.86,0,0,1-1.13-.17,2.6,2.6,0,0,1-.9-.5l.37-.62a2,2,0,0,0,.72.43,2.68,2.68,0,0,0,.93.16,1.55,1.55,0,0,0,1-.26.88.88,0,0,0,.35-.73.82.82,0,0,0-.38-.74,2.3,2.3,0,0,0-1.29-.26h-1.26l.3-2.89h3.11v.69h-2.45l-.15,1.51Zm9.6-2.53v5.85h-.72v-.66a1.82,1.82,0,0,1-.64.53,2,2,0,0,1-.85.18,2.18,2.18,0,0,1-1.09-.27,2,2,0,0,1-.76-.75,2.29,2.29,0,0,1-.27-1.12,2.23,2.23,0,0,1,.27-1.11,2,2,0,0,1,.76-.75,2.18,2.18,0,0,1,1.09-.27,2,2,0,0,1,.82.17,1.48,1.48,0,0,1,.63.5v-2.3ZM384,209.48a1.48,1.48,0,0,0,.72-.18,1.32,1.32,0,0,0,.5-.52,1.59,1.59,0,0,0,.18-.77,1.62,1.62,0,0,0-.18-.77,1.39,1.39,0,0,0-.5-.52,1.55,1.55,0,0,0-1.45,0,1.39,1.39,0,0,0-.5.52,1.62,1.62,0,0,0-.18.77,1.59,1.59,0,0,0,.18.77,1.32,1.32,0,0,0,.5.52A1.49,1.49,0,0,0,384,209.48Zm7.48-1.45a2,2,0,0,1,0,.23h-3.39a1.26,1.26,0,0,0,.48.89,1.61,1.61,0,0,0,1,.33,1.55,1.55,0,0,0,1.21-.5l.42.49a1.8,1.8,0,0,1-.71.5,2.39,2.39,0,0,1-.94.18,2.5,2.5,0,0,1-1.18-.27,2,2,0,0,1-.79-.77,2.12,2.12,0,0,1-.28-1.1,2.24,2.24,0,0,1,.27-1.1,1.93,1.93,0,0,1,.75-.75,2.07,2.07,0,0,1,1.08-.28,2,2,0,0,1,1.06.28,1.91,1.91,0,0,1,.74.75A2.4,2.4,0,0,1,391.47,208Zm-2.06-1.51a1.35,1.35,0,0,0-.92.33,1.34,1.34,0,0,0-.42.87h2.68a1.31,1.31,0,0,0-.44-.86A1.25,1.25,0,0,0,389.41,206.52Zm8.47-.64a1.65,1.65,0,0,1,1.24.46,1.8,1.8,0,0,1,.47,1.35v2.41h-.76v-2.32a1.29,1.29,0,0,0-.28-.91,1,1,0,0,0-.8-.31,1.18,1.18,0,0,0-.91.36,1.42,1.42,0,0,0-.34,1v2.15h-.76v-2.32a1.34,1.34,0,0,0-.28-.91,1,1,0,0,0-.8-.31,1.22,1.22,0,0,0-.92.36,1.47,1.47,0,0,0-.33,1v2.15h-.76v-4.18h.72v.62a1.59,1.59,0,0,1,.6-.49,2.08,2.08,0,0,1,.85-.17,1.85,1.85,0,0,1,.86.2,1.35,1.35,0,0,1,.59.57,1.55,1.55,0,0,1,.65-.56A2.15,2.15,0,0,1,397.88,205.88Zm4.75,0a1.84,1.84,0,0,1,1.32.43,1.62,1.62,0,0,1,.47,1.27v2.52h-.72v-.55a1.3,1.3,0,0,1-.55.45,2,2,0,0,1-.82.15,1.79,1.79,0,0,1-1.13-.34,1.1,1.1,0,0,1-.42-.89,1.09,1.09,0,0,1,.4-.89,2,2,0,0,1,1.28-.34h1.2v-.15a1,1,0,0,0-.29-.74,1.14,1.14,0,0,0-.83-.27,2.29,2.29,0,0,0-.73.13,2.14,2.14,0,0,0-.6.32l-.31-.56a2.09,2.09,0,0,1,.77-.4A3.32,3.32,0,0,1,402.63,205.88Zm-.18,3.68a1.39,1.39,0,0,0,.75-.19,1.13,1.13,0,0,0,.46-.55v-.58h-1.17c-.64,0-1,.21-1,.64a.58.58,0,0,0,.24.5A1.14,1.14,0,0,0,402.45,209.56Zm5.72-3.68a1.71,1.71,0,0,1,1.26.47,1.76,1.76,0,0,1,.48,1.34v2.41h-.76v-2.32a1.29,1.29,0,0,0-.29-.91,1.1,1.1,0,0,0-.84-.31,1.31,1.31,0,0,0-1,.36,1.43,1.43,0,0,0-.35,1v2.15h-.76v-4.18h.73v.63a1.51,1.51,0,0,1,.61-.5A2.28,2.28,0,0,1,408.17,205.88Zm7.23-1.63v5.85h-.73v-.66a1.74,1.74,0,0,1-.64.53,2,2,0,0,1-.85.18,2.2,2.2,0,0,1-1.09-.27,1.93,1.93,0,0,1-.75-.75,2.29,2.29,0,0,1-.27-1.12,2.23,2.23,0,0,1,.27-1.11,1.93,1.93,0,0,1,.75-.75,2.2,2.2,0,0,1,1.09-.27,2.05,2.05,0,0,1,.83.17,1.61,1.61,0,0,1,.63.5v-2.3Zm-2.16,5.23a1.43,1.43,0,0,0,.72-.18,1.28,1.28,0,0,0,.51-.52,1.59,1.59,0,0,0,.18-.77,1.62,1.62,0,0,0-.18-.77,1.34,1.34,0,0,0-.51-.52,1.43,1.43,0,0,0-.72-.18,1.45,1.45,0,0,0-.72.18,1.49,1.49,0,0,0-.51.52,1.62,1.62,0,0,0-.18.77,1.59,1.59,0,0,0,.18.77,1.41,1.41,0,0,0,.51.52A1.45,1.45,0,0,0,413.24,209.48Zm9.85-3.56v4.18h-.72v-.63a1.51,1.51,0,0,1-.61.5,1.79,1.79,0,0,1-.81.18,1.87,1.87,0,0,1-1.32-.46,1.83,1.83,0,0,1-.48-1.37v-2.4h.76v2.32a1.33,1.33,0,0,0,.29.92,1.1,1.1,0,0,0,.84.31,1.24,1.24,0,0,0,.94-.36,1.42,1.42,0,0,0,.35-1v-2.16Zm3.79,0a1.71,1.71,0,0,1,1.27.47,1.79,1.79,0,0,1,.47,1.34v2.41h-.76v-2.32a1.25,1.25,0,0,0-.29-.91,1.07,1.07,0,0,0-.84-.31,1.31,1.31,0,0,0-1,.36,1.43,1.43,0,0,0-.35,1v2.15h-.76v-4.18h.73v.63a1.58,1.58,0,0,1,.61-.5A2.31,2.31,0,0,1,426.88,205.88Zm4.46,4.27a3.52,3.52,0,0,1-1-.14,2,2,0,0,1-.74-.35l.31-.6a2.31,2.31,0,0,0,.67.31,2.72,2.72,0,0,0,.8.12q1,0,1-.57a.38.38,0,0,0-.13-.3.88.88,0,0,0-.34-.15,4.48,4.48,0,0,0-.57-.12,5.3,5.3,0,0,1-.83-.18,1.3,1.3,0,0,1-.54-.35,1,1,0,0,1-.23-.69,1.06,1.06,0,0,1,.47-.9,2.12,2.12,0,0,1,1.27-.35,3.44,3.44,0,0,1,.84.1,2.14,2.14,0,0,1,.68.28l-.32.6a2.17,2.17,0,0,0-1.21-.33,1.45,1.45,0,0,0-.73.15.48.48,0,0,0-.25.42.42.42,0,0,0,.14.33,1,1,0,0,0,.35.17l.59.13a5.64,5.64,0,0,1,.81.18,1.28,1.28,0,0,1,.54.34.94.94,0,0,1,.22.66,1.08,1.08,0,0,1-.49.91A2.3,2.3,0,0,1,431.34,210.15ZM438,208a2,2,0,0,1,0,.23h-3.39a1.34,1.34,0,0,0,.48.89,1.61,1.61,0,0,0,1,.33,1.55,1.55,0,0,0,1.21-.5l.42.49a1.8,1.8,0,0,1-.71.5,2.35,2.35,0,0,1-.94.18,2.53,2.53,0,0,1-1.18-.27,2,2,0,0,1-.79-.77,2.12,2.12,0,0,1-.28-1.1,2.24,2.24,0,0,1,.27-1.1,1.93,1.93,0,0,1,.75-.75,2.07,2.07,0,0,1,1.08-.28,2,2,0,0,1,1.06.28,1.91,1.91,0,0,1,.74.75A2.4,2.4,0,0,1,438,208Zm-2.06-1.51a1.35,1.35,0,0,0-.92.33,1.34,1.34,0,0,0-.42.87h2.68a1.34,1.34,0,0,0-.43-.86A1.29,1.29,0,0,0,435.93,206.52Zm4,.1a1.37,1.37,0,0,1,.59-.55,2.07,2.07,0,0,1,.94-.19v.73h-.18a1.27,1.27,0,0,0-1,.37,1.45,1.45,0,0,0-.34,1v2.08h-.76v-4.18h.72Zm6.45-.7-1.83,4.18h-.77l-1.83-4.18h.79l1.43,3.35,1.47-3.35Zm4.49,2.11a2,2,0,0,1,0,.23h-3.4a1.31,1.31,0,0,0,.49.89,1.59,1.59,0,0,0,1,.33,1.55,1.55,0,0,0,1.21-.5l.41.49a1.73,1.73,0,0,1-.71.5,2.3,2.3,0,0,1-.93.18,2.48,2.48,0,0,1-1.18-.27,2,2,0,0,1-.8-.77,2.21,2.21,0,0,1-.27-1.1,2.24,2.24,0,0,1,.27-1.1,1.93,1.93,0,0,1,.75-.75,2.07,2.07,0,0,1,1.08-.28,2,2,0,0,1,1.06.28,1.82,1.82,0,0,1,.73.75A2.29,2.29,0,0,1,450.83,208Zm-2.06-1.51a1.33,1.33,0,0,0-.92.33,1.39,1.39,0,0,0-.43.87h2.69a1.36,1.36,0,0,0-.44-.86A1.25,1.25,0,0,0,448.77,206.52Zm7.18-2.27v5.85h-.73v-.66a1.66,1.66,0,0,1-.64.53,2,2,0,0,1-.85.18,2.23,2.23,0,0,1-1.09-.27,1.93,1.93,0,0,1-.75-.75,2.29,2.29,0,0,1-.27-1.12,2.23,2.23,0,0,1,.27-1.11,1.93,1.93,0,0,1,.75-.75,2.23,2.23,0,0,1,1.09-.27,2.05,2.05,0,0,1,.83.17,1.61,1.61,0,0,1,.63.5v-2.3Zm-2.15,5.23a1.41,1.41,0,0,0,.71-.18,1.28,1.28,0,0,0,.51-.52,1.59,1.59,0,0,0,.18-.77,1.62,1.62,0,0,0-.18-.77,1.34,1.34,0,0,0-.51-.52,1.41,1.41,0,0,0-.71-.18,1.49,1.49,0,0,0-.73.18,1.39,1.39,0,0,0-.5.52,1.63,1.63,0,0,0-.19.77,1.6,1.6,0,0,0,.19.77,1.32,1.32,0,0,0,.5.52A1.49,1.49,0,0,0,453.8,209.48Z" transform="translate(-138.18 -201.72)"/><rect class="cls-5" x="166.65" y="167.08" width="27.6" height="27.6"/><rect class="cls-5" x="185.38" y="219.32" width="17.74" height="28.09"/><path class="cls-6" d="M468.78,543.57v.68h-4v-.53l2.25-2.17a2.85,2.85,0,0,0,.55-.68,1.37,1.37,0,0,0,.14-.58.77.77,0,0,0-.31-.67,1.28,1.28,0,0,0-.86-.25,1.72,1.72,0,0,0-1.41.6l-.54-.46a2.12,2.12,0,0,1,.84-.62,3,3,0,0,1,1.18-.22,2.11,2.11,0,0,1,1.38.42,1.35,1.35,0,0,1,.51,1.12,1.84,1.84,0,0,1-.19.83,3.1,3.1,0,0,1-.72.9L466,543.57Zm2.35-2.64a2.73,2.73,0,0,1,1.73.45,1.48,1.48,0,0,1,.56,1.22,1.66,1.66,0,0,1-.24.88,1.51,1.51,0,0,1-.7.61,2.62,2.62,0,0,1-1.15.23,3.61,3.61,0,0,1-1.13-.18,2.59,2.59,0,0,1-.9-.49l.37-.63a2.14,2.14,0,0,0,.72.44,2.92,2.92,0,0,0,.93.15,1.48,1.48,0,0,0,1-.26.85.85,0,0,0,.35-.72.83.83,0,0,0-.38-.75,2.39,2.39,0,0,0-1.29-.26h-1.25l.29-2.89h3.11v.69h-2.45l-.15,1.51Z" transform="translate(-138.18 -201.72)"/><path class="cls-6" d="M250.89,275.55v5.52h-.57v-5H249v-.5Z" transform="translate(-138.18 -201.72)"/><path class="cls-6" d="M283.78,327.79v5.52H283v-4.83h-1.25v-.69Z" transform="translate(-138.18 -201.72)"/><path class="cls-6" d="M256,328.63a1.92,1.92,0,0,1,1.24.51,1.45,1.45,0,0,1,.43,1.07,1.62,1.62,0,0,1-.24.86,1.79,1.79,0,0,1-.71.61,2.76,2.76,0,0,1-1.14.22,3.58,3.58,0,0,1-1.14-.18,2.45,2.45,0,0,1-.89-.49l.36-.63a2.09,2.09,0,0,0,.73.44,2.85,2.85,0,0,0,.94.15,1.49,1.49,0,0,0,.95-.26.9.9,0,0,0,0-1.42,1.72,1.72,0,0,0-1-.26h-.44v-.55l1.39-1.7h-2.66v-.69h3.64v.54Z" transform="translate(-138.18 -201.72)"/><path d="M286.78,382.23a2.75,2.75,0,0,1,1.74.45,1.48,1.48,0,0,1,.56,1.22,1.66,1.66,0,0,1-.24.88,1.59,1.59,0,0,1-.7.62,2.77,2.77,0,0,1-1.15.22,3.56,3.56,0,0,1-1.13-.18,2.59,2.59,0,0,1-.9-.49l.36-.63a2.19,2.19,0,0,0,.73.44,2.84,2.84,0,0,0,.93.16,1.55,1.55,0,0,0,1-.26.88.88,0,0,0,.35-.73.85.85,0,0,0-.38-.75,2.39,2.39,0,0,0-1.29-.26h-1.26l.3-2.89h3.11v.69h-2.45l-.15,1.51Z" transform="translate(-138.18 -201.72)"/><path d="M316.19,437.11v.69h-4v-.54l2.24-2.17a2.7,2.7,0,0,0,.56-.68,1.37,1.37,0,0,0,.14-.58.79.79,0,0,0-.31-.67,1.37,1.37,0,0,0-.87-.24,1.75,1.75,0,0,0-1.41.59l-.54-.46a2.26,2.26,0,0,1,.85-.62,3.13,3.13,0,0,1,1.17-.22,2.11,2.11,0,0,1,1.38.42,1.35,1.35,0,0,1,.52,1.12,2,2,0,0,1-.19.84,3.6,3.6,0,0,1-.72.9l-1.69,1.62Z" transform="translate(-138.18 -201.72)"/><path class="cls-6" d="M354.94,486.69a2.3,2.3,0,0,1,1,.2,1.7,1.7,0,0,1,.68.59,1.64,1.64,0,0,1,.24.88,1.55,1.55,0,0,1-.26.91,1.69,1.69,0,0,1-.7.62,2.28,2.28,0,0,1-1,.21,2.11,2.11,0,0,1-1.72-.72,3.05,3.05,0,0,1-.6-2,3.54,3.54,0,0,1,.32-1.57,2.33,2.33,0,0,1,.92-1,2.75,2.75,0,0,1,1.37-.33,3.52,3.52,0,0,1,.75.08,2.06,2.06,0,0,1,.62.24l-.3.61a1.91,1.91,0,0,0-1.06-.26,1.7,1.7,0,0,0-1.34.54,2.19,2.19,0,0,0-.49,1.55v.19a1.54,1.54,0,0,1,.65-.53A2.19,2.19,0,0,1,354.94,486.69Zm-.1,2.77a1.29,1.29,0,0,0,.89-.29,1,1,0,0,0,.34-.78,1,1,0,0,0-.35-.77,1.33,1.33,0,0,0-.91-.29,1.46,1.46,0,0,0-.67.14,1.12,1.12,0,0,0-.45.38,1.06,1.06,0,0,0-.15.55,1,1,0,0,0,.15.53,1.12,1.12,0,0,0,.44.39A1.58,1.58,0,0,0,354.84,489.46Z" transform="translate(-138.18 -201.72)"/><path class="cls-6" d="M404.22,487.7h-1.05v1.35h-.76V487.7h-3.07v-.56l2.82-3.61H403L400.31,487h2.12v-1.2h.74V487h1.05Z" transform="translate(-138.18 -201.72)"/><path d="M334.43,437.11v.69h-4v-.54l2.25-2.17a2.62,2.62,0,0,0,.55-.68,1.24,1.24,0,0,0,.14-.58.81.81,0,0,0-.3-.67,1.37,1.37,0,0,0-.87-.24,1.75,1.75,0,0,0-1.41.59l-.54-.46a2.3,2.3,0,0,1,.84-.62,3.22,3.22,0,0,1,1.18-.22,2.11,2.11,0,0,1,1.38.42,1.37,1.37,0,0,1,.51,1.12,1.88,1.88,0,0,1-.19.84,3.19,3.19,0,0,1-.72.9l-1.68,1.62Z" transform="translate(-138.18 -201.72)"/><path d="M319.12,382.35a1.94,1.94,0,0,1,1.23.51,1.41,1.41,0,0,1,.43,1.07,1.59,1.59,0,0,1-.24.86,1.66,1.66,0,0,1-.71.61,2.76,2.76,0,0,1-1.14.22,3.56,3.56,0,0,1-1.13-.18,2.5,2.5,0,0,1-.9-.49l.37-.63a2.14,2.14,0,0,0,.72.44,2.94,2.94,0,0,0,.94.16,1.53,1.53,0,0,0,.95-.26.85.85,0,0,0,.35-.72.82.82,0,0,0-.34-.71,1.69,1.69,0,0,0-1-.25h-.44v-.56l1.38-1.7h-2.65V380h3.64v.54Z" transform="translate(-138.18 -201.72)"/><path class="cls-6" d="M419.87,538.67a2.1,2.1,0,0,1,1.71.72,3.07,3.07,0,0,1,.6,2,3.48,3.48,0,0,1-.33,1.58,2.22,2.22,0,0,1-.91,1,2.65,2.65,0,0,1-1.37.34,3.59,3.59,0,0,1-.75-.08,2.17,2.17,0,0,1-.62-.25l.3-.61a2,2,0,0,0,1.07.26,1.73,1.73,0,0,0,1.34-.53,2.27,2.27,0,0,0,.49-1.55v-.2a1.47,1.47,0,0,1-.66.54,2.35,2.35,0,0,1-.94.18,2.16,2.16,0,0,1-1-.2,1.68,1.68,0,0,1-.68-.58,1.76,1.76,0,0,1-.23-.89,1.64,1.64,0,0,1,.25-.91,1.66,1.66,0,0,1,.7-.61A2.19,2.19,0,0,1,419.87,538.67Zm.07,2.78a1.45,1.45,0,0,0,.66-.15,1.12,1.12,0,0,0,.45-.38,1,1,0,0,0,0-1.08,1,1,0,0,0-.45-.38,1.55,1.55,0,0,0-.71-.15,1.34,1.34,0,0,0-.89.29,1.08,1.08,0,0,0,0,1.56A1.39,1.39,0,0,0,419.94,541.45Z" transform="translate(-138.18 -201.72)"/><path class="cls-6" d="M306.92,538.73v5.52h-.78v-4.83H304.9v-.69Zm3.72,2.17a2.19,2.19,0,0,1,1,.21,1.48,1.48,0,0,1,.67.59,1.51,1.51,0,0,1,.25.87,1.65,1.65,0,0,1-1,1.53,2.33,2.33,0,0,1-1,.22,2.14,2.14,0,0,1-1.72-.72,3.1,3.1,0,0,1-.6-2,3.46,3.46,0,0,1,.33-1.57,2.28,2.28,0,0,1,.91-1,2.69,2.69,0,0,1,1.38-.34,3,3,0,0,1,.75.09,2.16,2.16,0,0,1,.62.23l-.3.62a1.87,1.87,0,0,0-1.06-.26,1.77,1.77,0,0,0-1.35.53,2.25,2.25,0,0,0-.49,1.55c0,.08,0,.15,0,.2a1.44,1.44,0,0,1,.65-.54A2.19,2.19,0,0,1,310.64,540.9Zm-.1,2.78a1.31,1.31,0,0,0,.88-.29,1,1,0,0,0,.34-.79,1,1,0,0,0-.34-.77,1.39,1.39,0,0,0-.92-.29,1.56,1.56,0,0,0-.66.14,1.23,1.23,0,0,0-.45.39,1,1,0,0,0,0,1.08,1.33,1.33,0,0,0,.45.39A1.73,1.73,0,0,0,310.54,543.68Z" transform="translate(-138.18 -201.72)"/><path class="cls-6" d="M140.17,533.5h-1.89v-.68h4.57v.68H141v4.84h-.79Zm4.91,4.89a2.3,2.3,0,0,1-1.12-.28,2,2,0,0,1-.78-.76,2.3,2.3,0,0,1,0-2.2,1.94,1.94,0,0,1,.78-.75,2.36,2.36,0,0,1,2.23,0,1.86,1.86,0,0,1,.77.75,2.23,2.23,0,0,1,0,2.2,1.94,1.94,0,0,1-.77.76A2.29,2.29,0,0,1,145.08,538.39Zm0-.67a1.43,1.43,0,0,0,.72-.18,1.32,1.32,0,0,0,.5-.52,1.74,1.74,0,0,0,0-1.54,1.32,1.32,0,0,0-.5-.52,1.43,1.43,0,0,0-.72-.18,1.49,1.49,0,0,0-.73.18,1.32,1.32,0,0,0-.5.52,1.74,1.74,0,0,0,0,1.54,1.32,1.32,0,0,0,.5.52A1.49,1.49,0,0,0,145.08,537.72Zm5.69.37a1.08,1.08,0,0,1-.41.22,1.75,1.75,0,0,1-.51.08,1.39,1.39,0,0,1-1-.34,1.3,1.3,0,0,1-.34-1v-2.3h-.71v-.62h.71v-.92h.75v.92h1.2v.62h-1.2v2.27a.77.77,0,0,0,.17.52.66.66,0,0,0,.49.18.92.92,0,0,0,.59-.2Zm2.56-4a1.83,1.83,0,0,1,1.32.43,1.62,1.62,0,0,1,.47,1.27v2.52h-.72v-.55a1.34,1.34,0,0,1-.54.45,2.12,2.12,0,0,1-.83.15,1.79,1.79,0,0,1-1.13-.34,1.1,1.1,0,0,1-.42-.89,1.12,1.12,0,0,1,.4-.89,2,2,0,0,1,1.28-.34h1.2v-.15a1,1,0,0,0-.28-.75,1.22,1.22,0,0,0-.84-.26,2.18,2.18,0,0,0-.72.13,1.9,1.9,0,0,0-.6.32l-.32-.56a2.17,2.17,0,0,1,.77-.4A3.32,3.32,0,0,1,153.33,534.12Zm-.18,3.68a1.39,1.39,0,0,0,.75-.19,1.08,1.08,0,0,0,.46-.55v-.58h-1.17c-.64,0-1,.21-1,.64a.58.58,0,0,0,.25.5A1.09,1.09,0,0,0,153.15,537.8Zm3.49-5.31h.76v5.85h-.76Zm8.57,1.67v3.61a2.17,2.17,0,0,1-.55,1.62,2.24,2.24,0,0,1-1.62.53,3.81,3.81,0,0,1-1.13-.17,2.25,2.25,0,0,1-.87-.46l.37-.58a2,2,0,0,0,.71.39,2.73,2.73,0,0,0,.89.15,1.47,1.47,0,0,0,1.08-.34,1.42,1.42,0,0,0,.36-1.06v-.33a1.78,1.78,0,0,1-.66.49,2.49,2.49,0,0,1-1.94-.1,1.86,1.86,0,0,1-.75-.72,1.94,1.94,0,0,1-.28-1.05,1.92,1.92,0,0,1,.28-1,1.86,1.86,0,0,1,.75-.72,2.33,2.33,0,0,1,1.09-.25,2.3,2.3,0,0,1,.88.17,1.65,1.65,0,0,1,.67.52v-.65ZM163,537.5a1.57,1.57,0,0,0,.73-.17,1.27,1.27,0,0,0,.7-1.19,1.26,1.26,0,0,0-.4-1,1.6,1.6,0,0,0-2.07,0,1.26,1.26,0,0,0-.4,1,1.41,1.41,0,0,0,.18.71,1.39,1.39,0,0,0,.51.48A1.66,1.66,0,0,0,163,537.5Zm5.27-3.38a1.83,1.83,0,0,1,1.32.43,1.62,1.62,0,0,1,.47,1.27v2.52h-.72v-.55a1.34,1.34,0,0,1-.54.45,2.12,2.12,0,0,1-.83.15,1.79,1.79,0,0,1-1.13-.34,1.1,1.1,0,0,1-.42-.89,1.12,1.12,0,0,1,.4-.89,2,2,0,0,1,1.28-.34h1.2v-.15a1,1,0,0,0-.28-.75,1.22,1.22,0,0,0-.84-.26,2.18,2.18,0,0,0-.72.13,1.9,1.9,0,0,0-.6.32l-.32-.56a2.17,2.17,0,0,1,.77-.4A3.32,3.32,0,0,1,168.3,534.12Zm-.18,3.68a1.39,1.39,0,0,0,.75-.19,1.08,1.08,0,0,0,.46-.55v-.58h-1.17c-.64,0-1,.21-1,.64a.58.58,0,0,0,.25.5A1.11,1.11,0,0,0,168.12,537.8Zm4.69.59a3.64,3.64,0,0,1-1-.14,2.22,2.22,0,0,1-.74-.35l.32-.6a2.31,2.31,0,0,0,.67.31,2.72,2.72,0,0,0,.8.12q1,0,1-.57a.42.42,0,0,0-.13-.3.88.88,0,0,0-.34-.15,4.9,4.9,0,0,0-.57-.12,6.77,6.77,0,0,1-.83-.18,1.3,1.3,0,0,1-.54-.35.93.93,0,0,1-.23-.69,1.05,1.05,0,0,1,.47-.9,2.12,2.12,0,0,1,1.27-.35,3.44,3.44,0,0,1,.84.1,2.24,2.24,0,0,1,.68.28l-.32.6a2.17,2.17,0,0,0-1.21-.33,1.45,1.45,0,0,0-.73.15.48.48,0,0,0-.25.42.39.39,0,0,0,.14.33,1,1,0,0,0,.35.17,5,5,0,0,0,.59.12c.33.06.6.13.81.19a1.28,1.28,0,0,1,.54.34.94.94,0,0,1,.22.66,1,1,0,0,1-.49.9A2.23,2.23,0,0,1,172.81,538.39Zm9.06-5.9v5.85h-.73v-.66a1.59,1.59,0,0,1-.63.52,1.9,1.9,0,0,1-.86.19,2.16,2.16,0,0,1-1.08-.27,1.89,1.89,0,0,1-.76-.75,2.29,2.29,0,0,1-.27-1.12,2.23,2.23,0,0,1,.27-1.11,1.89,1.89,0,0,1,.76-.75,2.16,2.16,0,0,1,1.08-.27,2.05,2.05,0,0,1,.83.17,1.61,1.61,0,0,1,.63.5v-2.3Zm-2.15,5.23a1.41,1.41,0,0,0,.71-.18,1.28,1.28,0,0,0,.51-.52,1.74,1.74,0,0,0,0-1.54,1.28,1.28,0,0,0-.51-.52,1.41,1.41,0,0,0-.71-.18,1.49,1.49,0,0,0-.73.18,1.32,1.32,0,0,0-.5.52,1.74,1.74,0,0,0,0,1.54,1.32,1.32,0,0,0,.5.52A1.49,1.49,0,0,0,179.72,537.72Zm7.48-1.45a2,2,0,0,1,0,.23H183.8a1.26,1.26,0,0,0,.48.89,1.61,1.61,0,0,0,1,.33,1.55,1.55,0,0,0,1.21-.5l.41.49a1.73,1.73,0,0,1-.71.5,2.3,2.3,0,0,1-.93.18,2.48,2.48,0,0,1-1.18-.27,2,2,0,0,1-.8-.77,2.21,2.21,0,0,1-.27-1.1,2.24,2.24,0,0,1,.27-1.1,1.87,1.87,0,0,1,.75-.75,2.07,2.07,0,0,1,1.08-.28,2,2,0,0,1,1.06.28,1.76,1.76,0,0,1,.73.75A2.29,2.29,0,0,1,187.2,536.27Zm-2.06-1.51a1.28,1.28,0,0,0-1.34,1.2h2.68a1.33,1.33,0,0,0-.44-.86A1.25,1.25,0,0,0,185.14,534.76Zm8.46-.64a1.66,1.66,0,0,1,1.25.46,1.8,1.8,0,0,1,.47,1.35v2.41h-.76V536a1.34,1.34,0,0,0-.28-.91,1,1,0,0,0-.8-.31,1.21,1.21,0,0,0-.92.36,1.47,1.47,0,0,0-.34,1v2.15h-.75V536a1.29,1.29,0,0,0-.29-.91,1,1,0,0,0-.79-.31,1.21,1.21,0,0,0-.92.36,1.47,1.47,0,0,0-.34,1v2.15h-.75v-4.18h.72v.62a1.45,1.45,0,0,1,.6-.49,2.08,2.08,0,0,1,.85-.17,1.85,1.85,0,0,1,.86.2,1.41,1.41,0,0,1,.59.57,1.58,1.58,0,0,1,.65-.57A2.24,2.24,0,0,1,193.6,534.12Zm4.75,0a1.87,1.87,0,0,1,1.33.43,1.62,1.62,0,0,1,.46,1.27v2.52h-.71v-.55a1.3,1.3,0,0,1-.55.45,2.05,2.05,0,0,1-.83.15,1.78,1.78,0,0,1-1.12-.34,1.1,1.1,0,0,1-.42-.89,1.09,1.09,0,0,1,.4-.89,2,2,0,0,1,1.28-.34h1.2v-.15a1,1,0,0,0-.29-.75,1.2,1.2,0,0,0-.83-.26,2.29,2.29,0,0,0-.73.13,2.14,2.14,0,0,0-.6.32l-.31-.56a2.09,2.09,0,0,1,.77-.4A3.31,3.31,0,0,1,198.35,534.12Zm-.17,3.68a1.39,1.39,0,0,0,.75-.19,1.13,1.13,0,0,0,.46-.55v-.58h-1.17c-.64,0-1,.21-1,.64a.59.59,0,0,0,.24.5A1.14,1.14,0,0,0,198.18,537.8Zm5.72-3.68a1.7,1.7,0,0,1,1.26.46,1.79,1.79,0,0,1,.47,1.35v2.41h-.75V536a1.29,1.29,0,0,0-.29-.91,1.1,1.1,0,0,0-.84-.31,1.31,1.31,0,0,0-1,.36,1.38,1.38,0,0,0-.35,1v2.15h-.76v-4.18h.72v.63a1.53,1.53,0,0,1,.62-.5A2.28,2.28,0,0,1,203.9,534.12Zm7.22-1.63v5.85h-.72v-.66a1.62,1.62,0,0,1-.64.52,1.86,1.86,0,0,1-.85.19,2.18,2.18,0,0,1-1.09-.27,2,2,0,0,1-.76-.75,2.4,2.4,0,0,1-.26-1.12,2.33,2.33,0,0,1,.26-1.11,2,2,0,0,1,.76-.75,2.18,2.18,0,0,1,1.09-.27,2.09,2.09,0,0,1,.83.17,1.61,1.61,0,0,1,.63.5v-2.3ZM209,537.72a1.45,1.45,0,0,0,.72-.18,1.25,1.25,0,0,0,.5-.52,1.66,1.66,0,0,0,0-1.54,1.25,1.25,0,0,0-.5-.52,1.45,1.45,0,0,0-.72-.18,1.35,1.35,0,0,0-1.23.7,1.74,1.74,0,0,0,0,1.54,1.35,1.35,0,0,0,1.23.7ZM140.49,545a1.83,1.83,0,0,1,1.32.43,1.6,1.6,0,0,1,.47,1.27v2.52h-.72v-.55a1.21,1.21,0,0,1-.54.45,2.09,2.09,0,0,1-.83.15,1.75,1.75,0,0,1-1.13-.34,1.09,1.09,0,0,1-.42-.89,1.08,1.08,0,0,1,.41-.88,1.93,1.93,0,0,1,1.27-.34h1.2v-.15a1,1,0,0,0-.28-.75,1.18,1.18,0,0,0-.84-.26,2.22,2.22,0,0,0-.72.12,1.73,1.73,0,0,0-.6.33l-.32-.57a2.4,2.4,0,0,1,.78-.4A3.26,3.26,0,0,1,140.49,545Zm-.17,3.68a1.49,1.49,0,0,0,.75-.18,1.13,1.13,0,0,0,.45-.56v-.58h-1.16c-.65,0-1,.22-1,.65a.58.58,0,0,0,.25.49A1.12,1.12,0,0,0,140.32,548.64Zm4.68.59a3.52,3.52,0,0,1-1-.14,2,2,0,0,1-.74-.35l.31-.6a2.45,2.45,0,0,0,.67.32,3.09,3.09,0,0,0,.8.11c.66,0,1-.19,1-.56a.35.35,0,0,0-.13-.3.72.72,0,0,0-.34-.16,4.48,4.48,0,0,0-.57-.12,5.3,5.3,0,0,1-.83-.18,1.21,1.21,0,0,1-.54-.35,1,1,0,0,1-.23-.68,1.08,1.08,0,0,1,.47-.91,2.12,2.12,0,0,1,1.27-.35,4,4,0,0,1,.84.1,2.28,2.28,0,0,1,.68.28l-.32.6a2.17,2.17,0,0,0-1.21-.33,1.34,1.34,0,0,0-.73.16.46.46,0,0,0-.25.41.42.42,0,0,0,.14.33,1,1,0,0,0,.35.17l.59.13a5.46,5.46,0,0,1,.81.19,1.17,1.17,0,0,1,.54.33.92.92,0,0,1,.22.66,1.05,1.05,0,0,1-.49.91A2.3,2.3,0,0,1,145,549.23Zm6.91,0a2.19,2.19,0,0,1-1.12-.28,2,2,0,0,1-.78-.75,2.18,2.18,0,0,1-.28-1.11A2.08,2.08,0,0,1,150,546a2,2,0,0,1,.78-.76,2.36,2.36,0,0,1,2.23,0,1.88,1.88,0,0,1,.77.76,2.09,2.09,0,0,1,.29,1.09,2.19,2.19,0,0,1-.29,1.11,1.92,1.92,0,0,1-.77.75A2.18,2.18,0,0,1,151.91,549.23Zm0-.66a1.34,1.34,0,0,0,.72-.19,1.26,1.26,0,0,0,.5-.52,1.59,1.59,0,0,0,.18-.77,1.55,1.55,0,0,0-.18-.76,1.26,1.26,0,0,0-.5-.52,1.43,1.43,0,0,0-.72-.19,1.5,1.5,0,0,0-.73.19,1.32,1.32,0,0,0-.5.52,1.55,1.55,0,0,0-.18.76,1.59,1.59,0,0,0,.18.77,1.32,1.32,0,0,0,.5.52A1.4,1.4,0,0,0,151.91,548.57Zm4.87-4.66c-.45,0-.68.24-.68.73V545h1.21v.62h-1.19v3.56h-.76v-3.56h-.71V545h.71v-.37a1.33,1.33,0,0,1,.36-1,1.35,1.35,0,0,1,1-.37,1.45,1.45,0,0,1,.47.07,1.11,1.11,0,0,1,.38.18l-.23.57A.94.94,0,0,0,156.78,543.91Zm4.51.44v1.92h2.77V547h-2.77v2.23h-.79v-5.52h3.9v.69Zm7.88,2.77s0,.13,0,.22h-3.39a1.34,1.34,0,0,0,.48.89,1.56,1.56,0,0,0,1,.34,1.54,1.54,0,0,0,1.21-.51l.42.49a1.8,1.8,0,0,1-.71.5,2.35,2.35,0,0,1-.94.18,2.46,2.46,0,0,1-1.17-.27,2,2,0,0,1-.8-.76,2.29,2.29,0,0,1-.28-1.11,2.2,2.2,0,0,1,.27-1.09,2,2,0,0,1,.75-.76,2.07,2.07,0,0,1,1.08-.28,2,2,0,0,1,1.07.28,1.85,1.85,0,0,1,.73.76A2.24,2.24,0,0,1,169.17,547.12Zm-2.07-1.52a1.3,1.3,0,0,0-1.34,1.2h2.68a1.34,1.34,0,0,0-.43-.86A1.27,1.27,0,0,0,167.1,545.6Zm5.46-.64a2.23,2.23,0,0,1,1.09.27,1.84,1.84,0,0,1,.74.75,2.13,2.13,0,0,1,.28,1.11,2.17,2.17,0,0,1-.28,1.12,1.84,1.84,0,0,1-.74.75,2.23,2.23,0,0,1-1.09.27,2,2,0,0,1-.85-.18,1.65,1.65,0,0,1-.64-.53v.66h-.73v-5.85h.76v2.3a1.59,1.59,0,0,1,.63-.49A1.9,1.9,0,0,1,172.56,545Zm-.07,3.61a1.34,1.34,0,0,0,.72-.19,1.22,1.22,0,0,0,.51-.52,1.6,1.6,0,0,0,.19-.77,1.56,1.56,0,0,0-.19-.76,1.22,1.22,0,0,0-.51-.52,1.44,1.44,0,0,0-1.43,0,1.22,1.22,0,0,0-.51.52,1.55,1.55,0,0,0-.18.76,1.59,1.59,0,0,0,.18.77,1.22,1.22,0,0,0,.51.52A1.33,1.33,0,0,0,172.49,548.57Zm7-4.91v5.52h-.78v-4.83h-1.24v-.69Zm2.91,2.2a2.75,2.75,0,0,1,1.74.45,1.48,1.48,0,0,1,.56,1.22,1.66,1.66,0,0,1-.24.88,1.56,1.56,0,0,1-.7.61,2.65,2.65,0,0,1-1.15.22,3.56,3.56,0,0,1-1.13-.17,2.6,2.6,0,0,1-.9-.5l.36-.62a2.08,2.08,0,0,0,.73.43,2.6,2.6,0,0,0,.93.16,1.52,1.52,0,0,0,1-.26.87.87,0,0,0,.35-.72.85.85,0,0,0-.38-.75,2.34,2.34,0,0,0-1.3-.26h-1.25l.29-2.89h3.12v.69H181.9l-.15,1.51Z" transform="translate(-138.18 -201.72)"/><path class="cls-6" d="M144.88,269.64v5.52h-.56v-4.42l-2.17,3.71h-.27l-2.17-3.69v4.4h-.56v-5.52h.48l2.4,4.09,2.37-4.09Zm1.81,1.37h.56v4.15h-.56Zm.28-.91a.38.38,0,0,1-.29-.12.39.39,0,0,1,0-.56.41.41,0,0,1,.58,0,.37.37,0,0,1,.12.27.41.41,0,0,1-.41.41ZM151,271a1.7,1.7,0,0,1,1.24.45,1.75,1.75,0,0,1,.46,1.32v2.41h-.56v-2.35a1.36,1.36,0,0,0-.32-1,1.2,1.2,0,0,0-.92-.34,1.43,1.43,0,0,0-1.07.4,1.55,1.55,0,0,0-.38,1.1v2.18h-.56V271h.53v.76a1.67,1.67,0,0,1,.63-.58A2.08,2.08,0,0,1,151,271Zm3.35,0H155v4.15h-.56Zm.28-.91a.38.38,0,0,1-.29-.12.39.39,0,0,1,0-.56.41.41,0,0,1,.58,0,.37.37,0,0,1,.12.27.41.41,0,0,1-.41.41Zm7.13.88a1.62,1.62,0,0,1,1.22.45,1.79,1.79,0,0,1,.45,1.32v2.41h-.56v-2.35a1.4,1.4,0,0,0-.31-1,1.12,1.12,0,0,0-.88-.34,1.32,1.32,0,0,0-1,.4,1.59,1.59,0,0,0-.37,1.1v2.18h-.56v-2.35a1.4,1.4,0,0,0-.31-1,1.12,1.12,0,0,0-.88-.34,1.32,1.32,0,0,0-1,.4,1.54,1.54,0,0,0-.37,1.1v2.18h-.56V271h.53v.75a1.57,1.57,0,0,1,.62-.58,1.88,1.88,0,0,1,.91-.2,1.7,1.7,0,0,1,.89.22,1.32,1.32,0,0,1,.58.65,1.67,1.67,0,0,1,.65-.64A2.13,2.13,0,0,1,161.8,271Zm7,0v4.15h-.53v-.76a1.57,1.57,0,0,1-.61.59,1.82,1.82,0,0,1-.88.21,1.61,1.61,0,0,1-1.76-1.79V271h.56v2.35a1.36,1.36,0,0,0,.33,1,1.19,1.19,0,0,0,.92.34,1.36,1.36,0,0,0,1-.39,1.54,1.54,0,0,0,.38-1.12V271Zm6.87,0a1.64,1.64,0,0,1,1.22.45,1.79,1.79,0,0,1,.45,1.32v2.41h-.56v-2.35a1.4,1.4,0,0,0-.32-1,1.09,1.09,0,0,0-.87-.34,1.32,1.32,0,0,0-1,.4,1.54,1.54,0,0,0-.37,1.1v2.18h-.56v-2.35a1.4,1.4,0,0,0-.32-1,1.11,1.11,0,0,0-.88-.34,1.33,1.33,0,0,0-1,.4,1.59,1.59,0,0,0-.37,1.1v2.18h-.56V271h.54v.75a1.55,1.55,0,0,1,.61-.58,1.93,1.93,0,0,1,.91-.2,1.72,1.72,0,0,1,.9.22,1.32,1.32,0,0,1,.58.65,1.67,1.67,0,0,1,.65-.64A2.13,2.13,0,0,1,175.72,271Zm5.61-1.34h.59v5H185v.51h-3.68Zm9.38,0v5.52h-.48l-3.55-4.48v4.48h-.58v-5.52h.48l3.56,4.47v-4.47Zm5.82,2.76h.56v2.1a2.68,2.68,0,0,1-.92.52,3.4,3.4,0,0,1-1.11.18,3.07,3.07,0,0,1-1.49-.36,2.7,2.7,0,0,1-1-1,2.92,2.92,0,0,1,0-2.88,2.66,2.66,0,0,1,1-1,3.08,3.08,0,0,1,1.5-.36,3.32,3.32,0,0,1,1.16.2,2.28,2.28,0,0,1,.89.59l-.36.38a2.26,2.26,0,0,0-1.67-.65,2.47,2.47,0,0,0-1.21.3,2.16,2.16,0,0,0-.85.82,2.29,2.29,0,0,0-.3,1.17,2.19,2.19,0,0,0,1.15,2,2.43,2.43,0,0,0,1.2.3,2.46,2.46,0,0,0,1.45-.42Zm5.85-1.42a1.73,1.73,0,0,1,1.25.41,1.52,1.52,0,0,1,.43,1.19v2.58h-.54v-.65a1.28,1.28,0,0,1-.55.5,2,2,0,0,1-.87.19,1.73,1.73,0,0,1-1.11-.34,1.13,1.13,0,0,1,0-1.72,1.87,1.87,0,0,1,1.22-.33h1.32v-.25a1,1,0,0,0-.3-.81,1.21,1.21,0,0,0-.87-.28,2.13,2.13,0,0,0-.76.13,1.79,1.79,0,0,0-.62.35l-.26-.41a2.14,2.14,0,0,1,.76-.41A2.92,2.92,0,0,1,202.38,271Zm-.2,3.77a1.54,1.54,0,0,0,.82-.21,1.37,1.37,0,0,0,.5-.63v-.68h-1.3c-.71,0-1.06.25-1.06.74a.7.7,0,0,0,.27.58A1.33,1.33,0,0,0,202.18,274.75Zm5.64-3.77a1.7,1.7,0,0,1,1.24.45,1.75,1.75,0,0,1,.46,1.32v2.41H209v-2.35a1.4,1.4,0,0,0-.32-1,1.2,1.2,0,0,0-.92-.34,1.42,1.42,0,0,0-1.07.4,1.51,1.51,0,0,0-.39,1.1v2.18h-.56V271h.54v.76a1.54,1.54,0,0,1,.63-.58A2.08,2.08,0,0,1,207.82,271ZM215,269.3v5.86h-.54v-.82a1.69,1.69,0,0,1-.67.63,1.89,1.89,0,0,1-.93.23,2.12,2.12,0,0,1-1.06-.27,2,2,0,0,1-.74-.75,2.21,2.21,0,0,1-.27-1.1A2.18,2.18,0,0,1,211,272a1.91,1.91,0,0,1,.74-.75,2.22,2.22,0,0,1,1.06-.26,2,2,0,0,1,.91.21,1.78,1.78,0,0,1,.67.61v-2.5Zm-2.09,5.4a1.62,1.62,0,0,0,.78-.2,1.51,1.51,0,0,0,.55-.57,1.81,1.81,0,0,0,.2-.85,1.77,1.77,0,0,0-.2-.84,1.38,1.38,0,0,0-.55-.57,1.51,1.51,0,0,0-.78-.2,1.53,1.53,0,0,0-.8.2,1.38,1.38,0,0,0-.55.57,1.77,1.77,0,0,0-.2.84,1.81,1.81,0,0,0,.2.85,1.51,1.51,0,0,0,.55.57A1.64,1.64,0,0,0,212.88,274.7ZM140.73,286a2.16,2.16,0,0,1-1.08-.27,2,2,0,0,1-.76-.76,2.24,2.24,0,0,1,0-2.17,2,2,0,0,1,.76-.75,2.29,2.29,0,0,1,2.16,0,1.93,1.93,0,0,1,.75.75,2.32,2.32,0,0,1,0,2.17,2,2,0,0,1-.75.76A2.16,2.16,0,0,1,140.73,286Zm0-.5a1.52,1.52,0,0,0,.79-.2,1.38,1.38,0,0,0,.55-.57,2,2,0,0,0,0-1.69,1.38,1.38,0,0,0-.55-.57,1.68,1.68,0,0,0-1.59,0,1.38,1.38,0,0,0-.55.57,1.89,1.89,0,0,0,0,1.69,1.38,1.38,0,0,0,.55.57A1.53,1.53,0,0,0,140.73,285.54Zm5.55.21a1.21,1.21,0,0,1-.39.22,1.85,1.85,0,0,1-.48.07,1.22,1.22,0,0,1-.9-.32,1.2,1.2,0,0,1-.32-.89v-2.51h-.74v-.47h.74v-.91h.56v.91H146v.47h-1.26v2.48a.81.81,0,0,0,.18.57.77.77,0,0,0,.54.19.88.88,0,0,0,.33-.06.9.9,0,0,0,.29-.16Zm3.26-3.93a1.67,1.67,0,0,1,1.24.46,1.74,1.74,0,0,1,.46,1.31V286h-.56v-2.35a1.42,1.42,0,0,0-.32-1,1.24,1.24,0,0,0-.92-.34,1.42,1.42,0,0,0-1.07.41,1.46,1.46,0,0,0-.38,1.09V286h-.56v-5.85H148v2.43a1.43,1.43,0,0,1,.63-.56A1.92,1.92,0,0,1,149.54,281.82Zm7,2.28H153a1.5,1.5,0,0,0,.5,1,1.67,1.67,0,0,0,1.13.39,1.8,1.8,0,0,0,.71-.13,1.54,1.54,0,0,0,.56-.41l.32.36a1.73,1.73,0,0,1-.69.5,2.27,2.27,0,0,1-.91.18,2.34,2.34,0,0,1-1.14-.27,2,2,0,0,1-.76-.76,2.08,2.08,0,0,1-.28-1.09,2.27,2.27,0,0,1,.26-1.08,2,2,0,0,1,.73-.75,2,2,0,0,1,1-.27,2,2,0,0,1,1,.27,1.86,1.86,0,0,1,.72.75,2.21,2.21,0,0,1,.26,1.08Zm-2-1.8a1.4,1.4,0,0,0-1,.39,1.49,1.49,0,0,0-.46,1H156a1.45,1.45,0,0,0-.46-1A1.4,1.4,0,0,0,154.51,282.3Zm3.81.36a1.32,1.32,0,0,1,.58-.63,2.07,2.07,0,0,1,1-.21v.54h-.13a1.33,1.33,0,0,0-1,.4,1.63,1.63,0,0,0-.37,1.13V286h-.56v-4.15h.54Zm6.05,3.38a3.45,3.45,0,0,1-1-.14,2.42,2.42,0,0,1-.72-.37l.25-.45a2.28,2.28,0,0,0,.66.34,2.51,2.51,0,0,0,.82.13,1.65,1.65,0,0,0,.84-.17.59.59,0,0,0,.27-.51.43.43,0,0,0-.15-.35.86.86,0,0,0-.38-.2,5.49,5.49,0,0,0-.6-.14,8.33,8.33,0,0,1-.82-.18,1.31,1.31,0,0,1-.52-.34.92.92,0,0,1-.22-.66,1,1,0,0,1,.44-.85,1.94,1.94,0,0,1,1.2-.33,3.22,3.22,0,0,1,.81.11,2.12,2.12,0,0,1,.66.28l-.25.44a2.11,2.11,0,0,0-1.22-.35,1.38,1.38,0,0,0-.81.19.58.58,0,0,0-.27.5.48.48,0,0,0,.15.37,1.07,1.07,0,0,0,.39.22l.63.13a7.41,7.41,0,0,1,.8.19,1.14,1.14,0,0,1,.51.32.92.92,0,0,1,.21.63,1,1,0,0,1-.46.87A2.14,2.14,0,0,1,164.37,286Zm5-.29a1.21,1.21,0,0,1-.39.22,1.85,1.85,0,0,1-.48.07,1.22,1.22,0,0,1-.9-.32,1.2,1.2,0,0,1-.32-.89v-2.51h-.74v-.47h.74v-.91h.56v.91h1.27v.47h-1.27v2.48a.77.77,0,0,0,.19.57.73.73,0,0,0,.53.19.88.88,0,0,0,.33-.06.9.9,0,0,0,.29-.16Zm2.6-3.93a1.75,1.75,0,0,1,1.24.41,1.56,1.56,0,0,1,.44,1.2V286h-.54v-.65a1.26,1.26,0,0,1-.56.51,1.93,1.93,0,0,1-.87.18,1.7,1.7,0,0,1-1.1-.33,1.09,1.09,0,0,1-.41-.88,1.08,1.08,0,0,1,.38-.85,1.86,1.86,0,0,1,1.22-.32h1.32v-.26a1.06,1.06,0,0,0-.3-.81,1.22,1.22,0,0,0-.88-.28,2.21,2.21,0,0,0-.76.13,1.91,1.91,0,0,0-.62.36l-.25-.42a2.06,2.06,0,0,1,.76-.41A2.83,2.83,0,0,1,172,281.82Zm-.2,3.78a1.4,1.4,0,0,0,.81-.22,1.24,1.24,0,0,0,.51-.63v-.68h-1.3c-.71,0-1.07.25-1.07.75a.67.67,0,0,0,.28.57A1.24,1.24,0,0,0,171.82,285.6Zm5.7.15a1.21,1.21,0,0,1-.39.22,1.85,1.85,0,0,1-.48.07,1.22,1.22,0,0,1-.9-.32,1.19,1.19,0,0,1-.31-.89v-2.51h-.75v-.47h.75v-.91H176v.91h1.26v.47H176v2.48a.81.81,0,0,0,.18.57.73.73,0,0,0,.53.19.88.88,0,0,0,.33-.06.9.9,0,0,0,.29-.16Zm4.61-1.65h-3.47a1.5,1.5,0,0,0,.5,1,1.68,1.68,0,0,0,1.14.39,1.87,1.87,0,0,0,.71-.13,1.59,1.59,0,0,0,.55-.41l.32.36a1.67,1.67,0,0,1-.69.5,2.27,2.27,0,0,1-.91.18,2.37,2.37,0,0,1-1.14-.27,2,2,0,0,1-.76-.76,2.18,2.18,0,0,1-.28-1.09,2.27,2.27,0,0,1,.26-1.08,2,2,0,0,1,.73-.75,2,2,0,0,1,1-.27,2,2,0,0,1,1,.27,1.86,1.86,0,0,1,.72.75,2.21,2.21,0,0,1,.26,1.08Zm-2-1.8a1.4,1.4,0,0,0-1,.39,1.49,1.49,0,0,0-.46,1h2.94a1.45,1.45,0,0,0-.46-1A1.4,1.4,0,0,0,180.13,282.3Zm9.07,1.8h-3.47a1.5,1.5,0,0,0,.5,1,1.67,1.67,0,0,0,1.13.39,1.8,1.8,0,0,0,.71-.13,1.54,1.54,0,0,0,.56-.41l.32.36a1.73,1.73,0,0,1-.69.5,2.27,2.27,0,0,1-.91.18,2.34,2.34,0,0,1-1.14-.27,2,2,0,0,1-.76-.76,2.08,2.08,0,0,1-.28-1.09,2.27,2.27,0,0,1,.26-1.08,2,2,0,0,1,.73-.75,2,2,0,0,1,1-.27,2,2,0,0,1,1,.27,1.86,1.86,0,0,1,.72.75,2.21,2.21,0,0,1,.26,1.08Zm-2-1.8a1.4,1.4,0,0,0-1,.39,1.49,1.49,0,0,0-.46,1h2.94a1.45,1.45,0,0,0-.46-1A1.4,1.4,0,0,0,187.2,282.3ZM193,286l-1.32-1.74L190.36,286h-.63l1.64-2.13-1.56-2h.63l1.24,1.62,1.25-1.62h.61l-1.56,2,1.66,2.13Zm3.83-4.18a2.12,2.12,0,0,1,1.06.27,1.88,1.88,0,0,1,.74.74,2.18,2.18,0,0,1,.27,1.09,2.23,2.23,0,0,1-.27,1.11,2,2,0,0,1-.74.75,2.19,2.19,0,0,1-1.06.26,1.94,1.94,0,0,1-.91-.21,1.78,1.78,0,0,1-.67-.61v2.31h-.56v-5.68h.54v.82a1.81,1.81,0,0,1,.66-.63A2,2,0,0,1,196.83,281.82Zm0,3.72a1.52,1.52,0,0,0,.79-.2,1.32,1.32,0,0,0,.55-.57,1.7,1.7,0,0,0,.21-.85,1.63,1.63,0,0,0-.21-.83,1.4,1.4,0,0,0-.55-.58,1.63,1.63,0,0,0-.79-.2,1.67,1.67,0,0,0-.8.2,1.54,1.54,0,0,0-.55.58,1.73,1.73,0,0,0-.2.83,1.81,1.81,0,0,0,.2.85,1.44,1.44,0,0,0,.55.57A1.56,1.56,0,0,0,196.79,285.54Zm5.07.5a2.16,2.16,0,0,1-1.08-.27A1.92,1.92,0,0,1,200,285a2.24,2.24,0,0,1,0-2.17,1.89,1.89,0,0,1,.76-.75,2.3,2.3,0,0,1,2.16,0,1.93,1.93,0,0,1,.75.75,2.32,2.32,0,0,1,0,2.17,2,2,0,0,1-.75.76A2.16,2.16,0,0,1,201.86,286Zm0-.5a1.46,1.46,0,0,0,.78-.2,1.34,1.34,0,0,0,.56-.57,2,2,0,0,0,0-1.69,1.34,1.34,0,0,0-.56-.57,1.56,1.56,0,0,0-.78-.2,1.64,1.64,0,0,0-.8.2,1.38,1.38,0,0,0-.55.57,1.89,1.89,0,0,0,0,1.69,1.38,1.38,0,0,0,.55.57A1.53,1.53,0,0,0,201.86,285.54Zm3.9-2.88a1.39,1.39,0,0,1,.59-.63,2,2,0,0,1,1-.21v.54h-.14a1.32,1.32,0,0,0-1,.4,1.59,1.59,0,0,0-.37,1.13V286h-.56v-4.15h.53Zm5.06,3.09a1.39,1.39,0,0,1-.4.22,1.85,1.85,0,0,1-.48.07,1.22,1.22,0,0,1-.9-.32,1.19,1.19,0,0,1-.31-.89v-2.51H208v-.47h.75v-.91h.56v.91h1.26v.47h-1.26v2.48a.81.81,0,0,0,.18.57.73.73,0,0,0,.53.19.88.88,0,0,0,.33-.06.81.81,0,0,0,.29-.16Zm2.25.29a3.45,3.45,0,0,1-1-.14,2.3,2.3,0,0,1-.72-.37l.25-.45a2.28,2.28,0,0,0,.66.34,2.51,2.51,0,0,0,.82.13,1.65,1.65,0,0,0,.84-.17.59.59,0,0,0,.27-.51.43.43,0,0,0-.15-.35.86.86,0,0,0-.38-.2,5.49,5.49,0,0,0-.6-.14,8.33,8.33,0,0,1-.82-.18,1.31,1.31,0,0,1-.52-.34.92.92,0,0,1-.22-.66,1,1,0,0,1,.44-.85,1.92,1.92,0,0,1,1.2-.33,3.22,3.22,0,0,1,.81.11,2.12,2.12,0,0,1,.66.28l-.25.44a2.11,2.11,0,0,0-1.22-.35,1.38,1.38,0,0,0-.81.19.58.58,0,0,0-.27.5.48.48,0,0,0,.15.37,1.07,1.07,0,0,0,.39.22l.63.13a7.41,7.41,0,0,1,.8.19,1.14,1.14,0,0,1,.51.32.92.92,0,0,1,.21.63,1,1,0,0,1-.46.87A2.14,2.14,0,0,1,213.07,286Z" transform="translate(-138.18 -201.72)"/><path d="M141.29,426.36a2.91,2.91,0,0,1,1.27.25,1.81,1.81,0,0,1,.84.69,2.1,2.1,0,0,1,0,2.13,1.81,1.81,0,0,1-.84.69,3.06,3.06,0,0,1-1.27.24h-1.11v1.52h-1.27v-5.52Zm-.07,3a1.38,1.38,0,0,0,.88-.24.89.89,0,0,0,.3-.71.86.86,0,0,0-.3-.71,1.32,1.32,0,0,0-.88-.26h-1v1.92Zm4.6-1.12a1.32,1.32,0,0,1,.59-.47,2.31,2.31,0,0,1,.86-.15v1.13H147a1.13,1.13,0,0,0-.83.3,1.17,1.17,0,0,0-.3.88v2h-1.23v-4.24h1.18Zm2.31-.56h1.23v4.24h-1.23Zm.61-.59a.79.79,0,0,1-.55-.2.64.64,0,0,1-.21-.49.67.67,0,0,1,.21-.49.78.78,0,0,1,.55-.19.81.81,0,0,1,.56.19.59.59,0,0,1,.21.47.69.69,0,0,1-.21.51A.82.82,0,0,1,148.74,427.05Zm3.9,4.9a2.62,2.62,0,0,1-1.2-.28,2.08,2.08,0,0,1-.83-.78,2.28,2.28,0,0,1,0-2.26,2,2,0,0,1,.83-.77,2.5,2.5,0,0,1,1.2-.28,2.47,2.47,0,0,1,1.2.28,2.06,2.06,0,0,1,.83.77,2.16,2.16,0,0,1-.83,3A2.59,2.59,0,0,1,152.64,432Zm0-1a1,1,0,0,0,.78-.32,1.2,1.2,0,0,0,.3-.86,1.18,1.18,0,0,0-.3-.85,1,1,0,0,0-.78-.32,1,1,0,0,0-.78.32,1.18,1.18,0,0,0-.31.85,1.21,1.21,0,0,0,.31.86A1.06,1.06,0,0,0,152.64,430.94Zm4.45-2.74a1.38,1.38,0,0,1,.59-.47,2.33,2.33,0,0,1,.87-.15v1.13h-.28a1.13,1.13,0,0,0-.83.3,1.17,1.17,0,0,0-.3.88v2h-1.23v-4.24h1.18Zm2.31-.56h1.23v4.24H159.4Zm.62-.59a.77.77,0,0,1-.55-.2.61.61,0,0,1-.22-.49.64.64,0,0,1,.22-.49.77.77,0,0,1,.55-.19.78.78,0,0,1,.55.19.59.59,0,0,1,.21.47.69.69,0,0,1-.21.51A.79.79,0,0,1,160,427.05Zm4.61,4.63a1.16,1.16,0,0,1-.45.2,2.36,2.36,0,0,1-.55.07,1.65,1.65,0,0,1-1.17-.39,1.48,1.48,0,0,1-.41-1.14v-1.74h-.66v-.95h.66v-1h1.23v1h1.05v.95h-1.05v1.73a.6.6,0,0,0,.13.42.57.57,0,0,0,.4.14.8.8,0,0,0,.49-.16Zm.82-4h1.23v4.24h-1.23Zm.61-.59a.79.79,0,0,1-.55-.2.64.64,0,0,1-.21-.49.67.67,0,0,1,.21-.49.78.78,0,0,1,.55-.19.77.77,0,0,1,.55.19.57.57,0,0,1,.22.47.67.67,0,0,1-.22.51A.77.77,0,0,1,166.06,427.05Zm5.38,3.89v.94h-3.79v-.74l2.16-2.55h-2.1v-.95h3.66v.74l-2.17,2.56Zm5-1.16s0,.12,0,.33h-3.21a1,1,0,0,0,.41.62,1.35,1.35,0,0,0,.8.23,1.68,1.68,0,0,0,.58-.09,1.54,1.54,0,0,0,.49-.32l.65.71a2.19,2.19,0,0,1-1.75.69,2.86,2.86,0,0,1-1.27-.28,2.07,2.07,0,0,1-.85-.78,2.15,2.15,0,0,1-.3-1.13,2.22,2.22,0,0,1,.29-1.12,2,2,0,0,1,.81-.78,2.4,2.4,0,0,1,1.16-.28,2.36,2.36,0,0,1,1.13.27,1.83,1.83,0,0,1,.79.77A2.29,2.29,0,0,1,176.45,429.78Zm-2.2-1.27a1.09,1.09,0,0,0-.7.23,1,1,0,0,0-.35.65h2.09a1,1,0,0,0-.35-.64A1,1,0,0,0,174.25,428.51Zm7.46-2.48v5.85h-1.17v-.49a1.64,1.64,0,0,1-1.33.56,2.16,2.16,0,0,1-1.08-.27,1.88,1.88,0,0,1-.76-.77,2.25,2.25,0,0,1-.28-1.15,2.28,2.28,0,0,1,.28-1.15,1.8,1.8,0,0,1,.76-.76,2.16,2.16,0,0,1,1.08-.27,1.61,1.61,0,0,1,1.27.51V426Zm-2.28,4.91a1,1,0,0,0,.77-.32,1.21,1.21,0,0,0,.31-.86,1.18,1.18,0,0,0-.31-.85,1.1,1.1,0,0,0-1.55,0,1.14,1.14,0,0,0-.31.85,1.16,1.16,0,0,0,.31.86A1,1,0,0,0,179.43,430.94Zm7.08-2.74a1.32,1.32,0,0,1,.59-.47,2.33,2.33,0,0,1,.87-.15v1.13h-.28a1.13,1.13,0,0,0-.83.3,1.17,1.17,0,0,0-.3.88v2h-1.23v-4.24h1.18Zm6.43,1.58s0,.12,0,.33H189.7a1,1,0,0,0,.41.62,1.41,1.41,0,0,0,.81.23,1.72,1.72,0,0,0,.58-.09,1.39,1.39,0,0,0,.48-.32l.66.71a2.2,2.2,0,0,1-1.75.69,2.86,2.86,0,0,1-1.27-.28,2.07,2.07,0,0,1-.85-.78,2.29,2.29,0,0,1,0-2.25,2,2,0,0,1,.81-.78,2.52,2.52,0,0,1,2.29,0,1.89,1.89,0,0,1,.79.77A2.29,2.29,0,0,1,192.94,429.78Zm-2.2-1.27a1.07,1.07,0,0,0-.7.23,1,1,0,0,0-.35.65h2.09a1,1,0,0,0-.35-.64A1,1,0,0,0,190.74,428.51Zm4.57,3.44a4.49,4.49,0,0,1-1-.13,2.88,2.88,0,0,1-.8-.33l.41-.89a2.18,2.18,0,0,0,.69.3,2.69,2.69,0,0,0,.78.12q.78,0,.78-.39a.27.27,0,0,0-.21-.26,3.48,3.48,0,0,0-.65-.14,5.52,5.52,0,0,1-.86-.18,1.33,1.33,0,0,1-.59-.36,1,1,0,0,1-.25-.74,1.16,1.16,0,0,1,.23-.71,1.54,1.54,0,0,1,.68-.49,2.84,2.84,0,0,1,1.06-.17,3.92,3.92,0,0,1,.89.1,2.29,2.29,0,0,1,.74.27l-.41.87a2.46,2.46,0,0,0-1.22-.31,1.19,1.19,0,0,0-.6.11.32.32,0,0,0-.19.28.29.29,0,0,0,.21.28,4.28,4.28,0,0,0,.68.15,7,7,0,0,1,.85.19,1.3,1.3,0,0,1,.58.35,1.05,1.05,0,0,1,.24.73,1.12,1.12,0,0,1-.24.7,1.58,1.58,0,0,1-.69.48A3.12,3.12,0,0,1,195.31,432Zm2.88-4.31h1.23v4.24h-1.23Zm.62-.59a.82.82,0,0,1-.56-.2.64.64,0,0,1-.21-.49.67.67,0,0,1,.21-.49.81.81,0,0,1,.56-.19.78.78,0,0,1,.55.19.59.59,0,0,1,.21.47.69.69,0,0,1-.21.51A.79.79,0,0,1,198.81,427.05Zm6.2-1v5.85h-1.18v-.49a1.6,1.6,0,0,1-1.32.56,2.23,2.23,0,0,1-1.09-.27,2,2,0,0,1-.76-.77,2.35,2.35,0,0,1-.27-1.15,2.38,2.38,0,0,1,.27-1.15,1.92,1.92,0,0,1,.76-.76,2.23,2.23,0,0,1,1.09-.27,1.63,1.63,0,0,1,1.27.51V426Zm-2.29,4.91a1,1,0,0,0,.77-.32,1.16,1.16,0,0,0,.31-.86,1.14,1.14,0,0,0-.31-.85,1,1,0,0,0-.77-.32,1,1,0,0,0-.78.32,1.18,1.18,0,0,0-.31.85,1.21,1.21,0,0,0,.31.86A1.06,1.06,0,0,0,202.72,430.94Zm7.71-1.16s0,.12,0,.33h-3.21a1,1,0,0,0,.41.62,1.41,1.41,0,0,0,.81.23,1.72,1.72,0,0,0,.58-.09,1.61,1.61,0,0,0,.48-.32l.66.71a2.2,2.2,0,0,1-1.75.69,2.83,2.83,0,0,1-1.27-.28,2.1,2.1,0,0,1-.86-.78,2.26,2.26,0,0,1,0-2.25,2,2,0,0,1,.81-.78,2.37,2.37,0,0,1,1.16-.28,2.32,2.32,0,0,1,1.12.27,1.83,1.83,0,0,1,.79.77A2.2,2.2,0,0,1,210.43,429.78Zm-2.2-1.27a1.12,1.12,0,0,0-.71.23,1,1,0,0,0-.34.65h2.09a1,1,0,0,0-1-.88Zm5.72-.93a1.74,1.74,0,0,1,1.27.47,1.89,1.89,0,0,1,.48,1.4v2.43h-1.23v-2.24a1.1,1.1,0,0,0-.22-.75.81.81,0,0,0-.63-.25,1,1,0,0,0-.75.29,1.2,1.2,0,0,0-.27.85v2.1h-1.23v-4.24h1.17v.5a1.6,1.6,0,0,1,.61-.41A2.07,2.07,0,0,1,214,427.58Zm5.73,4.1a1.16,1.16,0,0,1-.45.2,2.43,2.43,0,0,1-.55.07,1.66,1.66,0,0,1-1.18-.39,1.51,1.51,0,0,1-.41-1.14v-1.74h-.65v-.95h.65v-1h1.23v1h1.06v.95h-1.06v1.73a.61.61,0,0,0,.14.42.53.53,0,0,0,.39.14.83.83,0,0,0,.5-.16Zm.81-4h1.23v4.24h-1.23Zm.62-.59a.77.77,0,0,1-.55-.2.61.61,0,0,1-.22-.49.64.64,0,0,1,.22-.49.77.77,0,0,1,.55-.19.78.78,0,0,1,.55.19.59.59,0,0,1,.21.47.69.69,0,0,1-.21.51A.79.79,0,0,1,221.11,427.05Zm3.59.53a2.15,2.15,0,0,1,1.51.47,1.76,1.76,0,0,1,.53,1.41v2.42h-1.15v-.53a1.36,1.36,0,0,1-1.29.6,2,2,0,0,1-.85-.17,1.25,1.25,0,0,1-.55-.46,1.22,1.22,0,0,1-.19-.66,1.13,1.13,0,0,1,.44-.93,2.26,2.26,0,0,1,1.38-.34h1a.76.76,0,0,0-.24-.61,1.07,1.07,0,0,0-.74-.23,2,2,0,0,0-.67.12,1.59,1.59,0,0,0-.55.28l-.44-.86a2.76,2.76,0,0,1,.83-.38A3.71,3.71,0,0,1,224.7,427.58Zm-.1,3.54a1.11,1.11,0,0,0,.56-.14.81.81,0,0,0,.35-.44v-.43h-.84c-.51,0-.76.16-.76.49a.45.45,0,0,0,.18.38A.88.88,0,0,0,224.6,431.12ZM228,426h1.23v5.85H228Zm-87.45,12.39a2.2,2.2,0,0,1,1.51.47,1.76,1.76,0,0,1,.53,1.41v2.43h-1.15v-.53a1.37,1.37,0,0,1-1.29.59,2,2,0,0,1-.85-.17,1.3,1.3,0,0,1-.55-.45,1.28,1.28,0,0,1-.19-.67,1.13,1.13,0,0,1,.44-.93,2.33,2.33,0,0,1,1.38-.34h1a.78.78,0,0,0-.24-.61,1.07,1.07,0,0,0-.74-.22,2,2,0,0,0-.67.11,1.78,1.78,0,0,0-.55.28l-.44-.86a2.76,2.76,0,0,1,.83-.38A3.71,3.71,0,0,1,140.53,438.42Zm-.1,3.54a1.11,1.11,0,0,0,.56-.14.81.81,0,0,0,.35-.44V441h-.84c-.51,0-.76.17-.76.5a.46.46,0,0,0,.18.38A.88.88,0,0,0,140.43,442Zm6-3.54a1.76,1.76,0,0,1,1.27.47,1.91,1.91,0,0,1,.49,1.41v2.43h-1.23v-2.24a1.07,1.07,0,0,0-.23-.75.79.79,0,0,0-.63-.26,1,1,0,0,0-.75.3,1.19,1.19,0,0,0-.27.85v2.1h-1.23v-4.25H145v.5a1.6,1.6,0,0,1,.61-.41A2.07,2.07,0,0,1,146.39,438.42Zm7.36-1.55v5.86h-1.17v-.49a1.66,1.66,0,0,1-1.33.55,2.23,2.23,0,0,1-1.09-.27,1.89,1.89,0,0,1-.75-.76,2.32,2.32,0,0,1-.28-1.16,2.28,2.28,0,0,1,.28-1.15,1.89,1.89,0,0,1,.75-.76,2.23,2.23,0,0,1,1.09-.27,1.61,1.61,0,0,1,1.27.51v-2.06Zm-2.29,4.91a1.06,1.06,0,0,0,.78-.32,1.37,1.37,0,0,0,0-1.71,1.11,1.11,0,0,0-1.56,0,1.37,1.37,0,0,0,0,1.71A1.06,1.06,0,0,0,151.46,441.78Zm8,1a2.58,2.58,0,0,1-1.22-.28,2.21,2.21,0,0,1-.85-.78,2.15,2.15,0,0,1-.3-1.13,2.11,2.11,0,0,1,.3-1.12,2.21,2.21,0,0,1,.85-.78,2.58,2.58,0,0,1,1.22-.28,2.3,2.3,0,0,1,1.17.28,1.67,1.67,0,0,1,.73.8l-.95.51a1,1,0,0,0-1-.58,1.06,1.06,0,0,0-.79.31,1.17,1.17,0,0,0-.32.86,1.15,1.15,0,0,0,.32.86,1.07,1.07,0,0,0,.79.32,1.06,1.06,0,0,0,1-.58l.95.52a1.67,1.67,0,0,1-.73.78A2.31,2.31,0,0,1,159.42,442.79Zm4.7,0a2.54,2.54,0,0,1-1.21-.28,2.1,2.1,0,0,1-1.13-1.91,2.11,2.11,0,0,1,.3-1.12,2.15,2.15,0,0,1,.83-.78,2.73,2.73,0,0,1,2.41,0,2.11,2.11,0,0,1,1.12,1.9,2.15,2.15,0,0,1-.3,1.13,2.12,2.12,0,0,1-.82.78A2.53,2.53,0,0,1,164.12,442.79Zm0-1a1,1,0,0,0,.77-.32,1.33,1.33,0,0,0,0-1.71,1.1,1.1,0,0,0-1.55,0,1.33,1.33,0,0,0,0,1.71A1,1,0,0,0,164.12,441.78Zm8.7-3.36a1.71,1.71,0,0,1,1.26.47,1.88,1.88,0,0,1,.48,1.41v2.43h-1.23v-2.24a1.07,1.07,0,0,0-.22-.75.7.7,0,0,0-.59-.26.85.85,0,0,0-.68.29,1.18,1.18,0,0,0-.26.83v2.13h-1.23v-2.24c0-.67-.26-1-.8-1a.88.88,0,0,0-.68.29,1.18,1.18,0,0,0-.25.83v2.13h-1.23v-4.25h1.17V439a1.61,1.61,0,0,1,.58-.41,2.06,2.06,0,0,1,.76-.14,1.79,1.79,0,0,1,.81.18,1.5,1.5,0,0,1,.58.51,1.75,1.75,0,0,1,.66-.51A2.08,2.08,0,0,1,172.82,438.42Zm8.4,0a1.71,1.71,0,0,1,1.26.47,1.92,1.92,0,0,1,.47,1.41v2.43h-1.23v-2.24a1.12,1.12,0,0,0-.21-.75.73.73,0,0,0-.59-.26.88.88,0,0,0-.69.29,1.18,1.18,0,0,0-.25.83v2.13h-1.23v-2.24c0-.67-.27-1-.81-1a.88.88,0,0,0-.68.29,1.23,1.23,0,0,0-.25.83v2.13h-1.23v-4.25H177V439a1.57,1.57,0,0,1,.57-.41,2.1,2.1,0,0,1,.76-.14,1.79,1.79,0,0,1,.81.18,1.53,1.53,0,0,1,.59.51,1.72,1.72,0,0,1,.65-.51A2.13,2.13,0,0,1,181.22,438.42Zm7.16,2.2s0,.13,0,.33h-3.21a1,1,0,0,0,.42.62,1.29,1.29,0,0,0,.8.23,1.72,1.72,0,0,0,.58-.09,1.39,1.39,0,0,0,.48-.32l.66.71a2.19,2.19,0,0,1-1.75.69,2.73,2.73,0,0,1-1.27-.28,2.07,2.07,0,0,1-.85-.78,2.17,2.17,0,0,1,.8-3,2.52,2.52,0,0,1,2.29,0,2,2,0,0,1,.79.77A2.29,2.29,0,0,1,188.38,440.62Zm-2.2-1.27a1,1,0,0,0-.7.24,1,1,0,0,0-.35.64h2.09a1,1,0,0,0-.35-.64A1,1,0,0,0,186.18,439.35Zm4.32-.31a1.3,1.3,0,0,1,.59-.46,2.13,2.13,0,0,1,.86-.16v1.14a1.66,1.66,0,0,0-.27,0,1.13,1.13,0,0,0-.83.3,1.17,1.17,0,0,0-.3.88v2h-1.23v-4.25h1.18Zm4.32,3.75a2.58,2.58,0,0,1-1.22-.28,2.21,2.21,0,0,1-.85-.78,2.15,2.15,0,0,1-.3-1.13,2.11,2.11,0,0,1,.3-1.12,2.21,2.21,0,0,1,.85-.78,2.58,2.58,0,0,1,1.22-.28,2.3,2.3,0,0,1,1.17.28,1.67,1.67,0,0,1,.73.8l-.95.51a1,1,0,0,0-1-.58,1.06,1.06,0,0,0-.79.31,1.17,1.17,0,0,0-.32.86,1.15,1.15,0,0,0,.32.86,1.07,1.07,0,0,0,.79.32,1.06,1.06,0,0,0,1-.58l.95.52a1.67,1.67,0,0,1-.73.78A2.31,2.31,0,0,1,194.82,442.79Zm2.73-4.31h1.23v4.25h-1.23Zm.62-.59a.73.73,0,0,1-.55-.2.64.64,0,0,1,0-1,.73.73,0,0,1,.55-.2.78.78,0,0,1,.55.19.59.59,0,0,1,.21.47.66.66,0,0,1-.21.51A.75.75,0,0,1,198.17,437.89Zm3.59.53a2.2,2.2,0,0,1,1.51.47,1.79,1.79,0,0,1,.53,1.41v2.43h-1.15v-.53a1.37,1.37,0,0,1-1.29.59,2.09,2.09,0,0,1-.86-.17,1.34,1.34,0,0,1-.54-.45,1.19,1.19,0,0,1-.19-.67,1.13,1.13,0,0,1,.44-.93,2.33,2.33,0,0,1,1.38-.34h1a.78.78,0,0,0-.24-.61,1.07,1.07,0,0,0-.74-.22,2,2,0,0,0-.67.11,1.78,1.78,0,0,0-.55.28l-.44-.86a2.76,2.76,0,0,1,.83-.38A3.71,3.71,0,0,1,201.76,438.42Zm-.1,3.54a1.13,1.13,0,0,0,.56-.14.81.81,0,0,0,.35-.44V441h-.84c-.51,0-.76.17-.76.5a.46.46,0,0,0,.18.38A.88.88,0,0,0,201.66,442Zm3.38-5.09h1.23v5.86H205Z" transform="translate(-138.18 -201.72)"/><path class="cls-6" d="M143.08,483.44v.68h-4V478.6H143v.69h-3.1V481h2.77v.67h-2.77v1.78Zm1.29-5.17h.76v5.85h-.76Zm6.11,3.79c0,.06,0,.13,0,.23h-3.39a1.36,1.36,0,0,0,.48.89,1.61,1.61,0,0,0,1,.33,1.54,1.54,0,0,0,1.21-.51l.42.49a1.93,1.93,0,0,1-.71.51,2.54,2.54,0,0,1-.94.17,2.46,2.46,0,0,1-1.17-.27,2,2,0,0,1-.8-.76,2.25,2.25,0,0,1-.28-1.1,2.21,2.21,0,0,1,.27-1.1,2,2,0,0,1,.75-.76,2.16,2.16,0,0,1,1.08-.27,2.1,2.1,0,0,1,1.07.27,1.85,1.85,0,0,1,.73.76A2.26,2.26,0,0,1,150.48,482.06Zm-2.07-1.52a1.31,1.31,0,0,0-.91.34,1.3,1.3,0,0,0-.43.86h2.68a1.34,1.34,0,0,0-.43-.86A1.31,1.31,0,0,0,148.41,480.54Zm5.06,3.63a2.4,2.4,0,0,1-1.14-.27,2.11,2.11,0,0,1-.78-.76,2.14,2.14,0,0,1-.28-1.1,2.09,2.09,0,0,1,.28-1.1,2,2,0,0,1,.78-.76,2.4,2.4,0,0,1,1.14-.27,2.18,2.18,0,0,1,1,.22,1.74,1.74,0,0,1,.7.67l-.58.37a1.24,1.24,0,0,0-.49-.45,1.37,1.37,0,0,0-.64-.15,1.54,1.54,0,0,0-.75.18,1.34,1.34,0,0,0-.51.52,1.59,1.59,0,0,0-.18.77,1.66,1.66,0,0,0,.18.78,1.39,1.39,0,0,0,.51.51,1.54,1.54,0,0,0,.75.18,1.37,1.37,0,0,0,.64-.15,1.24,1.24,0,0,0,.49-.45l.58.36a1.67,1.67,0,0,1-.7.67A2.06,2.06,0,0,1,153.47,484.17Zm5.21-.29a1.14,1.14,0,0,1-.41.22,1.68,1.68,0,0,1-.5.07,1.33,1.33,0,0,1-1-.34,1.29,1.29,0,0,1-.35-1v-2.29h-.71V480h.71V479h.76V480h1.2v.62h-1.2v2.26a.74.74,0,0,0,.17.52.64.64,0,0,0,.49.18.93.93,0,0,0,.59-.19Zm1.77-3.23a1.24,1.24,0,0,1,.58-.55,2.07,2.07,0,0,1,.94-.19v.73h-.17a1.3,1.3,0,0,0-1,.37,1.41,1.41,0,0,0-.35,1v2.08h-.76V480h.73ZM163,480h.75v4.17H163Zm.37-.81A.55.55,0,0,1,163,479a.5.5,0,0,1-.14-.35.48.48,0,0,1,.14-.34.51.51,0,0,1,.37-.15.49.49,0,0,1,.37.14.43.43,0,0,1,.15.34.49.49,0,0,1-.15.36A.53.53,0,0,1,163.4,479.14Zm3.77,5a2.4,2.4,0,0,1-1.14-.27,2.11,2.11,0,0,1-.78-.76A2.15,2.15,0,0,1,165,482a2.1,2.1,0,0,1,.29-1.1,2,2,0,0,1,.78-.76,2.4,2.4,0,0,1,1.14-.27,2.18,2.18,0,0,1,1,.22,1.74,1.74,0,0,1,.7.67l-.58.37a1.24,1.24,0,0,0-.49-.45,1.38,1.38,0,0,0-.65-.15,1.53,1.53,0,0,0-.74.18,1.34,1.34,0,0,0-.51.52,1.59,1.59,0,0,0-.18.77,1.66,1.66,0,0,0,.18.78,1.39,1.39,0,0,0,.51.51,1.53,1.53,0,0,0,.74.18,1.38,1.38,0,0,0,.65-.15,1.24,1.24,0,0,0,.49-.45l.58.36a1.67,1.67,0,0,1-.7.67A2.06,2.06,0,0,1,167.17,484.17Zm2.46-2.54h2.12v.66h-2.12Zm5.62-1.72a2.28,2.28,0,0,1,1.09.26,1.93,1.93,0,0,1,.75.75,2.36,2.36,0,0,1,0,2.23,1.81,1.81,0,0,1-.75.75,2.18,2.18,0,0,1-1.09.27,2.09,2.09,0,0,1-.83-.17,1.92,1.92,0,0,1-.63-.51v2.16H173V480h.72v.66a1.54,1.54,0,0,1,.64-.52A2,2,0,0,1,175.25,479.91Zm-.06,3.6a1.43,1.43,0,0,0,.72-.18,1.39,1.39,0,0,0,.5-.52,1.54,1.54,0,0,0,.19-.77,1.49,1.49,0,0,0-.19-.77,1.26,1.26,0,0,0-.5-.52,1.43,1.43,0,0,0-.72-.18,1.39,1.39,0,0,0-.72.19,1.29,1.29,0,0,0-.5.51,1.59,1.59,0,0,0-.18.77,1.65,1.65,0,0,0,.18.77,1.39,1.39,0,0,0,.5.52A1.48,1.48,0,0,0,175.19,483.51Zm5.14.66a2.29,2.29,0,0,1-1.12-.27,2.06,2.06,0,0,1-.79-.76,2.24,2.24,0,0,1-.27-1.1,2.19,2.19,0,0,1,.27-1.1,1.93,1.93,0,0,1,.79-.76,2.44,2.44,0,0,1,2.23,0,1.88,1.88,0,0,1,.77.76,2.09,2.09,0,0,1,.28,1.1,2.14,2.14,0,0,1-.28,1.1,2,2,0,0,1-.77.76A2.28,2.28,0,0,1,180.33,484.17Zm0-.66a1.41,1.41,0,0,0,.71-.18,1.34,1.34,0,0,0,.51-.52,1.65,1.65,0,0,0,.18-.77,1.59,1.59,0,0,0-.18-.77,1.22,1.22,0,0,0-.51-.52,1.41,1.41,0,0,0-.71-.18,1.49,1.49,0,0,0-.73.18,1.34,1.34,0,0,0-.51.52,1.59,1.59,0,0,0-.18.77,1.65,1.65,0,0,0,.18.77,1.35,1.35,0,0,0,1.24.7Zm9.54-3.56-1.56,4.17h-.72L186.38,481l-1.22,3.17h-.73L182.88,480h.72l1.21,3.32,1.26-3.32h.64l1.24,3.34,1.24-3.34Zm4.56,2.11c0,.06,0,.13,0,.23H191a1.36,1.36,0,0,0,.48.89,1.61,1.61,0,0,0,1,.33,1.56,1.56,0,0,0,1.21-.51l.42.49a1.93,1.93,0,0,1-.71.51,2.7,2.7,0,0,1-2.12-.1,2,2,0,0,1-.79-.76,2.14,2.14,0,0,1-.28-1.1,2.21,2.21,0,0,1,.27-1.1,1.89,1.89,0,0,1,.75-.76,2.16,2.16,0,0,1,1.08-.27,2.06,2.06,0,0,1,1.06.27,1.87,1.87,0,0,1,.74.76A2.26,2.26,0,0,1,194.43,482.06Zm-2.07-1.52a1.36,1.36,0,0,0-.92.34,1.33,1.33,0,0,0-.42.86h2.68a1.32,1.32,0,0,0-1.34-1.2Zm4,.11a1.24,1.24,0,0,1,.58-.55,2.07,2.07,0,0,1,.94-.19v.73h-.18a1.31,1.31,0,0,0-1,.37,1.45,1.45,0,0,0-.34,1v2.08h-.76V480h.73ZM143,490.79v3.61a2.17,2.17,0,0,1-.55,1.62,2.24,2.24,0,0,1-1.62.52,3.81,3.81,0,0,1-1.13-.16,2.25,2.25,0,0,1-.87-.46l.37-.58a2,2,0,0,0,.71.39,2.73,2.73,0,0,0,.89.15,1.47,1.47,0,0,0,1.08-.34,1.43,1.43,0,0,0,.36-1.06v-.33a1.78,1.78,0,0,1-.66.49,2.49,2.49,0,0,1-1.94-.1,1.86,1.86,0,0,1-.75-.72,2,2,0,0,1-.28-1.05,1.92,1.92,0,0,1,.28-1,1.86,1.86,0,0,1,.75-.72,2.33,2.33,0,0,1,1.09-.25,2.3,2.3,0,0,1,.88.17,1.71,1.71,0,0,1,.67.51v-.64Zm-2.18,3.34a1.57,1.57,0,0,0,.73-.17,1.3,1.3,0,0,0,.71-1.19,1.27,1.27,0,0,0-.41-1,1.6,1.6,0,0,0-2.07,0,1.26,1.26,0,0,0-.4,1,1.41,1.41,0,0,0,.18.71,1.39,1.39,0,0,0,.51.48A1.66,1.66,0,0,0,140.79,494.13Zm7.52-1.23a2,2,0,0,1,0,.23h-3.39a1.28,1.28,0,0,0,.48.89,1.61,1.61,0,0,0,1,.33,1.58,1.58,0,0,0,1.21-.5l.42.49a1.8,1.8,0,0,1-.71.5,2.38,2.38,0,0,1-.94.17,2.5,2.5,0,0,1-1.18-.26,2,2,0,0,1-.79-.77,2.12,2.12,0,0,1-.28-1.1,2.24,2.24,0,0,1,.27-1.1,2,2,0,0,1,.75-.76,2.16,2.16,0,0,1,1.08-.27,2.06,2.06,0,0,1,1.06.27,1.93,1.93,0,0,1,.74.76A2.4,2.4,0,0,1,148.31,492.9Zm-2.06-1.51a1.28,1.28,0,0,0-1.34,1.2h2.68a1.29,1.29,0,0,0-.44-.86A1.25,1.25,0,0,0,146.25,491.39Zm5.47-.64a1.7,1.7,0,0,1,1.26.46,1.79,1.79,0,0,1,.47,1.35V495h-.75v-2.32a1.32,1.32,0,0,0-.29-.92,1.14,1.14,0,0,0-.84-.3,1.31,1.31,0,0,0-1,.36,1.38,1.38,0,0,0-.36,1V495h-.75v-4.18h.72v.63a1.53,1.53,0,0,1,.62-.5A2.28,2.28,0,0,1,151.72,490.75Zm7.06,2.15c0,.06,0,.14,0,.23h-3.39a1.36,1.36,0,0,0,.48.89,1.64,1.64,0,0,0,1,.33,1.55,1.55,0,0,0,1.2-.5l.42.49a1.8,1.8,0,0,1-.71.5,2.35,2.35,0,0,1-.94.17,2.46,2.46,0,0,1-1.17-.26,2,2,0,0,1-.8-.77,2.34,2.34,0,0,1,0-2.2,2.1,2.1,0,0,1,.75-.76,2.16,2.16,0,0,1,1.08-.27,2.1,2.1,0,0,1,1.07.27,1.91,1.91,0,0,1,.73.76A2.29,2.29,0,0,1,158.78,492.9Zm-2.07-1.51a1.31,1.31,0,0,0-.91.33,1.35,1.35,0,0,0-.43.87h2.68a1.28,1.28,0,0,0-.43-.86A1.25,1.25,0,0,0,156.71,491.39Zm4,.1a1.24,1.24,0,0,1,.58-.55,2.07,2.07,0,0,1,.94-.19v.73H162a1.3,1.3,0,0,0-1,.37,1.48,1.48,0,0,0-.35,1.05V495H160v-4.18h.73Zm4.09-.74a1.91,1.91,0,0,1,1.33.42,1.65,1.65,0,0,1,.46,1.27V495h-.72v-.55a1.14,1.14,0,0,1-.54.44,2.09,2.09,0,0,1-.83.15,1.81,1.81,0,0,1-1.13-.33,1.1,1.1,0,0,1-.41-.9,1.08,1.08,0,0,1,.4-.88,2,2,0,0,1,1.28-.34h1.19v-.15a1,1,0,0,0-.28-.75,1.22,1.22,0,0,0-.84-.26,2.28,2.28,0,0,0-.72.13,1.9,1.9,0,0,0-.6.32l-.32-.57a2.38,2.38,0,0,1,.78-.39A3.26,3.26,0,0,1,164.77,490.75Zm-.17,3.68a1.39,1.39,0,0,0,.75-.19,1.07,1.07,0,0,0,.45-.55v-.58h-1.16c-.64,0-1,.21-1,.64a.6.6,0,0,0,.25.5A1.12,1.12,0,0,0,164.6,494.43Zm5.83.29a1,1,0,0,1-.41.22,1.68,1.68,0,0,1-.5.07,1.37,1.37,0,0,1-1-.33,1.3,1.3,0,0,1-.34-1v-2.3h-.71v-.62h.71v-.92H169v.92h1.2v.62H169v2.26a.74.74,0,0,0,.17.52.61.61,0,0,0,.49.19.92.92,0,0,0,.59-.2Zm1-3.93h.76V495h-.76Zm.38-.81a.49.49,0,0,1-.37-.14.48.48,0,0,1-.14-.35.48.48,0,0,1,.14-.34.5.5,0,0,1,.37-.15.49.49,0,0,1,.36.14.43.43,0,0,1,.15.34.49.49,0,0,1-.15.36A.45.45,0,0,1,171.85,490Zm3.74,5a2.29,2.29,0,0,1-1.12-.27,2.2,2.2,0,0,1-.78-3,2,2,0,0,1,.78-.76,2.44,2.44,0,0,1,2.23,0,1.94,1.94,0,0,1,.77.76,2.23,2.23,0,0,1,0,2.2,2,2,0,0,1-.77.76A2.28,2.28,0,0,1,175.59,495Zm0-.66a1.43,1.43,0,0,0,.72-.18,1.39,1.39,0,0,0,.5-.52,1.62,1.62,0,0,0,.18-.77,1.59,1.59,0,0,0-.18-.77,1.32,1.32,0,0,0-.5-.52,1.43,1.43,0,0,0-.72-.18,1.49,1.49,0,0,0-.73.18,1.39,1.39,0,0,0-.5.52,1.59,1.59,0,0,0-.18.77,1.62,1.62,0,0,0,.18.77,1.47,1.47,0,0,0,.5.52A1.49,1.49,0,0,0,175.59,494.35Zm5.57-3.6a1.7,1.7,0,0,1,1.26.46,1.79,1.79,0,0,1,.47,1.35V495h-.75v-2.32a1.32,1.32,0,0,0-.29-.92,1.14,1.14,0,0,0-.84-.3,1.31,1.31,0,0,0-1,.36,1.38,1.38,0,0,0-.36,1V495h-.75v-4.18h.72v.63a1.53,1.53,0,0,1,.62-.5A2.28,2.28,0,0,1,181.16,490.75Z" transform="translate(-138.18 -201.72)"/><path d="M144.21,374.12l-2.39,5.52h-1.26l-2.38-5.52h1.38l1.68,3.94,1.7-3.94Zm.58,1.28H146v4.24h-1.23Zm.61-.59a.79.79,0,0,1-.55-.2.68.68,0,0,1,0-1,.79.79,0,0,1,.55-.2.81.81,0,0,1,.55.19.61.61,0,0,1,.22.48.67.67,0,0,1-.22.51A.77.77,0,0,1,145.4,374.81Zm4.62,4.63a1.56,1.56,0,0,1-.45.2,2.51,2.51,0,0,1-.55.06,1.71,1.71,0,0,1-1.18-.38,1.51,1.51,0,0,1-.41-1.14v-1.74h-.65v-.95h.65v-1h1.23v1h1.06v.95h-1.06v1.73a.6.6,0,0,0,.14.41.5.5,0,0,0,.39.15.85.85,0,0,0,.5-.16Zm2.52-4.11a2.2,2.2,0,0,1,1.52.48,1.79,1.79,0,0,1,.53,1.41v2.42h-1.16v-.53a1.35,1.35,0,0,1-1.29.59,2,2,0,0,1-.85-.16,1.32,1.32,0,0,1-.55-.46,1.23,1.23,0,0,1-.18-.66,1.08,1.08,0,0,1,.44-.93,2.26,2.26,0,0,1,1.38-.34h1a.8.8,0,0,0-.25-.62,1.1,1.1,0,0,0-.73-.22,2.19,2.19,0,0,0-.67.11,1.85,1.85,0,0,0-.56.29l-.44-.86a2.54,2.54,0,0,1,.83-.38A3.77,3.77,0,0,1,152.54,375.33Zm-.09,3.55a1,1,0,0,0,.56-.15.83.83,0,0,0,.35-.43v-.43h-.85c-.5,0-.76.16-.76.49a.44.44,0,0,0,.19.38A.84.84,0,0,0,152.45,378.88Zm3.37-5.09h1.23v5.85h-1.23Zm4.85,1.61h1.23v4.24h-1.23Zm.62-.59a.77.77,0,0,1-.55-.2.66.66,0,0,1,0-1,.77.77,0,0,1,.55-.2.83.83,0,0,1,.55.19.63.63,0,0,1,.21.48.69.69,0,0,1-.21.51A.79.79,0,0,1,161.29,374.81Zm4.46.52a1.73,1.73,0,0,1,1.27.48,1.87,1.87,0,0,1,.49,1.4v2.43h-1.23V377.4a1.07,1.07,0,0,0-.23-.75.78.78,0,0,0-.63-.25,1,1,0,0,0-.75.29,1.19,1.19,0,0,0-.27.85v2.1h-1.23V375.4h1.17v.49a1.87,1.87,0,0,1,.61-.41A2.07,2.07,0,0,1,165.75,375.33Zm7.36-1.54v5.85h-1.17v-.49a1.63,1.63,0,0,1-1.33.55,2.34,2.34,0,0,1-1.09-.26,1.92,1.92,0,0,1-.75-.77,2.5,2.5,0,0,1,0-2.3,1.92,1.92,0,0,1,.75-.77,2.23,2.23,0,0,1,1.09-.27,1.62,1.62,0,0,1,1.27.52v-2.06Zm-2.29,4.9a1.06,1.06,0,0,0,.78-.31,1.22,1.22,0,0,0,.3-.86,1.18,1.18,0,0,0-.3-.85,1.09,1.09,0,0,0-1.56,0,1.18,1.18,0,0,0-.3.85,1.22,1.22,0,0,0,.3.86A1.06,1.06,0,0,0,170.82,378.69Zm7.83-3.29v4.24h-1.17v-.5a1.73,1.73,0,0,1-.58.42,2,2,0,0,1-2.06-.34,1.89,1.89,0,0,1-.49-1.43V375.4h1.23v2.21c0,.69.29,1,.86,1a.94.94,0,0,0,.71-.29,1.2,1.2,0,0,0,.27-.85v-2.1Zm2.69,4.3a4.48,4.48,0,0,1-1-.12,2.88,2.88,0,0,1-.8-.33l.41-.89a2.76,2.76,0,0,0,.69.3,2.67,2.67,0,0,0,.78.11c.52,0,.79-.13.79-.38a.28.28,0,0,0-.22-.26,2.82,2.82,0,0,0-.65-.14,5.52,5.52,0,0,1-.86-.18,1.39,1.39,0,0,1-.59-.36,1,1,0,0,1-.25-.74,1.16,1.16,0,0,1,.23-.71,1.46,1.46,0,0,1,.68-.49,2.83,2.83,0,0,1,1.06-.18,3.87,3.87,0,0,1,.89.11,2.29,2.29,0,0,1,.74.27l-.41.87a2.46,2.46,0,0,0-1.22-.31,1.21,1.21,0,0,0-.6.11.31.31,0,0,0-.19.28.29.29,0,0,0,.21.28,4.28,4.28,0,0,0,.68.15,6.78,6.78,0,0,1,.85.18,1.42,1.42,0,0,1,.58.36,1,1,0,0,1,.24.72,1.13,1.13,0,0,1-.24.71,1.58,1.58,0,0,1-.69.48A3.13,3.13,0,0,1,181.34,379.7Zm5.62-.26a1.56,1.56,0,0,1-.45.2,2.44,2.44,0,0,1-.55.06,1.71,1.71,0,0,1-1.18-.38,1.51,1.51,0,0,1-.41-1.14v-1.74h-.65v-.95h.65v-1h1.23v1h1.06v.95H185.6v1.73a.6.6,0,0,0,.14.41.5.5,0,0,0,.39.15.83.83,0,0,0,.5-.16Zm2-3.48a1.32,1.32,0,0,1,.59-.47,2.33,2.33,0,0,1,.87-.16v1.14l-.28,0a1.13,1.13,0,0,0-.83.3,1.2,1.2,0,0,0-.3.89v2h-1.23V375.4H189Zm2.31-.56h1.23v4.24h-1.23Zm.62-.59a.82.82,0,0,1-.56-.2.68.68,0,0,1,0-1,.82.82,0,0,1,.56-.2.83.83,0,0,1,.55.19.63.63,0,0,1,.21.48.69.69,0,0,1-.21.51A.79.79,0,0,1,191.88,374.81Zm3.59.52a2.17,2.17,0,0,1,1.51.48,1.79,1.79,0,0,1,.53,1.41v2.42h-1.15v-.53a1.35,1.35,0,0,1-1.29.59,2.06,2.06,0,0,1-.86-.16,1.36,1.36,0,0,1-.54-.46,1.16,1.16,0,0,1-.19-.66,1.1,1.1,0,0,1,.44-.93,2.26,2.26,0,0,1,1.38-.34h1a.8.8,0,0,0-.24-.62,1.13,1.13,0,0,0-.74-.22,2.24,2.24,0,0,0-.67.11,1.8,1.8,0,0,0-.55.29l-.44-.86a2.44,2.44,0,0,1,.83-.38A3.72,3.72,0,0,1,195.47,375.33Zm-.1,3.55a1,1,0,0,0,.56-.15.79.79,0,0,0,.35-.43v-.43h-.84c-.51,0-.76.16-.76.49a.45.45,0,0,0,.18.38A.88.88,0,0,0,195.37,378.88Zm3.38-5.09H200v5.85h-1.23Zm6.56,1.54a2.16,2.16,0,0,1,1.51.48,1.79,1.79,0,0,1,.53,1.41v2.42H206.2v-.53a1.35,1.35,0,0,1-1.29.59,2,2,0,0,1-.85-.16,1.32,1.32,0,0,1-.55-.46,1.16,1.16,0,0,1-.19-.66,1.1,1.1,0,0,1,.44-.93,2.26,2.26,0,0,1,1.38-.34h1a.8.8,0,0,0-.24-.62,1.13,1.13,0,0,0-.74-.22,2.24,2.24,0,0,0-.67.11,1.8,1.8,0,0,0-.55.29l-.44-.86a2.54,2.54,0,0,1,.83-.38A3.72,3.72,0,0,1,205.31,375.33Zm-.1,3.55a1,1,0,0,0,.56-.15.79.79,0,0,0,.35-.43v-.43h-.84c-.51,0-.76.16-.76.49a.45.45,0,0,0,.18.38A.88.88,0,0,0,205.21,378.88Zm6-3.55a1.73,1.73,0,0,1,1.27.48,1.87,1.87,0,0,1,.49,1.4v2.43h-1.24V377.4a1.07,1.07,0,0,0-.22-.75.78.78,0,0,0-.63-.25,1,1,0,0,0-.75.29,1.19,1.19,0,0,0-.27.85v2.1h-1.23V375.4h1.17v.49a1.87,1.87,0,0,1,.61-.41A2.07,2.07,0,0,1,211.17,375.33Zm7.36-1.54v5.85h-1.17v-.49a1.63,1.63,0,0,1-1.33.55,2.34,2.34,0,0,1-1.09-.26,1.92,1.92,0,0,1-.75-.77,2.5,2.5,0,0,1,0-2.3,1.92,1.92,0,0,1,.75-.77,2.23,2.23,0,0,1,1.09-.27,1.62,1.62,0,0,1,1.27.52v-2.06Zm-2.29,4.9a1.06,1.06,0,0,0,.78-.31,1.22,1.22,0,0,0,.3-.86,1.18,1.18,0,0,0-.3-.85,1.09,1.09,0,0,0-1.56,0,1.18,1.18,0,0,0-.3.85,1.22,1.22,0,0,0,.3.86A1.06,1.06,0,0,0,216.24,378.69Zm-74.69,11.59a1.19,1.19,0,0,1-.44.2,2.52,2.52,0,0,1-.56.07,1.65,1.65,0,0,1-1.17-.39A1.48,1.48,0,0,1,139,389v-1.74h-.66v-.94H139v-1h1.23v1h1.06v.94H140.2V389a.6.6,0,0,0,.13.42.57.57,0,0,0,.4.14.74.74,0,0,0,.49-.16Zm2-3.48a1.42,1.42,0,0,1,.59-.46,2.21,2.21,0,0,1,.87-.16v1.13h-.27a1.11,1.11,0,0,0-.83.3,1.17,1.17,0,0,0-.3.88v2h-1.23v-4.24h1.17Zm4-.62a2.22,2.22,0,0,1,1.51.47,1.79,1.79,0,0,1,.53,1.41v2.42h-1.15V390a1.39,1.39,0,0,1-1.3.6,2,2,0,0,1-.85-.17,1.17,1.17,0,0,1-.54-.46,1.22,1.22,0,0,1,.25-1.59,2.26,2.26,0,0,1,1.38-.34h1a.74.74,0,0,0-.25-.61,1,1,0,0,0-.73-.22,1.92,1.92,0,0,0-.67.11,1.5,1.5,0,0,0-.55.28l-.44-.86a2.7,2.7,0,0,1,.82-.38A3.78,3.78,0,0,1,147.55,386.18Zm-.1,3.54a1.13,1.13,0,0,0,.56-.14.86.86,0,0,0,.35-.44v-.43h-.85c-.5,0-.75.16-.75.5a.45.45,0,0,0,.18.37A.84.84,0,0,0,147.45,389.72Zm6-3.54a1.75,1.75,0,0,1,1.27.47,1.85,1.85,0,0,1,.49,1.4v2.43h-1.23v-2.24a1.1,1.1,0,0,0-.22-.75.83.83,0,0,0-.64-.25,1,1,0,0,0-.74.29,1.22,1.22,0,0,0-.28.86v2.09h-1.23v-4.24H152v.5a1.46,1.46,0,0,1,.61-.41A2,2,0,0,1,153.4,386.18Zm4.43,4.37a4.49,4.49,0,0,1-1-.13,2.88,2.88,0,0,1-.8-.33l.41-.88a2.76,2.76,0,0,0,.69.3,3.06,3.06,0,0,0,.78.11q.78,0,.78-.39a.27.27,0,0,0-.21-.26,3.48,3.48,0,0,0-.65-.14,5.52,5.52,0,0,1-.86-.18,1.33,1.33,0,0,1-.59-.36,1,1,0,0,1-.25-.74,1.16,1.16,0,0,1,.23-.71,1.54,1.54,0,0,1,.68-.49,3.06,3.06,0,0,1,1.06-.17,3.86,3.86,0,0,1,.89.1,2.29,2.29,0,0,1,.74.27l-.41.87a2.46,2.46,0,0,0-1.22-.31,1.21,1.21,0,0,0-.6.11.32.32,0,0,0-.19.28.28.28,0,0,0,.21.28,4.28,4.28,0,0,0,.68.15,7,7,0,0,1,.85.19,1.3,1.3,0,0,1,.58.35,1.05,1.05,0,0,1,.24.73,1.12,1.12,0,0,1-.24.7,1.58,1.58,0,0,1-.69.48A3.12,3.12,0,0,1,157.83,390.55Zm5.39-4.37a2.15,2.15,0,0,1,1.07.27,2,2,0,0,1,.77.77,2.32,2.32,0,0,1,.27,1.14,2.35,2.35,0,0,1-.27,1.15,2,2,0,0,1-.77.77,2.15,2.15,0,0,1-1.07.27,1.66,1.66,0,0,1-1.28-.52v2h-1.23v-5.77h1.18v.49A1.62,1.62,0,0,1,163.22,386.18Zm-.21,3.36a1,1,0,0,0,.77-.32,1.21,1.21,0,0,0,.31-.86,1.18,1.18,0,0,0-.31-.85,1.1,1.1,0,0,0-1.55,0,1.18,1.18,0,0,0-.3.85,1.2,1.2,0,0,0,.3.86A1,1,0,0,0,163,389.54Zm5.29,1a2.66,2.66,0,0,1-1.21-.28,2.21,2.21,0,0,1-.83-3,2.13,2.13,0,0,1,.83-.77,2.54,2.54,0,0,1,1.21-.28,2.5,2.5,0,0,1,1.2.28,2,2,0,0,1,.82.77,2.17,2.17,0,0,1,.3,1.13,2.15,2.15,0,0,1-.3,1.13,2.06,2.06,0,0,1-.82.78A2.62,2.62,0,0,1,168.3,390.55Zm0-1a1,1,0,0,0,.77-.32,1.16,1.16,0,0,0,.31-.86,1.14,1.14,0,0,0-.31-.85,1.1,1.1,0,0,0-1.55,0,1.14,1.14,0,0,0-.31.85,1.16,1.16,0,0,0,.31.86A1,1,0,0,0,168.3,389.54Zm4.44-2.74a1.38,1.38,0,0,1,.6-.46,2.13,2.13,0,0,1,.86-.16v1.13h-.27a1.13,1.13,0,0,0-.83.3,1.17,1.17,0,0,0-.3.88v2h-1.23v-4.24h1.17Zm5.2,3.48a1.16,1.16,0,0,1-.45.2,2.43,2.43,0,0,1-.55.07,1.66,1.66,0,0,1-1.18-.39,1.51,1.51,0,0,1-.41-1.14v-1.74h-.65v-.94h.65v-1h1.23v1h1.06v.94h-1.06V389a.61.61,0,0,0,.14.42.53.53,0,0,0,.39.14.77.77,0,0,0,.5-.16Zm2.53-4.1a2.22,2.22,0,0,1,1.51.47,1.79,1.79,0,0,1,.53,1.41v2.42h-1.15V390a1.38,1.38,0,0,1-1.3.6,2,2,0,0,1-.85-.17,1.22,1.22,0,0,1-.54-.46,1.22,1.22,0,0,1,.25-1.59,2.26,2.26,0,0,1,1.38-.34h1a.74.74,0,0,0-.25-.61,1,1,0,0,0-.73-.22,1.92,1.92,0,0,0-.67.11,1.5,1.5,0,0,0-.55.28l-.44-.86a2.7,2.7,0,0,1,.82-.38A3.78,3.78,0,0,1,180.47,386.18Zm-.1,3.54a1.13,1.13,0,0,0,.56-.14.86.86,0,0,0,.35-.44v-.43h-.85c-.5,0-.75.16-.75.5a.45.45,0,0,0,.18.37A.86.86,0,0,0,180.37,389.72Zm6.11.56a1.16,1.16,0,0,1-.45.2,2.43,2.43,0,0,1-.55.07,1.68,1.68,0,0,1-1.18-.39,1.51,1.51,0,0,1-.41-1.14v-1.74h-.65v-.94h.65v-1h1.23v1h1.06v.94h-1.06V389a.61.61,0,0,0,.14.42.55.55,0,0,0,.39.14.77.77,0,0,0,.5-.16Zm.81-4h1.23v4.24h-1.23Zm.62-.59a.77.77,0,0,1-.55-.2.64.64,0,0,1-.22-.49.68.68,0,0,1,.22-.49.89.89,0,0,1,1.1,0,.59.59,0,0,1,.21.47.68.68,0,0,1-.21.51A.77.77,0,0,1,187.91,385.65Zm3.9,4.9a2.66,2.66,0,0,1-1.21-.28,2.21,2.21,0,0,1-.83-3,2.13,2.13,0,0,1,.83-.77,2.54,2.54,0,0,1,1.21-.28,2.47,2.47,0,0,1,1.2.28,2.13,2.13,0,0,1,.83.77,2.17,2.17,0,0,1,.3,1.13,2.1,2.1,0,0,1-1.13,1.91A2.59,2.59,0,0,1,191.81,390.55Zm0-1a1,1,0,0,0,.77-.32,1.16,1.16,0,0,0,.31-.86,1.14,1.14,0,0,0-.31-.85,1.1,1.1,0,0,0-1.55,0,1.14,1.14,0,0,0-.31.85,1.16,1.16,0,0,0,.31.86A1,1,0,0,0,191.81,389.54Zm5.85-3.36a1.76,1.76,0,0,1,1.27.47,1.89,1.89,0,0,1,.49,1.4v2.43h-1.23v-2.24a1.16,1.16,0,0,0-.22-.75.83.83,0,0,0-.64-.25,1,1,0,0,0-.74.29,1.17,1.17,0,0,0-.28.86v2.09h-1.23v-4.24h1.18v.5a1.5,1.5,0,0,1,.6-.41A2.07,2.07,0,0,1,197.66,386.18Z" transform="translate(-138.18 -201.72)"/><path class="cls-6" d="M144.2,332.82v-4l-2,3.35h-.36l-2-3.33v4h-.76V327.3h.65l2.3,3.88,2.27-3.88H145v5.52Zm6.2-2.07c0,.06,0,.14,0,.23H147a1.34,1.34,0,0,0,.48.89,1.64,1.64,0,0,0,1,.33,1.51,1.51,0,0,0,1.2-.5l.42.49a1.73,1.73,0,0,1-.71.5,2.35,2.35,0,0,1-.94.18,2.46,2.46,0,0,1-1.17-.27,2,2,0,0,1-.8-.77,2.21,2.21,0,0,1-.27-1.1,2.35,2.35,0,0,1,.26-1.1,2.07,2.07,0,0,1,1.83-1,2,2,0,0,1,1.07.28,1.88,1.88,0,0,1,.73.75A2.29,2.29,0,0,1,150.4,330.75Zm-2.07-1.51a1.32,1.32,0,0,0-.91.33,1.39,1.39,0,0,0-.43.87h2.68a1.3,1.3,0,0,0-.43-.86A1.25,1.25,0,0,0,148.33,329.24Zm5.79,3.58-1.2-1.6-1.22,1.6h-.85l1.65-2.14-1.57-2h.84l1.16,1.51,1.14-1.51h.83l-1.58,2,1.66,2.14Zm1.81-4.18h.76v4.18h-.76Zm.38-.8a.5.5,0,0,1-.37-.15.48.48,0,0,1-.14-.34.48.48,0,0,1,.14-.35.5.5,0,0,1,.37-.15.49.49,0,0,1,.36.14.43.43,0,0,1,.15.34.49.49,0,0,1-.15.36A.46.46,0,0,1,156.31,327.84Zm3.77,5a2.35,2.35,0,0,1-1.14-.28,2,2,0,0,1-.78-.76,2.23,2.23,0,0,1,0-2.2,2,2,0,0,1,.78-.75,2.24,2.24,0,0,1,1.14-.28,2.18,2.18,0,0,1,1,.23,1.57,1.57,0,0,1,.69.66l-.57.37a1.31,1.31,0,0,0-.49-.45,1.41,1.41,0,0,0-.65-.15,1.53,1.53,0,0,0-.74.18,1.34,1.34,0,0,0-.51.52,1.62,1.62,0,0,0-.18.77,1.66,1.66,0,0,0,.18.78,1.32,1.32,0,0,0,.51.51,1.53,1.53,0,0,0,.74.18,1.41,1.41,0,0,0,.65-.15,1.31,1.31,0,0,0,.49-.45l.57.37a1.65,1.65,0,0,1-.69.67A2.18,2.18,0,0,1,160.08,332.87Zm4.54,0a2.3,2.3,0,0,1-1.12-.28,2,2,0,0,1-.79-.76,2.38,2.38,0,0,1,0-2.2,2,2,0,0,1,.79-.75,2.36,2.36,0,0,1,2.23,0,1.92,1.92,0,0,1,.77.75,2.3,2.3,0,0,1,0,2.2,1.94,1.94,0,0,1-.77.76A2.29,2.29,0,0,1,164.62,332.87Zm0-.67a1.41,1.41,0,0,0,.71-.18,1.28,1.28,0,0,0,.51-.52,1.59,1.59,0,0,0,.18-.77,1.62,1.62,0,0,0-.18-.77,1.28,1.28,0,0,0-.51-.52,1.41,1.41,0,0,0-.71-.18,1.49,1.49,0,0,0-.73.18,1.32,1.32,0,0,0-.5.52,1.52,1.52,0,0,0-.19.77,1.49,1.49,0,0,0,.19.77,1.32,1.32,0,0,0,.5.52A1.49,1.49,0,0,0,164.62,332.2Zm9.35-1.45a2,2,0,0,1,0,.23h-3.39a1.26,1.26,0,0,0,.48.89,1.61,1.61,0,0,0,1,.33,1.55,1.55,0,0,0,1.21-.5l.41.49a1.73,1.73,0,0,1-.71.5,2.3,2.3,0,0,1-.93.18,2.48,2.48,0,0,1-1.18-.27,2,2,0,0,1-.8-.77,2.21,2.21,0,0,1-.27-1.1,2.24,2.24,0,0,1,.27-1.1,1.93,1.93,0,0,1,.75-.75,2.07,2.07,0,0,1,1.08-.28,2,2,0,0,1,1.06.28,1.82,1.82,0,0,1,.73.75A2.29,2.29,0,0,1,174,330.75Zm-2.06-1.51a1.28,1.28,0,0,0-1.34,1.2h2.68a1.36,1.36,0,0,0-.44-.86A1.25,1.25,0,0,0,171.91,329.24Zm5.79,3.58-1.21-1.6-1.22,1.6h-.85l1.65-2.14-1.57-2h.85l1.15,1.51,1.14-1.51h.83l-1.58,2,1.67,2.14Zm4-4.22a2.18,2.18,0,0,1,1.09.27,1.93,1.93,0,0,1,.75.75,2.23,2.23,0,0,1,.27,1.11,2.29,2.29,0,0,1-.27,1.12,1.93,1.93,0,0,1-.75.75,2.18,2.18,0,0,1-1.09.27,1.94,1.94,0,0,1-.83-.18,1.77,1.77,0,0,1-.63-.5v2.16h-.75v-5.71h.72v.66a1.62,1.62,0,0,1,.64-.52A2,2,0,0,1,181.72,328.6Zm-.06,3.6a1.43,1.43,0,0,0,.72-.18,1.32,1.32,0,0,0,.5-.52,1.49,1.49,0,0,0,.19-.77,1.52,1.52,0,0,0-.19-.77,1.32,1.32,0,0,0-.5-.52,1.43,1.43,0,0,0-.72-.18,1.49,1.49,0,0,0-.72.19,1.29,1.29,0,0,0-.5.51,1.52,1.52,0,0,0-.19.77,1.49,1.49,0,0,0,.19.77,1.25,1.25,0,0,0,.5.52A1.48,1.48,0,0,0,181.66,332.2Zm5.13.67a2.35,2.35,0,0,1-1.12-.28,2,2,0,0,1-.78-.76,2.38,2.38,0,0,1,0-2.2,2,2,0,0,1,.78-.75,2.24,2.24,0,0,1,1.12-.28,2.19,2.19,0,0,1,1.12.28,2,2,0,0,1,.77.75,2.3,2.3,0,0,1,0,2.2,2,2,0,0,1-.77.76A2.3,2.3,0,0,1,186.79,332.87Zm0-.67a1.43,1.43,0,0,0,.72-.18,1.28,1.28,0,0,0,.51-.52,1.59,1.59,0,0,0,.18-.77A1.62,1.62,0,0,0,188,330a1.28,1.28,0,0,0-.51-.52,1.43,1.43,0,0,0-.72-.18,1.45,1.45,0,0,0-.72.18,1.41,1.41,0,0,0-.51.52,1.62,1.62,0,0,0-.18.77,1.59,1.59,0,0,0,.18.77,1.41,1.41,0,0,0,.51.52A1.45,1.45,0,0,0,186.79,332.2Zm4.07-2.86a1.29,1.29,0,0,1,.58-.55,2.07,2.07,0,0,1,.94-.19v.73h-.17a1.26,1.26,0,0,0-1,.37,1.41,1.41,0,0,0-.35,1v2.08h-.76v-4.18h.73Zm5.1,3.23a1.36,1.36,0,0,1-.41.23,2.24,2.24,0,0,1-.51.07,1.37,1.37,0,0,1-1-.34,1.3,1.3,0,0,1-.34-1v-2.3H193v-.62h.71v-.91h.75v.91h1.2v.62h-1.2v2.27a.76.76,0,0,0,.17.52.64.64,0,0,0,.49.18.92.92,0,0,0,.59-.2Zm2.23.3a3.52,3.52,0,0,1-1-.14,2,2,0,0,1-.74-.35l.31-.6a2.44,2.44,0,0,0,.67.31,2.72,2.72,0,0,0,.8.12q1,0,1-.57a.38.38,0,0,0-.13-.3.88.88,0,0,0-.34-.15,4.48,4.48,0,0,0-.57-.12,5.3,5.3,0,0,1-.83-.18,1.3,1.3,0,0,1-.54-.35,1,1,0,0,1-.23-.69,1.06,1.06,0,0,1,.47-.9,2.12,2.12,0,0,1,1.27-.35,3.44,3.44,0,0,1,.84.1,2,2,0,0,1,.68.28l-.32.6a2.17,2.17,0,0,0-1.21-.33,1.45,1.45,0,0,0-.73.15.48.48,0,0,0-.25.42.42.42,0,0,0,.14.33,1.14,1.14,0,0,0,.35.17l.59.13a5.64,5.64,0,0,1,.81.18,1.28,1.28,0,0,1,.54.34.94.94,0,0,1,.22.66,1.05,1.05,0,0,1-.49.91A2.3,2.3,0,0,1,198.19,332.87Z" transform="translate(-138.18 -201.72)"/><rect class="cls-7" x="157.78" width="11.83" height="11.83"/><path class="cls-8" d="M138.25,519.61h314" transform="translate(-138.18 -201.72)"/><path class="cls-9" d="M244.21,263.33v1.2h1v-1.2Zm0,3.59v2.4h1v-2.4Zm0,4.8v2.39h1v-2.39Zm0,4.79v2.4h1v-2.4Zm0,4.79v2.4h1v-2.4Zm0,4.8v2.4h1v-2.4Zm0,4.79v2.4h1v-2.4Zm0,4.8v2.39h1v-2.39Zm0,4.79v2.4h1v-2.4Zm0,4.8v2.39h1v-2.39Zm0,4.79v2.4h1v-2.4Zm0,4.79v1.2h1v-1.2Z" transform="translate(-138.18 -201.72)"/><path class="cls-10" d="M268.36,316.06v1.19h1v-1.19Zm0,3.56V322h1v-2.38Zm0,4.75v2.38h1v-2.38Zm0,4.75v2.38h1v-2.38Zm0,4.75v2.38h1v-2.38Zm0,4.75V341h1v-2.38Zm0,4.75v2.38h1v-2.38Zm0,4.75v2.37h1v-2.37Zm0,4.75v2.37h1v-2.37Zm0,4.75V360h1v-2.37Zm0,4.75v2.37h1v-2.37Zm0,4.75v1.18h1v-1.18Z" transform="translate(-138.18 -201.72)"/><path class="cls-10" d="M304.34,368.8V370h1V368.8Zm0,3.56v2.37h1v-2.37Zm0,4.75v2.37h1v-2.37Zm0,4.75v2.37h1v-2.37Zm0,4.75V389h1v-2.37Zm0,4.75v2.37h1v-2.37Zm0,4.75v2.37h1v-2.37Zm0,4.74v2.38h1v-2.38Zm0,4.75V408h1V405.6Zm0,4.75v2.38h1v-2.38Zm0,4.75v2.38h1V415.1Zm0,4.75V421h1v-1.19Z" transform="translate(-138.18 -201.72)"/><path class="cls-10" d="M323.07,421v1.2h1V421Zm0,3.6V427h1v-2.39Zm0,4.79v2.4h1v-2.4Zm0,4.79v2.4h1v-2.4Zm0,4.8v2.39h1V439Zm0,4.79v2.4h1v-2.4Zm0,4.8V451h1v-2.39Zm0,4.79v2.4h1v-2.4Zm0,4.79v2.4h1v-2.4Zm0,4.8v2.4h1V463Zm0,4.79v2.4h1v-2.4Zm0,4.8v1.19h1v-1.19Z" transform="translate(-138.18 -201.72)"/><path class="cls-10" d="M384.68,473.77V475h1v-1.19Zm0,3.57v2.37h1v-2.37Zm0,4.75v2.37h1v-2.37Zm0,4.75v2.37h1v-2.37Zm0,4.74V494h1v-2.38Zm0,4.75v2.38h1v-2.38Zm0,4.75v2.38h1v-2.38Zm0,4.75v2.38h1v-2.38Zm0,4.75V513h1v-2.38Zm0,4.75v2.38h1v-2.38Zm0,4.75v2.38h1v-2.38Zm0,4.75V526h1v-1.19Z" transform="translate(-138.18 -201.72)"/><rect class="cls-3" x="0.07" width="11.83" height="11.83"/><path class="cls-11" d="M143.83,583.58v5.52h-.65L139.87,585v4.11h-.79v-5.52h.65L143,587.7v-4.12Zm3.45,5.57a2.22,2.22,0,0,1-1.12-.28,2,2,0,0,1-.78-.75,2.29,2.29,0,0,1-.28-1.11,2.18,2.18,0,0,1,.28-1.09,2,2,0,0,1,.78-.76,2.32,2.32,0,0,1,1.12-.28,2.23,2.23,0,0,1,1.11.28,2,2,0,0,1,.78.76,2.18,2.18,0,0,1,.28,1.09,2.29,2.29,0,0,1-.28,1.11,2,2,0,0,1-.78.75A2.13,2.13,0,0,1,147.28,589.15Zm0-.66a1.43,1.43,0,0,0,.72-.18,1.39,1.39,0,0,0,.5-.52,1.66,1.66,0,0,0,.18-.78,1.55,1.55,0,0,0-.18-.76,1.26,1.26,0,0,0-.5-.52,1.53,1.53,0,0,0-1.44,0,1.34,1.34,0,0,0-.51.52,1.55,1.55,0,0,0-.18.76,1.66,1.66,0,0,0,.18.78,1.49,1.49,0,0,0,.51.52A1.43,1.43,0,0,0,147.28,588.49Zm5.69.37a1.23,1.23,0,0,1-.41.22,1.7,1.7,0,0,1-.51.07,1.2,1.2,0,0,1-1.32-1.31v-2.29H150v-.63h.71V584h.76v.91h1.2v.63h-1.2v2.26a.74.74,0,0,0,.16.52.66.66,0,0,0,.49.18.86.86,0,0,0,.59-.2Zm4.68-1.82c0,.05,0,.13,0,.22h-3.39a1.38,1.38,0,0,0,.48.9,1.61,1.61,0,0,0,1,.33A1.54,1.54,0,0,0,157,588l.42.49a1.93,1.93,0,0,1-.71.51,2.54,2.54,0,0,1-.94.17,2.46,2.46,0,0,1-1.17-.27,2,2,0,0,1-.8-.76,2.34,2.34,0,0,1,0-2.2,2,2,0,0,1,.75-.76,2.17,2.17,0,0,1,1.08-.28,2.13,2.13,0,0,1,1.07.28,1.91,1.91,0,0,1,.73.76A2.26,2.26,0,0,1,157.65,587Zm-2.07-1.52a1.3,1.3,0,0,0-1.34,1.2h2.68a1.34,1.34,0,0,0-.43-.86A1.27,1.27,0,0,0,155.58,585.52ZM159,586a.55.55,0,0,1-.38-.15.53.53,0,0,1-.15-.39.52.52,0,0,1,.15-.38.57.57,0,0,1,.38-.16.5.5,0,0,1,.37.15.58.58,0,0,1,0,.78A.51.51,0,0,1,159,586Zm0,3.19a.55.55,0,0,1-.38-.15.56.56,0,0,1-.15-.39.5.5,0,0,1,.15-.38.52.52,0,0,1,.38-.16.5.5,0,0,1,.37.15.53.53,0,0,1,.15.39.56.56,0,0,1-.15.39A.51.51,0,0,1,159,589.15Zm7.91-2.84h.75v2.15a2.82,2.82,0,0,1-.95.52,3.59,3.59,0,0,1-1.14.19,3.11,3.11,0,0,1-1.5-.37,2.71,2.71,0,0,1-1.06-1,3,3,0,0,1,0-2.9,2.71,2.71,0,0,1,1.06-1,3.19,3.19,0,0,1,1.52-.36,3.09,3.09,0,0,1,1.2.22,2.37,2.37,0,0,1,.92.63l-.49.49a2.19,2.19,0,0,0-1.6-.64,2.23,2.23,0,0,0-1.13.28,1.88,1.88,0,0,0-.78.75,2.11,2.11,0,0,0-.29,1.09,2.14,2.14,0,0,0,.29,1.09,2,2,0,0,0,.78.76,2.53,2.53,0,0,0,2.42-.08Zm3.8-1.43a1.87,1.87,0,0,1,1.32.43,1.64,1.64,0,0,1,.47,1.27v2.52h-.72v-.55a1.34,1.34,0,0,1-.54.45,2.09,2.09,0,0,1-.83.15,1.73,1.73,0,0,1-1.13-.34,1.09,1.09,0,0,1-.42-.89,1.08,1.08,0,0,1,.41-.88,1.91,1.91,0,0,1,1.27-.34h1.2v-.15a1,1,0,0,0-.28-.75,1.18,1.18,0,0,0-.84-.26,2.18,2.18,0,0,0-.72.12,1.73,1.73,0,0,0-.6.33l-.32-.57a2.15,2.15,0,0,1,.77-.39A3,3,0,0,1,170.71,584.88Zm-.18,3.69a1.49,1.49,0,0,0,.75-.19,1.11,1.11,0,0,0,.46-.56v-.58h-1.17c-.64,0-1,.22-1,.65a.56.56,0,0,0,.25.49A1,1,0,0,0,170.53,588.57Zm4.69.58a3.93,3.93,0,0,1-1-.13,2.38,2.38,0,0,1-.75-.36l.32-.6a2.32,2.32,0,0,0,.67.32,2.71,2.71,0,0,0,.8.11c.66,0,1-.18,1-.56a.35.35,0,0,0-.13-.3.77.77,0,0,0-.34-.16,4.48,4.48,0,0,0-.57-.12,5.3,5.3,0,0,1-.83-.18,1.21,1.21,0,0,1-.54-.35.92.92,0,0,1-.23-.68,1.08,1.08,0,0,1,.47-.91,2.12,2.12,0,0,1,1.27-.35,3.46,3.46,0,0,1,.84.11,2.14,2.14,0,0,1,.68.27l-.32.6a2.17,2.17,0,0,0-1.21-.33,1.34,1.34,0,0,0-.73.16.46.46,0,0,0-.25.42.39.39,0,0,0,.14.32.77.77,0,0,0,.35.17l.59.13a6.15,6.15,0,0,1,.81.19,1.17,1.17,0,0,1,.54.33,1,1,0,0,1,.22.66,1.08,1.08,0,0,1-.49.91A2.3,2.3,0,0,1,175.22,589.15Zm10.35-4.27a1.69,1.69,0,0,1,1.24.46,1.84,1.84,0,0,1,.47,1.36v2.4h-.76v-2.32a1.34,1.34,0,0,0-.28-.91,1,1,0,0,0-.8-.31,1.22,1.22,0,0,0-.92.36,1.47,1.47,0,0,0-.33,1v2.15h-.76v-2.32a1.29,1.29,0,0,0-.29-.91,1,1,0,0,0-.79-.31,1.21,1.21,0,0,0-.92.36,1.47,1.47,0,0,0-.34,1v2.15h-.75v-4.18h.72v.63a1.38,1.38,0,0,1,.6-.49,1.93,1.93,0,0,1,.85-.18,1.85,1.85,0,0,1,.86.2,1.32,1.32,0,0,1,.59.58,1.45,1.45,0,0,1,.65-.57A2.12,2.12,0,0,1,185.57,584.88Zm7,2.16a1.94,1.94,0,0,1,0,.22h-3.39a1.3,1.3,0,0,0,.48.9,1.61,1.61,0,0,0,1,.33,1.56,1.56,0,0,0,1.21-.51l.41.49a1.82,1.82,0,0,1-.7.51,2.58,2.58,0,0,1-.94.17,2.5,2.5,0,0,1-1.18-.27,1.93,1.93,0,0,1-.79-.76,2.34,2.34,0,0,1,0-2.2,1.89,1.89,0,0,1,.75-.76,2.17,2.17,0,0,1,1.08-.28,2.07,2.07,0,0,1,1.06.28,1.79,1.79,0,0,1,.73.76A2.26,2.26,0,0,1,192.59,587Zm-2.06-1.52a1.28,1.28,0,0,0-1.34,1.2h2.68a1.31,1.31,0,0,0-.44-.86A1.25,1.25,0,0,0,190.53,585.52Zm4.64-.64a1.91,1.91,0,0,1,1.33.43,1.63,1.63,0,0,1,.46,1.27v2.52h-.71v-.55a1.3,1.3,0,0,1-.55.45,2.09,2.09,0,0,1-.83.15,1.72,1.72,0,0,1-1.12-.34,1.09,1.09,0,0,1-.42-.89,1.07,1.07,0,0,1,.4-.88,1.94,1.94,0,0,1,1.28-.34h1.2v-.15a1,1,0,0,0-.29-.75,1.17,1.17,0,0,0-.83-.26,2.28,2.28,0,0,0-.73.12,1.82,1.82,0,0,0-.6.33l-.31-.57a2.07,2.07,0,0,1,.77-.39A3,3,0,0,1,195.17,584.88Zm-.17,3.69a1.49,1.49,0,0,0,.75-.19,1.16,1.16,0,0,0,.46-.56v-.58H195c-.64,0-1,.22-1,.65a.58.58,0,0,0,.24.49A1.08,1.08,0,0,0,195,588.57Zm4.69.58a4,4,0,0,1-1-.13,2.43,2.43,0,0,1-.74-.36l.32-.6a2.2,2.2,0,0,0,.67.32,2.65,2.65,0,0,0,.79.11c.66,0,1-.18,1-.56a.36.36,0,0,0-.14-.3.72.72,0,0,0-.34-.16,4.48,4.48,0,0,0-.57-.12,5.15,5.15,0,0,1-.82-.18,1.24,1.24,0,0,1-.55-.35,1,1,0,0,1-.23-.68,1.07,1.07,0,0,1,.48-.91,2.1,2.1,0,0,1,1.27-.35,3.44,3.44,0,0,1,.83.11,2.21,2.21,0,0,1,.69.27l-.32.6a2.22,2.22,0,0,0-1.21-.33,1.32,1.32,0,0,0-.73.16.47.47,0,0,0-.26.42.42.42,0,0,0,.14.32.82.82,0,0,0,.35.17l.59.13a6,6,0,0,1,.82.19,1.14,1.14,0,0,1,.53.33.92.92,0,0,1,.22.66,1.05,1.05,0,0,1-.49.91A2.29,2.29,0,0,1,199.69,589.15Zm6.77-4.23v4.18h-.72v-.63a1.52,1.52,0,0,1-.61.51,2,2,0,0,1-.81.17,1.64,1.64,0,0,1-1.8-1.82v-2.41h.76v2.32a1.32,1.32,0,0,0,.29.92,1.09,1.09,0,0,0,.84.31,1.24,1.24,0,0,0,.94-.36,1.44,1.44,0,0,0,.35-1v-2.16Zm2.29.7a1.29,1.29,0,0,1,.58-.55,2.22,2.22,0,0,1,.94-.19v.74h-.17a1.26,1.26,0,0,0-1,.37,1.41,1.41,0,0,0-.35,1v2.08H208v-4.18h.73Zm6.31,1.42a1.94,1.94,0,0,1,0,.22h-3.39a1.3,1.3,0,0,0,.48.9,1.61,1.61,0,0,0,1,.33,1.56,1.56,0,0,0,1.21-.51l.42.49a1.93,1.93,0,0,1-.71.51,2.58,2.58,0,0,1-.94.17,2.5,2.5,0,0,1-1.18-.27,2,2,0,0,1-.79-.76,2.34,2.34,0,0,1,0-2.2,1.89,1.89,0,0,1,.75-.76,2.17,2.17,0,0,1,1.08-.28,2.07,2.07,0,0,1,1.06.28,1.87,1.87,0,0,1,.74.76A2.37,2.37,0,0,1,215.06,587ZM213,585.52a1.28,1.28,0,0,0-1.34,1.2h2.68a1.31,1.31,0,0,0-.44-.86A1.25,1.25,0,0,0,213,585.52Zm7.18-2.27v5.85h-.72v-.66a1.72,1.72,0,0,1-.64.53,2,2,0,0,1-.86.18,2.16,2.16,0,0,1-1.08-.27,2,2,0,0,1-.76-.75,2.26,2.26,0,0,1-.27-1.12,2.23,2.23,0,0,1,.27-1.11,2,2,0,0,1,.76-.75,2.16,2.16,0,0,1,1.08-.27,1.9,1.9,0,0,1,.83.18,1.46,1.46,0,0,1,.63.49v-2.3ZM218,588.49a1.48,1.48,0,0,0,.72-.18,1.39,1.39,0,0,0,.5-.52,1.66,1.66,0,0,0,.18-.78,1.55,1.55,0,0,0-.18-.76,1.26,1.26,0,0,0-.5-.52,1.55,1.55,0,0,0-1.45,0,1.26,1.26,0,0,0-.5.52,1.55,1.55,0,0,0-.18.76,1.66,1.66,0,0,0,.18.78,1.39,1.39,0,0,0,.5.52A1.49,1.49,0,0,0,218,588.49Zm5.95-3.57h.75v4.18H224Zm.38-.8A.53.53,0,0,1,224,584a.48.48,0,0,1,0-.7.5.5,0,0,1,.37-.15.52.52,0,0,1,.36.14.45.45,0,0,1,.15.34.5.5,0,0,1-.15.37A.52.52,0,0,1,224.36,584.12Zm4.17.76a1.71,1.71,0,0,1,1.27.47,1.8,1.8,0,0,1,.47,1.35v2.4h-.76v-2.32a1.25,1.25,0,0,0-.29-.91,1.07,1.07,0,0,0-.84-.31,1.31,1.31,0,0,0-1,.36,1.43,1.43,0,0,0-.35,1v2.15h-.76v-4.18H227v.63a1.48,1.48,0,0,1,.61-.49A2.14,2.14,0,0,1,228.53,584.88Zm7.72,0a2.18,2.18,0,0,1,1.09.27,1.93,1.93,0,0,1,.75.75,2.23,2.23,0,0,1,.27,1.11,2.26,2.26,0,0,1-.27,1.12,1.93,1.93,0,0,1-.75.75,2.18,2.18,0,0,1-1.09.27,2,2,0,0,1-.85-.18,1.65,1.65,0,0,1-.64-.53v.66H234v-5.85h.76v2.3a1.59,1.59,0,0,1,.63-.49A1.94,1.94,0,0,1,236.25,584.88Zm-.06,3.61a1.45,1.45,0,0,0,.72-.18,1.39,1.39,0,0,0,.5-.52,1.55,1.55,0,0,0,.19-.78,1.45,1.45,0,0,0-.19-.76,1.26,1.26,0,0,0-.5-.52,1.53,1.53,0,0,0-1.44,0,1.2,1.2,0,0,0-.5.52,1.45,1.45,0,0,0-.19.76,1.55,1.55,0,0,0,.19.78,1.32,1.32,0,0,0,.5.52A1.45,1.45,0,0,0,236.19,588.49Zm3.34-3.57h.76v4.18h-.76Zm.38-.8a.53.53,0,0,1-.37-.14.5.5,0,0,1,.37-.85.49.49,0,0,1,.36.14.45.45,0,0,1,.15.34.5.5,0,0,1-.15.37A.49.49,0,0,1,239.91,584.12Zm2-.87h.76v5.85h-.76Zm2.32,0h.76v5.85h-.76Zm2.33,1.67h.76v4.18h-.76Zm.38-.8a.53.53,0,0,1-.37-.14.51.51,0,0,1,0-.7.5.5,0,0,1,.37-.15.49.49,0,0,1,.36.14.45.45,0,0,1,.15.34.5.5,0,0,1-.15.37A.49.49,0,0,1,246.89,584.12Zm3.74,5a2.19,2.19,0,0,1-1.12-.28,1.88,1.88,0,0,1-.78-.75,2.18,2.18,0,0,1-.28-1.11,2.08,2.08,0,0,1,.28-1.09,1.85,1.85,0,0,1,.78-.76,2.36,2.36,0,0,1,2.23,0,1.88,1.88,0,0,1,.77.76,2.08,2.08,0,0,1,.28,1.09,2.18,2.18,0,0,1-.28,1.11,1.92,1.92,0,0,1-.77.75A2.18,2.18,0,0,1,250.63,589.15Zm0-.66a1.41,1.41,0,0,0,.71-.18,1.34,1.34,0,0,0,.51-.52A1.66,1.66,0,0,0,252,587a1.55,1.55,0,0,0-.18-.76,1.22,1.22,0,0,0-.51-.52,1.41,1.41,0,0,0-.71-.18,1.49,1.49,0,0,0-.73.18,1.26,1.26,0,0,0-.5.52,1.45,1.45,0,0,0-.19.76,1.55,1.55,0,0,0,.19.78,1.39,1.39,0,0,0,.5.52A1.49,1.49,0,0,0,250.63,588.49Zm5.57-3.61a1.71,1.71,0,0,1,1.26.47,1.8,1.8,0,0,1,.47,1.35v2.4h-.76v-2.32a1.25,1.25,0,0,0-.29-.91,1.06,1.06,0,0,0-.83-.31,1.29,1.29,0,0,0-1,.36,1.39,1.39,0,0,0-.36,1v2.15H254v-4.18h.73v.63a1.48,1.48,0,0,1,.61-.49A2.16,2.16,0,0,1,256.2,584.88Zm7.32,4.27a2.3,2.3,0,0,1-1.15-.28,2,2,0,0,1-.78-.75,2.18,2.18,0,0,1-.28-1.11,2.08,2.08,0,0,1,.28-1.09,2,2,0,0,1,.78-.76,2.42,2.42,0,0,1,1.15-.28,2.21,2.21,0,0,1,1,.23,1.63,1.63,0,0,1,.69.66l-.57.38a1.39,1.39,0,0,0-.49-.45,1.41,1.41,0,0,0-.65-.15,1.53,1.53,0,0,0-.74.18,1.22,1.22,0,0,0-.51.52,1.45,1.45,0,0,0-.19.76,1.5,1.5,0,0,0,.19.78,1.34,1.34,0,0,0,.51.52,1.53,1.53,0,0,0,.74.18,1.41,1.41,0,0,0,.65-.15,1.39,1.39,0,0,0,.49-.45l.57.36a1.65,1.65,0,0,1-.69.67A2.21,2.21,0,0,1,263.52,589.15Zm6.7-4.23v4.18h-.72v-.63a1.46,1.46,0,0,1-.61.51,1.92,1.92,0,0,1-.81.17,1.65,1.65,0,0,1-1.8-1.82v-2.41H267v2.32a1.32,1.32,0,0,0,.29.92,1.1,1.1,0,0,0,.84.31,1.27,1.27,0,0,0,.95-.36,1.44,1.44,0,0,0,.34-1v-2.16Zm3.78,0a2.2,2.2,0,0,1,1.09.27,1.93,1.93,0,0,1,.75.75,2.23,2.23,0,0,1,.27,1.11,2.26,2.26,0,0,1-.27,1.12,1.93,1.93,0,0,1-.75.75,2.2,2.2,0,0,1-1.09.27,2,2,0,0,1-.85-.18,1.65,1.65,0,0,1-.64-.53v.66h-.73v-5.85h.76v2.3a1.59,1.59,0,0,1,.63-.49A1.9,1.9,0,0,1,274,584.88Zm-.06,3.61a1.41,1.41,0,0,0,.71-.18,1.34,1.34,0,0,0,.51-.52,1.55,1.55,0,0,0,.19-.78,1.45,1.45,0,0,0-.19-.76,1.22,1.22,0,0,0-.51-.52,1.51,1.51,0,0,0-1.43,0,1.28,1.28,0,0,0-.51.52,1.55,1.55,0,0,0-.18.76,1.66,1.66,0,0,0,.18.78,1.35,1.35,0,0,0,1.23.7Zm3.34-3.57H278v4.18h-.76Zm.38-.8a.53.53,0,0,1-.37-.14.5.5,0,0,1,.37-.85.49.49,0,0,1,.36.14.45.45,0,0,1,.15.34.5.5,0,0,1-.15.37A.49.49,0,0,1,277.66,584.12Zm3.77,5a2.24,2.24,0,0,1-1.14-.28,1.88,1.88,0,0,1-.78-.75,2.19,2.19,0,0,1-.29-1.11,2.09,2.09,0,0,1,.29-1.09,1.85,1.85,0,0,1,.78-.76,2.35,2.35,0,0,1,1.14-.28,2.21,2.21,0,0,1,1,.23,1.63,1.63,0,0,1,.69.66l-.57.38a1.31,1.31,0,0,0-.49-.45,1.41,1.41,0,0,0-.65-.15,1.53,1.53,0,0,0-.74.18,1.22,1.22,0,0,0-.51.52,1.55,1.55,0,0,0-.18.76,1.61,1.61,0,0,0,.18.78,1.34,1.34,0,0,0,.51.52,1.53,1.53,0,0,0,.74.18,1.41,1.41,0,0,0,.65-.15,1.31,1.31,0,0,0,.49-.45l.57.36a1.65,1.65,0,0,1-.69.67A2.21,2.21,0,0,1,281.43,589.15Zm6.58-5.32c-.45,0-.68.24-.68.73v.36h1.21v.63h-1.2v3.55h-.75v-3.55h-.71v-.63h.71v-.37a1.33,1.33,0,0,1,.36-1,1.35,1.35,0,0,1,1-.37,1.45,1.45,0,0,1,.47.07,1.11,1.11,0,0,1,.38.18l-.23.57A.94.94,0,0,0,288,583.83ZM293.1,587c0,.05,0,.13,0,.22h-3.39a1.38,1.38,0,0,0,.48.9,1.61,1.61,0,0,0,1,.33,1.54,1.54,0,0,0,1.21-.51l.42.49a1.93,1.93,0,0,1-.71.51,2.54,2.54,0,0,1-.94.17,2.46,2.46,0,0,1-1.17-.27,2,2,0,0,1-.8-.76,2.34,2.34,0,0,1,0-2.2,1.89,1.89,0,0,1,.75-.76,2.17,2.17,0,0,1,1.08-.28,2.07,2.07,0,0,1,1.06.28,1.87,1.87,0,0,1,.74.76A2.26,2.26,0,0,1,293.1,587ZM291,585.52a1.3,1.3,0,0,0-1.34,1.2h2.68a1.34,1.34,0,0,0-.43-.86A1.27,1.27,0,0,0,291,585.52Zm7,1.52c0,.05,0,.13,0,.22h-3.39a1.38,1.38,0,0,0,.48.9,1.61,1.61,0,0,0,1,.33,1.54,1.54,0,0,0,1.21-.51l.42.49a1.93,1.93,0,0,1-.71.51,2.54,2.54,0,0,1-.94.17,2.46,2.46,0,0,1-1.17-.27,2,2,0,0,1-.8-.76,2.29,2.29,0,0,1-.28-1.11,2.2,2.2,0,0,1,.27-1.09,2,2,0,0,1,.75-.76,2.17,2.17,0,0,1,1.08-.28,2.11,2.11,0,0,1,1.07.28,1.85,1.85,0,0,1,.73.76A2.26,2.26,0,0,1,298.05,587ZM296,585.52a1.31,1.31,0,0,0-.91.33,1.35,1.35,0,0,0-.43.87h2.68a1.3,1.3,0,0,0-.43-.86A1.27,1.27,0,0,0,296,585.52Zm5.59,3.34a1.23,1.23,0,0,1-.41.22,1.68,1.68,0,0,1-.5.07,1.33,1.33,0,0,1-1-.34,1.31,1.31,0,0,1-.35-1v-2.29h-.71v-.63h.71V584h.76v.91h1.2v.63h-1.2v2.26a.74.74,0,0,0,.16.52.66.66,0,0,0,.49.18.89.89,0,0,0,.6-.2Zm5.5-4a2.23,2.23,0,0,1,1.09.27,1.84,1.84,0,0,1,.74.75,2.13,2.13,0,0,1,.28,1.11,2.17,2.17,0,0,1-.28,1.12,1.84,1.84,0,0,1-.74.75,2.23,2.23,0,0,1-1.09.27,2.05,2.05,0,0,1-.83-.17,1.73,1.73,0,0,1-.63-.51v2.16h-.76v-5.71h.73v.67a1.5,1.5,0,0,1,.64-.53A2,2,0,0,1,307.07,584.88Zm-.07,3.61a1.43,1.43,0,0,0,.72-.18,1.34,1.34,0,0,0,.51-.52,1.67,1.67,0,0,0,.19-.78,1.56,1.56,0,0,0-.19-.76,1.22,1.22,0,0,0-.51-.52,1.51,1.51,0,0,0-1.43,0,1.49,1.49,0,0,0-.51.52,1.55,1.55,0,0,0-.18.76,1.66,1.66,0,0,0,.18.78,1.34,1.34,0,0,0,.51.52A1.41,1.41,0,0,0,307,588.49Zm7.13-1.45c0,.05,0,.13,0,.22h-3.39a1.38,1.38,0,0,0,.48.9,1.61,1.61,0,0,0,1,.33,1.54,1.54,0,0,0,1.21-.51l.42.49a1.93,1.93,0,0,1-.71.51,2.54,2.54,0,0,1-.94.17,2.46,2.46,0,0,1-1.17-.27,2,2,0,0,1-.8-.76A2.29,2.29,0,0,1,310,587a2.2,2.2,0,0,1,.27-1.09,2,2,0,0,1,.75-.76,2.17,2.17,0,0,1,1.08-.28,2.11,2.11,0,0,1,1.07.28,1.85,1.85,0,0,1,.73.76A2.26,2.26,0,0,1,314.13,587Zm-2.07-1.52a1.3,1.3,0,0,0-1.34,1.2h2.68a1.34,1.34,0,0,0-.43-.86A1.27,1.27,0,0,0,312.06,585.52Zm4,.1a1.29,1.29,0,0,1,.58-.55,2.22,2.22,0,0,1,.94-.19v.74h-.17a1.26,1.26,0,0,0-1,.37,1.41,1.41,0,0,0-.35,1v2.08h-.76v-4.18H316Zm8.81-2.37v5.85h-.72v-.66a1.65,1.65,0,0,1-.64.53,2,2,0,0,1-.85.18,2.18,2.18,0,0,1-1.09-.27,2,2,0,0,1-.76-.75,2.26,2.26,0,0,1-.27-1.12,2.23,2.23,0,0,1,.27-1.11,2,2,0,0,1,.76-.75,2.18,2.18,0,0,1,1.09-.27,1.86,1.86,0,0,1,.82.18,1.55,1.55,0,0,1,.64.49v-2.3Zm-2.15,5.24a1.48,1.48,0,0,0,.72-.18,1.39,1.39,0,0,0,.5-.52,1.66,1.66,0,0,0,.18-.78,1.55,1.55,0,0,0-.18-.76,1.26,1.26,0,0,0-.5-.52,1.55,1.55,0,0,0-1.45,0,1.32,1.32,0,0,0-.5.52,1.55,1.55,0,0,0-.18.76,1.66,1.66,0,0,0,.18.78,1.47,1.47,0,0,0,.5.52A1.49,1.49,0,0,0,322.69,588.49Zm5.23-3.61a1.87,1.87,0,0,1,1.32.43,1.64,1.64,0,0,1,.47,1.27v2.52H329v-.55a1.21,1.21,0,0,1-.54.45,2.09,2.09,0,0,1-.83.15,1.75,1.75,0,0,1-1.13-.34,1.09,1.09,0,0,1-.42-.89,1.08,1.08,0,0,1,.41-.88,1.93,1.93,0,0,1,1.27-.34H329v-.15a1,1,0,0,0-.28-.75,1.18,1.18,0,0,0-.84-.26,2.22,2.22,0,0,0-.72.12,1.73,1.73,0,0,0-.6.33l-.32-.57A2.2,2.2,0,0,1,327,585,3,3,0,0,1,327.92,584.88Zm-.17,3.69a1.49,1.49,0,0,0,.75-.19,1.09,1.09,0,0,0,.45-.56v-.58h-1.16c-.65,0-1,.22-1,.65a.58.58,0,0,0,.25.49A1.06,1.06,0,0,0,327.75,588.57Zm7.11-3.65-2,4.6a2,2,0,0,1-.63.9,1.44,1.44,0,0,1-.86.26,1.72,1.72,0,0,1-.6-.1,1.17,1.17,0,0,1-.47-.29l.32-.56a1.05,1.05,0,0,0,.75.3.71.71,0,0,0,.46-.15,1.34,1.34,0,0,0,.34-.49l.13-.3-1.85-4.17h.79l1.46,3.35,1.44-3.35Z" transform="translate(-138.18 -201.72)"/></svg>