<svg id="Layer_1" data-name="Layer 1" xmlns="http://www.w3.org/2000/svg" viewBox="0 0 465.8 223.44"><defs><style>.cls-1,.cls-4,.cls-6{fill:#ec694b;}.cls-1,.cls-2{fill-opacity:0.2;}.cls-2,.cls-3,.cls-5,.cls-7{fill:#919396;}.cls-4{fill-opacity:0.8;}.cls-5{fill-opacity:0.6;}.cls-6,.cls-7{fill-opacity:0.4;}.cls-8,.cls-9{fill:none;stroke:#000;stroke-width:2px;}.cls-9{stroke-opacity:0.5;stroke-dasharray:5 5;}.cls-10{fill-opacity:0.3;}.cls-11{fill:#fbe1db;}.cls-12{fill:#f7c3b7;}.cls-13{fill:#ef866e;}</style></defs><rect class="cls-1" x="100.07" y="31.36" width="131.49" height="28.45"/><rect class="cls-2" x="261.91" y="126.84" width="83.81" height="28.45"/><rect class="cls-3" x="100.07" y="155.29" width="161.84" height="28.45"/><rect class="cls-4" x="278.53" y="31.36" width="166.53" height="28.45"/><rect class="cls-5" x="378.95" y="69.93" width="66.11" height="28.45"/><rect class="cls-6" x="231.57" y="31.36" width="46.96" height="28.45"/><path class="cls-7" d="M423.5,150.31h33.24v28.46H423.5Z" transform="translate(-77.78 -51.93)"/><path class="cls-8" d="M177.5,79.18V243" transform="translate(-77.78 -51.93)"/><path class="cls-9" d="M522.84,79.18V235.72" transform="translate(-77.78 -51.93)"/><path class="cls-9" d="M456.74,121.86v56.91" transform="translate(-77.78 -51.93)"/><path class="cls-9" d="M339.69,178.77v56.91" transform="translate(-77.78 -51.93)"/><path class="cls-9" d="M423.5,150.31v56.91" transform="translate(-77.78 -51.93)"/><path d="M84.6,88.13v6.74h-.79l-4-5v5h-1V88.13h.79l4,5v-5Zm4.17,6.79a2.83,2.83,0,0,1-1.37-.33,2.57,2.57,0,0,1-1-.93,2.71,2.71,0,0,1-.34-1.35A2.66,2.66,0,0,1,86.45,91a2.43,2.43,0,0,1,1-.93,2.84,2.84,0,0,1,1.37-.34,2.77,2.77,0,0,1,1.36.34,2.34,2.34,0,0,1,.94.93,2.56,2.56,0,0,1,.35,1.33,2.61,2.61,0,0,1-.35,1.35,2.47,2.47,0,0,1-.94.93A2.77,2.77,0,0,1,88.77,94.92Zm0-.8a1.72,1.72,0,0,0,.88-.23,1.54,1.54,0,0,0,.61-.63,2,2,0,0,0,.23-1,1.89,1.89,0,0,0-.23-.93,1.51,1.51,0,0,0-.61-.64,1.87,1.87,0,0,0-1.76,0,1.59,1.59,0,0,0-.62.64,1.88,1.88,0,0,0-.22.93,2,2,0,0,0,.22,1,1.63,1.63,0,0,0,.62.63A1.72,1.72,0,0,0,88.77,94.12Zm4.92-3.5A1.49,1.49,0,0,1,94.4,90a2.46,2.46,0,0,1,1.14-.24v.9h-.21a1.56,1.56,0,0,0-1.18.45,1.75,1.75,0,0,0-.43,1.27v2.55H92.8V89.76h.89Zm9.48-.91a2.06,2.06,0,0,1,1.52.56,2.24,2.24,0,0,1,.57,1.66v2.94h-.93V92a1.6,1.6,0,0,0-.34-1.12,1.25,1.25,0,0,0-1-.38,1.44,1.44,0,0,0-1.12.45,1.7,1.7,0,0,0-.42,1.25v2.63h-.92V92a1.6,1.6,0,0,0-.35-1.12,1.24,1.24,0,0,0-1-.38,1.45,1.45,0,0,0-1.12.45,1.74,1.74,0,0,0-.41,1.25v2.63h-.93V89.76h.89v.76a1.76,1.76,0,0,1,.73-.59,2.29,2.29,0,0,1,1-.22,2.16,2.16,0,0,1,1.06.25,1.6,1.6,0,0,1,.71.7,2,2,0,0,1,.8-.7A2.79,2.79,0,0,1,103.17,89.71Zm5.75,0a2.32,2.32,0,0,1,1.62.52,2,2,0,0,1,.57,1.56v3.08h-.88v-.68a1.5,1.5,0,0,1-.66.55,2.62,2.62,0,0,1-1,.18,2.09,2.09,0,0,1-1.37-.41,1.34,1.34,0,0,1-.51-1.09,1.32,1.32,0,0,1,.49-1.08,2.41,2.41,0,0,1,1.56-.41h1.46v-.18a1.16,1.16,0,0,0-.35-.92,1.47,1.47,0,0,0-1-.32,2.68,2.68,0,0,0-.88.16,2.11,2.11,0,0,0-.73.39l-.39-.69a2.78,2.78,0,0,1,.94-.48A3.77,3.77,0,0,1,108.92,89.71Zm-.21,4.5a1.67,1.67,0,0,0,.91-.23,1.32,1.32,0,0,0,.56-.67v-.72h-1.42c-.79,0-1.18.27-1.18.79a.72.72,0,0,0,.3.61A1.34,1.34,0,0,0,108.71,94.21Zm4.21-6.49h.92v7.15h-.92Zm10.36,2v4.41a2.61,2.61,0,0,1-.67,2,2.73,2.73,0,0,1-2,.64,4.52,4.52,0,0,1-1.38-.2,2.68,2.68,0,0,1-1.06-.56l.45-.71a2.28,2.28,0,0,0,.87.48,3.37,3.37,0,0,0,1.09.18,1.8,1.8,0,0,0,1.32-.42,1.72,1.72,0,0,0,.43-1.29v-.4a2.07,2.07,0,0,1-.81.59,2.63,2.63,0,0,1-1,.2,3,3,0,0,1-1.33-.31,2.36,2.36,0,0,1-.92-.88,2.44,2.44,0,0,1-.34-1.29,2.38,2.38,0,0,1,.34-1.28,2.29,2.29,0,0,1,.92-.88,3,3,0,0,1,1.33-.31,2.53,2.53,0,0,1,1.07.22,2,2,0,0,1,.82.62v-.79Zm-2.66,4.09a1.75,1.75,0,0,0,.89-.22,1.54,1.54,0,0,0,.63-.58,1.62,1.62,0,0,0,.23-.87,1.53,1.53,0,0,0-.49-1.19,1.94,1.94,0,0,0-2.53,0,1.53,1.53,0,0,0-.49,1.19,1.71,1.71,0,0,0,.22.87,1.57,1.57,0,0,0,.62.58A1.87,1.87,0,0,0,120.62,93.85ZM127,89.71a2.32,2.32,0,0,1,1.62.52,2,2,0,0,1,.57,1.56v3.08h-.88v-.68a1.44,1.44,0,0,1-.66.55,2.57,2.57,0,0,1-1,.18,2.14,2.14,0,0,1-1.38-.41,1.34,1.34,0,0,1-.51-1.09,1.32,1.32,0,0,1,.49-1.08,2.45,2.45,0,0,1,1.56-.41h1.47v-.18a1.19,1.19,0,0,0-.35-.92,1.47,1.47,0,0,0-1-.32,2.74,2.74,0,0,0-.89.16,2.21,2.21,0,0,0-.73.39l-.39-.69a2.83,2.83,0,0,1,1-.48A3.66,3.66,0,0,1,127,89.71Zm-.21,4.5a1.72,1.72,0,0,0,.92-.23,1.42,1.42,0,0,0,.56-.67v-.72h-1.43c-.78,0-1.18.27-1.18.79a.72.72,0,0,0,.3.61A1.36,1.36,0,0,0,126.79,94.21Zm5.67.71a4.4,4.4,0,0,1-1.2-.16,2.6,2.6,0,0,1-.9-.43l.38-.73a3,3,0,0,0,.82.38,3.22,3.22,0,0,0,1,.15c.81,0,1.22-.24,1.22-.7a.45.45,0,0,0-.17-.36,1,1,0,0,0-.41-.2c-.16,0-.39-.09-.7-.14a8.92,8.92,0,0,1-1-.22,1.61,1.61,0,0,1-.66-.43,1.14,1.14,0,0,1-.28-.83,1.28,1.28,0,0,1,.58-1.11,2.57,2.57,0,0,1,1.55-.43,4.46,4.46,0,0,1,1,.13,2.72,2.72,0,0,1,.84.34l-.4.73a2.66,2.66,0,0,0-1.47-.41,1.71,1.71,0,0,0-.9.2.6.6,0,0,0-.31.51.47.47,0,0,0,.18.39.93.93,0,0,0,.42.21c.17,0,.42.1.72.16a7.61,7.61,0,0,1,1,.23,1.51,1.51,0,0,1,.65.4,1.17,1.17,0,0,1,.27.81,1.28,1.28,0,0,1-.6,1.11A2.78,2.78,0,0,1,132.46,94.92ZM80.13,107a4.34,4.34,0,0,1-1.2-.16,2.86,2.86,0,0,1-.91-.43l.39-.74a2.6,2.6,0,0,0,.82.39,3.21,3.21,0,0,0,1,.14c.81,0,1.21-.23,1.21-.69a.42.42,0,0,0-.16-.36,1,1,0,0,0-.41-.2c-.16,0-.4-.09-.7-.14a8.46,8.46,0,0,1-1-.22,1.55,1.55,0,0,1-.66-.43,1.17,1.17,0,0,1-.28-.84,1.27,1.27,0,0,1,.58-1.1,2.5,2.5,0,0,1,1.55-.43,4.46,4.46,0,0,1,1,.13,2.36,2.36,0,0,1,.83.34l-.39.73a2.66,2.66,0,0,0-1.47-.41,1.69,1.69,0,0,0-.9.2.56.56,0,0,0-.31.51.48.48,0,0,0,.18.39.93.93,0,0,0,.42.21c.17.05.41.1.72.16a6.12,6.12,0,0,1,1,.23,1.49,1.49,0,0,1,.66.4,1.17,1.17,0,0,1,.27.81,1.29,1.29,0,0,1-.6,1.11A2.8,2.8,0,0,1,80.13,107Zm8.22-5.16v5.11h-.87v-.77a2,2,0,0,1-.75.61,2.31,2.31,0,0,1-1,.21,2.26,2.26,0,0,1-1.61-.55,2.23,2.23,0,0,1-.58-1.67V101.8h.92v2.83a1.6,1.6,0,0,0,.36,1.13,1.32,1.32,0,0,0,1,.38,1.49,1.49,0,0,0,1.15-.45,1.7,1.7,0,0,0,.43-1.25V101.8Zm4.57,0a2.68,2.68,0,0,1,1.33.33,2.3,2.3,0,0,1,.91.92,2.6,2.6,0,0,1,.34,1.35,2.68,2.68,0,0,1-.34,1.37,2.37,2.37,0,0,1-.91.92,2.78,2.78,0,0,1-1.33.32,2.4,2.4,0,0,1-1-.21,2.07,2.07,0,0,1-.77-.61v2.63h-.93v-7h.89v.81a2,2,0,0,1,.78-.64A2.51,2.51,0,0,1,92.92,101.75Zm-.08,4.4a1.72,1.72,0,0,0,.88-.22,1.54,1.54,0,0,0,.61-.63,1.86,1.86,0,0,0,.24-1,1.79,1.79,0,0,0-.24-.93,1.51,1.51,0,0,0-.61-.64,1.82,1.82,0,0,0-.88-.22,1.71,1.71,0,0,0-.87.23,1.63,1.63,0,0,0-.62.63,1.88,1.88,0,0,0-.22.93,2,2,0,0,0,.22,1,1.57,1.57,0,0,0,.62.63A1.71,1.71,0,0,0,92.84,106.15Zm6.74-4.4a2.65,2.65,0,0,1,1.33.33,2.26,2.26,0,0,1,.92.92,2.71,2.71,0,0,1,.34,1.35,2.78,2.78,0,0,1-.34,1.37,2.33,2.33,0,0,1-.92.92,2.75,2.75,0,0,1-1.33.32,2.44,2.44,0,0,1-1-.21,2.07,2.07,0,0,1-.77-.61v2.63h-.92v-7h.88v.81a2.1,2.1,0,0,1,.78-.64A2.58,2.58,0,0,1,99.58,101.75Zm-.07,4.4a1.68,1.68,0,0,0,.87-.22,1.57,1.57,0,0,0,.62-.63,2,2,0,0,0,.23-1,1.89,1.89,0,0,0-.23-.93,1.53,1.53,0,0,0-.62-.64,1.78,1.78,0,0,0-.87-.22,1.75,1.75,0,0,0-.88.23,1.7,1.7,0,0,0-.62.63,2,2,0,0,0-.22.93,2.08,2.08,0,0,0,.22,1,1.63,1.63,0,0,0,.62.63A1.74,1.74,0,0,0,99.51,106.15Zm4-6.39h.93v7.15h-.93Zm7.31,2-2.47,5.62a2.45,2.45,0,0,1-.78,1.09,1.63,1.63,0,0,1-1,.32,2.3,2.3,0,0,1-.74-.12,1.49,1.49,0,0,1-.57-.35l.39-.69a1.28,1.28,0,0,0,.92.37.83.83,0,0,0,.55-.18,1.42,1.42,0,0,0,.42-.61l.16-.35-2.25-5.1h1l1.78,4.09L110,101.8Zm5.51,0a2.32,2.32,0,0,1,1.62.52,2,2,0,0,1,.57,1.55v3.09h-.88v-.68a1.47,1.47,0,0,1-.67.55,2.53,2.53,0,0,1-1,.18,2.09,2.09,0,0,1-1.37-.41,1.34,1.34,0,0,1-.51-1.09,1.32,1.32,0,0,1,.49-1.08,2.41,2.41,0,0,1,1.56-.41h1.46v-.18a1.16,1.16,0,0,0-.35-.92,1.47,1.47,0,0,0-1-.32,2.44,2.44,0,0,0-.88.16,2,2,0,0,0-.73.39l-.39-.69a2.78,2.78,0,0,1,.94-.48A3.77,3.77,0,0,1,116.36,101.75Zm-.21,4.5a1.76,1.76,0,0,0,.91-.23,1.36,1.36,0,0,0,.56-.67v-.72H116.2c-.79,0-1.18.27-1.18.79a.72.72,0,0,0,.3.61A1.34,1.34,0,0,0,116.15,106.25Zm5.67.71a4.29,4.29,0,0,1-1.2-.16,2.86,2.86,0,0,1-.91-.43l.39-.74a2.5,2.5,0,0,0,.82.39,3.21,3.21,0,0,0,1,.14c.81,0,1.21-.23,1.21-.69a.42.42,0,0,0-.16-.36,1,1,0,0,0-.42-.2c-.16,0-.39-.09-.69-.14a8.46,8.46,0,0,1-1-.22,1.64,1.64,0,0,1-.67-.43,1.21,1.21,0,0,1-.27-.84,1.28,1.28,0,0,1,.57-1.1,2.54,2.54,0,0,1,1.55-.43,4.61,4.61,0,0,1,1,.13,2.44,2.44,0,0,1,.83.34l-.39.73a2.67,2.67,0,0,0-1.48-.41,1.65,1.65,0,0,0-.89.2.56.56,0,0,0-.31.51.51.51,0,0,0,.17.39,1,1,0,0,0,.43.21c.17.05.41.1.72.16a6.12,6.12,0,0,1,1,.23,1.49,1.49,0,0,1,.66.4,1.17,1.17,0,0,1,.27.81,1.29,1.29,0,0,1-.6,1.11A2.8,2.8,0,0,1,121.82,107Zm8.34,0a2.8,2.8,0,0,1-1.37-.33,2.6,2.6,0,0,1-1-.93,2.75,2.75,0,0,1-.33-1.35,2.65,2.65,0,0,1,.33-1.33,2.45,2.45,0,0,1,1-.93,2.81,2.81,0,0,1,1.37-.34,2.73,2.73,0,0,1,1.35.34,2.36,2.36,0,0,1,1,.93,2.56,2.56,0,0,1,.34,1.33,2.66,2.66,0,0,1-.34,1.35,2.5,2.5,0,0,1-1,.93A2.73,2.73,0,0,1,130.16,107Zm0-.81a1.68,1.68,0,0,0,.87-.22,1.57,1.57,0,0,0,.62-.63,2,2,0,0,0,.22-1,1.88,1.88,0,0,0-.22-.93,1.53,1.53,0,0,0-.62-.64,1.78,1.78,0,0,0-.87-.22,1.86,1.86,0,0,0-.89.22,1.66,1.66,0,0,0-.62.64,2,2,0,0,0-.22.93,2.08,2.08,0,0,0,.22,1,1.7,1.7,0,0,0,.62.63A1.75,1.75,0,0,0,130.16,106.15Zm5.89-5.69c-.55,0-.83.3-.83.9v.44h1.49v.76h-1.47v4.35h-.92v-4.35h-.87v-.76h.87v-.45a1.66,1.66,0,0,1,.44-1.21A1.71,1.71,0,0,1,136,99.7a2.14,2.14,0,0,1,.58.08,1.23,1.23,0,0,1,.46.22l-.28.7A1.15,1.15,0,0,0,136.05,100.46Zm5.41.54v2.35h3.38v.83h-3.38v2.73h-1v-6.75h4.76V101Zm9.57,3.38a1.52,1.52,0,0,1,0,.28h-4.14a1.67,1.67,0,0,0,.59,1.09,2,2,0,0,0,1.26.4,1.92,1.92,0,0,0,1.48-.61l.51.6a2.25,2.25,0,0,1-.87.61,3,3,0,0,1-1.15.21,3.11,3.11,0,0,1-1.43-.32,2.53,2.53,0,0,1-1-.94,2.75,2.75,0,0,1-.33-1.35,2.68,2.68,0,0,1,.33-1.33,2.33,2.33,0,0,1,.91-.93,2.65,2.65,0,0,1,1.32-.34,2.54,2.54,0,0,1,1.3.34,2.3,2.3,0,0,1,.9.93A2.85,2.85,0,0,1,151,104.38Zm-2.52-1.85a1.63,1.63,0,0,0-1.12.41,1.65,1.65,0,0,0-.52,1.06h3.28a1.62,1.62,0,0,0-.53-1A1.57,1.57,0,0,0,148.51,102.53Zm6.61-.78a2.65,2.65,0,0,1,1.33.33,2.33,2.33,0,0,1,.92.92,2.7,2.7,0,0,1,.33,1.35,2.78,2.78,0,0,1-.33,1.37,2.39,2.39,0,0,1-.92.92,2.75,2.75,0,0,1-1.33.32,2.4,2.4,0,0,1-1-.22,2.1,2.1,0,0,1-.78-.64v.81h-.88V99.76h.92v2.81a1.88,1.88,0,0,1,.77-.6A2.29,2.29,0,0,1,155.12,101.75Zm-.07,4.4a1.68,1.68,0,0,0,.87-.22,1.57,1.57,0,0,0,.62-.63,2,2,0,0,0,.23-1,1.89,1.89,0,0,0-.23-.93,1.53,1.53,0,0,0-.62-.64,1.78,1.78,0,0,0-.87-.22,1.85,1.85,0,0,0-.88.22,1.59,1.59,0,0,0-.62.64,2,2,0,0,0-.22.93,2.08,2.08,0,0,0,.22,1,1.63,1.63,0,0,0,.62.63A1.74,1.74,0,0,0,155.05,106.15Zm11.22-6v.66l-2.73,6.09h-1l2.67-5.91h-3.08v1.21h-.93v-2Z" transform="translate(-77.78 -51.93)"/><path class="cls-10" d="M84.6,266.7v6.75h-.79l-4-5v5h-1V266.7h.79l4,5v-5Zm4.17,6.8a2.83,2.83,0,0,1-1.37-.33,2.57,2.57,0,0,1-1-.93,2.76,2.76,0,0,1-.34-1.35,2.66,2.66,0,0,1,.34-1.33,2.43,2.43,0,0,1,1-.93,2.84,2.84,0,0,1,1.37-.34,2.77,2.77,0,0,1,1.36.34,2.34,2.34,0,0,1,.94.93,2.56,2.56,0,0,1,.35,1.33,2.66,2.66,0,0,1-.35,1.35,2.47,2.47,0,0,1-.94.93A2.77,2.77,0,0,1,88.77,273.5Zm0-.81a1.72,1.72,0,0,0,.88-.22,1.54,1.54,0,0,0,.61-.63,2,2,0,0,0,.23-.95,1.89,1.89,0,0,0-.23-.93,1.51,1.51,0,0,0-.61-.64,1.87,1.87,0,0,0-1.76,0,1.59,1.59,0,0,0-.62.64,1.88,1.88,0,0,0-.22.93,2,2,0,0,0,.22.95,1.63,1.63,0,0,0,.62.63A1.72,1.72,0,0,0,88.77,272.69Zm6.9.46a1.7,1.7,0,0,1-.5.27,2.15,2.15,0,0,1-.62.08,1.46,1.46,0,0,1-1.62-1.59V269.1h-.86v-.76h.86v-1.12h.93v1.12h1.46v.76H93.86v2.77a.93.93,0,0,0,.2.63.78.78,0,0,0,.6.22,1.12,1.12,0,0,0,.72-.24Zm5.66-2.23c0,.07,0,.17,0,.28H97.17a1.63,1.63,0,0,0,.59,1.09,2,2,0,0,0,1.26.4,1.88,1.88,0,0,0,1.47-.61l.51.6a2.22,2.22,0,0,1-.86.61,3,3,0,0,1-1.15.21,3.11,3.11,0,0,1-1.43-.32,2.47,2.47,0,0,1-1-.94,2.93,2.93,0,0,1,0-2.68,2.42,2.42,0,0,1,.92-.93,2.65,2.65,0,0,1,1.32-.34,2.54,2.54,0,0,1,1.3.34,2.28,2.28,0,0,1,.89.93A2.74,2.74,0,0,1,101.33,270.92Zm-2.52-1.85a1.61,1.61,0,0,0-1.12.41,1.65,1.65,0,0,0-.52,1.06h3.28a1.66,1.66,0,0,0-.53-1.05A1.57,1.57,0,0,0,98.81,269.07Zm4.13.54a.67.67,0,0,1-.47-.18.69.69,0,0,1-.19-.48.63.63,0,0,1,.19-.46.65.65,0,0,1,.47-.2.58.58,0,0,1,.45.19.64.64,0,0,1,.18.47.65.65,0,0,1-.19.48A.6.6,0,0,1,102.94,269.61Zm0,3.89a.67.67,0,0,1-.47-.18.69.69,0,0,1-.19-.48.63.63,0,0,1,.19-.46.65.65,0,0,1,.47-.2.62.62,0,0,1,.45.19.64.64,0,0,1,.18.47.65.65,0,0,1-.19.48A.6.6,0,0,1,102.94,273.5Zm9.55-3.46h.93v2.63a3.87,3.87,0,0,1-1.17.63,4.3,4.3,0,0,1-1.39.22,3.76,3.76,0,0,1-1.84-.44,3.42,3.42,0,0,1,0-6,4.14,4.14,0,0,1,3.33-.17,2.92,2.92,0,0,1,1.12.77l-.59.59a2.73,2.73,0,0,0-2-.78,2.92,2.92,0,0,0-1.39.34,2.43,2.43,0,0,0-1,.93,2.68,2.68,0,0,0,0,2.65,2.5,2.5,0,0,0,1,.93,3,3,0,0,0,3-.1Zm4.59-1.75a2.32,2.32,0,0,1,1.62.52,2,2,0,0,1,.57,1.55v3.09h-.88v-.68a1.44,1.44,0,0,1-.66.55,2.57,2.57,0,0,1-1,.18,2.14,2.14,0,0,1-1.38-.41,1.34,1.34,0,0,1-.51-1.09,1.32,1.32,0,0,1,.49-1.08,2.45,2.45,0,0,1,1.56-.41h1.47v-.18a1.19,1.19,0,0,0-.35-.92,1.47,1.47,0,0,0-1-.32,2.5,2.5,0,0,0-.89.16,2,2,0,0,0-.73.39L115,269a2.83,2.83,0,0,1,1-.48A3.66,3.66,0,0,1,117.08,268.29Zm-.21,4.5a1.82,1.82,0,0,0,.92-.23,1.47,1.47,0,0,0,.56-.67v-.72h-1.43c-.78,0-1.18.27-1.18.79a.72.72,0,0,0,.3.61A1.36,1.36,0,0,0,116.87,272.79Zm5.68.71a4.42,4.42,0,0,1-1.21-.16,2.8,2.8,0,0,1-.9-.43l.38-.74a2.71,2.71,0,0,0,.82.39,3.25,3.25,0,0,0,1,.14c.81,0,1.22-.23,1.22-.69a.43.43,0,0,0-.17-.36,1,1,0,0,0-.41-.2c-.16,0-.39-.09-.69-.14a8.68,8.68,0,0,1-1-.22,1.68,1.68,0,0,1-.66-.43,1.17,1.17,0,0,1-.28-.84,1.27,1.27,0,0,1,.58-1.1,2.5,2.5,0,0,1,1.55-.43,4.46,4.46,0,0,1,1,.13,2.5,2.5,0,0,1,.84.34l-.4.73a2.64,2.64,0,0,0-1.47-.41,1.71,1.71,0,0,0-.9.2.57.57,0,0,0-.31.51.48.48,0,0,0,.18.39,1,1,0,0,0,.42.21l.72.16a6,6,0,0,1,1,.23,1.51,1.51,0,0,1,.65.4,1.17,1.17,0,0,1,.27.81,1.29,1.29,0,0,1-.6,1.11A2.77,2.77,0,0,1,122.55,273.5Zm12.53-5.21a2.06,2.06,0,0,1,1.52.56,2.23,2.23,0,0,1,.57,1.66v2.94h-.93v-2.84a1.59,1.59,0,0,0-.34-1.11,1.26,1.26,0,0,0-1-.38,1.46,1.46,0,0,0-1.11.44,1.74,1.74,0,0,0-.42,1.26v2.63h-.92v-2.84a1.59,1.59,0,0,0-.35-1.11,1.24,1.24,0,0,0-1-.38,1.48,1.48,0,0,0-1.12.44,1.78,1.78,0,0,0-.41,1.26v2.63h-.93v-5.11h.89v.76a1.76,1.76,0,0,1,.73-.59,2.29,2.29,0,0,1,1-.22,2.27,2.27,0,0,1,1.06.24,1.62,1.62,0,0,1,.71.71,2,2,0,0,1,.8-.7A2.79,2.79,0,0,1,135.08,268.29Zm8.53,2.63a1.52,1.52,0,0,1,0,.28h-4.14a1.67,1.67,0,0,0,.59,1.09,2,2,0,0,0,1.26.4,1.88,1.88,0,0,0,1.47-.61l.51.6a2.22,2.22,0,0,1-.86.61,3,3,0,0,1-1.15.21,3.11,3.11,0,0,1-1.43-.32,2.53,2.53,0,0,1-1-.94,2.93,2.93,0,0,1,0-2.68,2.42,2.42,0,0,1,.92-.93,2.65,2.65,0,0,1,1.32-.34,2.54,2.54,0,0,1,1.3.34,2.28,2.28,0,0,1,.89.93A2.74,2.74,0,0,1,143.61,270.92Zm-2.52-1.85a1.63,1.63,0,0,0-1.12.41,1.65,1.65,0,0,0-.52,1.06h3.28a1.66,1.66,0,0,0-.53-1.05A1.57,1.57,0,0,0,141.09,269.07Zm5.62-.78a2.32,2.32,0,0,1,1.62.52,2,2,0,0,1,.57,1.55v3.09H148v-.68a1.44,1.44,0,0,1-.66.55,2.57,2.57,0,0,1-1,.18,2.14,2.14,0,0,1-1.38-.41,1.34,1.34,0,0,1-.51-1.09,1.32,1.32,0,0,1,.49-1.08,2.45,2.45,0,0,1,1.56-.41H148v-.18a1.19,1.19,0,0,0-.35-.92,1.47,1.47,0,0,0-1-.32,2.5,2.5,0,0,0-.89.16,2,2,0,0,0-.73.39l-.38-.69a2.69,2.69,0,0,1,.94-.48A3.66,3.66,0,0,1,146.71,268.29Zm-.21,4.5a1.79,1.79,0,0,0,.92-.23,1.47,1.47,0,0,0,.56-.67v-.72h-1.43c-.78,0-1.17.27-1.17.79a.74.74,0,0,0,.29.61A1.36,1.36,0,0,0,146.5,272.79Zm5.68.71a4.42,4.42,0,0,1-1.21-.16,2.8,2.8,0,0,1-.9-.43l.38-.74a2.71,2.71,0,0,0,.82.39,3.25,3.25,0,0,0,1,.14c.81,0,1.22-.23,1.22-.69a.43.43,0,0,0-.17-.36,1,1,0,0,0-.41-.2c-.16,0-.39-.09-.69-.14a8.68,8.68,0,0,1-1-.22,1.68,1.68,0,0,1-.66-.43,1.17,1.17,0,0,1-.28-.84,1.27,1.27,0,0,1,.58-1.1,2.5,2.5,0,0,1,1.55-.43,4.46,4.46,0,0,1,1,.13,2.5,2.5,0,0,1,.84.34l-.4.73a2.64,2.64,0,0,0-1.47-.41,1.71,1.71,0,0,0-.9.2.56.56,0,0,0-.3.51.48.48,0,0,0,.17.39,1,1,0,0,0,.42.21l.72.16a6,6,0,0,1,1,.23,1.51,1.51,0,0,1,.65.4,1.17,1.17,0,0,1,.27.81,1.29,1.29,0,0,1-.6,1.11A2.77,2.77,0,0,1,152.18,273.5Zm8.22-5.16v5.11h-.88v-.77a1.93,1.93,0,0,1-.74.61,2.36,2.36,0,0,1-1,.21,2.22,2.22,0,0,1-1.6-.55,2.2,2.2,0,0,1-.59-1.67v-2.94h.92v2.83a1.6,1.6,0,0,0,.36,1.13,1.35,1.35,0,0,0,1,.38,1.53,1.53,0,0,0,1.16-.45,1.73,1.73,0,0,0,.42-1.25v-2.64Zm2.74.86a1.61,1.61,0,0,1,.71-.68,2.68,2.68,0,0,1,1.15-.23v.9h-.21a1.58,1.58,0,0,0-1.19.45,1.79,1.79,0,0,0-.42,1.27v2.55h-.92v-5.11h.88Zm7.67,1.72c0,.07,0,.17,0,.28h-4.14a1.61,1.61,0,0,0,.58,1.09,2,2,0,0,0,1.27.4,1.88,1.88,0,0,0,1.47-.61l.51.6a2.18,2.18,0,0,1-.87.61,3,3,0,0,1-1.14.21,3.18,3.18,0,0,1-1.44-.32,2.44,2.44,0,0,1-1-.94,2.85,2.85,0,0,1,0-2.68,2.39,2.39,0,0,1,.91-.93,2.7,2.7,0,0,1,1.32-.34,2.54,2.54,0,0,1,1.3.34,2.24,2.24,0,0,1,.9.93A2.74,2.74,0,0,1,170.81,270.92Zm-2.53-1.85a1.59,1.59,0,0,0-1.63,1.47h3.27a1.62,1.62,0,0,0-.53-1.05A1.53,1.53,0,0,0,168.28,269.07ZM177,266.3v7.15h-.89v-.81a2.1,2.1,0,0,1-.78.64,2.36,2.36,0,0,1-1,.22,2.78,2.78,0,0,1-1.33-.32,2.39,2.39,0,0,1-.92-.92,2.78,2.78,0,0,1-.33-1.37,2.7,2.7,0,0,1,.33-1.35,2.33,2.33,0,0,1,.92-.92,2.68,2.68,0,0,1,1.33-.33,2.26,2.26,0,0,1,1,.22,1.82,1.82,0,0,1,.77.6V266.3Zm-2.63,6.39a1.71,1.71,0,0,0,.87-.22,1.57,1.57,0,0,0,.62-.63,2,2,0,0,0,.22-.95,1.88,1.88,0,0,0-.22-.93,1.53,1.53,0,0,0-.62-.64,1.81,1.81,0,0,0-.87-.22,1.86,1.86,0,0,0-.89.22,1.66,1.66,0,0,0-.62.64,2,2,0,0,0-.22.93,2.08,2.08,0,0,0,.22.95,1.7,1.7,0,0,0,.62.63A1.75,1.75,0,0,0,174.38,272.69Zm7.16-4.35h.93v5.11h-.93Zm.47-1a.67.67,0,0,1-.46-.17.61.61,0,0,1-.17-.43.59.59,0,0,1,.17-.42.63.63,0,0,1,.46-.18.58.58,0,0,1,.44.17.54.54,0,0,1,.18.41.63.63,0,0,1-.18.45A.62.62,0,0,1,182,267.36Zm5.05.93a2.08,2.08,0,0,1,1.54.57,2.17,2.17,0,0,1,.58,1.65v2.94h-.93v-2.84a1.59,1.59,0,0,0-.35-1.11,1.35,1.35,0,0,0-1-.38,1.62,1.62,0,0,0-1.19.44,1.7,1.7,0,0,0-.43,1.26v2.63h-.93v-5.11h.89v.77a1.85,1.85,0,0,1,.75-.6A2.53,2.53,0,0,1,187.06,268.29Zm9.32,0a2.65,2.65,0,0,1,1.33.33,2.33,2.33,0,0,1,.92.92,2.7,2.7,0,0,1,.33,1.35,2.78,2.78,0,0,1-.33,1.37,2.39,2.39,0,0,1-.92.92,2.75,2.75,0,0,1-1.33.32,2.4,2.4,0,0,1-1-.22,2.1,2.1,0,0,1-.78-.64v.81h-.88V266.3h.92v2.81a1.88,1.88,0,0,1,.77-.6A2.29,2.29,0,0,1,196.38,268.29Zm-.07,4.4a1.68,1.68,0,0,0,.87-.22,1.57,1.57,0,0,0,.62-.63,2,2,0,0,0,.23-.95,1.89,1.89,0,0,0-.23-.93,1.53,1.53,0,0,0-.62-.64,1.78,1.78,0,0,0-.87-.22,1.82,1.82,0,0,0-.88.22,1.59,1.59,0,0,0-.62.64,1.88,1.88,0,0,0-.22.93,2,2,0,0,0,.22.95,1.63,1.63,0,0,0,.62.63A1.72,1.72,0,0,0,196.31,272.69Zm4-4.35h.93v5.11h-.93Zm.46-1a.64.64,0,0,1-.45-.17.61.61,0,0,1-.17-.43.59.59,0,0,1,.17-.42.61.61,0,0,1,.45-.18.6.6,0,0,1,.45.17.54.54,0,0,1,.18.41.63.63,0,0,1-.18.45A.64.64,0,0,1,200.8,267.36Zm2.33-1.06h.93v7.15h-.93Zm2.79,0h.93v7.15h-.93Zm2.79,2h.93v5.11h-.93Zm.46-1a.66.66,0,0,1-.45-.17.61.61,0,0,1-.17-.43.59.59,0,0,1,.17-.42.63.63,0,0,1,.45-.18.6.6,0,0,1,.45.17.54.54,0,0,1,.18.41.63.63,0,0,1-.18.45A.64.64,0,0,1,209.17,267.36Zm4.52,6.14a2.83,2.83,0,0,1-1.37-.33,2.57,2.57,0,0,1-.95-.93,2.66,2.66,0,0,1-.34-1.35,2.56,2.56,0,0,1,.34-1.33,2.43,2.43,0,0,1,.95-.93,2.84,2.84,0,0,1,1.37-.34,2.77,2.77,0,0,1,1.36.34,2.34,2.34,0,0,1,.94.93,2.56,2.56,0,0,1,.35,1.33,2.66,2.66,0,0,1-.35,1.35,2.47,2.47,0,0,1-.94.93A2.77,2.77,0,0,1,213.69,273.5Zm0-.81a1.72,1.72,0,0,0,.88-.22,1.61,1.61,0,0,0,.61-.63,2,2,0,0,0,.22-.95,1.88,1.88,0,0,0-.22-.93,1.57,1.57,0,0,0-.61-.64,1.82,1.82,0,0,0-.88-.22,1.89,1.89,0,0,0-.89.22,1.64,1.64,0,0,0-.61.64,1.88,1.88,0,0,0-.22.93,2,2,0,0,0,.22.95,1.68,1.68,0,0,0,.61.63A1.78,1.78,0,0,0,213.69,272.69Zm6.75-4.4a2.08,2.08,0,0,1,1.54.57,2.17,2.17,0,0,1,.58,1.65v2.94h-.92v-2.84a1.54,1.54,0,0,0-.36-1.11,1.35,1.35,0,0,0-1-.38,1.62,1.62,0,0,0-1.19.44,1.75,1.75,0,0,0-.43,1.26v2.63h-.92v-5.11h.88v.77a1.85,1.85,0,0,1,.75-.6A2.56,2.56,0,0,1,220.44,268.29Zm8.84,5.21a2.88,2.88,0,0,1-1.39-.33,2.6,2.6,0,0,1-1-.93,2.66,2.66,0,0,1-.34-1.35,2.56,2.56,0,0,1,.34-1.33,2.45,2.45,0,0,1,1-.93,2.89,2.89,0,0,1,1.39-.34,2.73,2.73,0,0,1,1.24.28,2,2,0,0,1,.84.81l-.7.45a1.55,1.55,0,0,0-.6-.54,1.59,1.59,0,0,0-.79-.19,1.93,1.93,0,0,0-.9.22,1.68,1.68,0,0,0-.63.64,2,2,0,0,0-.22.93,2.12,2.12,0,0,0,.22,1,1.63,1.63,0,0,0,.63.62,1.82,1.82,0,0,0,.9.22,1.7,1.7,0,0,0,.79-.18,1.5,1.5,0,0,0,.6-.55l.7.45a2,2,0,0,1-.84.81A2.61,2.61,0,0,1,229.28,273.5Zm8.14-5.16v5.11h-.88v-.77a1.86,1.86,0,0,1-.74.61,2.31,2.31,0,0,1-1,.21,2,2,0,0,1-2.2-2.22v-2.94h.93v2.83a1.64,1.64,0,0,0,.35,1.13,1.36,1.36,0,0,0,1,.38,1.51,1.51,0,0,0,1.15-.45,1.74,1.74,0,0,0,.43-1.25v-2.64Zm4.57,0a2.7,2.7,0,0,1,1.33.33,2.3,2.3,0,0,1,.91.92,2.6,2.6,0,0,1,.34,1.35,2.68,2.68,0,0,1-.34,1.37,2.37,2.37,0,0,1-.91.92,2.81,2.81,0,0,1-1.33.32,2.36,2.36,0,0,1-1-.22,2,2,0,0,1-.78-.64v.81h-.89V266.3h.93v2.81a1.82,1.82,0,0,1,.77-.6A2.23,2.23,0,0,1,242,268.29Zm-.08,4.4a1.72,1.72,0,0,0,.88-.22,1.61,1.61,0,0,0,.61-.63,1.86,1.86,0,0,0,.23-.95,1.78,1.78,0,0,0-.23-.93,1.57,1.57,0,0,0-.61-.64,1.82,1.82,0,0,0-.88-.22,1.88,1.88,0,0,0-.88.22,1.51,1.51,0,0,0-.61.64,1.88,1.88,0,0,0-.22.93,2,2,0,0,0,.22.95,1.54,1.54,0,0,0,.61.63A1.77,1.77,0,0,0,241.91,272.69Zm4-4.35h.92v5.11H246Zm.46-1a.64.64,0,0,1-.45-.17.58.58,0,0,1-.18-.43.56.56,0,0,1,.18-.42.61.61,0,0,1,.45-.18.57.57,0,0,1,.44.17.54.54,0,0,1,.18.41.63.63,0,0,1-.18.45A.6.6,0,0,1,246.41,267.36ZM251,273.5a3,3,0,0,1-1.4-.33,2.57,2.57,0,0,1-.95-.93,2.66,2.66,0,0,1-.35-1.35,2.56,2.56,0,0,1,.35-1.33,2.43,2.43,0,0,1,.95-.93,3,3,0,0,1,1.4-.34,2.72,2.72,0,0,1,1.23.28,2,2,0,0,1,.85.81l-.7.45a1.55,1.55,0,0,0-.6-.54,1.62,1.62,0,0,0-.79-.19,1.93,1.93,0,0,0-.9.22,1.55,1.55,0,0,0-.63.64,1.88,1.88,0,0,0-.22.93,2,2,0,0,0,.22,1,1.51,1.51,0,0,0,.63.62,1.82,1.82,0,0,0,.9.22,1.73,1.73,0,0,0,.79-.18,1.5,1.5,0,0,0,.6-.55l.7.45a2,2,0,0,1-.85.81A2.59,2.59,0,0,1,251,273.5Zm7.93-6.5c-.55,0-.82.3-.82.9v.44h1.48v.76h-1.47v4.35h-.92V269.1h-.87v-.76h.87v-.45a1.66,1.66,0,0,1,.44-1.21,1.72,1.72,0,0,1,1.25-.44,2.12,2.12,0,0,1,.57.08,1.36,1.36,0,0,1,.47.22l-.28.7A1.18,1.18,0,0,0,258.89,267Zm6.17,3.92c0,.07,0,.17,0,.28H260.9a1.63,1.63,0,0,0,.59,1.09,2,2,0,0,0,1.26.4,1.88,1.88,0,0,0,1.47-.61l.51.6a2.18,2.18,0,0,1-.87.61,3,3,0,0,1-1.14.21,3.18,3.18,0,0,1-1.44-.32,2.51,2.51,0,0,1-1-.94,2.76,2.76,0,0,1-.34-1.35,2.68,2.68,0,0,1,.33-1.33,2.42,2.42,0,0,1,.92-.93,2.65,2.65,0,0,1,1.32-.34,2.57,2.57,0,0,1,1.3.34,2.28,2.28,0,0,1,.89.93A2.74,2.74,0,0,1,265.06,270.92Zm-2.52-1.85a1.59,1.59,0,0,0-1.64,1.47h3.27a1.57,1.57,0,0,0-.53-1.05A1.52,1.52,0,0,0,262.54,269.07Zm8.52,1.85c0,.07,0,.17,0,.28H266.9a1.61,1.61,0,0,0,.58,1.09,2,2,0,0,0,1.27.4,1.88,1.88,0,0,0,1.47-.61l.51.6a2.18,2.18,0,0,1-.87.61,3,3,0,0,1-1.14.21,3.18,3.18,0,0,1-1.44-.32,2.44,2.44,0,0,1-1-.94,2.85,2.85,0,0,1,0-2.68,2.39,2.39,0,0,1,.91-.93,2.7,2.7,0,0,1,1.32-.34,2.54,2.54,0,0,1,1.3.34,2.24,2.24,0,0,1,.9.93A2.74,2.74,0,0,1,271.06,270.92Zm-2.53-1.85a1.59,1.59,0,0,0-1.63,1.47h3.27a1.62,1.62,0,0,0-.53-1.05A1.53,1.53,0,0,0,268.53,269.07Zm6.78,4.08a1.58,1.58,0,0,1-.5.27,2.11,2.11,0,0,1-.62.08,1.61,1.61,0,0,1-1.19-.41,1.59,1.59,0,0,1-.42-1.18V269.1h-.87v-.76h.87v-1.12h.92v1.12H275v.76H273.5v2.77a.93.93,0,0,0,.2.63.78.78,0,0,0,.6.22,1.12,1.12,0,0,0,.72-.24Zm6.61-4.86a2.65,2.65,0,0,1,1.33.33,2.33,2.33,0,0,1,.92.92,2.7,2.7,0,0,1,.33,1.35,2.78,2.78,0,0,1-.33,1.37,2.39,2.39,0,0,1-.92.92,2.75,2.75,0,0,1-1.33.32,2.44,2.44,0,0,1-1-.21,2.07,2.07,0,0,1-.77-.61v2.63h-.92v-7h.88v.81a2.1,2.1,0,0,1,.78-.64A2.55,2.55,0,0,1,281.92,268.29Zm-.07,4.4a1.71,1.71,0,0,0,.87-.22,1.63,1.63,0,0,0,.62-.63,2,2,0,0,0,.23-.95,1.89,1.89,0,0,0-.23-.93,1.59,1.59,0,0,0-.62-.64,1.81,1.81,0,0,0-.87-.22,1.72,1.72,0,0,0-.88.23,1.7,1.7,0,0,0-.62.63,1.88,1.88,0,0,0-.22.93,2,2,0,0,0,.22.95,1.63,1.63,0,0,0,.62.63A1.72,1.72,0,0,0,281.85,272.69Zm8.64-1.77c0,.07,0,.17,0,.28h-4.15a1.67,1.67,0,0,0,.59,1.09,2,2,0,0,0,1.26.4,1.92,1.92,0,0,0,1.48-.61l.51.6a2.18,2.18,0,0,1-.87.61,3,3,0,0,1-1.15.21,3.17,3.17,0,0,1-1.43-.32,2.44,2.44,0,0,1-1-.94,2.85,2.85,0,0,1,0-2.68,2.39,2.39,0,0,1,.91-.93,2.65,2.65,0,0,1,1.32-.34,2.54,2.54,0,0,1,1.3.34,2.24,2.24,0,0,1,.9.93A2.73,2.73,0,0,1,290.49,270.92ZM288,269.07a1.65,1.65,0,0,0-1.12.41,1.7,1.7,0,0,0-.52,1.06h3.28a1.62,1.62,0,0,0-.53-1.05A1.57,1.57,0,0,0,288,269.07Zm4.8.13a1.56,1.56,0,0,1,.71-.68,2.6,2.6,0,0,1,1.14-.23v.9h-.21a1.56,1.56,0,0,0-1.18.45,1.75,1.75,0,0,0-.43,1.27v2.55h-.92v-5.11h.89Zm10.66-2.9v7.15h-.88v-.81a2.1,2.1,0,0,1-.78.64,2.43,2.43,0,0,1-1,.22,2.75,2.75,0,0,1-1.33-.32,2.42,2.42,0,0,1-.93-.92,2.78,2.78,0,0,1-.33-1.37,2.7,2.7,0,0,1,.33-1.35,2.35,2.35,0,0,1,.93-.92,2.65,2.65,0,0,1,1.33-.33,2.29,2.29,0,0,1,1,.22,1.88,1.88,0,0,1,.77.6V266.3Zm-2.63,6.39a1.74,1.74,0,0,0,.88-.22,1.63,1.63,0,0,0,.62-.63,2.08,2.08,0,0,0,.22-.95,2,2,0,0,0-.22-.93,1.59,1.59,0,0,0-.62-.64,1.87,1.87,0,0,0-1.76,0,1.59,1.59,0,0,0-.62.64,1.88,1.88,0,0,0-.22.93,2,2,0,0,0,.22.95,1.63,1.63,0,0,0,.62.63A1.74,1.74,0,0,0,300.8,272.69Zm6.34-4.4a2.32,2.32,0,0,1,1.62.52,2,2,0,0,1,.57,1.55v3.09h-.88v-.68a1.5,1.5,0,0,1-.66.55,2.62,2.62,0,0,1-1,.18,2.09,2.09,0,0,1-1.37-.41,1.34,1.34,0,0,1-.51-1.09,1.32,1.32,0,0,1,.49-1.08,2.45,2.45,0,0,1,1.56-.41h1.46v-.18a1.19,1.19,0,0,0-.34-.92,1.51,1.51,0,0,0-1-.32,2.44,2.44,0,0,0-.88.16,2,2,0,0,0-.73.39L305,269a2.74,2.74,0,0,1,1-.48A3.66,3.66,0,0,1,307.14,268.29Zm-.21,4.5a1.76,1.76,0,0,0,.91-.23,1.36,1.36,0,0,0,.56-.67v-.72H307c-.79,0-1.18.27-1.18.79a.72.72,0,0,0,.3.61A1.36,1.36,0,0,0,306.93,272.79Zm8.63-4.45L313.09,274a2.52,2.52,0,0,1-.77,1.09,1.68,1.68,0,0,1-1.05.32,2.34,2.34,0,0,1-.74-.12,1.49,1.49,0,0,1-.57-.35l.39-.69a1.28,1.28,0,0,0,.92.37.83.83,0,0,0,.55-.18,1.42,1.42,0,0,0,.42-.61l.16-.35-2.25-5.1h1l1.78,4.09,1.77-4.09Z" transform="translate(-77.78 -51.93)"/><path d="M538.2,96.53h-1.28v1.65H536V96.53h-3.75v-.68l3.45-4.41h1l-3.3,4.26H536V94.23h.91V95.7h1.28Zm2.58-2.4a3.32,3.32,0,0,1,2.12.55,1.79,1.79,0,0,1,.68,1.48,2.08,2.08,0,0,1-.29,1.08,2,2,0,0,1-.85.75,3.31,3.31,0,0,1-1.41.27,4.57,4.57,0,0,1-1.38-.21,3.15,3.15,0,0,1-1.1-.61l.45-.76a2.46,2.46,0,0,0,.88.53,3.33,3.33,0,0,0,1.14.19,1.89,1.89,0,0,0,1.17-.31,1.14,1.14,0,0,0,0-1.81,2.89,2.89,0,0,0-1.57-.31H539l.36-3.53h3.81v.84h-3L540,94.13Z" transform="translate(-77.78 -51.93)"/><path d="M442.43,98.93v.83h-4.84v-.65l2.74-2.65a3.26,3.26,0,0,0,.67-.83,1.53,1.53,0,0,0,.18-.71,1,1,0,0,0-.38-.82,1.63,1.63,0,0,0-1.06-.3,2.13,2.13,0,0,0-1.72.73l-.66-.56a2.72,2.72,0,0,1,1-.75,3.7,3.7,0,0,1,1.44-.27,2.55,2.55,0,0,1,1.68.51,1.64,1.64,0,0,1,.63,1.36,2.38,2.38,0,0,1-.23,1,3.89,3.89,0,0,1-.88,1.1l-2.06,2Zm5.63,0v.83h-4.84v-.65L446,96.46a3.59,3.59,0,0,0,.68-.83,1.65,1.65,0,0,0,.17-.71,1,1,0,0,0-.38-.82,1.61,1.61,0,0,0-1.06-.3,2.13,2.13,0,0,0-1.72.73L443,94a2.68,2.68,0,0,1,1-.75,3.64,3.64,0,0,1,1.43-.27,2.6,2.6,0,0,1,1.69.51,1.66,1.66,0,0,1,.62,1.36,2.38,2.38,0,0,1-.23,1,3.89,3.89,0,0,1-.88,1.1l-2.06,2Z" transform="translate(-77.78 -51.93)"/><path d="M240.38,93v6.74h-1v-5.9H237.9V93Zm6.48,0v.66l-2.72,6.08h-1l2.66-5.9H242.7v1.2h-.92V93Z" transform="translate(-77.78 -51.93)"/><path d="M490.45,132.78a2.55,2.55,0,0,1,2.09.88,3.75,3.75,0,0,1,.74,2.48,4.23,4.23,0,0,1-.4,1.93,2.77,2.77,0,0,1-1.12,1.2,3.31,3.31,0,0,1-1.67.41,3.93,3.93,0,0,1-.92-.1,2.56,2.56,0,0,1-.75-.3l.37-.75a2.36,2.36,0,0,0,1.3.32,2.1,2.1,0,0,0,1.63-.65,2.7,2.7,0,0,0,.6-1.89v-.24a1.87,1.87,0,0,1-.8.66,2.81,2.81,0,0,1-1.15.22,2.7,2.7,0,0,1-1.19-.25,2,2,0,0,1-.82-.71,2,2,0,0,1,.88-2.94A2.66,2.66,0,0,1,490.45,132.78Zm.09,3.39a1.92,1.92,0,0,0,.81-.17,1.34,1.34,0,0,0,.55-.47,1.2,1.2,0,0,0,.2-.67,1.1,1.1,0,0,0-.19-.64,1.36,1.36,0,0,0-.55-.48,1.93,1.93,0,0,0-.87-.18,1.6,1.6,0,0,0-1.08.36,1.2,1.2,0,0,0-.4,1,1.22,1.22,0,0,0,.41,1A1.7,1.7,0,0,0,490.54,136.17Z" transform="translate(-77.78 -51.93)"/><path d="M443.56,166.4h-1.28v1.65h-.94V166.4h-3.75v-.68l3.45-4.41h1l-3.3,4.26h2.59v-1.46h.91v1.46h1.28Z" transform="translate(-77.78 -51.93)"/><path d="M381.26,189.77v6.74h-.95v-5.9h-1.53v-.84Zm6.31,5.9v.84h-4.84v-.66l2.74-2.64a3.53,3.53,0,0,0,.68-.83,1.72,1.72,0,0,0,.17-.72,1,1,0,0,0-.37-.81,1.65,1.65,0,0,0-1.06-.3,2.12,2.12,0,0,0-1.73.73l-.65-.57a2.58,2.58,0,0,1,1-.75,3.68,3.68,0,0,1,1.43-.27,2.6,2.6,0,0,1,1.69.51,1.64,1.64,0,0,1,.62,1.37,2.24,2.24,0,0,1-.23,1,4,4,0,0,1-.87,1.1l-2.06,2Z" transform="translate(-77.78 -51.93)"/><path d="M345.6,218.22V225h-1v-5.9h-1.52v-.84Zm3.77-.08a2.6,2.6,0,0,1,2.09.88,3.77,3.77,0,0,1,.74,2.49,4.19,4.19,0,0,1-.41,1.92,2.78,2.78,0,0,1-1.11,1.21,3.33,3.33,0,0,1-1.67.4,3.82,3.82,0,0,1-.92-.1,3.09,3.09,0,0,1-.76-.29l.37-.76a2.3,2.3,0,0,0,1.3.32,2.1,2.1,0,0,0,1.64-.64,2.72,2.72,0,0,0,.59-1.9v-.24a1.77,1.77,0,0,1-.79.66,2.88,2.88,0,0,1-1.15.22,2.77,2.77,0,0,1-1.2-.25,1.89,1.89,0,0,1-1.1-1.79,2,2,0,0,1,.31-1.11,2.06,2.06,0,0,1,.85-.75A2.7,2.7,0,0,1,349.37,218.14Zm.08,3.39a1.78,1.78,0,0,0,.81-.17,1.27,1.27,0,0,0,.55-.47,1.2,1.2,0,0,0,0-1.31,1.17,1.17,0,0,0-.55-.47,1.9,1.9,0,0,0-.87-.19,1.56,1.56,0,0,0-1.07.36,1.22,1.22,0,0,0-.41.95,1.2,1.2,0,0,0,.42,1A1.66,1.66,0,0,0,349.45,221.53Z" transform="translate(-77.78 -51.93)"/><path d="M332.23,96.94a2.65,2.65,0,0,1,1.18.25,1.88,1.88,0,0,1,.83.72,1.91,1.91,0,0,1,.3,1.07,2,2,0,0,1-1.18,1.87,2.79,2.79,0,0,1-1.21.26,2.6,2.6,0,0,1-2.1-.88,3.74,3.74,0,0,1-.73-2.48,4.29,4.29,0,0,1,.39-1.92,2.86,2.86,0,0,1,1.12-1.21,3.37,3.37,0,0,1,1.68-.41,3.93,3.93,0,0,1,.92.11,2.3,2.3,0,0,1,.75.29l-.36.75a2.26,2.26,0,0,0-1.29-.32,2.15,2.15,0,0,0-1.65.65,2.68,2.68,0,0,0-.6,1.89,1.63,1.63,0,0,0,0,.24,1.74,1.74,0,0,1,.79-.65A2.66,2.66,0,0,1,332.23,96.94Zm-.12,3.39a1.6,1.6,0,0,0,1.08-.36,1.19,1.19,0,0,0,.41-1,1.17,1.17,0,0,0-.42-1,1.71,1.71,0,0,0-1.12-.35,1.78,1.78,0,0,0-.81.17,1.38,1.38,0,0,0-.54.47,1.2,1.2,0,0,0-.2.67,1.17,1.17,0,0,0,.19.65,1.39,1.39,0,0,0,.54.47A2,2,0,0,0,332.11,100.33Z" transform="translate(-77.78 -51.93)"/><path d="M83.1,216.7H79.52l-.75,1.68h-1l3.06-6.74h1l3.06,6.74h-1Zm-.34-.77-1.45-3.31-1.46,3.31Zm7.32-2.65-2.24,5.1H86.9l-2.24-5.1h1l1.75,4.09,1.79-4.09Zm2.66-.05a2.33,2.33,0,0,1,1.62.52,2,2,0,0,1,.57,1.55v3.08h-.88v-.67a1.53,1.53,0,0,1-.67.55,2.57,2.57,0,0,1-1,.18A2.15,2.15,0,0,1,91,218a1.34,1.34,0,0,1-.51-1.09,1.32,1.32,0,0,1,.49-1.08,2.35,2.35,0,0,1,1.56-.41H94v-.19a1.15,1.15,0,0,0-.35-.91,1.47,1.47,0,0,0-1-.32,2.44,2.44,0,0,0-.88.16,2,2,0,0,0-.73.39l-.39-.69a2.46,2.46,0,0,1,.94-.48A3.77,3.77,0,0,1,92.74,213.23Zm-.21,4.5a1.76,1.76,0,0,0,.91-.23,1.34,1.34,0,0,0,.56-.68v-.71H92.58c-.79,0-1.18.26-1.18.79a.72.72,0,0,0,.3.61A1.34,1.34,0,0,0,92.53,217.73Zm4.21-4.45h.92v5.1h-.92Zm.46-1a.61.61,0,0,1-.45-.18.58.58,0,0,1,0-.84.58.58,0,0,1,.45-.19.57.57,0,0,1,.44.18.53.53,0,0,1,.19.41.61.61,0,0,1-.19.44A.57.57,0,0,1,97.2,212.3Zm2.33-1.06h.92v7.14h-.92Zm4.65,2a2.31,2.31,0,0,1,1.61.52,2,2,0,0,1,.57,1.55v3.08h-.87v-.67a1.53,1.53,0,0,1-.67.55,2.57,2.57,0,0,1-1,.18,2.2,2.2,0,0,1-1.38-.41,1.43,1.43,0,0,1,0-2.17,2.39,2.39,0,0,1,1.56-.41h1.47v-.19a1.18,1.18,0,0,0-.35-.91,1.47,1.47,0,0,0-1-.32,2.5,2.5,0,0,0-.89.16,2.13,2.13,0,0,0-.73.39l-.38-.69a2.39,2.39,0,0,1,.94-.48A3.77,3.77,0,0,1,104.18,213.23Zm-.22,4.5a1.79,1.79,0,0,0,.92-.23,1.39,1.39,0,0,0,.56-.68v-.71H104c-.78,0-1.17.26-1.17.79a.72.72,0,0,0,.3.61A1.33,1.33,0,0,0,104,217.73Zm6.92-4.5a2.68,2.68,0,0,1,1.33.33,2.28,2.28,0,0,1,.91.91,2.91,2.91,0,0,1,0,2.73,2.22,2.22,0,0,1-.91.91,2.68,2.68,0,0,1-1.33.33,2.36,2.36,0,0,1-1-.22,2.1,2.1,0,0,1-.78-.64v.8h-.89v-7.14h.93v2.81a1.92,1.92,0,0,1,.77-.61A2.4,2.4,0,0,1,110.88,213.23Zm-.08,4.4a1.72,1.72,0,0,0,.88-.22,1.63,1.63,0,0,0,.62-.63,2,2,0,0,0,.23-.95,1.89,1.89,0,0,0-.23-.93,1.59,1.59,0,0,0-.62-.64,1.85,1.85,0,0,0-1.75,0,1.53,1.53,0,0,0-.62.64,1.88,1.88,0,0,0-.22.93,2,2,0,0,0,.22.95,1.57,1.57,0,0,0,.62.63A1.71,1.71,0,0,0,110.8,217.63Zm4-6.39h.92v7.14h-.92Zm7.4,4.62a1.58,1.58,0,0,1,0,.28h-4.14a1.67,1.67,0,0,0,.59,1.09,2,2,0,0,0,1.26.4,1.88,1.88,0,0,0,1.47-.61l.52.59a2.27,2.27,0,0,1-.87.62,3.26,3.26,0,0,1-2.58-.12,2.44,2.44,0,0,1-1-.93,2.91,2.91,0,0,1,0-2.69,2.37,2.37,0,0,1,.91-.92,2.55,2.55,0,0,1,1.32-.34,2.45,2.45,0,0,1,1.3.34,2.41,2.41,0,0,1,.9.92A2.91,2.91,0,0,1,122.24,215.86ZM119.72,214a1.63,1.63,0,0,0-1.12.41,1.65,1.65,0,0,0-.52,1.06h3.28a1.62,1.62,0,0,0-.53-1A1.57,1.57,0,0,0,119.72,214Zm11.48-.73v4.41a2.62,2.62,0,0,1-.67,2,2.73,2.73,0,0,1-2,.64,4.85,4.85,0,0,1-1.38-.2,2.73,2.73,0,0,1-1.06-.56l.44-.71a2.74,2.74,0,0,0,.88.48,3.37,3.37,0,0,0,1.09.18,1.8,1.8,0,0,0,1.32-.42,1.72,1.72,0,0,0,.43-1.29v-.41a2,2,0,0,1-.81.6,2.63,2.63,0,0,1-1,.19,2.83,2.83,0,0,1-1.33-.31,2.34,2.34,0,0,1-.92-.87,2.44,2.44,0,0,1-.34-1.29,2.38,2.38,0,0,1,.34-1.28,2.29,2.29,0,0,1,.92-.88,2.83,2.83,0,0,1,1.33-.31,2.69,2.69,0,0,1,1.07.21,1.91,1.91,0,0,1,.82.63v-.79Zm-2.66,4.08a1.86,1.86,0,0,0,.89-.21,1.56,1.56,0,0,0,.63-.59,1.65,1.65,0,0,0,.23-.86,1.54,1.54,0,0,0-.49-1.2,2,2,0,0,0-2.53,0,1.54,1.54,0,0,0-.49,1.2,1.64,1.64,0,0,0,.22.86,1.6,1.6,0,0,0,.62.59A2,2,0,0,0,128.54,217.36Zm6.38-4.13a2.32,2.32,0,0,1,1.62.52,2,2,0,0,1,.57,1.55v3.08h-.88v-.67a1.44,1.44,0,0,1-.66.55,2.57,2.57,0,0,1-1,.18,2.2,2.2,0,0,1-1.38-.41,1.34,1.34,0,0,1-.51-1.09,1.32,1.32,0,0,1,.49-1.08,2.39,2.39,0,0,1,1.56-.41h1.46v-.19a1.18,1.18,0,0,0-.34-.91,1.47,1.47,0,0,0-1-.32,2.5,2.5,0,0,0-.89.16,2,2,0,0,0-.73.39l-.39-.69a2.51,2.51,0,0,1,.95-.48A3.66,3.66,0,0,1,134.92,213.23Zm-.21,4.5a1.82,1.82,0,0,0,.92-.23,1.37,1.37,0,0,0,.55-.68v-.71h-1.42c-.78,0-1.18.26-1.18.79a.72.72,0,0,0,.3.61A1.36,1.36,0,0,0,134.71,217.73Zm5.67.71a4.4,4.4,0,0,1-1.2-.16,2.8,2.8,0,0,1-.9-.43l.38-.74a3,3,0,0,0,.82.39,3.55,3.55,0,0,0,1,.14c.81,0,1.22-.23,1.22-.69a.47.47,0,0,0-.17-.37,1,1,0,0,0-.41-.19c-.16,0-.39-.09-.7-.14a7,7,0,0,1-1-.23,1.5,1.5,0,0,1-.66-.42,1.17,1.17,0,0,1-.28-.84,1.27,1.27,0,0,1,.58-1.1,2.5,2.5,0,0,1,1.55-.43,4,4,0,0,1,1,.13,2.73,2.73,0,0,1,.84.33l-.4.74a2.66,2.66,0,0,0-1.47-.41,1.83,1.83,0,0,0-.9.19.6.6,0,0,0-.31.51.49.49,0,0,0,.18.4.93.93,0,0,0,.42.21c.17,0,.42.1.72.16a6.27,6.27,0,0,1,1,.23,1.42,1.42,0,0,1,.65.4,1.13,1.13,0,0,1,.27.81A1.29,1.29,0,0,1,142,218,2.78,2.78,0,0,1,140.38,218.44Zm-60.25,12a4.34,4.34,0,0,1-1.2-.16,2.66,2.66,0,0,1-.91-.44l.39-.73a2.84,2.84,0,0,0,.82.39,3.55,3.55,0,0,0,1,.14c.81,0,1.21-.23,1.21-.69a.44.44,0,0,0-.16-.37,1,1,0,0,0-.41-.19,6.06,6.06,0,0,0-.7-.14,6.71,6.71,0,0,1-1-.23,1.44,1.44,0,0,1-.66-.42,1.17,1.17,0,0,1-.28-.84,1.3,1.3,0,0,1,.58-1.11,2.57,2.57,0,0,1,1.55-.42,4,4,0,0,1,1,.13,2.56,2.56,0,0,1,.83.33l-.39.73a2.74,2.74,0,0,0-1.47-.4,1.7,1.7,0,0,0-.9.19.58.58,0,0,0-.31.51.49.49,0,0,0,.18.4,1,1,0,0,0,.42.21,6.2,6.2,0,0,0,.72.15,7.21,7.21,0,0,1,1,.24,1.4,1.4,0,0,1,.66.4,1.13,1.13,0,0,1,.27.81,1.29,1.29,0,0,1-.6,1.11A2.8,2.8,0,0,1,80.13,230.48Zm8.22-5.16v5.1h-.87v-.77a1.9,1.9,0,0,1-.75.62,2.31,2.31,0,0,1-1,.21,2.27,2.27,0,0,1-1.61-.56,2.21,2.21,0,0,1-.58-1.66v-2.94h.92v2.83a1.61,1.61,0,0,0,.36,1.13,1.32,1.32,0,0,0,1,.37,1.49,1.49,0,0,0,1.15-.44,1.71,1.71,0,0,0,.43-1.25v-2.64Zm4.57,0a2.68,2.68,0,0,1,1.33.33,2.34,2.34,0,0,1,.91.91,2.64,2.64,0,0,1,.34,1.36,2.7,2.7,0,0,1-.34,1.37,2.28,2.28,0,0,1-.91.91,2.68,2.68,0,0,1-1.33.33,2.4,2.4,0,0,1-1-.21,2.1,2.1,0,0,1-.77-.62v2.64h-.93v-7h.89v.81a1.88,1.88,0,0,1,.78-.64A2.36,2.36,0,0,1,92.92,225.27Zm-.08,4.4a1.72,1.72,0,0,0,.88-.22,1.57,1.57,0,0,0,.61-.64,1.83,1.83,0,0,0,.24-.94,1.79,1.79,0,0,0-.24-.93,1.51,1.51,0,0,0-.61-.64,1.81,1.81,0,0,0-1.75,0,1.63,1.63,0,0,0-.62.63,1.88,1.88,0,0,0-.22.93,1.92,1.92,0,0,0,.22.94,1.59,1.59,0,0,0,.62.64A1.71,1.71,0,0,0,92.84,229.67Zm6.74-4.4a2.65,2.65,0,0,1,1.33.33,2.3,2.3,0,0,1,.92.91,2.74,2.74,0,0,1,.34,1.36,2.81,2.81,0,0,1-.34,1.37,2.24,2.24,0,0,1-.92.91,2.65,2.65,0,0,1-1.33.33,2.44,2.44,0,0,1-1-.21,2.1,2.1,0,0,1-.77-.62v2.64h-.92v-7h.88v.81a2,2,0,0,1,.78-.64A2.43,2.43,0,0,1,99.58,225.27Zm-.07,4.4a1.68,1.68,0,0,0,.87-.22,1.59,1.59,0,0,0,.62-.64,1.92,1.92,0,0,0,.23-.94,1.89,1.89,0,0,0-.23-.93,1.53,1.53,0,0,0-.62-.64,1.68,1.68,0,0,0-.87-.22,1.75,1.75,0,0,0-.88.23,1.7,1.7,0,0,0-.62.63,2,2,0,0,0-.22.93,2,2,0,0,0,.22.94,1.66,1.66,0,0,0,.62.64A1.74,1.74,0,0,0,99.51,229.67Zm4-6.39h.93v7.14h-.93Zm7.31,2-2.47,5.61a2.49,2.49,0,0,1-.78,1.1,1.69,1.69,0,0,1-1,.32,2.06,2.06,0,0,1-.74-.13,1.36,1.36,0,0,1-.57-.34l.39-.7a1.29,1.29,0,0,0,.92.38.83.83,0,0,0,.55-.18,1.42,1.42,0,0,0,.42-.61l.16-.36-2.25-5.09h1l1.78,4.08,1.77-4.08Zm5.51,0a2.27,2.27,0,0,1,1.62.52,2,2,0,0,1,.57,1.55v3.08h-.88v-.67a1.47,1.47,0,0,1-.67.55,2.53,2.53,0,0,1-1,.18,2.15,2.15,0,0,1-1.37-.41,1.34,1.34,0,0,1-.51-1.09,1.32,1.32,0,0,1,.49-1.08,2.35,2.35,0,0,1,1.56-.41h1.46v-.19a1.13,1.13,0,0,0-.35-.91,1.47,1.47,0,0,0-1-.32,2.67,2.67,0,0,0-.88.15,2.13,2.13,0,0,0-.73.4l-.39-.69a2.63,2.63,0,0,1,.94-.49A4.09,4.09,0,0,1,116.36,225.27Zm-.21,4.5a1.76,1.76,0,0,0,.91-.23,1.34,1.34,0,0,0,.56-.68v-.71H116.2c-.79,0-1.18.26-1.18.79a.72.72,0,0,0,.3.61A1.41,1.41,0,0,0,116.15,229.77Zm5.67.71a4.29,4.29,0,0,1-1.2-.16,2.66,2.66,0,0,1-.91-.44l.39-.73a2.72,2.72,0,0,0,.82.39,3.55,3.55,0,0,0,1,.14c.81,0,1.21-.23,1.21-.69a.44.44,0,0,0-.16-.37,1,1,0,0,0-.42-.19,5.81,5.81,0,0,0-.69-.14,6.71,6.71,0,0,1-1-.23,1.53,1.53,0,0,1-.67-.42,1.21,1.21,0,0,1-.27-.84,1.31,1.31,0,0,1,.57-1.11,2.61,2.61,0,0,1,1.55-.42,4.1,4.1,0,0,1,1,.13,2.66,2.66,0,0,1,.83.33l-.39.73a2.75,2.75,0,0,0-1.48-.4,1.66,1.66,0,0,0-.89.19.58.58,0,0,0-.31.51.51.51,0,0,0,.17.4,1.15,1.15,0,0,0,.43.21,6.2,6.2,0,0,0,.72.15,7.21,7.21,0,0,1,1,.24,1.4,1.4,0,0,1,.66.4,1.13,1.13,0,0,1,.27.81,1.29,1.29,0,0,1-.6,1.11A2.8,2.8,0,0,1,121.82,230.48Zm8.34,0a2.7,2.7,0,0,1-1.37-.34,2.5,2.5,0,0,1-1-.92,2.75,2.75,0,0,1-.33-1.35,2.69,2.69,0,0,1,.33-1.34,2.43,2.43,0,0,1,1-.92,2.7,2.7,0,0,1,1.37-.34,2.63,2.63,0,0,1,1.35.34,2.34,2.34,0,0,1,1,.92,2.59,2.59,0,0,1,.34,1.34,2.66,2.66,0,0,1-.34,1.35,2.4,2.4,0,0,1-1,.92A2.63,2.63,0,0,1,130.16,230.48Zm0-.81a1.68,1.68,0,0,0,.87-.22,1.59,1.59,0,0,0,.62-.64,1.92,1.92,0,0,0,.22-.94,1.88,1.88,0,0,0-.22-.93,1.53,1.53,0,0,0-.62-.64,1.68,1.68,0,0,0-.87-.22,1.75,1.75,0,0,0-.89.22,1.66,1.66,0,0,0-.62.64,2,2,0,0,0-.22.93,2,2,0,0,0,.22.94,1.73,1.73,0,0,0,.62.64A1.75,1.75,0,0,0,130.16,229.67Zm5.89-5.69c-.55,0-.83.3-.83.9v.44h1.49v.76h-1.47v4.34h-.92v-4.34h-.87v-.76h.87v-.45a1.66,1.66,0,0,1,.44-1.21,1.71,1.71,0,0,1,1.24-.44,1.81,1.81,0,0,1,.58.08,1.23,1.23,0,0,1,.46.22l-.28.7A1.15,1.15,0,0,0,136.05,224Zm5.41.54v2.35h3.38v.83h-3.38v2.72h-1v-6.74h4.76v.84ZM151,227.9a1.58,1.58,0,0,1,0,.28h-4.14a1.67,1.67,0,0,0,.59,1.09,2,2,0,0,0,1.26.4,1.92,1.92,0,0,0,1.48-.61l.51.59a2.27,2.27,0,0,1-.87.62,3.26,3.26,0,0,1-2.58-.12,2.44,2.44,0,0,1-1-.93,2.91,2.91,0,0,1,0-2.69,2.3,2.3,0,0,1,.91-.92,2.55,2.55,0,0,1,1.32-.34,2.45,2.45,0,0,1,1.3.34,2.28,2.28,0,0,1,.9.92A2.91,2.91,0,0,1,151,227.9Zm-2.52-1.85a1.63,1.63,0,0,0-1.12.41,1.65,1.65,0,0,0-.52,1h3.28a1.61,1.61,0,0,0-1.64-1.46Zm6.61-.78a2.65,2.65,0,0,1,1.33.33,2.37,2.37,0,0,1,.92.91,2.74,2.74,0,0,1,.33,1.36,2.8,2.8,0,0,1-.33,1.37,2.3,2.3,0,0,1-.92.91,2.65,2.65,0,0,1-1.33.33,2.4,2.4,0,0,1-1-.22,2,2,0,0,1-.78-.65v.81h-.88v-7.14h.92v2.81a2,2,0,0,1,.77-.61A2.44,2.44,0,0,1,155.12,225.27Zm-.07,4.4a1.68,1.68,0,0,0,.87-.22,1.59,1.59,0,0,0,.62-.64,1.92,1.92,0,0,0,.23-.94,1.89,1.89,0,0,0-.23-.93,1.53,1.53,0,0,0-.62-.64,1.68,1.68,0,0,0-.87-.22,1.74,1.74,0,0,0-.88.22,1.59,1.59,0,0,0-.62.64,2,2,0,0,0-.22.93,2,2,0,0,0,.22.94,1.66,1.66,0,0,0,.62.64A1.74,1.74,0,0,0,155.05,229.67Zm8.4-6v6.74h-1v-5.9H161v-.84Zm3.5,2.69a3.32,3.32,0,0,1,2.12.55,1.79,1.79,0,0,1,.68,1.48,2.08,2.08,0,0,1-.29,1.08,2,2,0,0,1-.86.75,3.24,3.24,0,0,1-1.4.27,4.52,4.52,0,0,1-1.38-.21,3.15,3.15,0,0,1-1.1-.61l.44-.76a2.6,2.6,0,0,0,.89.53,3.33,3.33,0,0,0,1.14.19,1.89,1.89,0,0,0,1.17-.31,1.09,1.09,0,0,0,.43-.89,1,1,0,0,0-.47-.92,2.91,2.91,0,0,0-1.58-.31h-1.53l.36-3.53h3.8v.84h-3l-.18,1.85Z" transform="translate(-77.78 -51.93)"/><path d="M195.23,52.82a3.09,3.09,0,0,1,2.06.63,2.36,2.36,0,0,1,0,3.45,3.19,3.19,0,0,1-2.07.62h-1.66v2h-1V52.81Zm0,3.86a2.15,2.15,0,0,0,1.39-.38,1.38,1.38,0,0,0,.49-1.13,1.34,1.34,0,0,0-.48-1.11,2.12,2.12,0,0,0-1.4-.4h-1.63v3Zm5-1.35a1.58,1.58,0,0,1,.72-.68,2.47,2.47,0,0,1,1.14-.22v.89h-.21a1.58,1.58,0,0,0-1.19.45,1.79,1.79,0,0,0-.42,1.27v2.54h-.92v-5.1h.88Zm5.23,4.31a2.73,2.73,0,0,1-1.37-.34,2.47,2.47,0,0,1-1-.92A2.75,2.75,0,0,1,202.8,57a2.59,2.59,0,0,1,.34-1.34,2.34,2.34,0,0,1,1-.92,2.73,2.73,0,0,1,1.37-.34,2.88,2.88,0,0,1,1.36.34,2.34,2.34,0,0,1,.94.93A2.5,2.5,0,0,1,208.1,57a2.57,2.57,0,0,1-.35,1.35,2.38,2.38,0,0,1-.94.92A2.66,2.66,0,0,1,205.45,59.64Zm0-.8a1.82,1.82,0,0,0,.88-.22A1.73,1.73,0,0,0,207,58a2,2,0,0,0,.22-.94,1.92,1.92,0,0,0-.22-.94,1.54,1.54,0,0,0-.61-.63,1.72,1.72,0,0,0-.88-.23,1.89,1.89,0,0,0-.89.22,1.64,1.64,0,0,0-.61.64,1.89,1.89,0,0,0-.23.93A1.92,1.92,0,0,0,204,58a1.66,1.66,0,0,0,.62.64A1.83,1.83,0,0,0,205.45,58.84Zm8.86-6.38,0,7.15h-.88V58.8a2.1,2.1,0,0,1-.78.64,2.4,2.4,0,0,1-1,.22,2.65,2.65,0,0,1-1.33-.33,2.39,2.39,0,0,1-.92-.92A2.78,2.78,0,0,1,209,57a2.7,2.7,0,0,1,.33-1.35,2.42,2.42,0,0,1,.93-.92,2.75,2.75,0,0,1,1.33-.32,2.4,2.4,0,0,1,1,.21,2,2,0,0,1,.77.61V52.46Zm-2.64,6.39a1.71,1.71,0,0,0,.87-.22,1.57,1.57,0,0,0,.62-.63,2,2,0,0,0,.22-1,1.88,1.88,0,0,0-.22-.93,1.51,1.51,0,0,0-.61-.64,1.72,1.72,0,0,0-.88-.22,1.74,1.74,0,0,0-.88.22,1.57,1.57,0,0,0-.62.63,1.89,1.89,0,0,0-.22.94,1.94,1.94,0,0,0,.21.94,1.81,1.81,0,0,0,.62.64A1.75,1.75,0,0,0,211.67,58.85Zm9.24-4.33v5.1H220v-.77a2,2,0,0,1-.75.62,2.31,2.31,0,0,1-1,.21,2.26,2.26,0,0,1-1.61-.57,2.21,2.21,0,0,1-.58-1.66V54.51H217v2.83a1.6,1.6,0,0,0,.36,1.13,1.32,1.32,0,0,0,1,.38,1.52,1.52,0,0,0,1.15-.44,1.71,1.71,0,0,0,.43-1.25V54.52ZM225,59.69a2.82,2.82,0,0,1-1.4-.34,2.43,2.43,0,0,1-1-.93,2.71,2.71,0,0,1,0-2.68,2.34,2.34,0,0,1,.95-.92,2.82,2.82,0,0,1,1.4-.34,2.72,2.72,0,0,1,1.23.28,2,2,0,0,1,.85.82l-.71.45a1.54,1.54,0,0,0-.59-.55,1.62,1.62,0,0,0-.79-.19,1.83,1.83,0,0,0-.91.22,1.73,1.73,0,0,0-.63.63,1.89,1.89,0,0,0-.22.94,1.93,1.93,0,0,0,.22,1,1.63,1.63,0,0,0,.62.63,1.83,1.83,0,0,0,.91.22,1.73,1.73,0,0,0,.79-.18,1.5,1.5,0,0,0,.6-.55l.7.45a2.1,2.1,0,0,1-.85.82A2.71,2.71,0,0,1,225,59.69Zm6.31-.34a1.34,1.34,0,0,1-.5.27,2.16,2.16,0,0,1-.62.09,1.7,1.7,0,0,1-1.19-.42,1.6,1.6,0,0,1-.42-1.19V55.3h-.86v-.76h.87V53.42h.92v1.12H231v.77H229.5v2.77a.93.93,0,0,0,.2.63.82.82,0,0,0,.6.23,1.12,1.12,0,0,0,.72-.24Zm1.23-4.8h.92v5.11h-.92Zm.46-1a.61.61,0,0,1-.45-.18.6.6,0,0,1,0-.84.62.62,0,0,1,.46-.19.59.59,0,0,1,.44.18.54.54,0,0,1,.18.41.59.59,0,0,1-.18.44A.61.61,0,0,1,233,53.57Zm4.5,6.15a2.69,2.69,0,0,1-1.36-.34,2.4,2.4,0,0,1-.95-.92,2.66,2.66,0,0,1-.34-1.35,2.69,2.69,0,0,1,.34-1.34,2.3,2.3,0,0,1,1-.92,2.7,2.7,0,0,1,1.37-.34,2.73,2.73,0,0,1,1.35.34,2.36,2.36,0,0,1,.95.93,2.59,2.59,0,0,1,.34,1.34,2.66,2.66,0,0,1-.35,1.35,2.4,2.4,0,0,1-1,.92A2.77,2.77,0,0,1,237.49,59.72Zm0-.81a1.68,1.68,0,0,0,.87-.22,1.57,1.57,0,0,0,.62-.63,2,2,0,0,0,.22-.94,1.89,1.89,0,0,0-.21-.94,1.57,1.57,0,0,0-.62-.63,1.72,1.72,0,0,0-.88-.23,1.74,1.74,0,0,0-.88.22,1.59,1.59,0,0,0-.62.64,1.85,1.85,0,0,0-.22.93,1.92,1.92,0,0,0,.22.94,1.63,1.63,0,0,0,.61.64A1.75,1.75,0,0,0,237.5,58.91Zm6.76-4.38a2.08,2.08,0,0,1,1.54.57,2.16,2.16,0,0,1,.57,1.65v2.94h-.93V56.85a1.54,1.54,0,0,0-.36-1.11,1.29,1.29,0,0,0-1-.38,1.55,1.55,0,0,0-1.18.44,1.68,1.68,0,0,0-.44,1.25v2.63h-.93V54.57h.89v.77a1.85,1.85,0,0,1,.75-.6A2.72,2.72,0,0,1,244.26,54.53Z" transform="translate(-77.78 -51.93)"/><path d="M337.31,59.63a4.86,4.86,0,0,1-1.47-.23,3.07,3.07,0,0,1-1.11-.62l.36-.75a3.09,3.09,0,0,0,1,.57,3.8,3.8,0,0,0,1.24.21,2.26,2.26,0,0,0,1.26-.28.89.89,0,0,0,.41-.76.74.74,0,0,0-.23-.56,1.37,1.37,0,0,0-.56-.33q-.33-.12-.93-.27a10.38,10.38,0,0,1-1.24-.36,2.11,2.11,0,0,1-.8-.56,1.53,1.53,0,0,1-.32-1,1.79,1.79,0,0,1,.27-1A2.13,2.13,0,0,1,336,53a3.6,3.6,0,0,1,1.44-.26,4.23,4.23,0,0,1,1.17.16,3,3,0,0,1,1,.44l-.31.77a3.5,3.5,0,0,0-.91-.4,3.13,3.13,0,0,0-.94-.15,2.12,2.12,0,0,0-1.24.3.92.92,0,0,0-.4.77.78.78,0,0,0,.23.57,1.76,1.76,0,0,0,.57.34c.23.07.54.16.93.25a9.63,9.63,0,0,1,1.23.36,2.2,2.2,0,0,1,.79.56,1.48,1.48,0,0,1,.33,1,1.71,1.71,0,0,1-.29,1,2,2,0,0,1-.87.69A3.66,3.66,0,0,1,337.31,59.63Zm6.86-.38a1.38,1.38,0,0,1-.51.27,2,2,0,0,1-.61.09,1.68,1.68,0,0,1-1.2-.41,1.6,1.6,0,0,1-.42-1.19v-2.8h-.87v-.76h.87V53.33h.93v1.12h1.46v.76h-1.46V58a.89.89,0,0,0,.2.64.77.77,0,0,0,.59.22,1.13,1.13,0,0,0,.73-.24Zm3.23.36a2.73,2.73,0,0,1-1.37-.34,2.47,2.47,0,0,1-.95-.92,2.76,2.76,0,0,1-.34-1.35,2.69,2.69,0,0,1,.34-1.34,2.4,2.4,0,0,1,.95-.92,2.73,2.73,0,0,1,1.37-.34,2.67,2.67,0,0,1,1.36.34,2.31,2.31,0,0,1,.94.92,2.6,2.6,0,0,1,.35,1.34,2.66,2.66,0,0,1-.35,1.35,2.38,2.38,0,0,1-.94.92A2.67,2.67,0,0,1,347.4,59.61Zm0-.81a1.72,1.72,0,0,0,.88-.22,1.57,1.57,0,0,0,.61-.64,1.92,1.92,0,0,0,.23-.94,1.89,1.89,0,0,0-.23-.93,1.51,1.51,0,0,0-.61-.64,1.72,1.72,0,0,0-.88-.22,1.78,1.78,0,0,0-.89.22,1.64,1.64,0,0,0-.61.64,1.88,1.88,0,0,0-.22.93,1.92,1.92,0,0,0,.22.94,1.71,1.71,0,0,0,.61.64A1.78,1.78,0,0,0,347.4,58.8Zm4.91-3.49a1.63,1.63,0,0,1,.72-.68,2.6,2.6,0,0,1,1.14-.23v.9H354a1.56,1.56,0,0,0-1.18.45,1.73,1.73,0,0,0-.43,1.27v2.54h-.92v-5.1h.88Zm4.95-.91a2.27,2.27,0,0,1,1.62.52,2,2,0,0,1,.57,1.55v3.08h-.88v-.67a1.44,1.44,0,0,1-.66.55,2.57,2.57,0,0,1-1,.18,2.2,2.2,0,0,1-1.38-.41,1.34,1.34,0,0,1-.51-1.09A1.32,1.32,0,0,1,355.5,57a2.38,2.38,0,0,1,1.56-.42h1.46v-.18a1.16,1.16,0,0,0-.34-.91,1.47,1.47,0,0,0-1-.32,2.68,2.68,0,0,0-.89.15,2.22,2.22,0,0,0-.73.4l-.39-.7a2.83,2.83,0,0,1,1-.48A4,4,0,0,1,357.26,54.4Zm-.21,4.5a1.82,1.82,0,0,0,.92-.23,1.37,1.37,0,0,0,.55-.68v-.71H357.1c-.78,0-1.18.26-1.18.79a.72.72,0,0,0,.3.61A1.43,1.43,0,0,0,357.05,58.9Zm9.12-4.45v4.41a2.62,2.62,0,0,1-.66,2,2.77,2.77,0,0,1-2,.65,4.73,4.73,0,0,1-1.37-.2,2.73,2.73,0,0,1-1.06-.56l.44-.71a2.74,2.74,0,0,0,.88.48,3.31,3.31,0,0,0,1.08.18,1.8,1.8,0,0,0,1.32-.42,1.75,1.75,0,0,0,.44-1.29v-.41a2.2,2.2,0,0,1-.81.6,2.7,2.7,0,0,1-1,.19,2.8,2.8,0,0,1-1.33-.31,2.43,2.43,0,0,1-.93-.87,2.53,2.53,0,0,1-.33-1.29,2.5,2.5,0,0,1,.33-1.29,2.36,2.36,0,0,1,.93-.87,2.8,2.8,0,0,1,1.33-.31,2.72,2.72,0,0,1,1.07.21,2,2,0,0,1,.82.63v-.79Zm-2.66,4.08a1.87,1.87,0,0,0,.9-.21,1.56,1.56,0,0,0,.63-.59,1.65,1.65,0,0,0,.23-.86,1.55,1.55,0,0,0-.5-1.2,1.73,1.73,0,0,0-1.26-.46,1.77,1.77,0,0,0-1.27.46,1.54,1.54,0,0,0-.49,1.2,1.64,1.64,0,0,0,.22.86,1.7,1.7,0,0,0,.63.59A1.94,1.94,0,0,0,363.51,58.53Zm9.14-1.5a1.58,1.58,0,0,1,0,.28h-4.14a1.67,1.67,0,0,0,.59,1.09,2,2,0,0,0,1.26.4,1.86,1.86,0,0,0,1.47-.62l.51.6a2.24,2.24,0,0,1-.86.62,3.26,3.26,0,0,1-2.58-.12,2.44,2.44,0,0,1-1-.93,2.75,2.75,0,0,1-.33-1.35,2.85,2.85,0,0,1,.32-1.34,2.39,2.39,0,0,1,.92-.92,2.55,2.55,0,0,1,1.32-.34,2.45,2.45,0,0,1,1.3.34,2.25,2.25,0,0,1,.89.92A2.8,2.8,0,0,1,372.65,57Zm-2.52-1.85a1.62,1.62,0,0,0-1.12.4,1.68,1.68,0,0,0-.52,1.06h3.28a1.66,1.66,0,0,0-.53-1A1.6,1.6,0,0,0,370.13,55.18Zm16.25-2.37-2.25,6.74h-1l-1.84-5.38-1.84,5.38h-1l-2.26-6.74h1L379,58.29l1.89-5.48h.89l1.86,5.51,1.86-5.51Zm1.16,1.64h.92v5.1h-.92Zm.46-1a.61.61,0,0,1-.45-.18.54.54,0,0,1-.18-.42.58.58,0,0,1,.18-.43.61.61,0,0,1,.45-.18.57.57,0,0,1,.44.18.51.51,0,0,1,.18.41.6.6,0,0,1-.18.44A.57.57,0,0,1,388,53.47Zm5.2,5.78a1.42,1.42,0,0,1-.5.27,2.16,2.16,0,0,1-.62.09,1.65,1.65,0,0,1-1.19-.41,1.56,1.56,0,0,1-.43-1.19v-2.8h-.87v-.76h.87V53.33h.93v1.12h1.46v.76h-1.46V58a.89.89,0,0,0,.2.64.78.78,0,0,0,.6.22,1.12,1.12,0,0,0,.72-.24Zm3.94-4.85a2.08,2.08,0,0,1,1.54.57,2.16,2.16,0,0,1,.58,1.64v2.94h-.93V56.72A1.57,1.57,0,0,0,398,55.6a1.35,1.35,0,0,0-1-.37,1.62,1.62,0,0,0-1.19.44,1.7,1.7,0,0,0-.43,1.25v2.63h-.93V52.41h.93v2.76a2,2,0,0,1,.75-.57A2.77,2.77,0,0,1,397.14,54.4Zm8.77-2v7.14H405v-.81a2,2,0,0,1-.78.65,2.4,2.4,0,0,1-1,.22,2.65,2.65,0,0,1-1.33-.33,2.46,2.46,0,0,1-.93-.91,2.91,2.91,0,0,1-.32-1.37,2.85,2.85,0,0,1,.32-1.36,2.46,2.46,0,0,1,.93-.91,2.65,2.65,0,0,1,1.33-.33,2.44,2.44,0,0,1,1,.21,2,2,0,0,1,.77.61V52.41Zm-2.62,6.39a1.71,1.71,0,0,0,.87-.22,1.66,1.66,0,0,0,.62-.64A1.92,1.92,0,0,0,405,57a1.88,1.88,0,0,0-.22-.93,1.59,1.59,0,0,0-.62-.64,1.71,1.71,0,0,0-.87-.22,1.75,1.75,0,0,0-.89.22,1.66,1.66,0,0,0-.62.64,1.88,1.88,0,0,0-.22.93,1.92,1.92,0,0,0,.22.94,1.73,1.73,0,0,0,.62.64A1.75,1.75,0,0,0,403.29,58.8Zm5.36-3.49a1.61,1.61,0,0,1,.71-.68,2.68,2.68,0,0,1,1.15-.23v.9h-.21a1.58,1.58,0,0,0-1.19.45,1.77,1.77,0,0,0-.42,1.27v2.54h-.93v-5.1h.89Zm5-.91a2.3,2.3,0,0,1,1.62.52,2,2,0,0,1,.56,1.55v3.08h-.87v-.67a1.53,1.53,0,0,1-.67.55,2.57,2.57,0,0,1-1,.18,2.15,2.15,0,0,1-1.37-.41,1.41,1.41,0,0,1,0-2.17,2.35,2.35,0,0,1,1.56-.42h1.46v-.18a1.17,1.17,0,0,0-.35-.91,1.47,1.47,0,0,0-1-.32,2.67,2.67,0,0,0-.88.15,2.28,2.28,0,0,0-.74.4l-.38-.7a2.78,2.78,0,0,1,.94-.48A4.09,4.09,0,0,1,413.6,54.4Zm-.21,4.5a1.78,1.78,0,0,0,.91-.23,1.39,1.39,0,0,0,.56-.68v-.71h-1.43c-.78,0-1.17.26-1.17.79a.72.72,0,0,0,.3.61A1.41,1.41,0,0,0,413.39,58.9Zm11.84-4.45-1.91,5.1h-.89L421,55.68l-1.49,3.87h-.89l-1.9-5.1h.88L419,58.51l1.54-4.06h.78l1.52,4.08,1.52-4.08ZM428,54.4a2.27,2.27,0,0,1,1.62.52,2,2,0,0,1,.57,1.55v3.08h-.88v-.67a1.44,1.44,0,0,1-.66.55,2.57,2.57,0,0,1-1,.18,2.2,2.2,0,0,1-1.38-.41,1.34,1.34,0,0,1-.51-1.09A1.32,1.32,0,0,1,426.2,57a2.38,2.38,0,0,1,1.56-.42h1.47v-.18a1.17,1.17,0,0,0-.35-.91,1.47,1.47,0,0,0-1-.32,2.73,2.73,0,0,0-.89.15,2.22,2.22,0,0,0-.73.4l-.39-.7a2.83,2.83,0,0,1,.95-.48A4,4,0,0,1,428,54.4Zm-.21,4.5a1.79,1.79,0,0,0,.92-.23,1.45,1.45,0,0,0,.56-.68v-.71H427.8c-.78,0-1.17.26-1.17.79a.71.71,0,0,0,.29.61A1.43,1.43,0,0,0,427.75,58.9ZM432,52.41h.93v7.14H432Zm4.26,7.2a4.42,4.42,0,0,1-1.21-.16,2.6,2.6,0,0,1-.9-.44l.38-.73a3,3,0,0,0,.82.39,3.61,3.61,0,0,0,1,.14c.81,0,1.22-.23,1.22-.69a.45.45,0,0,0-.17-.37,1,1,0,0,0-.41-.19c-.16-.05-.39-.09-.69-.15a5.91,5.91,0,0,1-1-.22,1.55,1.55,0,0,1-.66-.42,1.17,1.17,0,0,1-.28-.84,1.3,1.3,0,0,1,.58-1.11,2.57,2.57,0,0,1,1.55-.42,4,4,0,0,1,1,.13,2.73,2.73,0,0,1,.84.33l-.4.73a2.63,2.63,0,0,0-1.47-.4,1.72,1.72,0,0,0-.9.19.59.59,0,0,0-.3.51.48.48,0,0,0,.17.4,1.27,1.27,0,0,0,.42.21c.18,0,.42.1.72.15a7.24,7.24,0,0,1,1,.23,1.53,1.53,0,0,1,.65.41,1.13,1.13,0,0,1,.27.81,1.29,1.29,0,0,1-.6,1.11A2.77,2.77,0,0,1,436.22,59.61Z" transform="translate(-77.78 -51.93)"/><path d="M270.87,52.81h1v6.74h-1Zm9.33,1.59a2.09,2.09,0,0,1,1.53.56,2.24,2.24,0,0,1,.56,1.65v2.94h-.92V56.72A1.62,1.62,0,0,0,281,55.6a1.23,1.23,0,0,0-1-.37,1.48,1.48,0,0,0-1.12.44,1.78,1.78,0,0,0-.41,1.25v2.63h-.93V56.72a1.61,1.61,0,0,0-.34-1.12,1.25,1.25,0,0,0-1-.37,1.46,1.46,0,0,0-1.11.44,1.73,1.73,0,0,0-.42,1.25v2.63h-.92v-5.1h.88v.76a1.89,1.89,0,0,1,.74-.6,2.4,2.4,0,0,1,1-.21,2.27,2.27,0,0,1,1.06.24,1.71,1.71,0,0,1,.71.7,2,2,0,0,1,.8-.69A2.6,2.6,0,0,1,280.2,54.4Zm6.6,0a2.65,2.65,0,0,1,1.33.33,2.37,2.37,0,0,1,.92.91,2.74,2.74,0,0,1,.33,1.36,2.8,2.8,0,0,1-.33,1.37,2.37,2.37,0,0,1-.92.91,2.65,2.65,0,0,1-1.33.33,2.44,2.44,0,0,1-1-.21,2.1,2.1,0,0,1-.77-.62v2.64h-.92v-7H285v.81a1.92,1.92,0,0,1,.78-.64A2.4,2.4,0,0,1,286.8,54.4Zm-.07,4.4a1.71,1.71,0,0,0,.87-.22,1.66,1.66,0,0,0,.62-.64,1.92,1.92,0,0,0,.23-.94,1.89,1.89,0,0,0-.23-.93,1.59,1.59,0,0,0-.62-.64,1.71,1.71,0,0,0-.87-.22,1.72,1.72,0,0,0-.88.23,1.7,1.7,0,0,0-.62.63A1.88,1.88,0,0,0,285,57a1.92,1.92,0,0,0,.22.94,1.66,1.66,0,0,0,.62.64A1.72,1.72,0,0,0,286.73,58.8Zm6.22.81a2.7,2.7,0,0,1-1.37-.34,2.47,2.47,0,0,1-.95-.92,2.66,2.66,0,0,1-.34-1.35,2.59,2.59,0,0,1,.34-1.34,2.4,2.4,0,0,1,.95-.92,2.91,2.91,0,0,1,2.73,0,2.38,2.38,0,0,1,.94.92A2.6,2.6,0,0,1,295.6,57a2.66,2.66,0,0,1-.35,1.35,2.44,2.44,0,0,1-.94.92A2.69,2.69,0,0,1,293,59.61Zm0-.81a1.66,1.66,0,0,0,.87-.22,1.59,1.59,0,0,0,.62-.64,1.92,1.92,0,0,0,.22-.94,1.88,1.88,0,0,0-.22-.93,1.53,1.53,0,0,0-.62-.64,1.66,1.66,0,0,0-.87-.22,1.75,1.75,0,0,0-.89.22,1.57,1.57,0,0,0-.61.64,1.89,1.89,0,0,0-.23.93,1.92,1.92,0,0,0,.23.94,1.63,1.63,0,0,0,.61.64A1.75,1.75,0,0,0,293,58.8Zm4.91-3.49a1.61,1.61,0,0,1,.71-.68,2.68,2.68,0,0,1,1.15-.23v.9h-.21a1.58,1.58,0,0,0-1.19.45A1.77,1.77,0,0,0,297.9,57v2.54H297v-5.1h.88ZM304,59.25a1.34,1.34,0,0,1-.5.27,2.16,2.16,0,0,1-.62.09,1.65,1.65,0,0,1-1.19-.41A1.56,1.56,0,0,1,301.3,58v-2.8h-.87v-.76h.87V53.33h.93v1.12h1.46v.76h-1.46V58a.89.89,0,0,0,.2.64.78.78,0,0,0,.6.22,1.12,1.12,0,0,0,.72-.24Zm2.68.36a4.29,4.29,0,0,1-1.2-.16,2.66,2.66,0,0,1-.91-.44l.39-.73a2.78,2.78,0,0,0,.81.39,3.63,3.63,0,0,0,1,.14c.81,0,1.21-.23,1.21-.69a.44.44,0,0,0-.16-.37,1,1,0,0,0-.42-.19c-.16-.05-.39-.09-.69-.15a5.77,5.77,0,0,1-1-.22,1.53,1.53,0,0,1-.67-.42,1.21,1.21,0,0,1-.28-.84,1.32,1.32,0,0,1,.58-1.11,2.59,2.59,0,0,1,1.55-.42,4,4,0,0,1,1,.13,2.73,2.73,0,0,1,.84.33l-.39.73a2.67,2.67,0,0,0-1.48-.4,1.66,1.66,0,0,0-.89.19.58.58,0,0,0-.31.51.51.51,0,0,0,.17.4,1.33,1.33,0,0,0,.43.21c.17,0,.41.1.72.15a7.41,7.41,0,0,1,1,.23,1.42,1.42,0,0,1,.65.41,1.13,1.13,0,0,1,.27.81,1.29,1.29,0,0,1-.59,1.11A2.8,2.8,0,0,1,306.72,59.61Z" transform="translate(-77.78 -51.93)"/><rect class="cls-11" x="99.71" y="0.09" width="8.67" height="8.67"/><rect class="cls-12" x="178.19" width="8.67" height="8.67"/><rect class="cls-13" x="242.4" width="8.67" height="8.67"/></svg>