<svg id="Layer_1" data-name="Layer 1" xmlns="http://www.w3.org/2000/svg" viewBox="0 0 467.46 261.96"><defs><style>.cls-1,.cls-3,.cls-4,.cls-6{fill:#ec694b;}.cls-1{fill-opacity:0.2;}.cls-2{fill:#fbe1db;}.cls-4{fill-opacity:0.8;}.cls-5{fill:#ef866e;}.cls-6{fill-opacity:0.4;}.cls-7{fill:#f7c3b7;}.cls-12,.cls-8,.cls-9{fill:none;stroke-width:2px;}.cls-8,.cls-9{stroke:#000;}.cls-9{stroke-opacity:0.5;stroke-dasharray:5 5;}.cls-10{fill-opacity:0.3;}.cls-11{fill:#5e5f60;}.cls-12{stroke:#5e5f60;}</style></defs><rect class="cls-1" x="100.43" y="36.77" width="131.96" height="33.36"/><rect class="cls-2" x="262.85" y="148.7" width="84.11" height="33.36"/><rect class="cls-3" x="100.43" y="182.06" width="162.42" height="33.36"/><rect class="cls-4" x="279.52" y="36.77" width="167.13" height="33.36"/><rect class="cls-5" x="380.31" y="81.99" width="66.34" height="33.36"/><rect class="cls-6" x="232.39" y="36.77" width="47.13" height="33.36"/><path class="cls-7" d="M419,380.56h33.36v33.36H419Z" transform="translate(-72.07 -265.22)"/><path class="cls-8" d="M172.14,297.17v192" transform="translate(-72.07 -265.22)"/><path class="cls-9" d="M518.72,297.17v192" transform="translate(-72.07 -265.22)"/><path class="cls-9" d="M452.38,347.2v66.72" transform="translate(-72.07 -265.22)"/><path class="cls-9" d="M334.92,413.92v66.72" transform="translate(-72.07 -265.22)"/><path class="cls-9" d="M419,380.56v66.72" transform="translate(-72.07 -265.22)"/><path d="M78.91,307.66v7.9h-.79l-4.06-5.89v5.89h-1v-7.9h.8L78,313.55v-5.89Zm4.19,8a2.45,2.45,0,0,1-1.38-.4,2.7,2.7,0,0,1-1-1.08,3.55,3.55,0,0,1-.34-1.58,3.45,3.45,0,0,1,.34-1.57,2.67,2.67,0,0,1,1-1.09,2.52,2.52,0,0,1,1.38-.39,2.43,2.43,0,0,1,1.36.39,2.6,2.6,0,0,1,1,1.09,3.45,3.45,0,0,1,.34,1.57,3.55,3.55,0,0,1-.34,1.58,2.63,2.63,0,0,1-1,1.08A2.36,2.36,0,0,1,83.1,315.63Zm0-.95a1.57,1.57,0,0,0,.88-.26,1.75,1.75,0,0,0,.61-.75,2.57,2.57,0,0,0,.23-1.1,2.54,2.54,0,0,0-.23-1.1,1.66,1.66,0,0,0-.61-.74,1.49,1.49,0,0,0-.88-.26,1.53,1.53,0,0,0-.89.26,1.75,1.75,0,0,0-.62.74,2.54,2.54,0,0,0-.22,1.1,2.57,2.57,0,0,0,.22,1.1,1.85,1.85,0,0,0,.62.75A1.6,1.6,0,0,0,83.1,314.68Zm4.93-4.1a1.71,1.71,0,0,1,.71-.79,2.3,2.3,0,0,1,1.15-.27v1.05h-.21a1.44,1.44,0,0,0-1.19.53,2.3,2.3,0,0,0-.42,1.49v3h-.93v-6H88Zm9.52-1.06a1.91,1.91,0,0,1,1.52.65,2.91,2.91,0,0,1,.57,1.95v3.44h-.92v-3.32a2.09,2.09,0,0,0-.35-1.31,1.17,1.17,0,0,0-1-.44,1.35,1.35,0,0,0-1.12.52,2.26,2.26,0,0,0-.42,1.47v3.08h-.92v-3.32a2.09,2.09,0,0,0-.35-1.31,1.17,1.17,0,0,0-1-.44,1.35,1.35,0,0,0-1.12.52,2.26,2.26,0,0,0-.41,1.47v3.08h-.93v-6H92v.89a1.82,1.82,0,0,1,.73-.7,2.08,2.08,0,0,1,1-.25,2,2,0,0,1,1.06.28,1.76,1.76,0,0,1,.71.83,2.2,2.2,0,0,1,.81-.82A2.36,2.36,0,0,1,97.55,309.52Zm5.77,0a2.07,2.07,0,0,1,1.62.61,2.58,2.58,0,0,1,.57,1.82v3.61h-.88v-.79a1.54,1.54,0,0,1-.67.64,2.12,2.12,0,0,1-1,.22,1.93,1.93,0,0,1-1.38-.49,1.86,1.86,0,0,1,0-2.54,2.17,2.17,0,0,1,1.56-.48h1.47v-.22a1.51,1.51,0,0,0-.34-1.07,1.35,1.35,0,0,0-1-.37,2.32,2.32,0,0,0-.89.18,2,2,0,0,0-.73.46l-.39-.81a2.59,2.59,0,0,1,1-.57A3.42,3.42,0,0,1,103.32,309.52Zm-.22,5.27a1.56,1.56,0,0,0,.92-.27,1.53,1.53,0,0,0,.56-.79v-.83h-1.43c-.78,0-1.18.3-1.18.92a.89.89,0,0,0,.3.71A1.2,1.2,0,0,0,103.1,314.79Zm4.23-7.61h.93v8.38h-.93Zm10.4,2.4v5.17a3.42,3.42,0,0,1-.67,2.31,2.51,2.51,0,0,1-2,.76,3.93,3.93,0,0,1-1.38-.24,2.65,2.65,0,0,1-1.07-.65l.45-.84a2.57,2.57,0,0,0,.88.57,2.93,2.93,0,0,0,1.09.21,1.64,1.64,0,0,0,1.32-.5,2.23,2.23,0,0,0,.44-1.51v-.47a2.26,2.26,0,0,1-.81.7,2.4,2.4,0,0,1-1,.22,2.53,2.53,0,0,1-1.33-.36,2.65,2.65,0,0,1-.93-1,3.23,3.23,0,0,1-.34-1.51,3.16,3.16,0,0,1,.34-1.5,2.45,2.45,0,0,1,2.26-1.39,2.32,2.32,0,0,1,1.08.25,2.12,2.12,0,0,1,.82.73v-.92Zm-2.67,4.78a1.71,1.71,0,0,0,1.53-.93,2.28,2.28,0,0,0,.23-1,2,2,0,0,0-.5-1.4,1.62,1.62,0,0,0-1.26-.54,1.66,1.66,0,0,0-1.28.54,2,2,0,0,0-.49,1.4,2.28,2.28,0,0,0,.22,1,1.8,1.8,0,0,0,.63.68A1.69,1.69,0,0,0,115.06,314.36Zm6.41-4.84a2.08,2.08,0,0,1,1.62.61,2.58,2.58,0,0,1,.57,1.82v3.61h-.88v-.79a1.54,1.54,0,0,1-.67.64,2.12,2.12,0,0,1-1,.22,1.89,1.89,0,0,1-1.38-.49,1.64,1.64,0,0,1-.52-1.27,1.69,1.69,0,0,1,.5-1.27,2.17,2.17,0,0,1,1.56-.48h1.47v-.22a1.47,1.47,0,0,0-.35-1.07,1.32,1.32,0,0,0-1-.37,2.32,2.32,0,0,0-.89.18,2,2,0,0,0-.73.46l-.39-.81a2.59,2.59,0,0,1,1-.57A3.42,3.42,0,0,1,121.47,309.52Zm-.22,5.27a1.56,1.56,0,0,0,.92-.27,1.53,1.53,0,0,0,.56-.79v-.83H121.3c-.78,0-1.18.3-1.18.92a.89.89,0,0,0,.3.71A1.2,1.2,0,0,0,121.25,314.79Zm5.7.84a4,4,0,0,1-1.21-.19,2.68,2.68,0,0,1-.91-.51l.39-.86a2.48,2.48,0,0,0,.82.45,3,3,0,0,0,1,.17c.82,0,1.22-.27,1.22-.81a.56.56,0,0,0-.16-.43,1,1,0,0,0-.42-.23,6.93,6.93,0,0,0-.69-.17,5.54,5.54,0,0,1-1-.26,1.52,1.52,0,0,1-.67-.49,1.79,1.79,0,0,1,.3-2.28,2.29,2.29,0,0,1,1.56-.5,3.6,3.6,0,0,1,1,.15,2.48,2.48,0,0,1,.85.39l-.4.86a2.37,2.37,0,0,0-1.48-.48,1.53,1.53,0,0,0-.9.23.72.72,0,0,0-.31.6.6.6,0,0,0,.18.46.89.89,0,0,0,.42.25l.73.18a5.66,5.66,0,0,1,1,.27,1.41,1.41,0,0,1,.66.48,1.47,1.47,0,0,1,.27.95,1.57,1.57,0,0,1-.6,1.29A2.47,2.47,0,0,1,127,315.63ZM74.43,329.74a3.78,3.78,0,0,1-1.21-.19,2.53,2.53,0,0,1-.91-.51l.39-.86a2.7,2.7,0,0,0,.82.46,3,3,0,0,0,1,.16c.82,0,1.22-.27,1.22-.81a.57.57,0,0,0-.16-.43.94.94,0,0,0-.42-.22,4.93,4.93,0,0,0-.69-.17,6.49,6.49,0,0,1-1-.26,1.53,1.53,0,0,1-.66-.5,1.51,1.51,0,0,1-.29-1,1.63,1.63,0,0,1,.58-1.3,2.34,2.34,0,0,1,1.56-.5,3.72,3.72,0,0,1,1,.15,2.53,2.53,0,0,1,.84.4l-.4.85a2.42,2.42,0,0,0-1.48-.47,1.46,1.46,0,0,0-.9.23.72.72,0,0,0-.31.59.63.63,0,0,0,.18.47,1,1,0,0,0,.42.24c.18.06.42.12.73.19a5.66,5.66,0,0,1,1,.27,1.47,1.47,0,0,1,.66.47,1.49,1.49,0,0,1,.27,1,1.6,1.6,0,0,1-.6,1.3A2.53,2.53,0,0,1,74.43,329.74Zm8.25-6.05v6H81.8v-.9a2,2,0,0,1-.75.72,2,2,0,0,1-1,.25,2.09,2.09,0,0,1-1.62-.65,2.9,2.9,0,0,1-.59-2v-3.44h.93V327a2.08,2.08,0,0,0,.36,1.32,1.25,1.25,0,0,0,1,.44,1.4,1.4,0,0,0,1.16-.52,2.2,2.2,0,0,0,.43-1.47v-3.09Zm4.58-.06a2.34,2.34,0,0,1,1.33.39,2.48,2.48,0,0,1,.92,1.07,3.51,3.51,0,0,1,.34,1.59,3.63,3.63,0,0,1-.34,1.61,2.6,2.6,0,0,1-.92,1.07,2.41,2.41,0,0,1-1.33.38,2.08,2.08,0,0,1-1-.25,2.11,2.11,0,0,1-.77-.72v3.09h-.93v-8.17h.89v.95a2.1,2.1,0,0,1,.79-.75A2.14,2.14,0,0,1,87.26,323.63Zm-.08,5.16a1.49,1.49,0,0,0,.88-.26,1.8,1.8,0,0,0,.62-.74,2.59,2.59,0,0,0,.23-1.11,2.5,2.5,0,0,0-.23-1.09,1.66,1.66,0,0,0-.62-.75,1.57,1.57,0,0,0-.88-.26,1.55,1.55,0,0,0-.88.27,1.89,1.89,0,0,0-.62.74,2.65,2.65,0,0,0-.22,1.09,2.75,2.75,0,0,0,.22,1.11,1.88,1.88,0,0,0,.62.74A1.54,1.54,0,0,0,87.18,328.79ZM94,323.63a2.36,2.36,0,0,1,1.33.39,2.48,2.48,0,0,1,.92,1.07,3.51,3.51,0,0,1,.34,1.59,3.63,3.63,0,0,1-.34,1.61,2.6,2.6,0,0,1-.92,1.07,2.43,2.43,0,0,1-1.33.38,2.08,2.08,0,0,1-1-.25,2.11,2.11,0,0,1-.77-.72v3.09h-.93v-8.17h.89v.95a2.15,2.15,0,0,1,.78-.75A2.21,2.21,0,0,1,94,323.63Zm-.08,5.16a1.49,1.49,0,0,0,.88-.26,1.88,1.88,0,0,0,.62-.74,2.59,2.59,0,0,0,.23-1.11,2.5,2.5,0,0,0-.23-1.09,1.72,1.72,0,0,0-.62-.75,1.57,1.57,0,0,0-.88-.26,1.55,1.55,0,0,0-.88.27,1.89,1.89,0,0,0-.62.74,2.5,2.5,0,0,0-.22,1.09,2.59,2.59,0,0,0,.22,1.11,1.88,1.88,0,0,0,.62.74A1.54,1.54,0,0,0,93.87,328.79Zm4-7.49h.93v8.37h-.93Zm7.33,2.39-2.48,6.58a3.07,3.07,0,0,1-.77,1.29,1.56,1.56,0,0,1-1.06.37,2.06,2.06,0,0,1-.73-.14,1.43,1.43,0,0,1-.58-.41l.4-.81a1.2,1.2,0,0,0,.91.44.73.73,0,0,0,.56-.22,1.6,1.6,0,0,0,.42-.71l.16-.42-2.26-6h1l1.79,4.79,1.77-4.79Zm5.53-.06a2.14,2.14,0,0,1,1.63.61,2.6,2.6,0,0,1,.57,1.82v3.61h-.88v-.79a1.61,1.61,0,0,1-.67.65,2.25,2.25,0,0,1-1,.21,2,2,0,0,1-1.39-.48,1.86,1.86,0,0,1,0-2.54,2.16,2.16,0,0,1,1.57-.49h1.47V326a1.54,1.54,0,0,0-.35-1.08,1.32,1.32,0,0,0-1-.37,2.28,2.28,0,0,0-.89.18,2.21,2.21,0,0,0-.74.46l-.38-.81a2.48,2.48,0,0,1,.94-.56A3.28,3.28,0,0,1,110.78,323.63Zm-.21,5.28a1.56,1.56,0,0,0,.92-.27,1.64,1.64,0,0,0,.56-.79V327h-1.43c-.79,0-1.18.31-1.18.93a.9.9,0,0,0,.3.71A1.25,1.25,0,0,0,110.57,328.91Zm5.69.83a3.72,3.72,0,0,1-1.2-.19,2.53,2.53,0,0,1-.91-.51l.38-.86a2.75,2.75,0,0,0,.83.46,3,3,0,0,0,1,.16c.81,0,1.22-.27,1.22-.81a.57.57,0,0,0-.16-.43.94.94,0,0,0-.42-.22,4.78,4.78,0,0,0-.7-.17,6.33,6.33,0,0,1-1-.26,1.62,1.62,0,0,1-.67-.5,1.57,1.57,0,0,1-.28-1,1.63,1.63,0,0,1,.58-1.3,2.34,2.34,0,0,1,1.56-.5,3.6,3.6,0,0,1,1,.15,2.53,2.53,0,0,1,.84.4l-.39.85a2.42,2.42,0,0,0-1.48-.47,1.46,1.46,0,0,0-.9.23.69.69,0,0,0-.31.59.66.66,0,0,0,.17.47,1.07,1.07,0,0,0,.43.24c.17.06.42.12.72.19a5.56,5.56,0,0,1,1,.27,1.47,1.47,0,0,1,.66.47,1.49,1.49,0,0,1,.27,1,1.6,1.6,0,0,1-.6,1.3A2.54,2.54,0,0,1,116.26,329.74Zm8.37,0a2.47,2.47,0,0,1-1.37-.39,2.75,2.75,0,0,1-1-1.09,3.5,3.5,0,0,1-.34-1.58,3.45,3.45,0,0,1,.34-1.57,2.59,2.59,0,0,1,1-1.08,2.47,2.47,0,0,1,1.37-.4,2.44,2.44,0,0,1,1.36.4,2.57,2.57,0,0,1,1,1.08,3.46,3.46,0,0,1,.35,1.57,3.5,3.5,0,0,1-.35,1.58,2.72,2.72,0,0,1-1,1.09A2.43,2.43,0,0,1,124.63,329.74Zm0-.95a1.49,1.49,0,0,0,.88-.26,1.88,1.88,0,0,0,.62-.74,2.59,2.59,0,0,0,.22-1.11,2.5,2.5,0,0,0-.22-1.09,1.72,1.72,0,0,0-.62-.75,1.57,1.57,0,0,0-.88-.26,1.6,1.6,0,0,0-.89.26,1.79,1.79,0,0,0-.62.75,2.5,2.5,0,0,0-.22,1.09,2.59,2.59,0,0,0,.22,1.11,2,2,0,0,0,.62.74A1.53,1.53,0,0,0,124.63,328.79Zm5.92-6.67q-.84,0-.84,1.05v.52h1.49v.89h-1.47v5.09h-.92v-5.09h-.87v-.89h.87v-.53a2.05,2.05,0,0,1,.44-1.41,1.55,1.55,0,0,1,1.25-.52,1.85,1.85,0,0,1,.58.09,1.38,1.38,0,0,1,.46.26l-.28.82A1,1,0,0,0,130.55,322.12Zm5.43.63v2.76h3.39v1H136v3.19h-1v-7.9h4.78v1Zm9.6,4c0,.08,0,.19,0,.32h-4.15a2,2,0,0,0,.59,1.28,1.76,1.76,0,0,0,1.26.47,1.78,1.78,0,0,0,1.48-.72l.51.7a2.17,2.17,0,0,1-.87.72,2.52,2.52,0,0,1-1.15.25,2.76,2.76,0,0,1-1.44-.38,2.66,2.66,0,0,1-1-1.1,3.5,3.5,0,0,1-.34-1.58,3.65,3.65,0,0,1,.33-1.57,2.63,2.63,0,0,1,.91-1.08,2.39,2.39,0,0,1,1.33-.4,2.25,2.25,0,0,1,1.3.4,2.47,2.47,0,0,1,.9,1.08A3.73,3.73,0,0,1,145.58,326.72Zm-2.53-2.17a1.49,1.49,0,0,0-1.12.47,2,2,0,0,0-.52,1.24h3.28a2,2,0,0,0-.53-1.23A1.46,1.46,0,0,0,143.05,324.55Zm6.64-.92A2.36,2.36,0,0,1,151,324a2.55,2.55,0,0,1,.92,1.07,3.65,3.65,0,0,1,.34,1.59,3.77,3.77,0,0,1-.34,1.61,2.67,2.67,0,0,1-.92,1.07,2.43,2.43,0,0,1-1.33.38,2.1,2.1,0,0,1-1.05-.26,2.15,2.15,0,0,1-.78-.75v.94H147V321.3h.93v3.29a2,2,0,0,1,.77-.71A2.2,2.2,0,0,1,149.69,323.63Zm-.08,5.16a1.49,1.49,0,0,0,.88-.26,1.88,1.88,0,0,0,.62-.74,2.59,2.59,0,0,0,.23-1.11,2.5,2.5,0,0,0-.23-1.09,1.72,1.72,0,0,0-.62-.75,1.57,1.57,0,0,0-.88-.26,1.59,1.59,0,0,0-.88.26,1.72,1.72,0,0,0-.62.75,2.5,2.5,0,0,0-.22,1.09,2.59,2.59,0,0,0,.22,1.11,1.88,1.88,0,0,0,.62.74A1.52,1.52,0,0,0,149.61,328.79Zm11.26-7v.77l-2.74,7.13h-1l2.68-6.92h-3.1v1.41h-.92v-2.39Z" transform="translate(-72.07 -265.22)"/><path class="cls-10" d="M78.91,517v7.9h-.79L74.06,519v5.89h-1V517h.8L78,522.91V517Zm4.19,8a2.52,2.52,0,0,1-1.38-.39,2.8,2.8,0,0,1-1-1.09,3.52,3.52,0,0,1-.34-1.58,3.45,3.45,0,0,1,.34-1.57,2.58,2.58,0,0,1,1-1.08,2.45,2.45,0,0,1,1.38-.4,2.36,2.36,0,0,1,1.36.4,2.51,2.51,0,0,1,1,1.08,3.45,3.45,0,0,1,.34,1.57,3.52,3.52,0,0,1-.34,1.58,2.72,2.72,0,0,1-1,1.09A2.43,2.43,0,0,1,83.1,525Zm0-1a1.49,1.49,0,0,0,.88-.26,1.78,1.78,0,0,0,.61-.74,2.65,2.65,0,0,0,.23-1.11,2.5,2.5,0,0,0-.23-1.09,1.64,1.64,0,0,0-.61-.75,1.57,1.57,0,0,0-.88-.26,1.6,1.6,0,0,0-.89.26,1.72,1.72,0,0,0-.62.75,2.5,2.5,0,0,0-.22,1.09,2.65,2.65,0,0,0,.22,1.11,1.88,1.88,0,0,0,.62.74A1.53,1.53,0,0,0,83.1,524Zm6.92.53a1.43,1.43,0,0,1-.5.32,1.87,1.87,0,0,1-.62.1,1.51,1.51,0,0,1-1.2-.48,2.08,2.08,0,0,1-.43-1.39v-3.29H86.4v-.89h.87v-1.31h.93v1.31h1.47v.89H88.2v3.24a1.26,1.26,0,0,0,.2.75.76.76,0,0,0,.6.26,1,1,0,0,0,.73-.29ZM95.7,522a2.06,2.06,0,0,1,0,.33H91.53a2,2,0,0,0,.59,1.28,1.8,1.8,0,0,0,1.26.47,1.78,1.78,0,0,0,1.48-.72l.51.7a2.17,2.17,0,0,1-.87.72,2.52,2.52,0,0,1-1.15.25,2.76,2.76,0,0,1-1.44-.38,2.66,2.66,0,0,1-1-1.1,3.52,3.52,0,0,1-.34-1.58,3.65,3.65,0,0,1,.33-1.57,2.51,2.51,0,0,1,.92-1.08,2.26,2.26,0,0,1,1.32-.4,2.18,2.18,0,0,1,1.3.4,2.41,2.41,0,0,1,.9,1.08A3.72,3.72,0,0,1,95.7,522Zm-2.53-2.16a1.46,1.46,0,0,0-1.12.47,2,2,0,0,0-.52,1.24h3.28a2,2,0,0,0-.53-1.23A1.46,1.46,0,0,0,93.17,519.8Zm4.14.63a.58.58,0,0,1-.46-.22.81.81,0,0,1-.19-.56.76.76,0,0,1,.19-.54.59.59,0,0,1,.46-.23.58.58,0,0,1,.46.22.93.93,0,0,1,0,1.11A.55.55,0,0,1,97.31,520.43Zm0,4.56a.6.6,0,0,1-.46-.21.84.84,0,0,1-.19-.57.76.76,0,0,1,.19-.54.59.59,0,0,1,.46-.23.61.61,0,0,1,.46.22.83.83,0,0,1,.18.55.84.84,0,0,1-.19.57A.57.57,0,0,1,97.31,525Zm9.59-4.06h.93V524a3.58,3.58,0,0,1-1.17.74,3.69,3.69,0,0,1-1.39.26,3.35,3.35,0,0,1-1.85-.52,3.6,3.6,0,0,1-1.29-1.44,4.84,4.84,0,0,1,0-4.16,3.54,3.54,0,0,1,1.29-1.44,3.44,3.44,0,0,1,1.87-.52,3.37,3.37,0,0,1,1.47.31,3.1,3.1,0,0,1,1.13.91l-.6.7a2.54,2.54,0,0,0-2-.92,2.6,2.6,0,0,0-1.4.4,2.64,2.64,0,0,0-1,1.08,3.32,3.32,0,0,0-.35,1.56,3.37,3.37,0,0,0,.35,1.56,2.7,2.7,0,0,0,1,1.08,2.51,2.51,0,0,0,1.39.4,2.55,2.55,0,0,0,1.58-.51Zm4.61-2a2.1,2.1,0,0,1,1.62.61,2.58,2.58,0,0,1,.57,1.82v3.61h-.88v-.79a1.53,1.53,0,0,1-.66.65,2.29,2.29,0,0,1-1,.21,2,2,0,0,1-1.38-.48,1.88,1.88,0,0,1,0-2.55,2.19,2.19,0,0,1,1.57-.48h1.47v-.22a1.53,1.53,0,0,0-.35-1.07,1.32,1.32,0,0,0-1-.37,2.32,2.32,0,0,0-.89.18,2.17,2.17,0,0,0-.73.46l-.39-.81a2.52,2.52,0,0,1,1-.56A3.28,3.28,0,0,1,111.51,518.88Zm-.21,5.28a1.59,1.59,0,0,0,.92-.28,1.61,1.61,0,0,0,.56-.79v-.83h-1.43c-.79,0-1.18.31-1.18.92a.91.91,0,0,0,.3.72A1.23,1.23,0,0,0,111.3,524.16ZM117,525a3.78,3.78,0,0,1-1.21-.19,2.79,2.79,0,0,1-.91-.51l.39-.86a2.59,2.59,0,0,0,.82.45,2.81,2.81,0,0,0,1,.17c.81,0,1.22-.27,1.22-.81a.58.58,0,0,0-.17-.43,1,1,0,0,0-.41-.22,5.14,5.14,0,0,0-.7-.17,7.63,7.63,0,0,1-1-.26,1.62,1.62,0,0,1-.67-.5,1.51,1.51,0,0,1-.28-1,1.6,1.6,0,0,1,.58-1.3,2.32,2.32,0,0,1,1.56-.5,3.6,3.6,0,0,1,1,.15,2.73,2.73,0,0,1,.84.39l-.4.86a2.39,2.39,0,0,0-1.47-.47,1.49,1.49,0,0,0-.9.22.7.7,0,0,0-.31.6.66.66,0,0,0,.17.47,1.07,1.07,0,0,0,.43.24,5.31,5.31,0,0,0,.72.18,6.74,6.74,0,0,1,1,.28,1.42,1.42,0,0,1,.65.47,1.49,1.49,0,0,1,.28,1,1.6,1.6,0,0,1-.6,1.3A2.58,2.58,0,0,1,117,525Zm12.58-6.11a1.92,1.92,0,0,1,1.53.66,2.86,2.86,0,0,1,.57,1.94v3.44h-.93V521.6a2.11,2.11,0,0,0-.35-1.31,1.15,1.15,0,0,0-1-.44,1.39,1.39,0,0,0-1.13.52,2.32,2.32,0,0,0-.41,1.47v3.08H127V521.6a2.11,2.11,0,0,0-.35-1.31,1.15,1.15,0,0,0-1-.44,1.37,1.37,0,0,0-1.12.52,2.26,2.26,0,0,0-.42,1.47v3.08h-.93v-6h.89v.89a1.84,1.84,0,0,1,.74-.7,2,2,0,0,1,1-.25,2.07,2.07,0,0,1,1.06.28,1.89,1.89,0,0,1,.72.83,2,2,0,0,1,.8-.81A2.32,2.32,0,0,1,129.57,518.88Zm8.56,3.08a2.06,2.06,0,0,1,0,.33H134a2,2,0,0,0,.59,1.28,1.8,1.8,0,0,0,1.26.47,1.77,1.77,0,0,0,1.48-.72l.52.7a2.31,2.31,0,0,1-.87.72,2.58,2.58,0,0,1-1.15.25,2.77,2.77,0,0,1-1.45-.38,2.73,2.73,0,0,1-1-1.1,3.52,3.52,0,0,1-.34-1.58,3.65,3.65,0,0,1,.33-1.57,2.51,2.51,0,0,1,.92-1.08,2.26,2.26,0,0,1,1.32-.4,2.21,2.21,0,0,1,1.31.4,2.54,2.54,0,0,1,.9,1.08A3.87,3.87,0,0,1,138.13,522Zm-2.53-2.16a1.47,1.47,0,0,0-1.12.47,2,2,0,0,0-.52,1.24h3.28a2,2,0,0,0-.53-1.23A1.43,1.43,0,0,0,135.6,519.8Zm5.65-.92a2.1,2.1,0,0,1,1.62.61,2.58,2.58,0,0,1,.57,1.82v3.61h-.88v-.79a1.56,1.56,0,0,1-.67.65,2.25,2.25,0,0,1-1,.21,2,2,0,0,1-1.38-.48,1.88,1.88,0,0,1,0-2.55,2.17,2.17,0,0,1,1.56-.48h1.47v-.22a1.53,1.53,0,0,0-.34-1.07,1.35,1.35,0,0,0-1-.37,2.32,2.32,0,0,0-.89.18,2.17,2.17,0,0,0-.73.46l-.39-.81a2.45,2.45,0,0,1,1-.56A3.2,3.2,0,0,1,141.25,518.88Zm-.22,5.28a1.57,1.57,0,0,0,.92-.28,1.49,1.49,0,0,0,.56-.79v-.83h-1.43c-.78,0-1.18.31-1.18.92a.91.91,0,0,0,.3.72A1.25,1.25,0,0,0,141,524.16Zm5.7.83a3.78,3.78,0,0,1-1.21-.19,2.68,2.68,0,0,1-.91-.51l.39-.86a2.48,2.48,0,0,0,.82.45,2.77,2.77,0,0,0,1,.17c.81,0,1.21-.27,1.21-.81a.57.57,0,0,0-.16-.43.94.94,0,0,0-.42-.22,4.93,4.93,0,0,0-.69-.17,8.28,8.28,0,0,1-1-.26,1.53,1.53,0,0,1-.66-.5,1.51,1.51,0,0,1-.28-1,1.6,1.6,0,0,1,.58-1.3,2.29,2.29,0,0,1,1.55-.5,3.72,3.72,0,0,1,1,.15,2.73,2.73,0,0,1,.84.39l-.4.86a2.42,2.42,0,0,0-1.48-.47,1.54,1.54,0,0,0-.9.22.72.72,0,0,0-.31.6.63.63,0,0,0,.18.47,1,1,0,0,0,.42.24,6,6,0,0,0,.73.18,6.57,6.57,0,0,1,1,.28,1.39,1.39,0,0,1,.66.47,1.49,1.49,0,0,1,.27,1,1.6,1.6,0,0,1-.6,1.3A2.53,2.53,0,0,1,146.73,525Zm8.25-6v6h-.88V524a2,2,0,0,1-.75.72,2,2,0,0,1-1,.25,2.09,2.09,0,0,1-1.62-.65,2.9,2.9,0,0,1-.59-2v-3.44h.93v3.32a2.08,2.08,0,0,0,.36,1.32,1.25,1.25,0,0,0,1,.44,1.4,1.4,0,0,0,1.16-.52,2.24,2.24,0,0,0,.43-1.47v-3.09Zm2.75,1a1.73,1.73,0,0,1,.72-.79,2.28,2.28,0,0,1,1.15-.27v1h-.21a1.46,1.46,0,0,0-1.19.53,2.26,2.26,0,0,0-.43,1.49v3h-.93v-6h.89Zm7.7,2c0,.09,0,.2,0,.33h-4.16a2,2,0,0,0,.59,1.28,1.81,1.81,0,0,0,1.27.47,1.76,1.76,0,0,0,1.47-.72l.52.7a2.17,2.17,0,0,1-.87.72,2.55,2.55,0,0,1-1.15.25,2.76,2.76,0,0,1-1.44-.38,2.68,2.68,0,0,1-1-1.1,3.52,3.52,0,0,1-.34-1.58,3.65,3.65,0,0,1,.33-1.57,2.58,2.58,0,0,1,.92-1.08,2.26,2.26,0,0,1,1.32-.4,2.21,2.21,0,0,1,1.31.4,2.54,2.54,0,0,1,.9,1.08A3.72,3.72,0,0,1,165.43,522Zm-2.54-2.16a1.47,1.47,0,0,0-1.12.47,2.1,2.1,0,0,0-.52,1.24h3.29a2.05,2.05,0,0,0-.54-1.23A1.43,1.43,0,0,0,162.89,519.8Zm8.76-3.26v8.38h-.89V524a2.1,2.1,0,0,1-.78.76,2.21,2.21,0,0,1-1,.26,2.43,2.43,0,0,1-1.33-.38,2.66,2.66,0,0,1-.93-1.08,3.69,3.69,0,0,1-.33-1.6,3.64,3.64,0,0,1,.33-1.59,2.57,2.57,0,0,1,.93-1.07,2.36,2.36,0,0,1,1.33-.39,2.1,2.1,0,0,1,1.79,1v-3.3ZM169,524a1.54,1.54,0,0,0,.88-.26,1.88,1.88,0,0,0,.62-.74,2.65,2.65,0,0,0,.22-1.11,2.5,2.5,0,0,0-.22-1.09,1.72,1.72,0,0,0-.62-.75,1.64,1.64,0,0,0-1.77,0,1.79,1.79,0,0,0-.62.75,2.5,2.5,0,0,0-.22,1.09,2.65,2.65,0,0,0,.22,1.11,2,2,0,0,0,.62.74A1.53,1.53,0,0,0,169,524Zm7.19-5.1h.93v6h-.93Zm.46-1.15a.57.57,0,0,1-.45-.21.7.7,0,0,1-.17-.49.72.72,0,0,1,.17-.5.57.57,0,0,1,.45-.21.56.56,0,0,1,.45.2.68.68,0,0,1,.18.48.77.77,0,0,1-.18.52A.57.57,0,0,1,176.66,517.79Zm5.08,1.09a1.9,1.9,0,0,1,1.54.67,2.8,2.8,0,0,1,.58,1.93v3.44h-.93V521.6a2,2,0,0,0-.35-1.31,1.26,1.26,0,0,0-1-.44,1.49,1.49,0,0,0-1.19.52,2.2,2.2,0,0,0-.43,1.47v3.08H179v-6h.89v.9a2,2,0,0,1,.75-.71A2.34,2.34,0,0,1,181.74,518.88Zm9.35,0a2.39,2.39,0,0,1,1.34.39,2.46,2.46,0,0,1,.91,1.07,3.51,3.51,0,0,1,.34,1.59,3.55,3.55,0,0,1-.34,1.6,2.54,2.54,0,0,1-.91,1.08,2.46,2.46,0,0,1-1.34.38,2.14,2.14,0,0,1-1-.26,2,2,0,0,1-.78-.76v.95h-.89v-8.38h.92v3.3a2.11,2.11,0,0,1,.78-.71A2.07,2.07,0,0,1,191.09,518.88ZM191,524a1.52,1.52,0,0,0,.88-.26,1.78,1.78,0,0,0,.61-.74,2.51,2.51,0,0,0,.24-1.11,2.37,2.37,0,0,0-.24-1.09,1.64,1.64,0,0,0-.61-.75,1.59,1.59,0,0,0-.88-.26,1.57,1.57,0,0,0-.88.26,1.66,1.66,0,0,0-.62.75,2.5,2.5,0,0,0-.22,1.09,2.65,2.65,0,0,0,.22,1.11,1.8,1.8,0,0,0,.62.74A1.49,1.49,0,0,0,191,524Zm4-5.1H196v6h-.92Zm.46-1.15a.57.57,0,0,1-.45-.21.71.71,0,0,1-.18-.49.73.73,0,0,1,.18-.5.57.57,0,0,1,.45-.21.53.53,0,0,1,.44.2.65.65,0,0,1,.19.48.73.73,0,0,1-.19.52A.54.54,0,0,1,195.53,517.79Zm2.34-1.25h.92v8.38h-.92Zm2.8,0h.92v8.38h-.92Zm2.8,2.4h.92v6h-.92Zm.46-1.15a.57.57,0,0,1-.45-.21.71.71,0,0,1-.18-.49.73.73,0,0,1,.18-.5.57.57,0,0,1,.45-.21.56.56,0,0,1,.45.2.68.68,0,0,1,.18.48.77.77,0,0,1-.18.52A.57.57,0,0,1,203.93,517.79Zm4.53,7.2a2.47,2.47,0,0,1-1.37-.39,2.75,2.75,0,0,1-1-1.09,3.66,3.66,0,0,1-.34-1.58,3.59,3.59,0,0,1,.34-1.57,2.53,2.53,0,0,1,1-1.08,2.4,2.4,0,0,1,1.37-.4,2.36,2.36,0,0,1,1.36.4,2.45,2.45,0,0,1,1,1.08,3.46,3.46,0,0,1,.35,1.57,3.53,3.53,0,0,1-.35,1.58,2.65,2.65,0,0,1-1,1.09A2.43,2.43,0,0,1,208.46,525Zm0-1a1.49,1.49,0,0,0,.88-.26A1.8,1.8,0,0,0,210,523a2.65,2.65,0,0,0,.22-1.11,2.5,2.5,0,0,0-.22-1.09,1.66,1.66,0,0,0-.62-.75,1.57,1.57,0,0,0-.88-.26,1.63,1.63,0,0,0-.89.26,1.79,1.79,0,0,0-.62.75,2.65,2.65,0,0,0-.22,1.09A2.82,2.82,0,0,0,207,523a2,2,0,0,0,.62.74A1.55,1.55,0,0,0,208.46,524Zm6.78-5.16a1.94,1.94,0,0,1,1.55.67,2.85,2.85,0,0,1,.58,1.93v3.44h-.93V521.6a2,2,0,0,0-.36-1.31,1.26,1.26,0,0,0-1-.44,1.47,1.47,0,0,0-1.18.52,2.21,2.21,0,0,0-.44,1.47v3.08h-.93v-6h.89v.9a1.92,1.92,0,0,1,.76-.71A2.28,2.28,0,0,1,215.24,518.88Zm8.87,6.11a2.57,2.57,0,0,1-1.4-.39,2.82,2.82,0,0,1-1-1.09,3.52,3.52,0,0,1-.34-1.58,3.45,3.45,0,0,1,.34-1.57,2.6,2.6,0,0,1,1-1.08,2.49,2.49,0,0,1,1.4-.4,2.32,2.32,0,0,1,1.24.33,2.13,2.13,0,0,1,.85.95l-.71.53a1.72,1.72,0,0,0-.6-.65,1.51,1.51,0,0,0-.79-.21,1.69,1.69,0,0,0-.91.26,1.72,1.72,0,0,0-.62.75,2.5,2.5,0,0,0-.23,1.09,2.67,2.67,0,0,0,.23,1.12,1.78,1.78,0,0,0,.62.73,1.61,1.61,0,0,0,.91.26,1.51,1.51,0,0,0,.79-.21,1.72,1.72,0,0,0,.6-.65l.71.52a2.16,2.16,0,0,1-.85,1A2.32,2.32,0,0,1,224.11,525Zm8.17-6v6h-.88V524a2,2,0,0,1-.75.72,2,2,0,0,1-1,.25,2.09,2.09,0,0,1-1.62-.65,2.9,2.9,0,0,1-.59-2v-3.44h.93v3.32a2.08,2.08,0,0,0,.36,1.32,1.25,1.25,0,0,0,1,.44,1.4,1.4,0,0,0,1.16-.52,2.24,2.24,0,0,0,.43-1.47v-3.09Zm4.58-.06a2.34,2.34,0,0,1,1.33.39,2.48,2.48,0,0,1,.92,1.07,3.51,3.51,0,0,1,.34,1.59,3.55,3.55,0,0,1-.34,1.6,2.56,2.56,0,0,1-.92,1.08,2.41,2.41,0,0,1-1.33.38,2.14,2.14,0,0,1-1-.26A2.05,2.05,0,0,1,235,524v.95h-.89v-8.38h.93v3.3a2.11,2.11,0,0,1,.78-.71A2,2,0,0,1,236.86,518.88Zm-.08,5.16a1.49,1.49,0,0,0,.88-.26,1.8,1.8,0,0,0,.62-.74,2.51,2.51,0,0,0,.23-1.11,2.36,2.36,0,0,0-.23-1.09,1.66,1.66,0,0,0-.62-.75,1.57,1.57,0,0,0-.88-.26,1.62,1.62,0,0,0-.88.26,1.72,1.72,0,0,0-.62.75,2.65,2.65,0,0,0-.22,1.09,2.82,2.82,0,0,0,.22,1.11,1.88,1.88,0,0,0,.62.74A1.54,1.54,0,0,0,236.78,524Zm4.05-5.1h.93v6h-.93Zm.47-1.15a.6.6,0,0,1-.46-.21.75.75,0,0,1-.17-.49.78.78,0,0,1,.17-.5.6.6,0,0,1,.46-.21.53.53,0,0,1,.44.2.69.69,0,0,1,.19.48.77.77,0,0,1-.19.52A.54.54,0,0,1,241.3,517.79Zm4.57,7.2a2.6,2.6,0,0,1-1.41-.39,2.8,2.8,0,0,1-1-1.09,3.53,3.53,0,0,1-.35-1.58,3.46,3.46,0,0,1,.35-1.57,2.58,2.58,0,0,1,1-1.08,2.52,2.52,0,0,1,1.41-.4,2.31,2.31,0,0,1,1.23.33,2.13,2.13,0,0,1,.85.95l-.7.53a1.72,1.72,0,0,0-.6-.65,1.53,1.53,0,0,0-.79-.21,1.65,1.65,0,0,0-1.54,1,2.5,2.5,0,0,0-.22,1.09,2.67,2.67,0,0,0,.22,1.12,1.73,1.73,0,0,0,.63.73,1.59,1.59,0,0,0,.91.26,1.53,1.53,0,0,0,.79-.21,1.72,1.72,0,0,0,.6-.65l.7.52a2.16,2.16,0,0,1-.85,1A2.31,2.31,0,0,1,245.87,525Zm8-7.62c-.56,0-.83.35-.83,1v.52h1.48v.89H253v5.09h-.93v-5.09h-.87v-.89h.87v-.53a2.11,2.11,0,0,1,.44-1.41,1.55,1.55,0,0,1,1.25-.52,1.81,1.81,0,0,1,.58.09,1.23,1.23,0,0,1,.46.26l-.28.82A1,1,0,0,0,253.83,517.37ZM260,522c0,.09,0,.2,0,.33h-4.16a2,2,0,0,0,.59,1.28,1.81,1.81,0,0,0,1.27.47,1.76,1.76,0,0,0,1.47-.72l.52.7a2.31,2.31,0,0,1-.87.72,2.55,2.55,0,0,1-1.15.25,2.76,2.76,0,0,1-1.44-.38,2.68,2.68,0,0,1-1-1.1,3.52,3.52,0,0,1-.34-1.58,3.65,3.65,0,0,1,.33-1.57,2.58,2.58,0,0,1,.92-1.08,2.26,2.26,0,0,1,1.32-.4,2.21,2.21,0,0,1,1.31.4,2.54,2.54,0,0,1,.9,1.08A3.72,3.72,0,0,1,260,522Zm-2.54-2.16a1.47,1.47,0,0,0-1.12.47,2.1,2.1,0,0,0-.52,1.24h3.29a2.05,2.05,0,0,0-.54-1.23A1.43,1.43,0,0,0,257.48,519.8ZM266,522a2.06,2.06,0,0,1,0,.33h-4.15a2,2,0,0,0,.59,1.28,1.8,1.8,0,0,0,1.26.47,1.77,1.77,0,0,0,1.48-.72l.52.7a2.31,2.31,0,0,1-.87.72,2.58,2.58,0,0,1-1.15.25,2.71,2.71,0,0,1-1.44-.38,2.68,2.68,0,0,1-1-1.1,3.52,3.52,0,0,1-.34-1.58,3.65,3.65,0,0,1,.33-1.57,2.51,2.51,0,0,1,.92-1.08,2.26,2.26,0,0,1,1.32-.4,2.21,2.21,0,0,1,1.31.4,2.54,2.54,0,0,1,.9,1.08A3.87,3.87,0,0,1,266,522Zm-2.53-2.16a1.47,1.47,0,0,0-1.12.47,2,2,0,0,0-.52,1.24h3.28a2,2,0,0,0-.53-1.23A1.43,1.43,0,0,0,263.5,519.8Zm6.8,4.77a1.35,1.35,0,0,1-.5.32,1.83,1.83,0,0,1-.62.1,1.54,1.54,0,0,1-1.2-.48,2.08,2.08,0,0,1-.42-1.39v-3.29h-.87v-.89h.87v-1.31h.93v1.31H270v.89h-1.47v3.24a1.19,1.19,0,0,0,.2.75.74.74,0,0,0,.6.26,1,1,0,0,0,.72-.29Zm6.64-5.69a2.36,2.36,0,0,1,1.33.39,2.48,2.48,0,0,1,.92,1.07,3.51,3.51,0,0,1,.34,1.59,3.55,3.55,0,0,1-.34,1.6,2.56,2.56,0,0,1-.92,1.08,2.43,2.43,0,0,1-1.33.38,2.08,2.08,0,0,1-1-.25,2.11,2.11,0,0,1-.77-.72v3.09h-.93v-8.17h.89v.95a2.15,2.15,0,0,1,.78-.75A2.21,2.21,0,0,1,276.94,518.88Zm-.08,5.16a1.49,1.49,0,0,0,.88-.26,1.8,1.8,0,0,0,.62-.74,2.65,2.65,0,0,0,.23-1.11,2.5,2.5,0,0,0-.23-1.09,1.66,1.66,0,0,0-.62-.75,1.57,1.57,0,0,0-.88-.26,1.55,1.55,0,0,0-.88.27,1.83,1.83,0,0,0-.62.74,2.5,2.5,0,0,0-.22,1.09,2.65,2.65,0,0,0,.22,1.11,1.88,1.88,0,0,0,.62.74A1.54,1.54,0,0,0,276.86,524Zm8.68-2.08a2.06,2.06,0,0,1,0,.33h-4.15a2,2,0,0,0,.59,1.28,1.8,1.8,0,0,0,1.26.47,1.78,1.78,0,0,0,1.48-.72l.51.7a2.17,2.17,0,0,1-.87.72,2.52,2.52,0,0,1-1.15.25,2.76,2.76,0,0,1-1.44-.38,2.66,2.66,0,0,1-1-1.1,3.52,3.52,0,0,1-.34-1.58,3.65,3.65,0,0,1,.33-1.57,2.51,2.51,0,0,1,.92-1.08,2.26,2.26,0,0,1,1.32-.4,2.18,2.18,0,0,1,1.3.4,2.41,2.41,0,0,1,.9,1.08A3.72,3.72,0,0,1,285.54,522ZM283,519.8a1.46,1.46,0,0,0-1.12.47,2,2,0,0,0-.52,1.24h3.28a2,2,0,0,0-.53-1.23A1.46,1.46,0,0,0,283,519.8Zm4.81.14a1.73,1.73,0,0,1,.72-.79,2.25,2.25,0,0,1,1.15-.27v1h-.22a1.47,1.47,0,0,0-1.19.53,2.32,2.32,0,0,0-.42,1.49v3h-.93v-6h.89Zm10.71-3.4v8.38h-.89V524a2.05,2.05,0,0,1-.79.76,2.14,2.14,0,0,1-1,.26,2.41,2.41,0,0,1-1.33-.38,2.59,2.59,0,0,1-.93-1.08,3.69,3.69,0,0,1-.33-1.6,3.64,3.64,0,0,1,.33-1.59,2.5,2.5,0,0,1,.93-1.07,2.34,2.34,0,0,1,1.33-.39,2,2,0,0,1,1,.25,2.11,2.11,0,0,1,.78.71v-3.3Zm-2.64,7.5a1.54,1.54,0,0,0,.88-.26,1.78,1.78,0,0,0,.61-.74,2.65,2.65,0,0,0,.23-1.11,2.5,2.5,0,0,0-.23-1.09,1.64,1.64,0,0,0-.61-.75,1.64,1.64,0,0,0-1.77,0,1.72,1.72,0,0,0-.62.75,2.5,2.5,0,0,0-.22,1.09,2.65,2.65,0,0,0,.22,1.11,1.88,1.88,0,0,0,.62.74A1.53,1.53,0,0,0,295.89,524Zm6.36-5.16a2.1,2.1,0,0,1,1.62.61,2.58,2.58,0,0,1,.57,1.82v3.61h-.88v-.79a1.56,1.56,0,0,1-.67.65,2.25,2.25,0,0,1-1,.21,2,2,0,0,1-1.38-.48,1.88,1.88,0,0,1,0-2.55,2.17,2.17,0,0,1,1.56-.48h1.47v-.22a1.53,1.53,0,0,0-.34-1.07,1.35,1.35,0,0,0-1-.37,2.32,2.32,0,0,0-.89.18,2.17,2.17,0,0,0-.73.46l-.39-.81a2.45,2.45,0,0,1,.95-.56A3.2,3.2,0,0,1,302.25,518.88Zm-.22,5.28a1.57,1.57,0,0,0,.92-.28,1.49,1.49,0,0,0,.56-.79v-.83h-1.43c-.78,0-1.18.31-1.18.92a.91.91,0,0,0,.3.72A1.25,1.25,0,0,0,302,524.16Zm8.67-5.22-2.49,6.58a3,3,0,0,1-.77,1.29,1.55,1.55,0,0,1-1.05.37,1.92,1.92,0,0,1-.74-.15,1.47,1.47,0,0,1-.58-.4l.4-.82a1.19,1.19,0,0,0,.92.45A.8.8,0,0,0,307,526a1.7,1.7,0,0,0,.41-.71l.17-.42-2.26-6h1l1.79,4.79,1.77-4.79Z" transform="translate(-72.07 -265.22)"/><path d="M534.13,317.51h-1.28v1.94h-.94v-1.94h-3.76v-.79l3.46-5.18h1l-3.32,5h2.6v-1.72h.91v1.72h1.28Zm2.59-2.82a3,3,0,0,1,2.13.65,2.23,2.23,0,0,1,.68,1.74,2.75,2.75,0,0,1-.29,1.26,2,2,0,0,1-.86.88,2.88,2.88,0,0,1-1.41.32,3.83,3.83,0,0,1-1.38-.25,3,3,0,0,1-1.1-.71l.44-.89a2.78,2.78,0,0,0,.89.62,2.93,2.93,0,0,0,1.14.22,1.7,1.7,0,0,0,1.18-.37,1.33,1.33,0,0,0,.42-1,1.27,1.27,0,0,0-.46-1.07,2.57,2.57,0,0,0-1.58-.37H535l.36-4.14h3.82v1h-3l-.18,2.16Z" transform="translate(-72.07 -265.22)"/><path d="M438,320.32v1h-4.86v-.77l2.75-3.1a4,4,0,0,0,.68-1,2.1,2.1,0,0,0,.17-.84,1.24,1.24,0,0,0-.37-1,1.51,1.51,0,0,0-1.07-.35,2,2,0,0,0-1.73.86l-.65-.67a2.68,2.68,0,0,1,1-.88,3.24,3.24,0,0,1,1.44-.31,2.34,2.34,0,0,1,1.69.6,2.07,2.07,0,0,1,.63,1.6,3.24,3.24,0,0,1-.23,1.2,5,5,0,0,1-.88,1.28l-2.07,2.33Zm5.65,0v1h-4.86v-.77l2.75-3.1a4,4,0,0,0,.68-1,2.1,2.1,0,0,0,.17-.84,1.24,1.24,0,0,0-.37-1,1.51,1.51,0,0,0-1.07-.35,2,2,0,0,0-1.73.86l-.65-.67a2.75,2.75,0,0,1,1-.88,3.24,3.24,0,0,1,1.44-.31,2.34,2.34,0,0,1,1.69.6,2.07,2.07,0,0,1,.63,1.6,3.24,3.24,0,0,1-.23,1.2,5,5,0,0,1-.88,1.28l-2.07,2.33Z" transform="translate(-72.07 -265.22)"/><path d="M235.24,313.4v7.9h-1v-6.92h-1.53v-1Zm6.51,0v.77L239,321.3h-1l2.68-6.92h-3.09v1.41h-.93V313.4Z" transform="translate(-72.07 -265.22)"/><path d="M486.21,360a2.42,2.42,0,0,1,2.1,1,4.85,4.85,0,0,1,.75,2.91,5.7,5.7,0,0,1-.41,2.26,3.14,3.14,0,0,1-1.12,1.41,3,3,0,0,1-1.68.48,3.46,3.46,0,0,1-.92-.12,2.36,2.36,0,0,1-.75-.35l.36-.88a2.12,2.12,0,0,0,1.31.37,2,2,0,0,0,1.64-.75,3.57,3.57,0,0,0,.6-2.23v-.28a1.94,1.94,0,0,1-.8.78,2.56,2.56,0,0,1-1.15.26,2.48,2.48,0,0,1-1.2-.29,2.23,2.23,0,0,1-.83-.84,2.9,2.9,0,0,1,0-2.57,2.21,2.21,0,0,1,.87-.87A2.35,2.35,0,0,1,486.21,360Zm.09,4a1.57,1.57,0,0,0,.81-.2,1.39,1.39,0,0,0,.55-.55,1.47,1.47,0,0,0,.21-.78,1.51,1.51,0,0,0-.2-.76,1.27,1.27,0,0,0-.55-.55,1.65,1.65,0,0,0-.87-.22,1.46,1.46,0,0,0-1.08.42,1.54,1.54,0,0,0-.41,1.12,1.51,1.51,0,0,0,.42,1.12A1.54,1.54,0,0,0,486.3,364Z" transform="translate(-72.07 -265.22)"/><path d="M439.15,399.42h-1.28v1.94h-.94v-1.94h-3.76v-.79l3.46-5.17h1l-3.31,5H437v-1.72h.91v1.72h1.28Z" transform="translate(-72.07 -265.22)"/><path d="M376.63,426.82v7.9h-1V427.8h-1.52v-1Zm6.34,6.92v1h-4.86V434l2.75-3.11a4,4,0,0,0,.68-1,2.29,2.29,0,0,0,.17-.84,1.21,1.21,0,0,0-.38-1,1.49,1.49,0,0,0-1.06-.35,2,2,0,0,0-1.73.86l-.66-.66a2.7,2.7,0,0,1,1-.88,3.11,3.11,0,0,1,1.44-.32,2.34,2.34,0,0,1,1.69.6,2.07,2.07,0,0,1,.63,1.6,3.24,3.24,0,0,1-.23,1.2,5,5,0,0,1-.88,1.28l-2.07,2.33Z" transform="translate(-72.07 -265.22)"/><path d="M340.85,460.18v7.9h-1v-6.92h-1.53v-1Zm3.77-.09a2.42,2.42,0,0,1,2.1,1,4.85,4.85,0,0,1,.75,2.91,5.7,5.7,0,0,1-.41,2.26,3.18,3.18,0,0,1-1.12,1.41,3,3,0,0,1-1.67.47,3.49,3.49,0,0,1-.93-.11,2.53,2.53,0,0,1-.76-.35l.37-.88a2.12,2.12,0,0,0,1.31.37,2,2,0,0,0,1.64-.75,3.59,3.59,0,0,0,.6-2.23v-.28a1.94,1.94,0,0,1-.8.78,2.56,2.56,0,0,1-1.15.26,2.38,2.38,0,0,1-1.2-.3,2,2,0,0,1-.82-.83,2.62,2.62,0,0,1-.29-1.27,2.67,2.67,0,0,1,.31-1.31,2.32,2.32,0,0,1,.86-.87A2.34,2.34,0,0,1,344.62,460.09Zm.09,4a1.68,1.68,0,0,0,.81-.2,1.45,1.45,0,0,0,.55-.55,1.55,1.55,0,0,0,0-1.54,1.27,1.27,0,0,0-.55-.55,1.61,1.61,0,0,0-.87-.22,1.46,1.46,0,0,0-1.08.42,1.54,1.54,0,0,0-.41,1.12,1.51,1.51,0,0,0,.42,1.12A1.54,1.54,0,0,0,344.71,464.06Z" transform="translate(-72.07 -265.22)"/><path d="M327.42,318a2.33,2.33,0,0,1,1.19.29,2,2,0,0,1,.83.85,2.51,2.51,0,0,1,.3,1.25,2.55,2.55,0,0,1-.32,1.31,2.14,2.14,0,0,1-.86.88,2.66,2.66,0,0,1-3.32-.72,5,5,0,0,1-.74-2.92,5.72,5.72,0,0,1,.4-2.24,3,3,0,0,1,1.12-1.41,2.93,2.93,0,0,1,1.68-.49,3.48,3.48,0,0,1,.93.12,2.51,2.51,0,0,1,.76.34l-.37.88a2.13,2.13,0,0,0-1.3-.37,2,2,0,0,0-1.65.77,3.49,3.49,0,0,0-.6,2.21,2.1,2.1,0,0,0,0,.28,1.93,1.93,0,0,1,.79-.76A2.44,2.44,0,0,1,327.42,318Zm-.11,4a1.46,1.46,0,0,0,1.08-.42,1.51,1.51,0,0,0,.42-1.12,1.47,1.47,0,0,0-.43-1.1,1.51,1.51,0,0,0-1.12-.42,1.68,1.68,0,0,0-.81.2,1.48,1.48,0,0,0-.55.56,1.56,1.56,0,0,0-.2.78,1.53,1.53,0,0,0,.19.76,1.55,1.55,0,0,0,.55.56A1.8,1.8,0,0,0,327.31,322Z" transform="translate(-72.07 -265.22)"/><path d="M77.4,458.39H73.81l-.75,2h-1l3.06-7.9h1l3.07,7.9h-1Zm-.33-.9-1.46-3.87-1.46,3.87Zm7.34-3.11-2.25,6h-.94l-2.25-6h1l1.76,4.8,1.8-4.8Zm2.67-.05a2.07,2.07,0,0,1,1.62.61,2.56,2.56,0,0,1,.57,1.82v3.61h-.88v-.79a1.51,1.51,0,0,1-.66.64,2.19,2.19,0,0,1-1,.22,1.93,1.93,0,0,1-1.38-.49,1.86,1.86,0,0,1,0-2.54,2.19,2.19,0,0,1,1.57-.48h1.46v-.22a1.51,1.51,0,0,0-.34-1.07,1.35,1.35,0,0,0-1-.37,2.32,2.32,0,0,0-.89.18,2,2,0,0,0-.73.46L85,455.1a2.68,2.68,0,0,1,1-.57A3.51,3.51,0,0,1,87.08,454.33Zm-.21,5.27a1.47,1.47,0,0,0,1.47-1.06v-.84H86.91q-1.17,0-1.17.93a.91.91,0,0,0,.29.71A1.21,1.21,0,0,0,86.87,459.6Zm4.22-5.22H92v6h-.93Zm.46-1.15a.56.56,0,0,1-.45-.2.72.72,0,0,1-.17-.5.7.7,0,0,1,.17-.49.55.55,0,0,1,.45-.22A.57.57,0,0,1,92,452a.65.65,0,0,1,.18.48A.78.78,0,0,1,92,453,.56.56,0,0,1,91.55,453.23ZM93.89,452h.93v8.38h-.93Zm4.67,2.34a2.07,2.07,0,0,1,1.62.61,2.56,2.56,0,0,1,.57,1.82v3.61h-.88v-.79a1.54,1.54,0,0,1-.67.64,2.12,2.12,0,0,1-1,.22,1.93,1.93,0,0,1-1.38-.49,1.84,1.84,0,0,1,0-2.54,2.17,2.17,0,0,1,1.56-.48h1.47v-.22a1.47,1.47,0,0,0-.35-1.07,1.32,1.32,0,0,0-1-.37,2.32,2.32,0,0,0-.89.18,2,2,0,0,0-.73.46l-.39-.81a2.59,2.59,0,0,1,1-.57A3.42,3.42,0,0,1,98.56,454.33Zm-.22,5.27a1.56,1.56,0,0,0,.92-.27,1.53,1.53,0,0,0,.56-.79v-.84H98.39c-.78,0-1.18.31-1.18.93a.89.89,0,0,0,.3.71A1.2,1.2,0,0,0,98.34,459.6Zm6.94-5.27a2.44,2.44,0,0,1,1.34.38,2.64,2.64,0,0,1,.92,1.08,3.61,3.61,0,0,1,.34,1.59,3.72,3.72,0,0,1-.34,1.6,2.55,2.55,0,0,1-.92,1.07,2.37,2.37,0,0,1-1.34.39,2.07,2.07,0,0,1-1.82-1v.95h-.89V452h.93v3.3a1.94,1.94,0,0,1,.77-.71A2.07,2.07,0,0,1,105.28,454.33Zm-.07,5.16a1.57,1.57,0,0,0,.88-.26,1.85,1.85,0,0,0,.62-.75,2.57,2.57,0,0,0,.23-1.1,2.54,2.54,0,0,0-.23-1.1,1.75,1.75,0,0,0-.62-.74,1.49,1.49,0,0,0-.88-.26,1.52,1.52,0,0,0-.88.26,1.68,1.68,0,0,0-.62.74,2.54,2.54,0,0,0-.22,1.1,2.57,2.57,0,0,0,.22,1.1,1.77,1.77,0,0,0,.62.75A1.59,1.59,0,0,0,105.21,459.49Zm4.05-7.5h.93v8.38h-.93Zm7.43,5.42c0,.08,0,.19,0,.33h-4.16a2,2,0,0,0,.59,1.27,1.9,1.9,0,0,0,2.75-.24l.51.7a2.34,2.34,0,0,1-.87.72,2.82,2.82,0,0,1-2.59-.14,2.66,2.66,0,0,1-1-1.09,3.7,3.7,0,0,1-.34-1.58,3.62,3.62,0,0,1,.33-1.57,2.68,2.68,0,0,1,.92-1.09,2.36,2.36,0,0,1,1.33-.39,2.24,2.24,0,0,1,1.3.39,2.49,2.49,0,0,1,.9,1.09A3.69,3.69,0,0,1,116.69,457.41Zm-2.53-2.17a1.5,1.5,0,0,0-1.13.48,2.07,2.07,0,0,0-.52,1.24h3.29a2,2,0,0,0-.53-1.23A1.44,1.44,0,0,0,114.16,455.24Zm11.51-.86v5.18a3.43,3.43,0,0,1-.66,2.31,2.51,2.51,0,0,1-2,.76,4,4,0,0,1-1.39-.24,2.68,2.68,0,0,1-1.06-.65l.45-.84a2.33,2.33,0,0,0,.88.56,2.72,2.72,0,0,0,1.09.22,1.64,1.64,0,0,0,1.32-.5,2.23,2.23,0,0,0,.44-1.51v-.47a2.21,2.21,0,0,1-.82.7,2.35,2.35,0,0,1-1,.22,2.45,2.45,0,0,1-2.26-1.39,3.23,3.23,0,0,1-.34-1.51,3.13,3.13,0,0,1,.34-1.5,2.39,2.39,0,0,1,.93-1,2.53,2.53,0,0,1,1.33-.36,2.28,2.28,0,0,1,1.07.25,2,2,0,0,1,.82.73v-.93ZM123,459.17a1.65,1.65,0,0,0,.9-.25,1.57,1.57,0,0,0,.62-.68,2.16,2.16,0,0,0,.24-1,2,2,0,0,0-.5-1.4,1.76,1.76,0,0,0-2.54,0,2,2,0,0,0-.49,1.4,2.28,2.28,0,0,0,.22,1,1.66,1.66,0,0,0,.63.68A1.69,1.69,0,0,0,123,459.17Zm6.4-4.84a2.11,2.11,0,0,1,1.63.61,2.56,2.56,0,0,1,.57,1.82v3.61h-.88v-.79a1.59,1.59,0,0,1-.67.64,2.12,2.12,0,0,1-1,.22,1.94,1.94,0,0,1-1.39-.49,1.67,1.67,0,0,1-.51-1.27,1.72,1.72,0,0,1,.49-1.27,2.2,2.2,0,0,1,1.57-.48h1.47v-.22a1.51,1.51,0,0,0-.35-1.07,1.32,1.32,0,0,0-1-.37,2.28,2.28,0,0,0-.89.18,2.06,2.06,0,0,0-.74.46l-.38-.81a2.64,2.64,0,0,1,.94-.57A3.51,3.51,0,0,1,129.41,454.33Zm-.21,5.27a1.56,1.56,0,0,0,.92-.27,1.59,1.59,0,0,0,.56-.79v-.84h-1.43c-.79,0-1.18.31-1.18.93a.89.89,0,0,0,.3.71A1.2,1.2,0,0,0,129.2,459.6Zm5.69.84a4,4,0,0,1-1.2-.19,2.68,2.68,0,0,1-.91-.51l.38-.86a2.54,2.54,0,0,0,.83.45,3,3,0,0,0,1,.17c.81,0,1.22-.27,1.22-.81a.56.56,0,0,0-.16-.43,1,1,0,0,0-.42-.23,6.58,6.58,0,0,0-.7-.17,5.42,5.42,0,0,1-1-.26,1.52,1.52,0,0,1-.67-.49,1.79,1.79,0,0,1,.3-2.28,2.29,2.29,0,0,1,1.56-.5,3.6,3.6,0,0,1,1,.15,2.34,2.34,0,0,1,.84.39l-.39.86a2.37,2.37,0,0,0-1.48-.48,1.53,1.53,0,0,0-.9.23.7.7,0,0,0-.31.6.64.64,0,0,0,.17.46,1.09,1.09,0,0,0,.43.25l.72.18a5.56,5.56,0,0,1,1,.27,1.41,1.41,0,0,1,.66.48,1.46,1.46,0,0,1,.27.94,1.57,1.57,0,0,1-.6,1.3A2.48,2.48,0,0,1,134.89,460.44ZM74.43,474.55a3.78,3.78,0,0,1-1.21-.19,2.68,2.68,0,0,1-.91-.51l.39-.86a2.7,2.7,0,0,0,.82.46,3,3,0,0,0,1,.16c.82,0,1.22-.27,1.22-.81a.57.57,0,0,0-.16-.43.94.94,0,0,0-.42-.22,4.93,4.93,0,0,0-.69-.17,6.49,6.49,0,0,1-1-.26,1.53,1.53,0,0,1-.66-.5,1.51,1.51,0,0,1-.29-1,1.63,1.63,0,0,1,.58-1.3,2.34,2.34,0,0,1,1.56-.5,3.72,3.72,0,0,1,1,.15,2.73,2.73,0,0,1,.84.39l-.4.86a2.42,2.42,0,0,0-1.48-.47,1.54,1.54,0,0,0-.9.22.74.74,0,0,0-.31.6.63.63,0,0,0,.18.47,1,1,0,0,0,.42.24c.18.06.42.12.73.19a5.66,5.66,0,0,1,1,.27,1.39,1.39,0,0,1,.66.47,1.49,1.49,0,0,1,.27.95,1.6,1.6,0,0,1-.6,1.3A2.53,2.53,0,0,1,74.43,474.55Zm8.25-6.05v6H81.8v-.9a2,2,0,0,1-.75.72,2,2,0,0,1-1,.25,2.09,2.09,0,0,1-1.62-.65,2.9,2.9,0,0,1-.59-2V468.5h.93v3.32a2.08,2.08,0,0,0,.36,1.32,1.25,1.25,0,0,0,1,.44,1.4,1.4,0,0,0,1.16-.52,2.22,2.22,0,0,0,.43-1.47V468.5Zm4.58-.06a2.34,2.34,0,0,1,1.33.39,2.48,2.48,0,0,1,.92,1.07,3.51,3.51,0,0,1,.34,1.59,3.55,3.55,0,0,1-.34,1.6,2.56,2.56,0,0,1-.92,1.08,2.41,2.41,0,0,1-1.33.38,2.08,2.08,0,0,1-1-.25,2.11,2.11,0,0,1-.77-.72v3.09h-.93V468.5h.89v.95a2.1,2.1,0,0,1,.79-.75A2.14,2.14,0,0,1,87.26,468.44Zm-.08,5.16a1.49,1.49,0,0,0,.88-.26,1.8,1.8,0,0,0,.62-.74,2.62,2.62,0,0,0,.23-1.11,2.5,2.5,0,0,0-.23-1.09,1.66,1.66,0,0,0-.62-.75,1.57,1.57,0,0,0-.88-.26,1.55,1.55,0,0,0-.88.27,1.89,1.89,0,0,0-.62.74,2.65,2.65,0,0,0-.22,1.09,2.78,2.78,0,0,0,.22,1.11,1.88,1.88,0,0,0,.62.74A1.54,1.54,0,0,0,87.18,473.6ZM94,468.44a2.36,2.36,0,0,1,1.33.39,2.48,2.48,0,0,1,.92,1.07,3.51,3.51,0,0,1,.34,1.59,3.55,3.55,0,0,1-.34,1.6,2.56,2.56,0,0,1-.92,1.08,2.43,2.43,0,0,1-1.33.38,2.08,2.08,0,0,1-1-.25,2.11,2.11,0,0,1-.77-.72v3.09h-.93V468.5h.89v.95a2.15,2.15,0,0,1,.78-.75A2.21,2.21,0,0,1,94,468.44Zm-.08,5.16a1.49,1.49,0,0,0,.88-.26,1.88,1.88,0,0,0,.62-.74,2.62,2.62,0,0,0,.23-1.11,2.5,2.5,0,0,0-.23-1.09,1.72,1.72,0,0,0-.62-.75,1.57,1.57,0,0,0-.88-.26,1.55,1.55,0,0,0-.88.27,1.89,1.89,0,0,0-.62.74,2.5,2.5,0,0,0-.22,1.09,2.62,2.62,0,0,0,.22,1.11,1.88,1.88,0,0,0,.62.74A1.54,1.54,0,0,0,93.87,473.6Zm4-7.49h.93v8.37h-.93Zm7.33,2.39-2.48,6.58a3.07,3.07,0,0,1-.77,1.29,1.56,1.56,0,0,1-1.06.37,2.06,2.06,0,0,1-.73-.14,1.43,1.43,0,0,1-.58-.41l.4-.81a1.2,1.2,0,0,0,.91.44.77.77,0,0,0,.56-.22,1.6,1.6,0,0,0,.42-.71l.16-.42-2.26-6h1l1.79,4.79,1.77-4.79Zm5.53-.06a2.14,2.14,0,0,1,1.63.61,2.6,2.6,0,0,1,.57,1.82v3.61h-.88v-.79a1.61,1.61,0,0,1-.67.65,2.25,2.25,0,0,1-1,.21,2,2,0,0,1-1.39-.48,1.86,1.86,0,0,1,0-2.54,2.16,2.16,0,0,1,1.57-.49h1.47v-.21a1.54,1.54,0,0,0-.35-1.08,1.32,1.32,0,0,0-1-.37,2.28,2.28,0,0,0-.89.18,2.21,2.21,0,0,0-.74.46l-.38-.81a2.48,2.48,0,0,1,.94-.56A3.28,3.28,0,0,1,110.78,468.44Zm-.21,5.28a1.56,1.56,0,0,0,.92-.27,1.62,1.62,0,0,0,.56-.8v-.83h-1.43c-.79,0-1.18.31-1.18.92a.91.91,0,0,0,.3.72A1.25,1.25,0,0,0,110.57,473.72Zm5.69.83a3.72,3.72,0,0,1-1.2-.19,2.68,2.68,0,0,1-.91-.51l.38-.86a2.75,2.75,0,0,0,.83.46,3,3,0,0,0,1,.16c.81,0,1.22-.27,1.22-.81a.57.57,0,0,0-.16-.43.94.94,0,0,0-.42-.22,4.78,4.78,0,0,0-.7-.17,6.33,6.33,0,0,1-1-.26,1.62,1.62,0,0,1-.67-.5,1.57,1.57,0,0,1-.28-1,1.63,1.63,0,0,1,.58-1.3,2.34,2.34,0,0,1,1.56-.5,3.6,3.6,0,0,1,1,.15,2.73,2.73,0,0,1,.84.39l-.39.86a2.42,2.42,0,0,0-1.48-.47,1.54,1.54,0,0,0-.9.22.71.71,0,0,0-.31.6.66.66,0,0,0,.17.47,1.07,1.07,0,0,0,.43.24c.17.06.42.12.72.19a5.56,5.56,0,0,1,1,.27,1.39,1.39,0,0,1,.66.47,1.49,1.49,0,0,1,.27.95,1.6,1.6,0,0,1-.6,1.3A2.54,2.54,0,0,1,116.26,474.55Zm8.37,0a2.47,2.47,0,0,1-1.37-.39,2.75,2.75,0,0,1-1-1.09,3.5,3.5,0,0,1-.34-1.58,3.45,3.45,0,0,1,.34-1.57,2.59,2.59,0,0,1,1-1.08,2.4,2.4,0,0,1,1.37-.4,2.36,2.36,0,0,1,1.36.4,2.57,2.57,0,0,1,1,1.08,3.46,3.46,0,0,1,.35,1.57,3.5,3.5,0,0,1-.35,1.58,2.72,2.72,0,0,1-1,1.09A2.43,2.43,0,0,1,124.63,474.55Zm0-.95a1.49,1.49,0,0,0,.88-.26,1.88,1.88,0,0,0,.62-.74,2.62,2.62,0,0,0,.22-1.11,2.5,2.5,0,0,0-.22-1.09,1.72,1.72,0,0,0-.62-.75,1.57,1.57,0,0,0-.88-.26,1.6,1.6,0,0,0-.89.26,1.79,1.79,0,0,0-.62.75,2.5,2.5,0,0,0-.22,1.09,2.62,2.62,0,0,0,.22,1.11,2,2,0,0,0,.62.74A1.53,1.53,0,0,0,124.63,473.6Zm5.92-6.67q-.84,0-.84,1.05v.52h1.49v.89h-1.47v5.09h-.92v-5.09h-.87v-.89h.87V468a2.05,2.05,0,0,1,.44-1.41,1.55,1.55,0,0,1,1.25-.52,1.85,1.85,0,0,1,.58.09,1.23,1.23,0,0,1,.46.26l-.28.82A1,1,0,0,0,130.55,466.93Zm5.43.63v2.76h3.39v1H136v3.19h-1v-7.9h4.78v1Zm9.6,4c0,.08,0,.19,0,.32h-4.15a2,2,0,0,0,.59,1.28,1.76,1.76,0,0,0,1.26.47,1.78,1.78,0,0,0,1.48-.72l.51.7a2.17,2.17,0,0,1-.87.72,2.52,2.52,0,0,1-1.15.25,2.76,2.76,0,0,1-1.44-.38,2.66,2.66,0,0,1-1-1.1,3.5,3.5,0,0,1-.34-1.58,3.65,3.65,0,0,1,.33-1.57,2.63,2.63,0,0,1,.91-1.08,2.31,2.31,0,0,1,1.33-.4,2.18,2.18,0,0,1,1.3.4,2.47,2.47,0,0,1,.9,1.08A3.73,3.73,0,0,1,145.58,471.53Zm-2.53-2.17a1.49,1.49,0,0,0-1.12.47,2,2,0,0,0-.52,1.24h3.28a2,2,0,0,0-.53-1.23A1.46,1.46,0,0,0,143.05,469.36Zm6.64-.92a2.36,2.36,0,0,1,1.33.39,2.55,2.55,0,0,1,.92,1.07,3.65,3.65,0,0,1,.34,1.59,3.69,3.69,0,0,1-.34,1.6,2.64,2.64,0,0,1-.92,1.08,2.43,2.43,0,0,1-1.33.38,2.1,2.1,0,0,1-1.05-.26,2.15,2.15,0,0,1-.78-.75v.94H147v-8.37h.93v3.29a2,2,0,0,1,.77-.71A2.2,2.2,0,0,1,149.69,468.44Zm-.08,5.16a1.49,1.49,0,0,0,.88-.26,1.88,1.88,0,0,0,.62-.74,2.62,2.62,0,0,0,.23-1.11,2.5,2.5,0,0,0-.23-1.09,1.72,1.72,0,0,0-.62-.75,1.57,1.57,0,0,0-.88-.26,1.59,1.59,0,0,0-.88.26,1.72,1.72,0,0,0-.62.75,2.5,2.5,0,0,0-.22,1.09,2.62,2.62,0,0,0,.22,1.11,1.88,1.88,0,0,0,.62.74A1.52,1.52,0,0,0,149.61,473.6Zm8.43-7v7.9h-1v-6.92h-1.53v-1Zm3.51,3.15a3,3,0,0,1,2.13.64,2.25,2.25,0,0,1,.68,1.74,2.67,2.67,0,0,1-.29,1.27,2,2,0,0,1-.86.88,2.88,2.88,0,0,1-1.41.31,4.09,4.09,0,0,1-1.38-.24,3.05,3.05,0,0,1-1.1-.72l.44-.89a2.5,2.5,0,0,0,.89.62,2.94,2.94,0,0,0,1.14.23,1.69,1.69,0,0,0,1.18-.37,1.33,1.33,0,0,0,.43-1,1.26,1.26,0,0,0-.47-1.07,2.54,2.54,0,0,0-1.58-.38h-1.54l.36-4.13H164v1h-3l-.18,2.17Z" transform="translate(-72.07 -265.22)"/><path class="cls-11" d="M368.61,463.9a.51.51,0,0,0,0,.66l2.56,3a.37.37,0,0,0,.57,0,.53.53,0,0,0,0-.67l-2.27-2.66,2.27-2.66a.53.53,0,0,0,0-.67.37.37,0,0,0-.57,0Zm.29.8h56v-.94h-56Z" transform="translate(-72.07 -265.22)"/><path class="cls-12" d="M462.73,464.23h56" transform="translate(-72.07 -265.22)"/><path d="M189.94,266.26A2.87,2.87,0,0,1,192,267a3.09,3.09,0,0,1,0,4.05,2.85,2.85,0,0,1-2.07.72h-1.67v2.39h-1l0-7.9Zm0,4.53a2,2,0,0,0,1.4-.45,1.69,1.69,0,0,0,.49-1.32,1.73,1.73,0,0,0-.48-1.31,1.94,1.94,0,0,0-1.4-.46h-1.64v3.55Zm5-1.59a1.76,1.76,0,0,1,.71-.79,2.41,2.41,0,0,1,1.15-.26v1.05h-.21a1.43,1.43,0,0,0-1.19.52,2.26,2.26,0,0,0-.43,1.49v3h-.92v-6H195Zm5.24,5.07a2.58,2.58,0,0,1-1.37-.4,2.8,2.8,0,0,1-.95-1.09,3.52,3.52,0,0,1-.34-1.58,3.59,3.59,0,0,1,.34-1.57,2.67,2.67,0,0,1,1-1.08,2.51,2.51,0,0,1,1.37-.39,2.4,2.4,0,0,1,1.37.4,2.55,2.55,0,0,1,.94,1.08,3.72,3.72,0,0,1,0,3.15,2.7,2.7,0,0,1-.95,1.08A2.4,2.4,0,0,1,200.19,274.27Zm0-.95a1.55,1.55,0,0,0,.88-.26,1.73,1.73,0,0,0,.62-.74,2.65,2.65,0,0,0,.23-1.11,2.57,2.57,0,0,0-.22-1.1,1.68,1.68,0,0,0-.62-.74,1.49,1.49,0,0,0-.88-.26,1.54,1.54,0,0,0-.89.25,1.79,1.79,0,0,0-.62.75,2.5,2.5,0,0,0-.22,1.09,2.65,2.65,0,0,0,.22,1.11,1.88,1.88,0,0,0,.62.74A1.52,1.52,0,0,0,200.19,273.32Zm8.89-7.47v8.37h-.89v-1a2.26,2.26,0,0,1-.78.76,2.2,2.2,0,0,1-1.05.25,2.41,2.41,0,0,1-1.33-.38,2.74,2.74,0,0,1-.93-1.08,3.72,3.72,0,0,1-.32-1.6,3.66,3.66,0,0,1,.33-1.6,2.77,2.77,0,0,1,.93-1.07,2.43,2.43,0,0,1,1.33-.38,2.21,2.21,0,0,1,1,.26,1.93,1.93,0,0,1,.77.71v-3.3Zm-2.65,7.48a1.51,1.51,0,0,0,.88-.25,1.85,1.85,0,0,0,.62-.75,2.73,2.73,0,0,0,.23-1.1,2.7,2.7,0,0,0-.22-1.1,1.75,1.75,0,0,0-.62-.74,1.55,1.55,0,0,0-.88-.27,1.6,1.6,0,0,0-.89.26,1.75,1.75,0,0,0-.62.74,2.7,2.7,0,0,0-.23,1.1,2.82,2.82,0,0,0,.22,1.11,2,2,0,0,0,.62.74A1.55,1.55,0,0,0,206.43,273.33Zm9.28-5.07v6h-.88v-.9a2.21,2.21,0,0,1-.74.72,2.14,2.14,0,0,1-1,.24,2,2,0,0,1-1.61-.66,2.81,2.81,0,0,1-.59-1.95v-3.45h.93v3.32a2.14,2.14,0,0,0,.35,1.32,1.26,1.26,0,0,0,1,.44,1.44,1.44,0,0,0,1.16-.51,2.3,2.3,0,0,0,.43-1.47v-3.09Zm4.09,6.06a2.49,2.49,0,0,1-1.4-.4,2.65,2.65,0,0,1-1-1.08,3.57,3.57,0,0,1-.34-1.59,3.41,3.41,0,0,1,.35-1.56,2.62,2.62,0,0,1,1-1.09,2.57,2.57,0,0,1,1.4-.39,2.35,2.35,0,0,1,1.24.33,2.22,2.22,0,0,1,.85,1l-.71.52a1.69,1.69,0,0,0-.6-.64,1.45,1.45,0,0,0-.79-.22,1.67,1.67,0,0,0-.91.26,1.85,1.85,0,0,0-.63.74,2.91,2.91,0,0,0,0,2.22,1.78,1.78,0,0,0,.62.73,1.69,1.69,0,0,0,.91.26,1.53,1.53,0,0,0,.79-.21,1.69,1.69,0,0,0,.6-.64l.71.52a2.34,2.34,0,0,1-.85,1A2.36,2.36,0,0,1,219.8,274.32Zm6.34-.4a1.48,1.48,0,0,1-.51.32,2.12,2.12,0,0,1-.62.1,1.51,1.51,0,0,1-1.19-.49,2,2,0,0,1-.43-1.39v-3.29h-.87v-.89h.87V267h.93v1.31h1.47v.89h-1.47v3.25a1.21,1.21,0,0,0,.2.74.74.74,0,0,0,.6.26,1,1,0,0,0,.73-.28Zm1.23-5.63h.93l0,6h-.92Zm.47-1.15a.61.61,0,0,1-.46-.2.8.8,0,0,1-.17-.5.78.78,0,0,1,.17-.5.6.6,0,0,1,.46-.21.56.56,0,0,1,.44.2.66.66,0,0,1,.19.49.79.79,0,0,1-.19.52A.57.57,0,0,1,227.84,267.14Zm4.51,7.22A2.5,2.5,0,0,1,231,274a2.72,2.72,0,0,1-.95-1.09,3.52,3.52,0,0,1-.34-1.58,3.59,3.59,0,0,1,.34-1.57,2.65,2.65,0,0,1,1-1.08,2.51,2.51,0,0,1,1.37-.39,2.4,2.4,0,0,1,1.37.4,2.61,2.61,0,0,1,.94,1.08,3.5,3.5,0,0,1,.35,1.58,3.56,3.56,0,0,1-.36,1.58,2.69,2.69,0,0,1-.95,1.08A2.41,2.41,0,0,1,232.35,274.36Zm0-.95a1.55,1.55,0,0,0,.88-.26,1.8,1.8,0,0,0,.62-.74,2.59,2.59,0,0,0,.23-1.11,2.5,2.5,0,0,0-.22-1.09,1.66,1.66,0,0,0-.62-.75,1.57,1.57,0,0,0-.88-.26,1.62,1.62,0,0,0-.89.25,1.86,1.86,0,0,0-.62.75,2.5,2.5,0,0,0-.22,1.09,2.59,2.59,0,0,0,.22,1.11,1.91,1.91,0,0,0,.61.75A1.63,1.63,0,0,0,232.35,273.41Zm6.79-5.14a1.92,1.92,0,0,1,1.55.67,2.87,2.87,0,0,1,.57,1.93v3.45h-.93V271a2,2,0,0,0-.35-1.31,1.25,1.25,0,0,0-1-.44,1.45,1.45,0,0,0-1.19.52,2.16,2.16,0,0,0-.44,1.46v3.08h-.93l0-6h.89v.9a1.92,1.92,0,0,1,.76-.71A2.42,2.42,0,0,1,239.14,268.27Z" transform="translate(-72.07 -265.22)"/><path d="M332.53,274.25a4.17,4.17,0,0,1-1.48-.27,2.94,2.94,0,0,1-1.11-.73l.35-.88a3,3,0,0,0,1,.67,3.21,3.21,0,0,0,1.25.25,2,2,0,0,0,1.25-.33,1.08,1.08,0,0,0,.42-.89,1,1,0,0,0-.23-.66,1.49,1.49,0,0,0-.56-.39c-.22-.09-.53-.19-.94-.31a7.94,7.94,0,0,1-1.24-.43,2.15,2.15,0,0,1-.8-.65,2,2,0,0,1-.33-1.21,2.4,2.4,0,0,1,.28-1.14,2.13,2.13,0,0,1,.87-.81,3.13,3.13,0,0,1,1.44-.31,4,4,0,0,1,1.18.18,3.06,3.06,0,0,1,1,.52l-.32.91a3.46,3.46,0,0,0-.91-.48,2.93,2.93,0,0,0-.95-.17,1.91,1.91,0,0,0-1.24.35,1.16,1.16,0,0,0-.4.91,1,1,0,0,0,.23.66,1.78,1.78,0,0,0,.57.4,8.46,8.46,0,0,0,.94.29,8.49,8.49,0,0,1,1.23.43,2,2,0,0,1,.79.66,1.9,1.9,0,0,1,.34,1.18,2.3,2.3,0,0,1-.29,1.14,2.1,2.1,0,0,1-.88.81A3.2,3.2,0,0,1,332.53,274.25Zm6.87-.44a1.33,1.33,0,0,1-.5.31,1.84,1.84,0,0,1-.62.11,1.51,1.51,0,0,1-1.19-.49,2,2,0,0,1-.43-1.39v-3.28h-.87v-.9h.87v-1.31h.93v1.31h1.47v.9h-1.47v3.24a1.21,1.21,0,0,0,.2.74.74.74,0,0,0,.6.26,1,1,0,0,0,.72-.28Zm3.25.42a2.5,2.5,0,0,1-1.37-.4,2.65,2.65,0,0,1-1-1.08,3.7,3.7,0,0,1-.34-1.58,3.59,3.59,0,0,1,.34-1.57,2.62,2.62,0,0,1,1-1.09,2.49,2.49,0,0,1,1.37-.39,2.41,2.41,0,0,1,1.36.39,2.53,2.53,0,0,1,.95,1.09,3.46,3.46,0,0,1,.35,1.57,3.56,3.56,0,0,1-.35,1.58,2.56,2.56,0,0,1-.95,1.08A2.42,2.42,0,0,1,342.65,274.23Zm0-1a1.57,1.57,0,0,0,.88-.26,1.77,1.77,0,0,0,.62-.75,2.57,2.57,0,0,0,.22-1.1,2.54,2.54,0,0,0-.22-1.1,1.68,1.68,0,0,0-.62-.74,1.49,1.49,0,0,0-.88-.26,1.55,1.55,0,0,0-.89.26,1.83,1.83,0,0,0-.62.74,2.7,2.7,0,0,0-.22,1.1,2.73,2.73,0,0,0,.22,1.1,1.93,1.93,0,0,0,.62.75A1.63,1.63,0,0,0,342.65,273.28Zm4.93-4.1a1.68,1.68,0,0,1,.72-.79,2.28,2.28,0,0,1,1.15-.27v1.05h-.21a1.43,1.43,0,0,0-1.19.53,2.24,2.24,0,0,0-.43,1.49v3h-.93v-6h.89Zm5-1.06a2.07,2.07,0,0,1,1.62.61,2.55,2.55,0,0,1,.57,1.81v3.62h-.88v-.79a1.51,1.51,0,0,1-.66.64,2.32,2.32,0,0,1-1,.22,2,2,0,0,1-1.38-.49,1.86,1.86,0,0,1,0-2.54,2.19,2.19,0,0,1,1.57-.49h1.46v-.21a1.51,1.51,0,0,0-.34-1.07,1.36,1.36,0,0,0-1-.38,2.32,2.32,0,0,0-.89.18,2.19,2.19,0,0,0-.73.47l-.39-.82a2.81,2.81,0,0,1,.95-.56A3.27,3.27,0,0,1,352.55,268.12Zm-.21,5.27a1.47,1.47,0,0,0,1.47-1.06v-.84h-1.43c-.78,0-1.18.31-1.18.93a.89.89,0,0,0,.3.71A1.26,1.26,0,0,0,352.34,273.39Zm9.15-5.22v5.17a3.38,3.38,0,0,1-.67,2.32,2.53,2.53,0,0,1-2,.76,4,4,0,0,1-1.38-.24,2.53,2.53,0,0,1-1.06-.66l.44-.83a2.42,2.42,0,0,0,.88.56,2.76,2.76,0,0,0,1.09.22,1.68,1.68,0,0,0,1.33-.5,2.23,2.23,0,0,0,.43-1.51V273a2.08,2.08,0,0,1-.81.7,2.39,2.39,0,0,1-1,.23,2.56,2.56,0,0,1-1.34-.36,2.65,2.65,0,0,1-.93-1,3.35,3.35,0,0,1-.33-1.51,3.25,3.25,0,0,1,.33-1.5,2.52,2.52,0,0,1,.93-1,2.56,2.56,0,0,1,1.34-.36,2.31,2.31,0,0,1,1.07.25,2.05,2.05,0,0,1,.82.73v-.93ZM358.82,273a1.6,1.6,0,0,0,.9-.25,1.62,1.62,0,0,0,.63-.69,2.24,2.24,0,0,0,.23-1,2,2,0,0,0-.49-1.4,1.76,1.76,0,0,0-2.54,0,2,2,0,0,0-.5,1.4,2.24,2.24,0,0,0,.23,1,1.67,1.67,0,0,0,.62.69A1.69,1.69,0,0,0,358.82,273ZM368,271.2a2.19,2.19,0,0,1,0,.33h-4.15a2,2,0,0,0,.59,1.27,1.88,1.88,0,0,0,2.74-.25l.51.7a2.27,2.27,0,0,1-.87.73,2.82,2.82,0,0,1-2.59-.14,2.7,2.7,0,0,1-1-1.09,3.55,3.55,0,0,1-.34-1.58,3.62,3.62,0,0,1,.33-1.57,2.6,2.6,0,0,1,.92-1.09,2.33,2.33,0,0,1,1.32-.39,2.27,2.27,0,0,1,1.31.39,2.54,2.54,0,0,1,.89,1.09A3.69,3.69,0,0,1,368,271.2ZM365.46,269a1.48,1.48,0,0,0-1.12.48,2,2,0,0,0-.52,1.24h3.28a1.94,1.94,0,0,0-.53-1.23A1.41,1.41,0,0,0,365.46,269Zm16.31-2.78-2.26,7.91h-1l-1.85-6.31-1.85,6.31h-1l-2.26-7.91h1l1.83,6.43,1.9-6.43h.89l1.87,6.46,1.86-6.46Zm1.16,1.92h.93v6h-.93Zm.46-1.15a.59.59,0,0,1-.45-.2.72.72,0,0,1-.17-.5.74.74,0,0,1,.17-.5.57.57,0,0,1,.45-.21.59.59,0,0,1,.45.2.69.69,0,0,1,.18.49.78.78,0,0,1-.18.52A.59.59,0,0,1,383.39,267Zm5.22,6.79a1.33,1.33,0,0,1-.5.31,1.88,1.88,0,0,1-.62.11,1.52,1.52,0,0,1-1.2-.49,2.06,2.06,0,0,1-.42-1.39v-3.28H385v-.9h.87v-1.31h.92v1.31h1.47v.9h-1.47v3.24a1.14,1.14,0,0,0,.21.74.74.74,0,0,0,.6.26,1,1,0,0,0,.72-.28Zm4-5.69a2,2,0,0,1,1.55.66,2.87,2.87,0,0,1,.58,1.93v3.45h-.93v-3.32a2,2,0,0,0-.36-1.31,1.22,1.22,0,0,0-1-.44,1.45,1.45,0,0,0-1.19.52,2.21,2.21,0,0,0-.44,1.47v3.08h-.93v-8.38h.93V269a2,2,0,0,1,.76-.67A2.38,2.38,0,0,1,392.57,268.12Zm8.8-2.34v8.38h-.88v-1a2.21,2.21,0,0,1-.79.76,2.14,2.14,0,0,1-1,.26,2.39,2.39,0,0,1-1.34-.39,2.55,2.55,0,0,1-.92-1.07,3.72,3.72,0,0,1-.33-1.6,3.66,3.66,0,0,1,.33-1.6,2.61,2.61,0,0,1,.92-1.07,2.38,2.38,0,0,1,1.34-.38,2,2,0,0,1,1,.25,2,2,0,0,1,.78.71v-3.3Zm-2.63,7.5a1.62,1.62,0,0,0,.88-.26,1.75,1.75,0,0,0,.61-.75,2.57,2.57,0,0,0,.23-1.1,2.54,2.54,0,0,0-.23-1.1,1.66,1.66,0,0,0-.61-.74,1.64,1.64,0,0,0-1.77,0,1.75,1.75,0,0,0-.62.74,2.54,2.54,0,0,0-.22,1.1,2.57,2.57,0,0,0,.22,1.1,1.85,1.85,0,0,0,.62.75A1.6,1.6,0,0,0,398.74,273.28Zm5.38-4.1a1.68,1.68,0,0,1,.72-.79,2.25,2.25,0,0,1,1.15-.27v1.05h-.22a1.44,1.44,0,0,0-1.19.53,2.3,2.3,0,0,0-.42,1.49v3h-.93v-6h.89Zm5-1.06a2.08,2.08,0,0,1,1.62.61,2.55,2.55,0,0,1,.57,1.81v3.62h-.88v-.79a1.54,1.54,0,0,1-.67.64,2.25,2.25,0,0,1-1,.22,2,2,0,0,1-1.38-.49,1.65,1.65,0,0,1-.52-1.28,1.68,1.68,0,0,1,.5-1.26,2.18,2.18,0,0,1,1.56-.49h1.47v-.21a1.47,1.47,0,0,0-.35-1.07,1.32,1.32,0,0,0-1-.38,2.32,2.32,0,0,0-.89.18,2.19,2.19,0,0,0-.73.47l-.39-.82a2.72,2.72,0,0,1,.95-.56A3.2,3.2,0,0,1,409.09,268.12Zm-.22,5.27a1.56,1.56,0,0,0,.92-.27,1.53,1.53,0,0,0,.56-.79v-.84h-1.43c-.78,0-1.18.31-1.18.93a.89.89,0,0,0,.3.71A1.25,1.25,0,0,0,408.87,273.39Zm11.89-5.22-1.92,6H418l-1.48-4.54L415,274.16h-.89l-1.91-6h.88l1.49,4.77,1.55-4.77h.78L418.4,273l1.52-4.79Zm2.74-.05a2.11,2.11,0,0,1,1.63.61,2.55,2.55,0,0,1,.57,1.81v3.62h-.88v-.79a1.59,1.59,0,0,1-.67.64,2.25,2.25,0,0,1-1,.22,2,2,0,0,1-1.39-.49,1.68,1.68,0,0,1-.51-1.28,1.71,1.71,0,0,1,.49-1.26,2.19,2.19,0,0,1,1.57-.49h1.47v-.21a1.51,1.51,0,0,0-.35-1.07,1.32,1.32,0,0,0-1-.38,2.28,2.28,0,0,0-.89.18,2.23,2.23,0,0,0-.74.47l-.38-.82a2.77,2.77,0,0,1,.94-.56A3.27,3.27,0,0,1,423.5,268.12Zm-.21,5.27a1.47,1.47,0,0,0,1.48-1.06v-.84h-1.43c-.79,0-1.18.31-1.18.93a.89.89,0,0,0,.3.71A1.25,1.25,0,0,0,423.29,273.39Zm4.22-7.61h.93v8.38h-.93Zm4.27,8.45a3.73,3.73,0,0,1-1.2-.2,2.52,2.52,0,0,1-.91-.5l.38-.86a2.54,2.54,0,0,0,.83.45,3,3,0,0,0,1,.17c.81,0,1.22-.27,1.22-.81a.58.58,0,0,0-.16-.43,1,1,0,0,0-.42-.23,6.58,6.58,0,0,0-.7-.17,5.42,5.42,0,0,1-1-.26,1.54,1.54,0,0,1-.67-.5,1.57,1.57,0,0,1-.28-1,1.64,1.64,0,0,1,.58-1.3,2.33,2.33,0,0,1,1.56-.49,4,4,0,0,1,1,.14,2.53,2.53,0,0,1,.84.4l-.39.86A2.37,2.37,0,0,0,432,269a1.53,1.53,0,0,0-.9.23.7.7,0,0,0-.31.6.64.64,0,0,0,.17.46,1.09,1.09,0,0,0,.43.25l.72.18a5.56,5.56,0,0,1,1,.27,1.47,1.47,0,0,1,.66.47,1.51,1.51,0,0,1,.27.95,1.59,1.59,0,0,1-.6,1.3A2.48,2.48,0,0,1,431.78,274.23Z" transform="translate(-72.07 -265.22)"/><path d="M265.85,266.25h1v7.91h-1Zm9.36,1.87a1.92,1.92,0,0,1,1.53.65,2.9,2.9,0,0,1,.57,1.94v3.45h-.93v-3.32a2.09,2.09,0,0,0-.34-1.31,1.15,1.15,0,0,0-1-.44,1.35,1.35,0,0,0-1.12.52,2.26,2.26,0,0,0-.42,1.47v3.08h-.92v-3.32a2.09,2.09,0,0,0-.35-1.31,1.15,1.15,0,0,0-1-.44,1.35,1.35,0,0,0-1.12.52,2.26,2.26,0,0,0-.42,1.47v3.08h-.92v-6h.89v.9a1.75,1.75,0,0,1,.73-.7,2.07,2.07,0,0,1,1-.25,2,2,0,0,1,1.07.28,1.79,1.79,0,0,1,.71.82,2.17,2.17,0,0,1,.81-.81A2.25,2.25,0,0,1,275.21,268.12Zm6.63,0a2.35,2.35,0,0,1,1.33.38,2.61,2.61,0,0,1,.92,1.07,3.66,3.66,0,0,1,.34,1.6,3.72,3.72,0,0,1-.34,1.6,2.55,2.55,0,0,1-.92,1.07,2.36,2.36,0,0,1-1.33.39,2.2,2.2,0,0,1-1-.25,2.23,2.23,0,0,1-.77-.73v3.1h-.93v-8.18H280v.95a2,2,0,0,1,.78-.74A2.1,2.1,0,0,1,281.84,268.12Zm-.08,5.16a1.57,1.57,0,0,0,.88-.26,1.85,1.85,0,0,0,.62-.75,2.57,2.57,0,0,0,.23-1.1,2.54,2.54,0,0,0-.23-1.1,1.75,1.75,0,0,0-.62-.74,1.49,1.49,0,0,0-.88-.26,1.52,1.52,0,0,0-.88.27,1.79,1.79,0,0,0-.62.73,2.54,2.54,0,0,0-.22,1.1,2.57,2.57,0,0,0,.22,1.1,1.77,1.77,0,0,0,.62.75A1.59,1.59,0,0,0,281.76,273.28Zm6.24,1a2.5,2.5,0,0,1-1.37-.4,2.73,2.73,0,0,1-1-1.08,3.69,3.69,0,0,1-.33-1.58,3.58,3.58,0,0,1,.33-1.57,2.69,2.69,0,0,1,1-1.09,2.6,2.6,0,0,1,2.74,0,2.58,2.58,0,0,1,.94,1.09,3.33,3.33,0,0,1,.35,1.57,3.43,3.43,0,0,1-.35,1.58,2.61,2.61,0,0,1-.94,1.08A2.47,2.47,0,0,1,288,274.23Zm0-1a1.55,1.55,0,0,0,.88-.26,1.77,1.77,0,0,0,.62-.75,2.57,2.57,0,0,0,.22-1.1,2.54,2.54,0,0,0-.22-1.1,1.68,1.68,0,0,0-.62-.74,1.47,1.47,0,0,0-.88-.26,1.55,1.55,0,0,0-.89.26,1.81,1.81,0,0,0-.61.74,2.54,2.54,0,0,0-.23,1.1,2.57,2.57,0,0,0,.23,1.1,1.91,1.91,0,0,0,.61.75A1.63,1.63,0,0,0,288,273.28Zm4.93-4.1a1.73,1.73,0,0,1,.72-.79,2.3,2.3,0,0,1,1.15-.27v1.05h-.21a1.43,1.43,0,0,0-1.19.53,2.3,2.3,0,0,0-.43,1.49v3h-.92v-6h.88Zm6.2,4.63a1.33,1.33,0,0,1-.5.31,1.88,1.88,0,0,1-.62.11,1.54,1.54,0,0,1-1.2-.49,2.06,2.06,0,0,1-.42-1.39v-3.28h-.87v-.9h.87v-1.31h.93v1.31h1.46v.9h-1.46v3.24a1.14,1.14,0,0,0,.2.74.74.74,0,0,0,.6.26,1,1,0,0,0,.72-.28Zm2.69.42a3.73,3.73,0,0,1-1.2-.2,2.52,2.52,0,0,1-.91-.5l.38-.86a2.54,2.54,0,0,0,.83.45,3,3,0,0,0,1,.17c.81,0,1.22-.27,1.22-.81a.58.58,0,0,0-.16-.43,1,1,0,0,0-.42-.23,6.58,6.58,0,0,0-.7-.17,5.42,5.42,0,0,1-1-.26,1.54,1.54,0,0,1-.67-.5,1.57,1.57,0,0,1-.28-1,1.64,1.64,0,0,1,.58-1.3,2.33,2.33,0,0,1,1.56-.49,4,4,0,0,1,1,.14,2.53,2.53,0,0,1,.84.4l-.39.86A2.37,2.37,0,0,0,302,269a1.53,1.53,0,0,0-.9.23.7.7,0,0,0-.31.6.64.64,0,0,0,.17.46,1.09,1.09,0,0,0,.43.25l.72.18a5.56,5.56,0,0,1,1,.27,1.47,1.47,0,0,1,.66.47,1.51,1.51,0,0,1,.27.95,1.59,1.59,0,0,1-.6,1.3A2.48,2.48,0,0,1,301.82,274.23Z" transform="translate(-72.07 -265.22)"/><rect class="cls-2" x="100.07" y="0.11" width="8.7" height="10.16"/><rect class="cls-7" x="178.82" width="8.7" height="10.16"/><rect class="cls-5" x="243.26" width="8.7" height="10.16"/><path class="cls-11" d="M431.72,464.52h4.84v.75h-4.84Zm7.33-1.28a3,3,0,0,1,2.13.64,2.27,2.27,0,0,1,.69,1.74,2.79,2.79,0,0,1-.29,1.27,2.14,2.14,0,0,1-.86.88,2.9,2.9,0,0,1-1.42.32,4.1,4.1,0,0,1-1.38-.25,3.17,3.17,0,0,1-1.1-.71l.45-.9a2.37,2.37,0,0,0,.88.62,2.83,2.83,0,0,0,1.14.23,1.69,1.69,0,0,0,1.18-.37,1.32,1.32,0,0,0,.43-1,1.29,1.29,0,0,0-.46-1.07,2.57,2.57,0,0,0-1.59-.38h-1.54l.36-4.13h3.82v1h-3l-.18,2.17Zm6.64,0a2.36,2.36,0,0,1,1.19.29,2.12,2.12,0,0,1,.83.85,2.54,2.54,0,0,1,.3,1.25,2.65,2.65,0,0,1-.32,1.31,2.21,2.21,0,0,1-.86.88,2.48,2.48,0,0,1-1.22.31,2.44,2.44,0,0,1-2.1-1,5,5,0,0,1-.74-2.92,5.54,5.54,0,0,1,.4-2.24,3,3,0,0,1,1.12-1.41A2.89,2.89,0,0,1,446,460a3.48,3.48,0,0,1,.93.12,2.35,2.35,0,0,1,.75.34l-.37.88A2.1,2.1,0,0,0,446,461a2,2,0,0,0-1.65.77,3.49,3.49,0,0,0-.6,2.21,2.1,2.1,0,0,0,0,.28,1.87,1.87,0,0,1,.79-.76A2.41,2.41,0,0,1,445.69,463.2Zm-.12,4a1.47,1.47,0,0,0,1.09-.42,1.53,1.53,0,0,0,.41-1.11,1.47,1.47,0,0,0-.42-1.11,1.51,1.51,0,0,0-1.12-.42,1.69,1.69,0,0,0-.82.2,1.5,1.5,0,0,0-.74,1.34,1.46,1.46,0,0,0,.73,1.32A1.86,1.86,0,0,0,445.57,467.17Zm4.55-2.83a1.35,1.35,0,0,1-1.14-.6,3,3,0,0,1,0-3.12,1.35,1.35,0,0,1,1.14-.6,1.33,1.33,0,0,1,1.13.6,2.55,2.55,0,0,1,.43,1.56,2.61,2.61,0,0,1-.43,1.57A1.34,1.34,0,0,1,450.12,464.34Zm4.08-4.25h.74l-4.62,7.9h-.74Zm-4.08,3.6a.78.78,0,0,0,.69-.39,2.11,2.11,0,0,0,.25-1.12,2.07,2.07,0,0,0-.25-1.11.77.77,0,0,0-.69-.4.8.8,0,0,0-.7.4,2.59,2.59,0,0,0,0,2.22A.8.8,0,0,0,450.12,463.69Zm4.28,4.37a1.35,1.35,0,0,1-1.14-.58,2.7,2.7,0,0,1-.43-1.57,2.62,2.62,0,0,1,.43-1.56,1.38,1.38,0,0,1,2.28,0,2.59,2.59,0,0,1,.43,1.56,2.54,2.54,0,0,1-.43,1.55A1.35,1.35,0,0,1,454.4,468.06Zm0-.64a.79.79,0,0,0,.69-.41,2.48,2.48,0,0,0,0-2.21.79.79,0,0,0-1.39,0,2.12,2.12,0,0,0-.25,1.11,2.17,2.17,0,0,0,.25,1.11A.78.78,0,0,0,454.4,467.42Z" transform="translate(-72.07 -265.22)"/></svg>