<svg id="Layer_1" data-name="Layer 1" xmlns="http://www.w3.org/2000/svg" viewBox="0 0 451.75 216.71"><defs><style>.cls-1,.cls-4,.cls-6{fill:#ec694b;}.cls-1,.cls-2{fill-opacity:0.2;}.cls-2,.cls-3,.cls-5,.cls-7{fill:#919396;}.cls-4{fill-opacity:0.8;}.cls-5{fill-opacity:0.6;}.cls-6,.cls-7{fill-opacity:0.4;}.cls-8,.cls-9{fill:none;stroke:#000;stroke-width:2px;}.cls-9{stroke-opacity:0.5;stroke-dasharray:5 5;}.cls-10{fill-opacity:0.3;}.cls-11{fill:#fbe1db;}.cls-12{fill:#f7c3b7;}.cls-13{fill:#ef866e;}</style></defs><rect class="cls-1" x="97.06" y="30.41" width="127.53" height="27.6"/><rect class="cls-2" x="254.01" y="123.01" width="81.28" height="27.6"/><rect class="cls-3" x="97.06" y="150.61" width="156.96" height="27.6"/><rect class="cls-4" x="270.13" y="30.41" width="161.51" height="27.6"/><rect class="cls-5" x="367.52" y="67.82" width="64.11" height="27.6"/><rect class="cls-6" x="224.58" y="30.41" width="45.55" height="27.6"/><path class="cls-7" d="M415.75,383.18H448v27.59H415.75Z" transform="translate(-80.46 -287.76)"/><path class="cls-8" d="M177.16,314.19V473" transform="translate(-80.46 -287.76)"/><path class="cls-9" d="M512.1,314.19V466" transform="translate(-80.46 -287.76)"/><path class="cls-9" d="M448,355.58v55.19" transform="translate(-80.46 -287.76)"/><path class="cls-9" d="M334.47,410.77V466" transform="translate(-80.46 -287.76)"/><path class="cls-9" d="M415.75,383.18v55.19" transform="translate(-80.46 -287.76)"/><path d="M87.07,322.86v6.54H86.3l-3.92-4.87v4.87h-.93v-6.54h.76l3.93,4.88v-4.88Zm4,6.6a2.64,2.64,0,0,1-1.32-.33,2.51,2.51,0,0,1-.93-.9,2.8,2.8,0,0,1,0-2.6,2.37,2.37,0,0,1,.93-.9,2.64,2.64,0,0,1,1.32-.33,2.61,2.61,0,0,1,1.32.33,2.28,2.28,0,0,1,.92.9,2.54,2.54,0,0,1,.33,1.3,2.56,2.56,0,0,1-.33,1.3,2.41,2.41,0,0,1-.92.9A2.61,2.61,0,0,1,91.11,329.46Zm0-.79a1.7,1.7,0,0,0,.85-.21,1.56,1.56,0,0,0,.6-.62,1.94,1.94,0,0,0,.22-.91,1.88,1.88,0,0,0-.22-.91,1.49,1.49,0,0,0-.6-.62,1.7,1.7,0,0,0-.85-.21,1.79,1.79,0,0,0-.86.21,1.68,1.68,0,0,0-.59.62,1.78,1.78,0,0,0-.22.91,1.83,1.83,0,0,0,.22.91,1.76,1.76,0,0,0,.59.62A1.79,1.79,0,0,0,91.11,328.67Zm4.77-3.39a1.55,1.55,0,0,1,.69-.65,2.53,2.53,0,0,1,1.11-.23v.87h-.2a1.52,1.52,0,0,0-1.15.44,1.7,1.7,0,0,0-.41,1.24v2.46H95v-4.95h.86Zm9.2-.88a2,2,0,0,1,1.47.55,2.13,2.13,0,0,1,.55,1.6v2.85h-.89v-2.74a1.53,1.53,0,0,0-.34-1.09,1.21,1.21,0,0,0-.94-.36,1.41,1.41,0,0,0-1.09.43,1.71,1.71,0,0,0-.4,1.21v2.55h-.89v-2.74a1.58,1.58,0,0,0-.34-1.09,1.21,1.21,0,0,0-.94-.36,1.41,1.41,0,0,0-1.09.43,1.71,1.71,0,0,0-.4,1.21v2.55h-.9v-4.95h.86v.74a1.68,1.68,0,0,1,.71-.58,2.33,2.33,0,0,1,1-.21,2.15,2.15,0,0,1,1,.24,1.56,1.56,0,0,1,.69.68,1.89,1.89,0,0,1,.78-.67A2.57,2.57,0,0,1,105.08,324.4Zm5.57,0a2.2,2.2,0,0,1,1.57.51,1.92,1.92,0,0,1,.55,1.5v3h-.85v-.65a1.35,1.35,0,0,1-.64.53,2.42,2.42,0,0,1-1,.18,2.16,2.16,0,0,1-1.34-.4,1.39,1.39,0,0,1,0-2.11,2.35,2.35,0,0,1,1.51-.4h1.42v-.17a1.12,1.12,0,0,0-.34-.89,1.38,1.38,0,0,0-1-.31,2.55,2.55,0,0,0-.86.15,2.19,2.19,0,0,0-.71.38l-.37-.67a2.62,2.62,0,0,1,.91-.47A3.86,3.86,0,0,1,110.65,324.4Zm-.2,4.37a1.71,1.71,0,0,0,.89-.23,1.28,1.28,0,0,0,.54-.65v-.69H110.5c-.76,0-1.14.25-1.14.76a.67.67,0,0,0,.29.59A1.33,1.33,0,0,0,110.45,328.77Zm4.08-6.3h.9v6.93h-.9Zm10,2v4.28a2.54,2.54,0,0,1-.65,1.91,2.64,2.64,0,0,1-1.92.63,4.57,4.57,0,0,1-1.34-.2,2.48,2.48,0,0,1-1-.54l.43-.69a2.4,2.4,0,0,0,.85.47,3.13,3.13,0,0,0,1,.18,1.72,1.72,0,0,0,1.28-.42,1.67,1.67,0,0,0,.42-1.25v-.39a2,2,0,0,1-.78.58,2.74,2.74,0,0,1-1,.19,2.79,2.79,0,0,1-1.29-.3,2.37,2.37,0,0,1-.9-.85,2.4,2.4,0,0,1-.32-1.25,2.35,2.35,0,0,1,.32-1.25,2.3,2.3,0,0,1,.9-.85,2.79,2.79,0,0,1,1.29-.3,2.58,2.58,0,0,1,1,.21,2,2,0,0,1,.79.61v-.77Zm-2.58,4a1.92,1.92,0,0,0,.87-.2,1.53,1.53,0,0,0,.83-1.41,1.49,1.49,0,0,0-.48-1.16,1.69,1.69,0,0,0-1.22-.45,1.73,1.73,0,0,0-1.23.45,1.49,1.49,0,0,0-.48,1.16,1.6,1.6,0,0,0,.22.84,1.64,1.64,0,0,0,.6.57A2,2,0,0,0,122,328.41Zm6.19-4a2.2,2.2,0,0,1,1.57.51,1.92,1.92,0,0,1,.55,1.5v3h-.85v-.65a1.4,1.4,0,0,1-.64.53,2.45,2.45,0,0,1-1,.18,2.14,2.14,0,0,1-1.34-.4A1.3,1.3,0,0,1,126,328a1.32,1.32,0,0,1,.47-1.05,2.4,2.4,0,0,1,1.52-.4h1.42v-.17a1.15,1.15,0,0,0-.34-.89,1.38,1.38,0,0,0-1-.31,2.55,2.55,0,0,0-.86.15,2.09,2.09,0,0,0-.71.38l-.37-.67a2.62,2.62,0,0,1,.91-.47A3.81,3.81,0,0,1,128.19,324.4Zm-.2,4.37a1.65,1.65,0,0,0,.88-.23,1.35,1.35,0,0,0,.55-.65v-.69H128c-.76,0-1.14.25-1.14.76a.7.7,0,0,0,.29.59A1.37,1.37,0,0,0,128,328.77Zm5.5.69a4.53,4.53,0,0,1-1.17-.16,2.67,2.67,0,0,1-.88-.42l.38-.71a2.75,2.75,0,0,0,.79.37,3.06,3.06,0,0,0,.94.14c.79,0,1.18-.22,1.18-.67a.44.44,0,0,0-.16-.36,1.06,1.06,0,0,0-.4-.18,5.34,5.34,0,0,0-.67-.14,6.36,6.36,0,0,1-1-.22,1.44,1.44,0,0,1-.65-.41,1.13,1.13,0,0,1-.27-.81,1.25,1.25,0,0,1,.56-1.07,2.48,2.48,0,0,1,1.51-.42,3.74,3.74,0,0,1,1,.13,2.79,2.79,0,0,1,.81.32l-.38.71a2.6,2.6,0,0,0-1.43-.39,1.61,1.61,0,0,0-.87.19.56.56,0,0,0-.3.49.51.51,0,0,0,.17.39,1,1,0,0,0,.41.2l.7.15a7,7,0,0,1,1,.22,1.48,1.48,0,0,1,.64.4,1.1,1.1,0,0,1,.26.78,1.25,1.25,0,0,1-.58,1.08A2.73,2.73,0,0,1,133.49,329.46ZM82.74,341.13a4.08,4.08,0,0,1-1.17-.16,2.49,2.49,0,0,1-.88-.42l.37-.71a2.83,2.83,0,0,0,.8.38,3.34,3.34,0,0,0,.94.14c.79,0,1.18-.23,1.18-.67a.44.44,0,0,0-.16-.36,1,1,0,0,0-.4-.19c-.16,0-.38-.09-.68-.14a7.1,7.1,0,0,1-1-.21,1.56,1.56,0,0,1-.64-.41,1.17,1.17,0,0,1-.27-.81,1.28,1.28,0,0,1,.56-1.08,2.49,2.49,0,0,1,1.5-.41,4.19,4.19,0,0,1,1,.12,2.7,2.7,0,0,1,.82.33l-.39.71a2.57,2.57,0,0,0-1.43-.39A1.64,1.64,0,0,0,82,337a.57.57,0,0,0-.3.5.46.46,0,0,0,.16.38,1.27,1.27,0,0,0,.42.21l.7.15a6,6,0,0,1,1,.22,1.37,1.37,0,0,1,.63.39,1.09,1.09,0,0,1,.26.79,1.25,1.25,0,0,1-.57,1.07A2.73,2.73,0,0,1,82.74,341.13Zm8-5v4.95h-.85v-.75a1.84,1.84,0,0,1-.72.6,2.2,2.2,0,0,1-1,.2,2.18,2.18,0,0,1-1.56-.54,2.14,2.14,0,0,1-.57-1.61v-2.85h.89v2.74a1.58,1.58,0,0,0,.35,1.1,1.31,1.31,0,0,0,1,.36,1.46,1.46,0,0,0,1.12-.43,1.7,1.7,0,0,0,.41-1.21v-2.56Zm4.43-.05a2.62,2.62,0,0,1,1.29.32,2.22,2.22,0,0,1,.88.89,2.55,2.55,0,0,1,.33,1.31,2.65,2.65,0,0,1-.33,1.33,2.28,2.28,0,0,1-.88.89,2.62,2.62,0,0,1-1.29.31,2.23,2.23,0,0,1-1-.2,2,2,0,0,1-.75-.6v2.56h-.9v-6.76h.86v.78a1.81,1.81,0,0,1,.76-.61A2.23,2.23,0,0,1,95.14,336.08Zm-.08,4.27a1.61,1.61,0,0,0,.85-.22,1.53,1.53,0,0,0,.6-.61,1.87,1.87,0,0,0,.22-.92,1.77,1.77,0,0,0-.22-.9,1.44,1.44,0,0,0-.6-.62,1.71,1.71,0,0,0-.85-.22,1.67,1.67,0,0,0-.85.23,1.53,1.53,0,0,0-.6.61,1.87,1.87,0,0,0-.21.9,2,2,0,0,0,.21.92,1.62,1.62,0,0,0,1.45.83Zm6.54-4.27a2.62,2.62,0,0,1,1.29.32,2.24,2.24,0,0,1,.89.89,2.65,2.65,0,0,1,.32,1.31,2.75,2.75,0,0,1-.32,1.33,2.31,2.31,0,0,1-.89.89,2.62,2.62,0,0,1-1.29.31,2.29,2.29,0,0,1-1-.2,2.17,2.17,0,0,1-.75-.6v2.56H99v-6.76h.86v.78a1.78,1.78,0,0,1,.75-.61A2.26,2.26,0,0,1,101.6,336.08Zm-.07,4.27a1.63,1.63,0,0,0,.85-.22,1.57,1.57,0,0,0,.59-.61,1.87,1.87,0,0,0,.23-.92,1.77,1.77,0,0,0-.23-.9,1.47,1.47,0,0,0-.59-.62,1.73,1.73,0,0,0-.85-.22,1.61,1.61,0,0,0-.85.23,1.53,1.53,0,0,0-.6.61,1.77,1.77,0,0,0-.22.9,1.87,1.87,0,0,0,.22.92,1.53,1.53,0,0,0,.6.61A1.61,1.61,0,0,0,101.53,340.35Zm3.91-6.2h.9v6.93h-.9Zm7.09,2-2.4,5.44a2.49,2.49,0,0,1-.75,1.07,1.71,1.71,0,0,1-1,.31,1.94,1.94,0,0,1-.71-.13,1.37,1.37,0,0,1-.56-.33l.38-.67a1.26,1.26,0,0,0,.89.36.8.8,0,0,0,.54-.18,1.32,1.32,0,0,0,.4-.59l.16-.34-2.18-4.94h.93l1.73,4,1.71-4Zm5.34-.05a2.26,2.26,0,0,1,1.57.5,1.94,1.94,0,0,1,.55,1.51v3h-.85v-.66a1.49,1.49,0,0,1-.64.54,2.7,2.7,0,0,1-1,.17,2.07,2.07,0,0,1-1.33-.4,1.3,1.3,0,0,1-.5-1.05,1.28,1.28,0,0,1,.48-1.05,2.31,2.31,0,0,1,1.51-.4h1.42v-.18a1.18,1.18,0,0,0-.33-.89,1.46,1.46,0,0,0-1-.3,2.77,2.77,0,0,0-.86.14,2.29,2.29,0,0,0-.71.39l-.38-.67a2.51,2.51,0,0,1,.92-.47A3.77,3.77,0,0,1,117.87,336.08Zm-.21,4.36a1.68,1.68,0,0,0,.89-.22,1.35,1.35,0,0,0,.54-.66v-.69h-1.38c-.76,0-1.14.26-1.14.77a.71.71,0,0,0,.29.59A1.33,1.33,0,0,0,117.66,340.44Zm5.51.69A4.08,4.08,0,0,1,122,341a2.58,2.58,0,0,1-.88-.42l.37-.71a2.83,2.83,0,0,0,.8.38,3.34,3.34,0,0,0,.94.14c.79,0,1.18-.23,1.18-.67a.44.44,0,0,0-.16-.36,1,1,0,0,0-.4-.19c-.16,0-.38-.09-.67-.14a6.5,6.5,0,0,1-1-.21,1.53,1.53,0,0,1-.65-.41,1.17,1.17,0,0,1-.27-.81,1.28,1.28,0,0,1,.56-1.08,2.52,2.52,0,0,1,1.5-.41,4.19,4.19,0,0,1,1,.12,2.6,2.6,0,0,1,.82.33l-.39.71a2.57,2.57,0,0,0-1.43-.39,1.69,1.69,0,0,0-.86.18.57.57,0,0,0-.3.5.44.44,0,0,0,.17.38,1.13,1.13,0,0,0,.41.21l.7.15a5.79,5.79,0,0,1,1,.22,1.37,1.37,0,0,1,.63.39,1.1,1.1,0,0,1,.27.79,1.25,1.25,0,0,1-.58,1.07A2.73,2.73,0,0,1,123.17,341.13Zm8.08,0a2.81,2.81,0,0,1-1.33-.32,2.41,2.41,0,0,1-.92-.9,2.6,2.6,0,0,1-.33-1.31,2.56,2.56,0,0,1,.33-1.3,2.32,2.32,0,0,1,.92-.89,2.7,2.7,0,0,1,1.33-.33,2.64,2.64,0,0,1,1.32.33,2.29,2.29,0,0,1,.91.89,2.47,2.47,0,0,1,.34,1.3,2.51,2.51,0,0,1-.34,1.31,2.38,2.38,0,0,1-.91.9A2.74,2.74,0,0,1,131.25,341.13Zm0-.78a1.62,1.62,0,0,0,1.45-.83,2,2,0,0,0,.21-.92,1.87,1.87,0,0,0-.21-.9,1.5,1.5,0,0,0-.6-.62,1.71,1.71,0,0,0-.85-.22,1.77,1.77,0,0,0-.86.22,1.56,1.56,0,0,0-.6.62,1.87,1.87,0,0,0-.21.9,2,2,0,0,0,.21.92,1.62,1.62,0,0,0,1.46.83Zm5.72-5.52q-.81,0-.81.87v.43h1.44v.73h-1.42v4.22h-.89v-4.22h-.84v-.73h.84v-.44a1.49,1.49,0,0,1,1.63-1.6,2,2,0,0,1,.56.08,1.34,1.34,0,0,1,.45.21l-.27.68A1.17,1.17,0,0,0,137,334.83Zm5.25.52v2.28h3.28v.8h-3.28v2.65h-.94v-6.54h4.62v.81Zm9.28,3.28c0,.07,0,.16,0,.27h-4A1.62,1.62,0,0,0,148,340a1.93,1.93,0,0,0,1.23.39,1.85,1.85,0,0,0,1.43-.6l.49.58a2.15,2.15,0,0,1-.84.6,2.82,2.82,0,0,1-1.11.2,2.94,2.94,0,0,1-1.39-.31,2.38,2.38,0,0,1-1-.91,2.6,2.6,0,0,1-.32-1.31,2.69,2.69,0,0,1,.31-1.3,2.38,2.38,0,0,1,.89-.89,2.52,2.52,0,0,1,1.28-.33,2.42,2.42,0,0,1,1.26.33,2.19,2.19,0,0,1,.87.89A2.75,2.75,0,0,1,151.5,338.63Zm-2.45-1.79a1.54,1.54,0,0,0-1.59,1.42h3.18a1.53,1.53,0,0,0-.52-1A1.48,1.48,0,0,0,149.05,336.84Zm6.41-.76a2.62,2.62,0,0,1,1.29.32,2.24,2.24,0,0,1,.89.89,2.55,2.55,0,0,1,.33,1.31,2.65,2.65,0,0,1-.33,1.33,2.31,2.31,0,0,1-.89.89,2.62,2.62,0,0,1-1.29.31,2.36,2.36,0,0,1-1-.21,1.86,1.86,0,0,1-.76-.63v.79h-.86v-6.93h.9v2.72a1.9,1.9,0,0,1,.74-.58A2.3,2.3,0,0,1,155.46,336.08Zm-.07,4.27a1.62,1.62,0,0,0,1.45-.83,1.87,1.87,0,0,0,.22-.92,1.77,1.77,0,0,0-.22-.9,1.5,1.5,0,0,0-.6-.62,1.71,1.71,0,0,0-.85-.22,1.76,1.76,0,0,0-.85.22,1.5,1.5,0,0,0-.6.62,1.87,1.87,0,0,0-.21.9,2,2,0,0,0,.21.92,1.6,1.6,0,0,0,.6.61A1.66,1.66,0,0,0,155.39,340.35Zm10.88-5.81v.63l-2.64,5.91h-1l2.59-5.73h-3v1.17h-.9v-2Z" transform="translate(-80.46 -287.76)"/><path class="cls-10" d="M87.07,496.06v6.54H86.3l-3.92-4.88v4.88h-.93v-6.54h.76l3.93,4.87v-4.87Zm4,6.59a2.64,2.64,0,0,1-1.32-.33,2.41,2.41,0,0,1-.93-.89,2.6,2.6,0,0,1-.32-1.31,2.38,2.38,0,0,1,1.25-2.2,2.74,2.74,0,0,1,1.32-.32,2.71,2.71,0,0,1,1.32.32,2.41,2.41,0,0,1,.92.9,2.54,2.54,0,0,1,.33,1.3,2.6,2.6,0,0,1-.33,1.31,2.32,2.32,0,0,1-.92.89A2.61,2.61,0,0,1,91.11,502.65Zm0-.78a1.71,1.71,0,0,0,.85-.22,1.53,1.53,0,0,0,.6-.61,2,2,0,0,0,.22-.92,1.94,1.94,0,0,0-.22-.91,1.47,1.47,0,0,0-.6-.61,1.61,1.61,0,0,0-.85-.22,1.69,1.69,0,0,0-.86.22,1.65,1.65,0,0,0-.59.61,1.83,1.83,0,0,0-.22.91,1.87,1.87,0,0,0,.22.92,1.73,1.73,0,0,0,.59.61A1.8,1.8,0,0,0,91.11,501.87Zm6.69.44a1.57,1.57,0,0,1-.48.26,2.41,2.41,0,0,1-.6.08,1.59,1.59,0,0,1-1.16-.4,1.55,1.55,0,0,1-.41-1.15v-2.72h-.84v-.74h.84v-1.08h.9v1.08h1.42v.74H96.05v2.68a.89.89,0,0,0,.19.62.78.78,0,0,0,.58.21,1,1,0,0,0,.7-.23Zm5.49-2.16c0,.07,0,.16,0,.27h-4a1.59,1.59,0,0,0,.57,1.05,1.87,1.87,0,0,0,1.22.4,1.84,1.84,0,0,0,1.43-.6l.5.58a2.31,2.31,0,0,1-.84.6,3,3,0,0,1-1.11.2,2.89,2.89,0,0,1-1.4-.32,2.33,2.33,0,0,1-.94-.9,2.6,2.6,0,0,1-.33-1.31,2.69,2.69,0,0,1,.32-1.3,2.4,2.4,0,0,1,.89-.9,2.59,2.59,0,0,1,1.28-.32,2.51,2.51,0,0,1,1.26.32,2.35,2.35,0,0,1,.87.9A2.75,2.75,0,0,1,103.29,500.15Zm-2.44-1.8a1.54,1.54,0,0,0-1.59,1.42h3.18a1.58,1.58,0,0,0-.52-1A1.49,1.49,0,0,0,100.85,498.35Zm4,.53a.62.62,0,0,1-.63-.65.61.61,0,0,1,.18-.45.64.64,0,0,1,.45-.18.59.59,0,0,1,.44.18.6.6,0,0,1,.18.45.61.61,0,0,1-.19.47A.58.58,0,0,1,104.85,498.88Zm0,3.77a.64.64,0,0,1-.45-.18.63.63,0,0,1-.18-.46.63.63,0,0,1,.63-.64.59.59,0,0,1,.44.18.62.62,0,0,1,.18.46.6.6,0,0,1-.19.46A.58.58,0,0,1,104.85,502.65Zm9.27-3.36H115v2.55a3.33,3.33,0,0,1-1.13.61,4,4,0,0,1-1.34.22,3.61,3.61,0,0,1-1.78-.43,3.31,3.31,0,0,1,0-5.83,3.69,3.69,0,0,1,1.8-.43,3.82,3.82,0,0,1,1.42.26,2.88,2.88,0,0,1,1.09.75l-.58.58a2.64,2.64,0,0,0-1.89-.76,2.75,2.75,0,0,0-1.35.33,2.28,2.28,0,0,0-.92.9,2.6,2.6,0,0,0,0,2.57,2.41,2.41,0,0,0,.92.9,2.72,2.72,0,0,0,1.34.33,2.79,2.79,0,0,0,1.53-.42Zm4.45-1.69a2.24,2.24,0,0,1,1.57.5,1.94,1.94,0,0,1,.55,1.51v3h-.85v-.66a1.4,1.4,0,0,1-.64.53,2.45,2.45,0,0,1-1,.18,2.08,2.08,0,0,1-1.34-.4,1.39,1.39,0,0,1,0-2.1,2.32,2.32,0,0,1,1.52-.4h1.42v-.18a1.17,1.17,0,0,0-.34-.89,1.43,1.43,0,0,0-1-.31,2.55,2.55,0,0,0-.86.15,2.11,2.11,0,0,0-.71.39l-.37-.68a2.6,2.6,0,0,1,.91-.46A3.52,3.52,0,0,1,118.57,497.6Zm-.2,4.36a1.64,1.64,0,0,0,.88-.22,1.43,1.43,0,0,0,.55-.66v-.69h-1.39c-.76,0-1.14.26-1.14.77a.71.71,0,0,0,.29.59A1.37,1.37,0,0,0,118.37,502Zm5.5.69a4.13,4.13,0,0,1-1.17-.16,2.67,2.67,0,0,1-.88-.42l.38-.71a2.76,2.76,0,0,0,.79.38,3.4,3.4,0,0,0,.94.14c.79,0,1.18-.23,1.18-.68a.42.42,0,0,0-.16-.35.93.93,0,0,0-.4-.19c-.15,0-.38-.09-.67-.14a6.5,6.5,0,0,1-1-.21,1.53,1.53,0,0,1-.65-.41,1.18,1.18,0,0,1-.27-.82,1.26,1.26,0,0,1,.56-1.07,2.48,2.48,0,0,1,1.51-.41,4.19,4.19,0,0,1,1,.12,2.53,2.53,0,0,1,.81.33l-.38.71a2.52,2.52,0,0,0-1.43-.4,1.7,1.7,0,0,0-.87.19.57.57,0,0,0-.3.5.47.47,0,0,0,.17.38,1,1,0,0,0,.41.2,6.17,6.17,0,0,0,.7.15,6.83,6.83,0,0,1,1,.23,1.37,1.37,0,0,1,.64.39,1.13,1.13,0,0,1,.26.78,1.25,1.25,0,0,1-.58,1.08A2.73,2.73,0,0,1,123.87,502.65Zm12.15-5a2,2,0,0,1,1.48.54,2.15,2.15,0,0,1,.55,1.61v2.85h-.9v-2.75a1.55,1.55,0,0,0-.33-1.08,1.18,1.18,0,0,0-.94-.37,1.41,1.41,0,0,0-1.09.43,1.68,1.68,0,0,0-.4,1.21v2.56h-.9v-2.75a1.55,1.55,0,0,0-.33-1.08,1.2,1.2,0,0,0-.95-.37,1.4,1.4,0,0,0-1.08.43,1.68,1.68,0,0,0-.4,1.21v2.56h-.9v-5h.86v.74a1.75,1.75,0,0,1,.71-.58,2.44,2.44,0,0,1,1-.2,2.26,2.26,0,0,1,1,.23,1.62,1.62,0,0,1,.69.68,1.94,1.94,0,0,1,.77-.67A2.63,2.63,0,0,1,136,497.6Zm8.28,2.55c0,.07,0,.16,0,.27h-4a1.52,1.52,0,0,0,.57,1.05,2,2,0,0,0,2.65-.2l.49.58a2.15,2.15,0,0,1-.84.6,3,3,0,0,1-1.11.2,2.85,2.85,0,0,1-1.39-.32,2.27,2.27,0,0,1-.94-.9,2.78,2.78,0,0,1,0-2.61,2.38,2.38,0,0,1,.88-.9,2.61,2.61,0,0,1,1.28-.32,2.46,2.46,0,0,1,1.26.32,2.22,2.22,0,0,1,.87.9A2.75,2.75,0,0,1,144.3,500.15Zm-2.45-1.8a1.54,1.54,0,0,0-1.58,1.42h3.17a1.57,1.57,0,0,0-.51-1A1.53,1.53,0,0,0,141.85,498.35Zm5.46-.75a2.26,2.26,0,0,1,1.57.5,1.94,1.94,0,0,1,.55,1.51v3h-.85v-.66a1.38,1.38,0,0,1-.65.53,2.42,2.42,0,0,1-1,.18,2,2,0,0,1-1.33-.4,1.3,1.3,0,0,1-.5-1.06,1.28,1.28,0,0,1,.48-1,2.31,2.31,0,0,1,1.51-.4h1.42v-.18a1.16,1.16,0,0,0-.33-.89,1.47,1.47,0,0,0-1-.31,2.51,2.51,0,0,0-.86.15,2.11,2.11,0,0,0-.71.39l-.38-.68a2.65,2.65,0,0,1,.92-.46A3.47,3.47,0,0,1,147.31,497.6ZM147.1,502a1.68,1.68,0,0,0,.89-.22,1.35,1.35,0,0,0,.54-.66v-.69h-1.38c-.76,0-1.14.26-1.14.77a.71.71,0,0,0,.29.59A1.33,1.33,0,0,0,147.1,502Zm5.51.69a4.08,4.08,0,0,1-1.17-.16,2.49,2.49,0,0,1-.88-.42l.37-.71a2.83,2.83,0,0,0,.8.38,3.34,3.34,0,0,0,.94.14c.79,0,1.18-.23,1.18-.68a.42.42,0,0,0-.16-.35,1,1,0,0,0-.4-.19c-.16,0-.38-.09-.67-.14a7,7,0,0,1-1-.21,1.56,1.56,0,0,1-.64-.41,1.18,1.18,0,0,1-.27-.82,1.26,1.26,0,0,1,.56-1.07,2.43,2.43,0,0,1,1.5-.41,4.19,4.19,0,0,1,1,.12,2.7,2.7,0,0,1,.82.33l-.39.71a2.5,2.5,0,0,0-1.43-.4,1.64,1.64,0,0,0-.86.19.57.57,0,0,0-.3.5.46.46,0,0,0,.16.38,1.09,1.09,0,0,0,.42.2,5.71,5.71,0,0,0,.7.15,7.19,7.19,0,0,1,1,.23,1.3,1.3,0,0,1,.63.39,1.08,1.08,0,0,1,.26.78,1.26,1.26,0,0,1-.57,1.08A2.73,2.73,0,0,1,152.61,502.65Zm8-5v5h-.85v-.75a1.93,1.93,0,0,1-.72.6,2.36,2.36,0,0,1-1,.2,1.94,1.94,0,0,1-2.13-2.16v-2.85h.89v2.75a1.55,1.55,0,0,0,.35,1.09,1.28,1.28,0,0,0,1,.37,1.5,1.5,0,0,0,1.12-.43,1.71,1.71,0,0,0,.41-1.22v-2.56Zm2.66.84a1.57,1.57,0,0,1,.69-.66,2.53,2.53,0,0,1,1.11-.22v.87h-.2a1.49,1.49,0,0,0-1.15.44,1.71,1.71,0,0,0-.41,1.23v2.47h-.9v-5h.86Zm7.44,1.67c0,.07,0,.16,0,.27h-4a1.59,1.59,0,0,0,.57,1.05,1.87,1.87,0,0,0,1.22.4,1.84,1.84,0,0,0,1.43-.6l.5.58a2.31,2.31,0,0,1-.84.6,3,3,0,0,1-1.11.2,2.89,2.89,0,0,1-1.4-.32,2.33,2.33,0,0,1-.94-.9,2.6,2.6,0,0,1-.33-1.31,2.69,2.69,0,0,1,.32-1.3,2.4,2.4,0,0,1,.89-.9,2.59,2.59,0,0,1,1.28-.32,2.51,2.51,0,0,1,1.26.32,2.35,2.35,0,0,1,.87.9A2.75,2.75,0,0,1,170.68,500.15Zm-2.45-1.8a1.54,1.54,0,0,0-1.59,1.42h3.18a1.58,1.58,0,0,0-.52-1A1.49,1.49,0,0,0,168.23,498.35Zm8.46-2.69v6.94h-.86v-.79a2,2,0,0,1-.76.63,2.37,2.37,0,0,1-1,.21,2.52,2.52,0,0,1-1.29-.32,2.28,2.28,0,0,1-.89-.88,2.75,2.75,0,0,1-.32-1.33,2.69,2.69,0,0,1,.32-1.32,2.28,2.28,0,0,1,.89-.88,2.52,2.52,0,0,1,1.29-.32,2.42,2.42,0,0,1,1,.2,1.88,1.88,0,0,1,.75.59v-2.73Zm-2.55,6.21a1.76,1.76,0,0,0,.85-.22,1.67,1.67,0,0,0,.6-.61,2,2,0,0,0,.21-.92,1.94,1.94,0,0,0-.21-.91,1.6,1.6,0,0,0-.6-.61,1.77,1.77,0,0,0-1.71,0,1.6,1.6,0,0,0-.6.61,1.94,1.94,0,0,0-.21.91,2,2,0,0,0,.21.92,1.67,1.67,0,0,0,.6.61A1.74,1.74,0,0,0,174.14,501.87Zm7-4.23H182v5h-.89Zm.45-.95a.58.58,0,0,1-.44-.17.58.58,0,0,1,0-.82.59.59,0,0,1,.44-.18.61.61,0,0,1,.43.17.54.54,0,0,1,.17.4.6.6,0,0,1-.17.43A.57.57,0,0,1,181.54,496.69Zm4.9.91a2,2,0,0,1,1.49.55,2.09,2.09,0,0,1,.56,1.6v2.85h-.89v-2.75a1.51,1.51,0,0,0-.35-1.08,1.28,1.28,0,0,0-1-.37,1.52,1.52,0,0,0-1.15.43,1.65,1.65,0,0,0-.42,1.21v2.56h-.9v-5h.86v.75a1.85,1.85,0,0,1,.73-.59A2.71,2.71,0,0,1,186.44,497.6Zm9,0a2.52,2.52,0,0,1,1.29.32,2.28,2.28,0,0,1,.89.88,2.69,2.69,0,0,1,.32,1.32,2.75,2.75,0,0,1-.32,1.33,2.28,2.28,0,0,1-.89.88,2.52,2.52,0,0,1-1.29.32,2.4,2.4,0,0,1-1-.21,2.11,2.11,0,0,1-.76-.63v.79h-.86v-6.94h.9v2.73a1.88,1.88,0,0,1,.75-.59A2.42,2.42,0,0,1,195.48,497.6Zm-.08,4.27a1.68,1.68,0,0,0,.85-.22,1.53,1.53,0,0,0,.6-.61,1.87,1.87,0,0,0,.23-.92,1.84,1.84,0,0,0-.23-.91,1.47,1.47,0,0,0-.6-.61,1.58,1.58,0,0,0-.85-.22,1.66,1.66,0,0,0-.85.22,1.51,1.51,0,0,0-.59.61,1.83,1.83,0,0,0-.22.91,1.87,1.87,0,0,0,.22.92,1.57,1.57,0,0,0,.59.61A1.76,1.76,0,0,0,195.4,501.87Zm3.92-4.23h.9v5h-.9Zm.45-.95a.58.58,0,0,1-.44-.17.58.58,0,0,1,0-.82.59.59,0,0,1,.44-.18.61.61,0,0,1,.43.17.51.51,0,0,1,.17.4.56.56,0,0,1-.17.43A.57.57,0,0,1,199.77,496.69Zm2.26-1h.89v6.94H202Zm2.7,0h.9v6.94h-.9Zm2.71,2h.89v5h-.89Zm.45-.95a.58.58,0,0,1-.44-.17.58.58,0,0,1,0-.82.59.59,0,0,1,.44-.18.61.61,0,0,1,.43.17.54.54,0,0,1,.17.4.6.6,0,0,1-.17.43A.57.57,0,0,1,207.89,496.69Zm4.37,6a2.64,2.64,0,0,1-1.32-.33,2.41,2.41,0,0,1-.93-.89,2.7,2.7,0,0,1-.32-1.31,2.64,2.64,0,0,1,.32-1.3,2.51,2.51,0,0,1,.93-.9,2.74,2.74,0,0,1,1.32-.32,2.69,2.69,0,0,1,1.32.32,2.41,2.41,0,0,1,.92.9,2.54,2.54,0,0,1,.33,1.3,2.6,2.6,0,0,1-.33,1.31,2.32,2.32,0,0,1-.92.89A2.59,2.59,0,0,1,212.26,502.65Zm0-.78a1.68,1.68,0,0,0,.85-.22,1.53,1.53,0,0,0,.6-.61,1.87,1.87,0,0,0,.22-.92,1.83,1.83,0,0,0-.22-.91,1.47,1.47,0,0,0-.6-.61,1.58,1.58,0,0,0-.85-.22,1.69,1.69,0,0,0-.86.22,1.65,1.65,0,0,0-.59.61,1.83,1.83,0,0,0-.22.91,1.87,1.87,0,0,0,.22.92,1.73,1.73,0,0,0,.59.61A1.8,1.8,0,0,0,212.26,501.87Zm6.55-4.27a2,2,0,0,1,1.5.55,2.13,2.13,0,0,1,.56,1.6v2.85H220v-2.75a1.51,1.51,0,0,0-.34-1.08,1.28,1.28,0,0,0-1-.37,1.52,1.52,0,0,0-1.15.43,1.65,1.65,0,0,0-.42,1.21v2.56h-.9v-5H217v.75a1.79,1.79,0,0,1,.73-.59A2.69,2.69,0,0,1,218.81,497.6Zm8.58,5a2.77,2.77,0,0,1-1.36-.33,2.32,2.32,0,0,1-.92-.89,2.61,2.61,0,0,1-.34-1.31,2.54,2.54,0,0,1,.34-1.3,2.41,2.41,0,0,1,.92-.9,2.87,2.87,0,0,1,1.36-.32,2.52,2.52,0,0,1,1.19.27,2,2,0,0,1,.83.78l-.69.44a1.52,1.52,0,0,0-.57-.53,1.68,1.68,0,0,0-.77-.18,1.74,1.74,0,0,0-.88.22,1.62,1.62,0,0,0-.61.61,2.1,2.1,0,0,0,0,1.83,1.56,1.56,0,0,0,.61.61,1.85,1.85,0,0,0,.88.22,1.68,1.68,0,0,0,.77-.18,1.52,1.52,0,0,0,.57-.53l.69.43a2,2,0,0,1-.83.79A2.52,2.52,0,0,1,227.39,502.65Zm7.89-5v5h-.85v-.75a1.93,1.93,0,0,1-.72.6,2.32,2.32,0,0,1-1,.2,1.94,1.94,0,0,1-2.13-2.16v-2.85h.89v2.75a1.55,1.55,0,0,0,.35,1.09,1.28,1.28,0,0,0,1,.37,1.5,1.5,0,0,0,1.12-.43,1.67,1.67,0,0,0,.41-1.22v-2.56Zm4.43,0a2.52,2.52,0,0,1,1.29.32,2.19,2.19,0,0,1,.88.88,2.59,2.59,0,0,1,.33,1.32,2.65,2.65,0,0,1-.33,1.33,2.19,2.19,0,0,1-.88.88,2.52,2.52,0,0,1-1.29.32,2.37,2.37,0,0,1-1-.21,2,2,0,0,1-.76-.63v.79h-.86v-6.94h.9v2.73a1.88,1.88,0,0,1,.75-.59A2.42,2.42,0,0,1,239.71,497.6Zm-.08,4.27a1.71,1.71,0,0,0,.85-.22,1.53,1.53,0,0,0,.6-.61,1.87,1.87,0,0,0,.23-.92,1.84,1.84,0,0,0-.23-.91,1.47,1.47,0,0,0-.6-.61,1.61,1.61,0,0,0-.85-.22,1.66,1.66,0,0,0-.85.22,1.51,1.51,0,0,0-.59.61,1.83,1.83,0,0,0-.22.91,1.87,1.87,0,0,0,.22.92,1.57,1.57,0,0,0,.59.61A1.76,1.76,0,0,0,239.63,501.87Zm3.92-4.23h.89v5h-.89Zm.45-.95a.58.58,0,0,1-.44-.17.58.58,0,0,1,0-.82.59.59,0,0,1,.44-.18.61.61,0,0,1,.43.17.54.54,0,0,1,.17.4.6.6,0,0,1-.17.43A.57.57,0,0,1,244,496.69Zm4.41,6a2.75,2.75,0,0,1-1.35-.33,2.34,2.34,0,0,1-.93-.89,2.6,2.6,0,0,1-.33-1.31,2.54,2.54,0,0,1,.33-1.3,2.44,2.44,0,0,1,.93-.9,2.86,2.86,0,0,1,1.35-.32,2.59,2.59,0,0,1,1.2.27,1.93,1.93,0,0,1,.82.78l-.68.44a1.63,1.63,0,0,0-.58-.53,1.65,1.65,0,0,0-.77-.18,1.77,1.77,0,0,0-.88.22,1.6,1.6,0,0,0-.6.61,2,2,0,0,0,0,1.83,1.53,1.53,0,0,0,.6.61,1.88,1.88,0,0,0,.88.22,1.65,1.65,0,0,0,.77-.18,1.63,1.63,0,0,0,.58-.53l.68.43a2,2,0,0,1-.82.79A2.59,2.59,0,0,1,248.41,502.65Zm7.7-6.3c-.54,0-.81.29-.81.86v.43h1.44v.74h-1.42v4.22h-.9v-4.22h-.84v-.74h.84v-.43a1.59,1.59,0,0,1,.43-1.17,1.63,1.63,0,0,1,1.21-.43,2,2,0,0,1,.56.07,1.35,1.35,0,0,1,.45.22l-.27.68A1.1,1.1,0,0,0,256.11,496.35Zm6,3.8c0,.07,0,.16,0,.27h-4a1.59,1.59,0,0,0,.57,1.05,1.87,1.87,0,0,0,1.22.4,1.84,1.84,0,0,0,1.43-.6l.5.58a2.31,2.31,0,0,1-.84.6,3,3,0,0,1-1.11.2,2.89,2.89,0,0,1-1.4-.32,2.33,2.33,0,0,1-.94-.9,2.6,2.6,0,0,1-.33-1.31,2.69,2.69,0,0,1,.32-1.3,2.4,2.4,0,0,1,.89-.9,2.59,2.59,0,0,1,1.28-.32,2.51,2.51,0,0,1,1.26.32,2.35,2.35,0,0,1,.87.9A2.75,2.75,0,0,1,262.09,500.15Zm-2.45-1.8a1.54,1.54,0,0,0-1.59,1.42h3.18a1.58,1.58,0,0,0-.52-1A1.49,1.49,0,0,0,259.64,498.35Zm8.26,1.8a1.42,1.42,0,0,1,0,.27h-4a1.52,1.52,0,0,0,.57,1.05,2,2,0,0,0,2.65-.2l.49.58a2.15,2.15,0,0,1-.84.6,3,3,0,0,1-1.11.2,2.85,2.85,0,0,1-1.39-.32,2.33,2.33,0,0,1-.94-.9,2.6,2.6,0,0,1-.33-1.31,2.69,2.69,0,0,1,.32-1.3,2.45,2.45,0,0,1,.88-.9,2.61,2.61,0,0,1,1.28-.32,2.52,2.52,0,0,1,1.27.32,2.26,2.26,0,0,1,.86.9A2.65,2.65,0,0,1,267.9,500.15Zm-2.45-1.8a1.54,1.54,0,0,0-1.58,1.42H267a1.57,1.57,0,0,0-.51-1A1.53,1.53,0,0,0,265.45,498.35Zm6.58,4a1.62,1.62,0,0,1-.49.26,2.35,2.35,0,0,1-.6.08,1.56,1.56,0,0,1-1.15-.4,1.52,1.52,0,0,1-.42-1.15v-2.72h-.84v-.74h.84v-1.08h.9v1.08h1.42v.74h-1.42v2.68a.89.89,0,0,0,.2.62.76.76,0,0,0,.58.21,1.07,1.07,0,0,0,.7-.23Zm6.41-4.71a2.52,2.52,0,0,1,1.29.32,2.28,2.28,0,0,1,.89.88,2.69,2.69,0,0,1,.32,1.32,2.75,2.75,0,0,1-.32,1.33,2.28,2.28,0,0,1-.89.88,2.52,2.52,0,0,1-1.29.32,2.42,2.42,0,0,1-1-.2,2.17,2.17,0,0,1-.75-.6v2.56h-.9v-6.77h.86v.79a2,2,0,0,1,.76-.62A2.4,2.4,0,0,1,278.44,497.6Zm-.08,4.27a1.68,1.68,0,0,0,.85-.22,1.53,1.53,0,0,0,.6-.61,1.87,1.87,0,0,0,.23-.92,1.84,1.84,0,0,0-.23-.91,1.47,1.47,0,0,0-.6-.61,1.58,1.58,0,0,0-.85-.22,1.67,1.67,0,0,0-.85.23,1.62,1.62,0,0,0-.59.6,1.83,1.83,0,0,0-.22.91,1.87,1.87,0,0,0,.22.92,1.57,1.57,0,0,0,.59.61A1.76,1.76,0,0,0,278.36,501.87Zm8.39-1.72a1.42,1.42,0,0,1,0,.27h-4a1.52,1.52,0,0,0,.57,1.05,1.87,1.87,0,0,0,1.22.4,1.84,1.84,0,0,0,1.43-.6l.5.58a2.31,2.31,0,0,1-.84.6,3.06,3.06,0,0,1-1.12.2,2.88,2.88,0,0,1-1.39-.32,2.33,2.33,0,0,1-.94-.9,2.6,2.6,0,0,1-.33-1.31,2.69,2.69,0,0,1,.32-1.3,2.4,2.4,0,0,1,.89-.9,2.59,2.59,0,0,1,1.28-.32,2.51,2.51,0,0,1,1.26.32,2.35,2.35,0,0,1,.87.9A2.75,2.75,0,0,1,286.75,500.15Zm-2.44-1.8a1.54,1.54,0,0,0-1.59,1.42h3.17a1.57,1.57,0,0,0-.51-1A1.5,1.5,0,0,0,284.31,498.35Zm4.65.13a1.47,1.47,0,0,1,.69-.66,2.47,2.47,0,0,1,1.11-.22v.87h-.21a1.5,1.5,0,0,0-1.15.44,1.71,1.71,0,0,0-.41,1.23v2.47h-.89v-5H289Zm10.34-2.82v6.94h-.86v-.79a2,2,0,0,1-.76.63,2.36,2.36,0,0,1-1,.21,2.52,2.52,0,0,1-1.29-.32,2.31,2.31,0,0,1-.9-.88,2.75,2.75,0,0,1-.32-1.33,2.69,2.69,0,0,1,.32-1.32,2.31,2.31,0,0,1,.9-.88,2.52,2.52,0,0,1,1.29-.32,2.45,2.45,0,0,1,1,.2,1.85,1.85,0,0,1,.74.59v-2.73Zm-2.55,6.21a1.73,1.73,0,0,0,.85-.22,1.53,1.53,0,0,0,.6-.61,2,2,0,0,0,.21-.92,1.94,1.94,0,0,0-.21-.91,1.47,1.47,0,0,0-.6-.61,1.63,1.63,0,0,0-.85-.22,1.67,1.67,0,0,0-.86.22,1.6,1.6,0,0,0-.6.61,1.94,1.94,0,0,0-.21.91,2,2,0,0,0,.21.92,1.67,1.67,0,0,0,.6.61A1.77,1.77,0,0,0,296.75,501.87Zm6.15-4.27a2.26,2.26,0,0,1,1.57.5,2,2,0,0,1,.55,1.51v3h-.85v-.66a1.43,1.43,0,0,1-.65.53,2.42,2.42,0,0,1-1,.18,2,2,0,0,1-1.33-.4,1.3,1.3,0,0,1-.5-1.06,1.28,1.28,0,0,1,.48-1,2.31,2.31,0,0,1,1.51-.4h1.42v-.18a1.13,1.13,0,0,0-.34-.89,1.43,1.43,0,0,0-1-.31,2.5,2.5,0,0,0-.85.15,2,2,0,0,0-.71.39l-.38-.68a2.65,2.65,0,0,1,.92-.46A3.47,3.47,0,0,1,302.9,497.6Zm-.21,4.36a1.7,1.7,0,0,0,.89-.22,1.35,1.35,0,0,0,.54-.66v-.69h-1.38c-.76,0-1.14.26-1.14.77a.71.71,0,0,0,.29.59A1.33,1.33,0,0,0,302.69,502Zm8.37-4.32-2.4,5.45a2.44,2.44,0,0,1-.74,1.06,1.65,1.65,0,0,1-1,.31,2.16,2.16,0,0,1-.71-.12,1.41,1.41,0,0,1-.56-.33l.38-.68a1.23,1.23,0,0,0,.89.37.8.8,0,0,0,.54-.18,1.41,1.41,0,0,0,.4-.59l.16-.34-2.19-4.95h.94l1.73,4,1.71-4Z" transform="translate(-80.46 -287.76)"/><path d="M527,331h-1.24v1.61h-.91V331h-3.63v-.65l3.34-4.28h1l-3.2,4.13h2.51v-1.42h.88v1.42H527Zm2.5-2.32a3.19,3.19,0,0,1,2,.53,1.71,1.71,0,0,1,.66,1.44,2,2,0,0,1-.28,1,1.79,1.79,0,0,1-.82.73,3.13,3.13,0,0,1-1.37.26,4.68,4.68,0,0,1-1.34-.2,3.18,3.18,0,0,1-1.06-.59l.43-.74a2.58,2.58,0,0,0,.86.51,3.14,3.14,0,0,0,1.1.19,1.82,1.82,0,0,0,1.14-.31,1,1,0,0,0,.41-.86,1,1,0,0,0-.45-.88,2.78,2.78,0,0,0-1.53-.31h-1.48l.34-3.42h3.69v.81h-2.9l-.18,1.8Z" transform="translate(-80.46 -287.76)"/><path d="M434.11,333.34v.81h-4.7v-.63l2.66-2.57a3.12,3.12,0,0,0,.65-.81,1.47,1.47,0,0,0,.17-.69,1,1,0,0,0-.36-.79,1.62,1.62,0,0,0-1-.29,2.06,2.06,0,0,0-1.67.71l-.64-.55a2.57,2.57,0,0,1,1-.73,3.66,3.66,0,0,1,1.39-.26,2.52,2.52,0,0,1,1.64.49,1.64,1.64,0,0,1,.61,1.33,2.25,2.25,0,0,1-.23,1,3.8,3.8,0,0,1-.85,1.06l-2,1.93Zm5.46,0v.81h-4.7v-.63l2.66-2.57a3.44,3.44,0,0,0,.66-.81,1.58,1.58,0,0,0,.16-.69,1,1,0,0,0-.36-.79,1.62,1.62,0,0,0-1-.29,2.06,2.06,0,0,0-1.67.71l-.64-.55a2.57,2.57,0,0,1,1-.73,3.68,3.68,0,0,1,1.4-.26,2.5,2.5,0,0,1,1.63.49,1.64,1.64,0,0,1,.61,1.33,2.25,2.25,0,0,1-.23,1,3.8,3.8,0,0,1-.85,1.06l-2,1.93Z" transform="translate(-80.46 -287.76)"/><path d="M238.15,327.61v6.54h-.93v-5.72h-1.48v-.82Zm6.29,0v.64l-2.65,5.9h-1l2.59-5.72h-3v1.16h-.9v-2Z" transform="translate(-80.46 -287.76)"/><path d="M480.68,366.17a2.53,2.53,0,0,1,2,.85,3.63,3.63,0,0,1,.72,2.41,4.13,4.13,0,0,1-.4,1.87,2.67,2.67,0,0,1-1.08,1.17,3.24,3.24,0,0,1-1.62.39,4.26,4.26,0,0,1-.89-.09,2.85,2.85,0,0,1-.73-.29l.35-.73a2.35,2.35,0,0,0,1.26.31,2,2,0,0,0,1.59-.63,2.62,2.62,0,0,0,.58-1.84v-.23a1.74,1.74,0,0,1-.77.64,2.67,2.67,0,0,1-1.12.22,2.55,2.55,0,0,1-1.15-.25,1.82,1.82,0,0,1-1.08-1.73,2,2,0,0,1,.3-1.09,2.07,2.07,0,0,1,.83-.72A2.66,2.66,0,0,1,480.68,366.17Zm.08,3.29a1.8,1.8,0,0,0,.79-.17,1.2,1.2,0,0,0,.53-.46,1.1,1.1,0,0,0,.2-.64,1.09,1.09,0,0,0-.19-.63,1.19,1.19,0,0,0-.53-.45,1.8,1.8,0,0,0-.84-.18,1.56,1.56,0,0,0-1.05.34,1.19,1.19,0,0,0-.39.93,1.13,1.13,0,0,0,.4.92A1.61,1.61,0,0,0,480.76,369.46Z" transform="translate(-80.46 -287.76)"/><path d="M435.2,398.78H434v1.6h-.91v-1.6h-3.63v-.66l3.34-4.28h1l-3.2,4.13h2.51v-1.42H434V398h1.24Z" transform="translate(-80.46 -287.76)"/><path d="M374.78,421.44V428h-.92v-5.73h-1.48v-.81Zm6.12,5.73V428h-4.69v-.64l2.66-2.57a3.11,3.11,0,0,0,.65-.8,1.59,1.59,0,0,0,.17-.69.93.93,0,0,0-.36-.79,1.56,1.56,0,0,0-1-.29,2,2,0,0,0-1.67.71l-.64-.55a2.48,2.48,0,0,1,1-.73,3.48,3.48,0,0,1,1.39-.27,2.53,2.53,0,0,1,1.64.5,1.62,1.62,0,0,1,.6,1.33,2.24,2.24,0,0,1-.22,1,4,4,0,0,1-.85,1.06l-2,1.93Z" transform="translate(-80.46 -287.76)"/><path d="M340.2,449v6.53h-.92v-5.72H337.8V449Zm3.65-.08a2.5,2.5,0,0,1,2,.85,3.63,3.63,0,0,1,.72,2.41,4.13,4.13,0,0,1-.4,1.87,2.67,2.67,0,0,1-1.08,1.17,3.24,3.24,0,0,1-1.62.39,4.26,4.26,0,0,1-.89-.09,2.71,2.71,0,0,1-.73-.29l.35-.73a2.35,2.35,0,0,0,1.26.31,2,2,0,0,0,1.59-.63,2.62,2.62,0,0,0,.58-1.84v-.23a1.8,1.8,0,0,1-.77.64,2.83,2.83,0,0,1-1.12.22,2.69,2.69,0,0,1-1.15-.25,1.92,1.92,0,0,1-.8-.69,2,2,0,0,1-.28-1,2,2,0,0,1,.3-1.09,2.07,2.07,0,0,1,.83-.72A2.66,2.66,0,0,1,343.85,449Zm.08,3.29a1.8,1.8,0,0,0,.79-.17,1.2,1.2,0,0,0,.53-.46,1.1,1.1,0,0,0,.2-.64,1.17,1.17,0,0,0-.19-.63,1.24,1.24,0,0,0-.53-.45,1.8,1.8,0,0,0-.84-.18,1.56,1.56,0,0,0-1.05.34,1.18,1.18,0,0,0-.39.93,1.15,1.15,0,0,0,.4.92A1.61,1.61,0,0,0,343.93,452.25Z" transform="translate(-80.46 -287.76)"/><path d="M327.23,331.41a2.66,2.66,0,0,1,1.15.24,1.88,1.88,0,0,1,.8.7,1.91,1.91,0,0,1,.29,1,1.88,1.88,0,0,1-.31,1.08,2,2,0,0,1-.83.73,2.65,2.65,0,0,1-1.18.25,2.5,2.5,0,0,1-2-.85,3.61,3.61,0,0,1-.71-2.41,4.06,4.06,0,0,1,.38-1.86,2.7,2.7,0,0,1,1.08-1.16,3.21,3.21,0,0,1,1.63-.41,3.62,3.62,0,0,1,.89.11,2.1,2.1,0,0,1,.73.28l-.35.73a2.2,2.2,0,0,0-1.25-.31,2.07,2.07,0,0,0-1.6.63,2.59,2.59,0,0,0-.58,1.83,1.63,1.63,0,0,0,0,.24,1.8,1.8,0,0,1,.77-.64A2.65,2.65,0,0,1,327.23,331.41Zm-.11,3.29a1.56,1.56,0,0,0,1-.35,1.15,1.15,0,0,0,.4-.92,1.1,1.1,0,0,0-.41-.92,1.61,1.61,0,0,0-1.08-.35,1.83,1.83,0,0,0-.79.17,1.49,1.49,0,0,0-.53.46,1.21,1.21,0,0,0-.19.65,1.16,1.16,0,0,0,.18.63,1.41,1.41,0,0,0,.53.46A2,2,0,0,0,327.12,334.7Z" transform="translate(-80.46 -287.76)"/><path d="M85.61,447.56H82.14l-.72,1.63h-1l3-6.53h.92l3,6.53h-1Zm-.32-.75-1.41-3.2-1.42,3.2Zm7.09-2.57-2.17,4.95H89.3l-2.17-4.95h.93l1.7,4,1.74-4Zm2.58,0a2.2,2.2,0,0,1,1.57.5,1.93,1.93,0,0,1,.55,1.5v3h-.85v-.65a1.4,1.4,0,0,1-.64.53,2.45,2.45,0,0,1-1,.18,2.08,2.08,0,0,1-1.34-.4,1.3,1.3,0,0,1-.49-1.06,1.27,1.27,0,0,1,.47-1,2.32,2.32,0,0,1,1.52-.41h1.42v-.17a1.17,1.17,0,0,0-.34-.89,1.42,1.42,0,0,0-1-.31,2.55,2.55,0,0,0-.86.15,2.09,2.09,0,0,0-.71.38l-.37-.67a2.8,2.8,0,0,1,.91-.47A3.81,3.81,0,0,1,95,444.2Zm-.2,4.36a1.67,1.67,0,0,0,.88-.23,1.35,1.35,0,0,0,.55-.65V447H94.8c-.76,0-1.14.25-1.14.77a.69.69,0,0,0,.29.58A1.3,1.3,0,0,0,94.76,448.56Zm4.08-4.32h.9v4.95h-.9Zm.45-.95a.62.62,0,0,1-.44-.17.58.58,0,0,1,0-.82.59.59,0,0,1,.44-.18.61.61,0,0,1,.43.17.51.51,0,0,1,.17.4.57.57,0,0,1-.17.43A.61.61,0,0,1,99.29,443.29Zm2.26-1h.89v6.93h-.89Zm4.5,1.94a2.2,2.2,0,0,1,1.57.5,1.93,1.93,0,0,1,.55,1.5v3h-.85v-.65a1.4,1.4,0,0,1-.64.53,2.42,2.42,0,0,1-1,.18,2.08,2.08,0,0,1-1.34-.4,1.39,1.39,0,0,1,0-2.1,2.34,2.34,0,0,1,1.52-.41h1.42v-.17a1.13,1.13,0,0,0-.34-.89,1.38,1.38,0,0,0-1-.31,2.55,2.55,0,0,0-.86.15,2.19,2.19,0,0,0-.71.38l-.37-.67a2.8,2.8,0,0,1,.91-.47A3.86,3.86,0,0,1,106.05,444.2Zm-.2,4.36a1.71,1.71,0,0,0,.89-.23,1.33,1.33,0,0,0,.54-.65V447H105.9c-.76,0-1.14.25-1.14.77a.67.67,0,0,0,.29.58A1.27,1.27,0,0,0,105.85,448.56Zm6.71-4.36a2.58,2.58,0,0,1,1.28.31,2.31,2.31,0,0,1,.89.89,2.81,2.81,0,0,1,0,2.64,2.24,2.24,0,0,1-.89.89,2.59,2.59,0,0,1-1.28.32,2.37,2.37,0,0,1-1-.21,2,2,0,0,1-.76-.63v.78h-.86v-6.93h.9V445a1.88,1.88,0,0,1,.75-.59A2.38,2.38,0,0,1,112.56,444.2Zm-.08,4.27a1.71,1.71,0,0,0,.85-.22,1.49,1.49,0,0,0,.6-.62,2,2,0,0,0,0-1.82,1.41,1.41,0,0,0-.6-.61,1.61,1.61,0,0,0-.85-.22,1.66,1.66,0,0,0-.85.22,1.53,1.53,0,0,0-.6.61,2.08,2.08,0,0,0,0,1.82,1.63,1.63,0,0,0,.6.62A1.76,1.76,0,0,0,112.48,448.47Zm3.92-6.21h.89v6.93h-.89Zm7.18,4.49c0,.07,0,.16,0,.27h-4a1.59,1.59,0,0,0,.57,1.05,1.92,1.92,0,0,0,1.22.4,1.82,1.82,0,0,0,1.43-.6l.5.58a2.17,2.17,0,0,1-.84.59,2.82,2.82,0,0,1-1.11.21,3,3,0,0,1-1.4-.32,2.4,2.4,0,0,1-.94-.9,2.63,2.63,0,0,1-.33-1.31,2.69,2.69,0,0,1,.32-1.3,2.4,2.4,0,0,1,.89-.9,2.61,2.61,0,0,1,1.28-.32,2.51,2.51,0,0,1,1.26.32,2.28,2.28,0,0,1,.87.9A2.75,2.75,0,0,1,123.58,446.75Zm-2.45-1.8a1.56,1.56,0,0,0-1.09.4,1.6,1.6,0,0,0-.5,1h3.18a1.58,1.58,0,0,0-.52-1A1.52,1.52,0,0,0,121.13,445Zm11.13-.71v4.28a2.54,2.54,0,0,1-.64,1.92,2.71,2.71,0,0,1-1.93.62,4.46,4.46,0,0,1-1.33-.19,2.59,2.59,0,0,1-1-.55l.43-.69a2.4,2.4,0,0,0,.85.47,3.13,3.13,0,0,0,1,.18,1.76,1.76,0,0,0,1.28-.41,1.7,1.7,0,0,0,.42-1.26v-.39a2,2,0,0,1-.78.58,2.54,2.54,0,0,1-1,.19,2.79,2.79,0,0,1-1.29-.3,2.37,2.37,0,0,1-.9-.85,2.5,2.5,0,0,1-.32-1.25,2.41,2.41,0,0,1,.32-1.24,2.17,2.17,0,0,1,.9-.85,2.79,2.79,0,0,1,1.29-.3,2.75,2.75,0,0,1,1,.2,2,2,0,0,1,.79.61v-.77Zm-2.58,4a1.75,1.75,0,0,0,.87-.2,1.53,1.53,0,0,0,.83-1.41,1.52,1.52,0,0,0-.47-1.16,1.91,1.91,0,0,0-2.46,0,1.49,1.49,0,0,0-.48,1.16,1.6,1.6,0,0,0,.22.84,1.64,1.64,0,0,0,.6.57A1.88,1.88,0,0,0,129.68,448.2Zm6.19-4a2.2,2.2,0,0,1,1.57.5,1.93,1.93,0,0,1,.55,1.5v3h-.85v-.65a1.4,1.4,0,0,1-.64.53,2.42,2.42,0,0,1-1,.18,2.08,2.08,0,0,1-1.34-.4,1.39,1.39,0,0,1,0-2.1,2.34,2.34,0,0,1,1.52-.41h1.42v-.17a1.17,1.17,0,0,0-.34-.89,1.38,1.38,0,0,0-1-.31,2.55,2.55,0,0,0-.86.15,2.09,2.09,0,0,0-.71.38l-.37-.67a2.8,2.8,0,0,1,.91-.47A3.81,3.81,0,0,1,135.87,444.2Zm-.2,4.36a1.71,1.71,0,0,0,.89-.23,1.39,1.39,0,0,0,.54-.65V447h-1.39c-.76,0-1.14.25-1.14.77a.69.69,0,0,0,.29.58A1.32,1.32,0,0,0,135.67,448.56Zm5.5.69a4.18,4.18,0,0,1-1.17-.16,2.67,2.67,0,0,1-.88-.42l.38-.71a2.51,2.51,0,0,0,.79.37,3.08,3.08,0,0,0,1,.14c.78,0,1.17-.22,1.17-.67a.41.41,0,0,0-.16-.35.93.93,0,0,0-.4-.19c-.15,0-.38-.09-.67-.14a6.5,6.5,0,0,1-1-.21,1.56,1.56,0,0,1-.65-.42,1.13,1.13,0,0,1-.27-.81,1.26,1.26,0,0,1,.56-1.07,2.48,2.48,0,0,1,1.51-.41,4.19,4.19,0,0,1,1,.12,2.79,2.79,0,0,1,.81.32l-.38.71a2.6,2.6,0,0,0-1.43-.39,1.61,1.61,0,0,0-.87.19.56.56,0,0,0-.3.49.49.49,0,0,0,.17.39,1,1,0,0,0,.41.2,6.17,6.17,0,0,0,.7.15,6.83,6.83,0,0,1,1,.23,1.37,1.37,0,0,1,.64.39,1.13,1.13,0,0,1,.26.78,1.25,1.25,0,0,1-.58,1.08A2.73,2.73,0,0,1,141.17,449.25ZM82.74,460.93a4.47,4.47,0,0,1-1.17-.16,2.89,2.89,0,0,1-.88-.42l.37-.71a2.82,2.82,0,0,0,.8.37,3.34,3.34,0,0,0,.94.14c.79,0,1.18-.22,1.18-.67a.44.44,0,0,0-.16-.36,1,1,0,0,0-.4-.18,5.57,5.57,0,0,0-.68-.14,8.73,8.73,0,0,1-1-.22,1.56,1.56,0,0,1-.64-.41,1.13,1.13,0,0,1-.27-.81,1.28,1.28,0,0,1,.56-1.08,2.49,2.49,0,0,1,1.5-.41,4.19,4.19,0,0,1,1,.12,2.7,2.7,0,0,1,.82.33l-.39.71a2.57,2.57,0,0,0-1.43-.39,1.54,1.54,0,0,0-.86.19.55.55,0,0,0-.3.49.46.46,0,0,0,.16.38,1,1,0,0,0,.42.21l.7.15a7.39,7.39,0,0,1,1,.22,1.46,1.46,0,0,1,.63.39,1.09,1.09,0,0,1,.26.79,1.23,1.23,0,0,1-.57,1.07A2.65,2.65,0,0,1,82.74,460.93Zm8-5v4.95h-.85v-.75a1.76,1.76,0,0,1-.72.6,2.21,2.21,0,0,1-1,.21,1.95,1.95,0,0,1-2.13-2.16v-2.85h.89v2.75a1.57,1.57,0,0,0,.35,1.09,1.31,1.31,0,0,0,1,.36,1.46,1.46,0,0,0,1.12-.43,1.69,1.69,0,0,0,.41-1.21v-2.56Zm4.43-.05a2.62,2.62,0,0,1,1.29.32,2.22,2.22,0,0,1,.88.89,2.58,2.58,0,0,1,.33,1.31,2.65,2.65,0,0,1-.33,1.33,2.22,2.22,0,0,1-.88.89,2.62,2.62,0,0,1-1.29.32,2.24,2.24,0,0,1-1-.21,2,2,0,0,1-.75-.6v2.56h-.9v-6.76h.86v.78a1.81,1.81,0,0,1,.76-.61A2.23,2.23,0,0,1,95.14,455.87Zm-.08,4.27a1.7,1.7,0,0,0,.85-.21,1.56,1.56,0,0,0,.6-.62,1.84,1.84,0,0,0,.22-.92,1.77,1.77,0,0,0-.22-.9,1.49,1.49,0,0,0-.6-.62,1.7,1.7,0,0,0-.85-.21,1.66,1.66,0,0,0-.85.22,1.6,1.6,0,0,0-.6.61,1.87,1.87,0,0,0-.21.9,2,2,0,0,0,.21.92,1.7,1.7,0,0,0,.6.62A1.76,1.76,0,0,0,95.06,460.14Zm6.54-4.27a2.62,2.62,0,0,1,1.29.32,2.24,2.24,0,0,1,.89.89,2.67,2.67,0,0,1,.32,1.31,2.75,2.75,0,0,1-.32,1.33,2.24,2.24,0,0,1-.89.89,2.62,2.62,0,0,1-1.29.32,2.3,2.3,0,0,1-1-.21,2.17,2.17,0,0,1-.75-.6v2.56H99v-6.76h.86v.78a1.78,1.78,0,0,1,.75-.61A2.26,2.26,0,0,1,101.6,455.87Zm-.07,4.27a1.73,1.73,0,0,0,.85-.21,1.6,1.6,0,0,0,.59-.62,1.85,1.85,0,0,0,.23-.92,1.77,1.77,0,0,0-.23-.9,1.53,1.53,0,0,0-.59-.62,1.73,1.73,0,0,0-.85-.21,1.62,1.62,0,0,0-1.45.83,1.77,1.77,0,0,0-.22.9,1.84,1.84,0,0,0,.22.92,1.56,1.56,0,0,0,.6.62A1.7,1.7,0,0,0,101.53,460.14Zm3.91-6.2h.9v6.93h-.9Zm7.09,2-2.4,5.44a2.49,2.49,0,0,1-.75,1.07,1.65,1.65,0,0,1-1,.31,2.16,2.16,0,0,1-.71-.12,1.5,1.5,0,0,1-.56-.34l.38-.67a1.26,1.26,0,0,0,.89.36.8.8,0,0,0,.54-.18,1.28,1.28,0,0,0,.4-.58l.16-.35-2.18-4.94h.93l1.73,4,1.71-4Zm5.34-.05a2.21,2.21,0,0,1,1.57.51,1.91,1.91,0,0,1,.55,1.5v3h-.85v-.65a1.47,1.47,0,0,1-.64.53,2.5,2.5,0,0,1-1,.18,2.07,2.07,0,0,1-1.33-.41,1.37,1.37,0,0,1,0-2.1,2.31,2.31,0,0,1,1.51-.4h1.42v-.18a1.14,1.14,0,0,0-.33-.88,1.42,1.42,0,0,0-1-.31,2.51,2.51,0,0,0-.86.15,2.09,2.09,0,0,0-.71.38l-.38-.67a2.67,2.67,0,0,1,.92-.47A3.77,3.77,0,0,1,117.87,455.87Zm-.21,4.36a1.68,1.68,0,0,0,.89-.22,1.33,1.33,0,0,0,.54-.65v-.69h-1.38c-.76,0-1.14.25-1.14.76a.7.7,0,0,0,.29.59A1.33,1.33,0,0,0,117.66,460.23Zm5.51.7a4.47,4.47,0,0,1-1.17-.16,3,3,0,0,1-.88-.42l.37-.71a2.82,2.82,0,0,0,.8.37,3.34,3.34,0,0,0,.94.14c.79,0,1.18-.22,1.18-.67a.44.44,0,0,0-.16-.36,1,1,0,0,0-.4-.18,5.76,5.76,0,0,0-.67-.14,7.81,7.81,0,0,1-1-.22,1.53,1.53,0,0,1-.65-.41,1.13,1.13,0,0,1-.27-.81,1.28,1.28,0,0,1,.56-1.08,2.52,2.52,0,0,1,1.5-.41,4.19,4.19,0,0,1,1,.12,2.6,2.6,0,0,1,.82.33l-.39.71a2.57,2.57,0,0,0-1.43-.39,1.59,1.59,0,0,0-.86.19.55.55,0,0,0-.3.49.44.44,0,0,0,.17.38.89.89,0,0,0,.41.21l.7.15a7,7,0,0,1,1,.22,1.46,1.46,0,0,1,.63.39,1.1,1.1,0,0,1,.27.79,1.24,1.24,0,0,1-.58,1.07A2.65,2.65,0,0,1,123.17,460.93Zm8.08,0a2.7,2.7,0,0,1-1.33-.33,2.41,2.41,0,0,1-.92-.9,2.58,2.58,0,0,1-.33-1.31,2.53,2.53,0,0,1,.33-1.29,2.28,2.28,0,0,1,.92-.9,2.7,2.7,0,0,1,1.33-.33,2.64,2.64,0,0,1,1.32.33,2.25,2.25,0,0,1,.91.9,2.44,2.44,0,0,1,.34,1.29,2.48,2.48,0,0,1-.34,1.31,2.38,2.38,0,0,1-.91.9A2.64,2.64,0,0,1,131.25,460.93Zm0-.79a1.7,1.7,0,0,0,.85-.21,1.62,1.62,0,0,0,.6-.62,2,2,0,0,0,.21-.92,1.87,1.87,0,0,0-.21-.9,1.56,1.56,0,0,0-.6-.62,1.7,1.7,0,0,0-.85-.21,1.77,1.77,0,0,0-.86.21,1.63,1.63,0,0,0-.6.62,1.87,1.87,0,0,0-.21.9,2,2,0,0,0,.21.92,1.7,1.7,0,0,0,.6.62A1.77,1.77,0,0,0,131.25,460.14Zm5.72-5.52q-.81,0-.81.87v.43h1.44v.74h-1.42v4.21h-.89v-4.21h-.84v-.74h.84v-.44a1.58,1.58,0,0,1,.43-1.17,1.63,1.63,0,0,1,1.2-.43,2,2,0,0,1,.56.08,1.34,1.34,0,0,1,.45.21l-.27.68A1.17,1.17,0,0,0,137,454.62Zm5.25.52v2.28h3.28v.81h-3.28v2.64h-.94v-6.54h4.62v.81Zm9.28,3.28c0,.07,0,.16,0,.27h-4a1.62,1.62,0,0,0,.57,1.06,1.93,1.93,0,0,0,1.23.39,1.85,1.85,0,0,0,1.43-.6l.49.58a2.15,2.15,0,0,1-.84.6,2.82,2.82,0,0,1-1.11.21,2.94,2.94,0,0,1-1.39-.32,2.38,2.38,0,0,1-1-.91,2.57,2.57,0,0,1-.32-1.31,2.65,2.65,0,0,1,.31-1.29,2.33,2.33,0,0,1,.89-.9,2.52,2.52,0,0,1,1.28-.33,2.42,2.42,0,0,1,1.26.33,2.16,2.16,0,0,1,.87.9A2.69,2.69,0,0,1,151.5,458.42Zm-2.45-1.79A1.56,1.56,0,0,0,148,457a1.59,1.59,0,0,0-.51,1h3.18a1.53,1.53,0,0,0-.52-1A1.48,1.48,0,0,0,149.05,456.63Zm6.41-.76a2.62,2.62,0,0,1,1.29.32,2.24,2.24,0,0,1,.89.89,2.58,2.58,0,0,1,.33,1.31,2.65,2.65,0,0,1-.33,1.33,2.24,2.24,0,0,1-.89.89,2.62,2.62,0,0,1-1.29.32,2.36,2.36,0,0,1-1-.22,1.92,1.92,0,0,1-.76-.62v.78h-.86v-6.93h.9v2.73a1.83,1.83,0,0,1,.74-.59A2.3,2.3,0,0,1,155.46,455.87Zm-.07,4.27a1.7,1.7,0,0,0,.85-.21,1.62,1.62,0,0,0,.6-.62,1.84,1.84,0,0,0,.22-.92,1.77,1.77,0,0,0-.22-.9,1.56,1.56,0,0,0-.6-.62,1.7,1.7,0,0,0-.85-.21,1.76,1.76,0,0,0-.85.21,1.56,1.56,0,0,0-.6.62,1.87,1.87,0,0,0-.21.9,2,2,0,0,0,.21.92,1.62,1.62,0,0,0,.6.62A1.76,1.76,0,0,0,155.39,460.14Zm8.15-5.81v6.54h-.93v-5.73h-1.47v-.81Zm3.39,2.61a3.22,3.22,0,0,1,2.06.53,1.74,1.74,0,0,1,.66,1.44,2,2,0,0,1-.28,1,1.86,1.86,0,0,1-.83.73,3.1,3.1,0,0,1-1.37.26,4.25,4.25,0,0,1-1.33-.2,3,3,0,0,1-1.07-.59l.43-.74a2.6,2.6,0,0,0,.86.52,3.38,3.38,0,0,0,1.1.18,1.78,1.78,0,0,0,1.14-.31,1,1,0,0,0,.42-.85,1,1,0,0,0-.45-.89,2.78,2.78,0,0,0-1.53-.31h-1.49l.35-3.42h3.69v.81h-2.91l-.18,1.8Z" transform="translate(-80.46 -287.76)"/><path d="M194.37,288.62a3,3,0,0,1,2,.61,2.28,2.28,0,0,1,0,3.35,3,3,0,0,1-2,.6h-1.61v2h-.93l0-6.53Zm0,3.75a2.11,2.11,0,0,0,1.35-.37,1.51,1.51,0,0,0,0-2.18,2.11,2.11,0,0,0-1.35-.39h-1.59v2.93Zm4.87-1.32a1.58,1.58,0,0,1,.7-.65,2.47,2.47,0,0,1,1.11-.22v.87h-.21a1.52,1.52,0,0,0-1.15.43,1.75,1.75,0,0,0-.41,1.24v2.46h-.9l0-4.95h.86Zm5.07,4.19a2.64,2.64,0,0,1-1.32-.33,2.51,2.51,0,0,1-.93-.9,2.67,2.67,0,0,1-.32-1.31,2.53,2.53,0,0,1,.33-1.29,2.37,2.37,0,0,1,.93-.9,2.65,2.65,0,0,1,1.33-.32,2.58,2.58,0,0,1,1.31.33,2.19,2.19,0,0,1,.91.9,2.45,2.45,0,0,1,.34,1.3,2.57,2.57,0,0,1-.34,1.3,2.41,2.41,0,0,1-.92.9A2.71,2.71,0,0,1,204.27,295.24Zm0-.78a1.63,1.63,0,0,0,.85-.22,1.57,1.57,0,0,0,.59-.61,1.84,1.84,0,0,0,.22-.92,1.87,1.87,0,0,0-.21-.9,1.44,1.44,0,0,0-.6-.62,1.77,1.77,0,0,0-1.71,0,1.53,1.53,0,0,0-.6.61,1.88,1.88,0,0,0-.21.91,1.94,1.94,0,0,0,.21.91,1.7,1.7,0,0,0,.6.62A1.74,1.74,0,0,0,204.28,294.46Zm8.59-6.18,0,6.93H212v-.78a1.92,1.92,0,0,1-.76.62,2.23,2.23,0,0,1-1,.22,2.62,2.62,0,0,1-1.28-.33,2.31,2.31,0,0,1-.9-.88,2.75,2.75,0,0,1-.31-1.33,2.69,2.69,0,0,1,.32-1.32,2.31,2.31,0,0,1,.9-.88,2.62,2.62,0,0,1,1.29-.32,2.3,2.3,0,0,1,1,.21,1.85,1.85,0,0,1,.74.59v-2.73Zm-2.57,6.19a1.73,1.73,0,0,0,.85-.21,1.56,1.56,0,0,0,.6-.62,1.8,1.8,0,0,0,.22-.91,1.91,1.91,0,0,0-.21-.91,1.63,1.63,0,0,0-.6-.62,1.85,1.85,0,0,0-1.71,0,1.6,1.6,0,0,0-.6.61,1.94,1.94,0,0,0-.22.91,1.87,1.87,0,0,0,.22.92,1.57,1.57,0,0,0,.59.61A1.67,1.67,0,0,0,210.3,294.47Zm9-4.2v5h-.85v-.75a1.76,1.76,0,0,1-.72.6,2.36,2.36,0,0,1-1,.2,1.94,1.94,0,0,1-2.13-2.16v-2.85h.9V293a1.55,1.55,0,0,0,.34,1.09,1.28,1.28,0,0,0,1,.37A1.46,1.46,0,0,0,218,294a1.65,1.65,0,0,0,.42-1.21v-2.56Zm3.95,5a2.73,2.73,0,0,1-1.35-.33,2.44,2.44,0,0,1-.93-.9,2.6,2.6,0,0,1-.33-1.31,2.45,2.45,0,0,1,.34-1.3,2.34,2.34,0,0,1,.93-.89,2.75,2.75,0,0,1,1.35-.33,2.72,2.72,0,0,1,1.2.28,1.93,1.93,0,0,1,.82.78l-.69.44a1.52,1.52,0,0,0-.57-.53,1.65,1.65,0,0,0-.77-.18,1.84,1.84,0,0,0-.88.21,1.58,1.58,0,0,0-.61.62,1.87,1.87,0,0,0-.21.9,2,2,0,0,0,.21.93,1.67,1.67,0,0,0,.6.61,1.87,1.87,0,0,0,.88.21,1.64,1.64,0,0,0,.77-.17,1.63,1.63,0,0,0,.58-.53l.68.43a2,2,0,0,1-.82.79A2.59,2.59,0,0,1,223.22,295.29Zm6.12-.33a1.38,1.38,0,0,1-.48.26,2.47,2.47,0,0,1-.6.08,1.63,1.63,0,0,1-1.16-.4,1.57,1.57,0,0,1-.41-1.15V291h-.84v-.74h.84v-1.08h.89v1.08H229V291H227.6v2.68a.86.86,0,0,0,.2.62.74.74,0,0,0,.57.21,1.08,1.08,0,0,0,.71-.23Zm1.2-4.66h.89v4.95h-.9Zm.45-.95a.62.62,0,0,1-.44-.17.57.57,0,0,1-.17-.41.55.55,0,0,1,.17-.41.6.6,0,0,1,.44-.18.6.6,0,0,1,.43.17.5.5,0,0,1,.18.4.58.58,0,0,1-.18.43A.6.6,0,0,1,231,289.35Zm4.36,6A2.64,2.64,0,0,1,234,295a2.44,2.44,0,0,1-.93-.9,2.7,2.7,0,0,1-.32-1.31,2.54,2.54,0,0,1,.33-1.3,2.28,2.28,0,0,1,.93-.89,2.64,2.64,0,0,1,1.32-.33,2.83,2.83,0,0,1,1.32.33,2.32,2.32,0,0,1,.91.9,2.47,2.47,0,0,1,.34,1.3,2.71,2.71,0,0,1-.34,1.31,2.32,2.32,0,0,1-.92.89A2.64,2.64,0,0,1,235.35,295.32Zm0-.79a1.7,1.7,0,0,0,.85-.21,1.49,1.49,0,0,0,.6-.62,1.8,1.8,0,0,0,.22-.91,1.94,1.94,0,0,0-.21-.91,1.53,1.53,0,0,0-.6-.61,1.61,1.61,0,0,0-.85-.22,1.77,1.77,0,0,0-.86.21,1.56,1.56,0,0,0-.6.62,2.08,2.08,0,0,0,0,1.82,1.76,1.76,0,0,0,.59.62A1.79,1.79,0,0,0,235.35,294.53Zm6.56-4.25a2.06,2.06,0,0,1,1.5.55,2.16,2.16,0,0,1,.55,1.6v2.85h-.9v-2.75a1.51,1.51,0,0,0-.35-1.08,1.31,1.31,0,0,0-1-.37,1.53,1.53,0,0,0-1.15.43,1.63,1.63,0,0,0-.42,1.21v2.55h-.89v-4.95h.86v.75a1.71,1.71,0,0,1,.73-.59A2.69,2.69,0,0,1,241.91,290.28Z" transform="translate(-80.46 -287.76)"/><path d="M332.16,295.23a4.6,4.6,0,0,1-1.43-.23,2.8,2.8,0,0,1-1.07-.6l.34-.72a3.21,3.21,0,0,0,.95.55,3.88,3.88,0,0,0,1.21.2,2.17,2.17,0,0,0,1.21-.27.85.85,0,0,0,.41-.74.71.71,0,0,0-.23-.54,1.32,1.32,0,0,0-.54-.32,8.86,8.86,0,0,0-.91-.26,9.46,9.46,0,0,1-1.19-.35,2.11,2.11,0,0,1-.78-.54,1.51,1.51,0,0,1-.31-1,1.73,1.73,0,0,1,.27-1,1.86,1.86,0,0,1,.84-.67,3.32,3.32,0,0,1,1.39-.25,4.46,4.46,0,0,1,1.14.15,3,3,0,0,1,1,.43l-.31.75a3.05,3.05,0,0,0-.88-.4,3.25,3.25,0,0,0-.91-.14,2.08,2.08,0,0,0-1.2.29.9.9,0,0,0-.39.75.76.76,0,0,0,.22.55,1.63,1.63,0,0,0,.56.33q.33.11.9.24a9.26,9.26,0,0,1,1.19.36,1.77,1.77,0,0,1,.76.54,1.4,1.4,0,0,1,.33,1,1.67,1.67,0,0,1-.28.94,1.88,1.88,0,0,1-.85.67A3.44,3.44,0,0,1,332.16,295.23Zm6.65-.37a1.43,1.43,0,0,1-.49.26,2,2,0,0,1-.6.09,1.63,1.63,0,0,1-1.16-.4,1.55,1.55,0,0,1-.41-1.15v-2.72h-.84v-.74h.84v-1.08h.9v1.08h1.42v.74h-1.42v2.68a.91.91,0,0,0,.2.62.76.76,0,0,0,.58.21,1.13,1.13,0,0,0,.7-.23Zm3.13.35a2.64,2.64,0,0,1-1.32-.33,2.44,2.44,0,0,1-.93-.9,2.8,2.8,0,0,1,0-2.6,2.3,2.3,0,0,1,.93-.9,2.64,2.64,0,0,1,1.32-.33,2.61,2.61,0,0,1,1.32.33,2.28,2.28,0,0,1,.92.9,2.54,2.54,0,0,1,.33,1.3,2.56,2.56,0,0,1-.33,1.3,2.41,2.41,0,0,1-.92.9A2.61,2.61,0,0,1,341.94,295.21Zm0-.79a1.7,1.7,0,0,0,.85-.21,1.56,1.56,0,0,0,.6-.62,1.94,1.94,0,0,0,.22-.91,1.88,1.88,0,0,0-.22-.91,1.49,1.49,0,0,0-.6-.62,1.7,1.7,0,0,0-.85-.21,1.79,1.79,0,0,0-.86.21,1.68,1.68,0,0,0-.59.62,1.78,1.78,0,0,0-.22.91,1.83,1.83,0,0,0,.22.91,1.76,1.76,0,0,0,.59.62A1.79,1.79,0,0,0,341.94,294.42Zm4.77-3.39a1.55,1.55,0,0,1,.69-.65,2.53,2.53,0,0,1,1.11-.23V291h-.2a1.52,1.52,0,0,0-1.15.44,1.7,1.7,0,0,0-.41,1.24v2.46h-.9V290.2h.86Zm4.8-.88a2.21,2.21,0,0,1,1.57.51,2,2,0,0,1,.55,1.5v3h-.85v-.65a1.43,1.43,0,0,1-.65.53,2.42,2.42,0,0,1-1,.18,2.11,2.11,0,0,1-1.33-.4,1.38,1.38,0,0,1,0-2.11,2.37,2.37,0,0,1,1.51-.4h1.42v-.17a1.15,1.15,0,0,0-.33-.89,1.43,1.43,0,0,0-1-.31,2.5,2.5,0,0,0-.85.15,2.09,2.09,0,0,0-.71.38l-.38-.67a2.67,2.67,0,0,1,.92-.47A3.77,3.77,0,0,1,351.51,290.15Zm-.21,4.37a1.71,1.71,0,0,0,.89-.23,1.28,1.28,0,0,0,.54-.65V293h-1.38c-.76,0-1.14.25-1.14.76a.7.7,0,0,0,.29.59A1.27,1.27,0,0,0,351.3,294.52Zm8.85-4.32v4.28a2.52,2.52,0,0,1-.65,1.91,2.64,2.64,0,0,1-1.92.63,4.57,4.57,0,0,1-1.34-.2,2.48,2.48,0,0,1-1-.54l.43-.69a2.4,2.4,0,0,0,.85.47,3.13,3.13,0,0,0,1.05.18,1.72,1.72,0,0,0,1.28-.42,1.67,1.67,0,0,0,.42-1.25v-.39a2,2,0,0,1-.78.58,2.84,2.84,0,0,1-2.29-.11,2.37,2.37,0,0,1-.9-.85,2.41,2.41,0,0,1-.33-1.25,2.36,2.36,0,0,1,.33-1.25,2.3,2.3,0,0,1,.9-.85,2.73,2.73,0,0,1,1.29-.3,2.5,2.5,0,0,1,1,.21,2,2,0,0,1,.8.61v-.77Zm-2.58,4a1.92,1.92,0,0,0,.87-.2,1.53,1.53,0,0,0,.83-1.41,1.49,1.49,0,0,0-.48-1.16,1.69,1.69,0,0,0-1.22-.45,1.71,1.71,0,0,0-1.23.45,1.49,1.49,0,0,0-.48,1.16,1.6,1.6,0,0,0,.22.84,1.57,1.57,0,0,0,.6.57A2,2,0,0,0,357.57,294.16Zm8.86-1.46a1.58,1.58,0,0,1,0,.28h-4a1.54,1.54,0,0,0,.57,1,1.92,1.92,0,0,0,1.22.39,1.86,1.86,0,0,0,1.43-.59l.5.57a2.06,2.06,0,0,1-.85.6,2.82,2.82,0,0,1-1.11.21,3,3,0,0,1-1.39-.32,2.35,2.35,0,0,1-.94-.91,2.56,2.56,0,0,1-.33-1.3,2.66,2.66,0,0,1,.32-1.3,2.27,2.27,0,0,1,.89-.9,2.49,2.49,0,0,1,1.28-.33,2.42,2.42,0,0,1,1.26.33,2.22,2.22,0,0,1,.87.9A2.71,2.71,0,0,1,366.43,292.7ZM364,290.91a1.6,1.6,0,0,0-1.09.39,1.65,1.65,0,0,0-.5,1h3.17a1.57,1.57,0,0,0-.51-1A1.54,1.54,0,0,0,364,290.91Zm15.76-2.3-2.19,6.54h-1l-1.78-5.22L373,295.15h-1l-2.19-6.54h1l1.77,5.32,1.84-5.32h.86l1.8,5.35,1.8-5.35Zm1.12,1.59h.89v4.95h-.89Zm.45-.95a.62.62,0,0,1-.44-.17.58.58,0,0,1,0-.82.59.59,0,0,1,.44-.18.61.61,0,0,1,.43.17.54.54,0,0,1,.17.4.58.58,0,0,1-.6.6Zm5,5.61a1.34,1.34,0,0,1-.49.26,2,2,0,0,1-.6.09,1.61,1.61,0,0,1-1.15-.4,1.51,1.51,0,0,1-.41-1.15v-2.72h-.85v-.74h.85v-1.08h.89v1.08H386v.74H384.6v2.68a.91.91,0,0,0,.2.62.78.78,0,0,0,.58.21,1.13,1.13,0,0,0,.7-.23Zm3.82-4.71a2,2,0,0,1,1.5.56,2.12,2.12,0,0,1,.56,1.59v2.85h-.9v-2.74a1.55,1.55,0,0,0-.34-1.09,1.31,1.31,0,0,0-1-.36,1.52,1.52,0,0,0-1.15.43,1.63,1.63,0,0,0-.42,1.21v2.55h-.9v-6.93h.9v2.68a1.9,1.9,0,0,1,.72-.55A2.61,2.61,0,0,1,390.18,290.15Zm8.51-1.93v6.93h-.86v-.78a2,2,0,0,1-.75.62,2.29,2.29,0,0,1-1,.22,2.62,2.62,0,0,1-1.29-.32,2.33,2.33,0,0,1-.9-.89,2.71,2.71,0,0,1-.32-1.32,2.69,2.69,0,0,1,.32-1.32,2.33,2.33,0,0,1,.9-.89,2.62,2.62,0,0,1,1.29-.32,2.3,2.3,0,0,1,1,.21,1.88,1.88,0,0,1,.75.59v-2.73Zm-2.55,6.2a1.73,1.73,0,0,0,.85-.21,1.56,1.56,0,0,0,.6-.62,1.94,1.94,0,0,0,.21-.91,1.88,1.88,0,0,0-.21-.91,1.49,1.49,0,0,0-.6-.62,1.73,1.73,0,0,0-.85-.21,1.77,1.77,0,0,0-.86.21,1.53,1.53,0,0,0-.59.62,1.78,1.78,0,0,0-.22.91,1.83,1.83,0,0,0,.22.91,1.6,1.6,0,0,0,.59.62A1.77,1.77,0,0,0,396.14,294.42Zm5.21-3.39a1.5,1.5,0,0,1,.69-.65,2.46,2.46,0,0,1,1.11-.23V291h-.21a1.54,1.54,0,0,0-1.15.44,1.75,1.75,0,0,0-.41,1.24v2.46h-.89V290.2h.86Zm4.79-.88a2.2,2.2,0,0,1,1.57.51,1.94,1.94,0,0,1,.56,1.5v3h-.86v-.65a1.35,1.35,0,0,1-.64.53,2.42,2.42,0,0,1-1,.18,2.16,2.16,0,0,1-1.34-.4,1.3,1.3,0,0,1-.49-1.06,1.31,1.31,0,0,1,.48-1.05,2.35,2.35,0,0,1,1.51-.4h1.42v-.17a1.12,1.12,0,0,0-.34-.89,1.38,1.38,0,0,0-1-.31,2.55,2.55,0,0,0-.86.15,2.19,2.19,0,0,0-.71.38l-.37-.67a2.62,2.62,0,0,1,.91-.47A3.86,3.86,0,0,1,406.14,290.15Zm-.2,4.37a1.71,1.71,0,0,0,.89-.23,1.28,1.28,0,0,0,.54-.65V293H406c-.76,0-1.14.25-1.14.76a.67.67,0,0,0,.29.59A1.27,1.27,0,0,0,405.94,294.52Zm11.48-4.32-1.85,4.95h-.86l-1.43-3.75-1.44,3.75H411l-1.84-4.95H410l1.43,3.94,1.5-3.94h.76l1.46,4,1.48-4Zm2.66-.05a2.23,2.23,0,0,1,1.57.51,2,2,0,0,1,.55,1.5v3h-.85v-.65a1.43,1.43,0,0,1-.65.53,2.42,2.42,0,0,1-1,.18,2.11,2.11,0,0,1-1.33-.4,1.38,1.38,0,0,1,0-2.11,2.37,2.37,0,0,1,1.51-.4h1.42v-.17a1.12,1.12,0,0,0-.34-.89,1.38,1.38,0,0,0-1-.31,2.55,2.55,0,0,0-.86.15,2.19,2.19,0,0,0-.71.38l-.37-.67a2.67,2.67,0,0,1,.92-.47A3.77,3.77,0,0,1,420.08,290.15Zm-.21,4.37a1.71,1.71,0,0,0,.89-.23,1.28,1.28,0,0,0,.54-.65V293h-1.38c-.76,0-1.14.25-1.14.76a.67.67,0,0,0,.29.59A1.27,1.27,0,0,0,419.87,294.52Zm4.08-6.3h.9v6.93H424Zm4.13,7a4.18,4.18,0,0,1-1.17-.16,2.67,2.67,0,0,1-.88-.42l.38-.71a2.75,2.75,0,0,0,.79.37,3.08,3.08,0,0,0,.95.14c.78,0,1.17-.22,1.17-.67a.41.41,0,0,0-.16-.35.93.93,0,0,0-.4-.19,5.34,5.34,0,0,0-.67-.14,6.36,6.36,0,0,1-1-.22,1.44,1.44,0,0,1-.65-.41,1.13,1.13,0,0,1-.27-.81,1.25,1.25,0,0,1,.56-1.07,2.48,2.48,0,0,1,1.51-.42,4.2,4.2,0,0,1,1,.13,2.79,2.79,0,0,1,.81.32l-.38.71a2.6,2.6,0,0,0-1.43-.39,1.61,1.61,0,0,0-.87.19.56.56,0,0,0-.3.49.51.51,0,0,0,.17.39,1,1,0,0,0,.41.2l.7.15a7,7,0,0,1,1,.22,1.48,1.48,0,0,1,.64.4,1.11,1.11,0,0,1,.26.78,1.25,1.25,0,0,1-.58,1.08A2.73,2.73,0,0,1,428.08,295.21Z" transform="translate(-80.46 -287.76)"/><path d="M267.72,288.61h.94v6.54h-.94Zm9,1.54a2,2,0,0,1,1.48.55,2.13,2.13,0,0,1,.55,1.6v2.85h-.9v-2.74a1.6,1.6,0,0,0-.33-1.09,1.23,1.23,0,0,0-.95-.36,1.4,1.4,0,0,0-1.08.43,1.67,1.67,0,0,0-.4,1.21v2.55h-.9v-2.74a1.6,1.6,0,0,0-.33-1.09,1.23,1.23,0,0,0-1-.36,1.4,1.4,0,0,0-1.08.43,1.67,1.67,0,0,0-.4,1.21v2.55h-.9V290.2h.86v.74a1.68,1.68,0,0,1,.71-.58,2.29,2.29,0,0,1,1-.21,2.15,2.15,0,0,1,1,.24,1.56,1.56,0,0,1,.69.68,1.8,1.8,0,0,1,.77-.67A2.64,2.64,0,0,1,276.77,290.15Zm6.4,0a2.62,2.62,0,0,1,1.29.32,2.24,2.24,0,0,1,.89.89,2.59,2.59,0,0,1,.33,1.32,2.61,2.61,0,0,1-.33,1.32,2.24,2.24,0,0,1-.89.89,2.62,2.62,0,0,1-1.29.32,2.3,2.3,0,0,1-1-.21,2,2,0,0,1-.75-.6V297h-.89V290.2h.86V291a1.87,1.87,0,0,1,.75-.62A2.41,2.41,0,0,1,283.17,290.15Zm-.07,4.27a1.57,1.57,0,0,0,1.45-.83,1.94,1.94,0,0,0,.22-.91,1.88,1.88,0,0,0-.22-.91,1.63,1.63,0,0,0-.6-.62,1.7,1.7,0,0,0-.85-.21,1.63,1.63,0,0,0-.85.22,1.67,1.67,0,0,0-.6.61,1.88,1.88,0,0,0-.22.91,1.94,1.94,0,0,0,.22.91,1.56,1.56,0,0,0,.6.62A1.73,1.73,0,0,0,283.1,294.42Zm6,.79a2.64,2.64,0,0,1-1.32-.33,2.44,2.44,0,0,1-.93-.9,2.56,2.56,0,0,1-.33-1.3,2.54,2.54,0,0,1,.33-1.3,2.3,2.3,0,0,1,.93-.9,2.8,2.8,0,0,1,2.64,0,2.19,2.19,0,0,1,.91.9,2.45,2.45,0,0,1,.34,1.3,2.47,2.47,0,0,1-.34,1.3,2.32,2.32,0,0,1-.91.9A2.64,2.64,0,0,1,289.13,295.21Zm0-.79a1.7,1.7,0,0,0,.85-.21,1.56,1.56,0,0,0,.6-.62,1.94,1.94,0,0,0,.22-.91,1.88,1.88,0,0,0-.22-.91,1.49,1.49,0,0,0-.6-.62,1.7,1.7,0,0,0-.85-.21,1.77,1.77,0,0,0-.86.21,1.53,1.53,0,0,0-.59.62,1.78,1.78,0,0,0-.22.91,1.83,1.83,0,0,0,.22.91,1.6,1.6,0,0,0,.59.62A1.77,1.77,0,0,0,289.13,294.42ZM293.9,291a1.5,1.5,0,0,1,.69-.65,2.46,2.46,0,0,1,1.11-.23V291h-.2a1.52,1.52,0,0,0-1.15.44,1.7,1.7,0,0,0-.41,1.24v2.46H293V290.2h.86Zm6,3.83a1.43,1.43,0,0,1-.49.26,2,2,0,0,1-.6.09,1.61,1.61,0,0,1-1.15-.4,1.52,1.52,0,0,1-.42-1.15v-2.72h-.84v-.74h.84v-1.08h.9v1.08h1.42v.74h-1.42v2.68a.91.91,0,0,0,.2.62.76.76,0,0,0,.58.21,1.13,1.13,0,0,0,.7-.23Zm2.6.35a4.08,4.08,0,0,1-1.17-.16,2.58,2.58,0,0,1-.88-.42l.38-.71a2.63,2.63,0,0,0,.79.37,3.06,3.06,0,0,0,.94.14c.79,0,1.18-.22,1.18-.67a.41.41,0,0,0-.16-.35.93.93,0,0,0-.4-.19,5.76,5.76,0,0,0-.67-.14,6.36,6.36,0,0,1-1-.22,1.44,1.44,0,0,1-.65-.41,1.13,1.13,0,0,1-.27-.81,1.25,1.25,0,0,1,.56-1.07,2.48,2.48,0,0,1,1.51-.42,4.2,4.2,0,0,1,1,.13,2.79,2.79,0,0,1,.81.32l-.38.71a2.62,2.62,0,0,0-1.43-.39,1.61,1.61,0,0,0-.87.19.56.56,0,0,0-.3.49.51.51,0,0,0,.17.39,1,1,0,0,0,.41.2l.7.15a7,7,0,0,1,1,.22,1.48,1.48,0,0,1,.64.4,1.11,1.11,0,0,1,.26.78,1.27,1.27,0,0,1-.58,1.08A2.73,2.73,0,0,1,302.49,295.21Z" transform="translate(-80.46 -287.76)"/><rect class="cls-11" x="96.71" y="0.09" width="8.41" height="8.41"/><rect class="cls-12" x="172.81" width="8.41" height="8.41"/><rect class="cls-13" x="235.09" width="8.41" height="8.41"/></svg>