<svg xmlns="http://www.w3.org/2000/svg" viewBox="0 0 296.1 263.48"><defs><style>.cls-1{fill:#ee962b;}.cls-2{font-size:9px;}.cls-18,.cls-19,.cls-2,.cls-27,.cls-28,.cls-29{fill:#fff;}.cls-16,.cls-2,.cls-27{font-family:MyriadPro-Regular, Myriad Pro;}.cls-3{letter-spacing:-0.02em;}.cls-4{letter-spacing:-0.01em;}.cls-5{letter-spacing:0.01em;}.cls-6{fill:#fcc289;}.cls-7{letter-spacing:0.01em;}.cls-8{letter-spacing:0.02em;}.cls-9{fill:#f8e1cd;}.cls-10{letter-spacing:0em;}.cls-11{letter-spacing:-0.01em;}.cls-12{letter-spacing:-0.01em;}.cls-13{letter-spacing:0em;}.cls-14{letter-spacing:-0.01em;}.cls-15{letter-spacing:0em;}.cls-16,.cls-18,.cls-19,.cls-27{font-size:10px;}.cls-16,.cls-21{fill:#231f20;}.cls-17{fill:#ec7f77;}.cls-18,.cls-32{font-family:TimesNewRomanPSMT, Times New Roman;}.cls-19,.cls-29{font-family:TimesNewRomanPS-BoldMT, Times New Roman;font-weight:700;}.cls-20{letter-spacing:-0.07em;}.cls-21,.cls-22,.cls-23,.cls-24,.cls-25,.cls-26{stroke:#fff;stroke-miterlimit:10;}.cls-22,.cls-23,.cls-24,.cls-25,.cls-26{fill:none;stroke-width:0.75px;}.cls-23{stroke-dasharray:3.03 3.03;}.cls-24{stroke-dasharray:3.28 3.28;}.cls-25{stroke-dasharray:2.77 2.77;}.cls-26{stroke-dasharray:3.11 3.11;}.cls-29{font-size:11px;letter-spacing:-0.09em;}.cls-30{letter-spacing:-0.06em;}.cls-31,.cls-32{letter-spacing:0em;}.cls-32{font-weight:400;}</style></defs><g id="Layer_2" data-name="Layer 2"><g id="Layer_1-2" data-name="Layer 1"><rect class="cls-1" x="0.13" y="28.01" width="10.17" height="10.17"/><text class="cls-2" transform="translate(13.6 37.68)"><tspan class="cls-3">P</tspan><tspan class="cls-4" x="4.64" y="0">r</tspan><tspan x="7.5" y="0">odu</tspan><tspan class="cls-5" x="22.47" y="0">c</tspan><tspan x="26.62" y="0">tion</tspan></text><rect class="cls-6" x="77.25" y="28.01" width="10.17" height="10.17"/><text class="cls-2" transform="translate(89.25 37.68)"><tspan class="cls-7">I</tspan><tspan x="2.24" y="0">mpo</tspan><tspan class="cls-8" x="19.81" y="0">r</tspan><tspan x="22.97" y="0">ts</tspan></text><rect class="cls-9" x="139.54" y="28.01" width="10.17" height="10.17"/><text class="cls-2" transform="translate(152.75 37.68)"><tspan class="cls-10">S</tspan><tspan class="cls-11" x="4.41" y="0">t</tspan><tspan x="7.33" y="0">o</tspan><tspan class="cls-12" x="12.28" y="0">r</tspan><tspan x="15.17" y="0">age withd</tspan><tspan class="cls-13" x="52.74" y="0">r</tspan><tspan class="cls-14" x="55.64" y="0">a</tspan><tspan class="cls-15" x="59.9" y="0">w</tspan><tspan x="66.49" y="0">als</tspan></text><rect class="cls-1" x="225.54" y="24.51" width="18.77" height="91.91" transform="translate(305.38 -164.46) rotate(90)"/><rect class="cls-6" x="166.65" y="57.66" width="18.77" height="25.61" transform="translate(246.5 -105.57) rotate(90)"/><rect class="cls-9" x="117.91" y="34.71" width="18.77" height="71.52" transform="translate(197.75 -56.82) rotate(90)"/><text class="cls-16" transform="translate(122.37 74.59)">17</text><text class="cls-16" transform="translate(172.88 74.59)">6</text><text class="cls-16" transform="translate(228.07 74.59)">22</text><rect class="cls-1" x="252.54" y="93.48" width="18.77" height="37.92" transform="translate(374.36 -149.48) rotate(90)"/><text class="cls-16" transform="translate(259.18 116.15)">9</text><rect class="cls-6" x="225.57" y="146.08" width="18.77" height="16.66" transform="translate(389.36 -80.54) rotate(90)"/><text class="cls-16" transform="translate(232.37 158.47)">4</text><rect class="cls-9" x="191.31" y="170.65" width="18.77" height="51.48" transform="translate(397.07 -4.3) rotate(90)"/><text class="cls-16" transform="translate(194.9 200.42)">12</text><rect class="cls-17" x="123.71" y="196.34" width="18.77" height="84.04" transform="translate(371.45 105.27) rotate(90)"/><text class="cls-16" transform="translate(126.73 241.59)">19</text><text class="cls-18" transform="translate(0.13 67.44)">Normal gas supply <tspan x="0" y="12">as of Feb 7</tspan></text><text class="cls-19" transform="translate(0.13 237.37)"><tspan class="cls-20">A</tspan><tspan x="6.48" y="0">vailable gas supply </tspan><tspan x="0" y="12">as of Feb 15</tspan></text><line class="cls-21" x1="90.81" y1="47.99" x2="90.81" y2="263.48"/><line class="cls-22" x1="280.77" y1="48.19" x2="280.77" y2="49.69"/><line class="cls-23" x1="280.77" y1="52.72" x2="280.77" y2="245.09"/><line class="cls-22" x1="280.77" y1="246.6" x2="280.77" y2="248.1"/><line class="cls-22" x1="243.26" y1="119.99" x2="243.26" y2="121.49"/><line class="cls-24" x1="243.26" y1="124.77" x2="243.26" y2="142.81"/><line class="cls-22" x1="243.26" y1="144.45" x2="243.26" y2="145.95"/><line class="cls-22" x1="226.41" y1="163.95" x2="226.41" y2="165.45"/><line class="cls-25" x1="226.41" y1="168.23" x2="226.41" y2="183.49"/><line class="cls-22" x1="226.41" y1="184.87" x2="226.41" y2="186.37"/><line class="cls-22" x1="175.06" y1="204.25" x2="175.06" y2="205.75"/><line class="cls-26" x1="175.06" y1="208.85" x2="175.06" y2="225.93"/><line class="cls-22" x1="175.06" y1="227.49" x2="175.06" y2="228.99"/><text class="cls-27" transform="translate(218.05 249.66)">-56%</text><line class="cls-22" x1="177.31" y1="239.32" x2="281.03" y2="239.32"/><polygon class="cls-28" points="181.04 243.92 181.81 243.09 177.74 239.32 181.81 235.54 181.04 234.72 176.09 239.32 181.04 243.92"/><text class="cls-27" transform="translate(285.84 73.55)">45</text><text class="cls-29" transform="translate(0.13 9.14)">T<tspan class="cls-10" x="6.29" y="0">exas gas suppl</tspan><tspan class="cls-30" x="72.47" y="0">y</tspan><tspan class="cls-31" x="77.33" y="0">, </tspan><tspan class="cls-32" x="82.76" y="0">billion cubic feet per day (bcfd)</tspan></text></g></g></svg>