<svg xmlns="http://www.w3.org/2000/svg" viewBox="0 0 308.11 263.48"><defs><style>.cls-1{fill:#ee962b;}.cls-2{font-size:9px;}.cls-17,.cls-18,.cls-19,.cls-2,.cls-20,.cls-21,.cls-22,.cls-30,.cls-31,.cls-32{fill:#fff;}.cls-16,.cls-2,.cls-30{font-family:MyriadPro-Regular, Myriad Pro;}.cls-3{letter-spacing:-0.02em;}.cls-4{letter-spacing:-0.01em;}.cls-5{letter-spacing:0.01em;}.cls-6{fill:#fcc289;}.cls-7{letter-spacing:0.01em;}.cls-8{letter-spacing:0.02em;}.cls-9{fill:#f8e1cd;}.cls-10{letter-spacing:0em;}.cls-11{letter-spacing:-0.01em;}.cls-12{letter-spacing:-0.01em;}.cls-13{letter-spacing:0em;}.cls-14{letter-spacing:-0.01em;}.cls-15{letter-spacing:0em;}.cls-16,.cls-21,.cls-22,.cls-30{font-size:10px;}.cls-16,.cls-24{fill:#231f20;}.cls-17{opacity:0.8;}.cls-18{opacity:0.6;}.cls-19{opacity:0.4;}.cls-20{stroke:#231f20;stroke-width:0.5px;opacity:0.85;}.cls-20,.cls-24,.cls-25,.cls-26,.cls-27,.cls-28,.cls-29{stroke-miterlimit:10;}.cls-21,.cls-32{font-family:TimesNewRomanPS-BoldMT, Times New Roman;font-weight:700;}.cls-22,.cls-35{font-family:TimesNewRomanPSMT, Times New Roman;}.cls-23{letter-spacing:-0.07em;}.cls-24,.cls-25,.cls-26,.cls-27,.cls-28,.cls-29{stroke:#fff;}.cls-25,.cls-26,.cls-27,.cls-28,.cls-29{fill:none;stroke-width:0.75px;}.cls-26{stroke-dasharray:3.03 3.03;}.cls-27{stroke-dasharray:3.28 3.28;}.cls-28{stroke-dasharray:2.77 2.77;}.cls-29{stroke-dasharray:3.11 3.11;}.cls-32{font-size:11px;letter-spacing:-0.09em;}.cls-33{letter-spacing:-0.06em;}.cls-34,.cls-35{letter-spacing:0em;}.cls-35{font-weight:400;}</style></defs><g id="Layer_2" data-name="Layer 2"><g id="Layer_1-2" data-name="Layer 1"><rect class="cls-1" x="12.14" y="27.62" width="10.17" height="10.17"/><text class="cls-2" transform="translate(25.61 37.29)"><tspan class="cls-3">P</tspan><tspan class="cls-4" x="4.64" y="0">r</tspan><tspan x="7.5" y="0">odu</tspan><tspan class="cls-5" x="22.47" y="0">c</tspan><tspan x="26.62" y="0">tion</tspan></text><rect class="cls-6" x="89.26" y="27.62" width="10.17" height="10.17"/><text class="cls-2" transform="translate(101.26 37.29)"><tspan class="cls-7">I</tspan><tspan x="2.24" y="0">mpo</tspan><tspan class="cls-8" x="19.81" y="0">r</tspan><tspan x="22.97" y="0">ts</tspan></text><rect class="cls-9" x="151.54" y="27.62" width="10.17" height="10.17"/><text class="cls-2" transform="translate(164.75 37.29)"><tspan class="cls-10">S</tspan><tspan class="cls-11" x="4.41" y="0">t</tspan><tspan x="7.33" y="0">o</tspan><tspan class="cls-12" x="12.28" y="0">r</tspan><tspan x="15.17" y="0">age withd</tspan><tspan class="cls-13" x="52.74" y="0">r</tspan><tspan class="cls-14" x="55.64" y="0">a</tspan><tspan class="cls-15" x="59.9" y="0">w</tspan><tspan x="66.49" y="0">als</tspan></text><rect class="cls-1" x="237.54" y="24.51" width="18.77" height="91.91" transform="translate(317.39 -176.46) rotate(90)"/><rect class="cls-6" x="178.65" y="57.66" width="18.77" height="25.61" transform="translate(258.5 -117.57) rotate(90)"/><rect class="cls-9" x="129.91" y="34.71" width="18.77" height="71.52" transform="translate(209.76 -68.83) rotate(90)"/><text class="cls-16" transform="translate(134.37 74.59)">17</text><text class="cls-16" transform="translate(184.88 74.59)">6</text><text class="cls-16" transform="translate(240.07 74.59)">22</text><rect class="cls-17" x="264.54" y="93.48" width="18.77" height="37.92" transform="translate(386.36 -161.49) rotate(90)"/><text class="cls-16" transform="translate(271.18 116.15)">9</text><rect class="cls-18" x="237.57" y="146.08" width="18.77" height="16.66" transform="translate(401.37 -92.54) rotate(90)"/><text class="cls-16" transform="translate(244.37 158.47)">4</text><rect class="cls-19" x="203.31" y="170.65" width="18.77" height="51.48" transform="translate(409.08 -16.31) rotate(90)"/><text class="cls-16" transform="translate(206.9 200.42)">12</text><rect class="cls-20" x="135.71" y="196.34" width="18.77" height="84.04" transform="translate(383.45 93.26) rotate(90)"/><text class="cls-16" transform="translate(138.73 241.59)">19</text><text class="cls-21" transform="translate(12.14 67.12)">Normal gas supply <tspan x="0" y="12">as of Feb 7</tspan></text><text class="cls-22" transform="translate(12.14 237.69)"><tspan class="cls-23">A</tspan><tspan x="6.48" y="0">vailable gas supply </tspan><tspan x="0" y="12">as of Feb 15</tspan></text><line class="cls-24" x1="102.82" y1="47.99" x2="102.82" y2="263.48"/><line class="cls-25" x1="292.78" y1="48.19" x2="292.78" y2="49.69"/><line class="cls-26" x1="292.78" y1="52.72" x2="292.78" y2="245.09"/><line class="cls-25" x1="292.78" y1="246.6" x2="292.78" y2="248.1"/><line class="cls-25" x1="255.27" y1="119.99" x2="255.27" y2="121.49"/><line class="cls-27" x1="255.27" y1="124.77" x2="255.27" y2="142.81"/><line class="cls-25" x1="255.27" y1="144.45" x2="255.27" y2="145.95"/><line class="cls-25" x1="238.41" y1="163.95" x2="238.41" y2="165.45"/><line class="cls-28" x1="238.41" y1="168.23" x2="238.41" y2="183.49"/><line class="cls-25" x1="238.41" y1="184.88" x2="238.41" y2="186.38"/><line class="cls-25" x1="187.06" y1="204.25" x2="187.06" y2="205.75"/><line class="cls-29" x1="187.06" y1="208.85" x2="187.06" y2="225.93"/><line class="cls-25" x1="187.06" y1="227.49" x2="187.06" y2="228.99"/><text class="cls-30" transform="translate(230.05 249.66)">-56%</text><line class="cls-25" x1="189.32" y1="239.32" x2="293.03" y2="239.32"/><polygon class="cls-31" points="193.04 243.92 193.81 243.09 189.75 239.32 193.81 235.54 193.04 234.72 188.09 239.32 193.04 243.92"/><text class="cls-30" transform="translate(297.85 73.55)">45</text><polygon class="cls-1" points="7.45 63.93 0 59.63 0 68.23 7.45 63.93"/><text class="cls-32" transform="translate(12.14 9.14)">T<tspan class="cls-10" x="6.29" y="0">exas gas suppl</tspan><tspan class="cls-33" x="72.47" y="0">y</tspan><tspan class="cls-34" x="77.33" y="0">, </tspan><tspan class="cls-35" x="82.76" y="0">billion cubic feet per day (bcfd)</tspan></text></g></g></svg>