<svg xmlns="http://www.w3.org/2000/svg" viewBox="0 0 239.62 302.9"><defs><style>.cls-1{fill:#6dceeb;}.cls-2,.cls-4,.cls-6,.cls-8{font-size:10px;}.cls-16,.cls-2,.cls-26,.cls-6,.cls-8{fill:#fff;}.cls-16,.cls-2,.cls-4{font-family:MyriadPro-Regular, Myriad Pro;}.cls-3{fill:#d4ebdf;}.cls-4,.cls-5{fill:#231f20;}.cls-10,.cls-11,.cls-12,.cls-13,.cls-14,.cls-15,.cls-25,.cls-5{stroke:#fff;stroke-miterlimit:10;}.cls-5{stroke-linecap:round;}.cls-28,.cls-6{font-family:TimesNewRomanPSMT, Times New Roman;}.cls-7{letter-spacing:-0.06em;}.cls-26,.cls-8{font-family:TimesNewRomanPS-BoldMT, Times New Roman;font-weight:700;}.cls-9{letter-spacing:-0.09em;}.cls-10,.cls-11,.cls-12,.cls-13,.cls-14,.cls-15,.cls-25{fill:none;}.cls-10,.cls-11,.cls-12,.cls-13,.cls-14,.cls-15{stroke-width:0.75px;}.cls-11{stroke-dasharray:2.98 2.98;}.cls-12{stroke-dasharray:2.94 2.94;}.cls-13{stroke-dasharray:2.92 2.92;}.cls-14{stroke-dasharray:2.89 2.89;}.cls-15{stroke-dasharray:2.9 2.9;}.cls-16{font-size:9px;}.cls-17{letter-spacing:0em;}.cls-18{letter-spacing:-0.01em;}.cls-19{letter-spacing:-0.01em;}.cls-20{letter-spacing:-0.02em;}.cls-21{letter-spacing:0em;}.cls-22{letter-spacing:0em;}.cls-23{letter-spacing:0.02em;}.cls-24{letter-spacing:-0.01em;}.cls-25{stroke-dasharray:3;}.cls-26{font-size:11px;letter-spacing:-0.09em;}.cls-27{letter-spacing:0em;}.cls-28{font-weight:400;letter-spacing:0em;}</style></defs><g id="Layer_2" data-name="Layer 2"><g id="Layer_1-2" data-name="Layer 1"><rect class="cls-1" x="86.27" y="70.48" width="18.77" height="4.12" transform="translate(168.19 -23.1) rotate(90)"/><text class="cls-2" transform="translate(100.31 75.24)">1</text><rect class="cls-1" x="94.39" y="107.96" width="18.77" height="12.72" transform="translate(218.1 10.54) rotate(90)"/><rect class="cls-3" x="103.3" y="111.82" width="18.77" height="5" transform="translate(227 1.64) rotate(90)"/><text class="cls-4" transform="translate(101.01 117.83)">3</text><text class="cls-2" transform="translate(116.46 117.83)">1</text><rect class="cls-1" x="126.27" y="193.28" width="18.77" height="9.19" transform="translate(333.52 62.22) rotate(90)"/><rect class="cls-3" x="134.99" y="193.78" width="18.77" height="8.18" transform="translate(342.24 53.5) rotate(90)"/><text class="cls-4" transform="translate(132.61 202.13)">2</text><text class="cls-4" transform="translate(141.54 202.13)">2</text><rect class="cls-1" x="143.1" y="226.77" width="18.77" height="25.75" transform="translate(392.13 87.16) rotate(90)"/><rect class="cls-3" x="164.44" y="231.17" width="18.77" height="16.97" transform="translate(413.48 65.83) rotate(90)"/><text class="cls-4" transform="translate(149.71 243.36)">6</text><text class="cls-4" transform="translate(171.16 243.36)">4</text><rect class="cls-3" x="175.04" y="268.08" width="18.77" height="38.12" transform="translate(471.56 102.72) rotate(90)"/><rect class="cls-1" x="120.02" y="251.2" width="18.77" height="71.89" transform="translate(416.54 157.74) rotate(90)"/><text class="cls-4" transform="translate(126.22 290.82)">16</text><text class="cls-4" transform="translate(181.88 290.82)">9</text><text class="cls-2" transform="translate(207.5 290.82)">25</text><rect class="cls-1" x="111.48" y="145.42" width="18.77" height="21.36" transform="translate(276.96 35.24) rotate(90)"/><rect class="cls-3" x="128.58" y="149.75" width="18.77" height="12.69" transform="translate(294.06 18.13) rotate(90)"/><text class="cls-4" transform="translate(117.8 160.39)">5</text><text class="cls-4" transform="translate(135.8 160.39)">3</text><line class="cls-5" x1="93.67" y1="56.81" x2="93.67" y2="302.4"/><text class="cls-6" transform="translate(0.69 69.91)">Minimum LNG and <tspan x="0" y="12">other state exports</tspan></text><text class="cls-6" transform="translate(0.69 123.66)">Mexico exports</text><text class="cls-6" transform="translate(0.69 152.78)"><tspan class="cls-7">V</tspan><tspan x="6.62" y="0">ital industrial and </tspan><tspan x="0" y="12">transportation</tspan></text><text class="cls-6" transform="translate(0.69 194.93)">Prioritized residential <tspan x="0" y="12">and commercial</tspan></text><text class="cls-6" transform="translate(0.69 236.79)">Electric-power <tspan x="0" y="12">generation</tspan></text><text class="cls-8" transform="translate(0.69 280.6)"><tspan class="cls-9">T</tspan><tspan x="5.75" y="0">otal gas demand </tspan><tspan x="0" y="12">as of Feb 15</tspan></text><line class="cls-10" x1="97.56" y1="81.32" x2="97.56" y2="82.82"/><line class="cls-11" x1="97.56" y1="85.8" x2="97.56" y2="102.17"/><line class="cls-10" x1="97.56" y1="103.66" x2="97.56" y2="105.16"/><line class="cls-10" x1="110.07" y1="123.45" x2="110.07" y2="124.95"/><line class="cls-12" x1="110.07" y1="127.89" x2="110.07" y2="144.06"/><line class="cls-10" x1="110.07" y1="145.53" x2="110.07" y2="147.03"/><line class="cls-10" x1="131.14" y1="165.32" x2="131.14" y2="166.82"/><line class="cls-13" x1="131.14" y1="169.74" x2="131.14" y2="185.82"/><line class="cls-10" x1="131.14" y1="187.28" x2="131.14" y2="188.78"/><line class="cls-10" x1="139.76" y1="206.94" x2="139.76" y2="208.44"/><line class="cls-14" x1="139.76" y1="211.32" x2="139.76" y2="227.2"/><line class="cls-10" x1="139.76" y1="228.64" x2="139.76" y2="230.14"/><line class="cls-10" x1="165.41" y1="248.81" x2="165.41" y2="250.31"/><line class="cls-15" x1="165.41" y1="253.21" x2="165.41" y2="274.94"/><line class="cls-10" x1="165.41" y1="276.38" x2="165.41" y2="277.88"/><rect class="cls-1" x="0.39" y="24.85" width="10.17" height="10.17"/><text class="cls-16" transform="translate(13.85 34.52)">Estim<tspan class="cls-17" x="20.58" y="0">a</tspan><tspan class="cls-18" x="24.88" y="0">t</tspan><tspan x="27.81" y="0">ed </tspan><tspan class="cls-19" x="39.3" y="0">c</tspan><tspan x="43.28" y="0">onsumption</tspan></text><rect class="cls-3" x="123.85" y="24.85" width="10.17" height="10.17"/><text class="cls-16" transform="translate(135.85 34.52)"><tspan class="cls-20">P</tspan><tspan class="cls-21" x="4.56" y="0">o</tspan><tspan class="cls-18" x="9.5" y="0">t</tspan><tspan x="12.43" y="0">e</tspan><tspan class="cls-17" x="16.94" y="0">n</tspan><tspan class="cls-22" x="21.9" y="0">tial demand unse</tspan><tspan class="cls-23" x="86.79" y="0">r</tspan><tspan class="cls-24" x="89.95" y="0">v</tspan><tspan class="cls-22" x="94.19" y="0">ed</tspan></text><line class="cls-25" x1="0.1" y1="265.74" x2="217.63" y2="265.74"/><text class="cls-26" transform="translate(0 9.14)">T<tspan class="cls-27" x="6.29" y="0">exas gas demand, </tspan><tspan class="cls-28" x="90.08" y="0">bcfd</tspan></text></g></g></svg>