<svg xmlns="http://www.w3.org/2000/svg" viewBox="0 0 249.72 342.25"><defs><style>.cls-1,.cls-18,.cls-8,.cls-9{font-size:10px;}.cls-1,.cls-13,.cls-14,.cls-18,.cls-26,.cls-36,.cls-4,.cls-9{fill:#fff;}.cls-1,.cls-36{font-family:TimesNewRomanPS-BoldMT, Times New Roman;font-weight:700;}.cls-2{letter-spacing:-0.07em;}.cls-21,.cls-22,.cls-23,.cls-24,.cls-25,.cls-3,.cls-35,.cls-6,.cls-7{fill:none;}.cls-17,.cls-21,.cls-22,.cls-23,.cls-24,.cls-25,.cls-3,.cls-35,.cls-6,.cls-7{stroke:#fff;stroke-miterlimit:10;}.cls-3{stroke-width:0.25px;}.cls-5{fill:#ec7f77;}.cls-21,.cls-22,.cls-23,.cls-24,.cls-25,.cls-6,.cls-7{stroke-width:0.75px;}.cls-7{stroke-dasharray:3.18 3.18;}.cls-17,.cls-8{fill:#231f20;}.cls-26,.cls-8,.cls-9{font-family:MyriadPro-Regular, Myriad Pro;}.cls-10{letter-spacing:0em;}.cls-11{letter-spacing:-0.01em;}.cls-12{letter-spacing:0em;}.cls-13{opacity:0.7;}.cls-14{opacity:0.4;}.cls-15{fill:#d4ebdf;}.cls-16{fill:#6dceeb;}.cls-17{stroke-linecap:round;}.cls-18,.cls-40{font-family:TimesNewRomanPSMT, Times New Roman;}.cls-19{letter-spacing:-0.06em;}.cls-20{letter-spacing:-0.09em;}.cls-21{stroke-dasharray:2.98 2.98;}.cls-22{stroke-dasharray:2.94 2.94;}.cls-23{stroke-dasharray:2.92 2.92;}.cls-24{stroke-dasharray:2.89 2.89;}.cls-25{stroke-dasharray:2.9 2.9;}.cls-26{font-size:9px;}.cls-27{letter-spacing:0em;}.cls-28{letter-spacing:-0.01em;}.cls-29{letter-spacing:-0.01em;}.cls-30{letter-spacing:-0.02em;}.cls-31{letter-spacing:0em;}.cls-32{letter-spacing:0em;}.cls-33{letter-spacing:0.02em;}.cls-34{letter-spacing:-0.01em;}.cls-35{stroke-dasharray:3;}.cls-36{font-size:11px;letter-spacing:-0.09em;}.cls-37{letter-spacing:0em;}.cls-38{letter-spacing:-0.06em;}.cls-39,.cls-40{letter-spacing:0em;}.cls-40{font-weight:400;}</style></defs><g id="Layer_2" data-name="Layer 2"><g id="Layer_1-2" data-name="Layer 1"><text class="cls-1" transform="translate(10.71 325.69)"><tspan class="cls-2">A</tspan><tspan x="6.48" y="0">vailable gas supply </tspan><tspan x="0" y="12">as of Feb 15</tspan></text><line class="cls-3" x1="189.32" y1="321.14" x2="212.14" y2="321.14"/><polygon class="cls-4" points="191.8 324.2 192.31 323.65 189.6 321.14 192.31 318.62 191.8 318.07 188.5 321.14 191.8 324.2"/><polygon class="cls-4" points="209.65 324.2 209.14 323.65 211.85 321.14 209.14 318.62 209.65 318.07 212.95 321.14 209.65 324.2"/><rect class="cls-5" x="136.93" y="285.05" width="18.77" height="84.04" transform="translate(473.38 180.76) rotate(90)"/><line class="cls-6" x1="188.37" y1="293.18" x2="188.37" y2="294.68"/><line class="cls-7" x1="188.37" y1="297.86" x2="188.37" y2="321.69"/><line class="cls-6" x1="188.37" y1="323.28" x2="188.37" y2="324.78"/><line class="cls-6" x1="213.08" y1="293.18" x2="213.08" y2="294.68"/><line class="cls-7" x1="213.08" y1="297.86" x2="213.08" y2="321.69"/><line class="cls-6" x1="213.08" y1="323.28" x2="213.08" y2="324.78"/><text class="cls-8" transform="translate(139.86 330.27)">19</text><text class="cls-9" transform="translate(189.49 336.02)">6 b<tspan class="cls-10" x="12.94" y="0">c</tspan><tspan class="cls-11" x="17.45" y="0">f</tspan><tspan class="cls-12" x="20.24" y="0">d</tspan></text><rect class="cls-13" x="96.36" y="70.48" width="18.77" height="4.12" transform="translate(178.29 -33.2) rotate(90)"/><text class="cls-9" transform="translate(110.4 75.24)">1</text><rect class="cls-13" x="104.49" y="107.96" width="18.77" height="12.72" transform="translate(228.19 0.45) rotate(90)"/><rect class="cls-14" x="113.39" y="111.82" width="18.77" height="5" transform="translate(237.1 -8.45) rotate(90)"/><text class="cls-8" transform="translate(111.11 117.83)">3</text><text class="cls-9" transform="translate(126.55 117.83)">1</text><rect class="cls-13" x="136.36" y="193.28" width="18.77" height="9.19" transform="translate(343.62 52.13) rotate(90)"/><rect class="cls-14" x="145.08" y="193.78" width="18.77" height="8.18" transform="translate(352.34 43.41) rotate(90)"/><text class="cls-8" transform="translate(142.7 202.13)">2</text><text class="cls-8" transform="translate(151.64 202.13)">2</text><rect class="cls-13" x="153.2" y="226.77" width="18.77" height="25.75" transform="translate(402.23 77.07) rotate(90)"/><rect class="cls-14" x="174.54" y="231.17" width="18.77" height="16.97" transform="translate(423.57 55.73) rotate(90)"/><text class="cls-8" transform="translate(159.81 243.36)">6</text><text class="cls-8" transform="translate(181.26 243.36)">4</text><rect class="cls-15" x="185.14" y="268.08" width="18.77" height="38.12" transform="translate(481.66 92.62) rotate(90)"/><rect class="cls-16" x="130.11" y="251.2" width="18.77" height="71.89" transform="translate(426.64 147.64) rotate(90)"/><text class="cls-8" transform="translate(136.32 290.82)">16</text><text class="cls-8" transform="translate(191.98 290.82)">9</text><text class="cls-9" transform="translate(217.6 290.82)">25</text><rect class="cls-13" x="121.57" y="145.42" width="18.77" height="21.36" transform="translate(287.05 25.14) rotate(90)"/><rect class="cls-14" x="138.68" y="149.75" width="18.77" height="12.69" transform="translate(304.16 8.04) rotate(90)"/><text class="cls-8" transform="translate(127.89 160.39)">5</text><text class="cls-8" transform="translate(145.89 160.39)">3</text><line class="cls-17" x1="103.77" y1="56.81" x2="103.77" y2="341.75"/><text class="cls-18" transform="translate(10.79 69.91)">Minimum LNG and <tspan x="0" y="12">other state exports</tspan></text><text class="cls-18" transform="translate(10.79 123.66)">Mexico exports</text><text class="cls-18" transform="translate(10.79 152.78)"><tspan class="cls-19">V</tspan><tspan x="6.62" y="0">ital industrial and </tspan><tspan x="0" y="12">transportation</tspan></text><text class="cls-18" transform="translate(10.79 194.93)">Prioritized residential <tspan x="0" y="12">and commercial</tspan></text><text class="cls-18" transform="translate(10.79 236.79)">Electric-power <tspan x="0" y="12">generation</tspan></text><text class="cls-1" transform="translate(10.79 282.6)"><tspan class="cls-20">T</tspan><tspan x="5.75" y="0">otal gas demand </tspan><tspan x="0" y="12">as of Feb 15</tspan></text><line class="cls-6" x1="107.66" y1="81.32" x2="107.66" y2="82.82"/><line class="cls-21" x1="107.66" y1="85.8" x2="107.66" y2="102.17"/><line class="cls-6" x1="107.66" y1="103.66" x2="107.66" y2="105.16"/><line class="cls-6" x1="120.17" y1="123.45" x2="120.17" y2="124.95"/><line class="cls-22" x1="120.17" y1="127.89" x2="120.17" y2="144.06"/><line class="cls-6" x1="120.17" y1="145.53" x2="120.17" y2="147.03"/><line class="cls-6" x1="141.23" y1="165.32" x2="141.23" y2="166.82"/><line class="cls-23" x1="141.23" y1="169.74" x2="141.23" y2="185.82"/><line class="cls-6" x1="141.23" y1="187.28" x2="141.23" y2="188.78"/><line class="cls-6" x1="149.85" y1="206.94" x2="149.85" y2="208.44"/><line class="cls-24" x1="149.85" y1="211.32" x2="149.85" y2="227.2"/><line class="cls-6" x1="149.85" y1="228.64" x2="149.85" y2="230.14"/><line class="cls-6" x1="175.51" y1="248.81" x2="175.51" y2="250.31"/><line class="cls-25" x1="175.51" y1="253.21" x2="175.51" y2="274.94"/><line class="cls-6" x1="175.51" y1="276.38" x2="175.51" y2="277.88"/><rect class="cls-16" x="10.48" y="24.85" width="10.17" height="10.17"/><text class="cls-26" transform="translate(23.95 34.52)">Estim<tspan class="cls-27" x="20.58" y="0">a</tspan><tspan class="cls-28" x="24.88" y="0">t</tspan><tspan x="27.81" y="0">ed </tspan><tspan class="cls-29" x="39.3" y="0">c</tspan><tspan x="43.28" y="0">onsumption</tspan></text><rect class="cls-15" x="133.94" y="24.85" width="10.17" height="10.17"/><text class="cls-26" transform="translate(145.94 34.52)"><tspan class="cls-30">P</tspan><tspan class="cls-31" x="4.56" y="0">o</tspan><tspan class="cls-28" x="9.5" y="0">t</tspan><tspan x="12.43" y="0">e</tspan><tspan class="cls-27" x="16.94" y="0">n</tspan><tspan class="cls-32" x="21.9" y="0">tial demand unse</tspan><tspan class="cls-33" x="86.79" y="0">r</tspan><tspan class="cls-34" x="89.95" y="0">v</tspan><tspan class="cls-32" x="94.19" y="0">ed</tspan></text><line class="cls-35" x1="10.19" y1="265.74" x2="227.72" y2="265.74"/><text class="cls-36" transform="translate(10.09 9.14)">T<tspan class="cls-37" x="6.29" y="0">exas gas demand and suppl</tspan><tspan class="cls-38" x="133.24" y="0">y</tspan><tspan class="cls-39" x="138.1" y="0">, </tspan><tspan class="cls-40" x="143.53" y="0">bcfd</tspan></text><polygon class="cls-16" points="7.45 279.74 0 275.44 0 284.04 7.45 279.74"/></g></g></svg>