<svg xmlns="http://www.w3.org/2000/svg" viewBox="0 0 195.04 199.88"><defs><style>.cls-1{font-size:10px;font-family:TimesNewRomanPS-BoldMT, Times New Roman;font-weight:700;}.cls-1,.cls-3,.cls-6,.cls-8{fill:#fff;}.cls-2{letter-spacing:-0.07em;}.cls-3{font-size:12px;}.cls-12,.cls-3,.cls-6{font-family:MyriadPro-Regular, Myriad Pro;}.cls-4{letter-spacing:0em;}.cls-5{letter-spacing:-0.01em;}.cls-12,.cls-6{font-size:13px;}.cls-10,.cls-7,.cls-9{fill:none;}.cls-10,.cls-15,.cls-7,.cls-9{stroke:#fff;stroke-miterlimit:10;}.cls-7{stroke-width:0.5px;}.cls-10,.cls-9{stroke-width:0.75px;}.cls-10{stroke-dasharray:2.91 2.91;}.cls-11{fill:#ec7f77;}.cls-12,.cls-15{fill:#231f20;}.cls-13{fill:#d4ebdf;}.cls-14{fill:#6dceeb;}.cls-15{stroke-linecap:round;}.cls-16{letter-spacing:-0.09em;}</style></defs><g id="Layer_2" data-name="Layer 2"><g id="Layer_1-2" data-name="Layer 1"><text class="cls-1" transform="translate(107.73 183.96)"><tspan class="cls-2">A</tspan><tspan x="6.48" y="0">vailable gas </tspan><tspan x="0" y="12">supply as of Feb 15</tspan></text><text class="cls-3" transform="translate(143.33 40.59)">6 b<tspan class="cls-4" x="15.53" y="0">c</tspan><tspan class="cls-5" x="20.94" y="0">f</tspan><tspan x="24.29" y="0">d</tspan></text><text class="cls-6" transform="translate(40.46 10.88)">25</text><line class="cls-7" x1="134.39" y1="52.6" x2="134.39" y2="20.71"/><polygon class="cls-8" points="138.48 49.29 137.75 48.61 134.4 52.22 131.04 48.61 130.31 49.29 134.4 53.69 138.48 49.29"/><polygon class="cls-8" points="138.48 24.02 137.75 24.7 134.4 21.09 131.04 24.7 130.31 24.02 134.4 19.62 138.48 24.02"/><line class="cls-9" x1="64.58" y1="53.86" x2="66.08" y2="53.86"/><line class="cls-10" x1="69" y1="53.86" x2="137.46" y2="53.86"/><line class="cls-9" x1="138.91" y1="53.86" x2="140.41" y2="53.86"/><line class="cls-9" x1="64.58" y1="19.44" x2="66.08" y2="19.44"/><line class="cls-10" x1="69" y1="19.44" x2="137.46" y2="19.44"/><line class="cls-9" x1="138.91" y1="19.44" x2="140.41" y2="19.44"/><rect class="cls-11" x="116.62" y="53.93" width="36.16" height="117.1"/><text class="cls-12" transform="translate(126.04 117.05)">19</text><rect class="cls-13" x="28.48" y="18.74" width="36.16" height="53.12"/><rect class="cls-14" x="28.48" y="71.89" width="36.16" height="100.17"/><text class="cls-12" transform="translate(38.15 124.33)">16</text><text class="cls-12" transform="translate(42.81 51.04)">9</text><line class="cls-15" x1="0.5" y1="171.76" x2="194.54" y2="171.76"/><text class="cls-1" transform="translate(12.76 183.96)"><tspan class="cls-16">T</tspan><tspan x="5.75" y="0">otal gas demand </tspan><tspan x="0" y="12">as of Feb 15</tspan></text></g></g></svg>